  0
SECTION
  2
HEADER
  9
$ACADVER
  1
AC1015
  9
$ACADMAINTVER
 70
     6
  9
$DWGCODEPAGE
  3
ANSI_1252
  9
$INSBASE
 10
0.0
 20
0.0
 30
0.0
  9
$EXTMIN
 10
0.0
 20
0.0
 30
0.0
  9
$EXTMAX
 10
270.0
 20
560.0
 30
0.0
  9
$LIMMIN
 10
0.0
 20
0.0
  9
$LIMMAX
 10
270.0
 20
560.0
  9
$ORTHOMODE
 70
     0
  9
$REGENMODE
 70
     1
  9
$FILLMODE
 70
     1
  9
$QTEXTMODE
 70
     0
  9
$MIRRTEXT
 70
     1
  9
$LTSCALE
 40
1.0
  9
$ATTMODE
 70
     1
  9
$TEXTSIZE
 40
3.5
  9
$TRACEWID
 40
1.0
  9
$TEXTSTYLE
  7
Standard
  9
$CLAYER
  8
0
  9
$CELTYPE
  6
ByLayer
  9
$CECOLOR
 62
   256
  9
$CELTSCALE
 40
1.0
  9
$DISPSILH
 70
     0
  9
$DIMSCALE
 40
1.0
  9
$DIMASZ
 40
3.302
  9
$DIMEXO
 40
1.0
  9
$DIMDLI
 40
3.75
  9
$DIMRND
 40
0.0
  9
$DIMDLE
 40
0.0
  9
$DIMEXE
 40
1.0
  9
$DIMTP
 40
0.0
  9
$DIMTM
 40
0.0
  9
$DIMTXT
 40
3.5
  9
$DIMCEN
 40
2.5
  9
$DIMTSZ
 40
0.0
  9
$DIMTOL
 70
     0
  9
$DIMLIM
 70
     0
  9
$DIMTIH
 70
     1
  9
$DIMTOH
 70
     1
  9
$DIMSE1
 70
     0
  9
$DIMSE2
 70
     0
  9
$DIMTAD
 70
     1
  9
$DIMZIN
 70
     0
  9
$DIMBLK
  1

  9
$DIMASO
 70
     1
  9
$DIMSHO
 70
     1
  9
$DIMPOST
  1

  9
$DIMAPOST
  1

  9
$DIMALT
 70
     0
  9
$DIMALTD
 70
     3
  9
$DIMALTF
 40
0.0393700787
  9
$DIMLFAC
 40
0.02
  9
$DIMTOFL
 70
     1
  9
$DIMTVP
 40
0.0
  9
$DIMTIX
 70
     0
  9
$DIMSOXD
 70
     0
  9
$DIMSAH
 70
     0
  9
$DIMBLK1
  1

  9
$DIMBLK2
  1

  9
$DIMSTYLE
  2
ISO-25
  9
$DIMCLRD
 70
     0
  9
$DIMCLRE
 70
     0
  9
$DIMCLRT
 70
     0
  9
$DIMTFAC
 40
1.0
  9
$DIMGAP
 40
1.524
  9
$DIMJUST
 70
     0
  9
$DIMSD1
 70
     0
  9
$DIMSD2
 70
     0
  9
$DIMTOLJ
 70
     0
  9
$DIMTZIN
 70
     0
  9
$DIMALTZ
 70
     0
  9
$DIMALTTZ
 70
     0
  9
$DIMUPT
 70
     0
  9
$DIMDEC
 70
     2
  9
$DIMTDEC
 70
     2
  9
$DIMALTU
 70
     2
  9
$DIMALTTD
 70
     3
  9
$DIMTXSTY
  7
Standard
  9
$DIMAUNIT
 70
     0
  9
$DIMADEC
 70
     2
  9
$DIMALTRND
 40
0.0
  9
$DIMAZIN
 70
     0
  9
$DIMDSEP
 70
    44
  9
$DIMATFIT
 70
     3
  9
$DIMFRAC
 70
     0
  9
$DIMLDRBLK
  1

  9
$DIMLUNIT
 70
     2
  9
$DIMLWD
 70
    -2
  9
$DIMLWE
 70
    -2
  9
$DIMTMOVE
 70
     0
  9
$LUNITS
 70
     2
  9
$LUPREC
 70
     2
  9
$SKETCHINC
 40
1.0
  9
$FILLETRAD
 40
10.0
  9
$AUNITS
 70
     0
  9
$AUPREC
 70
     2
  9
$MENU
  1
.
  9
$ELEVATION
 40
0.0
  9
$PELEVATION
 40
0.0
  9
$THICKNESS
 40
0.0
  9
$LIMCHECK
 70
     0
  9
$CHAMFERA
 40
0.0
  9
$CHAMFERB
 40
0.0
  9
$CHAMFERC
 40
0.0
  9
$CHAMFERD
 40
0.0
  9
$SKPOLY
 70
     0
  9
$TDCREATE
 40
2458024.830802651
  9
$TDUCREATE
 40
2458024.705802651
  9
$TDUPDATE
 40
2458024.830802998
  9
$TDUUPDATE
 40
2458024.705802998
  9
$TDINDWG
 40
0.0000000116
  9
$TDUSRTIMER
 40
0.0000000116
  9
$USRTIMER
 70
     1
  9
$ANGBASE
 50
0.0
  9
$ANGDIR
 70
     0
  9
$PDMODE
 70
     0
  9
$PDSIZE
 40
-1.0
  9
$PLINEWID
 40
0.0
  9
$SPLFRAME
 70
     0
  9
$SPLINETYPE
 70
     6
  9
$SPLINESEGS
 70
     8
  9
$HANDSEED
  5
2A1
  9
$SURFTAB1
 70
     6
  9
$SURFTAB2
 70
     6
  9
$SURFTYPE
 70
     6
  9
$SURFU
 70
     6
  9
$SURFV
 70
     6
  9
$UCSBASE
  2

  9
$UCSNAME
  2

  9
$UCSORG
 10
0.0
 20
0.0
 30
0.0
  9
$UCSXDIR
 10
1.0
 20
0.0
 30
0.0
  9
$UCSYDIR
 10
0.0
 20
1.0
 30
0.0
  9
$UCSORTHOREF
  2

  9
$UCSORTHOVIEW
 70
     0
  9
$UCSORGTOP
 10
0.0
 20
0.0
 30
0.0
  9
$UCSORGBOTTOM
 10
0.0
 20
0.0
 30
0.0
  9
$UCSORGLEFT
 10
0.0
 20
0.0
 30
0.0
  9
$UCSORGRIGHT
 10
0.0
 20
0.0
 30
0.0
  9
$UCSORGFRONT
 10
0.0
 20
0.0
 30
0.0
  9
$UCSORGBACK
 10
0.0
 20
0.0
 30
0.0
  9
$PUCSBASE
  2

  9
$PUCSNAME
  2

  9
$PUCSORG
 10
0.0
 20
0.0
 30
0.0
  9
$PUCSXDIR
 10
1.0
 20
0.0
 30
0.0
  9
$PUCSYDIR
 10
0.0
 20
1.0
 30
0.0
  9
$PUCSORTHOREF
  2

  9
$PUCSORTHOVIEW
 70
     0
  9
$PUCSORGTOP
 10
0.0
 20
0.0
 30
0.0
  9
$PUCSORGBOTTOM
 10
0.0
 20
0.0
 30
0.0
  9
$PUCSORGLEFT
 10
0.0
 20
0.0
 30
0.0
  9
$PUCSORGRIGHT
 10
0.0
 20
0.0
 30
0.0
  9
$PUCSORGFRONT
 10
0.0
 20
0.0
 30
0.0
  9
$PUCSORGBACK
 10
0.0
 20
0.0
 30
0.0
  9
$USERI1
 70
     0
  9
$USERI2
 70
     0
  9
$USERI3
 70
     0
  9
$USERI4
 70
     0
  9
$USERI5
 70
     0
  9
$USERR1
 40
0.0
  9
$USERR2
 40
0.0
  9
$USERR3
 40
0.0
  9
$USERR4
 40
0.0
  9
$USERR5
 40
0.0
  9
$WORLDVIEW
 70
     1
  9
$SHADEDGE
 70
     3
  9
$SHADEDIF
 70
    70
  9
$TILEMODE
 70
     1
  9
$MAXACTVP
 70
    64
  9
$PINSBASE
 10
0.0
 20
0.0
 30
0.0
  9
$PLIMCHECK
 70
     0
  9
$PEXTMIN
 10
1.0000000000E+20
 20
1.0000000000E+20
 30
1.0000000000E+20
  9
$PEXTMAX
 10
-1.0000000000E+20
 20
-1.0000000000E+20
 30
-1.0000000000E+20
  9
$PLIMMIN
 10
0.0
 20
0.0
  9
$PLIMMAX
 10
420.0
 20
297.0
  9
$UNITMODE
 70
     0
  9
$VISRETAIN
 70
     1
  9
$PLINEGEN
 70
     0
  9
$PSLTSCALE
 70
     1
  9
$TREEDEPTH
 70
  3020
  9
$CMLSTYLE
  2
Standard
  9
$CMLJUST
 70
     0
  9
$CMLSCALE
 40
20.0
  9
$PROXYGRAPHICS
 70
     1
  9
$MEASUREMENT
 70
     1
  9
$CELWEIGHT
370
    -1
  9
$ENDCAPS
280
     0
  9
$JOINSTYLE
280
     0
  9
$LWDISPLAY
290
     1
  9
$INSUNITS
 70
     4
  9
$HYPERLINKBASE
  1

  9
$STYLESHEET
  1

  9
$XEDIT
290
     1
  9
$CEPSNTYPE
380
     0
  9
$PSTYLEMODE
290
     1
  9
$FINGERPRINTGUID
  2
{5FFED4CC-4CD9-4F42-99C6-A4ACD7B98159}
  9
$VERSIONGUID
  2
{FAEB1C32-E019-11D5-929B-00C0DF256EC4}
  9
$EXTNAMES
290
     1
  9
$PSVPSCALE
 40
0.0
  9
$OLESTARTUP
290
     0
  0
ENDSEC
  0
SECTION
  2
CLASSES
  0
CLASS
  1
ACDBDICTIONARYWDFLT
  2
AcDbDictionaryWithDefault
  3
ObjectDBX Classes
 90
        0
280
     0
281
     0
  0
CLASS
  1
VISUALSTYLE
  2
AcDbVisualStyle
  3
ObjectDBX Classes
 90
     4095
280
     0
281
     0
  0
CLASS
  1
MATERIAL
  2
AcDbMaterial
  3
ObjectDBX Classes
 90
     1153
280
     0
281
     0
  0
CLASS
  1
SCALE
  2
AcDbScale
  3
ObjectDBX Classes
 90
     1153
280
     0
281
     0
  0
CLASS
  1
SUN
  2
AcDbSun
  3
SCENEOE
 90
     1153
280
     0
281
     0
  0
CLASS
  1
ACDBPLACEHOLDER
  2
AcDbPlaceHolder
  3
ObjectDBX Classes
 90
        0
280
     0
281
     0
  0
CLASS
  1
LAYOUT
  2
AcDbLayout
  3
ObjectDBX Classes
 90
        0
280
     0
281
     0
  0
ENDSEC
  0
SECTION
  2
TABLES
  0
TABLE
  2
VPORT
  5
8
330
0
100
AcDbSymbolTable
 70
     1
  0
VPORT
  5
29
330
8
100
AcDbSymbolTableRecord
100
AcDbViewportTableRecord
  2
*Active
 70
     0
 10
0.0
 20
0.0
 11
1.0
 21
1.0
 12
135.0
 22
280.0
 13
0.0
 23
0.0
 14
10.0
 24
10.0
 15
10.0
 25
10.0
 16
0.0
 26
0.0
 36
1.0
 17
0.0
 27
0.0
 37
0.0
 40
560.0
 41
0.4821428571
 42
50.0
 43
0.0
 44
0.0
 50
0.0
 51
0.0
 71
     0
 72
  2000
 73
     1
 74
     3
 75
     0
 76
     0
 77
     0
 78
     0
281
     0
 65
     1
110
0.0
120
0.0
130
0.0
111
1.0
121
0.0
131
0.0
112
0.0
122
1.0
132
0.0
 79
     0
146
0.0
  0
ENDTAB
  0
TABLE
  2
LTYPE
  5
5
330
0
100
AcDbSymbolTable
 70
     6
  0
LTYPE
  5
14
330
5
100
AcDbSymbolTableRecord
100
AcDbLinetypeTableRecord
  2
ByBlock
 70
     0
  3

 72
    65
 73
     0
 40
0.0
  0
LTYPE
  5
15
330
5
100
AcDbSymbolTableRecord
100
AcDbLinetypeTableRecord
  2
ByLayer
 70
     0
  3

 72
    65
 73
     0
 40
0.0
  0
LTYPE
  5
16
330
5
100
AcDbSymbolTableRecord
100
AcDbLinetypeTableRecord
  2
Continuous
 70
     0
  3
Solid line
 72
    65
 73
     0
 40
0.0
  0
LTYPE
  5
6A
330
5
100
AcDbSymbolTableRecord
100
AcDbLinetypeTableRecord
  2
HIDDEN
 70
     0
  3
Hidden __ __ __ __ __ __ __ __ __ __ __ __ __ __
 72
    65
 73
     2
 40
1.905
 49
1.27
 74
     0
 49
-0.635
 74
     0
  0
LTYPE
  5
6B
330
5
100
AcDbSymbolTableRecord
100
AcDbLinetypeTableRecord
  2
PHANTOM
 70
     0
  3
Phantom ______  __  __  ______  __  __  ______
 72
    65
 73
     6
 40
12.7
 49
6.35
 74
     0
 49
-1.27
 74
     0
 49
1.27
 74
     0
 49
-1.27
 74
     0
 49
1.27
 74
     0
 49
-1.27
 74
     0
  0
LTYPE
  5
6C
330
5
100
AcDbSymbolTableRecord
100
AcDbLinetypeTableRecord
  2
CENTER
 70
     0
  3
Center ____ _ ____ _ ____ _ ____ _ ____ _ ____
 72
    65
 73
     4
 40
10.16
 49
6.35
 74
     0
 49
-1.27
 74
     0
 49
1.27
 74
     0
 49
-1.27
 74
     0
  0
LTYPE
  5
6D
330
5
100
AcDbSymbolTableRecord
100
AcDbLinetypeTableRecord
  2
CENTERX2
 70
     0
  3
Center (2x) ________  __  ________  __  _____
 72
    65
 73
     4
 40
20.32
 49
12.7
 74
     0
 49
-2.54
 74
     0
 49
2.54
 74
     0
 49
-2.54
 74
     0
  0
LTYPE
  5
6E
330
5
100
AcDbSymbolTableRecord
100
AcDbLinetypeTableRecord
  2
DOT2
 70
     0
  3
Dot (.5x) ........................................
 72
    65
 73
     2
 40
0.635
 49
0.0
 74
     0
 49
-0.635
 74
     0
  0
ENDTAB
  0
TABLE
  2
LAYER
  5
2
330
0
100
AcDbSymbolTable
 70
     1
  0
LAYER
  5
10
330
2
100
AcDbSymbolTableRecord
100
AcDbLayerTableRecord
  2
0
 70
     0
 62
     7
  6
Continuous
370
    -3
390
F
  0
ENDTAB
  0
TABLE
  2
STYLE
  5
3
330
0
100
AcDbSymbolTable
 70
     1
  0
STYLE
  5
11
330
3
100
AcDbSymbolTableRecord
100
AcDbTextStyleTableRecord
  2
Standard
 70
     0
 40
0.0
 41
1.0
 50
0.0
 71
     0
 42
3.5
  3
txt
  4

  0
ENDTAB
  0
TABLE
  2
VIEW
  5
6
330
0
100
AcDbSymbolTable
 70
     0
  0
ENDTAB
  0
TABLE
  2
UCS
  5
7
330
0
100
AcDbSymbolTable
 70
     0
  0
ENDTAB
  0
TABLE
  2
APPID
  5
9
330
0
100
AcDbSymbolTable
 70
     1
  0
APPID
  5
12
330
9
100
AcDbSymbolTableRecord
100
AcDbRegAppTableRecord
  2
ACAD
 70
     0
  0
ENDTAB
  0
TABLE
  2
DIMSTYLE
  5
A
330
0
100
AcDbSymbolTable
 70
     1
100
AcDbDimStyleTable
  0
DIMSTYLE
105
27
330
A
100
AcDbSymbolTableRecord
100
AcDbDimStyleTableRecord
  2
ISO-25
 70
     0
 41
2.5
 42
0.625
 43
3.75
 44
1.25
 73
     0
 74
     0
 77
     1
 78
     8
140
2.5
141
2.5
143
0.0393700787
147
0.625
171
     3
172
     1
178
     0
271
     2
272
     2
274
     3
278
    44
283
     0
284
     8
340
11
  0
ENDTAB
  0
TABLE
  2
BLOCK_RECORD
  5
1
330
0
100
AcDbSymbolTable
 70
     1
  0
BLOCK_RECORD
  5
1F
330
1
100
AcDbSymbolTableRecord
100
AcDbBlockTableRecord
  2
*Model_Space
340
22
  0
BLOCK_RECORD
  5
1B
330
1
100
AcDbSymbolTableRecord
100
AcDbBlockTableRecord
  2
*Paper_Space
340
1E
  0
BLOCK_RECORD
  5
23
330
1
100
AcDbSymbolTableRecord
100
AcDbBlockTableRecord
  2
*Paper_Space0
340
26
  0
ENDTAB
  0
ENDSEC
  0
SECTION
  2
BLOCKS
  0
BLOCK
  5
20
330
1F
100
AcDbEntity
  8
0
100
AcDbBlockBegin
  2
*Model_Space
 70
     0
 10
0.0
 20
0.0
 30
0.0
  3
*Model_Space
  1
*Model_Space
  0
ENDBLK
  5
21
330
1F
100
AcDbEntity
  8
0
100
AcDbBlockEnd
  0
BLOCK
  5
1C
330
1B
100
AcDbEntity
 67
     1
  8
0
100
AcDbBlockBegin
  2
*Paper_Space
 70
     0
 10
0.0
 20
0.0
 30
0.0
  3
*Paper_Space
  1
*Paper_Space
  0
ENDBLK
  5
1D
330
1B
100
AcDbEntity
 67
     1
  8
0
100
AcDbBlockEnd
  0
BLOCK
  5
24
330
23
100
AcDbEntity
  8
0
100
AcDbBlockBegin
  2
*Paper_Space0
 70
     0
 10
0.0
 20
0.0
 30
0.0
  3
*Paper_Space0
  1
*Paper_Space0
  0
ENDBLK
  5
25
330
23
100
AcDbEntity
  8
0
100
AcDbBlockEnd
  0
ENDSEC
  0
SECTION
  2
ENTITIES
  0
LINE
  5
6F
330
1F
100
AcDbEntity
  8
0
  6
Continuous
 62
     7
370
    15
100
AcDbLine
 10
224.9904378754
 20
425.4961766462
 30
0.0
 11
224.9904378754
 21
433.6961766865
 31
0.0
  0
LINE
  5
70
330
1F
100
AcDbEntity
  8
0
  6
Continuous
 62
     7
370
    15
100
AcDbLine
 10
224.9904378754
 20
433.6961766865
 30
0.0
 11
218.7904372317
 21
433.6961766865
 31
0.0
  0
LINE
  5
71
330
1F
100
AcDbEntity
  8
0
  6
Continuous
 62
     7
370
    15
100
AcDbLine
 10
218.7904372317
 20
433.6961766865
 30
0.0
 11
218.7904372317
 21
425.4961766462
 31
0.0
  0
LINE
  5
72
330
1F
100
AcDbEntity
  8
0
  6
Continuous
 62
     7
370
    15
100
AcDbLine
 10
218.7904372317
 20
425.4961766462
 30
0.0
 11
224.9904378754
 21
425.4961766462
 31
0.0
  0
LINE
  5
73
330
1F
100
AcDbEntity
  8
0
  6
Continuous
 62
     7
370
    15
100
AcDbLine
 10
218.7904372317
 20
449.6961760494
 30
0.0
 11
218.7904372317
 21
441.4961769405
 31
0.0
  0
LINE
  5
74
330
1F
100
AcDbEntity
  8
0
  6
Continuous
 62
     7
370
    15
100
AcDbLine
 10
218.7904372317
 20
441.4961769405
 30
0.0
 11
224.9904378754
 21
441.4961769405
 31
0.0
  0
LINE
  5
75
330
1F
100
AcDbEntity
  8
0
  6
Continuous
 62
     7
370
    15
100
AcDbLine
 10
224.9904378754
 20
441.4961769405
 30
0.0
 11
224.9904378754
 21
449.6961760494
 31
0.0
  0
LINE
  5
76
330
1F
100
AcDbEntity
  8
0
  6
Continuous
 62
     7
370
    15
100
AcDbLine
 10
224.9904378754
 20
449.6961760494
 30
0.0
 11
218.7904372317
 21
449.6961760494
 31
0.0
  0
LINE
  5
77
330
1F
100
AcDbEntity
  8
0
  6
Continuous
 62
     7
370
    15
100
AcDbLine
 10
42.7904381853
 20
433.6961766865
 30
0.0
 11
48.9904388291
 21
433.6961766865
 31
0.0
  0
LINE
  5
78
330
1F
100
AcDbEntity
  8
0
  6
Continuous
 62
     7
370
    15
100
AcDbLine
 10
42.7904381853
 20
425.4961766462
 30
0.0
 11
42.7904381853
 21
433.6961766865
 31
0.0
  0
LINE
  5
79
330
1F
100
AcDbEntity
  8
0
  6
Continuous
 62
     7
370
    15
100
AcDbLine
 10
48.9904388291
 20
425.4961766462
 30
0.0
 11
42.7904381853
 21
425.4961766462
 31
0.0
  0
LINE
  5
7A
330
1F
100
AcDbEntity
  8
0
  6
Continuous
 62
     7
370
    15
100
AcDbLine
 10
48.9904388291
 20
433.6961766865
 30
0.0
 11
48.9904388291
 21
425.4961766462
 31
0.0
  0
LINE
  5
7B
330
1F
100
AcDbEntity
  8
0
  6
Continuous
 62
     7
370
    15
100
AcDbLine
 10
42.7904381853
 20
417.6961763922
 30
0.0
 11
48.9904388291
 21
417.6961763922
 31
0.0
  0
LINE
  5
7C
330
1F
100
AcDbEntity
  8
0
  6
Continuous
 62
     7
370
    15
100
AcDbLine
 10
42.7904381853
 20
409.4961772832
 30
0.0
 11
42.7904381853
 21
417.6961763922
 31
0.0
  0
LINE
  5
7D
330
1F
100
AcDbEntity
  8
0
  6
Continuous
 62
     7
370
    15
100
AcDbLine
 10
48.9904388291
 20
409.4961772832
 30
0.0
 11
42.7904381853
 21
409.4961772832
 31
0.0
  0
LINE
  5
7E
330
1F
100
AcDbEntity
  8
0
  6
Continuous
 62
     7
370
    15
100
AcDbLine
 10
48.9904388291
 20
417.6961763922
 30
0.0
 11
48.9904388291
 21
409.4961772832
 31
0.0
  0
LINE
  5
7F
330
1F
100
AcDbEntity
  8
0
  6
Continuous
 62
     7
370
    15
100
AcDbLine
 10
48.9904388291
 20
441.4961769405
 30
0.0
 11
42.7904381853
 21
441.4961769405
 31
0.0
  0
LINE
  5
80
330
1F
100
AcDbEntity
  8
0
  6
Continuous
 62
     7
370
    15
100
AcDbLine
 10
48.9904388291
 20
449.6961760494
 30
0.0
 11
48.9904388291
 21
441.4961769405
 31
0.0
  0
LINE
  5
81
330
1F
100
AcDbEntity
  8
0
  6
Continuous
 62
     7
370
    15
100
AcDbLine
 10
42.7904381853
 20
449.6961760494
 30
0.0
 11
48.9904388291
 21
449.6961760494
 31
0.0
  0
LINE
  5
82
330
1F
100
AcDbEntity
  8
0
  6
Continuous
 62
     7
370
    15
100
AcDbLine
 10
42.7904381853
 20
441.4961769405
 30
0.0
 11
42.7904381853
 21
449.6961760494
 31
0.0
  0
CIRCLE
  5
83
330
1F
100
AcDbEntity
  8
0
  6
Continuous
 62
     7
370
    15
100
AcDbCircle
 10
211.8904380304
 20
362.5961766663
 30
0.0
 40
2.0
  0
LINE
  5
84
330
1F
100
AcDbEntity
  8
0
  6
Continuous
 62
     7
370
    15
100
AcDbLine
 10
214.9904399616
 20
374.6961749318
 30
0.0
 11
214.9904399616
 21
366.4961739603
 31
0.0
  0
LINE
  5
85
330
1F
100
AcDbEntity
  8
0
  6
Continuous
 62
     7
370
    15
100
AcDbLine
 10
208.7904393178
 20
374.6961749318
 30
0.0
 11
214.9904399616
 21
374.6961749318
 31
0.0
  0
LINE
  5
86
330
1F
100
AcDbEntity
  8
0
  6
Continuous
 62
     7
370
    15
100
AcDbLine
 10
208.7904393178
 20
366.4961739603
 30
0.0
 11
208.7904393178
 21
374.6961749318
 31
0.0
  0
LINE
  5
87
330
1F
100
AcDbEntity
  8
0
  6
Continuous
 62
     7
370
    15
100
AcDbLine
 10
214.9904399616
 20
366.4961739603
 30
0.0
 11
208.7904393178
 21
366.4961739603
 31
0.0
  0
LINE
  5
88
330
1F
100
AcDbEntity
  8
0
  6
Continuous
 62
     7
370
    15
100
AcDbLine
 10
214.9904399616
 20
358.6961760345
 30
0.0
 11
214.9904399616
 21
350.4961787883
 31
0.0
  0
LINE
  5
89
330
1F
100
AcDbEntity
  8
0
  6
Continuous
 62
     7
370
    15
100
AcDbLine
 10
208.7904393178
 20
358.6961760345
 30
0.0
 11
214.9904399616
 21
358.6961760345
 31
0.0
  0
LINE
  5
8A
330
1F
100
AcDbEntity
  8
0
  6
Continuous
 62
     7
370
    15
100
AcDbLine
 10
208.7904393178
 20
350.4961787883
 30
0.0
 11
208.7904393178
 21
358.6961760345
 31
0.0
  0
LINE
  5
8B
330
1F
100
AcDbEntity
  8
0
  6
Continuous
 62
     7
370
    15
100
AcDbLine
 10
214.9904399616
 20
350.4961787883
 30
0.0
 11
208.7904393178
 21
350.4961787883
 31
0.0
  0
CIRCLE
  5
8C
330
1F
100
AcDbEntity
  8
0
  6
Continuous
 62
     7
370
    15
100
AcDbCircle
 10
66.8904380304
 20
351.5961766663
 30
0.0
 40
2.0
  0
LINE
  5
8D
330
1F
100
AcDbEntity
  8
0
  6
Continuous
 62
     7
370
    15
100
AcDbLine
 10
78.9904362959
 20
348.4961747351
 30
0.0
 11
70.7904353243
 21
348.4961747351
 31
0.0
  0
LINE
  5
8E
330
1F
100
AcDbEntity
  8
0
  6
Continuous
 62
     7
370
    15
100
AcDbLine
 10
78.9904362959
 20
354.6961753789
 30
0.0
 11
78.9904362959
 21
348.4961747351
 31
0.0
  0
LINE
  5
8F
330
1F
100
AcDbEntity
  8
0
  6
Continuous
 62
     7
370
    15
100
AcDbLine
 10
70.7904353243
 20
354.6961753789
 30
0.0
 11
78.9904362959
 21
354.6961753789
 31
0.0
  0
LINE
  5
90
330
1F
100
AcDbEntity
  8
0
  6
Continuous
 62
     7
370
    15
100
AcDbLine
 10
70.7904353243
 20
348.4961747351
 30
0.0
 11
70.7904353243
 21
354.6961753789
 31
0.0
  0
LINE
  5
91
330
1F
100
AcDbEntity
  8
0
  6
Continuous
 62
     7
370
    15
100
AcDbLine
 10
62.9904373986
 20
348.4961747351
 30
0.0
 11
54.7904401523
 21
348.4961747351
 31
0.0
  0
LINE
  5
92
330
1F
100
AcDbEntity
  8
0
  6
Continuous
 62
     7
370
    15
100
AcDbLine
 10
62.9904373986
 20
354.6961753789
 30
0.0
 11
62.9904373986
 21
348.4961747351
 31
0.0
  0
LINE
  5
93
330
1F
100
AcDbEntity
  8
0
  6
Continuous
 62
     7
370
    15
100
AcDbLine
 10
54.7904401523
 20
354.6961753789
 30
0.0
 11
62.9904373986
 21
354.6961753789
 31
0.0
  0
LINE
  5
94
330
1F
100
AcDbEntity
  8
0
  6
Continuous
 62
     7
370
    15
100
AcDbLine
 10
54.7904401523
 20
348.4961747351
 30
0.0
 11
54.7904401523
 21
354.6961753789
 31
0.0
  0
CIRCLE
  5
95
330
1F
100
AcDbEntity
  8
0
  6
Continuous
 62
     7
370
    15
100
AcDbCircle
 10
55.8904380304
 20
496.5961766663
 30
0.0
 40
2.0
  0
LINE
  5
96
330
1F
100
AcDbEntity
  8
0
  6
Continuous
 62
     7
370
    15
100
AcDbLine
 10
52.7904360992
 20
484.4961784008
 30
0.0
 11
52.7904360992
 21
492.6961793724
 31
0.0
  0
LINE
  5
97
330
1F
100
AcDbEntity
  8
0
  6
Continuous
 62
     7
370
    15
100
AcDbLine
 10
58.9904367429
 20
484.4961784008
 30
0.0
 11
52.7904360992
 21
484.4961784008
 31
0.0
  0
LINE
  5
98
330
1F
100
AcDbEntity
  8
0
  6
Continuous
 62
     7
370
    15
100
AcDbLine
 10
58.9904367429
 20
492.6961793724
 30
0.0
 11
58.9904367429
 21
484.4961784008
 31
0.0
  0
LINE
  5
99
330
1F
100
AcDbEntity
  8
0
  6
Continuous
 62
     7
370
    15
100
AcDbLine
 10
52.7904360992
 20
492.6961793724
 30
0.0
 11
58.9904367429
 21
492.6961793724
 31
0.0
  0
LINE
  5
9A
330
1F
100
AcDbEntity
  8
0
  6
Continuous
 62
     7
370
    15
100
AcDbLine
 10
52.7904360992
 20
500.4961772981
 30
0.0
 11
52.7904360992
 21
508.6961745444
 31
0.0
  0
LINE
  5
9B
330
1F
100
AcDbEntity
  8
0
  6
Continuous
 62
     7
370
    15
100
AcDbLine
 10
58.9904367429
 20
500.4961772981
 30
0.0
 11
52.7904360992
 21
500.4961772981
 31
0.0
  0
LINE
  5
9C
330
1F
100
AcDbEntity
  8
0
  6
Continuous
 62
     7
370
    15
100
AcDbLine
 10
58.9904367429
 20
508.6961745444
 30
0.0
 11
58.9904367429
 21
500.4961772981
 31
0.0
  0
LINE
  5
9D
330
1F
100
AcDbEntity
  8
0
  6
Continuous
 62
     7
370
    15
100
AcDbLine
 10
52.7904360992
 20
508.6961745444
 30
0.0
 11
58.9904367429
 21
508.6961745444
 31
0.0
  0
CIRCLE
  5
9E
330
1F
100
AcDbEntity
  8
0
  6
Continuous
 62
     7
370
    15
100
AcDbCircle
 10
200.8904380304
 20
507.5961766663
 30
0.0
 40
2.0
  0
LINE
  5
9F
330
1F
100
AcDbEntity
  8
0
  6
Continuous
 62
     7
370
    15
100
AcDbLine
 10
188.7904397649
 20
510.6961785975
 30
0.0
 11
196.9904407364
 21
510.6961785975
 31
0.0
  0
LINE
  5
A0
330
1F
100
AcDbEntity
  8
0
  6
Continuous
 62
     7
370
    15
100
AcDbLine
 10
188.7904397649
 20
504.4961779538
 30
0.0
 11
188.7904397649
 21
510.6961785975
 31
0.0
  0
LINE
  5
A1
330
1F
100
AcDbEntity
  8
0
  6
Continuous
 62
     7
370
    15
100
AcDbLine
 10
196.9904407364
 20
504.4961779538
 30
0.0
 11
188.7904397649
 21
504.4961779538
 31
0.0
  0
LINE
  5
A2
330
1F
100
AcDbEntity
  8
0
  6
Continuous
 62
     7
370
    15
100
AcDbLine
 10
196.9904407364
 20
510.6961785975
 30
0.0
 11
196.9904407364
 21
504.4961779538
 31
0.0
  0
LINE
  5
A3
330
1F
100
AcDbEntity
  8
0
  6
Continuous
 62
     7
370
    15
100
AcDbLine
 10
204.7904386622
 20
510.6961785975
 30
0.0
 11
212.9904359084
 21
510.6961785975
 31
0.0
  0
LINE
  5
A4
330
1F
100
AcDbEntity
  8
0
  6
Continuous
 62
     7
370
    15
100
AcDbLine
 10
204.7904386622
 20
504.4961779538
 30
0.0
 11
204.7904386622
 21
510.6961785975
 31
0.0
  0
LINE
  5
A5
330
1F
100
AcDbEntity
  8
0
  6
Continuous
 62
     7
370
    15
100
AcDbLine
 10
212.9904359084
 20
504.4961779538
 30
0.0
 11
204.7904386622
 21
504.4961779538
 31
0.0
  0
LINE
  5
A6
330
1F
100
AcDbEntity
  8
0
  6
Continuous
 62
     7
370
    15
100
AcDbLine
 10
212.9904359084
 20
510.6961785975
 30
0.0
 11
212.9904359084
 21
504.4961779538
 31
0.0
  0
CIRCLE
  5
A7
330
1F
100
AcDbEntity
  8
0
  6
Continuous
 62
     7
370
    15
100
AcDbCircle
 10
133.8904380304
 20
429.5961766663
 30
0.0
 40
125.0
  0
LINE
  5
A8
330
1F
100
AcDbEntity
  8
0
  6
Continuous
 62
     7
370
    15
100
AcDbLine
 10
23.8904386264
 20
391.5961778882
 30
0.0
 11
38.8904392225
 21
391.5961778882
 31
0.0
  0
LINE
  5
A9
330
1F
100
AcDbEntity
  8
0
  6
Continuous
 62
     7
370
    15
100
AcDbLine
 10
38.8904392225
 20
391.5961778882
 30
0.0
 11
38.8904392225
 21
467.5961754444
 31
0.0
  0
LINE
  5
AA
330
1F
100
AcDbEntity
  8
0
  6
Continuous
 62
     7
370
    15
100
AcDbLine
 10
38.8904392225
 20
467.5961754444
 30
0.0
 11
23.8904386264
 21
467.5961754444
 31
0.0
  0
LINE
  5
AB
330
1F
100
AcDbEntity
  8
0
  6
Continuous
 62
     7
370
    15
100
AcDbLine
 10
23.8904386264
 20
467.5961754444
 30
0.0
 11
23.8904386264
 21
391.5961778882
 31
0.0
  0
LINE
  5
AC
330
1F
100
AcDbEntity
  8
0
  6
Continuous
 62
     7
370
    15
100
AcDbLine
 10
228.8904368383
 20
391.5961778882
 30
0.0
 11
228.8904368383
 21
467.5961754444
 31
0.0
  0
LINE
  5
AD
330
1F
100
AcDbEntity
  8
0
  6
Continuous
 62
     7
370
    15
100
AcDbLine
 10
243.8904374343
 20
391.5961778882
 30
0.0
 11
228.8904368383
 21
391.5961778882
 31
0.0
  0
LINE
  5
AE
330
1F
100
AcDbEntity
  8
0
  6
Continuous
 62
     7
370
    15
100
AcDbLine
 10
243.8904374343
 20
467.5961754444
 30
0.0
 11
243.8904374343
 21
391.5961778882
 31
0.0
  0
LINE
  5
AF
330
1F
100
AcDbEntity
  8
0
  6
Continuous
 62
     7
370
    15
100
AcDbLine
 10
228.8904368383
 20
467.5961754444
 30
0.0
 11
243.8904374343
 21
467.5961754444
 31
0.0
  0
LINE
  5
B0
330
1F
100
AcDbEntity
  8
0
  6
Continuous
 62
     7
370
    15
100
AcDbLine
 10
224.9904378754
 20
409.4961772832
 30
0.0
 11
224.9904378754
 21
417.6961763922
 31
0.0
  0
LINE
  5
B1
330
1F
100
AcDbEntity
  8
0
  6
Continuous
 62
     7
370
    15
100
AcDbLine
 10
224.9904378754
 20
417.6961763922
 30
0.0
 11
218.7904372317
 21
417.6961763922
 31
0.0
  0
LINE
  5
B2
330
1F
100
AcDbEntity
  8
0
  6
Continuous
 62
     7
370
    15
100
AcDbLine
 10
218.7904372317
 20
417.6961763922
 30
0.0
 11
218.7904372317
 21
409.4961772832
 31
0.0
  0
LINE
  5
B3
330
1F
100
AcDbEntity
  8
0
  6
Continuous
 62
     7
370
    15
100
AcDbLine
 10
218.7904372317
 20
409.4961772832
 30
0.0
 11
224.9904378754
 21
409.4961772832
 31
0.0
  0
LINE
  5
B4
330
1F
100
AcDbEntity
  8
0
  6
Continuous
 62
     7
370
    15
100
AcDbLine
 10
169.8904364806
 20
396.2902113024
 30
0.0
 11
97.8904395801
 21
396.2902113024
 31
0.0
  0
LINE
  5
B5
330
1F
100
AcDbEntity
  8
0
  6
Continuous
 62
     7
370
    15
100
AcDbLine
 10
97.8904395801
 20
396.2902113024
 30
0.0
 11
97.8904395801
 21
369.2902124646
 31
0.0
  0
LINE
  5
B6
330
1F
100
AcDbEntity
  8
0
  6
Continuous
 62
     7
370
    15
100
AcDbLine
 10
97.8904395801
 20
369.2902124646
 30
0.0
 11
169.8904364806
 21
369.2902124646
 31
0.0
  0
LINE
  5
B7
330
1F
100
AcDbEntity
  8
0
  6
Continuous
 62
     7
370
    15
100
AcDbLine
 10
169.8904364806
 20
369.2902124646
 30
0.0
 11
169.8904364806
 21
396.2902113024
 31
0.0
  0
CIRCLE
  5
B8
330
1F
100
AcDbEntity
  8
0
  6
Continuous
 62
     7
370
    15
100
AcDbCircle
 10
96.3904380304
 20
398.2902114634
 30
0.0
 40
1.649999999999991
  0
CIRCLE
  5
B9
330
1F
100
AcDbEntity
  8
0
  6
Continuous
 62
     7
370
    15
100
AcDbCircle
 10
171.3904380304
 20
398.2902114634
 30
0.0
 40
1.650000000000006
  0
CIRCLE
  5
BA
330
1F
100
AcDbEntity
  8
0
  6
Continuous
 62
     7
370
    15
100
AcDbCircle
 10
171.3904380304
 20
367.2902114634
 30
0.0
 40
1.649999999999977
  0
CIRCLE
  5
BB
330
1F
100
AcDbEntity
  8
0
  6
Continuous
 62
     7
370
    15
100
AcDbCircle
 10
96.3904380304
 20
367.2902114634
 30
0.0
 40
1.649999999999991
  0
CIRCLE
  5
BC
330
1F
100
AcDbEntity
  8
0
  6
Continuous
 62
     7
370
    15
100
AcDbCircle
 10
105.9504380304
 20
358.6285474893
 30
0.0
 40
1.649999999999991
  0
CIRCLE
  5
BD
330
1F
100
AcDbEntity
  8
0
  6
Continuous
 62
     7
370
    15
100
AcDbCircle
 10
161.8304380304
 20
358.6285474893
 30
0.0
 40
1.650000000000006
  0
CIRCLE
  5
BE
330
1F
100
AcDbEntity
  8
0
  6
Continuous
 62
     7
370
    15
100
AcDbCircle
 10
161.8304380304
 20
315.4485474893
 30
0.0
 40
1.650000000000006
  0
CIRCLE
  5
BF
330
1F
100
AcDbEntity
  8
0
  6
Continuous
 62
     7
370
    15
100
AcDbCircle
 10
105.9504380304
 20
315.4485474893
 30
0.0
 40
1.650000000000006
  0
LINE
  5
C0
330
1F
100
AcDbEntity
  8
0
  6
Continuous
 62
     7
370
    15
100
AcDbLine
 10
159.6951439482
 20
320.0985475603
 30
0.0
 11
159.6951439482
 21
353.9785503569
 31
0.0
  0
ARC
  5
C1
330
1F
100
AcDbEntity
  8
0
  6
Continuous
 62
     7
370
    15
100
AcDbCircle
 10
156.6951439127
 20
353.9785474893
 30
0.0
 40
3.0
100
AcDbArc
 50
0.0
 51
90.0
  0
LINE
  5
C2
330
1F
100
AcDbEntity
  8
0
  6
Continuous
 62
     7
370
    15
100
AcDbLine
 10
156.6951434565
 20
356.978548986
 30
0.0
 11
111.0857326043
 21
356.978548986
 31
0.0
  0
ARC
  5
C3
330
1F
100
AcDbEntity
  8
0
  6
Continuous
 62
     7
370
    15
100
AcDbCircle
 10
111.085732148
 20
353.9785474893
 30
0.0
 40
3.0
100
AcDbArc
 50
90.0
 51
180.0
  0
LINE
  5
C4
330
1F
100
AcDbEntity
  8
0
  6
Continuous
 62
     7
370
    15
100
AcDbLine
 10
108.0857321125
 20
353.9785503569
 30
0.0
 11
108.0857321125
 21
320.0985475603
 31
0.0
  0
ARC
  5
C5
330
1F
100
AcDbEntity
  8
0
  6
Continuous
 62
     7
370
    15
100
AcDbCircle
 10
111.085732148
 20
320.0985474893
 30
0.0
 40
3.000000000000057
100
AcDbArc
 50
180.0
 51
270.0
  0
LINE
  5
C6
330
1F
100
AcDbEntity
  8
0
  6
Continuous
 62
     7
370
    15
100
AcDbLine
 10
111.0857326043
 20
317.0985489312
 30
0.0
 11
156.6951434565
 21
317.0985489312
 31
0.0
  0
ARC
  5
C7
330
1F
100
AcDbEntity
  8
0
  6
Continuous
 62
     7
370
    15
100
AcDbCircle
 10
156.6951439127
 20
320.0985474893
 30
0.0
 40
3.000000000000057
100
AcDbArc
 50
270.0
 51
0.0
  0
CIRCLE
  5
C8
330
1F
100
AcDbEntity
  8
0
  6
Continuous
 62
     7
370
    15
100
AcDbCircle
 10
120.1404380304
 20
492.0961766663
 30
0.0
 40
1.650000000000006
  0
CIRCLE
  5
C9
330
1F
100
AcDbEntity
  8
0
  6
Continuous
 62
     7
370
    15
100
AcDbCircle
 10
147.6404380304
 20
492.0961766663
 30
0.0
 40
1.650000000000034
  0
LINE
  5
CA
330
1F
100
AcDbEntity
  8
0
  6
Continuous
 62
     7
370
    15
100
AcDbLine
 10
139.8904380825
 20
455.9461775395
 30
0.0
 11
127.8904379782
 21
455.9461775395
 31
0.0
  0
LINE
  5
CB
330
1F
100
AcDbEntity
  8
0
  6
Continuous
 62
     7
370
    15
100
AcDbLine
 10
127.8904379782
 20
455.9461775395
 30
0.0
 11
127.8904379782
 21
433.2461767524
 31
0.0
  0
LINE
  5
CC
330
1F
100
AcDbEntity
  8
0
  6
Continuous
 62
     7
370
    15
100
AcDbLine
 10
127.8904379782
 20
433.2461767524
 30
0.0
 11
139.8904380825
 21
433.2461767524
 31
0.0
  0
LINE
  5
CD
330
1F
100
AcDbEntity
  8
0
  6
Continuous
 62
     7
370
    15
100
AcDbLine
 10
139.8904380825
 20
433.2461767524
 30
0.0
 11
139.8904380825
 21
455.9461775395
 31
0.0
  0
CIRCLE
  5
CE
330
1F
100
AcDbEntity
  8
0
  6
Continuous
 62
     7
370
    15
100
AcDbCircle
 10
133.8904380304
 20
458.3461766663
 30
0.0
 40
1.149999999999977
  0
CIRCLE
  5
CF
330
1F
100
AcDbEntity
  8
0
  6
Continuous
 62
     7
370
    15
100
AcDbCircle
 10
133.8904380304
 20
430.8461766663
 30
0.0
 40
1.150000000000006
  0
LINE
  5
D0
330
1F
100
AcDbEntity
  8
0
  6
Continuous
 62
     7
370
    15
100
AcDbLine
 10
225.9979968244
 20
161.4503465235
 30
0.0
 11
225.9979968244
 21
169.6503465637
 31
0.0
  0
LINE
  5
D1
330
1F
100
AcDbEntity
  8
0
  6
Continuous
 62
     7
370
    15
100
AcDbLine
 10
225.9979968244
 20
169.6503465637
 30
0.0
 11
219.7979961807
 21
169.6503465637
 31
0.0
  0
LINE
  5
D2
330
1F
100
AcDbEntity
  8
0
  6
Continuous
 62
     7
370
    15
100
AcDbLine
 10
219.7979961807
 20
169.6503465637
 30
0.0
 11
219.7979961807
 21
161.4503465235
 31
0.0
  0
LINE
  5
D3
330
1F
100
AcDbEntity
  8
0
  6
Continuous
 62
     7
370
    15
100
AcDbLine
 10
219.7979961807
 20
161.4503465235
 30
0.0
 11
225.9979968244
 21
161.4503465235
 31
0.0
  0
LINE
  5
D4
330
1F
100
AcDbEntity
  8
0
  6
Continuous
 62
     7
370
    15
100
AcDbLine
 10
219.7979961807
 20
185.6503459267
 30
0.0
 11
219.7979961807
 21
177.4503468178
 31
0.0
  0
LINE
  5
D5
330
1F
100
AcDbEntity
  8
0
  6
Continuous
 62
     7
370
    15
100
AcDbLine
 10
219.7979961807
 20
177.4503468178
 30
0.0
 11
225.9979968244
 21
177.4503468178
 31
0.0
  0
LINE
  5
D6
330
1F
100
AcDbEntity
  8
0
  6
Continuous
 62
     7
370
    15
100
AcDbLine
 10
225.9979968244
 20
177.4503468178
 30
0.0
 11
225.9979968244
 21
185.6503459267
 31
0.0
  0
LINE
  5
D7
330
1F
100
AcDbEntity
  8
0
  6
Continuous
 62
     7
370
    15
100
AcDbLine
 10
225.9979968244
 20
185.6503459267
 30
0.0
 11
219.7979961807
 21
185.6503459267
 31
0.0
  0
LINE
  5
D8
330
1F
100
AcDbEntity
  8
0
  6
Continuous
 62
     7
370
    15
100
AcDbLine
 10
43.7979971344
 20
169.6503465637
 30
0.0
 11
49.9979977781
 21
169.6503465637
 31
0.0
  0
LINE
  5
D9
330
1F
100
AcDbEntity
  8
0
  6
Continuous
 62
     7
370
    15
100
AcDbLine
 10
43.7979971344
 20
161.4503465235
 30
0.0
 11
43.7979971344
 21
169.6503465637
 31
0.0
  0
LINE
  5
DA
330
1F
100
AcDbEntity
  8
0
  6
Continuous
 62
     7
370
    15
100
AcDbLine
 10
49.9979977781
 20
161.4503465235
 30
0.0
 11
43.7979971344
 21
161.4503465235
 31
0.0
  0
LINE
  5
DB
330
1F
100
AcDbEntity
  8
0
  6
Continuous
 62
     7
370
    15
100
AcDbLine
 10
49.9979977781
 20
169.6503465637
 30
0.0
 11
49.9979977781
 21
161.4503465235
 31
0.0
  0
LINE
  5
DC
330
1F
100
AcDbEntity
  8
0
  6
Continuous
 62
     7
370
    15
100
AcDbLine
 10
43.7979971344
 20
153.6503462694
 30
0.0
 11
49.9979977781
 21
153.6503462694
 31
0.0
  0
LINE
  5
DD
330
1F
100
AcDbEntity
  8
0
  6
Continuous
 62
     7
370
    15
100
AcDbLine
 10
43.7979971344
 20
145.4503471605
 30
0.0
 11
43.7979971344
 21
153.6503462694
 31
0.0
  0
LINE
  5
DE
330
1F
100
AcDbEntity
  8
0
  6
Continuous
 62
     7
370
    15
100
AcDbLine
 10
49.9979977781
 20
145.4503471605
 30
0.0
 11
43.7979971344
 21
145.4503471605
 31
0.0
  0
LINE
  5
DF
330
1F
100
AcDbEntity
  8
0
  6
Continuous
 62
     7
370
    15
100
AcDbLine
 10
49.9979977781
 20
153.6503462694
 30
0.0
 11
49.9979977781
 21
145.4503471605
 31
0.0
  0
LINE
  5
E0
330
1F
100
AcDbEntity
  8
0
  6
Continuous
 62
     7
370
    15
100
AcDbLine
 10
49.9979977781
 20
177.4503468178
 30
0.0
 11
43.7979971344
 21
177.4503468178
 31
0.0
  0
LINE
  5
E1
330
1F
100
AcDbEntity
  8
0
  6
Continuous
 62
     7
370
    15
100
AcDbLine
 10
49.9979977781
 20
185.6503459267
 30
0.0
 11
49.9979977781
 21
177.4503468178
 31
0.0
  0
LINE
  5
E2
330
1F
100
AcDbEntity
  8
0
  6
Continuous
 62
     7
370
    15
100
AcDbLine
 10
43.7979971344
 20
185.6503459267
 30
0.0
 11
49.9979977781
 21
185.6503459267
 31
0.0
  0
LINE
  5
E3
330
1F
100
AcDbEntity
  8
0
  6
Continuous
 62
     7
370
    15
100
AcDbLine
 10
43.7979971344
 20
177.4503468178
 30
0.0
 11
43.7979971344
 21
185.6503459267
 31
0.0
  0
CIRCLE
  5
E4
330
1F
100
AcDbEntity
  8
0
  6
Continuous
 62
     7
370
    15
100
AcDbCircle
 10
212.8979969794
 20
98.5503465436
 30
0.0
 40
2.0
  0
LINE
  5
E5
330
1F
100
AcDbEntity
  8
0
  6
Continuous
 62
     7
370
    15
100
AcDbLine
 10
215.9979989106
 20
110.6503448091
 30
0.0
 11
215.9979989106
 21
102.4503438375
 31
0.0
  0
LINE
  5
E6
330
1F
100
AcDbEntity
  8
0
  6
Continuous
 62
     7
370
    15
100
AcDbLine
 10
209.7979982668
 20
110.6503448091
 30
0.0
 11
215.9979989106
 21
110.6503448091
 31
0.0
  0
LINE
  5
E7
330
1F
100
AcDbEntity
  8
0
  6
Continuous
 62
     7
370
    15
100
AcDbLine
 10
209.7979982668
 20
102.4503438375
 30
0.0
 11
209.7979982668
 21
110.6503448091
 31
0.0
  0
LINE
  5
E8
330
1F
100
AcDbEntity
  8
0
  6
Continuous
 62
     7
370
    15
100
AcDbLine
 10
215.9979989106
 20
102.4503438375
 30
0.0
 11
209.7979982668
 21
102.4503438375
 31
0.0
  0
LINE
  5
E9
330
1F
100
AcDbEntity
  8
0
  6
Continuous
 62
     7
370
    15
100
AcDbLine
 10
215.9979989106
 20
94.6503459118
 30
0.0
 11
215.9979989106
 21
86.4503486655
 31
0.0
  0
LINE
  5
EA
330
1F
100
AcDbEntity
  8
0
  6
Continuous
 62
     7
370
    15
100
AcDbLine
 10
209.7979982668
 20
94.6503459118
 30
0.0
 11
215.9979989106
 21
94.6503459118
 31
0.0
  0
LINE
  5
EB
330
1F
100
AcDbEntity
  8
0
  6
Continuous
 62
     7
370
    15
100
AcDbLine
 10
209.7979982668
 20
86.4503486655
 30
0.0
 11
209.7979982668
 21
94.6503459118
 31
0.0
  0
LINE
  5
EC
330
1F
100
AcDbEntity
  8
0
  6
Continuous
 62
     7
370
    15
100
AcDbLine
 10
215.9979989106
 20
86.4503486655
 30
0.0
 11
209.7979982668
 21
86.4503486655
 31
0.0
  0
CIRCLE
  5
ED
330
1F
100
AcDbEntity
  8
0
  6
Continuous
 62
     7
370
    15
100
AcDbCircle
 10
67.8979969794
 20
87.5503465436
 30
0.0
 40
2.000000000000014
  0
LINE
  5
EE
330
1F
100
AcDbEntity
  8
0
  6
Continuous
 62
     7
370
    15
100
AcDbLine
 10
79.9979952449
 20
84.4503446124
 30
0.0
 11
71.7979942733
 21
84.4503446124
 31
0.0
  0
LINE
  5
EF
330
1F
100
AcDbEntity
  8
0
  6
Continuous
 62
     7
370
    15
100
AcDbLine
 10
79.9979952449
 20
90.6503452561
 30
0.0
 11
79.9979952449
 21
84.4503446124
 31
0.0
  0
LINE
  5
F0
330
1F
100
AcDbEntity
  8
0
  6
Continuous
 62
     7
370
    15
100
AcDbLine
 10
71.7979942733
 20
90.6503452561
 30
0.0
 11
79.9979952449
 21
90.6503452561
 31
0.0
  0
LINE
  5
F1
330
1F
100
AcDbEntity
  8
0
  6
Continuous
 62
     7
370
    15
100
AcDbLine
 10
71.7979942733
 20
84.4503446124
 30
0.0
 11
71.7979942733
 21
90.6503452561
 31
0.0
  0
LINE
  5
F2
330
1F
100
AcDbEntity
  8
0
  6
Continuous
 62
     7
370
    15
100
AcDbLine
 10
63.9979963476
 20
84.4503446124
 30
0.0
 11
55.7979991013
 21
84.4503446124
 31
0.0
  0
LINE
  5
F3
330
1F
100
AcDbEntity
  8
0
  6
Continuous
 62
     7
370
    15
100
AcDbLine
 10
63.9979963476
 20
90.6503452561
 30
0.0
 11
63.9979963476
 21
84.4503446124
 31
0.0
  0
LINE
  5
F4
330
1F
100
AcDbEntity
  8
0
  6
Continuous
 62
     7
370
    15
100
AcDbLine
 10
55.7979991013
 20
90.6503452561
 30
0.0
 11
63.9979963476
 21
90.6503452561
 31
0.0
  0
LINE
  5
F5
330
1F
100
AcDbEntity
  8
0
  6
Continuous
 62
     7
370
    15
100
AcDbLine
 10
55.7979991013
 20
84.4503446124
 30
0.0
 11
55.7979991013
 21
90.6503452561
 31
0.0
  0
CIRCLE
  5
F6
330
1F
100
AcDbEntity
  8
0
  6
Continuous
 62
     7
370
    15
100
AcDbCircle
 10
56.8979969794
 20
232.5503465436
 30
0.0
 40
2.0
  0
LINE
  5
F7
330
1F
100
AcDbEntity
  8
0
  6
Continuous
 62
     7
370
    15
100
AcDbLine
 10
53.7979950482
 20
220.4503482781
 30
0.0
 11
53.7979950482
 21
228.6503492496
 31
0.0
  0
LINE
  5
F8
330
1F
100
AcDbEntity
  8
0
  6
Continuous
 62
     7
370
    15
100
AcDbLine
 10
59.9979956919
 20
220.4503482781
 30
0.0
 11
53.7979950482
 21
220.4503482781
 31
0.0
  0
LINE
  5
F9
330
1F
100
AcDbEntity
  8
0
  6
Continuous
 62
     7
370
    15
100
AcDbLine
 10
59.9979956919
 20
228.6503492496
 30
0.0
 11
59.9979956919
 21
220.4503482781
 31
0.0
  0
LINE
  5
FA
330
1F
100
AcDbEntity
  8
0
  6
Continuous
 62
     7
370
    15
100
AcDbLine
 10
53.7979950482
 20
228.6503492496
 30
0.0
 11
59.9979956919
 21
228.6503492496
 31
0.0
  0
LINE
  5
FB
330
1F
100
AcDbEntity
  8
0
  6
Continuous
 62
     7
370
    15
100
AcDbLine
 10
53.7979950482
 20
236.4503471754
 30
0.0
 11
53.7979950482
 21
244.6503444217
 31
0.0
  0
LINE
  5
FC
330
1F
100
AcDbEntity
  8
0
  6
Continuous
 62
     7
370
    15
100
AcDbLine
 10
59.9979956919
 20
236.4503471754
 30
0.0
 11
53.7979950482
 21
236.4503471754
 31
0.0
  0
LINE
  5
FD
330
1F
100
AcDbEntity
  8
0
  6
Continuous
 62
     7
370
    15
100
AcDbLine
 10
59.9979956919
 20
244.6503444217
 30
0.0
 11
59.9979956919
 21
236.4503471754
 31
0.0
  0
LINE
  5
FE
330
1F
100
AcDbEntity
  8
0
  6
Continuous
 62
     7
370
    15
100
AcDbLine
 10
53.7979950482
 20
244.6503444217
 30
0.0
 11
59.9979956919
 21
244.6503444217
 31
0.0
  0
CIRCLE
  5
FF
330
1F
100
AcDbEntity
  8
0
  6
Continuous
 62
     7
370
    15
100
AcDbCircle
 10
201.8979969794
 20
243.5503465436
 30
0.0
 40
2.0
  0
LINE
  5
100
330
1F
100
AcDbEntity
  8
0
  6
Continuous
 62
     7
370
    15
100
AcDbLine
 10
189.7979987139
 20
246.6503484748
 30
0.0
 11
197.9979996854
 21
246.6503484748
 31
0.0
  0
LINE
  5
101
330
1F
100
AcDbEntity
  8
0
  6
Continuous
 62
     7
370
    15
100
AcDbLine
 10
189.7979987139
 20
240.450347831
 30
0.0
 11
189.7979987139
 21
246.6503484748
 31
0.0
  0
LINE
  5
102
330
1F
100
AcDbEntity
  8
0
  6
Continuous
 62
     7
370
    15
100
AcDbLine
 10
197.9979996854
 20
240.450347831
 30
0.0
 11
189.7979987139
 21
240.450347831
 31
0.0
  0
LINE
  5
103
330
1F
100
AcDbEntity
  8
0
  6
Continuous
 62
     7
370
    15
100
AcDbLine
 10
197.9979996854
 20
246.6503484748
 30
0.0
 11
197.9979996854
 21
240.450347831
 31
0.0
  0
LINE
  5
104
330
1F
100
AcDbEntity
  8
0
  6
Continuous
 62
     7
370
    15
100
AcDbLine
 10
205.7979976112
 20
246.6503484748
 30
0.0
 11
213.9979948575
 21
246.6503484748
 31
0.0
  0
LINE
  5
105
330
1F
100
AcDbEntity
  8
0
  6
Continuous
 62
     7
370
    15
100
AcDbLine
 10
205.7979976112
 20
240.450347831
 30
0.0
 11
205.7979976112
 21
246.6503484748
 31
0.0
  0
LINE
  5
106
330
1F
100
AcDbEntity
  8
0
  6
Continuous
 62
     7
370
    15
100
AcDbLine
 10
213.9979948575
 20
240.450347831
 30
0.0
 11
205.7979976112
 21
240.450347831
 31
0.0
  0
LINE
  5
107
330
1F
100
AcDbEntity
  8
0
  6
Continuous
 62
     7
370
    15
100
AcDbLine
 10
213.9979948575
 20
246.6503484748
 30
0.0
 11
213.9979948575
 21
240.450347831
 31
0.0
  0
CIRCLE
  5
108
330
1F
100
AcDbEntity
  8
0
  6
Continuous
 62
     7
370
    15
100
AcDbCircle
 10
134.8979969794
 20
165.5503465436
 30
0.0
 40
125.0000000000001
  0
LINE
  5
109
330
1F
100
AcDbEntity
  8
0
  6
Continuous
 62
     7
370
    15
100
AcDbLine
 10
24.8979975754
 20
127.5503477655
 30
0.0
 11
39.8979981715
 21
127.5503477655
 31
0.0
  0
LINE
  5
10A
330
1F
100
AcDbEntity
  8
0
  6
Continuous
 62
     7
370
    15
100
AcDbLine
 10
39.8979981715
 20
127.5503477655
 30
0.0
 11
39.8979981715
 21
203.5503453217
 31
0.0
  0
LINE
  5
10B
330
1F
100
AcDbEntity
  8
0
  6
Continuous
 62
     7
370
    15
100
AcDbLine
 10
39.8979981715
 20
203.5503453217
 30
0.0
 11
24.8979975754
 21
203.5503453217
 31
0.0
  0
LINE
  5
10C
330
1F
100
AcDbEntity
  8
0
  6
Continuous
 62
     7
370
    15
100
AcDbLine
 10
24.8979975754
 20
203.5503453217
 30
0.0
 11
24.8979975754
 21
127.5503477655
 31
0.0
  0
LINE
  5
10D
330
1F
100
AcDbEntity
  8
0
  6
Continuous
 62
     7
370
    15
100
AcDbLine
 10
229.8979957873
 20
127.5503477655
 30
0.0
 11
229.8979957873
 21
203.5503453217
 31
0.0
  0
LINE
  5
10E
330
1F
100
AcDbEntity
  8
0
  6
Continuous
 62
     7
370
    15
100
AcDbLine
 10
244.8979963833
 20
127.5503477655
 30
0.0
 11
229.8979957873
 21
127.5503477655
 31
0.0
  0
LINE
  5
10F
330
1F
100
AcDbEntity
  8
0
  6
Continuous
 62
     7
370
    15
100
AcDbLine
 10
244.8979963833
 20
203.5503453217
 30
0.0
 11
244.8979963833
 21
127.5503477655
 31
0.0
  0
LINE
  5
110
330
1F
100
AcDbEntity
  8
0
  6
Continuous
 62
     7
370
    15
100
AcDbLine
 10
229.8979957873
 20
203.5503453217
 30
0.0
 11
244.8979963833
 21
203.5503453217
 31
0.0
  0
LINE
  5
111
330
1F
100
AcDbEntity
  8
0
  6
Continuous
 62
     7
370
    15
100
AcDbLine
 10
225.9979968244
 20
145.4503471605
 30
0.0
 11
225.9979968244
 21
153.6503462694
 31
0.0
  0
LINE
  5
112
330
1F
100
AcDbEntity
  8
0
  6
Continuous
 62
     7
370
    15
100
AcDbLine
 10
225.9979968244
 20
153.6503462694
 30
0.0
 11
219.7979961807
 21
153.6503462694
 31
0.0
  0
LINE
  5
113
330
1F
100
AcDbEntity
  8
0
  6
Continuous
 62
     7
370
    15
100
AcDbLine
 10
219.7979961807
 20
153.6503462694
 30
0.0
 11
219.7979961807
 21
145.4503471605
 31
0.0
  0
LINE
  5
114
330
1F
100
AcDbEntity
  8
0
  6
Continuous
 62
     7
370
    15
100
AcDbLine
 10
219.7979961807
 20
145.4503471605
 30
0.0
 11
225.9979968244
 21
145.4503471605
 31
0.0
  0
CIRCLE
  5
115
330
1F
100
AcDbEntity
  8
0
  6
Continuous
 62
     7
370
    15
100
AcDbCircle
 10
111.7819794801
 20
66.1557723356
 30
0.0
 40
1.562100000000015
  0
CIRCLE
  5
116
330
1F
100
AcDbEntity
  8
0
  6
Continuous
 62
     7
370
    15
100
AcDbCircle
 10
111.7819794801
 20
114.4919723356
 30
0.0
 40
1.562100000000015
  0
CIRCLE
  5
117
330
1F
100
AcDbEntity
  8
0
  6
Continuous
 62
     7
370
    15
100
AcDbCircle
 10
186.9151794801
 20
114.4919723356
 30
0.0
 40
1.562099999999987
  0
CIRCLE
  5
118
330
1F
100
AcDbEntity
  8
0
  6
Continuous
 62
     7
370
    15
100
AcDbCircle
 10
194.4081794801
 20
66.1557723356
 30
0.0
 40
1.562099999999958
  0
CIRCLE
  5
119
330
1F
100
AcDbEntity
  8
0
  6
Continuous
 62
     7
370
    15
100
AcDbCircle
 10
214.3029479551
 20
231.4753991276
 30
0.0
 40
1.5
  0
CIRCLE
  5
11A
330
1F
100
AcDbEntity
  8
0
  6
Continuous
 62
     7
370
    15
100
AcDbCircle
 10
177.3029479551
 20
231.4753991276
 30
0.0
 40
1.5
  0
CIRCLE
  5
11B
330
1F
100
AcDbEntity
  8
0
  6
Continuous
 62
     7
370
    15
100
AcDbCircle
 10
177.3029479551
 20
194.4753991276
 30
0.0
 40
1.5
  0
CIRCLE
  5
11C
330
1F
100
AcDbEntity
  8
0
  6
Continuous
 62
     7
370
    15
100
AcDbCircle
 10
214.3029479551
 20
194.4753991276
 30
0.0
 40
1.5
  0
CIRCLE
  5
11D
330
1F
100
AcDbEntity
  8
0
  6
Continuous
 62
     7
370
    15
100
AcDbCircle
 10
119.0229969794
 20
274.5203465436
 30
0.0
 40
1.649999999999991
  0
CIRCLE
  5
11E
330
1F
100
AcDbEntity
  8
0
  6
Continuous
 62
     7
370
    15
100
AcDbCircle
 10
150.7729969794
 20
274.5203465436
 30
0.0
 40
1.650000000000034
  0
CIRCLE
  5
11F
330
1F
100
AcDbEntity
  8
0
  6
Continuous
 62
     7
370
    15
100
AcDbCircle
 10
150.7729969794
 20
246.5803465436
 30
0.0
 40
1.650000000000034
  0
CIRCLE
  5
120
330
1F
100
AcDbEntity
  8
0
  6
Continuous
 62
     7
370
    15
100
AcDbCircle
 10
119.0229969794
 20
246.5803465436
 30
0.0
 40
1.649999999999991
  0
CIRCLE
  5
121
330
1F
100
AcDbEntity
  8
0
  6
Continuous
 62
     7
370
    15
100
AcDbCircle
 10
22.9928485481
 20
276.9782376942
 30
0.0
 40
1.500000000000007
  0
CIRCLE
  5
122
330
1F
100
AcDbEntity
  8
0
  6
Continuous
 62
     7
370
    15
100
AcDbCircle
 10
46.2428485481
 20
290.4016314529
 30
0.0
 40
1.5
  0
CIRCLE
  5
123
330
1F
100
AcDbEntity
  8
0
  6
Continuous
 62
     7
370
    15
100
AcDbCircle
 10
22.9928485481
 20
303.8250252115
 30
0.0
 40
1.500000000000007
  0
CIRCLE
  5
124
330
1F
100
AcDbEntity
  8
0
  6
Continuous
 62
     7
370
    15
100
AcDbCircle
 10
15.2428485481
 20
290.4016314529
 30
0.0
 40
1.500000000000002
  0
LINE
  5
125
330
1F
100
AcDbEntity
  8
0
  6
Continuous
 62
     7
370
    15
100
AcDbLine
 10
18.7428484438
 20
328.4016297839
 30
0.0
 11
10.7428489951
 21
328.4016297839
 31
0.0
  0
LINE
  5
126
330
1F
100
AcDbEntity
  8
0
  6
Continuous
 62
     7
370
    15
100
AcDbLine
 10
18.7428484438
 20
322.4016325258
 30
0.0
 11
18.7428484438
 21
328.4016297839
 31
0.0
  0
LINE
  5
127
330
1F
100
AcDbEntity
  8
0
  6
Continuous
 62
     7
370
    15
100
AcDbLine
 10
26.7428483581
 20
322.4016325258
 30
0.0
 11
18.7428484438
 21
322.4016325258
 31
0.0
  0
LINE
  5
128
330
1F
100
AcDbEntity
  8
0
  6
Continuous
 62
     7
370
    15
100
AcDbLine
 10
26.7428483581
 20
328.4016297839
 30
0.0
 11
26.7428483581
 21
322.4016325258
 31
0.0
  0
LINE
  5
129
330
1F
100
AcDbEntity
  8
0
  6
Continuous
 62
     7
370
    15
100
AcDbLine
 10
34.7428487381
 20
328.4016297839
 30
0.0
 11
26.7428483581
 21
328.4016297839
 31
0.0
  0
LINE
  5
12A
330
1F
100
AcDbEntity
  8
0
  6
Continuous
 62
     7
370
    15
100
AcDbLine
 10
34.7428487381
 20
322.4016325258
 30
0.0
 11
34.7428487381
 21
328.4016297839
 31
0.0
  0
LINE
  5
12B
330
1F
100
AcDbEntity
  8
0
  6
Continuous
 62
     7
370
    15
100
AcDbLine
 10
42.7428486524
 20
322.4016325258
 30
0.0
 11
34.7428487381
 21
322.4016325258
 31
0.0
  0
LINE
  5
12C
330
1F
100
AcDbEntity
  8
0
  6
Continuous
 62
     7
370
    15
100
AcDbLine
 10
42.7428486524
 20
328.4016297839
 30
0.0
 11
42.7428486524
 21
322.4016325258
 31
0.0
  0
LINE
  5
12D
330
1F
100
AcDbEntity
  8
0
  6
Continuous
 62
     7
370
    15
100
AcDbLine
 10
50.7428481011
 20
328.4016297839
 30
0.0
 11
42.7428486524
 21
328.4016297839
 31
0.0
  0
LINE
  5
12E
330
1F
100
AcDbEntity
  8
0
  6
Continuous
 62
     7
370
    15
100
AcDbLine
 10
50.7428481011
 20
264.4016314007
 30
0.0
 11
50.7428481011
 21
328.4016297839
 31
0.0
  0
LINE
  5
12F
330
1F
100
AcDbEntity
  8
0
  6
Continuous
 62
     7
370
    15
100
AcDbLine
 10
42.7428486524
 20
264.4016314007
 30
0.0
 11
50.7428481011
 21
264.4016314007
 31
0.0
  0
LINE
  5
130
330
1F
100
AcDbEntity
  8
0
  6
Continuous
 62
     7
370
    15
100
AcDbLine
 10
42.7428486524
 20
270.4016314529
 30
0.0
 11
42.7428486524
 21
264.4016314007
 31
0.0
  0
LINE
  5
131
330
1F
100
AcDbEntity
  8
0
  6
Continuous
 62
     7
370
    15
100
AcDbLine
 10
34.7428487381
 20
270.4016314529
 30
0.0
 11
42.7428486524
 21
270.4016314529
 31
0.0
  0
LINE
  5
132
330
1F
100
AcDbEntity
  8
0
  6
Continuous
 62
     7
370
    15
100
AcDbLine
 10
34.7428487381
 20
264.4016314007
 30
0.0
 11
34.7428487381
 21
270.4016314529
 31
0.0
  0
LINE
  5
133
330
1F
100
AcDbEntity
  8
0
  6
Continuous
 62
     7
370
    15
100
AcDbLine
 10
26.7428483581
 20
264.4016314007
 30
0.0
 11
34.7428487381
 21
264.4016314007
 31
0.0
  0
LINE
  5
134
330
1F
100
AcDbEntity
  8
0
  6
Continuous
 62
     7
370
    15
100
AcDbLine
 10
26.7428483581
 20
270.4016314529
 30
0.0
 11
26.7428483581
 21
264.4016314007
 31
0.0
  0
LINE
  5
135
330
1F
100
AcDbEntity
  8
0
  6
Continuous
 62
     7
370
    15
100
AcDbLine
 10
18.7428484438
 20
270.4016314529
 30
0.0
 11
26.7428483581
 21
270.4016314529
 31
0.0
  0
LINE
  5
136
330
1F
100
AcDbEntity
  8
0
  6
Continuous
 62
     7
370
    15
100
AcDbLine
 10
18.7428484438
 20
264.4016314007
 30
0.0
 11
18.7428484438
 21
270.4016314529
 31
0.0
  0
LINE
  5
137
330
1F
100
AcDbEntity
  8
0
  6
Continuous
 62
     7
370
    15
100
AcDbLine
 10
10.7428489951
 20
264.4016314007
 30
0.0
 11
18.7428484438
 21
264.4016314007
 31
0.0
  0
LINE
  5
138
330
1F
100
AcDbEntity
  8
0
  6
Continuous
 62
     7
370
    15
100
AcDbLine
 10
10.7428489951
 20
328.4016297839
 30
0.0
 11
10.7428489951
 21
264.4016314007
 31
0.0
  0
LINE
  5
139
330
1F
100
AcDbEntity
  8
0
  6
Continuous
 62
     7
370
    15
100
AcDbLine
 10
24.6928485809
 20
297.4016321532
 30
0.0
 11
24.6928485809
 21
283.4016317211
 31
0.0
  0
ARC
  5
13A
330
1F
100
AcDbEntity
  8
0
  6
Continuous
 62
     7
370
    15
100
AcDbCircle
 10
30.7428485481
 20
283.4016314529
 30
0.0
 40
6.050000000000004
100
AcDbArc
 50
180.0
 51
0.0
  0
LINE
  5
13B
330
1F
100
AcDbEntity
  8
0
  6
Continuous
 62
     7
370
    15
100
AcDbLine
 10
36.7928485153
 20
283.4016317211
 30
0.0
 11
36.7928485153
 21
297.4016321532
 31
0.0
  0
ARC
  5
13C
330
1F
100
AcDbEntity
  8
0
  6
Continuous
 62
     7
370
    15
100
AcDbCircle
 10
30.7428485481
 20
297.4016314529
 30
0.0
 40
6.050000000000004
100
AcDbArc
 50
0.0
 51
180.0
  0
CIRCLE
  5
13D
330
1F
100
AcDbEntity
  8
0
  6
Continuous
 62
     7
370
    15
100
AcDbCircle
 10
38.4928485481
 20
303.8250252115
 30
0.0
 40
1.5
  0
CIRCLE
  5
13E
330
1F
100
AcDbEntity
  8
0
  6
Continuous
 62
     7
370
    15
100
AcDbCircle
 10
38.4928485481
 20
276.9782376942
 30
0.0
 40
1.5
  0
CIRCLE
  5
13F
330
1F
100
AcDbEntity
  8
0
  6
Continuous
 62
     7
370
    15
100
AcDbCircle
 10
205.7058366916
 20
293.2274653282
 30
0.0
 40
1.549999999999983
  0
CIRCLE
  5
140
330
1F
100
AcDbEntity
  8
0
  6
Continuous
 62
     7
370
    15
100
AcDbCircle
 10
198.7058366916
 20
293.2274653282
 30
0.0
 40
1.55000000000004
  0
CIRCLE
  5
141
330
1F
100
AcDbEntity
  8
0
  6
Continuous
 62
     7
370
    15
100
AcDbCircle
 10
191.7058366916
 20
293.2274653282
 30
0.0
 40
1.550000000000011
  0
CIRCLE
  5
142
330
1F
100
AcDbEntity
  8
0
  6
Continuous
 62
     7
370
    15
100
AcDbCircle
 10
184.7058366916
 20
293.2274653282
 30
0.0
 40
1.549999999999983
  0
CIRCLE
  5
143
330
1F
100
AcDbEntity
  8
0
  6
Continuous
 62
     7
370
    15
100
AcDbCircle
 10
177.7058366916
 20
293.2274653282
 30
0.0
 40
1.549999999999983
  0
CIRCLE
  5
144
330
1F
100
AcDbEntity
  8
0
  6
Continuous
 62
     7
370
    15
100
AcDbCircle
 10
205.7058366916
 20
300.2274653282
 30
0.0
 40
1.549999999999983
  0
CIRCLE
  5
145
330
1F
100
AcDbEntity
  8
0
  6
Continuous
 62
     7
370
    15
100
AcDbCircle
 10
198.7058366916
 20
300.2274653282
 30
0.0
 40
1.550000000000011
  0
ARC
  5
146
330
1F
100
AcDbEntity
  8
0
  6
Continuous
 62
     7
370
    15
100
AcDbCircle
 10
198.7058366916
 20
293.2274653282
 30
0.0
 40
3.000000000000055
100
AcDbArc
 50
4.7801918472
 51
85.2198081528
  0
LINE
  5
147
330
1F
100
AcDbEntity
  8
0
  6
Continuous
 62
     7
370
    15
100
AcDbLine
 10
202.7162716023
 20
293.4774651531
 30
0.0
 11
201.6954023621
 21
293.4774651531
 31
0.0
  0
ARC
  5
148
330
1F
100
AcDbEntity
  8
0
  6
Continuous
 62
     7
370
    15
100
AcDbCircle
 10
205.7058366916
 20
293.2274653282
 30
0.0
 40
3.000000000000055
100
AcDbArc
 50
94.7801918472
 51
175.2198081528
  0
LINE
  5
149
330
1F
100
AcDbEntity
  8
0
  6
Continuous
 62
     7
370
    15
100
AcDbLine
 10
205.4558370493
 20
297.2379000731
 30
0.0
 11
205.4558370493
 21
296.2170306001
 31
0.0
  0
ARC
  5
14A
330
1F
100
AcDbEntity
  8
0
  6
Continuous
 62
     7
370
    15
100
AcDbCircle
 10
205.7058366916
 20
300.2274653282
 30
0.0
 40
3.000000000000008
100
AcDbArc
 50
184.7801918472
 51
265.2198081528
  0
LINE
  5
14B
330
1F
100
AcDbEntity
  8
0
  6
Continuous
 62
     7
370
    15
100
AcDbLine
 10
201.6954023621
 20
299.9774653163
 30
0.0
 11
202.7162716023
 21
299.9774653163
 31
0.0
  0
ARC
  5
14C
330
1F
100
AcDbEntity
  8
0
  6
Continuous
 62
     7
370
    15
100
AcDbCircle
 10
198.7058366916
 20
300.2274653282
 30
0.0
 40
3.000000000000022
100
AcDbArc
 50
274.7801918472
 51
355.2198081528
  0
LINE
  5
14D
330
1F
100
AcDbEntity
  8
0
  6
Continuous
 62
     7
370
    15
100
AcDbLine
 10
198.9558369152
 20
296.2170306001
 30
0.0
 11
198.9558369152
 21
297.2379000731
 31
0.0
  0
CIRCLE
  5
14E
330
1F
100
AcDbEntity
  8
0
  6
Continuous
 62
     7
370
    15
100
AcDbCircle
 10
191.7058366916
 20
300.2274653282
 30
0.0
 40
1.550000000000011
  0
ARC
  5
14F
330
1F
100
AcDbEntity
  8
0
  6
Continuous
 62
     7
370
    15
100
AcDbCircle
 10
191.7058366916
 20
293.2274653282
 30
0.0
 40
3.000000000000003
100
AcDbArc
 50
4.7801918472
 51
85.2198081528
  0
LINE
  5
150
330
1F
100
AcDbEntity
  8
0
  6
Continuous
 62
     7
370
    15
100
AcDbLine
 10
195.7162723175
 20
293.4774651531
 30
0.0
 11
194.6954012147
 21
293.4774651531
 31
0.0
  0
ARC
  5
151
330
1F
100
AcDbEntity
  8
0
  6
Continuous
 62
     7
370
    15
100
AcDbCircle
 10
198.7058366916
 20
293.2274653282
 30
0.0
 40
3.000000000000055
100
AcDbArc
 50
94.7801918472
 51
175.2198081528
  0
LINE
  5
152
330
1F
100
AcDbEntity
  8
0
  6
Continuous
 62
     7
370
    15
100
AcDbLine
 10
198.4558359019
 20
297.2379000731
 30
0.0
 11
198.4558359019
 21
296.2170306001
 31
0.0
  0
ARC
  5
153
330
1F
100
AcDbEntity
  8
0
  6
Continuous
 62
     7
370
    15
100
AcDbCircle
 10
198.7058366916
 20
300.2274653282
 30
0.0
 40
2.999999999999998
100
AcDbArc
 50
184.7801918472
 51
265.2198081528
  0
LINE
  5
154
330
1F
100
AcDbEntity
  8
0
  6
Continuous
 62
     7
370
    15
100
AcDbLine
 10
194.6954012147
 20
299.9774653163
 30
0.0
 11
195.7162723175
 21
299.9774653163
 31
0.0
  0
ARC
  5
155
330
1F
100
AcDbEntity
  8
0
  6
Continuous
 62
     7
370
    15
100
AcDbCircle
 10
191.7058366916
 20
300.2274653282
 30
0.0
 40
3.000000000000022
100
AcDbArc
 50
274.7801918472
 51
355.2198081528
  0
LINE
  5
156
330
1F
100
AcDbEntity
  8
0
  6
Continuous
 62
     7
370
    15
100
AcDbLine
 10
191.9558366991
 20
296.2170306001
 30
0.0
 11
191.9558366991
 21
297.2379000731
 31
0.0
  0
CIRCLE
  5
157
330
1F
100
AcDbEntity
  8
0
  6
Continuous
 62
     7
370
    15
100
AcDbCircle
 10
184.7058366916
 20
300.2274653282
 30
0.0
 40
1.550000000000011
  0
ARC
  5
158
330
1F
100
AcDbEntity
  8
0
  6
Continuous
 62
     7
370
    15
100
AcDbCircle
 10
184.7058366916
 20
293.2274653282
 30
0.0
 40
3.000000000000003
100
AcDbArc
 50
4.7801918472
 51
85.2198081528
  0
LINE
  5
159
330
1F
100
AcDbEntity
  8
0
  6
Continuous
 62
     7
370
    15
100
AcDbLine
 10
188.7162711702
 20
293.4774651531
 30
0.0
 11
187.69540193
 21
293.4774651531
 31
0.0
  0
ARC
  5
15A
330
1F
100
AcDbEntity
  8
0
  6
Continuous
 62
     7
370
    15
100
AcDbCircle
 10
191.7058366916
 20
293.2274653282
 30
0.0
 40
2.999999999999998
100
AcDbArc
 50
94.7801918472
 51
175.2198081528
  0
LINE
  5
15B
330
1F
100
AcDbEntity
  8
0
  6
Continuous
 62
     7
370
    15
100
AcDbLine
 10
191.4558366171
 20
297.2379000731
 30
0.0
 11
191.4558366171
 21
296.2170306001
 31
0.0
  0
ARC
  5
15C
330
1F
100
AcDbEntity
  8
0
  6
Continuous
 62
     7
370
    15
100
AcDbCircle
 10
191.7058366916
 20
300.2274653282
 30
0.0
 40
2.999999999999996
100
AcDbArc
 50
184.7801918472
 51
265.2198081528
  0
LINE
  5
15D
330
1F
100
AcDbEntity
  8
0
  6
Continuous
 62
     7
370
    15
100
AcDbLine
 10
187.69540193
 20
299.9774653163
 30
0.0
 11
188.7162711702
 21
299.9774653163
 31
0.0
  0
ARC
  5
15E
330
1F
100
AcDbEntity
  8
0
  6
Continuous
 62
     7
370
    15
100
AcDbCircle
 10
184.7058366916
 20
300.2274653282
 30
0.0
 40
3.000000000000022
100
AcDbArc
 50
274.7801918472
 51
355.2198081528
  0
LINE
  5
15F
330
1F
100
AcDbEntity
  8
0
  6
Continuous
 62
     7
370
    15
100
AcDbLine
 10
184.955836483
 20
296.2170306001
 30
0.0
 11
184.955836483
 21
297.2379000731
 31
0.0
  0
CIRCLE
  5
160
330
1F
100
AcDbEntity
  8
0
  6
Continuous
 62
     7
370
    15
100
AcDbCircle
 10
177.7058366916
 20
300.2274653282
 30
0.0
 40
1.549999999999983
  0
ARC
  5
161
330
1F
100
AcDbEntity
  8
0
  6
Continuous
 62
     7
370
    15
100
AcDbCircle
 10
177.7058366916
 20
293.2274653282
 30
0.0
 40
2.99999999999997
100
AcDbArc
 50
4.7801918472
 51
85.2198081528
  0
LINE
  5
162
330
1F
100
AcDbEntity
  8
0
  6
Continuous
 62
     7
370
    15
100
AcDbLine
 10
181.7162714198
 20
293.4774651531
 30
0.0
 11
180.6954019468
 21
293.4774651531
 31
0.0
  0
ARC
  5
163
330
1F
100
AcDbEntity
  8
0
  6
Continuous
 62
     7
370
    15
100
AcDbCircle
 10
184.7058366916
 20
293.2274653282
 30
0.0
 40
3.000000000000022
100
AcDbArc
 50
94.7801918472
 51
175.2198081528
  0
LINE
  5
164
330
1F
100
AcDbEntity
  8
0
  6
Continuous
 62
     7
370
    15
100
AcDbLine
 10
184.4558368667
 20
297.2379000731
 30
0.0
 11
184.4558368667
 21
296.2170306001
 31
0.0
  0
ARC
  5
165
330
1F
100
AcDbEntity
  8
0
  6
Continuous
 62
     7
370
    15
100
AcDbCircle
 10
184.7058366916
 20
300.2274653282
 30
0.0
 40
3.000000000000003
100
AcDbArc
 50
184.7801918472
 51
265.2198081528
  0
LINE
  5
166
330
1F
100
AcDbEntity
  8
0
  6
Continuous
 62
     7
370
    15
100
AcDbLine
 10
180.6954019468
 20
299.9774653163
 30
0.0
 11
181.7162714198
 21
299.9774653163
 31
0.0
  0
LINE
  5
167
330
1F
100
AcDbEntity
  8
0
  6
Continuous
 62
     7
370
    15
100
AcDbLine
 10
177.9558367035
 20
296.2170306001
 30
0.0
 11
177.9558367035
 21
297.2379000731
 31
0.0
  0
LINE
  5
168
330
1F
100
AcDbEntity
  8
0
  6
Continuous
 62
     7
370
    15
100
AcDbLine
 10
173.6954019635
 20
299.9774653163
 30
0.0
 11
174.7162714365
 21
299.9774653163
 31
0.0
  0
ARC
  5
169
330
1F
100
AcDbEntity
  8
0
  6
Continuous
 62
     7
370
    15
100
AcDbCircle
 10
170.7058366916
 20
300.2274653282
 30
0.0
 40
2.999999999999993
100
AcDbArc
 50
355.2198081528
 51
4.7801918472
  0
LINE
  5
16A
330
1F
100
AcDbEntity
  8
0
  6
Continuous
 62
     7
370
    15
100
AcDbLine
 10
174.7162714365
 20
300.47746534
 30
0.0
 11
173.6954019635
 21
300.47746534
 31
0.0
  0
ARC
  5
16B
330
1F
100
AcDbEntity
  8
0
  6
Continuous
 62
     7
370
    15
100
AcDbCircle
 10
177.7058366916
 20
300.2274653282
 30
0.0
 40
3.000000000000022
100
AcDbArc
 50
94.7801918472
 51
175.2198081528
  0
LINE
  5
16C
330
1F
100
AcDbEntity
  8
0
  6
Continuous
 62
     7
370
    15
100
AcDbLine
 10
177.4558366798
 20
304.2379000563
 30
0.0
 11
177.4558366798
 21
303.2170305833
 31
0.0
  0
ARC
  5
16D
330
1F
100
AcDbEntity
  8
0
  6
Continuous
 62
     7
370
    15
100
AcDbCircle
 10
177.7058366916
 20
307.2274653282
 30
0.0
 40
2.999999999999942
100
AcDbArc
 50
265.2198081528
 51
274.7801918472
  0
LINE
  5
16E
330
1F
100
AcDbEntity
  8
0
  6
Continuous
 62
     7
370
    15
100
AcDbLine
 10
177.9558367035
 20
303.2170305833
 30
0.0
 11
177.9558367035
 21
304.2379000563
 31
0.0
  0
LINE
  5
16F
330
1F
100
AcDbEntity
  8
0
  6
Continuous
 62
     7
370
    15
100
AcDbLine
 10
181.7162714198
 20
300.47746534
 30
0.0
 11
180.6954019468
 21
300.47746534
 31
0.0
  0
ARC
  5
170
330
1F
100
AcDbEntity
  8
0
  6
Continuous
 62
     7
370
    15
100
AcDbCircle
 10
184.7058366916
 20
300.2274653282
 30
0.0
 40
2.999999999999998
100
AcDbArc
 50
94.7801918472
 51
175.2198081528
  0
LINE
  5
171
330
1F
100
AcDbEntity
  8
0
  6
Continuous
 62
     7
370
    15
100
AcDbLine
 10
184.4558368667
 20
304.2379000563
 30
0.0
 11
184.4558368667
 21
303.2170305833
 31
0.0
  0
ARC
  5
172
330
1F
100
AcDbEntity
  8
0
  6
Continuous
 62
     7
370
    15
100
AcDbCircle
 10
184.7058366916
 20
307.2274653282
 30
0.0
 40
2.999999999999998
100
AcDbArc
 50
265.2198081528
 51
274.7801918472
  0
LINE
  5
173
330
1F
100
AcDbEntity
  8
0
  6
Continuous
 62
     7
370
    15
100
AcDbLine
 10
184.955836483
 20
303.2170305833
 30
0.0
 11
184.955836483
 21
304.2379000563
 31
0.0
  0
ARC
  5
174
330
1F
100
AcDbEntity
  8
0
  6
Continuous
 62
     7
370
    15
100
AcDbCircle
 10
184.7058366916
 20
300.2274653282
 30
0.0
 40
3.000000000000032
100
AcDbArc
 50
4.7801918472
 51
85.2198081528
  0
LINE
  5
175
330
1F
100
AcDbEntity
  8
0
  6
Continuous
 62
     7
370
    15
100
AcDbLine
 10
188.7162711702
 20
300.47746534
 30
0.0
 11
187.69540193
 21
300.47746534
 31
0.0
  0
ARC
  5
176
330
1F
100
AcDbEntity
  8
0
  6
Continuous
 62
     7
370
    15
100
AcDbCircle
 10
191.7058366916
 20
300.2274653282
 30
0.0
 40
2.999999999999998
100
AcDbArc
 50
94.7801918472
 51
175.2198081528
  0
LINE
  5
177
330
1F
100
AcDbEntity
  8
0
  6
Continuous
 62
     7
370
    15
100
AcDbLine
 10
191.4558366171
 20
304.2379000563
 30
0.0
 11
191.4558366171
 21
303.2170305833
 31
0.0
  0
ARC
  5
178
330
1F
100
AcDbEntity
  8
0
  6
Continuous
 62
     7
370
    15
100
AcDbCircle
 10
191.7058366916
 20
307.2274653282
 30
0.0
 40
2.999999999999998
100
AcDbArc
 50
265.2198081528
 51
274.7801918472
  0
LINE
  5
179
330
1F
100
AcDbEntity
  8
0
  6
Continuous
 62
     7
370
    15
100
AcDbLine
 10
191.9558366991
 20
303.2170305833
 30
0.0
 11
191.9558366991
 21
304.2379000563
 31
0.0
  0
ARC
  5
17A
330
1F
100
AcDbEntity
  8
0
  6
Continuous
 62
     7
370
    15
100
AcDbCircle
 10
191.7058366916
 20
300.2274653282
 30
0.0
 40
3.000000000000003
100
AcDbArc
 50
4.7801918472
 51
85.2198081528
  0
LINE
  5
17B
330
1F
100
AcDbEntity
  8
0
  6
Continuous
 62
     7
370
    15
100
AcDbLine
 10
195.7162723175
 20
300.47746534
 30
0.0
 11
194.6954012147
 21
300.47746534
 31
0.0
  0
ARC
  5
17C
330
1F
100
AcDbEntity
  8
0
  6
Continuous
 62
     7
370
    15
100
AcDbCircle
 10
198.7058366916
 20
300.2274653282
 30
0.0
 40
2.999999999999998
100
AcDbArc
 50
94.7801918472
 51
175.2198081528
  0
LINE
  5
17D
330
1F
100
AcDbEntity
  8
0
  6
Continuous
 62
     7
370
    15
100
AcDbLine
 10
198.4558359019
 20
304.2379000563
 30
0.0
 11
198.4558359019
 21
303.2170305833
 31
0.0
  0
ARC
  5
17E
330
1F
100
AcDbEntity
  8
0
  6
Continuous
 62
     7
370
    15
100
AcDbCircle
 10
198.7058366916
 20
307.2274653282
 30
0.0
 40
3.000000000000055
100
AcDbArc
 50
265.2198081528
 51
274.7801918472
  0
LINE
  5
17F
330
1F
100
AcDbEntity
  8
0
  6
Continuous
 62
     7
370
    15
100
AcDbLine
 10
198.9558369152
 20
303.2170305833
 30
0.0
 11
198.9558369152
 21
304.2379000563
 31
0.0
  0
ARC
  5
180
330
1F
100
AcDbEntity
  8
0
  6
Continuous
 62
     7
370
    15
100
AcDbCircle
 10
198.7058366916
 20
300.2274653282
 30
0.0
 40
3.000000000000003
100
AcDbArc
 50
4.7801918472
 51
85.2198081528
  0
LINE
  5
181
330
1F
100
AcDbEntity
  8
0
  6
Continuous
 62
     7
370
    15
100
AcDbLine
 10
202.7162716023
 20
300.47746534
 30
0.0
 11
201.6954023621
 21
300.47746534
 31
0.0
  0
ARC
  5
182
330
1F
100
AcDbEntity
  8
0
  6
Continuous
 62
     7
370
    15
100
AcDbCircle
 10
205.7058366916
 20
300.2274653282
 30
0.0
 40
3.000000000000017
100
AcDbArc
 50
94.7801918472
 51
175.2198081528
  0
LINE
  5
183
330
1F
100
AcDbEntity
  8
0
  6
Continuous
 62
     7
370
    15
100
AcDbLine
 10
205.4558370493
 20
304.2379000563
 30
0.0
 11
205.4558370493
 21
303.2170305833
 31
0.0
  0
ARC
  5
184
330
1F
100
AcDbEntity
  8
0
  6
Continuous
 62
     7
370
    15
100
AcDbCircle
 10
205.7058366916
 20
307.2274653282
 30
0.0
 40
3.000000000000055
100
AcDbArc
 50
265.2198081528
 51
274.7801918472
  0
LINE
  5
185
330
1F
100
AcDbEntity
  8
0
  6
Continuous
 62
     7
370
    15
100
AcDbLine
 10
205.9558361999
 20
303.2170305833
 30
0.0
 11
205.9558361999
 21
304.2379000563
 31
0.0
  0
ARC
  5
186
330
1F
100
AcDbEntity
  8
0
  6
Continuous
 62
     7
370
    15
100
AcDbCircle
 10
205.7058366916
 20
300.2274653282
 30
0.0
 40
2.999999999999998
100
AcDbArc
 50
274.7801918472
 51
85.2198081528
  0
LINE
  5
187
330
1F
100
AcDbEntity
  8
0
  6
Continuous
 62
     7
370
    15
100
AcDbLine
 10
205.9558361999
 20
296.2170306001
 30
0.0
 11
205.9558361999
 21
297.2379000731
 31
0.0
  0
ARC
  5
188
330
1F
100
AcDbEntity
  8
0
  6
Continuous
 62
     7
370
    15
100
AcDbCircle
 10
205.7058366916
 20
293.2274653282
 30
0.0
 40
3.000000000000055
100
AcDbArc
 50
184.7801918472
 51
85.2198081528
  0
LINE
  5
189
330
1F
100
AcDbEntity
  8
0
  6
Continuous
 62
     7
370
    15
100
AcDbLine
 10
201.6954023621
 20
292.9774655368
 30
0.0
 11
202.7162716023
 21
292.9774655368
 31
0.0
  0
ARC
  5
18A
330
1F
100
AcDbEntity
  8
0
  6
Continuous
 62
     7
370
    15
100
AcDbCircle
 10
198.7058366916
 20
293.2274653282
 30
0.0
 40
3.000000000000017
100
AcDbArc
 50
184.7801918472
 51
355.2198081528
  0
LINE
  5
18B
330
1F
100
AcDbEntity
  8
0
  6
Continuous
 62
     7
370
    15
100
AcDbLine
 10
194.6954012147
 20
292.9774655368
 30
0.0
 11
195.7162723175
 21
292.9774655368
 31
0.0
  0
ARC
  5
18C
330
1F
100
AcDbEntity
  8
0
  6
Continuous
 62
     7
370
    15
100
AcDbCircle
 10
191.7058366916
 20
293.2274653282
 30
0.0
 40
3.000000000000003
100
AcDbArc
 50
184.7801918472
 51
355.2198081528
  0
LINE
  5
18D
330
1F
100
AcDbEntity
  8
0
  6
Continuous
 62
     7
370
    15
100
AcDbLine
 10
187.69540193
 20
292.9774655368
 30
0.0
 11
188.7162711702
 21
292.9774655368
 31
0.0
  0
ARC
  5
18E
330
1F
100
AcDbEntity
  8
0
  6
Continuous
 62
     7
370
    15
100
AcDbCircle
 10
184.7058366916
 20
293.2274653282
 30
0.0
 40
3.000000000000003
100
AcDbArc
 50
184.7801918472
 51
355.2198081528
  0
LINE
  5
18F
330
1F
100
AcDbEntity
  8
0
  6
Continuous
 62
     7
370
    15
100
AcDbLine
 10
180.6954019468
 20
292.9774655368
 30
0.0
 11
181.7162714198
 21
292.9774655368
 31
0.0
  0
ARC
  5
190
330
1F
100
AcDbEntity
  8
0
  6
Continuous
 62
     7
370
    15
100
AcDbCircle
 10
177.7058366916
 20
293.2274653282
 30
0.0
 40
3.000000000000008
100
AcDbArc
 50
184.7801918472
 51
355.2198081528
  0
LINE
  5
191
330
1F
100
AcDbEntity
  8
0
  6
Continuous
 62
     7
370
    15
100
AcDbLine
 10
173.6954019635
 20
292.9774655368
 30
0.0
 11
174.7162714365
 21
292.9774655368
 31
0.0
  0
ARC
  5
192
330
1F
100
AcDbEntity
  8
0
  6
Continuous
 62
     7
370
    15
100
AcDbCircle
 10
170.7058366916
 20
293.2274653282
 30
0.0
 40
2.999999999999993
100
AcDbArc
 50
355.2198081528
 51
4.7801918472
  0
LINE
  5
193
330
1F
100
AcDbEntity
  8
0
  6
Continuous
 62
     7
370
    15
100
AcDbLine
 10
174.7162714365
 20
293.4774651531
 30
0.0
 11
173.6954019635
 21
293.4774651531
 31
0.0
  0
ARC
  5
194
330
1F
100
AcDbEntity
  8
0
  6
Continuous
 62
     7
370
    15
100
AcDbCircle
 10
177.7058366916
 20
293.2274653282
 30
0.0
 40
3.000000000000017
100
AcDbArc
 50
94.7801918472
 51
175.2198081528
  0
LINE
  5
195
330
1F
100
AcDbEntity
  8
0
  6
Continuous
 62
     7
370
    15
100
AcDbLine
 10
177.4558366798
 20
297.2379000731
 30
0.0
 11
177.4558366798
 21
296.2170306001
 31
0.0
  0
ARC
  5
196
330
1F
100
AcDbEntity
  8
0
  6
Continuous
 62
     7
370
    15
100
AcDbCircle
 10
177.7058366916
 20
300.2274653282
 30
0.0
 40
3.000000000000032
100
AcDbArc
 50
184.7801918472
 51
265.2198081528
  0
ARC
  5
197
330
1F
100
AcDbEntity
  8
0
  6
Continuous
 62
     7
370
    15
100
AcDbCircle
 10
177.7058366916
 20
300.2274653282
 30
0.0
 40
2.999999999999998
100
AcDbArc
 50
274.7801918472
 51
355.2198081528
  0
ARC
  5
198
330
1F
100
AcDbEntity
  8
0
  6
Continuous
 62
     7
370
    15
100
AcDbCircle
 10
177.7058366916
 20
300.2274653282
 30
0.0
 40
2.999999999999998
100
AcDbArc
 50
4.7801918472
 51
85.2198081528
  0
CIRCLE
  5
199
330
1F
100
AcDbEntity
  8
0
  6
Continuous
 62
     7
370
    15
100
AcDbCircle
 10
90.2198507461
 20
292.1706532529
 30
0.0
 40
1.549999999999997
  0
CIRCLE
  5
19A
330
1F
100
AcDbEntity
  8
0
  6
Continuous
 62
     7
370
    15
100
AcDbCircle
 10
83.2198507461
 20
292.1706532529
 30
0.0
 40
1.549999999999997
  0
CIRCLE
  5
19B
330
1F
100
AcDbEntity
  8
0
  6
Continuous
 62
     7
370
    15
100
AcDbCircle
 10
76.2198507461
 20
292.1706532529
 30
0.0
 40
1.549999999999997
  0
CIRCLE
  5
19C
330
1F
100
AcDbEntity
  8
0
  6
Continuous
 62
     7
370
    15
100
AcDbCircle
 10
69.2198507461
 20
292.1706532529
 30
0.0
 40
1.549999999999997
  0
CIRCLE
  5
19D
330
1F
100
AcDbEntity
  8
0
  6
Continuous
 62
     7
370
    15
100
AcDbCircle
 10
62.2198507461
 20
292.1706532529
 30
0.0
 40
1.549999999999997
  0
CIRCLE
  5
19E
330
1F
100
AcDbEntity
  8
0
  6
Continuous
 62
     7
370
    15
100
AcDbCircle
 10
90.2198507461
 20
299.1706532529
 30
0.0
 40
1.549999999999997
  0
CIRCLE
  5
19F
330
1F
100
AcDbEntity
  8
0
  6
Continuous
 62
     7
370
    15
100
AcDbCircle
 10
83.2198507461
 20
299.1706532529
 30
0.0
 40
1.549999999999997
  0
ARC
  5
1A0
330
1F
100
AcDbEntity
  8
0
  6
Continuous
 62
     7
370
    15
100
AcDbCircle
 10
83.2198507461
 20
292.1706532529
 30
0.0
 40
2.999999999999998
100
AcDbArc
 50
4.7801918472
 51
85.2198081528
  0
LINE
  5
1A1
330
1F
100
AcDbEntity
  8
0
  6
Continuous
 62
     7
370
    15
100
AcDbLine
 10
87.2302856568
 20
292.4206530778
 30
0.0
 11
86.2094164166
 21
292.4206530778
 31
0.0
  0
ARC
  5
1A2
330
1F
100
AcDbEntity
  8
0
  6
Continuous
 62
     7
370
    15
100
AcDbCircle
 10
90.2198507461
 20
292.1706532529
 30
0.0
 40
2.999999999999998
100
AcDbArc
 50
94.7801918472
 51
175.2198081528
  0
LINE
  5
1A3
330
1F
100
AcDbEntity
  8
0
  6
Continuous
 62
     7
370
    15
100
AcDbLine
 10
89.9698511037
 20
296.1810879978
 30
0.0
 11
89.9698511037
 21
295.1602185248
 31
0.0
  0
ARC
  5
1A4
330
1F
100
AcDbEntity
  8
0
  6
Continuous
 62
     7
370
    15
100
AcDbCircle
 10
90.2198507461
 20
299.1706532529
 30
0.0
 40
3.000000000000008
100
AcDbArc
 50
184.7801918472
 51
265.2198081528
  0
LINE
  5
1A5
330
1F
100
AcDbEntity
  8
0
  6
Continuous
 62
     7
370
    15
100
AcDbLine
 10
86.2094164166
 20
298.920653241
 30
0.0
 11
87.2302856568
 21
298.920653241
 31
0.0
  0
ARC
  5
1A6
330
1F
100
AcDbEntity
  8
0
  6
Continuous
 62
     7
370
    15
100
AcDbCircle
 10
83.2198507461
 20
299.1706532529
 30
0.0
 40
2.999999999999993
100
AcDbArc
 50
274.7801918472
 51
355.2198081528
  0
LINE
  5
1A7
330
1F
100
AcDbEntity
  8
0
  6
Continuous
 62
     7
370
    15
100
AcDbLine
 10
83.4698509696
 20
295.1602185248
 30
0.0
 11
83.4698509696
 21
296.1810879978
 31
0.0
  0
CIRCLE
  5
1A8
330
1F
100
AcDbEntity
  8
0
  6
Continuous
 62
     7
370
    15
100
AcDbCircle
 10
76.2198507461
 20
299.1706532529
 30
0.0
 40
1.550000000000011
  0
ARC
  5
1A9
330
1F
100
AcDbEntity
  8
0
  6
Continuous
 62
     7
370
    15
100
AcDbCircle
 10
76.2198507461
 20
292.1706532529
 30
0.0
 40
3.000000000000017
100
AcDbArc
 50
4.7801918472
 51
85.2198081528
  0
LINE
  5
1AA
330
1F
100
AcDbEntity
  8
0
  6
Continuous
 62
     7
370
    15
100
AcDbLine
 10
80.230286372
 20
292.4206530778
 30
0.0
 11
79.2094152692
 21
292.4206530778
 31
0.0
  0
ARC
  5
1AB
330
1F
100
AcDbEntity
  8
0
  6
Continuous
 62
     7
370
    15
100
AcDbCircle
 10
83.2198507461
 20
292.1706532529
 30
0.0
 40
3.000000000000008
100
AcDbArc
 50
94.7801918472
 51
175.2198081528
  0
LINE
  5
1AC
330
1F
100
AcDbEntity
  8
0
  6
Continuous
 62
     7
370
    15
100
AcDbLine
 10
82.9698499564
 20
296.1810879978
 30
0.0
 11
82.9698499564
 21
295.1602185248
 31
0.0
  0
ARC
  5
1AD
330
1F
100
AcDbEntity
  8
0
  6
Continuous
 62
     7
370
    15
100
AcDbCircle
 10
83.2198507461
 20
299.1706532529
 30
0.0
 40
3.000000000000008
100
AcDbArc
 50
184.7801918472
 51
265.2198081528
  0
LINE
  5
1AE
330
1F
100
AcDbEntity
  8
0
  6
Continuous
 62
     7
370
    15
100
AcDbLine
 10
79.2094152692
 20
298.920653241
 30
0.0
 11
80.230286372
 21
298.920653241
 31
0.0
  0
ARC
  5
1AF
330
1F
100
AcDbEntity
  8
0
  6
Continuous
 62
     7
370
    15
100
AcDbCircle
 10
76.2198507461
 20
299.1706532529
 30
0.0
 40
3.000000000000022
100
AcDbArc
 50
274.7801918472
 51
355.2198081528
  0
LINE
  5
1B0
330
1F
100
AcDbEntity
  8
0
  6
Continuous
 62
     7
370
    15
100
AcDbLine
 10
76.4698507536
 20
295.1602185248
 30
0.0
 11
76.4698507536
 21
296.1810879978
 31
0.0
  0
CIRCLE
  5
1B1
330
1F
100
AcDbEntity
  8
0
  6
Continuous
 62
     7
370
    15
100
AcDbCircle
 10
69.2198507461
 20
299.1706532529
 30
0.0
 40
1.549999999999997
  0
ARC
  5
1B2
330
1F
100
AcDbEntity
  8
0
  6
Continuous
 62
     7
370
    15
100
AcDbCircle
 10
69.2198507461
 20
292.1706532529
 30
0.0
 40
2.999999999999998
100
AcDbArc
 50
4.7801918472
 51
85.2198081528
  0
LINE
  5
1B3
330
1F
100
AcDbEntity
  8
0
  6
Continuous
 62
     7
370
    15
100
AcDbLine
 10
73.2302852246
 20
292.4206530778
 30
0.0
 11
72.2094159845
 21
292.4206530778
 31
0.0
  0
ARC
  5
1B4
330
1F
100
AcDbEntity
  8
0
  6
Continuous
 62
     7
370
    15
100
AcDbCircle
 10
76.2198507461
 20
292.1706532529
 30
0.0
 40
2.999999999999998
100
AcDbArc
 50
94.7801918472
 51
175.2198081528
  0
LINE
  5
1B5
330
1F
100
AcDbEntity
  8
0
  6
Continuous
 62
     7
370
    15
100
AcDbLine
 10
75.9698506716
 20
296.1810879978
 30
0.0
 11
75.9698506716
 21
295.1602185248
 31
0.0
  0
ARC
  5
1B6
330
1F
100
AcDbEntity
  8
0
  6
Continuous
 62
     7
370
    15
100
AcDbCircle
 10
76.2198507461
 20
299.1706532529
 30
0.0
 40
2.999999999999984
100
AcDbArc
 50
184.7801918472
 51
265.2198081528
  0
LINE
  5
1B7
330
1F
100
AcDbEntity
  8
0
  6
Continuous
 62
     7
370
    15
100
AcDbLine
 10
72.2094159845
 20
298.920653241
 30
0.0
 11
73.2302852246
 21
298.920653241
 31
0.0
  0
ARC
  5
1B8
330
1F
100
AcDbEntity
  8
0
  6
Continuous
 62
     7
370
    15
100
AcDbCircle
 10
69.2198507461
 20
299.1706532529
 30
0.0
 40
2.999999999999989
100
AcDbArc
 50
274.7801918472
 51
355.2198081528
  0
LINE
  5
1B9
330
1F
100
AcDbEntity
  8
0
  6
Continuous
 62
     7
370
    15
100
AcDbLine
 10
69.4698505375
 20
295.1602185248
 30
0.0
 11
69.4698505375
 21
296.1810879978
 31
0.0
  0
CIRCLE
  5
1BA
330
1F
100
AcDbEntity
  8
0
  6
Continuous
 62
     7
370
    15
100
AcDbCircle
 10
62.2198507461
 20
299.1706532529
 30
0.0
 40
1.550000000000011
  0
ARC
  5
1BB
330
1F
100
AcDbEntity
  8
0
  6
Continuous
 62
     7
370
    15
100
AcDbCircle
 10
62.2198507461
 20
292.1706532529
 30
0.0
 40
2.999999999999996
100
AcDbArc
 50
4.7801918472
 51
85.2198081528
  0
LINE
  5
1BC
330
1F
100
AcDbEntity
  8
0
  6
Continuous
 62
     7
370
    15
100
AcDbLine
 10
66.2302854742
 20
292.4206530778
 30
0.0
 11
65.2094160012
 21
292.4206530778
 31
0.0
  0
ARC
  5
1BD
330
1F
100
AcDbEntity
  8
0
  6
Continuous
 62
     7
370
    15
100
AcDbCircle
 10
69.2198507461
 20
292.1706532529
 30
0.0
 40
3.000000000000012
100
AcDbArc
 50
94.7801918472
 51
175.2198081528
  0
LINE
  5
1BE
330
1F
100
AcDbEntity
  8
0
  6
Continuous
 62
     7
370
    15
100
AcDbLine
 10
68.9698509212
 20
296.1810879978
 30
0.0
 11
68.9698509212
 21
295.1602185248
 31
0.0
  0
ARC
  5
1BF
330
1F
100
AcDbEntity
  8
0
  6
Continuous
 62
     7
370
    15
100
AcDbCircle
 10
69.2198507461
 20
299.1706532529
 30
0.0
 40
2.999999999999998
100
AcDbArc
 50
184.7801918472
 51
265.2198081528
  0
LINE
  5
1C0
330
1F
100
AcDbEntity
  8
0
  6
Continuous
 62
     7
370
    15
100
AcDbLine
 10
65.2094160012
 20
298.920653241
 30
0.0
 11
66.2302854742
 21
298.920653241
 31
0.0
  0
LINE
  5
1C1
330
1F
100
AcDbEntity
  8
0
  6
Continuous
 62
     7
370
    15
100
AcDbLine
 10
62.469850758
 20
295.1602185248
 30
0.0
 11
62.469850758
 21
296.1810879978
 31
0.0
  0
LINE
  5
1C2
330
1F
100
AcDbEntity
  8
0
  6
Continuous
 62
     7
370
    15
100
AcDbLine
 10
58.209416018
 20
298.920653241
 30
0.0
 11
59.230285491
 21
298.920653241
 31
0.0
  0
ARC
  5
1C3
330
1F
100
AcDbEntity
  8
0
  6
Continuous
 62
     7
370
    15
100
AcDbCircle
 10
55.2198507461
 20
299.1706532529
 30
0.0
 40
3.0
100
AcDbArc
 50
355.2198081528
 51
4.7801918472
  0
LINE
  5
1C4
330
1F
100
AcDbEntity
  8
0
  6
Continuous
 62
     7
370
    15
100
AcDbLine
 10
59.230285491
 20
299.4206532648
 30
0.0
 11
58.209416018
 21
299.4206532648
 31
0.0
  0
ARC
  5
1C5
330
1F
100
AcDbEntity
  8
0
  6
Continuous
 62
     7
370
    15
100
AcDbCircle
 10
62.2198507461
 20
299.1706532529
 30
0.0
 40
3.000000000000055
100
AcDbArc
 50
94.7801918472
 51
175.2198081528
  0
LINE
  5
1C6
330
1F
100
AcDbEntity
  8
0
  6
Continuous
 62
     7
370
    15
100
AcDbLine
 10
61.9698507342
 20
303.181087981
 30
0.0
 11
61.9698507342
 21
302.160218508
 31
0.0
  0
ARC
  5
1C7
330
1F
100
AcDbEntity
  8
0
  6
Continuous
 62
     7
370
    15
100
AcDbCircle
 10
62.2198507461
 20
306.1706532529
 30
0.0
 40
2.999999999999942
100
AcDbArc
 50
265.2198081528
 51
274.7801918472
  0
LINE
  5
1C8
330
1F
100
AcDbEntity
  8
0
  6
Continuous
 62
     7
370
    15
100
AcDbLine
 10
62.469850758
 20
302.160218508
 30
0.0
 11
62.469850758
 21
303.181087981
 31
0.0
  0
LINE
  5
1C9
330
1F
100
AcDbEntity
  8
0
  6
Continuous
 62
     7
370
    15
100
AcDbLine
 10
66.2302854742
 20
299.4206532648
 30
0.0
 11
65.2094160012
 21
299.4206532648
 31
0.0
  0
ARC
  5
1CA
330
1F
100
AcDbEntity
  8
0
  6
Continuous
 62
     7
370
    15
100
AcDbCircle
 10
69.2198507461
 20
299.1706532529
 30
0.0
 40
2.999999999999998
100
AcDbArc
 50
94.7801918472
 51
175.2198081528
  0
LINE
  5
1CB
330
1F
100
AcDbEntity
  8
0
  6
Continuous
 62
     7
370
    15
100
AcDbLine
 10
68.9698509212
 20
303.181087981
 30
0.0
 11
68.9698509212
 21
302.160218508
 31
0.0
  0
ARC
  5
1CC
330
1F
100
AcDbEntity
  8
0
  6
Continuous
 62
     7
370
    15
100
AcDbCircle
 10
69.2198507461
 20
306.1706532529
 30
0.0
 40
2.999999999999942
100
AcDbArc
 50
265.2198081528
 51
274.7801918472
  0
LINE
  5
1CD
330
1F
100
AcDbEntity
  8
0
  6
Continuous
 62
     7
370
    15
100
AcDbLine
 10
69.4698505375
 20
302.160218508
 30
0.0
 11
69.4698505375
 21
303.181087981
 31
0.0
  0
ARC
  5
1CE
330
1F
100
AcDbEntity
  8
0
  6
Continuous
 62
     7
370
    15
100
AcDbCircle
 10
69.2198507461
 20
299.1706532529
 30
0.0
 40
2.999999999999998
100
AcDbArc
 50
4.7801918472
 51
85.2198081528
  0
LINE
  5
1CF
330
1F
100
AcDbEntity
  8
0
  6
Continuous
 62
     7
370
    15
100
AcDbLine
 10
73.2302852246
 20
299.4206532648
 30
0.0
 11
72.2094159845
 21
299.4206532648
 31
0.0
  0
ARC
  5
1D0
330
1F
100
AcDbEntity
  8
0
  6
Continuous
 62
     7
370
    15
100
AcDbCircle
 10
76.2198507461
 20
299.1706532529
 30
0.0
 40
2.999999999999998
100
AcDbArc
 50
94.7801918472
 51
175.2198081528
  0
LINE
  5
1D1
330
1F
100
AcDbEntity
  8
0
  6
Continuous
 62
     7
370
    15
100
AcDbLine
 10
75.9698506716
 20
303.181087981
 30
0.0
 11
75.9698506716
 21
302.160218508
 31
0.0
  0
ARC
  5
1D2
330
1F
100
AcDbEntity
  8
0
  6
Continuous
 62
     7
370
    15
100
AcDbCircle
 10
76.2198507461
 20
306.1706532529
 30
0.0
 40
2.999999999999942
100
AcDbArc
 50
265.2198081528
 51
274.7801918472
  0
LINE
  5
1D3
330
1F
100
AcDbEntity
  8
0
  6
Continuous
 62
     7
370
    15
100
AcDbLine
 10
76.4698507536
 20
302.160218508
 30
0.0
 11
76.4698507536
 21
303.181087981
 31
0.0
  0
ARC
  5
1D4
330
1F
100
AcDbEntity
  8
0
  6
Continuous
 62
     7
370
    15
100
AcDbCircle
 10
76.2198507461
 20
299.1706532529
 30
0.0
 40
3.000000000000022
100
AcDbArc
 50
4.7801918472
 51
85.2198081528
  0
LINE
  5
1D5
330
1F
100
AcDbEntity
  8
0
  6
Continuous
 62
     7
370
    15
100
AcDbLine
 10
80.230286372
 20
299.4206532648
 30
0.0
 11
79.2094152692
 21
299.4206532648
 31
0.0
  0
ARC
  5
1D6
330
1F
100
AcDbEntity
  8
0
  6
Continuous
 62
     7
370
    15
100
AcDbCircle
 10
83.2198507461
 20
299.1706532529
 30
0.0
 40
3.000000000000008
100
AcDbArc
 50
94.7801918472
 51
175.2198081528
  0
LINE
  5
1D7
330
1F
100
AcDbEntity
  8
0
  6
Continuous
 62
     7
370
    15
100
AcDbLine
 10
82.9698499564
 20
303.181087981
 30
0.0
 11
82.9698499564
 21
302.160218508
 31
0.0
  0
ARC
  5
1D8
330
1F
100
AcDbEntity
  8
0
  6
Continuous
 62
     7
370
    15
100
AcDbCircle
 10
83.2198507461
 20
306.1706532529
 30
0.0
 40
2.999999999999998
100
AcDbArc
 50
265.2198081528
 51
274.7801918472
  0
LINE
  5
1D9
330
1F
100
AcDbEntity
  8
0
  6
Continuous
 62
     7
370
    15
100
AcDbLine
 10
83.4698509696
 20
302.160218508
 30
0.0
 11
83.4698509696
 21
303.181087981
 31
0.0
  0
ARC
  5
1DA
330
1F
100
AcDbEntity
  8
0
  6
Continuous
 62
     7
370
    15
100
AcDbCircle
 10
83.2198507461
 20
299.1706532529
 30
0.0
 40
2.999999999999998
100
AcDbArc
 50
4.7801918472
 51
85.2198081528
  0
LINE
  5
1DB
330
1F
100
AcDbEntity
  8
0
  6
Continuous
 62
     7
370
    15
100
AcDbLine
 10
87.2302856568
 20
299.4206532648
 30
0.0
 11
86.2094164166
 21
299.4206532648
 31
0.0
  0
ARC
  5
1DC
330
1F
100
AcDbEntity
  8
0
  6
Continuous
 62
     7
370
    15
100
AcDbCircle
 10
90.2198507461
 20
299.1706532529
 30
0.0
 40
3.000000000000003
100
AcDbArc
 50
94.7801918472
 51
175.2198081528
  0
LINE
  5
1DD
330
1F
100
AcDbEntity
  8
0
  6
Continuous
 62
     7
370
    15
100
AcDbLine
 10
89.9698511037
 20
303.181087981
 30
0.0
 11
89.9698511037
 21
302.160218508
 31
0.0
  0
ARC
  5
1DE
330
1F
100
AcDbEntity
  8
0
  6
Continuous
 62
     7
370
    15
100
AcDbCircle
 10
90.2198507461
 20
306.1706532529
 30
0.0
 40
2.999999999999998
100
AcDbArc
 50
265.2198081528
 51
274.7801918472
  0
LINE
  5
1DF
330
1F
100
AcDbEntity
  8
0
  6
Continuous
 62
     7
370
    15
100
AcDbLine
 10
90.4698502544
 20
302.160218508
 30
0.0
 11
90.4698502544
 21
303.181087981
 31
0.0
  0
ARC
  5
1E0
330
1F
100
AcDbEntity
  8
0
  6
Continuous
 62
     7
370
    15
100
AcDbCircle
 10
90.2198507461
 20
299.1706532529
 30
0.0
 40
2.999999999999998
100
AcDbArc
 50
274.7801918472
 51
85.2198081528
  0
LINE
  5
1E1
330
1F
100
AcDbEntity
  8
0
  6
Continuous
 62
     7
370
    15
100
AcDbLine
 10
90.4698502544
 20
295.1602185248
 30
0.0
 11
90.4698502544
 21
296.1810879978
 31
0.0
  0
ARC
  5
1E2
330
1F
100
AcDbEntity
  8
0
  6
Continuous
 62
     7
370
    15
100
AcDbCircle
 10
90.2198507461
 20
292.1706532529
 30
0.0
 40
2.999999999999998
100
AcDbArc
 50
184.7801918472
 51
85.2198081528
  0
LINE
  5
1E3
330
1F
100
AcDbEntity
  8
0
  6
Continuous
 62
     7
370
    15
100
AcDbLine
 10
86.2094164166
 20
291.9206534615
 30
0.0
 11
87.2302856568
 21
291.9206534615
 31
0.0
  0
ARC
  5
1E4
330
1F
100
AcDbEntity
  8
0
  6
Continuous
 62
     7
370
    15
100
AcDbCircle
 10
83.2198507461
 20
292.1706532529
 30
0.0
 40
3.000000000000017
100
AcDbArc
 50
184.7801918472
 51
355.2198081528
  0
LINE
  5
1E5
330
1F
100
AcDbEntity
  8
0
  6
Continuous
 62
     7
370
    15
100
AcDbLine
 10
79.2094152692
 20
291.9206534615
 30
0.0
 11
80.230286372
 21
291.9206534615
 31
0.0
  0
ARC
  5
1E6
330
1F
100
AcDbEntity
  8
0
  6
Continuous
 62
     7
370
    15
100
AcDbCircle
 10
76.2198507461
 20
292.1706532529
 30
0.0
 40
3.000000000000008
100
AcDbArc
 50
184.7801918472
 51
355.2198081528
  0
LINE
  5
1E7
330
1F
100
AcDbEntity
  8
0
  6
Continuous
 62
     7
370
    15
100
AcDbLine
 10
72.2094159845
 20
291.9206534615
 30
0.0
 11
73.2302852246
 21
291.9206534615
 31
0.0
  0
ARC
  5
1E8
330
1F
100
AcDbEntity
  8
0
  6
Continuous
 62
     7
370
    15
100
AcDbCircle
 10
69.2198507461
 20
292.1706532529
 30
0.0
 40
2.999999999999998
100
AcDbArc
 50
184.7801918472
 51
355.2198081528
  0
LINE
  5
1E9
330
1F
100
AcDbEntity
  8
0
  6
Continuous
 62
     7
370
    15
100
AcDbLine
 10
65.2094160012
 20
291.9206534615
 30
0.0
 11
66.2302854742
 21
291.9206534615
 31
0.0
  0
ARC
  5
1EA
330
1F
100
AcDbEntity
  8
0
  6
Continuous
 62
     7
370
    15
100
AcDbCircle
 10
62.2198507461
 20
292.1706532529
 30
0.0
 40
3.0
100
AcDbArc
 50
184.7801918472
 51
355.2198081528
  0
LINE
  5
1EB
330
1F
100
AcDbEntity
  8
0
  6
Continuous
 62
     7
370
    15
100
AcDbLine
 10
58.209416018
 20
291.9206534615
 30
0.0
 11
59.230285491
 21
291.9206534615
 31
0.0
  0
ARC
  5
1EC
330
1F
100
AcDbEntity
  8
0
  6
Continuous
 62
     7
370
    15
100
AcDbCircle
 10
55.2198507461
 20
292.1706532529
 30
0.0
 40
3.000000000000008
100
AcDbArc
 50
355.2198081528
 51
4.7801918472
  0
LINE
  5
1ED
330
1F
100
AcDbEntity
  8
0
  6
Continuous
 62
     7
370
    15
100
AcDbLine
 10
59.230285491
 20
292.4206530778
 30
0.0
 11
58.209416018
 21
292.4206530778
 31
0.0
  0
ARC
  5
1EE
330
1F
100
AcDbEntity
  8
0
  6
Continuous
 62
     7
370
    15
100
AcDbCircle
 10
62.2198507461
 20
292.1706532529
 30
0.0
 40
3.0
100
AcDbArc
 50
94.7801918472
 51
175.2198081528
  0
LINE
  5
1EF
330
1F
100
AcDbEntity
  8
0
  6
Continuous
 62
     7
370
    15
100
AcDbLine
 10
61.9698507342
 20
296.1810879978
 30
0.0
 11
61.9698507342
 21
295.1602185248
 31
0.0
  0
ARC
  5
1F0
330
1F
100
AcDbEntity
  8
0
  6
Continuous
 62
     7
370
    15
100
AcDbCircle
 10
62.2198507461
 20
299.1706532529
 30
0.0
 40
2.999999999999991
100
AcDbArc
 50
184.7801918472
 51
265.2198081528
  0
ARC
  5
1F1
330
1F
100
AcDbEntity
  8
0
  6
Continuous
 62
     7
370
    15
100
AcDbCircle
 10
62.2198507461
 20
299.1706532529
 30
0.0
 40
2.999999999999996
100
AcDbArc
 50
274.7801918472
 51
355.2198081528
  0
ARC
  5
1F2
330
1F
100
AcDbEntity
  8
0
  6
Continuous
 62
     7
370
    15
100
AcDbCircle
 10
62.2198507461
 20
299.1706532529
 30
0.0
 40
3.000000000000056
100
AcDbArc
 50
4.7801918472
 51
85.2198081528
  0
LINE
  5
1F3
330
1F
100
AcDbEntity
  8
0
  6
Continuous
 62
     7
370
    15
100
AcDbLine
 10
67.1248352273
 20
36.2720054707
 30
0.0
 11
72.7816894768
 21
41.9288597202
 31
0.0
  0
LINE
  5
1F4
330
1F
100
AcDbEntity
  8
0
  6
Continuous
 62
     7
370
    15
100
AcDbLine
 10
62.8821945402
 20
40.5146461578
 30
0.0
 11
67.1248352273
 21
36.2720054707
 31
0.0
  0
LINE
  5
1F5
330
1F
100
AcDbEntity
  8
0
  6
Continuous
 62
     7
370
    15
100
AcDbLine
 10
61.4679809778
 20
39.1004325955
 30
0.0
 11
62.8821945402
 21
40.5146461578
 31
0.0
  0
LINE
  5
1F6
330
1F
100
AcDbEntity
  8
0
  6
Continuous
 62
     7
370
    15
100
AcDbLine
 10
59.4880819905
 20
41.0803315828
 30
0.0
 11
61.4679809778
 21
39.1004325955
 31
0.0
  0
LINE
  5
1F7
330
1F
100
AcDbEntity
  8
0
  6
Continuous
 62
     7
370
    15
100
AcDbLine
 10
60.5487421623
 20
42.1409917546
 30
0.0
 11
59.4880819905
 21
41.0803315828
 31
0.0
  0
LINE
  5
1F8
330
1F
100
AcDbEntity
  8
0
  6
Continuous
 62
     7
370
    15
100
AcDbLine
 10
58.2860004625
 20
44.4037334544
 30
0.0
 11
60.5487421623
 21
42.1409917546
 31
0.0
  0
LINE
  5
1F9
330
1F
100
AcDbEntity
  8
0
  6
Continuous
 62
     7
370
    15
100
AcDbLine
 10
57.2253402907
 20
43.3430732826
 30
0.0
 11
58.2860004625
 21
44.4037334544
 31
0.0
  0
LINE
  5
1FA
330
1F
100
AcDbEntity
  8
0
  6
Continuous
 62
     7
370
    15
100
AcDbLine
 10
50.1542724788
 20
50.4141410944
 30
0.0
 11
57.2253402907
 21
43.3430732826
 31
0.0
  0
LINE
  5
1FB
330
1F
100
AcDbEntity
  8
0
  6
Continuous
 62
     7
370
    15
100
AcDbLine
 10
47.3258453541
 20
47.5857139697
 30
0.0
 11
50.1542724788
 21
50.4141410944
 31
0.0
  0
LINE
  5
1FC
330
1F
100
AcDbEntity
  8
0
  6
Continuous
 62
     7
370
    15
100
AcDbLine
 10
54.396913166
 20
40.5146461578
 30
0.0
 11
47.3258453541
 21
47.5857139697
 31
0.0
  0
LINE
  5
1FD
330
1F
100
AcDbEntity
  8
0
  6
Continuous
 62
     7
370
    15
100
AcDbLine
 10
53.3362529942
 20
39.4539859861
 30
0.0
 11
54.396913166
 21
40.5146461578
 31
0.0
  0
LINE
  5
1FE
330
1F
100
AcDbEntity
  8
0
  6
Continuous
 62
     7
370
    15
100
AcDbLine
 10
55.598994694
 20
37.1912442863
 30
0.0
 11
53.3362529942
 21
39.4539859861
 31
0.0
  0
LINE
  5
1FF
330
1F
100
AcDbEntity
  8
0
  6
Continuous
 62
     7
370
    15
100
AcDbLine
 10
56.6596548658
 20
38.251904458
 30
0.0
 11
55.598994694
 21
37.1912442863
 31
0.0
  0
LINE
  5
200
330
1F
100
AcDbEntity
  8
0
  6
Continuous
 62
     7
370
    15
100
AcDbLine
 10
58.6395538531
 20
36.2720054707
 30
0.0
 11
56.6596548658
 21
38.251904458
 31
0.0
  0
LINE
  5
201
330
1F
100
AcDbEntity
  8
0
  6
Continuous
 62
     7
370
    15
100
AcDbLine
 10
57.2253402907
 20
34.8577919083
 30
0.0
 11
58.6395538531
 21
36.2720054707
 31
0.0
  0
LINE
  5
202
330
1F
100
AcDbEntity
  8
0
  6
Continuous
 62
     7
370
    15
100
AcDbLine
 10
61.4679809778
 20
30.6151512212
 30
0.0
 11
57.2253402907
 21
34.8577919083
 31
0.0
  0
LINE
  5
203
330
1F
100
AcDbEntity
  8
0
  6
Continuous
 62
     7
370
    15
100
AcDbLine
 10
55.8111267283
 20
24.9582969717
 30
0.0
 11
61.4679809778
 21
30.6151512212
 31
0.0
  0
LINE
  5
204
330
1F
100
AcDbEntity
  8
0
  6
Continuous
 62
     7
370
    15
100
AcDbLine
 10
10.5562927324
 20
70.2131309677
 30
0.0
 11
55.8111267283
 21
24.9582969717
 31
0.0
  0
LINE
  5
205
330
1F
100
AcDbEntity
  8
0
  6
Continuous
 62
     7
370
    15
100
AcDbLine
 10
16.2131469819
 20
75.8699852172
 30
0.0
 11
10.5562927324
 21
70.2131309677
 31
0.0
  0
LINE
  5
206
330
1F
100
AcDbEntity
  8
0
  6
Continuous
 62
     7
370
    15
100
AcDbLine
 10
20.455787669
 20
71.62734453
 30
0.0
 11
16.2131469819
 21
75.8699852172
 31
0.0
  0
LINE
  5
207
330
1F
100
AcDbEntity
  8
0
  6
Continuous
 62
     7
370
    15
100
AcDbLine
 10
21.8700012314
 20
73.0415580924
 30
0.0
 11
20.455787669
 21
71.62734453
 31
0.0
  0
LINE
  5
208
330
1F
100
AcDbEntity
  8
0
  6
Continuous
 62
     7
370
    15
100
AcDbLine
 10
23.8499002187
 20
71.0616591051
 30
0.0
 11
21.8700012314
 21
73.0415580924
 31
0.0
  0
LINE
  5
209
330
1F
100
AcDbEntity
  8
0
  6
Continuous
 62
     7
370
    15
100
AcDbLine
 10
22.7892400469
 20
70.0009989333
 30
0.0
 11
23.8499002187
 21
71.0616591051
 31
0.0
  0
LINE
  5
20A
330
1F
100
AcDbEntity
  8
0
  6
Continuous
 62
     7
370
    15
100
AcDbLine
 10
25.0519817467
 20
67.7382572335
 30
0.0
 11
22.7892400469
 21
70.0009989333
 31
0.0
  0
LINE
  5
20B
330
1F
100
AcDbEntity
  8
0
  6
Continuous
 62
     7
370
    15
100
AcDbLine
 10
26.1126419185
 20
68.7989174053
 30
0.0
 11
25.0519817467
 21
67.7382572335
 31
0.0
  0
LINE
  5
20C
330
1F
100
AcDbEntity
  8
0
  6
Continuous
 62
     7
370
    15
100
AcDbLine
 10
33.1837097304
 20
61.7278495934
 30
0.0
 11
26.1126419185
 21
68.7989174053
 31
0.0
  0
LINE
  5
20D
330
1F
100
AcDbEntity
  8
0
  6
Continuous
 62
     7
370
    15
100
AcDbLine
 10
36.0121368551
 20
64.5562767182
 30
0.0
 11
33.1837097304
 21
61.7278495934
 31
0.0
  0
LINE
  5
20E
330
1F
100
AcDbEntity
  8
0
  6
Continuous
 62
     7
370
    15
100
AcDbLine
 10
28.9410690432
 20
71.62734453
 30
0.0
 11
36.0121368551
 21
64.5562767182
 31
0.0
  0
LINE
  5
20F
330
1F
100
AcDbEntity
  8
0
  6
Continuous
 62
     7
370
    15
100
AcDbLine
 10
30.001729215
 20
72.6880047018
 30
0.0
 11
28.9410690432
 21
71.62734453
 31
0.0
  0
LINE
  5
210
330
1F
100
AcDbEntity
  8
0
  6
Continuous
 62
     7
370
    15
100
AcDbLine
 10
27.7389875152
 20
74.9507464016
 30
0.0
 11
30.001729215
 21
72.6880047018
 31
0.0
  0
LINE
  5
211
330
1F
100
AcDbEntity
  8
0
  6
Continuous
 62
     7
370
    15
100
AcDbLine
 10
26.6783273434
 20
73.8900862298
 30
0.0
 11
27.7389875152
 21
74.9507464016
 31
0.0
  0
LINE
  5
212
330
1F
100
AcDbEntity
  8
0
  6
Continuous
 62
     7
370
    15
100
AcDbLine
 10
24.6984283561
 20
75.8699852172
 30
0.0
 11
26.6783273434
 21
73.8900862298
 31
0.0
  0
LINE
  5
213
330
1F
100
AcDbEntity
  8
0
  6
Continuous
 62
     7
370
    15
100
AcDbLine
 10
26.1126419185
 20
77.2841987795
 30
0.0
 11
24.6984283561
 21
75.8699852172
 31
0.0
  0
LINE
  5
214
330
1F
100
AcDbEntity
  8
0
  6
Continuous
 62
     7
370
    15
100
AcDbLine
 10
21.8700012314
 20
81.5268394667
 30
0.0
 11
26.1126419185
 21
77.2841987795
 31
0.0
  0
LINE
  5
215
330
1F
100
AcDbEntity
  8
0
  6
Continuous
 62
     7
370
    15
100
AcDbLine
 10
27.5268554809
 20
87.1836937161
 30
0.0
 11
21.8700012314
 21
81.5268394667
 31
0.0
  0
LINE
  5
216
330
1F
100
AcDbEntity
  8
0
  6
Continuous
 62
     7
370
    15
100
AcDbLine
 10
72.7816894768
 20
41.9288597202
 30
0.0
 11
27.5268554809
 21
87.1836937161
 31
0.0
  0
CIRCLE
  5
217
330
1F
100
AcDbEntity
  8
0
  6
Continuous
 62
     7
370
    15
100
AcDbCircle
 10
229.9264447126
 20
277.029111209
 30
0.0
 40
1.5
  0
CIRCLE
  5
218
330
1F
100
AcDbEntity
  8
0
  6
Continuous
 62
     7
370
    15
100
AcDbCircle
 10
253.1764447126
 20
290.4525049677
 30
0.0
 40
1.5
  0
CIRCLE
  5
219
330
1F
100
AcDbEntity
  8
0
  6
Continuous
 62
     7
370
    15
100
AcDbCircle
 10
229.9264447126
 20
303.8758987264
 30
0.0
 40
1.5
  0
CIRCLE
  5
21A
330
1F
100
AcDbEntity
  8
0
  6
Continuous
 62
     7
370
    15
100
AcDbCircle
 10
222.1764447126
 20
290.4525049677
 30
0.0
 40
1.5
  0
LINE
  5
21B
330
1F
100
AcDbEntity
  8
0
  6
Continuous
 62
     7
370
    15
100
AcDbLine
 10
225.6764446083
 20
328.4525032988
 30
0.0
 11
217.6764451596
 21
328.4525032988
 31
0.0
  0
LINE
  5
21C
330
1F
100
AcDbEntity
  8
0
  6
Continuous
 62
     7
370
    15
100
AcDbLine
 10
225.6764446083
 20
322.4525060406
 30
0.0
 11
225.6764446083
 21
328.4525032988
 31
0.0
  0
LINE
  5
21D
330
1F
100
AcDbEntity
  8
0
  6
Continuous
 62
     7
370
    15
100
AcDbLine
 10
233.6764445226
 20
322.4525060406
 30
0.0
 11
225.6764446083
 21
322.4525060406
 31
0.0
  0
LINE
  5
21E
330
1F
100
AcDbEntity
  8
0
  6
Continuous
 62
     7
370
    15
100
AcDbLine
 10
233.6764445226
 20
328.4525032988
 30
0.0
 11
233.6764445226
 21
322.4525060406
 31
0.0
  0
LINE
  5
21F
330
1F
100
AcDbEntity
  8
0
  6
Continuous
 62
     7
370
    15
100
AcDbLine
 10
241.6764449026
 20
328.4525032988
 30
0.0
 11
233.6764445226
 21
328.4525032988
 31
0.0
  0
LINE
  5
220
330
1F
100
AcDbEntity
  8
0
  6
Continuous
 62
     7
370
    15
100
AcDbLine
 10
241.6764449026
 20
322.4525060406
 30
0.0
 11
241.6764449026
 21
328.4525032988
 31
0.0
  0
LINE
  5
221
330
1F
100
AcDbEntity
  8
0
  6
Continuous
 62
     7
370
    15
100
AcDbLine
 10
249.6764448169
 20
322.4525060406
 30
0.0
 11
241.6764449026
 21
322.4525060406
 31
0.0
  0
LINE
  5
222
330
1F
100
AcDbEntity
  8
0
  6
Continuous
 62
     7
370
    15
100
AcDbLine
 10
249.6764448169
 20
328.4525032988
 30
0.0
 11
249.6764448169
 21
322.4525060406
 31
0.0
  0
LINE
  5
223
330
1F
100
AcDbEntity
  8
0
  6
Continuous
 62
     7
370
    15
100
AcDbLine
 10
257.6764442656
 20
328.4525032988
 30
0.0
 11
249.6764448169
 21
328.4525032988
 31
0.0
  0
LINE
  5
224
330
1F
100
AcDbEntity
  8
0
  6
Continuous
 62
     7
370
    15
100
AcDbLine
 10
257.6764442656
 20
264.4525049155
 30
0.0
 11
257.6764442656
 21
328.4525032988
 31
0.0
  0
LINE
  5
225
330
1F
100
AcDbEntity
  8
0
  6
Continuous
 62
     7
370
    15
100
AcDbLine
 10
249.6764448169
 20
264.4525049155
 30
0.0
 11
257.6764442656
 21
264.4525049155
 31
0.0
  0
LINE
  5
226
330
1F
100
AcDbEntity
  8
0
  6
Continuous
 62
     7
370
    15
100
AcDbLine
 10
249.6764448169
 20
270.4525049677
 30
0.0
 11
249.6764448169
 21
264.4525049155
 31
0.0
  0
LINE
  5
227
330
1F
100
AcDbEntity
  8
0
  6
Continuous
 62
     7
370
    15
100
AcDbLine
 10
241.6764449026
 20
270.4525049677
 30
0.0
 11
249.6764448169
 21
270.4525049677
 31
0.0
  0
LINE
  5
228
330
1F
100
AcDbEntity
  8
0
  6
Continuous
 62
     7
370
    15
100
AcDbLine
 10
241.6764449026
 20
264.4525049155
 30
0.0
 11
241.6764449026
 21
270.4525049677
 31
0.0
  0
LINE
  5
229
330
1F
100
AcDbEntity
  8
0
  6
Continuous
 62
     7
370
    15
100
AcDbLine
 10
233.6764445226
 20
264.4525049155
 30
0.0
 11
241.6764449026
 21
264.4525049155
 31
0.0
  0
LINE
  5
22A
330
1F
100
AcDbEntity
  8
0
  6
Continuous
 62
     7
370
    15
100
AcDbLine
 10
233.6764445226
 20
270.4525049677
 30
0.0
 11
233.6764445226
 21
264.4525049155
 31
0.0
  0
LINE
  5
22B
330
1F
100
AcDbEntity
  8
0
  6
Continuous
 62
     7
370
    15
100
AcDbLine
 10
225.6764446083
 20
270.4525049677
 30
0.0
 11
233.6764445226
 21
270.4525049677
 31
0.0
  0
LINE
  5
22C
330
1F
100
AcDbEntity
  8
0
  6
Continuous
 62
     7
370
    15
100
AcDbLine
 10
225.6764446083
 20
264.4525049155
 30
0.0
 11
225.6764446083
 21
270.4525049677
 31
0.0
  0
LINE
  5
22D
330
1F
100
AcDbEntity
  8
0
  6
Continuous
 62
     7
370
    15
100
AcDbLine
 10
217.6764451596
 20
264.4525049155
 30
0.0
 11
225.6764446083
 21
264.4525049155
 31
0.0
  0
LINE
  5
22E
330
1F
100
AcDbEntity
  8
0
  6
Continuous
 62
     7
370
    15
100
AcDbLine
 10
217.6764451596
 20
328.4525032988
 30
0.0
 11
217.6764451596
 21
264.4525049155
 31
0.0
  0
LINE
  5
22F
330
1F
100
AcDbEntity
  8
0
  6
Continuous
 62
     7
370
    15
100
AcDbLine
 10
231.6264447454
 20
297.452505668
 30
0.0
 11
231.6264447454
 21
283.4525052359
 31
0.0
  0
ARC
  5
230
330
1F
100
AcDbEntity
  8
0
  6
Continuous
 62
     7
370
    15
100
AcDbCircle
 10
237.6764447126
 20
283.4525049677
 30
0.0
 40
6.050000000000011
100
AcDbArc
 50
180.0
 51
0.0
  0
LINE
  5
231
330
1F
100
AcDbEntity
  8
0
  6
Continuous
 62
     7
370
    15
100
AcDbLine
 10
243.7264446798
 20
283.4525052359
 30
0.0
 11
243.7264446798
 21
297.452505668
 31
0.0
  0
ARC
  5
232
330
1F
100
AcDbEntity
  8
0
  6
Continuous
 62
     7
370
    15
100
AcDbCircle
 10
237.6764447126
 20
297.4525049677
 30
0.0
 40
6.050000000000011
100
AcDbArc
 50
0.0
 51
180.0
  0
CIRCLE
  5
233
330
1F
100
AcDbEntity
  8
0
  6
Continuous
 62
     7
370
    15
100
AcDbCircle
 10
245.4264447126
 20
303.8758987264
 30
0.0
 40
1.5
  0
CIRCLE
  5
234
330
1F
100
AcDbEntity
  8
0
  6
Continuous
 62
     7
370
    15
100
AcDbCircle
 10
245.4264447126
 20
277.029111209
 30
0.0
 40
1.5
  0
LINE
  5
235
330
1F
100
AcDbEntity
  8
0
  6
Continuous
 62
     7
370
    15
100
AcDbLine
 10
135.411046453
 20
26.0411329803
 30
0.0
 11
135.411046453
 21
34.0411333603
 31
0.0
  0
LINE
  5
236
330
1F
100
AcDbEntity
  8
0
  6
Continuous
 62
     7
370
    15
100
AcDbLine
 10
129.4110417442
 20
26.0411329803
 30
0.0
 11
135.411046453
 21
26.0411329803
 31
0.0
  0
LINE
  5
237
330
1F
100
AcDbEntity
  8
0
  6
Continuous
 62
     7
370
    15
100
AcDbLine
 10
129.4110417442
 20
24.0411335838
 30
0.0
 11
129.4110417442
 21
26.0411329803
 31
0.0
  0
LINE
  5
238
330
1F
100
AcDbEntity
  8
0
  6
Continuous
 62
     7
370
    15
100
AcDbLine
 10
126.6110427753
 20
24.0411335838
 30
0.0
 11
129.4110417442
 21
24.0411335838
 31
0.0
  0
LINE
  5
239
330
1F
100
AcDbEntity
  8
0
  6
Continuous
 62
     7
370
    15
100
AcDbLine
 10
126.6110427753
 20
25.5411328984
 30
0.0
 11
126.6110427753
 21
24.0411335838
 31
0.0
  0
LINE
  5
23A
330
1F
100
AcDbEntity
  8
0
  6
Continuous
 62
     7
370
    15
100
AcDbLine
 10
123.411044486
 20
25.5411328984
 30
0.0
 11
126.6110427753
 21
25.5411328984
 31
0.0
  0
LINE
  5
23B
330
1F
100
AcDbEntity
  8
0
  6
Continuous
 62
     7
370
    15
100
AcDbLine
 10
123.411044486
 20
24.0411335838
 30
0.0
 11
123.411044486
 21
25.5411328984
 31
0.0
  0
LINE
  5
23C
330
1F
100
AcDbEntity
  8
0
  6
Continuous
 62
     7
370
    15
100
AcDbLine
 10
113.4110428469
 20
24.0411335838
 30
0.0
 11
123.411044486
 21
24.0411335838
 31
0.0
  0
LINE
  5
23D
330
1F
100
AcDbEntity
  8
0
  6
Continuous
 62
     7
370
    15
100
AcDbLine
 10
113.4110428469
 20
20.0411329282
 30
0.0
 11
113.4110428469
 21
24.0411335838
 31
0.0
  0
LINE
  5
23E
330
1F
100
AcDbEntity
  8
0
  6
Continuous
 62
     7
370
    15
100
AcDbLine
 10
123.411044486
 20
20.0411329282
 30
0.0
 11
113.4110428469
 21
20.0411329282
 31
0.0
  0
LINE
  5
23F
330
1F
100
AcDbEntity
  8
0
  6
Continuous
 62
     7
370
    15
100
AcDbLine
 10
123.411044486
 20
18.5411336136
 30
0.0
 11
123.411044486
 21
20.0411329282
 31
0.0
  0
LINE
  5
240
330
1F
100
AcDbEntity
  8
0
  6
Continuous
 62
     7
370
    15
100
AcDbLine
 10
126.6110427753
 20
18.5411336136
 30
0.0
 11
123.411044486
 21
18.5411336136
 31
0.0
  0
LINE
  5
241
330
1F
100
AcDbEntity
  8
0
  6
Continuous
 62
     7
370
    15
100
AcDbLine
 10
126.6110427753
 20
20.0411329282
 30
0.0
 11
126.6110427753
 21
18.5411336136
 31
0.0
  0
LINE
  5
242
330
1F
100
AcDbEntity
  8
0
  6
Continuous
 62
     7
370
    15
100
AcDbLine
 10
129.4110417442
 20
20.0411329282
 30
0.0
 11
126.6110427753
 21
20.0411329282
 31
0.0
  0
LINE
  5
243
330
1F
100
AcDbEntity
  8
0
  6
Continuous
 62
     7
370
    15
100
AcDbLine
 10
129.4110417442
 20
18.0411326003
 30
0.0
 11
129.4110417442
 21
20.0411329282
 31
0.0
  0
LINE
  5
244
330
1F
100
AcDbEntity
  8
0
  6
Continuous
 62
     7
370
    15
100
AcDbLine
 10
135.411046453
 20
18.0411326003
 30
0.0
 11
129.4110417442
 21
18.0411326003
 31
0.0
  0
LINE
  5
245
330
1F
100
AcDbEntity
  8
0
  6
Continuous
 62
     7
370
    15
100
AcDbLine
 10
135.411046453
 20
10.0411331517
 30
0.0
 11
135.411046453
 21
18.0411326003
 31
0.0
  0
LINE
  5
246
330
1F
100
AcDbEntity
  8
0
  6
Continuous
 62
     7
370
    15
100
AcDbLine
 10
71.4110434131
 20
10.0411331517
 30
0.0
 11
135.411046453
 21
10.0411331517
 31
0.0
  0
LINE
  5
247
330
1F
100
AcDbEntity
  8
0
  6
Continuous
 62
     7
370
    15
100
AcDbLine
 10
71.4110434131
 20
18.0411326003
 30
0.0
 11
71.4110434131
 21
10.0411331517
 31
0.0
  0
LINE
  5
248
330
1F
100
AcDbEntity
  8
0
  6
Continuous
 62
     7
370
    15
100
AcDbLine
 10
77.4110434653
 20
18.0411326003
 30
0.0
 11
71.4110434131
 21
18.0411326003
 31
0.0
  0
LINE
  5
249
330
1F
100
AcDbEntity
  8
0
  6
Continuous
 62
     7
370
    15
100
AcDbLine
 10
77.4110434653
 20
20.0411329282
 30
0.0
 11
77.4110434653
 21
18.0411326003
 31
0.0
  0
LINE
  5
24A
330
1F
100
AcDbEntity
  8
0
  6
Continuous
 62
     7
370
    15
100
AcDbLine
 10
80.2110433654
 20
20.0411329282
 30
0.0
 11
77.4110434653
 21
20.0411329282
 31
0.0
  0
LINE
  5
24B
330
1F
100
AcDbEntity
  8
0
  6
Continuous
 62
     7
370
    15
100
AcDbLine
 10
80.2110433654
 20
18.5411336136
 30
0.0
 11
80.2110433654
 21
20.0411329282
 31
0.0
  0
LINE
  5
24C
330
1F
100
AcDbEntity
  8
0
  6
Continuous
 62
     7
370
    15
100
AcDbLine
 10
83.4110435174
 20
18.5411336136
 30
0.0
 11
80.2110433654
 21
18.5411336136
 31
0.0
  0
LINE
  5
24D
330
1F
100
AcDbEntity
  8
0
  6
Continuous
 62
     7
370
    15
100
AcDbLine
 10
83.4110435174
 20
20.0411329282
 30
0.0
 11
83.4110435174
 21
18.5411336136
 31
0.0
  0
LINE
  5
24E
330
1F
100
AcDbEntity
  8
0
  6
Continuous
 62
     7
370
    15
100
AcDbLine
 10
93.4110432939
 20
20.0411329282
 30
0.0
 11
83.4110435174
 21
20.0411329282
 31
0.0
  0
LINE
  5
24F
330
1F
100
AcDbEntity
  8
0
  6
Continuous
 62
     7
370
    15
100
AcDbLine
 10
93.4110432939
 20
24.0411335838
 30
0.0
 11
93.4110432939
 21
20.0411329282
 31
0.0
  0
LINE
  5
250
330
1F
100
AcDbEntity
  8
0
  6
Continuous
 62
     7
370
    15
100
AcDbLine
 10
83.4110435174
 20
24.0411335838
 30
0.0
 11
93.4110432939
 21
24.0411335838
 31
0.0
  0
LINE
  5
251
330
1F
100
AcDbEntity
  8
0
  6
Continuous
 62
     7
370
    15
100
AcDbLine
 10
83.4110435174
 20
25.5411328984
 30
0.0
 11
83.4110435174
 21
24.0411335838
 31
0.0
  0
LINE
  5
252
330
1F
100
AcDbEntity
  8
0
  6
Continuous
 62
     7
370
    15
100
AcDbLine
 10
80.2110433654
 20
25.5411328984
 30
0.0
 11
83.4110435174
 21
25.5411328984
 31
0.0
  0
LINE
  5
253
330
1F
100
AcDbEntity
  8
0
  6
Continuous
 62
     7
370
    15
100
AcDbLine
 10
80.2110433654
 20
24.0411335838
 30
0.0
 11
80.2110433654
 21
25.5411328984
 31
0.0
  0
LINE
  5
254
330
1F
100
AcDbEntity
  8
0
  6
Continuous
 62
     7
370
    15
100
AcDbLine
 10
77.4110434653
 20
24.0411335838
 30
0.0
 11
80.2110433654
 21
24.0411335838
 31
0.0
  0
LINE
  5
255
330
1F
100
AcDbEntity
  8
0
  6
Continuous
 62
     7
370
    15
100
AcDbLine
 10
77.4110434653
 20
26.0411329803
 30
0.0
 11
77.4110434653
 21
24.0411335838
 31
0.0
  0
LINE
  5
256
330
1F
100
AcDbEntity
  8
0
  6
Continuous
 62
     7
370
    15
100
AcDbLine
 10
71.4110434131
 20
26.0411329803
 30
0.0
 11
77.4110434653
 21
26.0411329803
 31
0.0
  0
LINE
  5
257
330
1F
100
AcDbEntity
  8
0
  6
Continuous
 62
     7
370
    15
100
AcDbLine
 10
71.4110434131
 20
34.0411333603
 30
0.0
 11
71.4110434131
 21
26.0411329803
 31
0.0
  0
LINE
  5
258
330
1F
100
AcDbEntity
  8
0
  6
Continuous
 62
     7
370
    15
100
AcDbLine
 10
135.411046453
 20
34.0411333603
 30
0.0
 11
71.4110434131
 21
34.0411333603
 31
0.0
  0
LINE
  5
259
330
1F
100
AcDbEntity
  8
0
  6
Continuous
 62
     7
370
    15
100
AcDbLine
 10
202.0871139324
 20
26.1171908289
 30
0.0
 11
202.0871139324
 21
34.1171912089
 31
0.0
  0
LINE
  5
25A
330
1F
100
AcDbEntity
  8
0
  6
Continuous
 62
     7
370
    15
100
AcDbLine
 10
196.0871092236
 20
26.1171908289
 30
0.0
 11
202.0871139324
 21
26.1171908289
 31
0.0
  0
LINE
  5
25B
330
1F
100
AcDbEntity
  8
0
  6
Continuous
 62
     7
370
    15
100
AcDbLine
 10
196.0871092236
 20
24.1171914324
 30
0.0
 11
196.0871092236
 21
26.1171908289
 31
0.0
  0
LINE
  5
25C
330
1F
100
AcDbEntity
  8
0
  6
Continuous
 62
     7
370
    15
100
AcDbLine
 10
193.2871102548
 20
24.1171914324
 30
0.0
 11
196.0871092236
 21
24.1171914324
 31
0.0
  0
LINE
  5
25D
330
1F
100
AcDbEntity
  8
0
  6
Continuous
 62
     7
370
    15
100
AcDbLine
 10
193.2871102548
 20
25.617190747
 30
0.0
 11
193.2871102548
 21
24.1171914324
 31
0.0
  0
LINE
  5
25E
330
1F
100
AcDbEntity
  8
0
  6
Continuous
 62
     7
370
    15
100
AcDbLine
 10
190.0871119655
 20
25.617190747
 30
0.0
 11
193.2871102548
 21
25.617190747
 31
0.0
  0
LINE
  5
25F
330
1F
100
AcDbEntity
  8
0
  6
Continuous
 62
     7
370
    15
100
AcDbLine
 10
190.0871119655
 20
24.1171914324
 30
0.0
 11
190.0871119655
 21
25.617190747
 31
0.0
  0
LINE
  5
260
330
1F
100
AcDbEntity
  8
0
  6
Continuous
 62
     7
370
    15
100
AcDbLine
 10
180.0871103263
 20
24.1171914324
 30
0.0
 11
190.0871119655
 21
24.1171914324
 31
0.0
  0
LINE
  5
261
330
1F
100
AcDbEntity
  8
0
  6
Continuous
 62
     7
370
    15
100
AcDbLine
 10
180.0871103263
 20
20.1171907768
 30
0.0
 11
180.0871103263
 21
24.1171914324
 31
0.0
  0
LINE
  5
262
330
1F
100
AcDbEntity
  8
0
  6
Continuous
 62
     7
370
    15
100
AcDbLine
 10
190.0871119655
 20
20.1171907768
 30
0.0
 11
180.0871103263
 21
20.1171907768
 31
0.0
  0
LINE
  5
263
330
1F
100
AcDbEntity
  8
0
  6
Continuous
 62
     7
370
    15
100
AcDbLine
 10
190.0871119655
 20
18.6171914622
 30
0.0
 11
190.0871119655
 21
20.1171907768
 31
0.0
  0
LINE
  5
264
330
1F
100
AcDbEntity
  8
0
  6
Continuous
 62
     7
370
    15
100
AcDbLine
 10
193.2871102548
 20
18.6171914622
 30
0.0
 11
190.0871119655
 21
18.6171914622
 31
0.0
  0
LINE
  5
265
330
1F
100
AcDbEntity
  8
0
  6
Continuous
 62
     7
370
    15
100
AcDbLine
 10
193.2871102548
 20
20.1171907768
 30
0.0
 11
193.2871102548
 21
18.6171914622
 31
0.0
  0
LINE
  5
266
330
1F
100
AcDbEntity
  8
0
  6
Continuous
 62
     7
370
    15
100
AcDbLine
 10
196.0871092236
 20
20.1171907768
 30
0.0
 11
193.2871102548
 21
20.1171907768
 31
0.0
  0
LINE
  5
267
330
1F
100
AcDbEntity
  8
0
  6
Continuous
 62
     7
370
    15
100
AcDbLine
 10
196.0871092236
 20
18.1171904489
 30
0.0
 11
196.0871092236
 21
20.1171907768
 31
0.0
  0
LINE
  5
268
330
1F
100
AcDbEntity
  8
0
  6
Continuous
 62
     7
370
    15
100
AcDbLine
 10
202.0871139324
 20
18.1171904489
 30
0.0
 11
196.0871092236
 21
18.1171904489
 31
0.0
  0
LINE
  5
269
330
1F
100
AcDbEntity
  8
0
  6
Continuous
 62
     7
370
    15
100
AcDbLine
 10
202.0871139324
 20
10.1171910003
 30
0.0
 11
202.0871139324
 21
18.1171904489
 31
0.0
  0
LINE
  5
26A
330
1F
100
AcDbEntity
  8
0
  6
Continuous
 62
     7
370
    15
100
AcDbLine
 10
138.0871108926
 20
10.1171910003
 30
0.0
 11
202.0871139324
 21
10.1171910003
 31
0.0
  0
LINE
  5
26B
330
1F
100
AcDbEntity
  8
0
  6
Continuous
 62
     7
370
    15
100
AcDbLine
 10
138.0871108926
 20
18.1171904489
 30
0.0
 11
138.0871108926
 21
10.1171910003
 31
0.0
  0
LINE
  5
26C
330
1F
100
AcDbEntity
  8
0
  6
Continuous
 62
     7
370
    15
100
AcDbLine
 10
144.0871109447
 20
18.1171904489
 30
0.0
 11
138.0871108926
 21
18.1171904489
 31
0.0
  0
LINE
  5
26D
330
1F
100
AcDbEntity
  8
0
  6
Continuous
 62
     7
370
    15
100
AcDbLine
 10
144.0871109447
 20
20.1171907768
 30
0.0
 11
144.0871109447
 21
18.1171904489
 31
0.0
  0
LINE
  5
26E
330
1F
100
AcDbEntity
  8
0
  6
Continuous
 62
     7
370
    15
100
AcDbLine
 10
146.8871108449
 20
20.1171907768
 30
0.0
 11
144.0871109447
 21
20.1171907768
 31
0.0
  0
LINE
  5
26F
330
1F
100
AcDbEntity
  8
0
  6
Continuous
 62
     7
370
    15
100
AcDbLine
 10
146.8871108449
 20
18.6171914622
 30
0.0
 11
146.8871108449
 21
20.1171907768
 31
0.0
  0
LINE
  5
270
330
1F
100
AcDbEntity
  8
0
  6
Continuous
 62
     7
370
    15
100
AcDbLine
 10
150.0871109969
 20
18.6171914622
 30
0.0
 11
146.8871108449
 21
18.6171914622
 31
0.0
  0
LINE
  5
271
330
1F
100
AcDbEntity
  8
0
  6
Continuous
 62
     7
370
    15
100
AcDbLine
 10
150.0871109969
 20
20.1171907768
 30
0.0
 11
150.0871109969
 21
18.6171914622
 31
0.0
  0
LINE
  5
272
330
1F
100
AcDbEntity
  8
0
  6
Continuous
 62
     7
370
    15
100
AcDbLine
 10
160.0871107734
 20
20.1171907768
 30
0.0
 11
150.0871109969
 21
20.1171907768
 31
0.0
  0
LINE
  5
273
330
1F
100
AcDbEntity
  8
0
  6
Continuous
 62
     7
370
    15
100
AcDbLine
 10
160.0871107734
 20
24.1171914324
 30
0.0
 11
160.0871107734
 21
20.1171907768
 31
0.0
  0
LINE
  5
274
330
1F
100
AcDbEntity
  8
0
  6
Continuous
 62
     7
370
    15
100
AcDbLine
 10
150.0871109969
 20
24.1171914324
 30
0.0
 11
160.0871107734
 21
24.1171914324
 31
0.0
  0
LINE
  5
275
330
1F
100
AcDbEntity
  8
0
  6
Continuous
 62
     7
370
    15
100
AcDbLine
 10
150.0871109969
 20
25.617190747
 30
0.0
 11
150.0871109969
 21
24.1171914324
 31
0.0
  0
LINE
  5
276
330
1F
100
AcDbEntity
  8
0
  6
Continuous
 62
     7
370
    15
100
AcDbLine
 10
146.8871108449
 20
25.617190747
 30
0.0
 11
150.0871109969
 21
25.617190747
 31
0.0
  0
LINE
  5
277
330
1F
100
AcDbEntity
  8
0
  6
Continuous
 62
     7
370
    15
100
AcDbLine
 10
146.8871108449
 20
24.1171914324
 30
0.0
 11
146.8871108449
 21
25.617190747
 31
0.0
  0
LINE
  5
278
330
1F
100
AcDbEntity
  8
0
  6
Continuous
 62
     7
370
    15
100
AcDbLine
 10
144.0871109447
 20
24.1171914324
 30
0.0
 11
146.8871108449
 21
24.1171914324
 31
0.0
  0
LINE
  5
279
330
1F
100
AcDbEntity
  8
0
  6
Continuous
 62
     7
370
    15
100
AcDbLine
 10
144.0871109447
 20
26.1171908289
 30
0.0
 11
144.0871109447
 21
24.1171914324
 31
0.0
  0
LINE
  5
27A
330
1F
100
AcDbEntity
  8
0
  6
Continuous
 62
     7
370
    15
100
AcDbLine
 10
138.0871108926
 20
26.1171908289
 30
0.0
 11
144.0871109447
 21
26.1171908289
 31
0.0
  0
LINE
  5
27B
330
1F
100
AcDbEntity
  8
0
  6
Continuous
 62
     7
370
    15
100
AcDbLine
 10
138.0871108926
 20
34.1171912089
 30
0.0
 11
138.0871108926
 21
26.1171908289
 31
0.0
  0
LINE
  5
27C
330
1F
100
AcDbEntity
  8
0
  6
Continuous
 62
     7
370
    15
100
AcDbLine
 10
202.0871139324
 20
34.1171912089
 30
0.0
 11
138.0871108926
 21
34.1171912089
 31
0.0
  0
LINE
  5
27D
330
1F
100
AcDbEntity
  8
0
  6
Continuous
 62
     7
370
    15
100
AcDbLine
 10
250.1789826062
 20
83.0335869376
 30
0.0
 11
244.522128088
 21
88.6904414558
 31
0.0
  0
LINE
  5
27E
330
1F
100
AcDbEntity
  8
0
  6
Continuous
 62
     7
370
    15
100
AcDbLine
 10
245.9363385895
 20
78.7909429209
 30
0.0
 11
250.1789826062
 21
83.0335869376
 31
0.0
  0
LINE
  5
27F
330
1F
100
AcDbEntity
  8
0
  6
Continuous
 62
     7
370
    15
100
AcDbLine
 10
247.3505517251
 20
77.3767297853
 30
0.0
 11
245.9363385895
 21
78.7909429209
 31
0.0
  0
LINE
  5
280
330
1F
100
AcDbEntity
  8
0
  6
Continuous
 62
     7
370
    15
100
AcDbLine
 10
245.3706534669
 20
75.3968315271
 30
0.0
 11
247.3505517251
 21
77.3767297853
 31
0.0
  0
LINE
  5
281
330
1F
100
AcDbEntity
  8
0
  6
Continuous
 62
     7
370
    15
100
AcDbLine
 10
244.3099937799
 20
76.4574912142
 30
0.0
 11
245.3706534669
 21
75.3968315271
 31
0.0
  0
LINE
  5
282
330
1F
100
AcDbEntity
  8
0
  6
Continuous
 62
     7
370
    15
100
AcDbLine
 10
242.0472532897
 20
74.194750724
 30
0.0
 11
244.3099937799
 21
76.4574912142
 31
0.0
  0
LINE
  5
283
330
1F
100
AcDbEntity
  8
0
  6
Continuous
 62
     7
370
    15
100
AcDbLine
 10
243.1079129768
 20
73.1340910369
 30
0.0
 11
242.0472532897
 21
74.194750724
 31
0.0
  0
LINE
  5
284
330
1F
100
AcDbEntity
  8
0
  6
Continuous
 62
     7
370
    15
100
AcDbLine
 10
236.0368440059
 20
66.063022066
 30
0.0
 11
243.1079129768
 21
73.1340910369
 31
0.0
  0
LINE
  5
285
330
1F
100
AcDbEntity
  8
0
  6
Continuous
 62
     7
370
    15
100
AcDbLine
 10
238.8652715942
 20
63.2345944777
 30
0.0
 11
236.0368440059
 21
66.063022066
 31
0.0
  0
LINE
  5
286
330
1F
100
AcDbEntity
  8
0
  6
Continuous
 62
     7
370
    15
100
AcDbLine
 10
245.9363405651
 20
70.3056634486
 30
0.0
 11
238.8652715942
 21
63.2345944777
 31
0.0
  0
LINE
  5
287
330
1F
100
AcDbEntity
  8
0
  6
Continuous
 62
     7
370
    15
100
AcDbLine
 10
246.9970002522
 20
69.2450037615
 30
0.0
 11
245.9363405651
 21
70.3056634486
 31
0.0
  0
LINE
  5
288
330
1F
100
AcDbEntity
  8
0
  6
Continuous
 62
     7
370
    15
100
AcDbLine
 10
249.2597407424
 20
71.5077442516
 30
0.0
 11
246.9970002522
 21
69.2450037615
 31
0.0
  0
LINE
  5
289
330
1F
100
AcDbEntity
  8
0
  6
Continuous
 62
     7
370
    15
100
AcDbLine
 10
248.1990810553
 20
72.5684039387
 30
0.0
 11
249.2597407424
 21
71.5077442516
 31
0.0
  0
LINE
  5
28A
330
1F
100
AcDbEntity
  8
0
  6
Continuous
 62
     7
370
    15
100
AcDbLine
 10
250.1789793135
 20
74.5483021969
 30
0.0
 11
248.1990810553
 21
72.5684039387
 31
0.0
  0
LINE
  5
28B
330
1F
100
AcDbEntity
  8
0
  6
Continuous
 62
     7
370
    15
100
AcDbLine
 10
251.5931931077
 20
73.1340884027
 30
0.0
 11
250.1789793135
 21
74.5483021969
 31
0.0
  0
LINE
  5
28C
330
1F
100
AcDbEntity
  8
0
  6
Continuous
 62
     7
370
    15
100
AcDbLine
 10
255.8358371244
 20
77.3767324195
 30
0.0
 11
251.5931931077
 21
73.1340884027
 31
0.0
  0
LINE
  5
28D
330
1F
100
AcDbEntity
  8
0
  6
Continuous
 62
     7
370
    15
100
AcDbLine
 10
261.492690984
 20
71.7198785598
 30
0.0
 11
255.8358371244
 21
77.3767324195
 31
0.0
  0
LINE
  5
28E
330
1F
100
AcDbEntity
  8
0
  6
Continuous
 62
     7
370
    15
100
AcDbLine
 10
216.2378548386
 20
26.4650424144
 30
0.0
 11
261.492690984
 21
71.7198785598
 31
0.0
  0
LINE
  5
28F
330
1F
100
AcDbEntity
  8
0
  6
Continuous
 62
     7
370
    15
100
AcDbLine
 10
210.581000979
 20
32.121896274
 30
0.0
 11
216.2378548386
 21
26.4650424144
 31
0.0
  0
LINE
  5
290
330
1F
100
AcDbEntity
  8
0
  6
Continuous
 62
     7
370
    15
100
AcDbLine
 10
214.823641703
 20
36.364536998
 30
0.0
 11
210.581000979
 21
32.121896274
 31
0.0
  0
LINE
  5
291
330
1F
100
AcDbEntity
  8
0
  6
Continuous
 62
     7
370
    15
100
AcDbLine
 10
213.4094279088
 20
37.7787507922
 30
0.0
 11
214.823641703
 21
36.364536998
 31
0.0
  0
LINE
  5
292
330
1F
100
AcDbEntity
  8
0
  6
Continuous
 62
     7
370
    15
100
AcDbLine
 10
215.3893268255
 20
39.7586497089
 30
0.0
 11
213.4094279088
 21
37.7787507922
 31
0.0
  0
LINE
  5
293
330
1F
100
AcDbEntity
  8
0
  6
Continuous
 62
     7
370
    15
100
AcDbLine
 10
216.4499865126
 20
38.6979900218
 30
0.0
 11
215.3893268255
 21
39.7586497089
 31
0.0
  0
LINE
  5
294
330
1F
100
AcDbEntity
  8
0
  6
Continuous
 62
     7
370
    15
100
AcDbLine
 10
218.7127283199
 20
40.9607318291
 30
0.0
 11
216.4499865126
 21
38.6979900218
 31
0.0
  0
LINE
  5
295
330
1F
100
AcDbEntity
  8
0
  6
Continuous
 62
     7
370
    15
100
AcDbLine
 10
217.6520686328
 20
42.0213915162
 30
0.0
 11
218.7127283199
 21
40.9607318291
 31
0.0
  0
LINE
  5
296
330
1F
100
AcDbEntity
  8
0
  6
Continuous
 62
     7
370
    15
100
AcDbLine
 10
224.7231362866
 20
49.09245917
 30
0.0
 11
217.6520686328
 21
42.0213915162
 31
0.0
  0
LINE
  5
297
330
1F
100
AcDbEntity
  8
0
  6
Continuous
 62
     7
370
    15
100
AcDbLine
 10
221.8947086982
 20
51.9208867584
 30
0.0
 11
224.7231362866
 21
49.09245917
 31
0.0
  0
LINE
  5
298
330
1F
100
AcDbEntity
  8
0
  6
Continuous
 62
     7
370
    15
100
AcDbLine
 10
214.8236410444
 20
44.8498191046
 30
0.0
 11
221.8947086982
 21
51.9208867584
 31
0.0
  0
LINE
  5
299
330
1F
100
AcDbEntity
  8
0
  6
Continuous
 62
     7
370
    15
100
AcDbLine
 10
213.7629813573
 20
45.9104787917
 30
0.0
 11
214.8236410444
 21
44.8498191046
 31
0.0
  0
LINE
  5
29A
330
1F
100
AcDbEntity
  8
0
  6
Continuous
 62
     7
370
    15
100
AcDbLine
 10
211.5002395501
 20
43.6477369844
 30
0.0
 11
213.7629813573
 21
45.9104787917
 31
0.0
  0
LINE
  5
29B
330
1F
100
AcDbEntity
  8
0
  6
Continuous
 62
     7
370
    15
100
AcDbLine
 10
212.5608992371
 20
42.5870772973
 30
0.0
 11
211.5002395501
 21
43.6477369844
 31
0.0
  0
LINE
  5
29C
330
1F
100
AcDbEntity
  8
0
  6
Continuous
 62
     7
370
    15
100
AcDbLine
 10
210.5810003204
 20
40.6071783806
 30
0.0
 11
212.5608992371
 21
42.5870772973
 31
0.0
  0
LINE
  5
29D
330
1F
100
AcDbEntity
  8
0
  6
Continuous
 62
     7
370
    15
100
AcDbLine
 10
209.1667871848
 20
42.0213915162
 30
0.0
 11
210.5810003204
 21
40.6071783806
 31
0.0
  0
LINE
  5
29E
330
1F
100
AcDbEntity
  8
0
  6
Continuous
 62
     7
370
    15
100
AcDbLine
 10
204.9241464608
 20
37.7787507922
 30
0.0
 11
209.1667871848
 21
42.0213915162
 31
0.0
  0
LINE
  5
29F
330
1F
100
AcDbEntity
  8
0
  6
Continuous
 62
     7
370
    15
100
AcDbLine
 10
199.2672919426
 20
43.4356053104
 30
0.0
 11
204.9241464608
 21
37.7787507922
 31
0.0
  0
LINE
  5
2A0
330
1F
100
AcDbEntity
  8
0
  6
Continuous
 62
     7
370
    15
100
AcDbLine
 10
244.522128088
 20
88.6904414558
 30
0.0
 11
199.2672919426
 21
43.4356053104
 31
0.0
  0
ENDSEC
  0
SECTION
  2
OBJECTS
  0
DICTIONARY
  5
C
330
0
100
AcDbDictionary
281
     1
  3
ACAD_GROUP
350
D
  3
ACAD_LAYOUT
350
1A
  3
ACAD_MLINESTYLE
350
17
  3
ACAD_PLOTSETTINGS
350
19
  3
ACAD_PLOTSTYLENAME
350
E
  3
ACAD_SCALELIST
350
47
  0
DICTIONARY
  5
D
102
{ACAD_REACTORS
330
C
102
}
330
C
100
AcDbDictionary
281
     1
  0
DICTIONARY
  5
1A
102
{ACAD_REACTORS
330
C
102
}
330
C
100
AcDbDictionary
281
     1
  3
Layout1
350
1E
  3
Layout2
350
26
  3
Model
350
22
  0
DICTIONARY
  5
17
102
{ACAD_REACTORS
330
C
102
}
330
C
100
AcDbDictionary
281
     1
  3
Standard
350
18
  0
DICTIONARY
  5
19
102
{ACAD_REACTORS
330
C
102
}
330
C
100
AcDbDictionary
281
     1
  0
ACDBDICTIONARYWDFLT
  5
E
102
{ACAD_REACTORS
330
C
102
}
330
C
100
AcDbDictionary
281
     1
  3
Normal
350
F
100
AcDbDictionaryWithDefault
340
F
  0
DICTIONARY
  5
47
102
{ACAD_REACTORS
330
C
102
}
330
C
100
AcDbDictionary
281
     1
  3
A0
350
48
  3
A1
350
49
  3
A2
350
4A
  3
A3
350
4B
  3
A4
350
4C
  3
A5
350
4D
  3
A6
350
4E
  3
A7
350
4F
  3
A8
350
50
  3
A9
350
51
  3
B0
350
52
  3
B1
350
53
  3
B2
350
54
  3
B3
350
55
  3
B4
350
56
  3
B5
350
57
  3
B6
350
58
  3
B7
350
59
  3
B8
350
5A
  3
B9
350
5B
  3
C0
350
5C
  3
C1
350
5D
  3
C2
350
5E
  3
C3
350
5F
  3
C4
350
60
  3
C5
350
61
  3
C6
350
62
  3
C7
350
63
  3
C8
350
64
  3
C9
350
65
  3
D0
350
66
  3
D1
350
67
  3
D2
350
68
  0
LAYOUT
  5
1E
102
{ACAD_REACTORS
330
1A
102
}
330
1A
100
AcDbPlotSettings
  1

  2
none_device
  4

  6

 40
0.0
 41
0.0
 42
0.0
 43
0.0
 44
0.0
 45
0.0
 46
0.0
 47
0.0
 48
0.0
 49
0.0
140
0.0
141
0.0
142
1.0
143
1.0
 70
   688
 72
     1
 73
     0
 74
     5
  7

 75
    16
147
1.0
148
0.0
149
0.0
100
AcDbLayout
  1
Layout1
 70
     1
 71
     1
 10
0.0
 20
0.0
 11
420.0
 21
297.0
 12
0.0
 22
0.0
 32
0.0
 14
1.0000000000E+20
 24
1.0000000000E+20
 34
1.0000000000E+20
 15
-1.0000000000E+20
 25
-1.0000000000E+20
 35
-1.0000000000E+20
146
0.0
 13
0.0
 23
0.0
 33
0.0
 16
1.0
 26
0.0
 36
0.0
 17
0.0
 27
1.0
 37
0.0
 76
     0
330
1B
  0
LAYOUT
  5
26
102
{ACAD_REACTORS
330
1A
102
}
330
1A
100
AcDbPlotSettings
  1

  2
none_device
  4

  6

 40
0.0
 41
0.0
 42
0.0
 43
0.0
 44
0.0
 45
0.0
 46
0.0
 47
0.0
 48
0.0
 49
0.0
140
0.0
141
0.0
142
1.0
143
1.0
 70
   688
 72
     1
 73
     0
 74
     5
  7

 75
    16
147
1.0
148
0.0
149
0.0
100
AcDbLayout
  1
Layout2
 70
     1
 71
     2
 10
0.0
 20
0.0
 11
0.0
 21
0.0
 12
0.0
 22
0.0
 32
0.0
 14
0.0
 24
0.0
 34
0.0
 15
0.0
 25
0.0
 35
0.0
146
0.0
 13
0.0
 23
0.0
 33
0.0
 16
1.0
 26
0.0
 36
0.0
 17
0.0
 27
1.0
 37
0.0
 76
     0
330
23
  0
LAYOUT
  5
22
102
{ACAD_REACTORS
330
1A
102
}
330
1A
100
AcDbPlotSettings
  1

  2
none_device
  4
Letter_(8.50_x_11.00_Inches)
  6

 40
6.35
 41
6.35
 42
6.35000508
 43
6.35000508
 44
215.9
 45
279.4
 46
0.0
 47
0.0
 48
0.0
 49
0.0
140
0.0
141
0.0
142
1.0
143
1.0
 70
  1712
 72
     1
 73
     0
 74
     0
  7

 75
     0
147
1.0
148
0.0
149
0.0
100
AcDbLayout
  1
Model
 70
     1
 71
     0
 10
0.0
 20
0.0
 11
270.0
 21
560.0
 12
0.0
 22
0.0
 32
0.0
 14
0.0
 24
0.0
 34
0.0
 15
270.0
 25
560.0
 35
0.0
146
0.0
 13
0.0
 23
0.0
 33
0.0
 16
1.0
 26
0.0
 36
0.0
 17
0.0
 27
1.0
 37
0.0
 76
     0
330
1F
331
29
  0
MLINESTYLE
  5
18
102
{ACAD_REACTORS
330
17
102
}
330
17
100
AcDbMlineStyle
  2
Standard
 70
     0
  3

 62
   256
 51
90.0
 52
90.0
 71
     2
 49
0.5
 62
   256
  6
BYLAYER
 49
-0.5
 62
   256
  6
BYLAYER
  0
ACDBPLACEHOLDER
  5
F
102
{ACAD_REACTORS
330
E
102
}
330
E
  0
SCALE
  5
48
102
{ACAD_REACTORS
330
47
102
}
330
47
100
AcDbScale
 70
     0
300
1:1
140
1.0
141
1.0
290
     1
  0
SCALE
  5
49
102
{ACAD_REACTORS
330
47
102
}
330
47
100
AcDbScale
 70
     0
300
1:2
140
1.0
141
2.0
290
     0
  0
SCALE
  5
4A
102
{ACAD_REACTORS
330
47
102
}
330
47
100
AcDbScale
 70
     0
300
1:4
140
1.0
141
4.0
290
     0
  0
SCALE
  5
4B
102
{ACAD_REACTORS
330
47
102
}
330
47
100
AcDbScale
 70
     0
300
1:5
140
1.0
141
5.0
290
     0
  0
SCALE
  5
4C
102
{ACAD_REACTORS
330
47
102
}
330
47
100
AcDbScale
 70
     0
300
1:8
140
1.0
141
8.0
290
     0
  0
SCALE
  5
4D
102
{ACAD_REACTORS
330
47
102
}
330
47
100
AcDbScale
 70
     0
300
1:10
140
1.0
141
10.0
290
     0
  0
SCALE
  5
4E
102
{ACAD_REACTORS
330
47
102
}
330
47
100
AcDbScale
 70
     0
300
1:16
140
1.0
141
16.0
290
     0
  0
SCALE
  5
4F
102
{ACAD_REACTORS
330
47
102
}
330
47
100
AcDbScale
 70
     0
300
1:20
140
1.0
141
20.0
290
     0
  0
SCALE
  5
50
102
{ACAD_REACTORS
330
47
102
}
330
47
100
AcDbScale
 70
     0
300
1:30
140
1.0
141
30.0
290
     0
  0
SCALE
  5
51
102
{ACAD_REACTORS
330
47
102
}
330
47
100
AcDbScale
 70
     0
300
1:40
140
1.0
141
40.0
290
     0
  0
SCALE
  5
52
102
{ACAD_REACTORS
330
47
102
}
330
47
100
AcDbScale
 70
     0
300
1:50
140
1.0
141
50.0
290
     0
  0
SCALE
  5
53
102
{ACAD_REACTORS
330
47
102
}
330
47
100
AcDbScale
 70
     0
300
1:100
140
1.0
141
100.0
290
     0
  0
SCALE
  5
54
102
{ACAD_REACTORS
330
47
102
}
330
47
100
AcDbScale
 70
     0
300
2:1
140
2.0
141
1.0
290
     0
  0
SCALE
  5
55
102
{ACAD_REACTORS
330
47
102
}
330
47
100
AcDbScale
 70
     0
300
4:1
140
4.0
141
1.0
290
     0
  0
SCALE
  5
56
102
{ACAD_REACTORS
330
47
102
}
330
47
100
AcDbScale
 70
     0
300
8:1
140
8.0
141
1.0
290
     0
  0
SCALE
  5
57
102
{ACAD_REACTORS
330
47
102
}
330
47
100
AcDbScale
 70
     0
300
10:1
140
10.0
141
1.0
290
     0
  0
SCALE
  5
58
102
{ACAD_REACTORS
330
47
102
}
330
47
100
AcDbScale
 70
     0
300
100:1
140
100.0
141
1.0
290
     0
  0
SCALE
  5
59
102
{ACAD_REACTORS
330
47
102
}
330
47
100
AcDbScale
 70
     0
300
1/128" = 1'-0"
140
0.0078125
141
12.0
290
     0
  0
SCALE
  5
5A
102
{ACAD_REACTORS
330
47
102
}
330
47
100
AcDbScale
 70
     0
300
1/64" = 1'-0"
140
0.015625
141
12.0
290
     0
  0
SCALE
  5
5B
102
{ACAD_REACTORS
330
47
102
}
330
47
100
AcDbScale
 70
     0
300
1/32" = 1'-0"
140
0.03125
141
12.0
290
     0
  0
SCALE
  5
5C
102
{ACAD_REACTORS
330
47
102
}
330
47
100
AcDbScale
 70
     0
300
1/16" = 1'-0"
140
0.0625
141
12.0
290
     0
  0
SCALE
  5
5D
102
{ACAD_REACTORS
330
47
102
}
330
47
100
AcDbScale
 70
     0
300
3/32" = 1'-0"
140
0.09375
141
12.0
290
     0
  0
SCALE
  5
5E
102
{ACAD_REACTORS
330
47
102
}
330
47
100
AcDbScale
 70
     0
300
1/8" = 1'-0"
140
0.125
141
12.0
290
     0
  0
SCALE
  5
5F
102
{ACAD_REACTORS
330
47
102
}
330
47
100
AcDbScale
 70
     0
300
3/16" = 1'-0"
140
0.1875
141
12.0
290
     0
  0
SCALE
  5
60
102
{ACAD_REACTORS
330
47
102
}
330
47
100
AcDbScale
 70
     0
300
1/4" = 1'-0"
140
0.25
141
12.0
290
     0
  0
SCALE
  5
61
102
{ACAD_REACTORS
330
47
102
}
330
47
100
AcDbScale
 70
     0
300
3/8" = 1'-0"
140
0.375
141
12.0
290
     0
  0
SCALE
  5
62
102
{ACAD_REACTORS
330
47
102
}
330
47
100
AcDbScale
 70
     0
300
1/2" = 1'-0"
140
0.5
141
12.0
290
     0
  0
SCALE
  5
63
102
{ACAD_REACTORS
330
47
102
}
330
47
100
AcDbScale
 70
     0
300
3/4" = 1'-0"
140
0.75
141
12.0
290
     0
  0
SCALE
  5
64
102
{ACAD_REACTORS
330
47
102
}
330
47
100
AcDbScale
 70
     0
300
1" = 1'-0"
140
1.0
141
12.0
290
     0
  0
SCALE
  5
65
102
{ACAD_REACTORS
330
47
102
}
330
47
100
AcDbScale
 70
     0
300
1-1/2" = 1'-0"
140
1.5
141
12.0
290
     0
  0
SCALE
  5
66
102
{ACAD_REACTORS
330
47
102
}
330
47
100
AcDbScale
 70
     0
300
3" = 1'-0"
140
3.0
141
12.0
290
     0
  0
SCALE
  5
67
102
{ACAD_REACTORS
330
47
102
}
330
47
100
AcDbScale
 70
     0
300
6" = 1'-0"
140
6.0
141
12.0
290
     0
  0
SCALE
  5
68
102
{ACAD_REACTORS
330
47
102
}
330
47
100
AcDbScale
 70
     0
300
1'-0" = 1'-0"
140
12.0
141
12.0
290
     0
  0
ENDSEC
  0
EOF
