%
M48
M72
T01C0.01378
T02C0.03200
T03C0.03543
T04C0.04000
T05C0.12992
%
T01
X226250Y177632
X221250Y185132
X246250Y192632
T02
X271250Y70506
X271250Y62632
X271250Y54758
T03
X216250Y104837
X216250Y130428
T04
X127350Y22332
X145150Y22332
X156250Y22632
X166250Y22632
X176250Y22632
X186250Y22632
X196250Y22632
X206250Y22632
X226250Y22632
X236250Y22632
X246250Y22632
X256250Y22632
X266250Y22632
X276250Y22632
X286250Y22632
X296250Y22632
X316250Y22632
X326250Y22632
X336250Y22632
X346250Y22632
X356250Y22632
X366250Y22632
X376250Y22632
X386250Y22632
X396250Y42632
X406250Y42632
X406250Y52632
X396250Y52632
X396250Y62632
X406250Y62632
X406250Y72632
X396250Y72632
X396250Y82632
X406250Y82632
X406250Y92632
X396250Y92632
X396250Y102632
X406250Y102632
X406250Y112632
X396250Y112632
X396250Y122632
X406250Y122632
X406250Y132632
X396250Y132632
X396250Y142632
X406250Y142632
X406250Y152632
X396250Y152632
X396250Y162632
X406250Y162632
X406250Y172632
X396250Y172632
X396250Y182632
X406250Y182632
X406250Y192632
X396250Y192632
X396250Y202632
X406250Y202632
X406250Y212632
X396250Y212632
X366250Y212632
X356250Y212632
X346250Y212632
X336250Y212632
X326250Y212632
X316250Y212632
X306250Y212632
X296250Y212632
X276250Y212632
X266250Y212632
X256250Y212632
X246250Y212632
X236250Y212632
X226250Y212632
X216250Y212632
X206250Y212632
X190250Y212632
X180250Y212632
X170250Y212632
X160250Y212632
X150250Y212632
X140250Y212632
X130250Y212632
X120250Y212632
X136250Y187632
X146250Y187632
X178750Y187632
X188750Y187632
X198750Y187632
X208750Y187632
X266250Y187632
X266250Y177632
X266250Y167632
X266250Y157632
X311250Y130132
X321250Y130132
X361250Y130132
X371250Y130132
X368750Y157632
X368750Y167632
X368750Y177632
X368750Y187632
X318750Y187632
X318750Y177632
X318750Y167632
X318750Y157632
X266250Y127632
X266250Y117632
X266250Y107632
X231250Y105132
X231250Y115132
X231250Y95132
X231250Y85132
X191550Y59032
X165950Y59032
X145150Y47932
X127350Y47932
X165950Y41232
X191550Y41232
X313750Y57632
X323750Y57632
X323750Y67632
X313750Y67632
X313750Y77632
X323750Y77632
X323750Y87632
X313750Y87632
X313750Y97632
X323750Y97632
X363750Y97632
X373750Y97632
X373750Y87632
X363750Y87632
X363750Y77632
X373750Y77632
X373750Y67632
X363750Y67632
X363750Y57632
X373750Y57632
T05
X406250Y22632
X381250Y212632
M30
