G75*
%MOIN*%
%OFA0B0*%
%FSLAX25Y25*%
%IPPOS*%
%LPD*%
%AMOC8*
5,1,8,0,0,1.08239X$1,22.5*
%
%ADD10C,0.00400*%
%ADD11C,0.00300*%
%ADD12C,0.00800*%
%ADD13C,0.00600*%
%ADD14R,0.00148X0.01772*%
%ADD15R,0.00148X0.02215*%
%ADD16R,0.00148X0.02657*%
%ADD17R,0.00148X0.03100*%
%ADD18R,0.00148X0.03544*%
%ADD19R,0.00148X0.03838*%
%ADD20R,0.00148X0.04429*%
%ADD21R,0.00148X0.04724*%
%ADD22R,0.00148X0.05315*%
%ADD23R,0.00148X0.05610*%
%ADD24R,0.00148X0.06201*%
%ADD25R,0.00148X0.06644*%
%ADD26R,0.00148X0.06939*%
%ADD27R,0.00148X0.07529*%
%ADD28R,0.00148X0.03691*%
%ADD29R,0.00148X0.03691*%
%ADD30R,0.00148X0.03691*%
%ADD31R,0.00148X0.03543*%
%ADD32R,0.00148X0.03543*%
%ADD33R,0.00148X0.03839*%
%ADD34R,0.00148X0.03839*%
%ADD35R,0.00148X0.03248*%
%ADD36R,0.00148X0.03986*%
%ADD37R,0.00148X0.04725*%
%ADD38R,0.00148X0.05167*%
%ADD39R,0.00148X0.05757*%
%ADD40R,0.00148X0.06054*%
%ADD41R,0.00148X0.01920*%
%ADD42R,0.00148X0.01772*%
%ADD43R,0.00148X0.01624*%
%ADD44R,0.00148X0.01624*%
%ADD45R,0.00148X0.01476*%
%ADD46R,0.00148X0.01624*%
%ADD47R,0.00148X0.03986*%
%ADD48R,0.00148X0.01771*%
%ADD49R,0.00148X0.02067*%
%ADD50R,0.00148X0.01919*%
%ADD51R,0.00148X0.02510*%
%ADD52R,0.00148X0.02067*%
%ADD53R,0.00148X0.04576*%
%ADD54R,0.00148X0.03396*%
%ADD55R,0.00148X0.02363*%
%ADD56R,0.00148X0.05315*%
%ADD57R,0.00148X0.03987*%
%ADD58R,0.00148X0.06053*%
%ADD59R,0.00148X0.05610*%
%ADD60R,0.00148X0.00886*%
%ADD61R,0.00148X0.05758*%
%ADD62R,0.00148X0.04282*%
%ADD63R,0.00148X0.00591*%
%ADD64R,0.00148X0.05906*%
%ADD65R,0.00148X0.04134*%
%ADD66R,0.00148X0.00443*%
%ADD67R,0.00148X0.04872*%
%ADD68R,0.00148X0.04133*%
%ADD69R,0.00148X0.02067*%
%ADD70R,0.00148X0.01034*%
%ADD71R,0.00148X0.04134*%
%ADD72R,0.00148X0.03396*%
%ADD73R,0.00148X0.03395*%
%ADD74R,0.00148X0.05020*%
%ADD75R,0.00148X0.02657*%
%ADD76R,0.00148X0.02362*%
%ADD77R,0.00148X0.01919*%
%ADD78R,0.00148X0.02953*%
%ADD79R,0.00148X0.02215*%
%ADD80R,0.00148X0.01328*%
%ADD81R,0.00148X0.05463*%
%ADD82R,0.00148X0.05167*%
%ADD83R,0.00148X0.04577*%
%ADD84R,0.00148X0.03100*%
%ADD85R,0.00148X0.01329*%
%ADD86R,0.00148X0.02806*%
%ADD87R,0.00148X0.04281*%
%ADD88R,0.00148X0.00885*%
%ADD89R,0.00148X0.06791*%
%ADD90R,0.00148X0.04281*%
%ADD91R,0.00148X0.06939*%
%ADD92R,0.00148X0.04872*%
%ADD93R,0.00148X0.06939*%
%ADD94R,0.00148X0.05315*%
%ADD95R,0.00148X0.02362*%
%ADD96R,0.00148X0.01181*%
%ADD97R,0.00148X0.05758*%
%ADD98R,0.00148X0.06201*%
%ADD99R,0.00148X0.06053*%
%ADD100R,0.00148X0.05905*%
%ADD101R,0.00148X0.06643*%
%ADD102R,0.00148X0.08563*%
%ADD103R,0.00148X0.08120*%
%ADD104R,0.00148X0.07677*%
%ADD105R,0.00148X0.07235*%
%ADD106R,0.00148X0.05463*%
%ADD107R,0.00148X0.04872*%
%ADD108R,0.00148X0.06348*%
%ADD109R,0.00148X0.04724*%
%ADD110R,0.00148X0.07382*%
%ADD111R,0.00148X0.07677*%
%ADD112R,0.00148X0.08268*%
%ADD113R,0.00148X0.06644*%
%ADD114R,0.00148X0.07530*%
%ADD115R,0.00148X0.07825*%
%ADD116R,0.00148X0.08415*%
%ADD117R,0.00148X0.07972*%
%ADD118R,0.00148X0.06792*%
%ADD119R,0.00148X0.06496*%
%ADD120R,0.00148X0.05019*%
%ADD121R,0.00148X0.04577*%
%ADD122R,0.00148X0.05020*%
%ADD123R,0.00148X0.05462*%
%ADD124R,0.00148X0.06200*%
%ADD125R,0.00148X0.07234*%
%ADD126R,0.00148X0.06348*%
%ADD127R,0.00148X0.01033*%
%ADD128R,0.00148X0.07087*%
%ADD129R,0.00148X0.06496*%
%ADD130R,0.00148X0.01181*%
%ADD131R,0.00148X0.01181*%
%ADD132R,0.00148X0.01329*%
%ADD133R,0.00148X0.03101*%
%ADD134R,0.00148X0.00886*%
%ADD135R,0.00148X0.03248*%
%ADD136R,0.00148X0.02805*%
%ADD137R,0.00148X0.07086*%
%ADD138R,0.00148X0.08563*%
%ADD139R,0.00148X0.01033*%
%ADD140R,0.00148X0.05611*%
%ADD141R,0.00148X0.02509*%
%ADD142R,0.00148X0.02510*%
%ADD143R,0.00148X0.00295*%
%ADD144R,0.00148X0.00738*%
%ADD145R,0.00148X0.06349*%
%ADD146R,0.00148X0.00148*%
%ADD147R,0.00148X0.02805*%
%ADD148R,0.00148X0.00295*%
%ADD149R,0.00148X0.00590*%
%ADD150R,0.00148X0.00591*%
%ADD151R,0.00148X0.00739*%
%ADD152R,0.00148X0.03248*%
%ADD153R,0.00148X0.06496*%
%ADD154R,0.00148X0.02658*%
%ADD155R,0.00148X0.01476*%
%ADD156R,0.00148X0.00443*%
%ADD157R,0.00148X0.04430*%
%ADD158R,0.00148X0.00147*%
%ADD159R,0.00148X0.05906*%
%ADD160R,0.00148X0.00443*%
%ADD161R,0.00148X0.07382*%
%ADD162R,0.00148X0.07972*%
%ADD163R,0.00148X0.00738*%
%ADD164R,0.00148X0.00148*%
%ADD165R,0.00148X0.00296*%
%ADD166R,0.00148X0.13287*%
%ADD167R,0.00148X0.14764*%
%ADD168R,0.00148X0.14173*%
%ADD169R,0.00148X0.15059*%
%ADD170R,0.00148X0.14469*%
%ADD171R,0.00148X0.15354*%
%ADD172R,0.00148X0.15207*%
%ADD173R,0.00148X0.15649*%
%ADD174R,0.00148X0.15502*%
%ADD175R,0.00148X0.15945*%
%ADD176R,0.00148X0.15944*%
%ADD177R,0.00148X0.16240*%
%ADD178R,0.00148X0.15798*%
%ADD179R,0.00148X0.09006*%
%ADD180R,0.00148X0.16093*%
%ADD181R,0.00148X0.16535*%
%ADD182R,0.00148X0.09302*%
%ADD183R,0.00148X0.16388*%
%ADD184R,0.00148X0.16683*%
%ADD185R,0.00148X0.12402*%
%ADD186R,0.00148X0.08268*%
%ADD187R,0.00148X0.16978*%
%ADD188R,0.00148X0.12696*%
%ADD189R,0.00148X0.08416*%
%ADD190R,0.00148X0.08858*%
%ADD191R,0.00148X0.16831*%
%ADD192R,0.00148X0.17274*%
%ADD193R,0.00148X0.16830*%
%ADD194R,0.00148X0.12992*%
%ADD195R,0.00148X0.08711*%
%ADD196R,0.00148X0.17126*%
%ADD197R,0.00148X0.17569*%
%ADD198R,0.00148X0.16978*%
%ADD199R,0.00148X0.13140*%
%ADD200R,0.00148X0.09154*%
%ADD201R,0.00148X0.17717*%
%ADD202R,0.00148X0.08415*%
%ADD203R,0.00148X0.09301*%
%ADD204R,0.00148X0.17864*%
%ADD205R,0.00148X0.08710*%
%ADD206R,0.00148X0.13583*%
%ADD207R,0.00148X0.09153*%
%ADD208R,0.00148X0.08711*%
%ADD209R,0.00148X0.18012*%
%ADD210R,0.00148X0.08120*%
%ADD211R,0.00148X0.09301*%
%ADD212R,0.00148X0.09449*%
%ADD213R,0.00148X0.18159*%
%ADD214R,0.00148X0.09448*%
%ADD215R,0.00148X0.09596*%
%ADD216R,0.00148X0.11368*%
%ADD217R,0.00148X0.09006*%
%ADD218R,0.00148X0.11663*%
%ADD219R,0.00148X0.08563*%
%ADD220R,0.00148X0.18455*%
%ADD221R,0.00148X0.21850*%
%ADD222R,0.00148X0.18159*%
%ADD223R,0.00148X0.09744*%
%ADD224R,0.00148X0.18307*%
%ADD225R,0.00148X0.21998*%
%ADD226R,0.00148X0.09892*%
%ADD227R,0.00148X0.18307*%
%ADD228R,0.00148X0.18750*%
%ADD229R,0.00148X0.14320*%
%ADD230R,0.00148X0.22146*%
%ADD231R,0.00148X0.14616*%
%ADD232R,0.00148X0.15650*%
%ADD233R,0.00148X0.08267*%
%ADD234R,0.00148X0.02952*%
%ADD235R,0.00148X0.12992*%
%ADD236R,0.00148X0.12106*%
%ADD237R,0.00148X0.09006*%
%ADD238R,0.00148X0.12550*%
%ADD239R,0.00148X0.12254*%
%ADD240R,0.00148X0.11958*%
%ADD241R,0.00148X0.11664*%
%ADD242R,0.00148X0.07530*%
%ADD243R,0.00148X0.12106*%
%ADD244R,0.00148X0.11811*%
%ADD245R,0.00148X0.11959*%
%ADD246R,0.00148X0.11663*%
%ADD247R,0.00148X0.11368*%
%ADD248R,0.00148X0.11516*%
%ADD249R,0.00148X0.10482*%
%ADD250R,0.00148X0.11515*%
%ADD251R,0.00148X0.10335*%
%ADD252R,0.00148X0.11073*%
%ADD253R,0.00148X0.10187*%
%ADD254R,0.00148X0.10187*%
%ADD255R,0.00148X0.11220*%
%ADD256R,0.00148X0.10925*%
%ADD257R,0.00148X0.10187*%
%ADD258R,0.00148X0.11073*%
%ADD259R,0.00148X0.10778*%
%ADD260R,0.00148X0.16831*%
%ADD261R,0.00148X0.16683*%
%ADD262R,0.00148X0.10630*%
%ADD263R,0.00148X0.11220*%
%ADD264R,0.00148X0.16388*%
%ADD265R,0.00148X0.10778*%
%ADD266R,0.00148X0.10482*%
%ADD267R,0.00148X0.07824*%
%ADD268R,0.00148X0.10630*%
%ADD269R,0.00148X0.07678*%
%ADD270R,0.00148X0.11072*%
%ADD271R,0.00148X0.09597*%
%ADD272R,0.00148X0.07087*%
%ADD273R,0.00148X0.10039*%
%ADD274R,0.00148X0.09154*%
%ADD275R,0.00148X0.07973*%
%ADD276R,0.00148X0.07825*%
%ADD277R,0.00148X0.07234*%
D10*
X0416446Y0038967D02*
X0416446Y0042037D01*
X0421050Y0042037D01*
X0421050Y0038967D01*
X0418748Y0040502D02*
X0418748Y0042037D01*
X0420283Y0043571D02*
X0416446Y0043571D01*
X0420283Y0043571D02*
X0421050Y0044339D01*
X0421050Y0045873D01*
X0420283Y0046641D01*
X0416446Y0046641D01*
X0417213Y0048175D02*
X0420283Y0048175D01*
X0421050Y0048943D01*
X0421050Y0050477D01*
X0420283Y0051245D01*
X0417213Y0051245D01*
X0416446Y0050477D01*
X0416446Y0048943D01*
X0417213Y0048175D01*
X0419515Y0049710D02*
X0421050Y0048175D01*
X0421050Y0052779D02*
X0421050Y0055848D01*
X0416446Y0055848D01*
X0416446Y0052779D01*
X0418748Y0054314D02*
X0418748Y0055848D01*
X0419515Y0057383D02*
X0416446Y0057383D01*
X0419515Y0057383D02*
X0421050Y0058918D01*
X0419515Y0060452D01*
X0416446Y0060452D01*
X0416446Y0061987D02*
X0416446Y0065056D01*
X0421050Y0065056D01*
X0421050Y0061987D01*
X0418748Y0063522D02*
X0418748Y0065056D01*
X0421050Y0066591D02*
X0421050Y0069660D01*
X0416446Y0069660D01*
X0420283Y0075799D02*
X0421050Y0075799D01*
X0421050Y0076566D01*
X0420283Y0076566D01*
X0420283Y0075799D01*
X0420283Y0078101D02*
X0417213Y0078101D01*
X0416446Y0078868D01*
X0416446Y0080403D01*
X0417213Y0081170D01*
X0420283Y0081170D01*
X0421050Y0080403D01*
X0421050Y0078868D01*
X0420283Y0078101D01*
X0421050Y0087309D02*
X0417981Y0090378D01*
X0417213Y0090378D01*
X0416446Y0089611D01*
X0417213Y0088843D01*
X0417981Y0088843D01*
X0419515Y0090378D01*
X0420283Y0090378D01*
X0421050Y0089611D01*
X0421050Y0088843D01*
X0419515Y0087309D01*
X0421050Y0096516D02*
X0421050Y0099586D01*
X0416446Y0099586D01*
X0416446Y0096516D01*
X0418748Y0098051D02*
X0418748Y0099586D01*
X0417981Y0101120D02*
X0417213Y0101120D01*
X0416446Y0101888D01*
X0416446Y0104190D01*
X0421050Y0104190D01*
X0421050Y0101888D01*
X0420283Y0101120D01*
X0419515Y0101120D01*
X0418748Y0101888D01*
X0418748Y0104190D01*
X0417981Y0105724D02*
X0417213Y0105724D01*
X0416446Y0106492D01*
X0416446Y0108794D01*
X0421050Y0108794D01*
X0421050Y0106492D01*
X0420283Y0105724D01*
X0419515Y0105724D01*
X0418748Y0106492D01*
X0418748Y0108794D01*
X0418748Y0110328D02*
X0418748Y0113398D01*
X0417981Y0113398D02*
X0416446Y0111863D01*
X0417981Y0110328D01*
X0421050Y0110328D01*
X0421050Y0113398D02*
X0417981Y0113398D01*
X0421050Y0114932D02*
X0421050Y0118001D01*
X0416446Y0118001D01*
X0420283Y0124140D02*
X0421050Y0124140D01*
X0421050Y0124907D01*
X0420283Y0124907D01*
X0420283Y0124140D01*
X0417213Y0126442D02*
X0416446Y0126442D01*
X0417213Y0126442D02*
X0418748Y0127977D01*
X0421050Y0127977D01*
X0418748Y0127977D02*
X0417213Y0129511D01*
X0416446Y0129511D01*
X0418748Y0135650D02*
X0418748Y0138719D01*
X0417213Y0144858D02*
X0420283Y0147927D01*
X0421050Y0147927D01*
X0421050Y0149462D02*
X0421050Y0152531D01*
X0421050Y0150996D02*
X0416446Y0150996D01*
X0417981Y0152531D01*
X0417213Y0154066D02*
X0420283Y0157135D01*
X0421050Y0156367D01*
X0421050Y0154833D01*
X0420283Y0154066D01*
X0417213Y0154066D01*
X0416446Y0154833D01*
X0416446Y0156367D01*
X0417213Y0157135D01*
X0420283Y0157135D01*
X0421050Y0158669D02*
X0421050Y0161739D01*
X0417981Y0158669D01*
X0417213Y0158669D01*
X0416446Y0159437D01*
X0416446Y0160971D01*
X0417213Y0161739D01*
X0416446Y0147927D02*
X0416446Y0144858D01*
X0417213Y0144858D01*
X0418748Y0106492D02*
X0417981Y0105724D01*
X0418748Y0101888D02*
X0417981Y0101120D01*
D11*
X0246728Y0104164D02*
X0246244Y0103680D01*
X0244793Y0103680D01*
X0244793Y0106582D01*
X0246244Y0106582D01*
X0246728Y0106099D01*
X0246728Y0104164D01*
X0243781Y0103680D02*
X0243781Y0106582D01*
X0241847Y0103680D01*
X0241847Y0106582D01*
X0240835Y0106099D02*
X0240835Y0105131D01*
X0239867Y0105131D01*
X0238900Y0104164D02*
X0238900Y0106099D01*
X0239384Y0106582D01*
X0240351Y0106582D01*
X0240835Y0106099D01*
X0240835Y0104164D02*
X0240351Y0103680D01*
X0239384Y0103680D01*
X0238900Y0104164D01*
X0238900Y0096582D02*
X0238900Y0093680D01*
X0240351Y0093680D01*
X0240835Y0094164D01*
X0240835Y0095131D01*
X0240351Y0095615D01*
X0238900Y0095615D01*
X0239867Y0095615D02*
X0240835Y0096582D01*
X0241847Y0096582D02*
X0243781Y0093680D01*
X0241847Y0093680D02*
X0243781Y0096582D01*
X0243781Y0086582D02*
X0241847Y0083680D01*
X0240835Y0083680D02*
X0238900Y0083680D01*
X0239867Y0083680D02*
X0239867Y0086582D01*
X0241847Y0086582D02*
X0243781Y0083680D01*
X0223600Y0085549D02*
X0219897Y0085549D01*
X0221748Y0085549D02*
X0221748Y0088017D01*
X0219897Y0088017D02*
X0223600Y0088017D01*
X0223600Y0090466D02*
X0219897Y0090466D01*
X0219897Y0091700D02*
X0219897Y0089232D01*
X0220514Y0092915D02*
X0219897Y0093532D01*
X0219897Y0094766D01*
X0220514Y0095384D01*
X0222983Y0095384D01*
X0223600Y0094766D01*
X0223600Y0093532D01*
X0222983Y0092915D01*
X0220514Y0092915D01*
X0220514Y0096598D02*
X0219897Y0097215D01*
X0219897Y0098450D01*
X0220514Y0099067D01*
X0222983Y0099067D01*
X0223600Y0098450D01*
X0223600Y0097215D01*
X0222983Y0096598D01*
X0220514Y0096598D01*
X0219897Y0100281D02*
X0219897Y0102750D01*
X0219897Y0103964D02*
X0219897Y0106433D01*
X0223600Y0106433D01*
X0223600Y0103964D01*
X0221748Y0105199D02*
X0221748Y0106433D01*
X0222983Y0107647D02*
X0219897Y0107647D01*
X0219897Y0110116D02*
X0222983Y0110116D01*
X0223600Y0109499D01*
X0223600Y0108265D01*
X0222983Y0107647D01*
X0223600Y0111331D02*
X0223600Y0113799D01*
X0219897Y0113799D01*
X0220514Y0115014D02*
X0221131Y0115014D01*
X0221748Y0115631D01*
X0221748Y0117482D01*
X0221748Y0115631D02*
X0222366Y0115014D01*
X0222983Y0115014D01*
X0223600Y0115631D01*
X0223600Y0117482D01*
X0219897Y0117482D01*
X0219897Y0115631D01*
X0220514Y0115014D01*
X0238900Y0115615D02*
X0238900Y0113680D01*
X0240835Y0113680D02*
X0240835Y0115615D01*
X0239867Y0116582D01*
X0238900Y0115615D01*
X0241847Y0116099D02*
X0242330Y0116582D01*
X0243298Y0116582D01*
X0243781Y0116099D01*
X0244793Y0116099D02*
X0245277Y0116582D01*
X0246244Y0116582D01*
X0246728Y0116099D01*
X0244793Y0116099D02*
X0244793Y0114164D01*
X0245277Y0113680D01*
X0246244Y0113680D01*
X0246728Y0114164D01*
X0243781Y0114164D02*
X0243298Y0113680D01*
X0242330Y0113680D01*
X0241847Y0114164D01*
X0241847Y0116099D01*
X0223600Y0101516D02*
X0219897Y0101516D01*
D12*
X0226250Y0102632D02*
X0228750Y0100132D01*
X0226250Y0097632D01*
X0226250Y0092632D01*
X0228750Y0090132D01*
X0226250Y0087632D01*
X0226250Y0082632D01*
X0228750Y0080132D01*
X0233750Y0080132D01*
X0236250Y0082632D01*
X0236250Y0087632D01*
X0233750Y0090132D01*
X0236250Y0092632D01*
X0236250Y0097632D01*
X0233750Y0100132D01*
X0236250Y0102632D01*
X0236250Y0107632D01*
X0233750Y0110132D01*
X0236250Y0112632D01*
X0236250Y0117632D01*
X0233750Y0120132D01*
X0228750Y0120132D01*
X0226250Y0117632D01*
X0226250Y0112632D01*
X0228750Y0110132D01*
X0226250Y0107632D01*
X0226250Y0102632D01*
X0329825Y0060132D02*
X0329825Y0055132D01*
X0328750Y0027632D02*
X0323750Y0027632D01*
X0321250Y0025132D01*
X0318750Y0027632D01*
X0313750Y0027632D01*
X0311250Y0025132D01*
X0311250Y0020132D01*
X0313750Y0017632D01*
X0318750Y0017632D01*
X0321250Y0020132D01*
X0323750Y0017632D01*
X0328750Y0017632D01*
X0331250Y0020132D01*
X0333750Y0017632D01*
X0338750Y0017632D01*
X0341250Y0020132D01*
X0343750Y0017632D01*
X0348750Y0017632D01*
X0351250Y0020132D01*
X0353750Y0017632D01*
X0358750Y0017632D01*
X0361250Y0020132D01*
X0363750Y0017632D01*
X0368750Y0017632D01*
X0371250Y0020132D01*
X0373750Y0017632D01*
X0378750Y0017632D01*
X0381250Y0020132D01*
X0383750Y0017632D01*
X0388750Y0017632D01*
X0391250Y0020132D01*
X0391250Y0025132D01*
X0388750Y0027632D01*
X0383750Y0027632D01*
X0381250Y0025132D01*
X0378750Y0027632D01*
X0373750Y0027632D01*
X0371250Y0025132D01*
X0368750Y0027632D01*
X0363750Y0027632D01*
X0361250Y0025132D01*
X0358750Y0027632D01*
X0353750Y0027632D01*
X0351250Y0025132D01*
X0348750Y0027632D01*
X0343750Y0027632D01*
X0341250Y0025132D01*
X0338750Y0027632D01*
X0333750Y0027632D01*
X0331250Y0025132D01*
X0328750Y0027632D01*
X0301250Y0025132D02*
X0301250Y0020132D01*
X0298750Y0017632D01*
X0293750Y0017632D01*
X0291250Y0020132D01*
X0288750Y0017632D01*
X0283750Y0017632D01*
X0281250Y0020132D01*
X0278750Y0017632D01*
X0273750Y0017632D01*
X0271250Y0020132D01*
X0268750Y0017632D01*
X0263750Y0017632D01*
X0261250Y0020132D01*
X0258750Y0017632D01*
X0253750Y0017632D01*
X0251250Y0020132D01*
X0248750Y0017632D01*
X0243750Y0017632D01*
X0241250Y0020132D01*
X0238750Y0017632D01*
X0233750Y0017632D01*
X0231250Y0020132D01*
X0228750Y0017632D01*
X0223750Y0017632D01*
X0221250Y0020132D01*
X0221250Y0025132D01*
X0223750Y0027632D01*
X0228750Y0027632D01*
X0231250Y0025132D01*
X0233750Y0027632D01*
X0238750Y0027632D01*
X0241250Y0025132D01*
X0243750Y0027632D01*
X0248750Y0027632D01*
X0251250Y0025132D01*
X0253750Y0027632D01*
X0258750Y0027632D01*
X0261250Y0025132D01*
X0263750Y0027632D01*
X0268750Y0027632D01*
X0271250Y0025132D01*
X0273750Y0027632D01*
X0278750Y0027632D01*
X0281250Y0025132D01*
X0283750Y0027632D01*
X0288750Y0027632D01*
X0291250Y0025132D01*
X0293750Y0027632D01*
X0298750Y0027632D01*
X0301250Y0025132D01*
X0379825Y0055132D02*
X0379825Y0060132D01*
X0393750Y0047632D02*
X0408750Y0047632D01*
X0411250Y0045132D01*
X0411250Y0040132D01*
X0408750Y0037632D01*
X0393750Y0037632D01*
X0391250Y0040132D01*
X0391250Y0045132D01*
X0393750Y0047632D01*
X0211250Y0025132D02*
X0211250Y0020132D01*
X0208750Y0017632D01*
X0203750Y0017632D01*
X0201250Y0020132D01*
X0198750Y0017632D01*
X0193750Y0017632D01*
X0191250Y0020132D01*
X0188750Y0017632D01*
X0183750Y0017632D01*
X0181250Y0020132D01*
X0178750Y0017632D01*
X0173750Y0017632D01*
X0171250Y0020132D01*
X0168750Y0017632D01*
X0163750Y0017632D01*
X0161250Y0020132D01*
X0158750Y0017632D01*
X0153750Y0017632D01*
X0151250Y0020132D01*
X0151250Y0025132D01*
X0153750Y0027632D01*
X0158750Y0027632D01*
X0161250Y0025132D01*
X0163750Y0027632D01*
X0168750Y0027632D01*
X0171250Y0025132D01*
X0173750Y0027632D01*
X0178750Y0027632D01*
X0181250Y0025132D01*
X0183750Y0027632D01*
X0188750Y0027632D01*
X0191250Y0025132D01*
X0193750Y0027632D01*
X0198750Y0027632D01*
X0201250Y0025132D01*
X0203750Y0027632D01*
X0208750Y0027632D01*
X0211250Y0025132D01*
X0208750Y0207632D02*
X0203750Y0207632D01*
X0201250Y0210132D01*
X0201250Y0215132D01*
X0203750Y0217632D01*
X0208750Y0217632D01*
X0211250Y0215132D01*
X0213750Y0217632D01*
X0218750Y0217632D01*
X0221250Y0215132D01*
X0223750Y0217632D01*
X0228750Y0217632D01*
X0231250Y0215132D01*
X0233750Y0217632D01*
X0238750Y0217632D01*
X0241250Y0215132D01*
X0243750Y0217632D01*
X0248750Y0217632D01*
X0251250Y0215132D01*
X0253750Y0217632D01*
X0258750Y0217632D01*
X0261250Y0215132D01*
X0263750Y0217632D01*
X0268750Y0217632D01*
X0271250Y0215132D01*
X0273750Y0217632D01*
X0278750Y0217632D01*
X0281250Y0215132D01*
X0281250Y0210132D01*
X0278750Y0207632D01*
X0273750Y0207632D01*
X0271250Y0210132D01*
X0268750Y0207632D01*
X0263750Y0207632D01*
X0261250Y0210132D01*
X0258750Y0207632D01*
X0253750Y0207632D01*
X0251250Y0210132D01*
X0248750Y0207632D01*
X0243750Y0207632D01*
X0241250Y0210132D01*
X0238750Y0207632D01*
X0233750Y0207632D01*
X0231250Y0210132D01*
X0228750Y0207632D01*
X0223750Y0207632D01*
X0221250Y0210132D01*
X0218750Y0207632D01*
X0213750Y0207632D01*
X0211250Y0210132D01*
X0208750Y0207632D01*
X0195250Y0210132D02*
X0195250Y0215132D01*
X0192750Y0217632D01*
X0187750Y0217632D01*
X0185250Y0215132D01*
X0182750Y0217632D01*
X0177750Y0217632D01*
X0175250Y0215132D01*
X0172750Y0217632D01*
X0167750Y0217632D01*
X0165250Y0215132D01*
X0162750Y0217632D01*
X0157750Y0217632D01*
X0155250Y0215132D01*
X0152750Y0217632D01*
X0147750Y0217632D01*
X0145250Y0215132D01*
X0142750Y0217632D01*
X0137750Y0217632D01*
X0135250Y0215132D01*
X0132750Y0217632D01*
X0127750Y0217632D01*
X0125250Y0215132D01*
X0122750Y0217632D01*
X0117750Y0217632D01*
X0115250Y0215132D01*
X0115250Y0210132D01*
X0117750Y0207632D01*
X0122750Y0207632D01*
X0125250Y0210132D01*
X0127750Y0207632D01*
X0132750Y0207632D01*
X0135250Y0210132D01*
X0137750Y0207632D01*
X0142750Y0207632D01*
X0145250Y0210132D01*
X0147750Y0207632D01*
X0152750Y0207632D01*
X0155250Y0210132D01*
X0157750Y0207632D01*
X0162750Y0207632D01*
X0165250Y0210132D01*
X0167750Y0207632D01*
X0172750Y0207632D01*
X0175250Y0210132D01*
X0177750Y0207632D01*
X0182750Y0207632D01*
X0185250Y0210132D01*
X0187750Y0207632D01*
X0192750Y0207632D01*
X0195250Y0210132D01*
X0291250Y0210132D02*
X0293750Y0207632D01*
X0298750Y0207632D01*
X0301250Y0210132D01*
X0303750Y0207632D01*
X0308750Y0207632D01*
X0311250Y0210132D01*
X0313750Y0207632D01*
X0318750Y0207632D01*
X0321250Y0210132D01*
X0323750Y0207632D01*
X0328750Y0207632D01*
X0331250Y0210132D01*
X0333750Y0207632D01*
X0338750Y0207632D01*
X0341250Y0210132D01*
X0343750Y0207632D01*
X0348750Y0207632D01*
X0351250Y0210132D01*
X0353750Y0207632D01*
X0358750Y0207632D01*
X0361250Y0210132D01*
X0363750Y0207632D01*
X0368750Y0207632D01*
X0371250Y0210132D01*
X0371250Y0215132D01*
X0368750Y0217632D01*
X0363750Y0217632D01*
X0361250Y0215132D01*
X0358750Y0217632D01*
X0353750Y0217632D01*
X0351250Y0215132D01*
X0348750Y0217632D01*
X0343750Y0217632D01*
X0341250Y0215132D01*
X0338750Y0217632D01*
X0333750Y0217632D01*
X0331250Y0215132D01*
X0328750Y0217632D01*
X0323750Y0217632D01*
X0321250Y0215132D01*
X0318750Y0217632D01*
X0313750Y0217632D01*
X0311250Y0215132D01*
X0308750Y0217632D01*
X0303750Y0217632D01*
X0301250Y0215132D01*
X0298750Y0217632D01*
X0293750Y0217632D01*
X0291250Y0215132D01*
X0291250Y0210132D01*
X0391250Y0210132D02*
X0393750Y0207632D01*
X0408750Y0207632D01*
X0411250Y0210132D01*
X0411250Y0215132D01*
X0408750Y0217632D01*
X0393750Y0217632D01*
X0391250Y0215132D01*
X0391250Y0210132D01*
D13*
X0393750Y0207632D02*
X0391250Y0205132D01*
X0391250Y0200132D01*
X0393750Y0197632D01*
X0408750Y0197632D01*
X0411250Y0195132D01*
X0411250Y0190132D01*
X0408750Y0187632D01*
X0393750Y0187632D01*
X0391250Y0190132D01*
X0391250Y0195132D01*
X0393750Y0197632D01*
X0408750Y0197632D02*
X0411250Y0200132D01*
X0411250Y0205132D01*
X0408750Y0207632D01*
X0408750Y0187632D02*
X0411250Y0185132D01*
X0411250Y0180132D01*
X0408750Y0177632D01*
X0393750Y0177632D01*
X0391250Y0180132D01*
X0391250Y0185132D01*
X0393750Y0187632D01*
X0393750Y0177632D02*
X0391250Y0175132D01*
X0391250Y0170132D01*
X0393750Y0167632D01*
X0408750Y0167632D01*
X0411250Y0170132D01*
X0411250Y0175132D01*
X0408750Y0177632D01*
X0408750Y0167632D02*
X0411250Y0165132D01*
X0411250Y0160132D01*
X0408750Y0157632D01*
X0393750Y0157632D01*
X0391250Y0160132D01*
X0391250Y0165132D01*
X0393750Y0167632D01*
X0393750Y0157632D02*
X0391250Y0155132D01*
X0391250Y0150132D01*
X0393750Y0147632D01*
X0408750Y0147632D01*
X0411250Y0150132D01*
X0411250Y0155132D01*
X0408750Y0157632D01*
X0408750Y0147632D02*
X0411250Y0145132D01*
X0411250Y0140132D01*
X0408750Y0137632D01*
X0393750Y0137632D01*
X0391250Y0140132D01*
X0391250Y0145132D01*
X0393750Y0147632D01*
X0393750Y0137632D02*
X0391250Y0135132D01*
X0391250Y0130132D01*
X0393750Y0127632D01*
X0408750Y0127632D01*
X0411250Y0125132D01*
X0411250Y0120132D01*
X0408750Y0117632D01*
X0393750Y0117632D01*
X0391250Y0120132D01*
X0391250Y0125132D01*
X0393750Y0127632D01*
X0393750Y0117632D02*
X0391250Y0115132D01*
X0391250Y0110132D01*
X0393750Y0107632D01*
X0408750Y0107632D01*
X0411250Y0110132D01*
X0411250Y0115132D01*
X0408750Y0117632D01*
X0408750Y0107632D02*
X0411250Y0105132D01*
X0411250Y0100132D01*
X0408750Y0097632D01*
X0393750Y0097632D01*
X0391250Y0100132D01*
X0391250Y0105132D01*
X0393750Y0107632D01*
X0393750Y0097632D02*
X0391250Y0095132D01*
X0391250Y0090132D01*
X0393750Y0087632D01*
X0408750Y0087632D01*
X0411250Y0090132D01*
X0411250Y0095132D01*
X0408750Y0097632D01*
X0408750Y0087632D02*
X0411250Y0085132D01*
X0411250Y0080132D01*
X0408750Y0077632D01*
X0393750Y0077632D01*
X0391250Y0080132D01*
X0391250Y0085132D01*
X0393750Y0087632D01*
X0393750Y0077632D02*
X0391250Y0075132D01*
X0391250Y0070132D01*
X0393750Y0067632D01*
X0408750Y0067632D01*
X0411250Y0070132D01*
X0411250Y0075132D01*
X0408750Y0077632D01*
X0408750Y0067632D02*
X0411250Y0065132D01*
X0411250Y0060132D01*
X0408750Y0057632D01*
X0393750Y0057632D01*
X0391250Y0060132D01*
X0391250Y0065132D01*
X0393750Y0067632D01*
X0393750Y0057632D02*
X0391250Y0055132D01*
X0391250Y0050132D01*
X0393750Y0047632D01*
X0408750Y0047632D02*
X0411250Y0050132D01*
X0411250Y0055132D01*
X0408750Y0057632D01*
X0408750Y0127632D02*
X0411250Y0130132D01*
X0411250Y0135132D01*
X0408750Y0137632D01*
X0353388Y0177332D02*
X0351787Y0175731D01*
X0351387Y0175731D01*
X0351387Y0177332D01*
X0351787Y0178493D02*
X0352588Y0178493D01*
X0352988Y0178894D01*
X0352988Y0180095D01*
X0353789Y0180095D02*
X0351387Y0180095D01*
X0351387Y0178894D01*
X0351787Y0178493D01*
X0352988Y0179294D02*
X0353789Y0178493D01*
X0353789Y0177332D02*
X0353388Y0177332D01*
X0353388Y0185731D02*
X0353789Y0186131D01*
X0353789Y0186932D01*
X0353388Y0187332D01*
X0352988Y0187332D01*
X0352588Y0186932D01*
X0352588Y0186131D01*
X0352988Y0185731D01*
X0353388Y0185731D01*
X0352588Y0186131D02*
X0352187Y0185731D01*
X0351787Y0185731D01*
X0351387Y0186131D01*
X0351387Y0186932D01*
X0351787Y0187332D01*
X0352187Y0187332D01*
X0352588Y0186932D01*
X0352588Y0188493D02*
X0352988Y0188894D01*
X0352988Y0190095D01*
X0353789Y0190095D02*
X0351387Y0190095D01*
X0351387Y0188894D01*
X0351787Y0188493D01*
X0352588Y0188493D01*
X0352988Y0189294D02*
X0353789Y0188493D01*
X0335680Y0189534D02*
X0335280Y0188733D01*
X0334479Y0187932D01*
X0334479Y0189134D01*
X0334079Y0189534D01*
X0333679Y0189534D01*
X0333278Y0189134D01*
X0333278Y0188333D01*
X0333679Y0187932D01*
X0334479Y0187932D01*
X0334479Y0186771D02*
X0334079Y0186371D01*
X0334079Y0185170D01*
X0333278Y0185170D02*
X0335680Y0185170D01*
X0335680Y0186371D01*
X0335280Y0186771D01*
X0334479Y0186771D01*
X0334079Y0185971D02*
X0333278Y0186771D01*
X0333679Y0179534D02*
X0333278Y0179134D01*
X0333278Y0178333D01*
X0333679Y0177932D01*
X0334479Y0177932D02*
X0334880Y0178733D01*
X0334880Y0179134D01*
X0334479Y0179534D01*
X0333679Y0179534D01*
X0334479Y0177932D02*
X0335680Y0177932D01*
X0335680Y0179534D01*
X0335280Y0176771D02*
X0334479Y0176771D01*
X0334079Y0176371D01*
X0334079Y0175170D01*
X0333278Y0175170D02*
X0335680Y0175170D01*
X0335680Y0176371D01*
X0335280Y0176771D01*
X0334079Y0175971D02*
X0333278Y0176771D01*
X0255651Y0110932D02*
X0255251Y0111332D01*
X0254450Y0111332D01*
X0254050Y0110932D01*
X0254851Y0110131D02*
X0255251Y0110131D01*
X0255651Y0110532D01*
X0255651Y0110932D01*
X0255251Y0110131D02*
X0255651Y0109731D01*
X0255651Y0109331D01*
X0255251Y0108930D01*
X0254450Y0108930D01*
X0254050Y0109331D01*
X0252889Y0109331D02*
X0252489Y0108930D01*
X0251288Y0108930D01*
X0251288Y0111332D01*
X0251288Y0110532D02*
X0252489Y0110532D01*
X0252889Y0110131D01*
X0252889Y0109331D01*
X0252088Y0110532D02*
X0252889Y0111332D01*
X0252889Y0091332D02*
X0252088Y0090532D01*
X0252489Y0090532D02*
X0251288Y0090532D01*
X0251288Y0091332D02*
X0251288Y0088930D01*
X0252489Y0088930D01*
X0252889Y0089331D01*
X0252889Y0090131D01*
X0252489Y0090532D01*
X0254050Y0090131D02*
X0255651Y0090131D01*
X0255251Y0088930D02*
X0254050Y0090131D01*
X0255251Y0091332D02*
X0255251Y0088930D01*
X0278788Y0065932D02*
X0279188Y0066332D01*
X0279989Y0066332D01*
X0280389Y0065932D01*
X0281550Y0066332D02*
X0283151Y0066332D01*
X0282351Y0066332D02*
X0282351Y0063930D01*
X0281550Y0064731D01*
X0280389Y0064331D02*
X0279989Y0063930D01*
X0279188Y0063930D01*
X0278788Y0064331D01*
X0278788Y0065932D01*
D14*
X0202106Y0098228D03*
X0198711Y0096013D03*
X0197382Y0091289D03*
X0167116Y0091289D03*
X0166969Y0091289D03*
X0166083Y0079330D03*
X0186752Y0072687D03*
X0205502Y0114468D03*
X0205650Y0114468D03*
X0214065Y0115944D03*
X0175679Y0148868D03*
X0175679Y0153297D03*
X0166969Y0159350D03*
X0181880Y0162155D03*
X0150138Y0156397D03*
X0149843Y0154183D03*
D15*
X0149843Y0156324D03*
X0150581Y0165477D03*
X0150433Y0172269D03*
X0150285Y0172269D03*
X0183209Y0166215D03*
X0169183Y0152337D03*
X0173465Y0150861D03*
X0175827Y0148942D03*
X0171988Y0145694D03*
X0178484Y0136097D03*
X0196201Y0139788D03*
X0196201Y0144217D03*
X0198268Y0144365D03*
X0193248Y0148646D03*
X0206978Y0119414D03*
X0208159Y0117642D03*
X0206978Y0115280D03*
X0213917Y0116019D03*
X0202106Y0112032D03*
X0203730Y0098597D03*
X0197382Y0095644D03*
X0199154Y0092101D03*
X0187195Y0085310D03*
X0170659Y0076156D03*
X0166526Y0071727D03*
X0161063Y0064345D03*
X0176122Y0059620D03*
X0177746Y0063164D03*
X0180256Y0069660D03*
X0143789Y0076304D03*
X0168593Y0099926D03*
D16*
X0168740Y0099852D03*
X0187195Y0089222D03*
X0184094Y0087746D03*
X0186604Y0076673D03*
X0175089Y0058956D03*
X0213770Y0116092D03*
X0185571Y0124655D03*
X0171841Y0120964D03*
X0171841Y0145620D03*
X0156191Y0153297D03*
X0149990Y0148425D03*
X0149843Y0148425D03*
X0184537Y0164665D03*
X0187490Y0155807D03*
X0151909Y0172195D03*
X0151762Y0172195D03*
X0151614Y0172195D03*
X0151467Y0172195D03*
X0151319Y0172195D03*
X0151171Y0172195D03*
X0151024Y0172195D03*
X0150876Y0172195D03*
D17*
X0150876Y0180684D03*
X0151024Y0180684D03*
X0151171Y0180684D03*
X0151319Y0180684D03*
X0151467Y0180684D03*
X0151614Y0180684D03*
X0150728Y0180684D03*
X0150581Y0180684D03*
X0150433Y0180684D03*
X0150285Y0180684D03*
X0150138Y0180684D03*
X0143199Y0179946D03*
X0143051Y0179946D03*
X0142904Y0179946D03*
X0142756Y0179946D03*
X0142608Y0179946D03*
X0142461Y0179946D03*
X0142313Y0179946D03*
X0142165Y0179946D03*
X0142018Y0179946D03*
X0141870Y0179946D03*
X0141575Y0179798D03*
X0141427Y0179798D03*
X0141280Y0179798D03*
X0141132Y0179798D03*
X0140984Y0179798D03*
X0140837Y0179798D03*
X0140689Y0179798D03*
X0140541Y0179798D03*
X0140394Y0179798D03*
X0140246Y0179798D03*
X0139951Y0179650D03*
X0139803Y0179650D03*
X0139656Y0179650D03*
X0155157Y0181127D03*
X0155305Y0181127D03*
X0155453Y0181127D03*
X0155600Y0181127D03*
X0155748Y0181127D03*
X0155896Y0181127D03*
X0156043Y0181127D03*
X0156191Y0181127D03*
X0156339Y0181127D03*
X0156486Y0181127D03*
X0156634Y0181127D03*
X0156929Y0181274D03*
X0157077Y0181274D03*
X0157224Y0181274D03*
X0157372Y0181274D03*
X0157520Y0181274D03*
X0157667Y0181274D03*
X0157815Y0181274D03*
X0157963Y0181274D03*
X0158110Y0181274D03*
X0158258Y0181274D03*
X0158406Y0181274D03*
X0158553Y0181422D03*
X0158701Y0181422D03*
X0158848Y0181422D03*
X0158996Y0181422D03*
X0159144Y0181422D03*
X0159291Y0181422D03*
X0159439Y0181422D03*
X0159587Y0181422D03*
X0159734Y0181422D03*
X0159882Y0181422D03*
X0160030Y0181422D03*
X0169035Y0180684D03*
X0143789Y0164591D03*
X0143642Y0164591D03*
X0143494Y0164591D03*
X0143346Y0164591D03*
X0143199Y0164591D03*
X0143051Y0164591D03*
X0142904Y0164591D03*
X0142756Y0164591D03*
X0142608Y0164591D03*
X0142461Y0164591D03*
X0142313Y0164591D03*
X0150876Y0152780D03*
X0155157Y0153076D03*
X0155305Y0153076D03*
X0148661Y0148351D03*
X0148514Y0148351D03*
X0148366Y0148351D03*
X0148219Y0148351D03*
X0147776Y0148204D03*
X0147628Y0148204D03*
X0147480Y0148204D03*
X0147333Y0148056D03*
X0147480Y0134473D03*
X0147628Y0134473D03*
X0147480Y0119119D03*
X0147333Y0119119D03*
X0148661Y0119119D03*
X0148809Y0119119D03*
X0148957Y0119119D03*
X0149104Y0119119D03*
X0149843Y0119267D03*
X0149990Y0119267D03*
X0150138Y0113804D03*
X0150285Y0113804D03*
X0150433Y0113804D03*
X0150581Y0113804D03*
X0150728Y0113804D03*
X0150876Y0113804D03*
X0151024Y0113804D03*
X0151171Y0113804D03*
X0151319Y0113804D03*
X0151467Y0113804D03*
X0151614Y0113804D03*
X0146594Y0113361D03*
X0146447Y0113361D03*
X0146299Y0113361D03*
X0146152Y0113361D03*
X0146004Y0113361D03*
X0145856Y0113361D03*
X0145709Y0113361D03*
X0145561Y0113361D03*
X0145413Y0113361D03*
X0145266Y0113361D03*
X0144970Y0113213D03*
X0144823Y0113213D03*
X0144675Y0113213D03*
X0144528Y0113213D03*
X0144380Y0113213D03*
X0144232Y0113213D03*
X0144085Y0113213D03*
X0143937Y0113213D03*
X0143789Y0113213D03*
X0143642Y0113213D03*
X0143199Y0113066D03*
X0143051Y0113066D03*
X0142904Y0113066D03*
X0142756Y0113066D03*
X0142608Y0113066D03*
X0142461Y0113066D03*
X0142313Y0113066D03*
X0142165Y0113066D03*
X0142018Y0113066D03*
X0144823Y0104503D03*
X0143642Y0104355D03*
X0143494Y0104355D03*
X0142608Y0104207D03*
X0142461Y0104207D03*
X0142313Y0104207D03*
X0148809Y0104946D03*
X0157815Y0105684D03*
X0158553Y0114542D03*
X0158701Y0114542D03*
X0158848Y0114542D03*
X0158996Y0114542D03*
X0159144Y0114542D03*
X0159291Y0114542D03*
X0159439Y0114542D03*
X0159587Y0114542D03*
X0159734Y0114542D03*
X0159882Y0114542D03*
X0160030Y0114542D03*
X0160325Y0114690D03*
X0160472Y0114690D03*
X0160620Y0114690D03*
X0160768Y0114690D03*
X0160915Y0114690D03*
X0161063Y0114690D03*
X0161211Y0114690D03*
X0161358Y0114690D03*
X0161506Y0114690D03*
X0162096Y0114837D03*
X0162244Y0114837D03*
X0162392Y0114837D03*
X0162539Y0114837D03*
X0162687Y0114837D03*
X0162835Y0114837D03*
X0162982Y0114837D03*
X0163130Y0114837D03*
X0163278Y0114837D03*
X0163425Y0114837D03*
X0163573Y0114837D03*
X0163720Y0114837D03*
X0185128Y0125172D03*
X0185128Y0136983D03*
X0185276Y0136983D03*
X0185423Y0136983D03*
X0175974Y0149237D03*
X0213622Y0116019D03*
X0179518Y0089296D03*
X0181732Y0079994D03*
X0177156Y0073646D03*
X0167411Y0071432D03*
X0167264Y0071580D03*
X0166083Y0073056D03*
X0165787Y0073499D03*
X0165640Y0073794D03*
X0157667Y0069956D03*
X0157520Y0069956D03*
X0157372Y0069956D03*
X0157224Y0069956D03*
X0155157Y0069660D03*
X0153386Y0064936D03*
X0141870Y0063459D03*
X0141870Y0056816D03*
X0141722Y0056816D03*
X0150138Y0052830D03*
X0150285Y0052830D03*
X0151467Y0053125D03*
X0151614Y0053125D03*
X0155157Y0053420D03*
X0157224Y0053715D03*
X0157667Y0053863D03*
X0171250Y0064641D03*
X0174350Y0059621D03*
X0175679Y0059621D03*
X0177156Y0061835D03*
X0177451Y0062278D03*
X0178337Y0063754D03*
X0168593Y0080585D03*
X0157815Y0090034D03*
X0157667Y0090034D03*
X0157077Y0089887D03*
X0149843Y0089148D03*
X0149695Y0089148D03*
X0149547Y0089148D03*
X0147776Y0084276D03*
X0193691Y0086639D03*
D18*
X0192953Y0097637D03*
X0197234Y0104281D03*
X0206535Y0105757D03*
X0206978Y0106496D03*
X0207274Y0106939D03*
X0208012Y0107972D03*
X0208307Y0108415D03*
X0208455Y0108710D03*
X0209931Y0110925D03*
X0210226Y0111368D03*
X0213474Y0116092D03*
X0211998Y0118307D03*
X0211703Y0118750D03*
X0203140Y0119783D03*
X0202697Y0120521D03*
X0202254Y0121259D03*
X0190886Y0132332D03*
X0191329Y0133070D03*
X0191624Y0133513D03*
X0191772Y0133809D03*
X0193691Y0136761D03*
X0194134Y0137500D03*
X0194429Y0137943D03*
X0194577Y0138238D03*
X0186014Y0137500D03*
X0184537Y0137500D03*
X0181880Y0141191D03*
X0180846Y0142667D03*
X0179813Y0144143D03*
X0178041Y0146801D03*
X0175089Y0138976D03*
X0179518Y0133809D03*
X0179665Y0133513D03*
X0179961Y0133070D03*
X0180404Y0132332D03*
X0181437Y0130856D03*
X0181585Y0130561D03*
X0181880Y0130118D03*
X0183356Y0127903D03*
X0183504Y0127608D03*
X0183799Y0127165D03*
X0176122Y0126427D03*
X0157963Y0105462D03*
X0177303Y0100590D03*
X0178780Y0075787D03*
X0177746Y0074311D03*
X0168593Y0072096D03*
X0174498Y0069143D03*
X0173022Y0061761D03*
X0173465Y0061023D03*
X0172579Y0157283D03*
X0173465Y0158612D03*
X0174498Y0160236D03*
X0143789Y0158612D03*
D19*
X0169331Y0163779D03*
X0169478Y0163927D03*
X0177746Y0171161D03*
X0176713Y0172637D03*
X0183356Y0150639D03*
X0184390Y0149163D03*
X0185423Y0147687D03*
X0201368Y0134252D03*
X0204469Y0129822D03*
X0204764Y0129380D03*
X0206240Y0127165D03*
X0206388Y0126870D03*
X0207421Y0125393D03*
X0207717Y0124950D03*
X0208159Y0124212D03*
X0209341Y0122441D03*
X0213327Y0116092D03*
X0189262Y0129822D03*
X0186752Y0125689D03*
X0177156Y0124950D03*
X0175679Y0126427D03*
X0169626Y0130118D03*
X0170069Y0130856D03*
X0156191Y0141633D03*
X0175974Y0114616D03*
X0180551Y0112106D03*
X0181142Y0091437D03*
X0180846Y0090994D03*
X0171841Y0082578D03*
X0171398Y0076525D03*
X0152057Y0077263D03*
X0190886Y0082578D03*
D20*
X0193248Y0086565D03*
X0191181Y0090108D03*
X0199596Y0093799D03*
X0195610Y0096161D03*
X0195463Y0096456D03*
X0177746Y0086269D03*
X0176122Y0088779D03*
X0175827Y0089222D03*
X0175531Y0089665D03*
X0175384Y0089960D03*
X0175089Y0090403D03*
X0174793Y0090846D03*
X0152500Y0097047D03*
X0152352Y0077264D03*
X0152205Y0077264D03*
X0143789Y0071801D03*
X0144085Y0056151D03*
X0183504Y0115058D03*
X0183209Y0115502D03*
X0182913Y0115945D03*
X0182766Y0116240D03*
X0182618Y0116388D03*
X0181289Y0118455D03*
X0179813Y0120817D03*
X0173760Y0118602D03*
X0174203Y0124212D03*
X0174350Y0124508D03*
X0174646Y0124951D03*
X0175089Y0125689D03*
X0172579Y0134990D03*
X0189262Y0142667D03*
X0189409Y0142962D03*
X0189557Y0143258D03*
X0189705Y0143405D03*
X0189852Y0143701D03*
X0190000Y0143996D03*
X0190148Y0144144D03*
X0190295Y0144439D03*
X0190443Y0144734D03*
X0190886Y0145472D03*
X0191033Y0145767D03*
X0191181Y0146063D03*
X0192657Y0148425D03*
X0199744Y0133071D03*
X0199449Y0132628D03*
X0199154Y0132185D03*
X0198711Y0131447D03*
X0198415Y0131003D03*
X0193396Y0123179D03*
X0193248Y0122884D03*
X0192953Y0122440D03*
X0192657Y0121998D03*
X0192362Y0121555D03*
X0192067Y0121112D03*
X0203730Y0118455D03*
X0204469Y0117864D03*
X0213179Y0116092D03*
X0155600Y0141191D03*
X0152943Y0140305D03*
X0147333Y0130266D03*
X0152205Y0127608D03*
X0152352Y0127460D03*
X0147185Y0124360D03*
X0149695Y0155216D03*
X0174350Y0171456D03*
X0174498Y0171604D03*
X0174646Y0171899D03*
X0174793Y0172047D03*
D21*
X0161654Y0169242D03*
X0158110Y0154478D03*
X0147480Y0155364D03*
X0174055Y0150935D03*
X0168888Y0116092D03*
X0213031Y0116092D03*
X0182913Y0067372D03*
X0144675Y0056151D03*
D22*
X0144823Y0055856D03*
X0144970Y0055856D03*
X0159291Y0063976D03*
X0195906Y0095128D03*
X0202402Y0110187D03*
X0212884Y0116092D03*
X0176713Y0112844D03*
X0173317Y0121998D03*
X0144085Y0121998D03*
X0143642Y0143848D03*
X0192362Y0148425D03*
X0195020Y0139714D03*
D23*
X0173465Y0122145D03*
X0202254Y0110187D03*
X0212736Y0116092D03*
X0196053Y0094832D03*
X0169035Y0087746D03*
X0184390Y0074754D03*
X0157963Y0064124D03*
D24*
X0161506Y0057480D03*
X0197087Y0093651D03*
X0197234Y0093651D03*
X0194577Y0098819D03*
X0203878Y0100738D03*
X0204026Y0100885D03*
X0212589Y0116092D03*
X0207126Y0117273D03*
X0161654Y0145620D03*
X0176713Y0150049D03*
X0187638Y0157283D03*
D25*
X0195758Y0141560D03*
X0195610Y0141412D03*
X0195463Y0141117D03*
X0173022Y0120891D03*
X0158110Y0122071D03*
X0138474Y0100517D03*
X0143051Y0095644D03*
X0161506Y0081471D03*
X0180551Y0080143D03*
X0186900Y0075122D03*
X0187638Y0087967D03*
X0187933Y0088410D03*
X0194724Y0098745D03*
X0199154Y0108637D03*
X0212441Y0116166D03*
X0138474Y0060211D03*
X0161358Y0057406D03*
D26*
X0187490Y0075861D03*
X0172579Y0079995D03*
X0178632Y0086048D03*
X0199449Y0109227D03*
X0199744Y0109522D03*
X0212293Y0116166D03*
D27*
X0212146Y0116166D03*
X0161654Y0073942D03*
X0144380Y0072465D03*
X0152205Y0055487D03*
X0155453Y0162819D03*
D28*
X0149104Y0163558D03*
X0148957Y0163558D03*
X0157815Y0172416D03*
X0169035Y0163262D03*
X0168740Y0162820D03*
X0168297Y0162081D03*
X0168150Y0161934D03*
X0167707Y0161196D03*
X0173760Y0159129D03*
X0174055Y0159571D03*
X0174350Y0160015D03*
X0176270Y0160605D03*
X0176417Y0160457D03*
X0176565Y0160309D03*
X0176860Y0159867D03*
X0177451Y0158981D03*
X0177598Y0158833D03*
X0177894Y0158391D03*
X0178484Y0157505D03*
X0178632Y0157357D03*
X0178780Y0157062D03*
X0178927Y0156914D03*
X0179075Y0156767D03*
X0179370Y0156324D03*
X0179518Y0156028D03*
X0179665Y0155880D03*
X0179961Y0155438D03*
X0180404Y0154847D03*
X0180551Y0154552D03*
X0180699Y0154404D03*
X0180846Y0154109D03*
X0180994Y0153961D03*
X0181585Y0153076D03*
X0181732Y0152928D03*
X0182028Y0152485D03*
X0182766Y0151451D03*
X0183652Y0150123D03*
X0183947Y0149680D03*
X0184094Y0149532D03*
X0177598Y0147465D03*
X0177303Y0147908D03*
X0177156Y0148204D03*
X0179075Y0145251D03*
X0180699Y0142889D03*
X0182323Y0140526D03*
X0182618Y0140083D03*
X0182913Y0139641D03*
X0183209Y0139198D03*
X0183356Y0139050D03*
X0184242Y0137721D03*
X0184390Y0137573D03*
X0186309Y0137869D03*
X0192510Y0134916D03*
X0192362Y0134620D03*
X0192215Y0134473D03*
X0192067Y0134178D03*
X0191919Y0134030D03*
X0192805Y0135359D03*
X0192953Y0135654D03*
X0193248Y0136097D03*
X0193839Y0136983D03*
X0194281Y0137721D03*
X0194724Y0138459D03*
X0200925Y0134473D03*
X0201073Y0134473D03*
X0190591Y0131816D03*
X0190443Y0131668D03*
X0190000Y0130930D03*
X0189705Y0130487D03*
X0189409Y0130044D03*
X0184685Y0126058D03*
X0184390Y0126353D03*
X0176270Y0126353D03*
X0178780Y0134916D03*
X0177894Y0136245D03*
X0177598Y0136688D03*
X0177451Y0136983D03*
X0177303Y0137131D03*
X0152057Y0127534D03*
X0171398Y0109375D03*
X0177451Y0100517D03*
X0177894Y0100221D03*
X0191329Y0095054D03*
X0191476Y0095349D03*
X0191772Y0095792D03*
X0192067Y0096235D03*
X0192510Y0096973D03*
X0193100Y0097859D03*
X0193248Y0098007D03*
X0193396Y0098302D03*
X0193543Y0098449D03*
X0196791Y0103617D03*
X0197382Y0104503D03*
X0197677Y0104946D03*
X0197972Y0105389D03*
X0198268Y0105831D03*
X0198415Y0106127D03*
X0198711Y0106569D03*
X0198858Y0106717D03*
X0205797Y0104650D03*
X0206093Y0105093D03*
X0206240Y0105389D03*
X0206683Y0105979D03*
X0208898Y0109375D03*
X0209193Y0109818D03*
X0209488Y0110260D03*
X0210079Y0111146D03*
X0210374Y0111589D03*
X0210669Y0112032D03*
X0210965Y0112475D03*
X0211407Y0113213D03*
X0211555Y0113361D03*
X0211850Y0113804D03*
X0211998Y0114099D03*
X0211850Y0118528D03*
X0211555Y0118971D03*
X0211407Y0119267D03*
X0211260Y0119414D03*
X0211112Y0119709D03*
X0210817Y0120152D03*
X0210522Y0120595D03*
X0210374Y0120891D03*
X0210079Y0121333D03*
X0209931Y0121481D03*
X0209636Y0121924D03*
X0209488Y0122219D03*
X0209193Y0122662D03*
X0208898Y0123105D03*
X0203435Y0119267D03*
X0202106Y0121481D03*
X0201959Y0121629D03*
X0189409Y0092101D03*
X0189114Y0091658D03*
X0188967Y0091363D03*
X0188819Y0091215D03*
X0188671Y0090920D03*
X0188376Y0090477D03*
X0171102Y0083686D03*
X0170659Y0084276D03*
X0170512Y0084572D03*
X0170364Y0084719D03*
X0170217Y0085015D03*
X0170069Y0085162D03*
X0169921Y0085457D03*
X0168445Y0080585D03*
X0178041Y0074680D03*
X0178337Y0075122D03*
X0178632Y0075566D03*
X0179075Y0076304D03*
X0179222Y0076452D03*
X0179665Y0077190D03*
X0176713Y0072613D03*
X0176417Y0072170D03*
X0176122Y0071727D03*
X0175974Y0071431D03*
X0175679Y0070989D03*
X0175236Y0070251D03*
X0174941Y0069808D03*
X0174793Y0069660D03*
X0173317Y0067298D03*
X0171398Y0064641D03*
X0179370Y0168725D03*
X0179075Y0169168D03*
X0178927Y0169316D03*
X0173022Y0169611D03*
X0176122Y0173154D03*
D29*
X0173169Y0169758D03*
X0179665Y0168282D03*
X0176122Y0160900D03*
X0177156Y0159424D03*
X0178189Y0157947D03*
X0179222Y0156471D03*
X0180256Y0154995D03*
X0181289Y0153518D03*
X0182323Y0152042D03*
X0183799Y0149975D03*
X0173022Y0157947D03*
X0168445Y0162377D03*
X0156339Y0141707D03*
X0174941Y0138755D03*
X0183504Y0138755D03*
X0191181Y0132849D03*
X0190295Y0131373D03*
X0188376Y0128420D03*
X0186604Y0125467D03*
X0193100Y0135802D03*
X0194872Y0138755D03*
X0210226Y0121038D03*
X0211703Y0113656D03*
X0209783Y0110703D03*
X0192805Y0097416D03*
X0178632Y0100369D03*
X0177746Y0100369D03*
X0182470Y0106274D03*
X0171545Y0109227D03*
X0170807Y0084129D03*
X0179370Y0076747D03*
X0177451Y0073794D03*
X0174646Y0069365D03*
X0168740Y0072318D03*
D30*
X0178927Y0076008D03*
X0180108Y0081914D03*
X0188524Y0090772D03*
X0197087Y0104060D03*
X0206388Y0105536D03*
X0211260Y0112918D03*
X0209783Y0121776D03*
X0200925Y0121776D03*
X0190738Y0132111D03*
X0192657Y0135064D03*
X0193543Y0136540D03*
X0183061Y0139493D03*
X0182028Y0140969D03*
X0180994Y0142445D03*
X0177746Y0136540D03*
X0184537Y0126205D03*
X0168002Y0161638D03*
X0178189Y0170497D03*
D31*
X0178632Y0169685D03*
X0178780Y0169537D03*
X0175974Y0173228D03*
X0175827Y0173228D03*
X0175679Y0173228D03*
X0175974Y0160974D03*
X0174941Y0160827D03*
X0174203Y0159793D03*
X0173907Y0159350D03*
X0173317Y0158464D03*
X0172874Y0157726D03*
X0172431Y0156988D03*
X0172136Y0156545D03*
X0167264Y0160531D03*
X0167411Y0160827D03*
X0167559Y0160974D03*
X0167854Y0161417D03*
X0177746Y0147244D03*
X0177894Y0146949D03*
X0178189Y0146506D03*
X0178337Y0146358D03*
X0178484Y0146063D03*
X0178632Y0145915D03*
X0178780Y0145620D03*
X0178927Y0145472D03*
X0179222Y0145029D03*
X0179370Y0144882D03*
X0179518Y0144586D03*
X0179665Y0144439D03*
X0179961Y0143996D03*
X0180108Y0143701D03*
X0180256Y0143553D03*
X0180551Y0143110D03*
X0181142Y0142224D03*
X0181289Y0142077D03*
X0181585Y0141634D03*
X0181732Y0141338D03*
X0182175Y0140748D03*
X0176270Y0138681D03*
X0178632Y0135138D03*
X0179222Y0134252D03*
X0179813Y0133366D03*
X0180256Y0132628D03*
X0180551Y0132185D03*
X0180699Y0131890D03*
X0181142Y0131299D03*
X0181732Y0130413D03*
X0182175Y0129675D03*
X0182470Y0129232D03*
X0183061Y0128346D03*
X0183652Y0127460D03*
X0184094Y0126722D03*
X0186457Y0125246D03*
X0172136Y0120964D03*
X0191033Y0132628D03*
X0191476Y0133366D03*
X0193396Y0136319D03*
X0193986Y0137205D03*
X0171545Y0145620D03*
X0201073Y0121850D03*
X0202402Y0120964D03*
X0202992Y0120079D03*
X0210669Y0120374D03*
X0211112Y0112697D03*
X0209636Y0110482D03*
X0209341Y0110039D03*
X0208750Y0109153D03*
X0208159Y0108268D03*
X0207717Y0107529D03*
X0207421Y0107086D03*
X0206831Y0106201D03*
X0198120Y0105610D03*
X0197530Y0104724D03*
X0196939Y0103838D03*
X0196496Y0103100D03*
X0196201Y0102657D03*
X0196053Y0102362D03*
X0195610Y0101771D03*
X0192657Y0097195D03*
X0192362Y0096752D03*
X0192215Y0096456D03*
X0189262Y0092027D03*
X0193543Y0086565D03*
X0181585Y0080069D03*
X0180108Y0077854D03*
X0179961Y0077706D03*
X0179813Y0077411D03*
X0179518Y0076968D03*
X0178189Y0074901D03*
X0177894Y0074458D03*
X0176270Y0071949D03*
X0174350Y0068996D03*
X0173465Y0067519D03*
X0168445Y0071949D03*
X0183209Y0067372D03*
X0186752Y0076378D03*
X0173169Y0061466D03*
X0173612Y0060728D03*
X0157963Y0090256D03*
X0178041Y0100147D03*
D32*
X0191624Y0095570D03*
X0191919Y0096013D03*
X0195463Y0101476D03*
X0195758Y0101919D03*
X0195906Y0102214D03*
X0196644Y0103395D03*
X0197825Y0105167D03*
X0207126Y0106643D03*
X0207569Y0107381D03*
X0207864Y0107824D03*
X0208602Y0108858D03*
X0209045Y0109596D03*
X0210522Y0111811D03*
X0210817Y0112254D03*
X0210965Y0119931D03*
X0203287Y0119635D03*
X0186309Y0125098D03*
X0184242Y0126574D03*
X0183947Y0127017D03*
X0183209Y0128051D03*
X0182766Y0128789D03*
X0182028Y0129970D03*
X0181289Y0131004D03*
X0180994Y0131446D03*
X0180846Y0131742D03*
X0179370Y0133956D03*
X0179075Y0134399D03*
X0178927Y0134694D03*
X0177156Y0137352D03*
X0176122Y0138828D03*
X0181437Y0141781D03*
X0182470Y0140305D03*
X0182766Y0139862D03*
X0185866Y0137352D03*
X0186161Y0137647D03*
X0180404Y0143257D03*
X0177451Y0147687D03*
X0172726Y0157431D03*
X0173169Y0158169D03*
X0173612Y0158907D03*
X0174646Y0160383D03*
X0175827Y0161122D03*
X0150581Y0153002D03*
X0175827Y0126574D03*
X0175974Y0126574D03*
X0201220Y0134399D03*
X0171250Y0109596D03*
X0178484Y0075344D03*
X0176565Y0072391D03*
X0173760Y0060580D03*
D33*
X0175089Y0070029D03*
X0171102Y0076082D03*
X0171250Y0083464D03*
X0189409Y0080364D03*
X0189557Y0080511D03*
X0190443Y0081840D03*
X0191476Y0083464D03*
X0191181Y0094832D03*
X0199744Y0093799D03*
X0205207Y0103691D03*
X0205502Y0104133D03*
X0205650Y0104429D03*
X0172283Y0108120D03*
X0171988Y0108563D03*
X0206093Y0127313D03*
X0205797Y0127756D03*
X0205650Y0128051D03*
X0206831Y0126279D03*
X0207126Y0125836D03*
X0207569Y0125098D03*
X0208602Y0123622D03*
X0208750Y0123326D03*
X0209045Y0122883D03*
X0189852Y0130708D03*
X0189557Y0130265D03*
X0189114Y0129527D03*
X0186457Y0138090D03*
X0183947Y0138090D03*
X0183799Y0138385D03*
X0176565Y0138385D03*
X0186900Y0145472D03*
X0182175Y0152263D03*
X0181142Y0153740D03*
X0180108Y0155216D03*
X0178041Y0158169D03*
X0177008Y0159645D03*
X0168593Y0162598D03*
X0170512Y0165551D03*
X0172431Y0168504D03*
X0172874Y0169242D03*
X0178041Y0170718D03*
X0179518Y0168504D03*
X0176417Y0172933D03*
X0143789Y0080364D03*
D34*
X0152648Y0076968D03*
X0168888Y0072539D03*
X0169035Y0072687D03*
X0169478Y0073425D03*
X0175384Y0070472D03*
X0175531Y0070767D03*
X0175827Y0071210D03*
X0188671Y0079183D03*
X0188967Y0079625D03*
X0189114Y0079921D03*
X0189262Y0080069D03*
X0189705Y0080807D03*
X0189852Y0080955D03*
X0190000Y0081250D03*
X0190148Y0081397D03*
X0190295Y0081693D03*
X0190591Y0082136D03*
X0190738Y0082283D03*
X0191181Y0083021D03*
X0180108Y0089813D03*
X0170955Y0083907D03*
X0171545Y0083021D03*
X0169774Y0085679D03*
X0169626Y0085974D03*
X0151909Y0097490D03*
X0171693Y0109006D03*
X0177598Y0100443D03*
X0182618Y0106348D03*
X0193691Y0098671D03*
X0205354Y0103986D03*
X0205945Y0104872D03*
X0198563Y0106348D03*
X0200778Y0121555D03*
X0206978Y0125984D03*
X0207274Y0125541D03*
X0208012Y0124508D03*
X0208307Y0124065D03*
X0208455Y0123769D03*
X0206535Y0126722D03*
X0205945Y0127608D03*
X0205354Y0128494D03*
X0205059Y0128937D03*
X0201516Y0134104D03*
X0190148Y0131151D03*
X0187047Y0126132D03*
X0186900Y0125984D03*
X0176417Y0126132D03*
X0176417Y0138533D03*
X0183652Y0138533D03*
X0184094Y0137943D03*
X0186752Y0138533D03*
X0187638Y0144439D03*
X0187343Y0144882D03*
X0187195Y0145029D03*
X0186604Y0145915D03*
X0185719Y0147244D03*
X0185276Y0147834D03*
X0184980Y0148277D03*
X0184685Y0148720D03*
X0184537Y0148868D03*
X0184242Y0149311D03*
X0183504Y0150344D03*
X0183209Y0150787D03*
X0183061Y0151082D03*
X0182913Y0151230D03*
X0182618Y0151673D03*
X0182470Y0151821D03*
X0181880Y0152706D03*
X0181437Y0153297D03*
X0179813Y0155659D03*
X0178337Y0157726D03*
X0177746Y0158612D03*
X0177303Y0159203D03*
X0176713Y0160088D03*
X0169774Y0164370D03*
X0170217Y0165108D03*
X0170807Y0165994D03*
X0171102Y0166437D03*
X0171841Y0167618D03*
X0172136Y0168061D03*
X0172579Y0168799D03*
X0177451Y0171604D03*
X0177156Y0172047D03*
X0176565Y0172785D03*
X0176270Y0173081D03*
X0177894Y0170866D03*
X0178337Y0170275D03*
X0178484Y0170128D03*
X0179222Y0168947D03*
X0179813Y0168061D03*
X0179961Y0167913D03*
X0180108Y0167618D03*
X0180256Y0167470D03*
X0180404Y0167175D03*
X0169183Y0163484D03*
X0168888Y0163041D03*
X0148809Y0163484D03*
X0148661Y0163484D03*
X0135079Y0177805D03*
X0173760Y0150787D03*
X0171250Y0145915D03*
X0192805Y0148425D03*
D35*
X0185719Y0137205D03*
X0184833Y0137205D03*
X0175384Y0139124D03*
X0171693Y0145620D03*
X0169921Y0153002D03*
X0170069Y0153297D03*
X0175089Y0160974D03*
X0150728Y0152854D03*
X0140098Y0179724D03*
X0186161Y0124951D03*
X0201368Y0121998D03*
X0201516Y0121998D03*
X0208012Y0117569D03*
X0202992Y0110334D03*
X0180699Y0112106D03*
X0164311Y0115059D03*
X0161949Y0114764D03*
X0161801Y0114764D03*
X0161654Y0114764D03*
X0160177Y0114616D03*
X0156781Y0114321D03*
X0155010Y0114173D03*
X0153386Y0114025D03*
X0139951Y0112844D03*
X0139803Y0112844D03*
X0139656Y0112844D03*
X0139508Y0112844D03*
X0141575Y0103986D03*
X0147333Y0084055D03*
X0168297Y0071801D03*
X0177303Y0073720D03*
X0152500Y0057332D03*
X0143051Y0056742D03*
X0142904Y0056742D03*
X0142756Y0056742D03*
X0142608Y0056742D03*
X0142461Y0056742D03*
X0142313Y0056742D03*
X0142165Y0056742D03*
X0142018Y0056742D03*
X0199892Y0093799D03*
X0178484Y0100000D03*
X0178337Y0100000D03*
X0177008Y0100738D03*
D36*
X0176860Y0101402D03*
X0176565Y0101845D03*
X0176122Y0102436D03*
X0175827Y0102879D03*
X0175531Y0103322D03*
X0174941Y0104207D03*
X0174498Y0104798D03*
X0174350Y0105093D03*
X0174055Y0105536D03*
X0173907Y0105683D03*
X0173317Y0106570D03*
X0173169Y0106865D03*
X0173022Y0107013D03*
X0172874Y0107308D03*
X0172579Y0107751D03*
X0172136Y0108341D03*
X0171841Y0108784D03*
X0175384Y0115723D03*
X0175089Y0116166D03*
X0174646Y0116904D03*
X0178484Y0122810D03*
X0178189Y0123253D03*
X0178041Y0123548D03*
X0177746Y0123991D03*
X0177598Y0124286D03*
X0177303Y0124729D03*
X0176860Y0125467D03*
X0176713Y0125763D03*
X0169478Y0129896D03*
X0169921Y0130635D03*
X0170364Y0131373D03*
X0170512Y0131668D03*
X0170807Y0132111D03*
X0176713Y0138164D03*
X0176860Y0138017D03*
X0186604Y0138312D03*
X0186900Y0138755D03*
X0187047Y0139050D03*
X0187343Y0139493D03*
X0187490Y0144660D03*
X0187047Y0145251D03*
X0186752Y0145694D03*
X0186457Y0146137D03*
X0186309Y0146432D03*
X0186161Y0146580D03*
X0186014Y0146875D03*
X0185128Y0148056D03*
X0191181Y0150713D03*
X0190886Y0151156D03*
X0190000Y0152485D03*
X0189557Y0153223D03*
X0189262Y0153666D03*
X0189114Y0153961D03*
X0188967Y0154109D03*
X0184242Y0164444D03*
X0180551Y0166954D03*
X0177598Y0171383D03*
X0177303Y0171826D03*
X0176860Y0172416D03*
X0173612Y0170349D03*
X0173317Y0169906D03*
X0171693Y0167396D03*
X0171398Y0166954D03*
X0170659Y0165772D03*
X0171398Y0145694D03*
X0188967Y0129306D03*
X0188819Y0129011D03*
X0188081Y0127829D03*
X0187933Y0127534D03*
X0187195Y0126353D03*
X0200335Y0121038D03*
X0203583Y0118971D03*
X0207864Y0117494D03*
X0207864Y0124729D03*
X0206683Y0126501D03*
X0205207Y0128715D03*
X0204911Y0129158D03*
X0204026Y0130487D03*
X0203730Y0130930D03*
X0200778Y0134326D03*
X0189114Y0116609D03*
X0188819Y0116018D03*
X0184094Y0108636D03*
X0183061Y0107013D03*
X0182766Y0106570D03*
X0188376Y0102583D03*
X0188081Y0102141D03*
X0187343Y0100959D03*
X0186457Y0099631D03*
X0186161Y0099188D03*
X0185571Y0098302D03*
X0185423Y0098007D03*
X0184980Y0097416D03*
X0184685Y0096973D03*
X0184537Y0096678D03*
X0184242Y0096235D03*
X0183652Y0095349D03*
X0183061Y0094463D03*
X0182913Y0094168D03*
X0182766Y0094020D03*
X0182618Y0093725D03*
X0182323Y0093282D03*
X0182175Y0092987D03*
X0181880Y0092544D03*
X0181732Y0092396D03*
X0181585Y0092101D03*
X0181437Y0091954D03*
X0180994Y0091215D03*
X0180699Y0090772D03*
X0180551Y0090477D03*
X0180404Y0090330D03*
X0180256Y0090034D03*
X0179961Y0089591D03*
X0179813Y0089296D03*
X0177008Y0087229D03*
X0177303Y0086786D03*
X0173907Y0092101D03*
X0165935Y0089001D03*
X0171398Y0083243D03*
X0171693Y0082800D03*
X0171988Y0082357D03*
X0171693Y0077042D03*
X0171250Y0076304D03*
X0170955Y0075861D03*
X0170069Y0074385D03*
X0169921Y0074089D03*
X0169774Y0073942D03*
X0169183Y0072908D03*
X0181437Y0080143D03*
X0188228Y0078519D03*
X0188376Y0078666D03*
X0188819Y0079404D03*
X0191033Y0082800D03*
X0191329Y0083243D03*
X0191624Y0083686D03*
X0193396Y0086639D03*
X0189557Y0092249D03*
X0178927Y0100664D03*
X0179222Y0101107D03*
X0169183Y0099778D03*
X0189409Y0104207D03*
X0199006Y0107013D03*
X0202844Y0110261D03*
X0205059Y0103322D03*
X0200925Y0100664D03*
X0164459Y0115428D03*
X0152648Y0127239D03*
X0143789Y0121629D03*
X0151762Y0053715D03*
D37*
X0185719Y0111515D03*
X0203878Y0118159D03*
X0207717Y0117421D03*
X0155305Y0141043D03*
X0185276Y0157874D03*
D38*
X0207569Y0117347D03*
D39*
X0207421Y0117347D03*
X0201516Y0100812D03*
X0177156Y0112180D03*
D40*
X0204173Y0101107D03*
X0207274Y0117347D03*
X0188228Y0156323D03*
X0181585Y0164444D03*
X0179961Y0067445D03*
D41*
X0172431Y0066855D03*
X0184685Y0072760D03*
X0179813Y0113804D03*
X0205207Y0119709D03*
X0206831Y0119709D03*
X0206831Y0114985D03*
X0196348Y0144512D03*
X0149990Y0156323D03*
D42*
X0174498Y0149016D03*
X0187195Y0155512D03*
X0185866Y0159941D03*
X0196644Y0144734D03*
X0196496Y0144586D03*
X0197972Y0144734D03*
X0198120Y0144586D03*
X0198120Y0139862D03*
X0206535Y0119931D03*
X0206683Y0119783D03*
X0206683Y0114911D03*
X0201959Y0112401D03*
X0200925Y0108120D03*
X0200778Y0108120D03*
X0201073Y0107972D03*
X0201220Y0107972D03*
X0201368Y0107972D03*
X0201516Y0107972D03*
X0203435Y0103248D03*
X0203583Y0102953D03*
X0201811Y0098523D03*
X0202402Y0098081D03*
X0202549Y0098081D03*
X0202697Y0098081D03*
X0202844Y0098081D03*
X0202992Y0098081D03*
X0198858Y0091584D03*
X0186900Y0089370D03*
X0185276Y0089370D03*
X0187047Y0084941D03*
X0182028Y0079921D03*
X0174203Y0079773D03*
X0167411Y0078888D03*
X0165640Y0079921D03*
X0170364Y0073720D03*
X0180404Y0070029D03*
X0181289Y0065453D03*
X0178632Y0063386D03*
X0170955Y0064862D03*
X0170955Y0109153D03*
X0179665Y0109892D03*
X0180994Y0112401D03*
X0173317Y0118012D03*
D43*
X0179370Y0114247D03*
X0201663Y0112770D03*
X0206388Y0114690D03*
X0206535Y0114690D03*
X0202254Y0103174D03*
X0202106Y0103174D03*
X0168002Y0091068D03*
X0168150Y0086638D03*
X0166673Y0086638D03*
X0166230Y0079109D03*
X0180551Y0070251D03*
X0184833Y0072465D03*
X0185276Y0085162D03*
X0176417Y0059916D03*
X0187195Y0159867D03*
X0182175Y0161934D03*
X0182028Y0161934D03*
D44*
X0182323Y0161786D03*
X0182470Y0161786D03*
X0182618Y0161786D03*
X0186161Y0160162D03*
X0186309Y0160162D03*
X0186457Y0160162D03*
X0186604Y0160162D03*
X0186752Y0160162D03*
X0182028Y0166068D03*
X0182618Y0166510D03*
X0175827Y0153223D03*
X0175531Y0148794D03*
X0169035Y0152337D03*
X0150433Y0152042D03*
X0149990Y0154257D03*
X0150285Y0162524D03*
X0149252Y0162524D03*
X0150728Y0165625D03*
X0139656Y0176993D03*
X0196791Y0144808D03*
X0196939Y0144956D03*
X0197087Y0144956D03*
X0197234Y0144956D03*
X0197530Y0144956D03*
X0197825Y0144808D03*
X0199301Y0142150D03*
X0197972Y0139641D03*
X0196496Y0139641D03*
X0205502Y0120005D03*
X0205650Y0120005D03*
X0205354Y0119857D03*
X0206093Y0120005D03*
X0206240Y0120005D03*
X0206388Y0120005D03*
X0206240Y0114542D03*
X0206093Y0114542D03*
X0205945Y0114542D03*
X0205354Y0114542D03*
X0201811Y0112623D03*
X0200187Y0112623D03*
X0200630Y0100517D03*
X0198563Y0096235D03*
X0198415Y0096235D03*
X0197677Y0096087D03*
X0198711Y0091363D03*
X0188376Y0087081D03*
X0186900Y0084867D03*
X0186604Y0084719D03*
X0186457Y0084719D03*
X0186752Y0089444D03*
X0185423Y0089444D03*
X0174055Y0079256D03*
X0167264Y0078814D03*
X0167116Y0078814D03*
X0166673Y0078814D03*
X0166378Y0078961D03*
X0165197Y0082062D03*
X0166230Y0082505D03*
X0166378Y0082652D03*
X0168297Y0090772D03*
X0168150Y0090920D03*
X0167411Y0091363D03*
X0167264Y0091363D03*
X0170512Y0073794D03*
X0180699Y0070398D03*
X0182175Y0069956D03*
X0182175Y0065674D03*
X0182028Y0065526D03*
X0181880Y0065379D03*
X0181732Y0065379D03*
X0181585Y0065379D03*
X0181437Y0065379D03*
X0181142Y0065526D03*
X0180994Y0065526D03*
X0176713Y0061983D03*
X0144528Y0052681D03*
X0177894Y0109522D03*
X0179370Y0109522D03*
X0179665Y0113952D03*
X0179518Y0114099D03*
X0178189Y0114099D03*
X0178041Y0113952D03*
D45*
X0178337Y0114173D03*
X0178484Y0114173D03*
X0178632Y0114320D03*
X0178780Y0114320D03*
X0178927Y0114320D03*
X0179075Y0114320D03*
X0179222Y0114320D03*
X0179222Y0109449D03*
X0170807Y0109301D03*
X0171545Y0120964D03*
X0169331Y0130856D03*
X0146742Y0135138D03*
X0147628Y0143701D03*
X0150138Y0154331D03*
X0150285Y0154331D03*
X0150285Y0156397D03*
X0150433Y0162451D03*
X0149547Y0162451D03*
X0149400Y0162451D03*
X0174941Y0153297D03*
X0175089Y0153297D03*
X0175089Y0148720D03*
X0175236Y0148720D03*
X0175384Y0148720D03*
X0174941Y0148720D03*
X0174793Y0148720D03*
X0185866Y0155659D03*
X0187047Y0155511D03*
X0186900Y0160088D03*
X0182175Y0166142D03*
X0182323Y0166289D03*
X0182470Y0166436D03*
X0197382Y0145029D03*
X0197677Y0144882D03*
X0197677Y0139419D03*
X0197530Y0139419D03*
X0197382Y0139419D03*
X0197234Y0139271D03*
X0197087Y0139271D03*
X0196939Y0139419D03*
X0196791Y0139419D03*
X0205797Y0120079D03*
X0205945Y0120079D03*
X0201516Y0112844D03*
X0202697Y0103395D03*
X0202844Y0103395D03*
X0202992Y0103395D03*
X0202402Y0103247D03*
X0198268Y0096309D03*
X0198120Y0096309D03*
X0197972Y0096309D03*
X0197825Y0096161D03*
X0198563Y0091289D03*
X0198415Y0091141D03*
X0198268Y0091141D03*
X0197530Y0091141D03*
X0186604Y0089518D03*
X0185719Y0089518D03*
X0185571Y0089518D03*
X0185423Y0084941D03*
X0185719Y0084793D03*
X0186309Y0084645D03*
X0186752Y0084793D03*
X0185719Y0077116D03*
X0184980Y0077116D03*
X0185128Y0072244D03*
X0186604Y0072392D03*
X0181437Y0070472D03*
X0181289Y0070472D03*
X0180846Y0065748D03*
X0178780Y0065157D03*
X0176565Y0059990D03*
X0161211Y0061909D03*
X0161506Y0064124D03*
X0170659Y0074015D03*
X0166969Y0078740D03*
X0166821Y0078740D03*
X0166526Y0078888D03*
X0165492Y0082136D03*
X0167559Y0082726D03*
X0168002Y0086565D03*
X0166821Y0086565D03*
X0167854Y0091141D03*
X0167559Y0091289D03*
X0144380Y0052755D03*
X0144232Y0052755D03*
D46*
X0180846Y0070546D03*
X0180994Y0070546D03*
X0181142Y0070546D03*
X0184833Y0077042D03*
X0167707Y0091215D03*
X0202549Y0103321D03*
X0203140Y0103321D03*
X0203287Y0103321D03*
X0205797Y0114394D03*
X0169035Y0116609D03*
X0196644Y0139493D03*
X0197825Y0139493D03*
X0175531Y0153371D03*
X0175384Y0153371D03*
X0175236Y0153371D03*
X0186014Y0160014D03*
X0187047Y0160014D03*
D47*
X0189409Y0153371D03*
X0189852Y0152780D03*
X0190295Y0152042D03*
X0185571Y0147465D03*
X0174793Y0138607D03*
X0188524Y0128568D03*
X0187638Y0127091D03*
X0187490Y0126796D03*
X0178780Y0122367D03*
X0172283Y0120890D03*
X0174941Y0116461D03*
X0175679Y0115280D03*
X0172431Y0107898D03*
X0173465Y0106422D03*
X0173612Y0106127D03*
X0174646Y0104650D03*
X0176417Y0101993D03*
X0178780Y0100516D03*
X0183947Y0095792D03*
X0183209Y0094611D03*
X0182028Y0092839D03*
X0181289Y0091658D03*
X0185128Y0097564D03*
X0185866Y0098745D03*
X0187047Y0100516D03*
X0189705Y0104650D03*
X0183652Y0107898D03*
X0184390Y0109079D03*
X0168888Y0100221D03*
X0189262Y0116756D03*
X0205502Y0128272D03*
X0204321Y0130044D03*
X0200630Y0134178D03*
X0169921Y0164591D03*
X0170364Y0165329D03*
X0171250Y0166658D03*
X0172283Y0168282D03*
X0172726Y0169020D03*
X0191772Y0083981D03*
X0169626Y0073646D03*
D48*
X0165492Y0073277D03*
X0186014Y0076820D03*
X0186161Y0076820D03*
X0193986Y0086565D03*
X0201959Y0098376D03*
X0179518Y0109744D03*
X0168445Y0099852D03*
X0205207Y0114616D03*
X0196348Y0139714D03*
X0172136Y0145620D03*
X0185719Y0155954D03*
X0182913Y0161860D03*
X0182766Y0161860D03*
X0182766Y0166437D03*
X0144675Y0052608D03*
D49*
X0172579Y0066929D03*
X0180404Y0066191D03*
X0203583Y0098376D03*
X0201811Y0102805D03*
X0205059Y0119488D03*
X0171693Y0120964D03*
X0147776Y0159498D03*
D50*
X0174350Y0152633D03*
X0205059Y0114690D03*
X0201663Y0108046D03*
X0203435Y0098302D03*
X0203287Y0098154D03*
X0203140Y0098154D03*
X0202254Y0098154D03*
X0198858Y0095940D03*
X0197530Y0095940D03*
X0199006Y0091806D03*
X0185128Y0089296D03*
X0185128Y0085310D03*
X0185866Y0076894D03*
X0182323Y0069660D03*
X0178927Y0065231D03*
X0170364Y0075861D03*
X0165787Y0079847D03*
X0168297Y0086786D03*
X0165640Y0089001D03*
X0166821Y0091068D03*
X0179813Y0110113D03*
X0177894Y0113656D03*
D51*
X0156191Y0105536D03*
X0156043Y0105536D03*
X0155600Y0105536D03*
X0168445Y0086934D03*
X0170807Y0076304D03*
X0176860Y0073351D03*
X0183356Y0067298D03*
X0177894Y0063312D03*
X0171102Y0064788D03*
X0160915Y0064345D03*
X0193839Y0086639D03*
X0204911Y0119119D03*
X0143789Y0126796D03*
X0184833Y0157652D03*
X0150728Y0172121D03*
D52*
X0166673Y0159203D03*
X0166821Y0159203D03*
X0181880Y0165846D03*
X0183209Y0162155D03*
X0187343Y0155659D03*
X0171102Y0145620D03*
X0204911Y0114911D03*
X0199006Y0095718D03*
X0187047Y0089222D03*
X0184980Y0089075D03*
X0168445Y0090403D03*
X0166083Y0082283D03*
X0165344Y0081840D03*
X0166378Y0071801D03*
X0177598Y0063090D03*
X0186457Y0076673D03*
X0171102Y0109006D03*
D53*
X0183061Y0115723D03*
X0183799Y0114690D03*
X0184094Y0114247D03*
X0172431Y0120890D03*
X0202697Y0110260D03*
X0204911Y0102879D03*
X0193986Y0098745D03*
X0195758Y0095792D03*
X0144528Y0056225D03*
X0144380Y0056225D03*
X0144232Y0056225D03*
X0184094Y0164296D03*
X0168888Y0181127D03*
D54*
X0184390Y0164591D03*
X0171545Y0155585D03*
X0147480Y0130782D03*
X0182618Y0129010D03*
X0201220Y0121924D03*
X0201663Y0121924D03*
X0204764Y0118676D03*
X0184242Y0087672D03*
X0143199Y0056668D03*
D55*
X0166526Y0087155D03*
X0203140Y0110334D03*
X0204764Y0115206D03*
X0173612Y0117716D03*
X0150581Y0172194D03*
D56*
X0204764Y0102214D03*
D57*
X0191033Y0106717D03*
X0183356Y0107455D03*
X0175236Y0103764D03*
X0174203Y0105241D03*
X0173760Y0105979D03*
X0172726Y0107455D03*
X0176713Y0101550D03*
X0169478Y0099335D03*
X0169035Y0100073D03*
X0183356Y0094906D03*
X0184833Y0097121D03*
X0185276Y0097859D03*
X0186752Y0100073D03*
X0188967Y0116314D03*
X0200630Y0121481D03*
X0204616Y0129601D03*
X0201663Y0134030D03*
X0188671Y0128863D03*
X0188228Y0128125D03*
X0187785Y0127386D03*
X0187343Y0126648D03*
X0177894Y0123695D03*
X0177451Y0124434D03*
X0177008Y0125172D03*
X0176565Y0125910D03*
X0169774Y0130339D03*
X0170217Y0131077D03*
X0170659Y0131816D03*
X0171102Y0132554D03*
X0156043Y0141412D03*
X0184833Y0148499D03*
X0185866Y0147022D03*
X0190591Y0151599D03*
X0190148Y0152337D03*
X0189705Y0152928D03*
X0188819Y0154404D03*
X0169626Y0164148D03*
X0170069Y0164886D03*
X0170955Y0166215D03*
X0171545Y0167101D03*
X0171988Y0167839D03*
X0173465Y0170054D03*
X0175531Y0173006D03*
X0177008Y0172268D03*
X0147333Y0124434D03*
X0157963Y0120743D03*
X0188524Y0078961D03*
X0171545Y0076747D03*
X0169331Y0073203D03*
D58*
X0179813Y0067298D03*
X0204616Y0117199D03*
X0172874Y0120890D03*
D59*
X0185423Y0111515D03*
X0204616Y0101919D03*
X0190148Y0092322D03*
X0161801Y0156988D03*
D60*
X0146004Y0135137D03*
X0145856Y0135137D03*
X0204469Y0114763D03*
X0146299Y0084941D03*
X0146152Y0084941D03*
X0176860Y0071506D03*
X0183504Y0067224D03*
X0177598Y0061319D03*
D61*
X0180846Y0080290D03*
X0204469Y0101550D03*
X0177746Y0111589D03*
X0192215Y0148351D03*
X0188376Y0156028D03*
X0148957Y0154552D03*
X0148809Y0154552D03*
X0148661Y0154552D03*
D62*
X0155748Y0141264D03*
X0143789Y0130930D03*
X0175384Y0126058D03*
X0179961Y0120595D03*
X0180699Y0119414D03*
X0180846Y0119119D03*
X0181142Y0118676D03*
X0181585Y0117938D03*
X0180404Y0112032D03*
X0176270Y0114247D03*
X0174055Y0117938D03*
X0186014Y0111737D03*
X0193986Y0111294D03*
X0200187Y0108784D03*
X0196348Y0114985D03*
X0198268Y0117938D03*
X0204173Y0117938D03*
X0204321Y0117938D03*
X0193839Y0123843D03*
X0194281Y0124581D03*
X0196201Y0127534D03*
X0196644Y0128272D03*
X0197382Y0129453D03*
X0198120Y0130487D03*
X0198563Y0131225D03*
X0199006Y0131963D03*
X0199301Y0132406D03*
X0200039Y0133440D03*
X0200335Y0133882D03*
X0191919Y0120890D03*
X0191772Y0120595D03*
X0191476Y0120152D03*
X0181585Y0104650D03*
X0181437Y0104355D03*
X0181142Y0103912D03*
X0171841Y0095497D03*
X0172136Y0095054D03*
X0174646Y0091068D03*
X0191476Y0089591D03*
X0168297Y0080585D03*
X0172579Y0062869D03*
X0174941Y0172268D03*
D63*
X0150876Y0162303D03*
X0169921Y0149606D03*
X0170069Y0149458D03*
X0170955Y0146506D03*
X0172431Y0145768D03*
X0193396Y0148720D03*
X0204321Y0114911D03*
X0147333Y0071063D03*
X0161506Y0061466D03*
X0177746Y0061319D03*
D64*
X0172136Y0064419D03*
X0179518Y0066929D03*
X0179665Y0067077D03*
X0182470Y0067519D03*
X0184537Y0074753D03*
X0178337Y0086122D03*
X0168888Y0088041D03*
X0168740Y0088189D03*
X0190295Y0092323D03*
X0196201Y0094537D03*
X0196496Y0094094D03*
X0196644Y0093947D03*
X0196791Y0093799D03*
X0192805Y0086565D03*
X0204321Y0101329D03*
X0144232Y0121998D03*
X0188524Y0142224D03*
X0195167Y0140305D03*
X0183504Y0164222D03*
X0161358Y0169390D03*
X0138770Y0167470D03*
X0149104Y0154478D03*
X0149252Y0154478D03*
X0149400Y0154478D03*
D65*
X0155896Y0141338D03*
X0171398Y0133071D03*
X0171250Y0132775D03*
X0171693Y0133514D03*
X0172136Y0134252D03*
X0173169Y0136023D03*
X0173465Y0136466D03*
X0173907Y0137205D03*
X0174055Y0137500D03*
X0174646Y0138386D03*
X0187638Y0140009D03*
X0200482Y0133956D03*
X0202254Y0133218D03*
X0202549Y0132775D03*
X0202697Y0132480D03*
X0202992Y0132037D03*
X0203287Y0131594D03*
X0203583Y0131151D03*
X0204173Y0130266D03*
X0196496Y0128051D03*
X0196053Y0127313D03*
X0195758Y0126870D03*
X0194724Y0125245D03*
X0194577Y0125098D03*
X0194134Y0124360D03*
X0200187Y0120816D03*
X0200039Y0120669D03*
X0199744Y0120226D03*
X0199596Y0119931D03*
X0199449Y0119783D03*
X0199301Y0119488D03*
X0199154Y0119340D03*
X0198563Y0118455D03*
X0198120Y0117716D03*
X0197825Y0117273D03*
X0197530Y0116831D03*
X0197234Y0116387D03*
X0196201Y0114764D03*
X0195906Y0114321D03*
X0195758Y0114025D03*
X0195463Y0113582D03*
X0194429Y0111958D03*
X0194281Y0111811D03*
X0193839Y0111073D03*
X0193543Y0110630D03*
X0193396Y0110334D03*
X0193100Y0109892D03*
X0192805Y0109449D03*
X0192510Y0109005D03*
X0191919Y0108120D03*
X0191624Y0107677D03*
X0191476Y0107382D03*
X0191181Y0106939D03*
X0190886Y0106496D03*
X0190738Y0106201D03*
X0190591Y0106053D03*
X0190000Y0105167D03*
X0189557Y0104429D03*
X0189262Y0103986D03*
X0189114Y0103691D03*
X0188967Y0103543D03*
X0188819Y0103248D03*
X0188671Y0103100D03*
X0187785Y0101623D03*
X0187638Y0101476D03*
X0187195Y0100738D03*
X0186900Y0100295D03*
X0185719Y0098523D03*
X0183799Y0095571D03*
X0183504Y0095128D03*
X0182470Y0093504D03*
X0174203Y0091732D03*
X0174055Y0091880D03*
X0173465Y0092913D03*
X0173022Y0093651D03*
X0172726Y0094094D03*
X0172283Y0094832D03*
X0171693Y0095718D03*
X0170807Y0097194D03*
X0170512Y0097638D03*
X0170217Y0098081D03*
X0169921Y0098671D03*
X0169774Y0098819D03*
X0169626Y0099114D03*
X0169331Y0099557D03*
X0175384Y0103543D03*
X0175679Y0103100D03*
X0176270Y0102214D03*
X0175089Y0103986D03*
X0174793Y0104429D03*
X0179665Y0101771D03*
X0183504Y0107677D03*
X0183799Y0108120D03*
X0183947Y0108415D03*
X0184242Y0108858D03*
X0186309Y0112106D03*
X0186604Y0112549D03*
X0187195Y0113434D03*
X0187490Y0113878D03*
X0187785Y0114321D03*
X0188081Y0114764D03*
X0188228Y0115059D03*
X0188376Y0115354D03*
X0188524Y0115502D03*
X0188671Y0115797D03*
X0189409Y0116978D03*
X0190591Y0118750D03*
X0191033Y0119488D03*
X0182175Y0116978D03*
X0182028Y0117273D03*
X0179518Y0121260D03*
X0179370Y0121407D03*
X0179222Y0121703D03*
X0178927Y0122145D03*
X0174203Y0117716D03*
X0175531Y0115502D03*
X0200482Y0121260D03*
X0193839Y0098671D03*
X0191919Y0088927D03*
X0191919Y0084203D03*
X0184390Y0087598D03*
X0179222Y0083760D03*
X0179370Y0083464D03*
X0179518Y0083317D03*
X0179665Y0083021D03*
X0179813Y0082726D03*
X0173612Y0079921D03*
X0171841Y0077264D03*
X0169478Y0086269D03*
X0176713Y0087746D03*
X0176860Y0087451D03*
X0177156Y0087008D03*
X0188081Y0078149D03*
X0143346Y0056299D03*
X0147185Y0119783D03*
X0191033Y0150935D03*
X0190738Y0151378D03*
X0173760Y0170571D03*
X0175236Y0172638D03*
X0175384Y0172785D03*
D66*
X0166526Y0160753D03*
X0166526Y0159276D03*
X0166378Y0159276D03*
X0168888Y0127682D03*
X0139656Y0115428D03*
X0167854Y0100221D03*
X0177008Y0102879D03*
X0204173Y0115133D03*
X0179370Y0086786D03*
X0180108Y0084129D03*
X0165049Y0082652D03*
X0161654Y0061393D03*
D67*
X0168002Y0080585D03*
X0193100Y0086491D03*
X0204026Y0117790D03*
X0135374Y0113361D03*
X0135226Y0113361D03*
X0135079Y0113361D03*
X0164311Y0180979D03*
X0164459Y0180979D03*
X0164606Y0180979D03*
X0164754Y0180979D03*
X0164902Y0180979D03*
X0165049Y0180979D03*
X0165197Y0180979D03*
D68*
X0185128Y0157874D03*
X0190443Y0151820D03*
X0201959Y0133661D03*
X0202402Y0132923D03*
X0203435Y0131446D03*
X0203878Y0130708D03*
X0196791Y0128494D03*
X0194872Y0125541D03*
X0194429Y0124803D03*
X0199892Y0120374D03*
X0198858Y0118897D03*
X0198415Y0118159D03*
X0196496Y0115206D03*
X0194577Y0112254D03*
X0194134Y0111515D03*
X0192657Y0109301D03*
X0192215Y0108563D03*
X0191772Y0107824D03*
X0190295Y0105610D03*
X0189852Y0104872D03*
X0187933Y0101919D03*
X0187490Y0101181D03*
X0186014Y0098966D03*
X0184094Y0096013D03*
X0174498Y0091289D03*
X0172431Y0094537D03*
X0171988Y0095275D03*
X0171545Y0096013D03*
X0171102Y0096752D03*
X0170659Y0097490D03*
X0175974Y0102657D03*
X0181732Y0104872D03*
X0186457Y0112254D03*
X0186900Y0112992D03*
X0176417Y0113730D03*
X0175236Y0115944D03*
X0174793Y0116683D03*
X0174350Y0117421D03*
X0179075Y0121850D03*
X0178632Y0122588D03*
X0175531Y0126279D03*
X0171545Y0064567D03*
D69*
X0176270Y0059694D03*
X0182323Y0065748D03*
X0170512Y0076082D03*
X0173760Y0079035D03*
X0166673Y0090846D03*
X0200482Y0108120D03*
X0201811Y0108120D03*
X0203730Y0102657D03*
X0161211Y0064271D03*
X0174350Y0149311D03*
X0175974Y0153002D03*
X0185719Y0159645D03*
X0183061Y0166289D03*
D70*
X0184685Y0157357D03*
X0148661Y0166215D03*
X0203287Y0110408D03*
D71*
X0196791Y0115649D03*
X0197087Y0116092D03*
X0195167Y0113139D03*
X0194872Y0112696D03*
X0193248Y0110187D03*
X0192953Y0109744D03*
X0192362Y0108710D03*
X0192067Y0108267D03*
X0191329Y0107234D03*
X0190443Y0105757D03*
X0190148Y0105315D03*
X0188524Y0102805D03*
X0188228Y0102362D03*
X0186604Y0099852D03*
X0186309Y0099409D03*
X0184390Y0096456D03*
X0179075Y0100885D03*
X0179370Y0101328D03*
X0180108Y0102362D03*
X0180404Y0102805D03*
X0182028Y0105315D03*
X0182913Y0106791D03*
X0183209Y0107234D03*
X0186752Y0112696D03*
X0187047Y0113139D03*
X0187638Y0114173D03*
X0187933Y0114616D03*
X0189557Y0117126D03*
X0189852Y0117569D03*
X0198711Y0118602D03*
X0199006Y0119045D03*
X0195167Y0125984D03*
X0195463Y0126427D03*
X0197087Y0128937D03*
X0202844Y0132332D03*
X0203140Y0131889D03*
X0202106Y0133366D03*
X0201811Y0133809D03*
X0187490Y0139714D03*
X0187195Y0139271D03*
X0177008Y0137795D03*
X0174498Y0138238D03*
X0173612Y0136761D03*
X0171841Y0133809D03*
X0170955Y0132332D03*
X0178337Y0123031D03*
X0180256Y0120078D03*
X0174498Y0117126D03*
X0170069Y0098376D03*
X0170364Y0097933D03*
X0170955Y0096899D03*
X0171250Y0096456D03*
X0173760Y0092470D03*
X0177451Y0086565D03*
X0171988Y0077559D03*
X0170217Y0074606D03*
X0183799Y0074754D03*
X0183061Y0067372D03*
X0199006Y0142224D03*
X0188671Y0154626D03*
X0161801Y0169389D03*
X0173907Y0170718D03*
D72*
X0174793Y0160605D03*
X0171988Y0156324D03*
X0171693Y0155881D03*
X0171398Y0155438D03*
X0171102Y0154847D03*
X0170955Y0154700D03*
X0170807Y0154404D03*
X0170512Y0153961D03*
X0169626Y0152485D03*
X0184980Y0157800D03*
X0192953Y0148499D03*
X0199154Y0142150D03*
X0184685Y0137278D03*
X0180108Y0132849D03*
X0182323Y0129454D03*
X0182913Y0128567D03*
X0184833Y0125763D03*
X0184980Y0125467D03*
X0201811Y0121776D03*
X0202844Y0120300D03*
X0182323Y0106127D03*
X0177156Y0100664D03*
X0196348Y0102879D03*
X0175827Y0114690D03*
X0175236Y0139050D03*
X0152795Y0139788D03*
X0167116Y0160310D03*
X0179665Y0089444D03*
X0183652Y0074828D03*
X0177598Y0074089D03*
X0174203Y0068774D03*
X0173907Y0060359D03*
X0174055Y0060064D03*
X0152500Y0053420D03*
X0147480Y0080438D03*
D73*
X0172874Y0061983D03*
X0173317Y0061245D03*
X0178189Y0100073D03*
X0202549Y0120743D03*
X0169478Y0152190D03*
X0171250Y0155142D03*
X0171841Y0156028D03*
X0172283Y0156766D03*
X0175679Y0161195D03*
D74*
X0185423Y0157874D03*
X0147776Y0154921D03*
X0137441Y0178543D03*
X0137293Y0178543D03*
X0137146Y0178543D03*
X0136998Y0178543D03*
X0136850Y0178543D03*
X0136703Y0178543D03*
X0166821Y0181200D03*
X0166969Y0181200D03*
X0167116Y0181200D03*
X0167264Y0181200D03*
X0167411Y0181200D03*
X0167559Y0181200D03*
X0167707Y0181200D03*
X0167854Y0181200D03*
X0168002Y0181200D03*
X0168150Y0181200D03*
X0168445Y0181200D03*
X0168593Y0181200D03*
X0143937Y0121998D03*
X0138179Y0113582D03*
X0138031Y0113582D03*
X0137884Y0113582D03*
X0137736Y0113582D03*
X0137589Y0113582D03*
X0137441Y0113582D03*
X0137293Y0113582D03*
X0137146Y0113582D03*
X0136998Y0113582D03*
X0136850Y0113582D03*
X0152057Y0097342D03*
X0152205Y0097342D03*
X0169331Y0087007D03*
X0181142Y0080216D03*
X0202549Y0110187D03*
X0167411Y0116092D03*
X0167264Y0116092D03*
X0167116Y0116092D03*
X0166969Y0116092D03*
X0166821Y0116092D03*
X0166673Y0116092D03*
X0166526Y0116092D03*
X0166378Y0116092D03*
X0166230Y0116092D03*
D75*
X0156339Y0105610D03*
X0180846Y0112254D03*
X0202106Y0108563D03*
X0157224Y0153444D03*
X0150433Y0165256D03*
D76*
X0147628Y0159497D03*
X0147480Y0159497D03*
X0178337Y0136319D03*
X0198268Y0140157D03*
X0201959Y0108268D03*
X0200039Y0093799D03*
X0181880Y0079921D03*
X0183504Y0074754D03*
X0168740Y0080659D03*
X0167559Y0079183D03*
X0166673Y0071653D03*
X0172726Y0067076D03*
X0179075Y0065157D03*
D77*
X0176860Y0061983D03*
X0161358Y0064197D03*
X0186309Y0076747D03*
X0173907Y0079109D03*
X0141870Y0100812D03*
X0173465Y0117790D03*
X0200630Y0108194D03*
X0201959Y0103026D03*
X0187343Y0159719D03*
X0183061Y0161934D03*
X0182913Y0166363D03*
X0150138Y0162672D03*
D78*
X0150138Y0165256D03*
X0150285Y0165256D03*
X0148366Y0171751D03*
X0147037Y0171604D03*
X0146890Y0171604D03*
X0146742Y0171604D03*
X0145856Y0171456D03*
X0145709Y0171456D03*
X0145561Y0171456D03*
X0145413Y0171456D03*
X0145266Y0171456D03*
X0144823Y0171309D03*
X0144675Y0171309D03*
X0144528Y0171309D03*
X0144380Y0171309D03*
X0144232Y0171309D03*
X0144085Y0171309D03*
X0143937Y0171309D03*
X0143642Y0171161D03*
X0143494Y0171161D03*
X0143346Y0171161D03*
X0143199Y0171161D03*
X0143051Y0171161D03*
X0142904Y0171161D03*
X0142756Y0171161D03*
X0142608Y0171013D03*
X0142461Y0171013D03*
X0142313Y0171013D03*
X0152943Y0172342D03*
X0153681Y0172490D03*
X0153829Y0172490D03*
X0153976Y0172490D03*
X0154124Y0172490D03*
X0154567Y0172638D03*
X0154715Y0172638D03*
X0154862Y0172638D03*
X0155010Y0172638D03*
X0155157Y0172638D03*
X0155896Y0172785D03*
X0156043Y0172785D03*
X0156191Y0172785D03*
X0157667Y0172785D03*
X0151762Y0180758D03*
X0148366Y0180462D03*
X0146742Y0180315D03*
X0144970Y0180167D03*
X0143346Y0180019D03*
X0141722Y0179872D03*
X0156781Y0181201D03*
X0160177Y0181496D03*
X0161801Y0181643D03*
X0161949Y0181643D03*
X0163278Y0181791D03*
X0163425Y0181791D03*
X0163573Y0181791D03*
X0156634Y0153297D03*
X0156486Y0153297D03*
X0156043Y0153149D03*
X0155896Y0153149D03*
X0155748Y0153149D03*
X0155600Y0153149D03*
X0155453Y0153149D03*
X0155010Y0153002D03*
X0154862Y0153002D03*
X0154715Y0153002D03*
X0154567Y0153002D03*
X0154419Y0153002D03*
X0154272Y0153002D03*
X0154124Y0153002D03*
X0153976Y0153002D03*
X0153829Y0153002D03*
X0153681Y0152854D03*
X0153533Y0152854D03*
X0153386Y0152854D03*
X0153238Y0152854D03*
X0153091Y0152854D03*
X0152943Y0152854D03*
X0152795Y0152854D03*
X0152648Y0152854D03*
X0152500Y0152854D03*
X0152205Y0152706D03*
X0152057Y0152706D03*
X0151909Y0152706D03*
X0151762Y0152706D03*
X0151614Y0152706D03*
X0151467Y0152706D03*
X0151319Y0152706D03*
X0151171Y0152706D03*
X0151024Y0152706D03*
X0151467Y0148720D03*
X0151614Y0148720D03*
X0151762Y0148720D03*
X0151909Y0148720D03*
X0152057Y0148720D03*
X0150876Y0148573D03*
X0150728Y0148573D03*
X0149400Y0148425D03*
X0149252Y0148425D03*
X0149104Y0148425D03*
X0148957Y0148425D03*
X0148809Y0148425D03*
X0148071Y0148277D03*
X0147923Y0148277D03*
X0153681Y0149016D03*
X0153829Y0149016D03*
X0153976Y0149016D03*
X0154124Y0149016D03*
X0154272Y0149016D03*
X0154419Y0149016D03*
X0154862Y0149163D03*
X0155010Y0149163D03*
X0155157Y0149163D03*
X0155305Y0149163D03*
X0155453Y0149163D03*
X0155600Y0149163D03*
X0155748Y0149163D03*
X0156339Y0149311D03*
X0156486Y0149311D03*
X0156634Y0149311D03*
X0156781Y0149311D03*
X0156929Y0149311D03*
X0157224Y0142224D03*
X0157372Y0142224D03*
X0157520Y0142224D03*
X0157667Y0142224D03*
X0157815Y0142224D03*
X0157077Y0142076D03*
X0156929Y0142076D03*
X0156781Y0142076D03*
X0156634Y0142076D03*
X0152648Y0139567D03*
X0152352Y0139419D03*
X0152205Y0139419D03*
X0152057Y0139419D03*
X0151909Y0139419D03*
X0151762Y0139419D03*
X0151614Y0139419D03*
X0151319Y0139271D03*
X0151171Y0139271D03*
X0151024Y0139271D03*
X0150876Y0139271D03*
X0150728Y0139271D03*
X0150581Y0139271D03*
X0150433Y0139271D03*
X0150138Y0139123D03*
X0149990Y0139123D03*
X0149843Y0139123D03*
X0149695Y0139123D03*
X0149547Y0139123D03*
X0149400Y0139123D03*
X0149252Y0139123D03*
X0148957Y0138976D03*
X0148809Y0138976D03*
X0148661Y0138976D03*
X0148514Y0138976D03*
X0148366Y0138976D03*
X0148219Y0138976D03*
X0148071Y0138976D03*
X0147923Y0138976D03*
X0147776Y0138976D03*
X0147628Y0138976D03*
X0147480Y0138976D03*
X0148661Y0134694D03*
X0148809Y0134694D03*
X0148957Y0134694D03*
X0149104Y0134694D03*
X0149695Y0134842D03*
X0149843Y0134842D03*
X0149990Y0134842D03*
X0150138Y0134842D03*
X0150285Y0134842D03*
X0150728Y0134990D03*
X0150876Y0134990D03*
X0151024Y0134990D03*
X0151171Y0134990D03*
X0151319Y0134990D03*
X0151467Y0134990D03*
X0151909Y0135138D03*
X0152057Y0135138D03*
X0152205Y0135138D03*
X0152352Y0135138D03*
X0152500Y0135138D03*
X0152648Y0135138D03*
X0152795Y0135138D03*
X0153091Y0135285D03*
X0153238Y0135285D03*
X0153386Y0135285D03*
X0153533Y0135285D03*
X0153681Y0135285D03*
X0153829Y0135285D03*
X0153976Y0135285D03*
X0154567Y0135433D03*
X0154715Y0135433D03*
X0154862Y0135433D03*
X0155010Y0135433D03*
X0155157Y0135433D03*
X0155305Y0135433D03*
X0156339Y0135581D03*
X0156486Y0135581D03*
X0148071Y0134547D03*
X0147923Y0134547D03*
X0147776Y0134547D03*
X0144085Y0127018D03*
X0147628Y0119045D03*
X0147776Y0119045D03*
X0147923Y0119045D03*
X0148071Y0119045D03*
X0148219Y0119045D03*
X0148366Y0119045D03*
X0148514Y0119045D03*
X0149252Y0119193D03*
X0149400Y0119193D03*
X0149547Y0119193D03*
X0149695Y0119193D03*
X0150138Y0119340D03*
X0150285Y0119340D03*
X0150433Y0119340D03*
X0150581Y0119340D03*
X0150728Y0119340D03*
X0150876Y0119340D03*
X0151024Y0119340D03*
X0151171Y0119488D03*
X0151319Y0119488D03*
X0151467Y0119488D03*
X0151614Y0119488D03*
X0151762Y0119488D03*
X0151909Y0119488D03*
X0152057Y0119488D03*
X0152500Y0119636D03*
X0152648Y0119636D03*
X0152795Y0119636D03*
X0152943Y0119636D03*
X0153091Y0119636D03*
X0153238Y0119636D03*
X0153829Y0119783D03*
X0153976Y0119783D03*
X0154124Y0119783D03*
X0154272Y0119783D03*
X0154419Y0119783D03*
X0154567Y0119783D03*
X0155157Y0119931D03*
X0155305Y0119931D03*
X0155453Y0119931D03*
X0155600Y0119931D03*
X0155748Y0119931D03*
X0155896Y0119931D03*
X0156043Y0119931D03*
X0156191Y0119931D03*
X0156339Y0120079D03*
X0156486Y0120079D03*
X0156634Y0120079D03*
X0156781Y0120079D03*
X0156929Y0120079D03*
X0157077Y0120079D03*
X0157224Y0120079D03*
X0157372Y0120079D03*
X0157520Y0120226D03*
X0157667Y0120226D03*
X0157815Y0120226D03*
X0163868Y0114911D03*
X0164016Y0114911D03*
X0164163Y0114911D03*
X0157667Y0105758D03*
X0155305Y0105610D03*
X0155157Y0105610D03*
X0155010Y0105610D03*
X0154862Y0105610D03*
X0154272Y0105462D03*
X0154124Y0105462D03*
X0153976Y0105462D03*
X0153829Y0105462D03*
X0153681Y0105462D03*
X0153533Y0105462D03*
X0153386Y0105462D03*
X0153238Y0105462D03*
X0152943Y0105315D03*
X0152795Y0105315D03*
X0152648Y0105315D03*
X0152500Y0105315D03*
X0152352Y0105315D03*
X0152205Y0105315D03*
X0152057Y0105315D03*
X0151909Y0105315D03*
X0151762Y0105315D03*
X0151467Y0105167D03*
X0151319Y0105167D03*
X0151171Y0105167D03*
X0151024Y0105167D03*
X0150876Y0105167D03*
X0150728Y0105167D03*
X0150581Y0105167D03*
X0150433Y0105167D03*
X0150285Y0105167D03*
X0150138Y0105019D03*
X0149990Y0105019D03*
X0149843Y0105019D03*
X0149695Y0105019D03*
X0149547Y0105019D03*
X0149400Y0105019D03*
X0149252Y0105019D03*
X0149104Y0105019D03*
X0148957Y0105019D03*
X0148661Y0104872D03*
X0148514Y0104872D03*
X0148366Y0104872D03*
X0148219Y0104872D03*
X0148071Y0104872D03*
X0147923Y0104872D03*
X0147776Y0104872D03*
X0147628Y0104872D03*
X0147333Y0104724D03*
X0147185Y0104724D03*
X0147037Y0104724D03*
X0146890Y0104724D03*
X0146742Y0104724D03*
X0146594Y0104724D03*
X0146447Y0104724D03*
X0146299Y0104724D03*
X0145856Y0104577D03*
X0145709Y0104577D03*
X0145561Y0104577D03*
X0145413Y0104577D03*
X0145266Y0104577D03*
X0145118Y0104577D03*
X0144970Y0104577D03*
X0144675Y0104429D03*
X0144528Y0104429D03*
X0144380Y0104429D03*
X0144232Y0104429D03*
X0144085Y0104429D03*
X0143937Y0104429D03*
X0143789Y0104429D03*
X0143346Y0104281D03*
X0143199Y0104281D03*
X0143051Y0104281D03*
X0142904Y0104281D03*
X0142756Y0104281D03*
X0142165Y0104134D03*
X0142018Y0104134D03*
X0141870Y0112992D03*
X0141722Y0112992D03*
X0143346Y0113140D03*
X0143494Y0113140D03*
X0145118Y0113287D03*
X0146742Y0113435D03*
X0185276Y0124951D03*
X0185866Y0124655D03*
X0201663Y0102362D03*
X0179370Y0089075D03*
X0166526Y0090256D03*
X0157520Y0089960D03*
X0157372Y0089960D03*
X0157224Y0089960D03*
X0156929Y0089813D03*
X0156781Y0089813D03*
X0156634Y0089813D03*
X0156486Y0089813D03*
X0156339Y0089813D03*
X0156191Y0089813D03*
X0156043Y0089813D03*
X0155896Y0089813D03*
X0155748Y0089813D03*
X0155453Y0089665D03*
X0155305Y0089665D03*
X0155157Y0089665D03*
X0155010Y0089665D03*
X0154862Y0089665D03*
X0154715Y0089665D03*
X0154567Y0089665D03*
X0154419Y0089665D03*
X0153976Y0089518D03*
X0153829Y0089518D03*
X0153681Y0089518D03*
X0153533Y0089518D03*
X0153386Y0089518D03*
X0153238Y0089518D03*
X0153091Y0089518D03*
X0152943Y0089518D03*
X0152500Y0089370D03*
X0152352Y0089370D03*
X0152205Y0089370D03*
X0152057Y0089370D03*
X0151909Y0089370D03*
X0151762Y0089370D03*
X0151614Y0089370D03*
X0151467Y0089370D03*
X0151319Y0089370D03*
X0151171Y0089222D03*
X0151024Y0089222D03*
X0150876Y0089222D03*
X0150728Y0089222D03*
X0150581Y0089222D03*
X0150433Y0089222D03*
X0150285Y0089222D03*
X0150138Y0089222D03*
X0149990Y0089222D03*
X0149400Y0089075D03*
X0149252Y0089075D03*
X0149104Y0089075D03*
X0148957Y0089075D03*
X0148809Y0089075D03*
X0148661Y0089075D03*
X0147480Y0088927D03*
X0147333Y0088927D03*
X0147185Y0088927D03*
X0147923Y0084350D03*
X0148071Y0084350D03*
X0148219Y0084350D03*
X0148366Y0084350D03*
X0148514Y0084350D03*
X0148957Y0084497D03*
X0149104Y0084497D03*
X0149252Y0084497D03*
X0149400Y0084497D03*
X0149547Y0084497D03*
X0150138Y0084645D03*
X0150285Y0084645D03*
X0150433Y0084645D03*
X0150581Y0084645D03*
X0150728Y0084645D03*
X0151171Y0084793D03*
X0151319Y0084793D03*
X0151467Y0084793D03*
X0151614Y0084793D03*
X0151762Y0084793D03*
X0152352Y0084941D03*
X0152500Y0084941D03*
X0152648Y0084941D03*
X0152795Y0084941D03*
X0152943Y0084941D03*
X0153533Y0085088D03*
X0153681Y0085088D03*
X0153829Y0085088D03*
X0153976Y0085088D03*
X0154124Y0085088D03*
X0154272Y0085088D03*
X0154862Y0085236D03*
X0155010Y0085236D03*
X0155157Y0085236D03*
X0155305Y0085236D03*
X0155453Y0085236D03*
X0155600Y0085236D03*
X0156191Y0085384D03*
X0156339Y0085384D03*
X0156486Y0085384D03*
X0156634Y0085384D03*
X0156781Y0085384D03*
X0156929Y0085384D03*
X0157077Y0085384D03*
X0157224Y0085384D03*
X0157372Y0085384D03*
X0157520Y0085384D03*
X0157667Y0085384D03*
X0157815Y0085384D03*
X0147628Y0084203D03*
X0147480Y0084203D03*
X0143937Y0076673D03*
X0155305Y0069734D03*
X0155453Y0069734D03*
X0155600Y0069734D03*
X0155748Y0069734D03*
X0155896Y0069734D03*
X0156043Y0069734D03*
X0156191Y0069734D03*
X0156781Y0069882D03*
X0156929Y0069882D03*
X0157077Y0069882D03*
X0157815Y0070029D03*
X0155010Y0069586D03*
X0154862Y0069586D03*
X0154715Y0069586D03*
X0154567Y0069586D03*
X0154419Y0069586D03*
X0154272Y0069586D03*
X0154124Y0069586D03*
X0153533Y0069439D03*
X0153386Y0069439D03*
X0153238Y0069439D03*
X0153091Y0069439D03*
X0152943Y0069439D03*
X0152352Y0069291D03*
X0152205Y0069291D03*
X0152057Y0069291D03*
X0151909Y0069291D03*
X0151762Y0069291D03*
X0151171Y0069144D03*
X0151024Y0069144D03*
X0150876Y0069144D03*
X0150728Y0069144D03*
X0150581Y0069144D03*
X0150433Y0069144D03*
X0150285Y0068996D03*
X0150138Y0068996D03*
X0149990Y0068996D03*
X0149843Y0068996D03*
X0149695Y0068996D03*
X0149547Y0068996D03*
X0148957Y0068848D03*
X0148809Y0068848D03*
X0148661Y0068848D03*
X0148514Y0068848D03*
X0148366Y0068848D03*
X0147628Y0068848D03*
X0147480Y0068848D03*
X0154567Y0065157D03*
X0154715Y0065157D03*
X0154862Y0065157D03*
X0155010Y0065157D03*
X0155600Y0065305D03*
X0155748Y0065305D03*
X0155896Y0065305D03*
X0156043Y0065305D03*
X0156191Y0065305D03*
X0156339Y0065305D03*
X0156486Y0065305D03*
X0157077Y0065453D03*
X0157224Y0065453D03*
X0157372Y0065453D03*
X0157520Y0065453D03*
X0157667Y0065453D03*
X0157815Y0065453D03*
X0153533Y0065010D03*
X0153238Y0064862D03*
X0153091Y0064862D03*
X0152943Y0064862D03*
X0152795Y0064862D03*
X0152648Y0064862D03*
X0152500Y0064862D03*
X0152352Y0064862D03*
X0152205Y0064862D03*
X0152057Y0064714D03*
X0151909Y0064714D03*
X0151762Y0064714D03*
X0151614Y0064714D03*
X0151467Y0064714D03*
X0151319Y0064714D03*
X0151171Y0064714D03*
X0151024Y0064714D03*
X0150728Y0064567D03*
X0150581Y0064567D03*
X0150433Y0064567D03*
X0150285Y0064567D03*
X0150138Y0064567D03*
X0149990Y0064567D03*
X0149843Y0064567D03*
X0149695Y0064567D03*
X0149547Y0064419D03*
X0149400Y0064419D03*
X0149252Y0064419D03*
X0149104Y0064419D03*
X0148957Y0064419D03*
X0148809Y0064419D03*
X0148661Y0064419D03*
X0148514Y0064419D03*
X0148366Y0064271D03*
X0148219Y0064271D03*
X0148071Y0064271D03*
X0147923Y0064271D03*
X0147776Y0064271D03*
X0147628Y0064271D03*
X0147480Y0064271D03*
X0147333Y0064271D03*
X0147185Y0064124D03*
X0147037Y0064124D03*
X0146890Y0064124D03*
X0146742Y0064124D03*
X0146594Y0064124D03*
X0146447Y0064124D03*
X0146004Y0063976D03*
X0145856Y0063976D03*
X0145709Y0063976D03*
X0144970Y0063828D03*
X0144823Y0063828D03*
X0144675Y0063828D03*
X0143789Y0063681D03*
X0143642Y0063681D03*
X0143494Y0063681D03*
X0143346Y0063681D03*
X0143199Y0063681D03*
X0143051Y0063681D03*
X0142904Y0063681D03*
X0142165Y0063533D03*
X0142018Y0063533D03*
X0155305Y0053494D03*
X0155453Y0053494D03*
X0155600Y0053494D03*
X0155748Y0053494D03*
X0155896Y0053494D03*
X0156043Y0053494D03*
X0156191Y0053494D03*
X0156486Y0053642D03*
X0156634Y0053642D03*
X0156781Y0053642D03*
X0156929Y0053642D03*
X0157077Y0053642D03*
X0157372Y0053789D03*
X0157520Y0053789D03*
X0155010Y0053346D03*
X0154862Y0053346D03*
X0154715Y0053346D03*
X0154567Y0053346D03*
X0154419Y0053346D03*
X0154272Y0053346D03*
X0154124Y0053346D03*
X0153976Y0053346D03*
X0151319Y0053051D03*
X0151171Y0053051D03*
X0151024Y0053051D03*
X0150876Y0053051D03*
X0149990Y0052756D03*
X0148661Y0052608D03*
X0148514Y0052608D03*
X0148366Y0052608D03*
X0148219Y0052608D03*
X0148071Y0052608D03*
X0147923Y0052608D03*
X0147776Y0052608D03*
X0147628Y0052608D03*
X0147480Y0052608D03*
X0161801Y0058513D03*
X0174498Y0059399D03*
X0175384Y0059251D03*
X0178189Y0063533D03*
X0168002Y0071506D03*
X0167854Y0071358D03*
X0167707Y0071358D03*
X0166969Y0071653D03*
X0193100Y0148573D03*
D79*
X0187490Y0159424D03*
X0201663Y0098892D03*
X0184980Y0085605D03*
X0141870Y0060506D03*
D80*
X0144085Y0052829D03*
X0180551Y0066117D03*
X0178927Y0109227D03*
X0178780Y0109227D03*
X0178632Y0109227D03*
X0178484Y0109227D03*
X0178041Y0109227D03*
X0200482Y0112918D03*
X0200630Y0112918D03*
X0200778Y0112918D03*
X0200925Y0112918D03*
X0201073Y0112918D03*
X0201220Y0112918D03*
X0201368Y0112918D03*
X0186014Y0155585D03*
D81*
X0176860Y0112623D03*
X0201368Y0100812D03*
X0145561Y0081176D03*
X0145413Y0081323D03*
D82*
X0143937Y0071727D03*
X0167707Y0080733D03*
X0182766Y0067446D03*
X0201220Y0100812D03*
X0172579Y0120891D03*
X0143937Y0131225D03*
X0147923Y0154847D03*
X0147923Y0164000D03*
X0147776Y0164000D03*
X0148366Y0164148D03*
X0148514Y0164148D03*
X0168297Y0181274D03*
X0183947Y0164296D03*
D83*
X0188967Y0142298D03*
X0155453Y0141117D03*
X0183356Y0115280D03*
X0184242Y0113952D03*
X0184390Y0113804D03*
X0185866Y0111589D03*
X0201073Y0100812D03*
X0184537Y0087524D03*
X0181289Y0080143D03*
X0187933Y0077780D03*
X0183947Y0074827D03*
X0168150Y0080585D03*
X0165935Y0081028D03*
X0157963Y0084572D03*
X0166083Y0089001D03*
X0143937Y0080733D03*
X0171693Y0064493D03*
X0172726Y0062721D03*
D84*
X0173169Y0067298D03*
X0165935Y0073203D03*
X0148219Y0068774D03*
X0148071Y0068774D03*
X0147923Y0068774D03*
X0147776Y0068774D03*
X0142756Y0063607D03*
X0142608Y0063607D03*
X0142461Y0063607D03*
X0142313Y0063607D03*
X0152943Y0053272D03*
X0153091Y0053272D03*
X0153238Y0053272D03*
X0153386Y0053272D03*
X0153533Y0053272D03*
X0153681Y0053272D03*
X0153829Y0053272D03*
X0179222Y0088853D03*
X0200778Y0100664D03*
X0171988Y0120890D03*
X0156634Y0114247D03*
X0156486Y0114247D03*
X0156339Y0114247D03*
X0156191Y0114247D03*
X0156043Y0114247D03*
X0155896Y0114247D03*
X0155748Y0114247D03*
X0155600Y0114247D03*
X0155453Y0114247D03*
X0155305Y0114247D03*
X0155157Y0114247D03*
X0153238Y0113951D03*
X0153091Y0113951D03*
X0152943Y0113951D03*
X0152795Y0113951D03*
X0152648Y0113951D03*
X0152500Y0113951D03*
X0152352Y0113951D03*
X0152205Y0113951D03*
X0152057Y0113951D03*
X0151909Y0113951D03*
X0151762Y0113951D03*
X0148366Y0113508D03*
X0148219Y0113508D03*
X0148071Y0113508D03*
X0147923Y0113508D03*
X0147776Y0113508D03*
X0147628Y0113508D03*
X0147480Y0113508D03*
X0147333Y0113508D03*
X0147185Y0113508D03*
X0147037Y0113508D03*
X0146890Y0113508D03*
X0146152Y0104650D03*
X0146004Y0104650D03*
X0148219Y0134621D03*
X0148366Y0134621D03*
X0148514Y0134621D03*
X0150433Y0134916D03*
X0150581Y0134916D03*
X0147333Y0139050D03*
X0156486Y0142003D03*
X0173612Y0150861D03*
X0175827Y0139050D03*
X0196053Y0140083D03*
X0153386Y0180831D03*
X0153238Y0180831D03*
X0153091Y0180831D03*
X0152943Y0180831D03*
X0152795Y0180831D03*
X0152648Y0180831D03*
X0152500Y0180831D03*
X0152352Y0180831D03*
X0152205Y0180831D03*
X0152057Y0180831D03*
X0151909Y0180831D03*
X0148219Y0180388D03*
X0148071Y0180388D03*
X0147923Y0180388D03*
X0147776Y0180388D03*
X0147628Y0180388D03*
X0147480Y0180388D03*
X0147333Y0180388D03*
X0147185Y0180388D03*
X0147037Y0180388D03*
X0146890Y0180388D03*
X0144823Y0180093D03*
X0144675Y0180093D03*
X0144528Y0180093D03*
X0144380Y0180093D03*
X0144232Y0180093D03*
X0144085Y0180093D03*
X0143937Y0180093D03*
X0143789Y0180093D03*
X0143642Y0180093D03*
X0143494Y0180093D03*
X0160325Y0181569D03*
X0160472Y0181569D03*
X0160620Y0181569D03*
X0160768Y0181569D03*
X0160915Y0181569D03*
X0161063Y0181569D03*
X0161211Y0181569D03*
X0161358Y0181569D03*
X0161506Y0181569D03*
X0161654Y0181569D03*
X0163720Y0181865D03*
X0163868Y0181865D03*
X0164016Y0181865D03*
X0164163Y0181865D03*
D85*
X0186161Y0155438D03*
X0186309Y0155438D03*
X0186752Y0155438D03*
X0186900Y0155438D03*
X0172283Y0145694D03*
X0178484Y0134178D03*
X0200335Y0112770D03*
X0168297Y0099926D03*
X0185866Y0089591D03*
X0186014Y0089591D03*
X0186161Y0089591D03*
X0186309Y0089591D03*
X0186457Y0089591D03*
X0197677Y0091068D03*
X0197825Y0091068D03*
X0197972Y0091068D03*
X0198120Y0091068D03*
X0181880Y0070251D03*
X0178632Y0065083D03*
D86*
X0173022Y0067298D03*
X0175236Y0059178D03*
X0154419Y0065083D03*
X0154272Y0065083D03*
X0154124Y0065083D03*
X0153976Y0065083D03*
X0153829Y0065083D03*
X0153681Y0065083D03*
X0153681Y0069512D03*
X0153829Y0069512D03*
X0153976Y0069512D03*
X0152648Y0056963D03*
X0148809Y0084424D03*
X0148661Y0084424D03*
X0153091Y0105388D03*
X0154715Y0119857D03*
X0154862Y0119857D03*
X0155010Y0119857D03*
X0152795Y0126796D03*
X0156634Y0135654D03*
X0156781Y0135654D03*
X0156929Y0135654D03*
X0157077Y0135654D03*
X0157224Y0135654D03*
X0157372Y0135654D03*
X0157520Y0135654D03*
X0157667Y0135654D03*
X0157815Y0135654D03*
X0151467Y0139345D03*
X0149104Y0139050D03*
X0157077Y0149384D03*
X0157224Y0149384D03*
X0157372Y0149384D03*
X0157520Y0149384D03*
X0157667Y0149384D03*
X0157815Y0149384D03*
X0146594Y0171530D03*
X0146447Y0171530D03*
X0146299Y0171530D03*
X0146152Y0171530D03*
X0146004Y0171530D03*
X0153091Y0172416D03*
X0153238Y0172416D03*
X0153386Y0172416D03*
X0153533Y0172416D03*
X0196053Y0143774D03*
X0185719Y0124581D03*
X0200335Y0108341D03*
D87*
X0193691Y0110851D03*
X0194724Y0112475D03*
X0195610Y0113804D03*
X0196053Y0114542D03*
X0196644Y0115428D03*
X0197677Y0117052D03*
X0197972Y0117495D03*
X0192215Y0121333D03*
X0191624Y0120448D03*
X0191329Y0120005D03*
X0191181Y0119709D03*
X0190738Y0118971D03*
X0190443Y0118528D03*
X0190295Y0118233D03*
X0193100Y0122662D03*
X0193543Y0123400D03*
X0193986Y0124139D03*
X0195020Y0125763D03*
X0195906Y0127091D03*
X0196348Y0127830D03*
X0196939Y0128715D03*
X0197825Y0130044D03*
X0197972Y0130339D03*
X0198268Y0130782D03*
X0198858Y0131668D03*
X0199892Y0133292D03*
X0200187Y0133735D03*
X0190591Y0144956D03*
X0190738Y0145251D03*
X0173907Y0150861D03*
X0174203Y0137721D03*
X0173317Y0136245D03*
X0172726Y0135211D03*
X0172431Y0134769D03*
X0172283Y0134473D03*
X0171545Y0133292D03*
X0175236Y0125910D03*
X0173760Y0123400D03*
X0180404Y0119857D03*
X0180994Y0118971D03*
X0181437Y0118233D03*
X0181880Y0117495D03*
X0182323Y0116757D03*
X0176122Y0114542D03*
X0173907Y0118233D03*
X0181880Y0105093D03*
X0181289Y0104207D03*
X0180994Y0103765D03*
X0180846Y0103469D03*
X0179961Y0102141D03*
X0179813Y0101993D03*
X0171398Y0096235D03*
X0172579Y0094316D03*
X0172874Y0093873D03*
X0173169Y0093430D03*
X0173317Y0093135D03*
X0174941Y0090625D03*
X0175236Y0090182D03*
X0175679Y0089444D03*
X0175974Y0089001D03*
X0176270Y0088558D03*
X0176565Y0087967D03*
X0177598Y0086343D03*
X0179961Y0082505D03*
X0191772Y0089148D03*
X0191624Y0089444D03*
X0191329Y0089887D03*
X0152500Y0077190D03*
X0147333Y0074237D03*
X0157815Y0054454D03*
X0152500Y0127387D03*
X0138474Y0166954D03*
X0174055Y0170939D03*
X0174203Y0171235D03*
X0175089Y0172416D03*
D88*
X0150728Y0162303D03*
X0168740Y0152116D03*
X0178337Y0134252D03*
X0200187Y0093946D03*
X0144823Y0052165D03*
D89*
X0161801Y0074163D03*
X0180404Y0080069D03*
X0187195Y0075492D03*
X0187343Y0075640D03*
X0187785Y0076378D03*
X0192510Y0086565D03*
X0199892Y0109744D03*
X0200039Y0109892D03*
X0188228Y0142224D03*
X0161063Y0169390D03*
D90*
X0180699Y0166658D03*
X0174350Y0138016D03*
X0173760Y0136983D03*
X0173022Y0135802D03*
X0172874Y0135506D03*
X0171988Y0134030D03*
X0174055Y0123991D03*
X0173907Y0123695D03*
X0179665Y0121038D03*
X0180108Y0120300D03*
X0180551Y0119562D03*
X0181732Y0117790D03*
X0182470Y0116609D03*
X0187343Y0113656D03*
X0186161Y0111884D03*
X0189705Y0117347D03*
X0190000Y0117790D03*
X0190148Y0118085D03*
X0190886Y0119266D03*
X0192510Y0121776D03*
X0192805Y0122219D03*
X0193691Y0123695D03*
X0195315Y0126205D03*
X0195610Y0126648D03*
X0197234Y0129158D03*
X0197530Y0129601D03*
X0197677Y0129896D03*
X0199596Y0132849D03*
X0197382Y0116609D03*
X0196939Y0115871D03*
X0195315Y0113361D03*
X0195020Y0112918D03*
X0180699Y0103321D03*
X0180551Y0103026D03*
X0180256Y0102583D03*
X0179518Y0101550D03*
X0173612Y0092692D03*
X0174350Y0091510D03*
X0176417Y0088262D03*
X0189705Y0092249D03*
D91*
X0199596Y0109375D03*
X0138622Y0100516D03*
X0138622Y0060211D03*
X0145118Y0055044D03*
X0161211Y0057406D03*
X0191772Y0148351D03*
D92*
X0198858Y0142298D03*
X0155157Y0140969D03*
X0155010Y0140969D03*
X0154862Y0140822D03*
X0154715Y0140822D03*
X0153976Y0140674D03*
X0153829Y0140674D03*
X0153681Y0140674D03*
X0153386Y0140526D03*
X0153238Y0140526D03*
X0147480Y0143479D03*
X0147333Y0143479D03*
X0147628Y0155143D03*
X0138179Y0178617D03*
X0138031Y0178617D03*
X0137884Y0178617D03*
X0137736Y0178617D03*
X0137589Y0178617D03*
X0136555Y0178469D03*
X0136407Y0178469D03*
X0136260Y0178469D03*
X0136112Y0178469D03*
X0135965Y0178469D03*
X0135817Y0178469D03*
X0135669Y0178469D03*
X0135522Y0178322D03*
X0135374Y0178322D03*
X0135226Y0178322D03*
X0168740Y0181274D03*
X0168740Y0116166D03*
X0168593Y0116166D03*
X0167707Y0116166D03*
X0167559Y0116166D03*
X0166083Y0116018D03*
X0165935Y0116018D03*
X0165787Y0116018D03*
X0165640Y0116018D03*
X0139360Y0113656D03*
X0139213Y0113656D03*
X0138327Y0113656D03*
X0199449Y0093725D03*
D93*
X0199301Y0108932D03*
X0161358Y0156766D03*
D94*
X0148071Y0154773D03*
X0147628Y0163927D03*
X0161801Y0145620D03*
X0185571Y0157874D03*
X0183799Y0164222D03*
X0198711Y0142224D03*
X0185571Y0111516D03*
X0179961Y0111958D03*
X0199301Y0093799D03*
X0192953Y0086565D03*
X0184833Y0087451D03*
X0180994Y0080216D03*
X0184242Y0074754D03*
X0173022Y0079921D03*
X0166378Y0088927D03*
X0171988Y0064419D03*
X0159882Y0063829D03*
X0159734Y0063829D03*
D95*
X0173612Y0068405D03*
X0184685Y0076525D03*
X0175974Y0059547D03*
X0199154Y0095423D03*
X0155896Y0105462D03*
X0155748Y0105462D03*
X0169331Y0128641D03*
D96*
X0146447Y0135137D03*
X0150138Y0151968D03*
X0199006Y0110777D03*
X0186161Y0072096D03*
X0186014Y0072096D03*
X0185866Y0072096D03*
X0178780Y0063238D03*
X0176417Y0061761D03*
X0176713Y0060137D03*
D97*
X0143789Y0055487D03*
X0144232Y0071727D03*
X0194429Y0098745D03*
X0198563Y0142298D03*
D98*
X0198415Y0142224D03*
X0195315Y0140748D03*
X0187785Y0157135D03*
X0185276Y0111515D03*
X0138327Y0060137D03*
D99*
X0141722Y0061983D03*
X0143937Y0055339D03*
X0180108Y0067593D03*
X0180699Y0080290D03*
X0168593Y0088410D03*
X0161801Y0081028D03*
X0196939Y0093725D03*
X0173612Y0122219D03*
X0138327Y0100517D03*
X0192067Y0148351D03*
X0176860Y0149680D03*
X0181732Y0164296D03*
X0180846Y0165477D03*
X0149547Y0154404D03*
D100*
X0196348Y0094389D03*
D101*
X0187047Y0075270D03*
X0195906Y0141707D03*
D102*
X0160620Y0145620D03*
X0156634Y0163336D03*
X0156486Y0163336D03*
X0156339Y0163336D03*
X0156191Y0163336D03*
X0139508Y0100738D03*
X0159144Y0082431D03*
X0159291Y0082431D03*
X0159439Y0082431D03*
X0195315Y0098819D03*
X0158701Y0056742D03*
X0158553Y0056742D03*
D103*
X0160177Y0082209D03*
X0179075Y0086048D03*
X0195167Y0098745D03*
X0139213Y0100664D03*
X0159882Y0132554D03*
X0160177Y0132406D03*
X0187785Y0142150D03*
X0160325Y0169463D03*
X0139803Y0167691D03*
D104*
X0160915Y0156693D03*
X0143789Y0143405D03*
X0158110Y0133218D03*
X0187933Y0142224D03*
X0138917Y0100590D03*
X0195020Y0098819D03*
D105*
X0194872Y0098745D03*
X0173169Y0120890D03*
X0147185Y0054749D03*
D106*
X0138179Y0059916D03*
X0143642Y0055635D03*
X0144085Y0071727D03*
X0169183Y0087377D03*
X0178189Y0086048D03*
X0194281Y0098745D03*
X0177451Y0111737D03*
X0145561Y0131373D03*
X0144085Y0131373D03*
X0148219Y0154700D03*
X0148366Y0154700D03*
X0138179Y0100369D03*
X0182618Y0067446D03*
D107*
X0143494Y0055930D03*
X0194134Y0098745D03*
X0136703Y0113508D03*
D108*
X0187343Y0087524D03*
X0188228Y0089001D03*
X0192657Y0086491D03*
X0172726Y0079995D03*
X0146742Y0080438D03*
X0172283Y0064345D03*
X0151909Y0054896D03*
X0188376Y0142150D03*
X0176565Y0150270D03*
X0176417Y0150418D03*
X0181289Y0164739D03*
X0180994Y0165182D03*
D109*
X0188524Y0155216D03*
X0192510Y0148425D03*
X0157963Y0134695D03*
X0153091Y0140453D03*
X0176565Y0113287D03*
X0180256Y0111958D03*
X0189852Y0092323D03*
X0177894Y0086122D03*
X0173317Y0079921D03*
X0172431Y0063386D03*
D110*
X0152352Y0055413D03*
X0147037Y0054822D03*
X0145856Y0054970D03*
X0145709Y0054970D03*
X0145561Y0054970D03*
X0144528Y0080512D03*
X0138770Y0100590D03*
X0190738Y0092323D03*
X0192362Y0086565D03*
X0161211Y0145620D03*
X0161063Y0156693D03*
X0160768Y0169389D03*
X0139360Y0167618D03*
D111*
X0160620Y0169389D03*
X0161063Y0145620D03*
X0144380Y0130856D03*
X0192215Y0086565D03*
X0144528Y0072391D03*
X0152057Y0055561D03*
D112*
X0157963Y0056447D03*
X0159439Y0056742D03*
X0159587Y0056742D03*
X0159734Y0056742D03*
X0139360Y0060138D03*
X0144085Y0079331D03*
X0146890Y0081397D03*
X0147185Y0081545D03*
X0159734Y0082431D03*
X0159882Y0082283D03*
X0160030Y0082283D03*
X0172136Y0079921D03*
X0192067Y0086565D03*
X0191033Y0092323D03*
X0159734Y0132628D03*
X0159587Y0132628D03*
X0160768Y0145620D03*
X0160177Y0169390D03*
D113*
X0139065Y0167544D03*
X0191919Y0148351D03*
D114*
X0191624Y0148351D03*
X0144380Y0122662D03*
X0184833Y0111589D03*
X0147185Y0095202D03*
X0139508Y0167692D03*
D115*
X0191476Y0148351D03*
X0144528Y0130930D03*
X0178927Y0086048D03*
D116*
X0159291Y0056668D03*
X0159144Y0056668D03*
X0158996Y0056668D03*
X0158848Y0056668D03*
X0191329Y0148351D03*
D117*
X0160768Y0156693D03*
X0144675Y0131004D03*
X0184685Y0111515D03*
X0190886Y0092322D03*
D118*
X0190591Y0092322D03*
D119*
X0190443Y0092323D03*
X0187785Y0088189D03*
X0178484Y0086122D03*
X0157963Y0071801D03*
X0185128Y0111516D03*
X0146742Y0130708D03*
X0146594Y0130708D03*
X0161506Y0156840D03*
X0181142Y0164960D03*
D120*
X0148219Y0164074D03*
X0148071Y0164074D03*
X0167854Y0116240D03*
X0168002Y0116240D03*
X0168150Y0116240D03*
X0168297Y0116240D03*
X0168445Y0116240D03*
X0165492Y0115944D03*
X0165344Y0115944D03*
X0165197Y0115944D03*
X0165049Y0115944D03*
X0164902Y0115944D03*
X0164754Y0115944D03*
X0164606Y0115944D03*
X0190000Y0092322D03*
D121*
X0183947Y0114394D03*
X0183652Y0114837D03*
X0174498Y0124729D03*
X0174793Y0125172D03*
X0174941Y0125467D03*
X0189114Y0142445D03*
X0138031Y0100369D03*
D122*
X0152352Y0097195D03*
X0166230Y0088927D03*
X0178041Y0086122D03*
X0184685Y0087451D03*
X0173169Y0079921D03*
X0167854Y0080659D03*
X0184094Y0074754D03*
X0171841Y0064419D03*
X0180108Y0111958D03*
X0139065Y0113730D03*
X0138917Y0113730D03*
X0138770Y0113730D03*
X0138622Y0113730D03*
X0138474Y0113730D03*
X0136555Y0113435D03*
X0136407Y0113435D03*
X0136260Y0113435D03*
X0136112Y0113435D03*
X0135965Y0113435D03*
X0135817Y0113435D03*
X0135669Y0113435D03*
X0135522Y0113435D03*
X0153533Y0140600D03*
X0154124Y0140748D03*
X0154272Y0140748D03*
X0154419Y0140748D03*
X0154567Y0140748D03*
X0174203Y0150935D03*
X0188819Y0142224D03*
X0149990Y0164222D03*
X0149843Y0164222D03*
X0149695Y0164222D03*
X0161506Y0169094D03*
X0165344Y0181053D03*
X0165492Y0181053D03*
X0165640Y0181053D03*
X0165787Y0181053D03*
X0165935Y0181053D03*
X0166083Y0181053D03*
X0166230Y0181053D03*
X0166378Y0181053D03*
X0166526Y0181053D03*
X0166673Y0181053D03*
X0139508Y0178691D03*
X0139360Y0178691D03*
X0139213Y0178691D03*
X0139065Y0178691D03*
X0138917Y0178691D03*
X0138770Y0178691D03*
X0138622Y0178691D03*
X0138474Y0178691D03*
X0138327Y0178691D03*
D123*
X0138622Y0167396D03*
X0147480Y0163853D03*
X0188671Y0142298D03*
X0177598Y0111589D03*
X0179222Y0066117D03*
X0159587Y0063902D03*
X0159439Y0063902D03*
X0159144Y0064050D03*
X0158996Y0064050D03*
X0158848Y0064050D03*
X0158701Y0064050D03*
X0158553Y0064050D03*
D124*
X0141575Y0099114D03*
X0161654Y0156840D03*
X0187933Y0156840D03*
X0188081Y0156693D03*
D125*
X0188081Y0142150D03*
X0161211Y0156767D03*
X0178780Y0086048D03*
X0180256Y0079995D03*
X0144380Y0080438D03*
X0145413Y0055044D03*
D126*
X0161654Y0081323D03*
X0188081Y0088705D03*
X0176122Y0150713D03*
X0161211Y0169316D03*
D127*
X0149695Y0151894D03*
X0170659Y0109375D03*
X0168593Y0101993D03*
X0173907Y0081028D03*
X0187933Y0074237D03*
X0176860Y0060359D03*
X0144970Y0052091D03*
X0144232Y0075713D03*
D128*
X0187638Y0076082D03*
X0161358Y0145620D03*
X0160915Y0169389D03*
D129*
X0161506Y0145620D03*
X0145266Y0132037D03*
X0145118Y0132037D03*
X0146447Y0130561D03*
X0187490Y0087746D03*
X0146594Y0080364D03*
X0146447Y0080364D03*
D130*
X0181732Y0070324D03*
X0144232Y0125984D03*
X0174498Y0153149D03*
X0186457Y0155364D03*
X0186604Y0155364D03*
D131*
X0170955Y0147687D03*
X0170807Y0147687D03*
X0150581Y0162451D03*
X0178189Y0109153D03*
X0178337Y0109153D03*
X0168150Y0100000D03*
X0146742Y0084941D03*
X0146594Y0084941D03*
X0146447Y0084941D03*
X0166821Y0083021D03*
X0167411Y0082874D03*
X0173760Y0081102D03*
X0166378Y0073720D03*
X0185423Y0072244D03*
X0186457Y0072244D03*
D132*
X0186309Y0072170D03*
X0185276Y0072170D03*
X0184980Y0072318D03*
X0182028Y0070103D03*
X0181585Y0070398D03*
X0180699Y0065969D03*
X0176565Y0061835D03*
X0170807Y0074237D03*
X0165492Y0080290D03*
X0165640Y0082062D03*
X0165787Y0082062D03*
X0166526Y0082800D03*
X0166673Y0082948D03*
X0166969Y0086343D03*
X0167116Y0086343D03*
X0167264Y0086343D03*
X0167411Y0086343D03*
X0167559Y0086343D03*
X0167707Y0086343D03*
X0167854Y0086491D03*
X0185571Y0084867D03*
X0185866Y0084719D03*
X0186014Y0084719D03*
X0186161Y0084719D03*
X0185571Y0077190D03*
X0185423Y0077190D03*
X0185276Y0077190D03*
X0185128Y0077190D03*
X0168445Y0101993D03*
X0168297Y0101993D03*
X0179075Y0109375D03*
X0146594Y0135211D03*
X0150285Y0152042D03*
X0150433Y0154257D03*
X0166969Y0161196D03*
X0168888Y0152190D03*
X0174646Y0153223D03*
X0174793Y0153223D03*
D133*
X0152500Y0139493D03*
X0151762Y0135064D03*
X0151614Y0135064D03*
X0149547Y0134768D03*
X0149400Y0134768D03*
X0149252Y0134768D03*
X0175531Y0139197D03*
X0175679Y0139197D03*
X0186014Y0124729D03*
X0158258Y0114394D03*
X0158110Y0114394D03*
X0157963Y0114394D03*
X0157815Y0114394D03*
X0157667Y0114394D03*
X0157520Y0114394D03*
X0157372Y0114394D03*
X0157224Y0114394D03*
X0157077Y0114394D03*
X0156929Y0114394D03*
X0154862Y0114099D03*
X0154715Y0114099D03*
X0154567Y0114099D03*
X0154419Y0114099D03*
X0154272Y0114099D03*
X0154124Y0114099D03*
X0153976Y0114099D03*
X0153829Y0114099D03*
X0153681Y0114099D03*
X0153533Y0114099D03*
X0149990Y0113656D03*
X0149843Y0113656D03*
X0149695Y0113656D03*
X0149547Y0113656D03*
X0149400Y0113656D03*
X0149252Y0113656D03*
X0149104Y0113656D03*
X0148957Y0113656D03*
X0148809Y0113656D03*
X0148661Y0113656D03*
X0148514Y0113656D03*
X0141575Y0112918D03*
X0141427Y0112918D03*
X0141280Y0112918D03*
X0141132Y0112918D03*
X0140984Y0112918D03*
X0140837Y0112918D03*
X0140689Y0112918D03*
X0140541Y0112918D03*
X0140394Y0112918D03*
X0140246Y0112918D03*
X0140098Y0112918D03*
X0147480Y0104798D03*
X0141870Y0104060D03*
X0141722Y0104060D03*
X0141870Y0097416D03*
X0142018Y0097416D03*
X0142165Y0097416D03*
X0142313Y0097416D03*
X0142461Y0097416D03*
X0142608Y0097416D03*
X0142756Y0097416D03*
X0142904Y0097416D03*
X0147037Y0089001D03*
X0147628Y0089001D03*
X0147776Y0089001D03*
X0147923Y0089001D03*
X0148071Y0089001D03*
X0148219Y0089001D03*
X0148366Y0089001D03*
X0148514Y0089001D03*
X0165787Y0089001D03*
X0167559Y0071284D03*
X0156634Y0069808D03*
X0156486Y0069808D03*
X0156339Y0069808D03*
X0156634Y0065379D03*
X0156781Y0065379D03*
X0156929Y0065379D03*
X0149400Y0068922D03*
X0149252Y0068922D03*
X0149104Y0068922D03*
X0147333Y0068922D03*
X0175531Y0059473D03*
X0178484Y0063902D03*
X0149843Y0052682D03*
X0149695Y0052682D03*
X0149547Y0052682D03*
X0149400Y0052682D03*
X0149252Y0052682D03*
X0149104Y0052682D03*
X0148957Y0052682D03*
X0148809Y0052682D03*
X0147333Y0052682D03*
X0149252Y0165182D03*
X0149400Y0165182D03*
X0149547Y0165182D03*
X0146594Y0180241D03*
X0146447Y0180241D03*
X0146299Y0180241D03*
X0146152Y0180241D03*
X0146004Y0180241D03*
X0145856Y0180241D03*
X0145709Y0180241D03*
X0145561Y0180241D03*
X0145413Y0180241D03*
X0145266Y0180241D03*
X0145118Y0180241D03*
X0148514Y0180536D03*
X0148661Y0180536D03*
X0148809Y0180536D03*
X0148957Y0180536D03*
X0149104Y0180536D03*
X0149252Y0180536D03*
X0149400Y0180536D03*
X0149547Y0180536D03*
X0149695Y0180536D03*
X0149843Y0180536D03*
X0149990Y0180536D03*
X0153533Y0180979D03*
X0153681Y0180979D03*
X0153829Y0180979D03*
X0153976Y0180979D03*
X0154124Y0180979D03*
X0154272Y0180979D03*
X0154419Y0180979D03*
X0154567Y0180979D03*
X0154715Y0180979D03*
X0154862Y0180979D03*
X0155010Y0180979D03*
X0162096Y0181717D03*
X0162244Y0181717D03*
X0162392Y0181717D03*
X0162539Y0181717D03*
X0162687Y0181717D03*
X0162835Y0181717D03*
X0162982Y0181717D03*
X0163130Y0181717D03*
D134*
X0178189Y0134399D03*
X0169035Y0127608D03*
X0168740Y0101919D03*
X0166969Y0083169D03*
X0166526Y0073720D03*
X0173612Y0066338D03*
X0176122Y0061466D03*
X0185571Y0072244D03*
X0185719Y0072244D03*
D135*
X0174055Y0068700D03*
X0168150Y0071653D03*
X0167116Y0071653D03*
X0177303Y0062057D03*
X0175827Y0059842D03*
X0174203Y0059842D03*
X0152795Y0053346D03*
X0152648Y0053346D03*
X0137884Y0100147D03*
X0182175Y0106053D03*
X0184980Y0137057D03*
X0185571Y0137057D03*
X0175974Y0138976D03*
X0170364Y0153740D03*
X0175236Y0161122D03*
X0175384Y0161269D03*
X0175531Y0161269D03*
X0157963Y0153740D03*
D136*
X0157077Y0153371D03*
X0156929Y0153371D03*
X0156781Y0153371D03*
X0156339Y0153371D03*
X0153533Y0148942D03*
X0153386Y0148942D03*
X0150285Y0139197D03*
X0143937Y0126944D03*
X0152205Y0119562D03*
X0152352Y0119562D03*
X0154419Y0105536D03*
X0154567Y0105536D03*
X0154715Y0105536D03*
X0155453Y0105536D03*
X0151614Y0105241D03*
X0185423Y0124729D03*
X0178041Y0136540D03*
X0154419Y0172564D03*
X0154272Y0172564D03*
X0149547Y0171825D03*
X0149400Y0171825D03*
X0149252Y0171825D03*
X0149104Y0171825D03*
X0148957Y0171825D03*
X0148809Y0171825D03*
X0148661Y0171825D03*
X0148514Y0171825D03*
X0149695Y0084571D03*
X0149843Y0084571D03*
X0149990Y0084571D03*
X0145561Y0063902D03*
X0145413Y0063902D03*
X0145266Y0063902D03*
X0145118Y0063902D03*
X0156339Y0053568D03*
D137*
X0145266Y0054970D03*
X0184980Y0111515D03*
D138*
X0184537Y0111515D03*
X0139656Y0060137D03*
D139*
X0176270Y0061540D03*
X0182175Y0079847D03*
X0183947Y0087820D03*
X0167264Y0082948D03*
X0167116Y0083095D03*
X0169183Y0130782D03*
X0146299Y0135211D03*
X0146152Y0135211D03*
X0170955Y0145398D03*
X0171102Y0147613D03*
X0166821Y0161048D03*
D140*
X0183652Y0164222D03*
X0177008Y0149311D03*
X0148514Y0154626D03*
X0145413Y0131594D03*
X0172726Y0120817D03*
X0177008Y0112401D03*
X0177303Y0111958D03*
X0179370Y0066633D03*
X0161654Y0057628D03*
D141*
X0173760Y0068479D03*
X0141722Y0100959D03*
X0178189Y0136392D03*
X0183356Y0166068D03*
D142*
X0183356Y0162524D03*
X0172874Y0067150D03*
X0174941Y0059030D03*
D143*
X0170807Y0064862D03*
X0177303Y0071801D03*
X0179518Y0087008D03*
X0168002Y0101476D03*
X0182323Y0103986D03*
X0171102Y0110630D03*
X0170955Y0110630D03*
X0168740Y0127608D03*
X0170659Y0147244D03*
X0166378Y0160679D03*
D144*
X0150876Y0165772D03*
X0149104Y0166363D03*
X0148957Y0166363D03*
X0148809Y0166363D03*
X0149843Y0151747D03*
X0149990Y0151747D03*
X0169035Y0130782D03*
X0139508Y0115576D03*
X0168150Y0101550D03*
X0168002Y0100074D03*
X0182175Y0103912D03*
X0179222Y0086491D03*
X0174055Y0080881D03*
X0165492Y0074975D03*
X0165344Y0074975D03*
X0178927Y0063311D03*
X0161358Y0061540D03*
D145*
X0145118Y0081619D03*
X0145266Y0081766D03*
X0181437Y0164591D03*
X0138917Y0167544D03*
D146*
X0169774Y0149532D03*
X0170512Y0147761D03*
X0172579Y0145694D03*
X0167854Y0101255D03*
X0180256Y0083981D03*
X0165640Y0083243D03*
X0166821Y0073646D03*
X0172726Y0065526D03*
X0161654Y0064050D03*
X0161506Y0062278D03*
D147*
X0155453Y0065231D03*
X0155305Y0065231D03*
X0155157Y0065231D03*
X0150876Y0064641D03*
X0146299Y0064050D03*
X0146152Y0064050D03*
X0144528Y0063754D03*
X0144380Y0063754D03*
X0144232Y0063754D03*
X0144085Y0063754D03*
X0143937Y0063754D03*
X0151319Y0069217D03*
X0151467Y0069217D03*
X0151614Y0069217D03*
X0152500Y0069365D03*
X0152648Y0069365D03*
X0152795Y0069365D03*
X0152795Y0076599D03*
X0152205Y0084867D03*
X0152057Y0084867D03*
X0151909Y0084867D03*
X0151024Y0084719D03*
X0150876Y0084719D03*
X0153091Y0085015D03*
X0153238Y0085015D03*
X0153386Y0085015D03*
X0154419Y0085162D03*
X0154567Y0085162D03*
X0154715Y0085162D03*
X0155748Y0085310D03*
X0155896Y0085310D03*
X0156043Y0085310D03*
X0155600Y0089739D03*
X0154272Y0089591D03*
X0154124Y0089591D03*
X0152795Y0089444D03*
X0152648Y0089444D03*
X0156486Y0105684D03*
X0156634Y0105684D03*
X0156781Y0105684D03*
X0156929Y0105831D03*
X0157077Y0105831D03*
X0157224Y0105831D03*
X0157372Y0105831D03*
X0157520Y0105831D03*
X0153681Y0119709D03*
X0153533Y0119709D03*
X0153386Y0119709D03*
X0152943Y0135211D03*
X0154124Y0135359D03*
X0154272Y0135359D03*
X0154419Y0135359D03*
X0155453Y0135507D03*
X0155600Y0135507D03*
X0155748Y0135507D03*
X0155896Y0135507D03*
X0156043Y0135507D03*
X0156191Y0135507D03*
X0150581Y0148499D03*
X0150433Y0148499D03*
X0150285Y0148499D03*
X0150138Y0148499D03*
X0149695Y0148351D03*
X0149547Y0148351D03*
X0151024Y0148646D03*
X0151171Y0148646D03*
X0151319Y0148646D03*
X0152205Y0148794D03*
X0152352Y0148794D03*
X0154567Y0149089D03*
X0154715Y0149089D03*
X0155896Y0149237D03*
X0156043Y0149237D03*
X0156191Y0149237D03*
X0152352Y0152780D03*
X0157372Y0153519D03*
X0157520Y0153519D03*
X0157667Y0153519D03*
X0157815Y0153519D03*
X0169331Y0152190D03*
X0148219Y0171678D03*
X0148071Y0171678D03*
X0147923Y0171678D03*
X0147776Y0171678D03*
X0147628Y0171678D03*
X0147480Y0171678D03*
X0147333Y0171678D03*
X0147185Y0171678D03*
X0145118Y0171383D03*
X0144970Y0171383D03*
X0143789Y0171235D03*
X0149695Y0171973D03*
X0149843Y0171973D03*
X0149990Y0171973D03*
X0150138Y0171973D03*
X0152057Y0172269D03*
X0152205Y0172269D03*
X0152352Y0172269D03*
X0152500Y0172269D03*
X0152648Y0172269D03*
X0152795Y0172269D03*
X0155305Y0172711D03*
X0155453Y0172711D03*
X0155600Y0172711D03*
X0155748Y0172711D03*
X0156339Y0172859D03*
X0156486Y0172859D03*
X0156634Y0172859D03*
X0156781Y0172859D03*
X0156929Y0172859D03*
X0157077Y0172859D03*
X0157224Y0172859D03*
X0157372Y0172859D03*
X0157520Y0172859D03*
X0177008Y0073499D03*
X0173907Y0068627D03*
X0180256Y0066265D03*
X0178041Y0063459D03*
X0174646Y0059325D03*
X0150728Y0052977D03*
X0150581Y0052977D03*
X0150433Y0052977D03*
D148*
X0147480Y0071063D03*
X0165197Y0073130D03*
X0165197Y0073868D03*
X0165344Y0073868D03*
X0177156Y0071653D03*
X0179665Y0087303D03*
X0147480Y0121259D03*
X0170659Y0147834D03*
D149*
X0152648Y0096013D03*
X0179075Y0063385D03*
D150*
X0145709Y0084793D03*
X0145561Y0084793D03*
X0147333Y0121259D03*
X0145561Y0134990D03*
X0145413Y0134990D03*
X0178041Y0134547D03*
X0166230Y0160236D03*
D151*
X0145709Y0135064D03*
X0169183Y0127682D03*
X0146004Y0084867D03*
X0145856Y0084867D03*
X0165344Y0073056D03*
X0177008Y0071579D03*
X0175974Y0061245D03*
D152*
X0177008Y0061614D03*
X0166230Y0072834D03*
X0141722Y0097490D03*
X0158406Y0114468D03*
X0147333Y0134399D03*
X0169774Y0152706D03*
X0170217Y0153444D03*
X0170659Y0154183D03*
D153*
X0176270Y0150639D03*
D154*
X0161949Y0081397D03*
X0166821Y0071653D03*
X0174793Y0059104D03*
D155*
X0174646Y0148868D03*
D156*
X0170217Y0149384D03*
X0165197Y0075270D03*
X0166673Y0073794D03*
X0173760Y0066412D03*
X0172874Y0064936D03*
D157*
X0173465Y0079921D03*
X0147333Y0079921D03*
D158*
X0165049Y0073942D03*
X0173022Y0065083D03*
X0170512Y0109522D03*
X0170807Y0110556D03*
X0170955Y0111294D03*
D159*
X0172874Y0079921D03*
D160*
X0172579Y0065379D03*
X0145413Y0084719D03*
X0171102Y0111294D03*
X0168593Y0152042D03*
X0166526Y0160014D03*
D161*
X0172431Y0079921D03*
D162*
X0172283Y0079921D03*
X0161506Y0074016D03*
X0144675Y0072392D03*
X0139213Y0060138D03*
X0147037Y0095128D03*
X0144675Y0122588D03*
X0160915Y0145619D03*
X0155600Y0163041D03*
X0160472Y0169390D03*
D163*
X0166673Y0160900D03*
X0150433Y0156471D03*
X0171398Y0121038D03*
D164*
X0161506Y0135064D03*
X0156486Y0140231D03*
X0170807Y0146579D03*
X0167707Y0100369D03*
D165*
X0165787Y0083169D03*
X0161358Y0062352D03*
X0168888Y0130708D03*
X0166526Y0158464D03*
X0166378Y0160088D03*
X0166083Y0160088D03*
D166*
X0147333Y0159940D03*
X0161801Y0127313D03*
X0160177Y0059547D03*
D167*
X0161801Y0097638D03*
D168*
X0161654Y0127460D03*
D169*
X0161654Y0097637D03*
D170*
X0161506Y0127460D03*
D171*
X0161506Y0097638D03*
D172*
X0161358Y0077485D03*
X0161358Y0127682D03*
D173*
X0161358Y0097637D03*
D174*
X0161211Y0077485D03*
X0161211Y0127682D03*
D175*
X0146299Y0125836D03*
X0146152Y0125836D03*
X0161211Y0097638D03*
D176*
X0161063Y0127756D03*
D177*
X0145709Y0125984D03*
X0161063Y0097638D03*
D178*
X0161063Y0077485D03*
D179*
X0146890Y0072022D03*
X0146742Y0072022D03*
X0161063Y0058144D03*
X0146890Y0122219D03*
X0146742Y0122219D03*
X0159144Y0123548D03*
X0159291Y0123548D03*
X0160325Y0145694D03*
X0160030Y0156914D03*
X0140837Y0167692D03*
X0140689Y0167692D03*
X0140541Y0167692D03*
D180*
X0160915Y0127830D03*
X0146004Y0125910D03*
X0145856Y0125910D03*
X0160915Y0077485D03*
X0146299Y0075566D03*
X0146152Y0075566D03*
X0146004Y0075566D03*
X0145856Y0075713D03*
X0145709Y0075713D03*
D181*
X0160620Y0077559D03*
X0160915Y0097638D03*
D182*
X0160915Y0058144D03*
D183*
X0160768Y0077485D03*
X0160768Y0127830D03*
X0158110Y0166068D03*
D184*
X0160620Y0127829D03*
X0160768Y0097711D03*
D185*
X0160768Y0059547D03*
D186*
X0147185Y0131742D03*
X0160030Y0132480D03*
X0160620Y0156693D03*
D187*
X0160620Y0097711D03*
D188*
X0160620Y0059547D03*
D189*
X0143937Y0143331D03*
X0160472Y0156766D03*
D190*
X0160177Y0156840D03*
X0157667Y0163336D03*
X0157520Y0163336D03*
X0157372Y0163336D03*
X0157224Y0163336D03*
X0157077Y0163336D03*
X0159734Y0169390D03*
X0140394Y0167766D03*
X0160472Y0145620D03*
X0160177Y0123622D03*
X0160030Y0123622D03*
X0159734Y0123474D03*
X0159587Y0123474D03*
X0159439Y0123474D03*
X0147037Y0122145D03*
X0139803Y0100738D03*
X0139656Y0100738D03*
X0159439Y0073277D03*
X0159587Y0073277D03*
X0159734Y0073277D03*
X0159882Y0073277D03*
X0160177Y0073425D03*
X0147037Y0071949D03*
X0139951Y0060138D03*
D191*
X0160472Y0127903D03*
D192*
X0160472Y0097711D03*
D193*
X0160472Y0077559D03*
D194*
X0160472Y0059547D03*
D195*
X0160325Y0156766D03*
X0159882Y0169463D03*
D196*
X0160325Y0127903D03*
D197*
X0160325Y0097711D03*
D198*
X0160325Y0077633D03*
D199*
X0160325Y0059621D03*
D200*
X0159144Y0073277D03*
X0146594Y0072096D03*
X0140246Y0100738D03*
X0140098Y0100738D03*
X0146447Y0122441D03*
X0160177Y0145620D03*
X0141280Y0167766D03*
X0141132Y0167766D03*
X0140984Y0167766D03*
D201*
X0160177Y0097785D03*
D202*
X0139360Y0100664D03*
X0147037Y0081471D03*
X0159587Y0082357D03*
X0139508Y0060064D03*
X0146890Y0131668D03*
X0147037Y0131668D03*
X0159291Y0132702D03*
X0159439Y0132702D03*
X0156043Y0163263D03*
X0160030Y0169463D03*
X0140098Y0167692D03*
X0139951Y0167692D03*
D203*
X0157815Y0163410D03*
X0159882Y0145694D03*
X0160030Y0145694D03*
X0140689Y0100812D03*
X0140541Y0100812D03*
X0140394Y0100812D03*
D204*
X0160030Y0097711D03*
D205*
X0160030Y0073351D03*
X0139803Y0060064D03*
D206*
X0160030Y0059547D03*
D207*
X0146594Y0122293D03*
X0144085Y0143405D03*
X0159882Y0156840D03*
X0159587Y0169389D03*
D208*
X0156929Y0163410D03*
X0156781Y0163410D03*
X0140246Y0167692D03*
X0159882Y0123548D03*
D209*
X0159882Y0097785D03*
X0159734Y0097785D03*
X0158996Y0077706D03*
D210*
X0159882Y0056816D03*
X0155748Y0163115D03*
D211*
X0159734Y0156914D03*
X0141575Y0167692D03*
X0141427Y0167692D03*
X0143199Y0094463D03*
X0146447Y0072170D03*
X0140689Y0060064D03*
X0140541Y0060064D03*
D212*
X0140837Y0060138D03*
X0159587Y0145768D03*
X0159734Y0145768D03*
X0159587Y0156988D03*
X0159439Y0156988D03*
D213*
X0159439Y0097859D03*
X0159587Y0097859D03*
X0159291Y0097859D03*
D214*
X0141132Y0100738D03*
X0140984Y0100738D03*
X0140837Y0100738D03*
X0141722Y0167765D03*
X0141870Y0167765D03*
X0142018Y0167765D03*
X0142165Y0167765D03*
X0159439Y0169242D03*
D215*
X0159291Y0157062D03*
X0159144Y0157062D03*
X0159144Y0145841D03*
X0159291Y0145841D03*
X0159439Y0145841D03*
X0158996Y0145841D03*
X0141427Y0100812D03*
X0141280Y0100812D03*
X0141280Y0060064D03*
X0141132Y0060064D03*
X0140984Y0060064D03*
D216*
X0144970Y0093577D03*
X0145118Y0093577D03*
X0159291Y0168282D03*
D217*
X0159291Y0073203D03*
D218*
X0145856Y0160457D03*
X0159144Y0168282D03*
D219*
X0159144Y0132628D03*
D220*
X0159144Y0097859D03*
X0158996Y0097859D03*
X0158848Y0097859D03*
X0158701Y0097859D03*
X0158553Y0097859D03*
D221*
X0158848Y0163189D03*
X0158996Y0163189D03*
D222*
X0158996Y0127977D03*
X0158701Y0127977D03*
X0158553Y0127977D03*
X0158848Y0077780D03*
D223*
X0143346Y0094242D03*
X0141575Y0060138D03*
X0141427Y0060138D03*
X0158848Y0145915D03*
X0143937Y0161269D03*
D224*
X0158258Y0127903D03*
X0158406Y0127903D03*
X0158848Y0127903D03*
D225*
X0158701Y0163115D03*
X0158553Y0163115D03*
X0158406Y0163115D03*
D226*
X0158406Y0145841D03*
X0158553Y0145841D03*
X0158701Y0145841D03*
X0158258Y0145841D03*
X0158110Y0145841D03*
X0157963Y0145841D03*
D227*
X0158110Y0077706D03*
X0158258Y0077706D03*
X0158406Y0077706D03*
X0158553Y0077706D03*
X0158701Y0077706D03*
D228*
X0158406Y0097859D03*
X0158258Y0097859D03*
X0158110Y0097859D03*
D229*
X0158406Y0059621D03*
D230*
X0158258Y0163189D03*
D231*
X0158258Y0059621D03*
X0158110Y0059621D03*
D232*
X0157963Y0166437D03*
D233*
X0155896Y0163189D03*
D234*
X0153238Y0148868D03*
X0153091Y0148868D03*
X0152943Y0148868D03*
X0152795Y0148868D03*
X0152648Y0148868D03*
X0152500Y0148868D03*
D235*
X0147185Y0160088D03*
D236*
X0147185Y0143553D03*
X0147037Y0143553D03*
D237*
X0139951Y0100812D03*
X0147185Y0071875D03*
X0140246Y0060064D03*
X0140098Y0060064D03*
D238*
X0147037Y0160162D03*
D239*
X0146890Y0160310D03*
D240*
X0146890Y0143479D03*
X0146742Y0143479D03*
X0146594Y0143479D03*
X0146447Y0143479D03*
D241*
X0146299Y0143479D03*
X0146152Y0143479D03*
X0146004Y0143479D03*
X0146890Y0093282D03*
D242*
X0138917Y0060211D03*
X0146004Y0054896D03*
X0146152Y0054896D03*
X0146299Y0054896D03*
X0146447Y0054896D03*
X0146594Y0054896D03*
X0146742Y0054896D03*
X0146890Y0054896D03*
X0144232Y0130634D03*
D243*
X0146594Y0160384D03*
X0146742Y0160384D03*
D244*
X0146004Y0160531D03*
X0146152Y0093356D03*
X0146299Y0093356D03*
X0146447Y0093356D03*
X0146594Y0093356D03*
X0146742Y0093356D03*
D245*
X0146447Y0160457D03*
X0146299Y0160457D03*
X0146152Y0160457D03*
D246*
X0146004Y0093430D03*
X0145856Y0093430D03*
X0145709Y0093430D03*
D247*
X0145709Y0143479D03*
X0145856Y0143479D03*
X0145561Y0143479D03*
X0145413Y0160605D03*
D248*
X0145561Y0160531D03*
X0145709Y0160531D03*
D249*
X0145561Y0123105D03*
D250*
X0145561Y0093504D03*
X0145413Y0093504D03*
X0145266Y0093504D03*
D251*
X0143789Y0093947D03*
X0145561Y0072834D03*
X0144232Y0160974D03*
D252*
X0145266Y0143479D03*
X0145413Y0143479D03*
D253*
X0145413Y0123105D03*
X0145266Y0123105D03*
X0143642Y0094020D03*
D254*
X0145118Y0073056D03*
X0145266Y0072908D03*
X0145413Y0072908D03*
X0144380Y0143627D03*
D255*
X0145118Y0160679D03*
X0145266Y0160679D03*
D256*
X0145118Y0143553D03*
D257*
X0145118Y0123253D03*
D258*
X0144970Y0160753D03*
X0144823Y0160753D03*
D259*
X0144970Y0143479D03*
X0144380Y0093725D03*
X0144232Y0093725D03*
D260*
X0144970Y0126722D03*
D261*
X0144823Y0126796D03*
X0144970Y0076451D03*
D262*
X0144085Y0093799D03*
X0144823Y0143553D03*
D263*
X0144823Y0093651D03*
X0144675Y0093651D03*
D264*
X0144823Y0076451D03*
D265*
X0144675Y0160753D03*
D266*
X0144380Y0160900D03*
X0144528Y0143627D03*
X0144675Y0143627D03*
X0143937Y0093873D03*
D267*
X0144675Y0080585D03*
X0139656Y0167692D03*
D268*
X0144528Y0160826D03*
D269*
X0144528Y0122588D03*
D270*
X0144528Y0093725D03*
D271*
X0144232Y0143479D03*
D272*
X0139213Y0167618D03*
X0144232Y0080216D03*
D273*
X0143494Y0094094D03*
X0144085Y0161122D03*
D274*
X0140394Y0060137D03*
D275*
X0139065Y0100590D03*
D276*
X0139065Y0060211D03*
D277*
X0138770Y0060211D03*
M02*
