G75*
%MOIN*%
%OFA0B0*%
%FSLAX25Y25*%
%IPPOS*%
%LPD*%
%AMOC8*
5,1,8,0,0,1.08239X$1,22.5*
%
%ADD10C,0.13792*%
%ADD11C,0.08200*%
%ADD12OC8,0.08200*%
%ADD13C,0.07800*%
%ADD14OC8,0.07400*%
%ADD15C,0.06800*%
%ADD16R,0.07887X0.07099*%
%ADD17R,0.07099X0.07887*%
%ADD18C,0.03778*%
D10*
X0381250Y0212632D03*
X0406250Y0022632D03*
D11*
X0127350Y0022332D03*
X0145150Y0022332D03*
X0156250Y0022632D03*
X0166250Y0022632D03*
X0176250Y0022632D03*
X0186250Y0022632D03*
X0196250Y0022632D03*
X0206250Y0022632D03*
X0226250Y0022632D03*
X0236250Y0022632D03*
X0246250Y0022632D03*
X0256250Y0022632D03*
X0266250Y0022632D03*
X0276250Y0022632D03*
X0286250Y0022632D03*
X0296250Y0022632D03*
X0316250Y0022632D03*
X0326250Y0022632D03*
X0336250Y0022632D03*
X0346250Y0022632D03*
X0356250Y0022632D03*
X0366250Y0022632D03*
X0376250Y0022632D03*
X0386250Y0022632D03*
X0396250Y0042632D03*
X0406250Y0042632D03*
X0373750Y0057632D03*
X0363750Y0057632D03*
X0363750Y0067632D03*
X0373750Y0067632D03*
X0373750Y0077632D03*
X0363750Y0077632D03*
X0363750Y0087632D03*
X0373750Y0087632D03*
X0373750Y0097632D03*
X0363750Y0097632D03*
X0323750Y0097632D03*
X0313750Y0097632D03*
X0313750Y0087632D03*
X0323750Y0087632D03*
X0323750Y0077632D03*
X0313750Y0077632D03*
X0313750Y0067632D03*
X0323750Y0067632D03*
X0323750Y0057632D03*
X0313750Y0057632D03*
X0231250Y0085132D03*
X0231250Y0095132D03*
X0231250Y0105132D03*
X0231250Y0115132D03*
X0266250Y0117632D03*
X0266250Y0107632D03*
X0266250Y0127632D03*
X0311250Y0130132D03*
X0321250Y0130132D03*
X0361250Y0130132D03*
X0371250Y0130132D03*
X0266250Y0157632D03*
X0266250Y0167632D03*
X0266250Y0177632D03*
X0266250Y0187632D03*
X0266250Y0212632D03*
X0256250Y0212632D03*
X0246250Y0212632D03*
X0236250Y0212632D03*
X0226250Y0212632D03*
X0216250Y0212632D03*
X0206250Y0212632D03*
X0190250Y0212632D03*
X0180250Y0212632D03*
X0170250Y0212632D03*
X0160250Y0212632D03*
X0150250Y0212632D03*
X0140250Y0212632D03*
X0130250Y0212632D03*
X0120250Y0212632D03*
X0276250Y0212632D03*
X0296250Y0212632D03*
X0306250Y0212632D03*
X0316250Y0212632D03*
X0326250Y0212632D03*
X0336250Y0212632D03*
X0346250Y0212632D03*
X0356250Y0212632D03*
X0366250Y0212632D03*
X0396250Y0212632D03*
X0406250Y0212632D03*
X0191550Y0059032D03*
X0165950Y0059032D03*
X0145150Y0047932D03*
X0127350Y0047932D03*
X0165950Y0041232D03*
X0191550Y0041232D03*
D12*
X0396250Y0052632D03*
X0406250Y0052632D03*
X0406250Y0062632D03*
X0396250Y0062632D03*
X0396250Y0072632D03*
X0406250Y0072632D03*
X0406250Y0082632D03*
X0396250Y0082632D03*
X0396250Y0092632D03*
X0406250Y0092632D03*
X0406250Y0102632D03*
X0396250Y0102632D03*
X0396250Y0112632D03*
X0406250Y0112632D03*
X0406250Y0122632D03*
X0396250Y0122632D03*
X0396250Y0132632D03*
X0406250Y0132632D03*
X0406250Y0142632D03*
X0396250Y0142632D03*
X0396250Y0152632D03*
X0406250Y0152632D03*
X0406250Y0162632D03*
X0396250Y0162632D03*
X0396250Y0172632D03*
X0406250Y0172632D03*
X0406250Y0182632D03*
X0396250Y0182632D03*
X0396250Y0192632D03*
X0406250Y0192632D03*
X0406250Y0202632D03*
X0396250Y0202632D03*
D13*
X0216250Y0130428D03*
X0216250Y0104837D03*
D14*
X0271250Y0070506D03*
X0271250Y0062632D03*
X0271250Y0054758D03*
D15*
X0315750Y0157632D02*
X0321750Y0157632D01*
X0321750Y0167632D02*
X0315750Y0167632D01*
X0315750Y0177632D02*
X0321750Y0177632D01*
X0321750Y0187632D02*
X0315750Y0187632D01*
X0365750Y0187632D02*
X0371750Y0187632D01*
X0371750Y0177632D02*
X0365750Y0177632D01*
X0365750Y0167632D02*
X0371750Y0167632D01*
X0371750Y0157632D02*
X0365750Y0157632D01*
X0208750Y0184632D02*
X0208750Y0190632D01*
X0198750Y0190632D02*
X0198750Y0184632D01*
X0188750Y0184632D02*
X0188750Y0190632D01*
X0178750Y0190632D02*
X0178750Y0184632D01*
X0146250Y0184632D02*
X0146250Y0190632D01*
X0136250Y0190632D02*
X0136250Y0184632D01*
D16*
X0253750Y0115644D03*
X0253750Y0104621D03*
X0253750Y0095644D03*
X0253750Y0084621D03*
X0281250Y0070644D03*
X0281250Y0059621D03*
D17*
X0328967Y0177632D03*
X0339990Y0177632D03*
X0347077Y0177632D03*
X0358100Y0177632D03*
X0358100Y0187632D03*
X0347077Y0187632D03*
X0339990Y0187632D03*
X0328967Y0187632D03*
D18*
X0246250Y0192632D03*
X0226250Y0177632D03*
X0221250Y0185132D03*
M02*
