G75*
%MOIN*%
%OFA0B0*%
%FSLAX25Y25*%
%IPPOS*%
%LPD*%
%AMOC8*
5,1,8,0,0,1.08239X$1,22.5*
%
%ADD10C,0.00300*%
%ADD11R,0.00098X0.01181*%
%ADD12R,0.00098X0.01476*%
%ADD13R,0.00098X0.01772*%
%ADD14R,0.00098X0.02067*%
%ADD15R,0.00098X0.02362*%
%ADD16R,0.00098X0.02559*%
%ADD17R,0.00098X0.02953*%
%ADD18R,0.00098X0.03150*%
%ADD19R,0.00098X0.03543*%
%ADD20R,0.00098X0.03740*%
%ADD21R,0.00098X0.04134*%
%ADD22R,0.00098X0.04429*%
%ADD23R,0.00098X0.04626*%
%ADD24R,0.00098X0.05020*%
%ADD25R,0.00098X0.02461*%
%ADD26R,0.00098X0.02165*%
%ADD27R,0.00098X0.02657*%
%ADD28R,0.00098X0.03445*%
%ADD29R,0.00098X0.03839*%
%ADD30R,0.00098X0.04035*%
%ADD31R,0.00098X0.01280*%
%ADD32R,0.00098X0.01083*%
%ADD33R,0.00098X0.00984*%
%ADD34R,0.00098X0.01378*%
%ADD35R,0.00098X0.01673*%
%ADD36R,0.00098X0.03051*%
%ADD37R,0.00098X0.02264*%
%ADD38R,0.00098X0.01575*%
%ADD39R,0.00098X0.00591*%
%ADD40R,0.00098X0.02854*%
%ADD41R,0.00098X0.00394*%
%ADD42R,0.00098X0.03937*%
%ADD43R,0.00098X0.02756*%
%ADD44R,0.00098X0.00295*%
%ADD45R,0.00098X0.03248*%
%ADD46R,0.00098X0.00689*%
%ADD47R,0.00098X0.03346*%
%ADD48R,0.00098X0.01969*%
%ADD49R,0.00098X0.00886*%
%ADD50R,0.00098X0.03642*%
%ADD51R,0.00098X0.01870*%
%ADD52R,0.00098X0.04528*%
%ADD53R,0.00098X0.00787*%
%ADD54R,0.00098X0.05709*%
%ADD55R,0.00098X0.05413*%
%ADD56R,0.00098X0.05118*%
%ADD57R,0.00098X0.04823*%
%ADD58R,0.00098X0.04232*%
%ADD59R,0.00098X0.04921*%
%ADD60R,0.00098X0.05512*%
%ADD61R,0.00098X0.05217*%
%ADD62R,0.00098X0.05610*%
%ADD63R,0.00098X0.05315*%
%ADD64R,0.00098X0.04331*%
%ADD65R,0.00098X0.04724*%
%ADD66R,0.00098X0.00197*%
%ADD67R,0.00098X0.00492*%
%ADD68R,0.00098X0.00098*%
%ADD69R,0.00098X0.08858*%
%ADD70R,0.00098X0.09843*%
%ADD71R,0.00098X0.09449*%
%ADD72R,0.00098X0.10039*%
%ADD73R,0.00098X0.09646*%
%ADD74R,0.00098X0.10236*%
%ADD75R,0.00098X0.10138*%
%ADD76R,0.00098X0.10433*%
%ADD77R,0.00098X0.10335*%
%ADD78R,0.00098X0.10630*%
%ADD79R,0.00098X0.10827*%
%ADD80R,0.00098X0.10531*%
%ADD81R,0.00098X0.06004*%
%ADD82R,0.00098X0.10728*%
%ADD83R,0.00098X0.11024*%
%ADD84R,0.00098X0.06201*%
%ADD85R,0.00098X0.10925*%
%ADD86R,0.00098X0.11122*%
%ADD87R,0.00098X0.08268*%
%ADD88R,0.00098X0.11319*%
%ADD89R,0.00098X0.08465*%
%ADD90R,0.00098X0.05906*%
%ADD91R,0.00098X0.11220*%
%ADD92R,0.00098X0.11516*%
%ADD93R,0.00098X0.08661*%
%ADD94R,0.00098X0.05807*%
%ADD95R,0.00098X0.11417*%
%ADD96R,0.00098X0.11713*%
%ADD97R,0.00098X0.08760*%
%ADD98R,0.00098X0.06102*%
%ADD99R,0.00098X0.11811*%
%ADD100R,0.00098X0.11909*%
%ADD101R,0.00098X0.09055*%
%ADD102R,0.00098X0.12008*%
%ADD103R,0.00098X0.06299*%
%ADD104R,0.00098X0.12106*%
%ADD105R,0.00098X0.06398*%
%ADD106R,0.00098X0.07579*%
%ADD107R,0.00098X0.07776*%
%ADD108R,0.00098X0.12303*%
%ADD109R,0.00098X0.14567*%
%ADD110R,0.00098X0.06496*%
%ADD111R,0.00098X0.12205*%
%ADD112R,0.00098X0.14665*%
%ADD113R,0.00098X0.06594*%
%ADD114R,0.00098X0.12500*%
%ADD115R,0.00098X0.09547*%
%ADD116R,0.00098X0.14764*%
%ADD117R,0.00098X0.09744*%
%ADD118R,0.00098X0.08071*%
%ADD119R,0.00098X0.08366*%
%ADD120R,0.00098X0.08169*%
%ADD121R,0.00098X0.07972*%
%ADD122R,0.00098X0.07874*%
%ADD123R,0.00098X0.07677*%
%ADD124R,0.00098X0.06988*%
%ADD125R,0.00098X0.06890*%
%ADD126R,0.00098X0.07382*%
%ADD127R,0.00098X0.06791*%
%ADD128R,0.00098X0.07480*%
%ADD129R,0.00098X0.07283*%
%ADD130R,0.00098X0.07185*%
%ADD131R,0.00098X0.07087*%
%ADD132R,0.00098X0.06693*%
D10*
X0157742Y0060889D02*
X0157742Y0063358D01*
X0157742Y0062123D02*
X0161445Y0062123D01*
X0163742Y0062744D02*
X0163742Y0060275D01*
X0165594Y0061509D02*
X0165594Y0062744D01*
X0166828Y0063958D02*
X0163742Y0063958D01*
X0163742Y0062744D02*
X0167445Y0062744D01*
X0167445Y0060275D01*
X0166828Y0063958D02*
X0167445Y0064575D01*
X0167445Y0065810D01*
X0166828Y0066427D01*
X0163742Y0066427D01*
X0164359Y0067641D02*
X0166828Y0067641D01*
X0167445Y0068259D01*
X0167445Y0069493D01*
X0166828Y0070110D01*
X0164359Y0070110D01*
X0163742Y0069493D01*
X0163742Y0068259D01*
X0164359Y0067641D01*
X0166211Y0068876D02*
X0167445Y0067641D01*
X0167445Y0071324D02*
X0167445Y0073793D01*
X0163742Y0073793D01*
X0163742Y0071324D01*
X0165594Y0072559D02*
X0165594Y0073793D01*
X0166211Y0075008D02*
X0163742Y0075008D01*
X0161445Y0074407D02*
X0157742Y0074407D01*
X0159594Y0073790D02*
X0161445Y0071938D01*
X0161445Y0070724D02*
X0161445Y0068872D01*
X0160828Y0068255D01*
X0160211Y0068255D01*
X0159594Y0068872D01*
X0159594Y0070724D01*
X0161445Y0070724D02*
X0157742Y0070724D01*
X0157742Y0068872D01*
X0158359Y0068255D01*
X0158976Y0068255D01*
X0159594Y0068872D01*
X0158359Y0067041D02*
X0160828Y0067041D01*
X0161445Y0066424D01*
X0161445Y0065189D01*
X0160828Y0064572D01*
X0158359Y0064572D01*
X0157742Y0065189D01*
X0157742Y0066424D01*
X0158359Y0067041D01*
X0157742Y0071938D02*
X0160211Y0074407D01*
X0163742Y0077476D02*
X0166211Y0077476D01*
X0167445Y0076242D01*
X0166211Y0075008D01*
X0167445Y0078691D02*
X0167445Y0081160D01*
X0163742Y0081160D01*
X0163742Y0078691D01*
X0165594Y0079925D02*
X0165594Y0081160D01*
X0167445Y0082374D02*
X0167445Y0084843D01*
X0163742Y0084843D01*
X0161445Y0087288D02*
X0161445Y0088523D01*
X0160828Y0089140D01*
X0158359Y0086671D01*
X0160828Y0086671D01*
X0161445Y0087288D01*
X0160828Y0089140D02*
X0158359Y0089140D01*
X0157742Y0088523D01*
X0157742Y0087288D01*
X0158359Y0086671D01*
X0160828Y0090364D02*
X0161445Y0090364D01*
X0161445Y0090981D01*
X0160828Y0090981D01*
X0160828Y0090364D01*
X0161445Y0092196D02*
X0161445Y0094664D01*
X0158976Y0092196D01*
X0158359Y0092196D01*
X0157742Y0092813D01*
X0157742Y0094047D01*
X0158359Y0094664D01*
X0158976Y0095879D02*
X0161445Y0097113D01*
X0158976Y0098348D01*
X0158976Y0103248D02*
X0158976Y0103866D01*
X0160211Y0105100D01*
X0161445Y0105100D02*
X0158976Y0105100D01*
X0159594Y0106314D02*
X0158976Y0106932D01*
X0158976Y0108166D01*
X0159594Y0108783D01*
X0160828Y0108783D01*
X0161445Y0108166D01*
X0161445Y0106932D01*
X0160828Y0106314D01*
X0159594Y0106314D01*
X0158976Y0110004D02*
X0158976Y0111239D01*
X0158359Y0110621D02*
X0160828Y0110621D01*
X0161445Y0110004D01*
X0163742Y0110615D02*
X0164359Y0109997D01*
X0164976Y0109997D01*
X0165594Y0110615D01*
X0165594Y0112466D01*
X0166211Y0113681D02*
X0166828Y0113681D01*
X0167445Y0114298D01*
X0167445Y0116149D01*
X0163742Y0116149D01*
X0163742Y0114298D01*
X0164359Y0113681D01*
X0164976Y0113681D01*
X0165594Y0114298D01*
X0165594Y0116149D01*
X0165594Y0117364D02*
X0165594Y0119833D01*
X0164976Y0119833D02*
X0167445Y0119833D01*
X0167445Y0121047D02*
X0167445Y0123516D01*
X0163742Y0123516D01*
X0161445Y0124130D02*
X0158976Y0124130D01*
X0158976Y0125351D02*
X0158976Y0126585D01*
X0158359Y0125968D02*
X0160828Y0125968D01*
X0161445Y0125351D01*
X0160211Y0124130D02*
X0158976Y0122895D01*
X0158976Y0122278D01*
X0158976Y0121060D02*
X0158976Y0120443D01*
X0161445Y0120443D01*
X0161445Y0121060D02*
X0161445Y0119826D01*
X0161445Y0118605D02*
X0161445Y0116753D01*
X0160828Y0116136D01*
X0159594Y0116136D01*
X0158976Y0116753D01*
X0158976Y0118605D01*
X0157742Y0118605D02*
X0161445Y0118605D01*
X0163742Y0118598D02*
X0164976Y0119833D01*
X0163742Y0118598D02*
X0164976Y0117364D01*
X0167445Y0117364D01*
X0165594Y0114298D02*
X0166211Y0113681D01*
X0167445Y0112466D02*
X0163742Y0112466D01*
X0163742Y0110615D01*
X0163742Y0108783D02*
X0167445Y0108783D01*
X0167445Y0106314D01*
X0165594Y0107549D02*
X0165594Y0108783D01*
X0166211Y0109997D02*
X0166828Y0109997D01*
X0167445Y0110615D01*
X0167445Y0112466D01*
X0165594Y0110615D02*
X0166211Y0109997D01*
X0163742Y0108783D02*
X0163742Y0106314D01*
X0161445Y0112453D02*
X0158976Y0112453D01*
X0161445Y0112453D02*
X0161445Y0114305D01*
X0160828Y0114922D01*
X0158976Y0114922D01*
X0157742Y0120443D02*
X0157125Y0120443D01*
X0158976Y0127799D02*
X0158976Y0129651D01*
X0159594Y0130268D01*
X0160211Y0129651D01*
X0160211Y0128417D01*
X0160828Y0127799D01*
X0161445Y0128417D01*
X0161445Y0130268D01*
X0161445Y0131489D02*
X0161445Y0132724D01*
X0161445Y0132106D02*
X0158976Y0132106D01*
X0158976Y0132724D01*
X0158359Y0133938D02*
X0160828Y0133938D01*
X0161445Y0134555D01*
X0161445Y0136407D01*
X0157742Y0136407D01*
X0157742Y0134555D01*
X0158359Y0133938D01*
X0157742Y0132106D02*
X0157125Y0132106D01*
X0163742Y0132724D02*
X0164359Y0132724D01*
X0165594Y0131489D01*
X0167445Y0131489D01*
X0165594Y0131489D02*
X0164359Y0130255D01*
X0163742Y0130255D01*
X0166828Y0129040D02*
X0166828Y0128423D01*
X0167445Y0128423D01*
X0167445Y0129040D01*
X0166828Y0129040D01*
X0165594Y0137621D02*
X0165594Y0140090D01*
X0164359Y0144987D02*
X0166828Y0147456D01*
X0167445Y0147456D01*
X0167445Y0148670D02*
X0167445Y0151139D01*
X0167445Y0149905D02*
X0163742Y0149905D01*
X0164976Y0151139D01*
X0164359Y0152354D02*
X0166828Y0154822D01*
X0167445Y0154205D01*
X0167445Y0152971D01*
X0166828Y0152354D01*
X0164359Y0152354D01*
X0163742Y0152971D01*
X0163742Y0154205D01*
X0164359Y0154822D01*
X0166828Y0154822D01*
X0167445Y0156037D02*
X0167445Y0158506D01*
X0164976Y0156037D01*
X0164359Y0156037D01*
X0163742Y0156654D01*
X0163742Y0157888D01*
X0164359Y0158506D01*
X0161445Y0157892D02*
X0157742Y0157892D01*
X0157742Y0156040D01*
X0158359Y0155423D01*
X0159594Y0155423D01*
X0160211Y0156040D01*
X0160211Y0157892D01*
X0160828Y0154209D02*
X0161445Y0153591D01*
X0161445Y0152357D01*
X0160828Y0151740D01*
X0159594Y0151740D01*
X0158976Y0152357D01*
X0158976Y0153591D01*
X0159594Y0154209D01*
X0160828Y0154209D01*
X0160828Y0150525D02*
X0161445Y0149908D01*
X0160828Y0149291D01*
X0161445Y0148674D01*
X0160828Y0148057D01*
X0158976Y0148057D01*
X0159594Y0146842D02*
X0158976Y0146225D01*
X0158976Y0144991D01*
X0159594Y0144373D01*
X0160211Y0144373D01*
X0160211Y0146842D01*
X0160828Y0146842D02*
X0159594Y0146842D01*
X0160828Y0146842D02*
X0161445Y0146225D01*
X0161445Y0144991D01*
X0161445Y0143159D02*
X0158976Y0143159D01*
X0158976Y0141925D02*
X0160211Y0143159D01*
X0158976Y0141925D02*
X0158976Y0141308D01*
X0163742Y0144987D02*
X0164359Y0144987D01*
X0163742Y0144987D02*
X0163742Y0147456D01*
X0160828Y0150525D02*
X0158976Y0150525D01*
X0164359Y0101417D02*
X0164976Y0101417D01*
X0167445Y0098948D01*
X0166211Y0098948D02*
X0167445Y0100182D01*
X0167445Y0100800D01*
X0166828Y0101417D01*
X0166211Y0101417D01*
X0164976Y0100182D01*
X0164359Y0100182D01*
X0163742Y0100800D01*
X0164359Y0101417D01*
X0164359Y0094051D02*
X0166828Y0094051D01*
X0167445Y0093433D01*
X0167445Y0092199D01*
X0166828Y0091582D01*
X0164359Y0091582D01*
X0163742Y0092199D01*
X0163742Y0093433D01*
X0164359Y0094051D01*
X0166828Y0090367D02*
X0166828Y0089750D01*
X0167445Y0089750D01*
X0167445Y0090367D01*
X0166828Y0090367D01*
X0159594Y0081773D02*
X0159594Y0079305D01*
D11*
X0138953Y0097467D03*
X0138855Y0097467D03*
X0138757Y0097467D03*
X0138658Y0097467D03*
X0138560Y0097467D03*
X0138363Y0097565D03*
X0138264Y0097663D03*
X0138166Y0097762D03*
X0136099Y0096089D03*
X0136198Y0093136D03*
X0135213Y0092939D03*
X0132949Y0089789D03*
X0128323Y0088707D03*
X0128225Y0091659D03*
X0127142Y0091659D03*
X0124977Y0085360D03*
X0127635Y0083293D03*
X0127733Y0083293D03*
X0128127Y0080537D03*
X0123894Y0078766D03*
X0124485Y0075715D03*
X0122713Y0074337D03*
X0117595Y0075321D03*
X0117201Y0081226D03*
X0113953Y0080931D03*
X0115233Y0084671D03*
X0114347Y0084967D03*
X0114052Y0085360D03*
X0119760Y0085262D03*
X0115036Y0092939D03*
X0114938Y0092939D03*
X0115922Y0098648D03*
X0117595Y0104848D03*
X0123304Y0105242D03*
X0123402Y0105341D03*
X0124288Y0107014D03*
X0119170Y0110754D03*
X0134524Y0125222D03*
X0135705Y0125321D03*
X0135705Y0128470D03*
X0135607Y0128569D03*
X0134721Y0128569D03*
X0134623Y0128470D03*
X0128422Y0135754D03*
X0127438Y0136049D03*
X0127536Y0138707D03*
X0125568Y0139986D03*
X0125469Y0139986D03*
X0124879Y0140183D03*
X0125469Y0143037D03*
X0120745Y0134278D03*
X0120745Y0131325D03*
X0119957Y0131423D03*
X0118383Y0129159D03*
X0114938Y0138313D03*
X0103717Y0136344D03*
X0103520Y0134868D03*
X0138264Y0107014D03*
X0140430Y0108490D03*
X0140627Y0108392D03*
X0140725Y0108392D03*
X0141414Y0108687D03*
X0141414Y0111935D03*
X0141316Y0112033D03*
X0146335Y0109376D03*
X0137969Y0104061D03*
X0137871Y0104061D03*
X0137772Y0104061D03*
X0137674Y0104061D03*
X0137575Y0104159D03*
X0137477Y0104159D03*
X0139249Y0100911D03*
X0139347Y0100715D03*
X0100075Y0067152D03*
D12*
X0098205Y0072417D03*
X0099485Y0082949D03*
X0111001Y0074976D03*
X0114642Y0079898D03*
X0117398Y0082850D03*
X0123796Y0078520D03*
X0122123Y0074189D03*
X0121040Y0071827D03*
X0126946Y0089150D03*
X0128422Y0088953D03*
X0136394Y0093480D03*
X0135213Y0095843D03*
X0138068Y0098008D03*
X0139446Y0097811D03*
X0138363Y0106768D03*
X0141611Y0108933D03*
X0142398Y0110508D03*
X0141611Y0111689D03*
X0146237Y0109425D03*
X0134426Y0125272D03*
X0134426Y0128224D03*
X0135804Y0128323D03*
X0132457Y0131177D03*
X0128619Y0138362D03*
X0125764Y0142890D03*
X0119268Y0132654D03*
X0120843Y0131374D03*
X0118284Y0129209D03*
X0116414Y0133638D03*
X0122615Y0122811D03*
X0103520Y0136295D03*
X0104012Y0142398D03*
X0103914Y0146925D03*
X0103816Y0146925D03*
X0116020Y0098697D03*
D13*
X0116119Y0098648D03*
X0107851Y0102486D03*
X0118186Y0112722D03*
X0124190Y0106915D03*
X0127339Y0115183D03*
X0138363Y0104455D03*
X0146138Y0109474D03*
X0128422Y0091561D03*
X0126355Y0090577D03*
X0128028Y0083195D03*
X0120154Y0071482D03*
X0120351Y0071384D03*
X0114839Y0079848D03*
X0111591Y0086344D03*
X0118186Y0129159D03*
X0108442Y0134376D03*
X0107753Y0134278D03*
X0103619Y0131030D03*
X0103520Y0131030D03*
X0103914Y0142250D03*
X0104209Y0146876D03*
X0104308Y0146876D03*
X0104406Y0146876D03*
X0104505Y0146876D03*
X0104603Y0146876D03*
X0104701Y0146876D03*
X0104800Y0146876D03*
X0104898Y0146876D03*
X0126650Y0141856D03*
X0128619Y0135951D03*
D14*
X0120942Y0131571D03*
X0119367Y0132654D03*
X0120646Y0124878D03*
X0120745Y0124878D03*
X0120843Y0124780D03*
X0127044Y0123402D03*
X0127142Y0123402D03*
X0127241Y0123402D03*
X0134327Y0125469D03*
X0127635Y0115232D03*
X0127044Y0115528D03*
X0118284Y0112673D03*
X0112772Y0108638D03*
X0112674Y0108638D03*
X0112575Y0108638D03*
X0112477Y0108638D03*
X0112379Y0108638D03*
X0112280Y0108638D03*
X0112182Y0108638D03*
X0112083Y0108638D03*
X0111985Y0108638D03*
X0111886Y0108638D03*
X0111788Y0108638D03*
X0111690Y0108638D03*
X0111296Y0108539D03*
X0111198Y0108539D03*
X0111099Y0108539D03*
X0111001Y0108539D03*
X0110902Y0108539D03*
X0110804Y0108539D03*
X0110705Y0108539D03*
X0110607Y0108539D03*
X0110509Y0108539D03*
X0110312Y0108441D03*
X0110213Y0108441D03*
X0110115Y0108441D03*
X0110016Y0108441D03*
X0109918Y0108441D03*
X0109820Y0108441D03*
X0109721Y0108441D03*
X0109623Y0108441D03*
X0109524Y0108441D03*
X0109426Y0108441D03*
X0109327Y0108441D03*
X0109131Y0108343D03*
X0109032Y0108343D03*
X0108934Y0108343D03*
X0108835Y0108343D03*
X0108737Y0108343D03*
X0108638Y0108343D03*
X0108540Y0108343D03*
X0108442Y0108343D03*
X0108343Y0108343D03*
X0108245Y0108343D03*
X0108048Y0108244D03*
X0107949Y0108244D03*
X0107851Y0108244D03*
X0107753Y0108244D03*
X0107654Y0108244D03*
X0107556Y0108244D03*
X0107457Y0108244D03*
X0107359Y0108244D03*
X0107260Y0108244D03*
X0107162Y0108244D03*
X0107064Y0108244D03*
X0106867Y0108146D03*
X0106768Y0108146D03*
X0106670Y0108146D03*
X0106572Y0108146D03*
X0106473Y0108146D03*
X0106375Y0108146D03*
X0106276Y0108146D03*
X0106178Y0108146D03*
X0106079Y0108146D03*
X0105981Y0108146D03*
X0105784Y0108047D03*
X0105686Y0108047D03*
X0105587Y0108047D03*
X0105489Y0108047D03*
X0105390Y0108047D03*
X0105292Y0108047D03*
X0105194Y0108047D03*
X0105095Y0108047D03*
X0104997Y0108047D03*
X0104898Y0108047D03*
X0104800Y0108047D03*
X0104701Y0107949D03*
X0104603Y0107949D03*
X0104505Y0107949D03*
X0104406Y0107949D03*
X0104308Y0107949D03*
X0104209Y0107949D03*
X0104111Y0107949D03*
X0104012Y0107949D03*
X0103914Y0107949D03*
X0103816Y0107949D03*
X0103717Y0107949D03*
X0103619Y0107850D03*
X0103520Y0107850D03*
X0103422Y0107850D03*
X0103323Y0107850D03*
X0103225Y0107850D03*
X0103127Y0107850D03*
X0103028Y0107850D03*
X0102930Y0107850D03*
X0102831Y0107850D03*
X0102733Y0107850D03*
X0102635Y0107850D03*
X0102536Y0107752D03*
X0102438Y0107752D03*
X0102339Y0107752D03*
X0102241Y0107752D03*
X0102142Y0107752D03*
X0102044Y0107752D03*
X0101946Y0107752D03*
X0101847Y0107752D03*
X0101749Y0107752D03*
X0101650Y0107752D03*
X0101552Y0107752D03*
X0101355Y0107654D03*
X0101257Y0107654D03*
X0101158Y0107654D03*
X0101060Y0107654D03*
X0100961Y0107654D03*
X0100863Y0107654D03*
X0100764Y0107654D03*
X0100666Y0107654D03*
X0100568Y0107654D03*
X0100469Y0107654D03*
X0100272Y0107555D03*
X0100174Y0107555D03*
X0100075Y0107555D03*
X0099977Y0107555D03*
X0099879Y0107555D03*
X0099780Y0107555D03*
X0099682Y0107555D03*
X0099583Y0107555D03*
X0099485Y0107555D03*
X0099386Y0107555D03*
X0099091Y0107457D03*
X0098993Y0107457D03*
X0098894Y0107457D03*
X0098796Y0107457D03*
X0098698Y0107457D03*
X0098599Y0107457D03*
X0098501Y0107457D03*
X0098402Y0107457D03*
X0098304Y0107457D03*
X0098009Y0107358D03*
X0097910Y0107358D03*
X0097812Y0107358D03*
X0097713Y0107358D03*
X0097615Y0107358D03*
X0097516Y0107358D03*
X0097418Y0107358D03*
X0097320Y0107358D03*
X0097221Y0107358D03*
X0097123Y0107358D03*
X0097024Y0107358D03*
X0101847Y0111492D03*
X0101946Y0111492D03*
X0102733Y0111492D03*
X0102831Y0111492D03*
X0102930Y0111492D03*
X0103028Y0111492D03*
X0103520Y0111591D03*
X0103619Y0111591D03*
X0102831Y0102043D03*
X0101946Y0101945D03*
X0101060Y0101846D03*
X0100961Y0101846D03*
X0100174Y0101748D03*
X0099386Y0101650D03*
X0099288Y0101650D03*
X0098698Y0101551D03*
X0098599Y0101551D03*
X0098501Y0101551D03*
X0098205Y0101453D03*
X0098107Y0101453D03*
X0098205Y0097024D03*
X0098304Y0097024D03*
X0098402Y0097024D03*
X0098501Y0097024D03*
X0098599Y0097024D03*
X0098698Y0097024D03*
X0098796Y0097024D03*
X0098894Y0097024D03*
X0101650Y0091413D03*
X0102044Y0091413D03*
X0102142Y0091413D03*
X0102241Y0091413D03*
X0102339Y0091413D03*
X0102438Y0091413D03*
X0102536Y0091413D03*
X0102635Y0091413D03*
X0103323Y0091512D03*
X0103422Y0091512D03*
X0103520Y0091512D03*
X0102142Y0088264D03*
X0108343Y0092004D03*
X0108737Y0092102D03*
X0108835Y0092102D03*
X0114150Y0091413D03*
X0116020Y0085803D03*
X0114052Y0081276D03*
X0114150Y0081079D03*
X0114249Y0080882D03*
X0114347Y0080783D03*
X0115135Y0079799D03*
X0115233Y0079701D03*
X0115331Y0079602D03*
X0119072Y0076945D03*
X0117792Y0075173D03*
X0119859Y0071827D03*
X0120646Y0071728D03*
X0120745Y0071827D03*
X0121729Y0073303D03*
X0121926Y0073598D03*
X0122516Y0074583D03*
X0122615Y0074681D03*
X0121729Y0081177D03*
X0124780Y0085409D03*
X0123107Y0091315D03*
X0123304Y0091610D03*
X0132753Y0089839D03*
X0137477Y0099189D03*
X0146040Y0109425D03*
X0108835Y0102535D03*
X0104800Y0122122D03*
X0104701Y0122122D03*
X0104012Y0122024D03*
X0103914Y0122024D03*
X0103323Y0121925D03*
X0103225Y0121925D03*
X0103127Y0121925D03*
X0102635Y0121827D03*
X0102536Y0121827D03*
X0102438Y0121827D03*
X0102044Y0121728D03*
X0101946Y0121728D03*
X0101847Y0124780D03*
X0105292Y0125075D03*
X0107949Y0126748D03*
X0102733Y0130980D03*
X0102635Y0130980D03*
X0102536Y0130980D03*
X0102438Y0130980D03*
X0102142Y0130882D03*
X0102044Y0130882D03*
X0101946Y0130882D03*
X0101847Y0130783D03*
X0104209Y0133933D03*
X0107064Y0134130D03*
X0107162Y0134130D03*
X0103323Y0142201D03*
X0103225Y0142201D03*
X0103127Y0142201D03*
X0099485Y0141807D03*
X0099386Y0141807D03*
X0099288Y0141807D03*
X0099190Y0141807D03*
X0099091Y0141807D03*
X0098993Y0141807D03*
X0098894Y0141807D03*
X0098796Y0141807D03*
X0098698Y0141807D03*
X0098599Y0141807D03*
X0098501Y0141807D03*
X0098009Y0151945D03*
X0097910Y0151945D03*
X0097812Y0151945D03*
X0097713Y0151945D03*
X0097615Y0151945D03*
X0097516Y0151945D03*
X0097418Y0151945D03*
X0097320Y0151945D03*
X0097221Y0151945D03*
X0097123Y0151945D03*
X0096926Y0151846D03*
X0096827Y0151846D03*
X0096729Y0151846D03*
X0098205Y0152043D03*
X0098304Y0152043D03*
X0098402Y0152043D03*
X0098501Y0152043D03*
X0098599Y0152043D03*
X0098698Y0152043D03*
X0098796Y0152043D03*
X0098894Y0152043D03*
X0098993Y0152043D03*
X0099091Y0152043D03*
X0099288Y0152142D03*
X0099386Y0152142D03*
X0099485Y0152142D03*
X0099583Y0152142D03*
X0099682Y0152142D03*
X0099780Y0152142D03*
X0099879Y0152142D03*
X0099977Y0152142D03*
X0100075Y0152142D03*
X0100174Y0152142D03*
X0100371Y0152240D03*
X0100469Y0152240D03*
X0100568Y0152240D03*
X0100666Y0152240D03*
X0100764Y0152240D03*
X0100863Y0152240D03*
X0100961Y0152240D03*
X0101060Y0152240D03*
X0101158Y0152240D03*
X0101257Y0152240D03*
X0101355Y0152240D03*
X0101552Y0152339D03*
X0101650Y0152339D03*
X0101749Y0152339D03*
X0101847Y0152339D03*
X0101946Y0152339D03*
X0102044Y0152339D03*
X0102142Y0152339D03*
X0102241Y0152339D03*
X0102339Y0152339D03*
X0102438Y0152339D03*
X0102635Y0152437D03*
X0102733Y0152437D03*
X0102831Y0152437D03*
X0102930Y0152437D03*
X0103028Y0152437D03*
X0103127Y0152437D03*
X0103225Y0152437D03*
X0103323Y0152437D03*
X0103422Y0152437D03*
X0103520Y0152437D03*
X0103619Y0152437D03*
X0103717Y0152535D03*
X0103816Y0152535D03*
X0103914Y0152535D03*
X0104012Y0152535D03*
X0104111Y0152535D03*
X0104209Y0152535D03*
X0104308Y0152535D03*
X0104406Y0152535D03*
X0104505Y0152535D03*
X0104603Y0152535D03*
X0104701Y0152535D03*
X0104898Y0152634D03*
X0104997Y0152634D03*
X0105095Y0152634D03*
X0105194Y0152634D03*
X0105292Y0152634D03*
X0105390Y0152634D03*
X0105489Y0152634D03*
X0105587Y0152634D03*
X0105686Y0152634D03*
X0105784Y0152634D03*
X0105883Y0152634D03*
X0105981Y0152732D03*
X0106079Y0152732D03*
X0106178Y0152732D03*
X0106276Y0152732D03*
X0106375Y0152732D03*
X0106473Y0152732D03*
X0106572Y0152732D03*
X0106670Y0152732D03*
X0106768Y0152732D03*
X0106867Y0152732D03*
X0106965Y0152732D03*
X0107064Y0152831D03*
X0107162Y0152831D03*
X0107260Y0152831D03*
X0107359Y0152831D03*
X0107457Y0152831D03*
X0107556Y0152831D03*
X0107654Y0152831D03*
X0107753Y0152831D03*
X0107851Y0152831D03*
X0107949Y0152831D03*
X0108048Y0152831D03*
X0108245Y0152929D03*
X0108343Y0152929D03*
X0108442Y0152929D03*
X0108540Y0152929D03*
X0108638Y0152929D03*
X0108737Y0152929D03*
X0108835Y0152929D03*
X0108934Y0152929D03*
X0109032Y0152929D03*
X0109131Y0152929D03*
X0109229Y0152929D03*
X0109327Y0153028D03*
X0109426Y0153028D03*
X0109524Y0153028D03*
X0109623Y0153028D03*
X0109721Y0153028D03*
X0109820Y0153028D03*
X0109918Y0153028D03*
X0110016Y0153028D03*
X0110115Y0153028D03*
X0110213Y0153028D03*
X0110312Y0153028D03*
X0110509Y0153126D03*
X0110607Y0153126D03*
X0110705Y0153126D03*
X0110804Y0153126D03*
X0110902Y0153126D03*
X0111001Y0153126D03*
X0111099Y0153126D03*
X0111198Y0153126D03*
X0111296Y0153126D03*
X0111394Y0153126D03*
X0111690Y0153224D03*
X0111788Y0153224D03*
X0111886Y0153224D03*
X0111985Y0153224D03*
X0112083Y0153224D03*
X0112182Y0153224D03*
X0112280Y0153224D03*
X0112379Y0153224D03*
X0112772Y0153323D03*
X0112871Y0153323D03*
X0112969Y0153323D03*
X0113068Y0153323D03*
X0116316Y0152535D03*
X0108737Y0078717D03*
X0108638Y0078717D03*
X0108540Y0078717D03*
X0108442Y0078717D03*
X0108048Y0078618D03*
X0107949Y0078618D03*
X0107851Y0078618D03*
X0107064Y0078520D03*
X0108048Y0075665D03*
X0108146Y0075665D03*
X0108245Y0075665D03*
X0105883Y0075370D03*
X0102438Y0077929D03*
X0102339Y0077929D03*
X0102241Y0077929D03*
X0102142Y0077929D03*
X0101847Y0078028D03*
X0103028Y0078028D03*
X0103127Y0078028D03*
X0103225Y0078028D03*
X0098796Y0074484D03*
X0098698Y0074484D03*
X0098599Y0074484D03*
X0098501Y0074484D03*
X0098205Y0074386D03*
X0098205Y0069957D03*
X0098107Y0069957D03*
X0101847Y0067201D03*
X0102831Y0067201D03*
X0102930Y0067201D03*
X0103028Y0067201D03*
X0103127Y0067201D03*
X0103225Y0067201D03*
X0103323Y0067201D03*
X0103422Y0067201D03*
X0103520Y0067201D03*
X0103717Y0067299D03*
X0103816Y0067299D03*
X0104603Y0067496D03*
X0104701Y0067496D03*
X0105587Y0067594D03*
X0105686Y0067594D03*
X0105784Y0067594D03*
X0105883Y0067594D03*
X0105981Y0067594D03*
X0106079Y0067594D03*
X0106178Y0067594D03*
X0107064Y0067693D03*
X0108442Y0067890D03*
X0108737Y0067988D03*
D15*
X0119072Y0073057D03*
X0118973Y0073254D03*
X0119268Y0072762D03*
X0119367Y0072565D03*
X0119465Y0072467D03*
X0119268Y0077093D03*
X0119859Y0078077D03*
X0119957Y0078175D03*
X0121138Y0080045D03*
X0121335Y0080341D03*
X0122123Y0081620D03*
X0122221Y0081719D03*
X0122418Y0082014D03*
X0122615Y0082309D03*
X0122812Y0082604D03*
X0123304Y0083392D03*
X0123501Y0083687D03*
X0123599Y0083884D03*
X0123698Y0083982D03*
X0124682Y0085459D03*
X0128127Y0082998D03*
X0125764Y0076994D03*
X0116020Y0080144D03*
X0115922Y0080045D03*
X0108934Y0092250D03*
X0108934Y0102388D03*
X0117792Y0105144D03*
X0121827Y0099140D03*
X0122320Y0098844D03*
X0129800Y0093431D03*
X0131375Y0095793D03*
X0131572Y0096089D03*
X0131768Y0096384D03*
X0131867Y0096581D03*
X0132064Y0096876D03*
X0132260Y0097171D03*
X0133934Y0099730D03*
X0134032Y0099927D03*
X0134131Y0100026D03*
X0134229Y0100222D03*
X0134327Y0100321D03*
X0134426Y0100518D03*
X0134623Y0100813D03*
X0134721Y0101010D03*
X0134918Y0101305D03*
X0135115Y0101600D03*
X0135312Y0101896D03*
X0135509Y0102191D03*
X0135705Y0102486D03*
X0141316Y0102585D03*
X0141512Y0102880D03*
X0141611Y0103077D03*
X0141709Y0103175D03*
X0141808Y0103372D03*
X0141906Y0103470D03*
X0142005Y0103667D03*
X0142103Y0103766D03*
X0142201Y0103963D03*
X0142300Y0104061D03*
X0142398Y0104258D03*
X0142497Y0104356D03*
X0142595Y0104553D03*
X0142694Y0104652D03*
X0142792Y0104848D03*
X0142989Y0105144D03*
X0143186Y0105439D03*
X0143383Y0105734D03*
X0143579Y0106030D03*
X0143776Y0106325D03*
X0143973Y0106620D03*
X0144170Y0106915D03*
X0144367Y0107211D03*
X0145942Y0109474D03*
X0144957Y0110951D03*
X0144760Y0111246D03*
X0144268Y0112033D03*
X0144072Y0112329D03*
X0139150Y0111837D03*
X0139052Y0111935D03*
X0138953Y0112132D03*
X0138757Y0112427D03*
X0138560Y0112722D03*
X0138461Y0112919D03*
X0137674Y0113313D03*
X0130883Y0120301D03*
X0130981Y0120498D03*
X0131178Y0120793D03*
X0131276Y0120990D03*
X0131375Y0121089D03*
X0131473Y0121285D03*
X0132556Y0122959D03*
X0132753Y0123254D03*
X0132949Y0123549D03*
X0133048Y0123746D03*
X0133245Y0124041D03*
X0133343Y0124238D03*
X0137772Y0121679D03*
X0127733Y0123844D03*
X0127635Y0123746D03*
X0127536Y0123648D03*
X0126650Y0123746D03*
X0125469Y0125321D03*
X0125272Y0125616D03*
X0125075Y0125911D03*
X0124879Y0126207D03*
X0124780Y0126305D03*
X0124682Y0126502D03*
X0124583Y0126600D03*
X0124485Y0126797D03*
X0124386Y0126896D03*
X0124190Y0127191D03*
X0123993Y0127486D03*
X0123894Y0127585D03*
X0123796Y0127781D03*
X0123698Y0127880D03*
X0123599Y0128077D03*
X0123501Y0128175D03*
X0123402Y0128372D03*
X0123304Y0128470D03*
X0123205Y0128667D03*
X0123107Y0128766D03*
X0122910Y0129061D03*
X0122812Y0129159D03*
X0122713Y0129356D03*
X0122615Y0129455D03*
X0122516Y0129652D03*
X0122418Y0129750D03*
X0122320Y0129947D03*
X0122221Y0130045D03*
X0122123Y0130242D03*
X0121926Y0130537D03*
X0117989Y0129159D03*
X0120351Y0124730D03*
X0121040Y0124632D03*
X0121138Y0124533D03*
X0121729Y0123648D03*
X0122713Y0122171D03*
X0122910Y0121876D03*
X0123009Y0121679D03*
X0123107Y0121581D03*
X0123205Y0121384D03*
X0123304Y0121285D03*
X0123402Y0121089D03*
X0123501Y0120990D03*
X0123599Y0120793D03*
X0123796Y0120498D03*
X0123894Y0120301D03*
X0123993Y0120203D03*
X0124091Y0120006D03*
X0124190Y0119907D03*
X0124288Y0119711D03*
X0124386Y0119612D03*
X0124485Y0119415D03*
X0124583Y0119317D03*
X0124682Y0119120D03*
X0124780Y0119022D03*
X0124879Y0118825D03*
X0124977Y0118726D03*
X0125075Y0118530D03*
X0125272Y0118234D03*
X0125469Y0117939D03*
X0125666Y0117644D03*
X0125764Y0117447D03*
X0125863Y0117348D03*
X0125961Y0117152D03*
X0126060Y0117053D03*
X0126158Y0116856D03*
X0126257Y0116758D03*
X0126355Y0116561D03*
X0126453Y0116463D03*
X0127831Y0115478D03*
X0127930Y0115577D03*
X0121040Y0116364D03*
X0120942Y0116463D03*
X0120843Y0116463D03*
X0118383Y0112722D03*
X0104012Y0134081D03*
X0099485Y0137821D03*
X0115135Y0139100D03*
X0115233Y0139297D03*
X0115331Y0139396D03*
X0115528Y0139691D03*
X0119170Y0137722D03*
X0119268Y0137821D03*
X0119367Y0138018D03*
X0119564Y0138313D03*
X0119760Y0138608D03*
X0119957Y0138904D03*
X0120056Y0139002D03*
X0120253Y0139297D03*
X0120843Y0139494D03*
X0120942Y0139396D03*
X0119072Y0137526D03*
X0118875Y0137230D03*
X0118776Y0137033D03*
X0118678Y0136935D03*
X0118579Y0136738D03*
X0118383Y0136443D03*
X0122812Y0145104D03*
X0122713Y0145203D03*
X0120942Y0147565D03*
X0120843Y0147565D03*
X0120745Y0147565D03*
X0132654Y0089789D03*
D16*
X0131276Y0087722D03*
X0131079Y0087427D03*
X0130883Y0087132D03*
X0130784Y0086935D03*
X0130686Y0086837D03*
X0130587Y0086640D03*
X0130489Y0086541D03*
X0130390Y0086344D03*
X0130292Y0086246D03*
X0130194Y0086049D03*
X0130095Y0085951D03*
X0129997Y0085754D03*
X0129898Y0085656D03*
X0129800Y0085459D03*
X0129701Y0085360D03*
X0129603Y0085163D03*
X0129406Y0084868D03*
X0123698Y0091955D03*
X0124190Y0092742D03*
X0124386Y0093037D03*
X0122024Y0099041D03*
X0125371Y0102978D03*
X0123993Y0106817D03*
X0120942Y0108490D03*
X0118087Y0104750D03*
X0118284Y0104455D03*
X0118481Y0104159D03*
X0121729Y0115380D03*
X0121237Y0116167D03*
X0120745Y0116364D03*
X0116709Y0118825D03*
X0117005Y0119317D03*
X0121335Y0124337D03*
X0121237Y0124435D03*
X0126060Y0124435D03*
X0126158Y0124337D03*
X0126257Y0124140D03*
X0126355Y0124041D03*
X0127930Y0124140D03*
X0128127Y0124435D03*
X0128717Y0128372D03*
X0128520Y0128667D03*
X0128422Y0128766D03*
X0128225Y0129061D03*
X0128028Y0129356D03*
X0127438Y0130242D03*
X0127241Y0130537D03*
X0127142Y0130636D03*
X0126946Y0130931D03*
X0126749Y0131226D03*
X0126650Y0131325D03*
X0126552Y0131522D03*
X0126453Y0131620D03*
X0125961Y0132309D03*
X0125863Y0132506D03*
X0125764Y0132604D03*
X0125666Y0132801D03*
X0125568Y0132900D03*
X0125371Y0133195D03*
X0125272Y0133293D03*
X0125075Y0133589D03*
X0124879Y0133884D03*
X0124583Y0134278D03*
X0124386Y0134573D03*
X0123698Y0135557D03*
X0123501Y0135852D03*
X0122516Y0137230D03*
X0122320Y0137526D03*
X0122123Y0137821D03*
X0121827Y0138215D03*
X0121631Y0138510D03*
X0121434Y0138805D03*
X0123894Y0143530D03*
X0123796Y0143726D03*
X0123698Y0143825D03*
X0123599Y0144022D03*
X0123501Y0144120D03*
X0123304Y0144415D03*
X0123107Y0144711D03*
X0122615Y0145498D03*
X0122516Y0145596D03*
X0122320Y0145892D03*
X0122221Y0145990D03*
X0122123Y0146187D03*
X0121926Y0146482D03*
X0121729Y0146778D03*
X0121434Y0147171D03*
X0121335Y0147270D03*
X0121237Y0147368D03*
X0121138Y0147467D03*
X0118875Y0144907D03*
X0118678Y0144612D03*
X0118579Y0144415D03*
X0118383Y0144120D03*
X0118186Y0143825D03*
X0117694Y0143037D03*
X0117497Y0142742D03*
X0117300Y0142447D03*
X0117103Y0142152D03*
X0116808Y0141659D03*
X0116611Y0141364D03*
X0116512Y0141266D03*
X0116414Y0141069D03*
X0116217Y0140774D03*
X0116020Y0140478D03*
X0119465Y0132604D03*
X0117792Y0129356D03*
X0107753Y0126502D03*
X0102831Y0141069D03*
X0102733Y0141069D03*
X0093678Y0150616D03*
X0129997Y0118923D03*
X0129800Y0118628D03*
X0129701Y0118431D03*
X0130194Y0119219D03*
X0130390Y0119514D03*
X0128323Y0116167D03*
X0128225Y0116069D03*
X0128127Y0115872D03*
X0137477Y0113116D03*
X0141611Y0116069D03*
X0141709Y0115970D03*
X0141808Y0115774D03*
X0141906Y0115675D03*
X0142005Y0115478D03*
X0142103Y0115380D03*
X0142300Y0115085D03*
X0142398Y0114888D03*
X0142497Y0114789D03*
X0142595Y0114593D03*
X0142694Y0114494D03*
X0142792Y0114297D03*
X0142989Y0114002D03*
X0143186Y0113707D03*
X0141512Y0116266D03*
X0141316Y0116561D03*
X0141217Y0116659D03*
X0141119Y0116856D03*
X0141020Y0116955D03*
X0140922Y0117152D03*
X0140823Y0117250D03*
X0140725Y0117447D03*
X0140528Y0117742D03*
X0140331Y0118037D03*
X0140135Y0118333D03*
X0139938Y0118628D03*
X0137969Y0121482D03*
X0137871Y0121581D03*
X0132162Y0131030D03*
X0145843Y0109474D03*
X0140922Y0101994D03*
X0140725Y0101699D03*
X0140627Y0101502D03*
X0140528Y0101404D03*
X0140430Y0101207D03*
X0136001Y0102978D03*
X0132753Y0097860D03*
X0131079Y0095301D03*
X0136788Y0094612D03*
X0120843Y0079553D03*
X0120646Y0079258D03*
X0120548Y0079061D03*
X0120351Y0078766D03*
X0116611Y0081030D03*
X0116316Y0080537D03*
X0116217Y0080439D03*
X0117694Y0082801D03*
X0117890Y0083096D03*
X0118186Y0087132D03*
X0117989Y0087427D03*
X0117792Y0087722D03*
X0117595Y0088018D03*
X0116808Y0089199D03*
X0116709Y0089396D03*
X0105390Y0083392D03*
X0104997Y0083589D03*
X0099485Y0085656D03*
X0104898Y0097073D03*
D17*
X0105292Y0096778D03*
X0101847Y0085360D03*
X0105095Y0083589D03*
X0105194Y0083589D03*
X0099485Y0079947D03*
X0099682Y0069514D03*
X0119268Y0085360D03*
X0122123Y0089593D03*
X0121040Y0091266D03*
X0120843Y0091561D03*
X0120646Y0091856D03*
X0120548Y0092053D03*
X0120351Y0092348D03*
X0120154Y0092644D03*
X0131079Y0092152D03*
X0132457Y0089789D03*
X0136690Y0094612D03*
X0134032Y0096187D03*
X0133934Y0096384D03*
X0125961Y0108785D03*
X0125764Y0109081D03*
X0125568Y0109376D03*
X0125469Y0109573D03*
X0125371Y0109671D03*
X0124485Y0111049D03*
X0123501Y0112624D03*
X0119465Y0111148D03*
X0119760Y0114888D03*
X0119859Y0115085D03*
X0120056Y0115380D03*
X0120351Y0115872D03*
X0118678Y0122073D03*
X0129800Y0127191D03*
X0129898Y0127388D03*
X0129997Y0127585D03*
X0130095Y0127683D03*
X0130194Y0127880D03*
X0130292Y0128077D03*
X0130390Y0128175D03*
X0130489Y0128372D03*
X0130587Y0128569D03*
X0130883Y0129061D03*
X0130981Y0129258D03*
X0131079Y0129455D03*
X0132064Y0131030D03*
X0136788Y0120793D03*
X0136591Y0120498D03*
X0136394Y0120203D03*
X0136099Y0119711D03*
X0135902Y0119415D03*
X0132556Y0114199D03*
X0132457Y0114002D03*
X0132260Y0113707D03*
X0132064Y0113411D03*
X0131867Y0113116D03*
X0131670Y0112821D03*
X0139446Y0111049D03*
X0139938Y0110656D03*
X0145745Y0109474D03*
X0107359Y0126207D03*
X0105587Y0125616D03*
X0101847Y0118923D03*
X0105095Y0117152D03*
X0105194Y0117053D03*
X0101749Y0114986D03*
X0103422Y0135557D03*
X0119859Y0146384D03*
X0119957Y0146482D03*
X0120056Y0146679D03*
X0120154Y0146778D03*
D18*
X0111394Y0144907D03*
X0109032Y0135065D03*
X0101946Y0135656D03*
X0105686Y0125715D03*
X0107162Y0126108D03*
X0108934Y0121876D03*
X0119662Y0132703D03*
X0127142Y0137329D03*
X0129308Y0135557D03*
X0131965Y0131030D03*
X0139544Y0110852D03*
X0142103Y0110360D03*
X0145646Y0109474D03*
X0130194Y0093628D03*
X0122221Y0089494D03*
X0119170Y0085360D03*
X0125568Y0076994D03*
X0118579Y0074337D03*
X0100075Y0069514D03*
X0121335Y0107604D03*
X0123796Y0106719D03*
X0127438Y0106423D03*
X0116217Y0109474D03*
D19*
X0119170Y0113411D03*
X0121434Y0107309D03*
X0123599Y0106719D03*
X0127339Y0106423D03*
X0138560Y0105537D03*
X0140135Y0100222D03*
X0136493Y0094612D03*
X0134229Y0095498D03*
X0132260Y0089789D03*
X0126847Y0090380D03*
X0124288Y0085557D03*
X0126453Y0081915D03*
X0118973Y0085360D03*
X0114544Y0091364D03*
X0118284Y0075026D03*
X0110213Y0074632D03*
X0110115Y0074632D03*
X0109820Y0074730D03*
X0100272Y0069317D03*
X0100174Y0069317D03*
X0145548Y0109474D03*
X0133638Y0125222D03*
X0136099Y0126896D03*
X0131867Y0131030D03*
X0127339Y0137329D03*
X0126158Y0141561D03*
X0111493Y0129159D03*
X0102339Y0135262D03*
X0102044Y0141364D03*
X0099386Y0127978D03*
X0099682Y0113411D03*
D20*
X0100568Y0119809D03*
X0102635Y0135163D03*
X0111493Y0136738D03*
X0121631Y0131620D03*
X0126060Y0141561D03*
X0119268Y0113510D03*
X0118776Y0112624D03*
X0121631Y0107014D03*
X0121827Y0106719D03*
X0127241Y0106423D03*
X0138461Y0105537D03*
X0140036Y0100026D03*
X0134327Y0095301D03*
X0130390Y0093628D03*
X0126552Y0081915D03*
X0123205Y0076502D03*
X0111394Y0070498D03*
X0108934Y0074829D03*
X0116316Y0090577D03*
X0145449Y0109474D03*
D21*
X0145351Y0109474D03*
X0141709Y0110262D03*
X0139642Y0099337D03*
X0139544Y0099238D03*
X0133343Y0097959D03*
X0135016Y0094514D03*
X0135115Y0094514D03*
X0127142Y0106423D03*
X0133835Y0125911D03*
X0135902Y0126896D03*
X0129012Y0136541D03*
X0128914Y0136640D03*
X0128816Y0136837D03*
X0128717Y0136935D03*
X0121434Y0132112D03*
X0111394Y0129159D03*
X0111394Y0136640D03*
X0098009Y0098156D03*
X0095843Y0072171D03*
X0111296Y0070400D03*
D22*
X0111198Y0070350D03*
X0095942Y0072220D03*
X0111296Y0086394D03*
X0123993Y0085508D03*
X0128225Y0082161D03*
X0128323Y0082260D03*
X0128717Y0090724D03*
X0128914Y0091020D03*
X0133442Y0097909D03*
X0136394Y0104504D03*
X0145253Y0109524D03*
X0133934Y0126157D03*
X0134032Y0126354D03*
X0134131Y0126453D03*
X0134229Y0126551D03*
X0131572Y0130980D03*
X0118973Y0112673D03*
X0109032Y0113461D03*
X0095942Y0099091D03*
X0098993Y0095843D03*
X0096335Y0143776D03*
D23*
X0111198Y0136591D03*
X0131473Y0130980D03*
X0145154Y0109524D03*
X0136788Y0105094D03*
X0136690Y0104996D03*
X0136591Y0104898D03*
X0136493Y0104701D03*
X0122713Y0089445D03*
X0118678Y0085409D03*
X0128619Y0082654D03*
X0111099Y0070350D03*
X0100371Y0068776D03*
X0096040Y0072220D03*
X0096040Y0099091D03*
D24*
X0101749Y0095547D03*
X0099879Y0080390D03*
X0096237Y0072220D03*
X0100961Y0068677D03*
X0101060Y0068677D03*
X0101158Y0068677D03*
X0101257Y0068677D03*
X0101355Y0068677D03*
X0101453Y0068677D03*
X0101552Y0068677D03*
X0105095Y0069071D03*
X0111394Y0081374D03*
X0126847Y0106472D03*
X0145056Y0109524D03*
X0131375Y0130980D03*
X0107260Y0140626D03*
X0096631Y0143874D03*
X0099780Y0119169D03*
X0099879Y0113854D03*
D25*
X0104997Y0117102D03*
X0107851Y0126551D03*
X0120253Y0124583D03*
X0121827Y0123500D03*
X0121926Y0123402D03*
X0122024Y0123205D03*
X0122123Y0123106D03*
X0122221Y0122909D03*
X0122812Y0122024D03*
X0125961Y0124583D03*
X0125863Y0124780D03*
X0125764Y0124878D03*
X0125666Y0125075D03*
X0125568Y0125173D03*
X0125371Y0125469D03*
X0125174Y0125764D03*
X0124977Y0126059D03*
X0124288Y0127043D03*
X0124091Y0127339D03*
X0123009Y0128913D03*
X0122024Y0130390D03*
X0121827Y0130685D03*
X0121729Y0130882D03*
X0125174Y0133441D03*
X0124977Y0133736D03*
X0124780Y0134031D03*
X0124682Y0134130D03*
X0124485Y0134425D03*
X0124288Y0134720D03*
X0124190Y0134819D03*
X0124091Y0135016D03*
X0123993Y0135114D03*
X0123894Y0135311D03*
X0123796Y0135409D03*
X0123599Y0135705D03*
X0123402Y0136000D03*
X0123304Y0136098D03*
X0123205Y0136295D03*
X0123107Y0136394D03*
X0123009Y0136591D03*
X0122910Y0136689D03*
X0122812Y0136787D03*
X0122713Y0136984D03*
X0122615Y0137083D03*
X0122418Y0137378D03*
X0122221Y0137673D03*
X0122024Y0137969D03*
X0121926Y0138067D03*
X0121729Y0138362D03*
X0121532Y0138657D03*
X0121335Y0138953D03*
X0121237Y0139051D03*
X0121138Y0139150D03*
X0121040Y0139346D03*
X0119859Y0138756D03*
X0119662Y0138461D03*
X0119465Y0138165D03*
X0118973Y0137378D03*
X0115922Y0140331D03*
X0115823Y0140134D03*
X0115725Y0140035D03*
X0115627Y0139839D03*
X0115430Y0139543D03*
X0116119Y0140626D03*
X0116316Y0140921D03*
X0118973Y0145154D03*
X0119072Y0145252D03*
X0121040Y0147516D03*
X0122418Y0145744D03*
X0122910Y0144957D03*
X0123009Y0144858D03*
X0123205Y0144563D03*
X0123402Y0144268D03*
X0125469Y0133047D03*
X0126060Y0132161D03*
X0126158Y0132063D03*
X0126257Y0131866D03*
X0126355Y0131768D03*
X0126453Y0123894D03*
X0126552Y0123795D03*
X0127831Y0123992D03*
X0131572Y0121433D03*
X0131670Y0121531D03*
X0131768Y0121728D03*
X0131867Y0121827D03*
X0131965Y0122024D03*
X0132064Y0122122D03*
X0132162Y0122319D03*
X0132260Y0122516D03*
X0132359Y0122614D03*
X0132457Y0122811D03*
X0132654Y0123106D03*
X0132851Y0123402D03*
X0133146Y0123894D03*
X0133442Y0124386D03*
X0133540Y0124583D03*
X0131079Y0120646D03*
X0130784Y0120154D03*
X0130686Y0119957D03*
X0130587Y0119858D03*
X0130489Y0119661D03*
X0130292Y0119366D03*
X0130095Y0119071D03*
X0129898Y0118776D03*
X0129209Y0117693D03*
X0128028Y0115724D03*
X0126749Y0116118D03*
X0126650Y0116217D03*
X0126552Y0116315D03*
X0121138Y0116315D03*
X0117890Y0104996D03*
X0117989Y0104898D03*
X0121926Y0099091D03*
X0122123Y0098992D03*
X0122221Y0098894D03*
X0122713Y0098992D03*
X0125272Y0102929D03*
X0132359Y0097319D03*
X0132457Y0097417D03*
X0132556Y0097614D03*
X0132654Y0097713D03*
X0132162Y0097024D03*
X0131965Y0096728D03*
X0131670Y0096236D03*
X0131473Y0095941D03*
X0131276Y0095646D03*
X0131178Y0095449D03*
X0129898Y0093480D03*
X0129701Y0093185D03*
X0129603Y0092988D03*
X0129505Y0092890D03*
X0129406Y0092693D03*
X0129308Y0092594D03*
X0129209Y0092398D03*
X0123698Y0086689D03*
X0123402Y0083539D03*
X0123205Y0083244D03*
X0123107Y0083047D03*
X0123009Y0082949D03*
X0122910Y0082752D03*
X0122713Y0082457D03*
X0122516Y0082161D03*
X0122320Y0081866D03*
X0121926Y0081276D03*
X0121434Y0080488D03*
X0121237Y0080193D03*
X0121040Y0079898D03*
X0120942Y0079701D03*
X0120745Y0079406D03*
X0120449Y0078913D03*
X0120253Y0078618D03*
X0120154Y0078520D03*
X0120056Y0078323D03*
X0119170Y0076945D03*
X0117890Y0075173D03*
X0116119Y0080291D03*
X0115922Y0085803D03*
X0117694Y0087870D03*
X0117497Y0088165D03*
X0117398Y0088264D03*
X0117300Y0088461D03*
X0117201Y0088559D03*
X0117103Y0088756D03*
X0117005Y0088854D03*
X0116906Y0089051D03*
X0134820Y0101157D03*
X0135016Y0101453D03*
X0135213Y0101748D03*
X0135410Y0102043D03*
X0135607Y0102339D03*
X0135804Y0102634D03*
X0135902Y0102831D03*
X0136099Y0103126D03*
X0136198Y0103224D03*
X0140823Y0101846D03*
X0141020Y0102142D03*
X0141119Y0102339D03*
X0141217Y0102437D03*
X0141414Y0102732D03*
X0142890Y0104996D03*
X0143087Y0105291D03*
X0143284Y0105587D03*
X0143481Y0105882D03*
X0143678Y0106177D03*
X0143875Y0106472D03*
X0144072Y0106768D03*
X0144268Y0107063D03*
X0144465Y0107358D03*
X0144564Y0107555D03*
X0144662Y0107654D03*
X0144760Y0107850D03*
X0144859Y0107949D03*
X0144957Y0108146D03*
X0144859Y0111098D03*
X0144662Y0111394D03*
X0144564Y0111591D03*
X0144465Y0111689D03*
X0144367Y0111886D03*
X0144170Y0112181D03*
X0143973Y0112476D03*
X0143875Y0112673D03*
X0143776Y0112772D03*
X0143678Y0112969D03*
X0143579Y0113067D03*
X0143481Y0113264D03*
X0143383Y0113362D03*
X0143284Y0113559D03*
X0143087Y0113854D03*
X0142890Y0114150D03*
X0139249Y0111591D03*
X0138363Y0113067D03*
X0138264Y0113165D03*
X0137575Y0113264D03*
X0137575Y0121728D03*
X0137674Y0121728D03*
X0108835Y0147024D03*
X0103028Y0141118D03*
X0102930Y0141118D03*
D26*
X0108934Y0134573D03*
X0104111Y0133982D03*
X0101847Y0121679D03*
X0108146Y0108293D03*
X0109229Y0108392D03*
X0110410Y0108490D03*
X0111394Y0108589D03*
X0111493Y0108589D03*
X0111591Y0108589D03*
X0113166Y0108785D03*
X0106965Y0108195D03*
X0105883Y0108096D03*
X0098009Y0101404D03*
X0095548Y0098844D03*
X0098107Y0097073D03*
X0101847Y0088116D03*
X0114446Y0080636D03*
X0115036Y0079848D03*
X0115725Y0079848D03*
X0115823Y0079947D03*
X0119662Y0077880D03*
X0121827Y0081226D03*
X0121827Y0073451D03*
X0121631Y0073156D03*
X0120843Y0071974D03*
X0119760Y0071974D03*
X0105292Y0070301D03*
X0105390Y0067644D03*
X0105489Y0067644D03*
X0098993Y0069907D03*
X0098894Y0069907D03*
X0098796Y0069907D03*
X0098698Y0069907D03*
X0098599Y0069907D03*
X0098501Y0069907D03*
X0098402Y0069907D03*
X0098304Y0069907D03*
X0121631Y0099238D03*
X0122516Y0098746D03*
X0122615Y0098746D03*
X0125075Y0102781D03*
X0124091Y0106817D03*
X0127733Y0115380D03*
X0127339Y0123451D03*
X0127438Y0123549D03*
X0126946Y0123451D03*
X0126847Y0123549D03*
X0120942Y0124730D03*
X0120548Y0124829D03*
X0118087Y0129159D03*
X0116808Y0133884D03*
X0116906Y0134081D03*
X0117005Y0134278D03*
X0117103Y0134376D03*
X0117201Y0134573D03*
X0117398Y0134868D03*
X0120351Y0139396D03*
X0120449Y0139494D03*
X0120548Y0139593D03*
X0120646Y0139593D03*
X0097024Y0151896D03*
X0137871Y0113411D03*
X0137969Y0113411D03*
X0142300Y0110459D03*
X0138953Y0105636D03*
X0136886Y0094612D03*
X0096926Y0107309D03*
X0096827Y0107309D03*
X0096729Y0107309D03*
X0096631Y0107309D03*
D27*
X0099485Y0113165D03*
X0101847Y0115035D03*
X0105390Y0116906D03*
X0108934Y0112575D03*
X0113264Y0109031D03*
X0118186Y0104602D03*
X0118383Y0104307D03*
X0118579Y0104012D03*
X0118678Y0103913D03*
X0118776Y0103717D03*
X0118875Y0103618D03*
X0118973Y0103421D03*
X0119072Y0103323D03*
X0119170Y0103126D03*
X0119268Y0103028D03*
X0119367Y0102831D03*
X0119465Y0102732D03*
X0119564Y0102535D03*
X0119662Y0102437D03*
X0119760Y0102240D03*
X0119859Y0102142D03*
X0119957Y0101945D03*
X0120056Y0101846D03*
X0120253Y0101551D03*
X0120449Y0101256D03*
X0120646Y0100961D03*
X0120843Y0100665D03*
X0121040Y0100370D03*
X0121237Y0100075D03*
X0121335Y0099976D03*
X0121434Y0099780D03*
X0121532Y0099681D03*
X0122812Y0099091D03*
X0122910Y0099189D03*
X0123107Y0099484D03*
X0126946Y0097024D03*
X0127044Y0097122D03*
X0127142Y0097319D03*
X0127241Y0097417D03*
X0127339Y0097614D03*
X0127536Y0097909D03*
X0127733Y0098205D03*
X0127930Y0098500D03*
X0128127Y0098795D03*
X0128323Y0099091D03*
X0128520Y0099386D03*
X0129012Y0100173D03*
X0129209Y0100469D03*
X0129898Y0101551D03*
X0130095Y0101846D03*
X0130981Y0103224D03*
X0126552Y0104799D03*
X0126355Y0104504D03*
X0126060Y0104012D03*
X0125863Y0103717D03*
X0125666Y0103421D03*
X0125469Y0103126D03*
X0126847Y0096827D03*
X0126749Y0096728D03*
X0126650Y0096531D03*
X0126453Y0096236D03*
X0126257Y0095941D03*
X0126060Y0095646D03*
X0125863Y0095350D03*
X0125764Y0095154D03*
X0125666Y0095055D03*
X0125568Y0094858D03*
X0125469Y0094760D03*
X0125371Y0094563D03*
X0125174Y0094268D03*
X0125075Y0094071D03*
X0124977Y0093972D03*
X0124879Y0093776D03*
X0124780Y0093677D03*
X0124682Y0093480D03*
X0124583Y0093382D03*
X0124485Y0093185D03*
X0124288Y0092890D03*
X0124091Y0092594D03*
X0123993Y0092398D03*
X0123894Y0092299D03*
X0123796Y0092102D03*
X0123599Y0091807D03*
X0123501Y0091610D03*
X0121631Y0090232D03*
X0121827Y0089937D03*
X0118284Y0086984D03*
X0118087Y0087280D03*
X0117890Y0087575D03*
X0118087Y0083441D03*
X0117989Y0083244D03*
X0117792Y0082949D03*
X0117595Y0082654D03*
X0117005Y0081669D03*
X0116906Y0081472D03*
X0116808Y0081374D03*
X0116709Y0081177D03*
X0116512Y0080882D03*
X0116414Y0080685D03*
X0124583Y0085508D03*
X0129111Y0084425D03*
X0129209Y0084524D03*
X0129308Y0084720D03*
X0129505Y0085016D03*
X0130981Y0087280D03*
X0131178Y0087575D03*
X0131375Y0087870D03*
X0131473Y0088067D03*
X0132556Y0089839D03*
X0129997Y0093579D03*
X0137575Y0099189D03*
X0140331Y0100961D03*
X0136296Y0103421D03*
X0138855Y0105587D03*
X0142201Y0110409D03*
X0139347Y0111394D03*
X0137182Y0112772D03*
X0137379Y0113067D03*
X0141414Y0116413D03*
X0142201Y0115232D03*
X0140627Y0117594D03*
X0140430Y0117890D03*
X0140233Y0118185D03*
X0140036Y0118480D03*
X0139839Y0118776D03*
X0139642Y0119071D03*
X0139446Y0119366D03*
X0138068Y0121433D03*
X0137477Y0121630D03*
X0137379Y0121531D03*
X0129603Y0118283D03*
X0129505Y0118087D03*
X0129406Y0117988D03*
X0129308Y0117791D03*
X0129111Y0117496D03*
X0129012Y0117299D03*
X0128914Y0117102D03*
X0128816Y0117004D03*
X0128717Y0116807D03*
X0128619Y0116610D03*
X0128520Y0116512D03*
X0128422Y0116315D03*
X0122812Y0113657D03*
X0122615Y0113953D03*
X0122418Y0114248D03*
X0122320Y0114445D03*
X0122221Y0114543D03*
X0122123Y0114740D03*
X0122024Y0114937D03*
X0121926Y0115035D03*
X0121827Y0115232D03*
X0121631Y0115528D03*
X0121532Y0115724D03*
X0121434Y0115921D03*
X0121335Y0116020D03*
X0118481Y0112673D03*
X0120056Y0110016D03*
X0120253Y0109720D03*
X0120351Y0109524D03*
X0120548Y0109228D03*
X0120745Y0108933D03*
X0129505Y0109425D03*
X0129603Y0109622D03*
X0129701Y0109819D03*
X0129800Y0109917D03*
X0116611Y0118677D03*
X0116808Y0118972D03*
X0116906Y0119169D03*
X0117103Y0119465D03*
X0117201Y0119661D03*
X0117300Y0119858D03*
X0117398Y0119957D03*
X0117497Y0120154D03*
X0117694Y0120449D03*
X0120154Y0124484D03*
X0121434Y0124189D03*
X0121532Y0124091D03*
X0117890Y0129209D03*
X0126847Y0131079D03*
X0127044Y0130783D03*
X0127339Y0130390D03*
X0127536Y0130094D03*
X0127635Y0129996D03*
X0127733Y0129799D03*
X0127831Y0129701D03*
X0127930Y0129504D03*
X0128127Y0129209D03*
X0128323Y0128913D03*
X0128619Y0128520D03*
X0128520Y0125075D03*
X0128323Y0124780D03*
X0128225Y0124583D03*
X0128028Y0124287D03*
X0131079Y0132555D03*
X0130883Y0132850D03*
X0130686Y0133146D03*
X0130489Y0133441D03*
X0130390Y0133638D03*
X0130292Y0133736D03*
X0130194Y0133933D03*
X0130095Y0134031D03*
X0129997Y0134228D03*
X0129898Y0134327D03*
X0129800Y0134524D03*
X0129701Y0134720D03*
X0129603Y0134819D03*
X0129505Y0135016D03*
X0126453Y0141709D03*
X0123993Y0143382D03*
X0122024Y0146335D03*
X0121827Y0146630D03*
X0121631Y0146925D03*
X0121532Y0147024D03*
X0120646Y0147417D03*
X0119367Y0145646D03*
X0119268Y0145449D03*
X0119170Y0145350D03*
X0118776Y0144760D03*
X0118481Y0144268D03*
X0118284Y0143972D03*
X0118087Y0143677D03*
X0117989Y0143480D03*
X0117890Y0143382D03*
X0117792Y0143185D03*
X0117595Y0142890D03*
X0117398Y0142594D03*
X0117201Y0142299D03*
X0117005Y0142004D03*
X0116906Y0141807D03*
X0116709Y0141512D03*
X0107654Y0126354D03*
X0116217Y0098894D03*
X0116316Y0098795D03*
X0116414Y0098598D03*
X0116611Y0098303D03*
X0119564Y0093480D03*
X0114249Y0091413D03*
X0104800Y0067890D03*
D28*
X0099583Y0079898D03*
X0115430Y0085902D03*
X0125469Y0077043D03*
X0137772Y0099287D03*
X0142005Y0110311D03*
X0118678Y0112673D03*
X0099583Y0119563D03*
X0102241Y0135311D03*
X0102241Y0141413D03*
X0102142Y0141413D03*
X0102536Y0141512D03*
X0102635Y0141512D03*
X0115823Y0152929D03*
X0126257Y0141610D03*
D29*
X0129209Y0136098D03*
X0131768Y0130980D03*
X0136001Y0126945D03*
X0141906Y0110311D03*
X0139938Y0099780D03*
X0137969Y0099287D03*
X0133245Y0097909D03*
X0122123Y0106472D03*
X0121729Y0106866D03*
X0124190Y0085606D03*
X0099780Y0079898D03*
X0099485Y0069071D03*
X0102733Y0135114D03*
X0102831Y0135114D03*
X0102930Y0135114D03*
D30*
X0103323Y0135016D03*
X0121532Y0131866D03*
X0129111Y0136295D03*
X0131670Y0130980D03*
X0124780Y0141610D03*
X0124682Y0141709D03*
X0124190Y0142398D03*
X0119367Y0113559D03*
X0118875Y0112673D03*
X0140036Y0110213D03*
X0141808Y0110311D03*
X0139741Y0099484D03*
X0134918Y0094563D03*
X0124091Y0085606D03*
X0116020Y0091020D03*
X0111493Y0086098D03*
X0123501Y0076945D03*
X0123599Y0077043D03*
X0123698Y0077142D03*
X0099583Y0068972D03*
X0098107Y0073402D03*
X0095843Y0099091D03*
D31*
X0098205Y0099287D03*
X0114052Y0091413D03*
X0114839Y0092791D03*
X0115823Y0089937D03*
X0114150Y0085311D03*
X0117201Y0082654D03*
X0119564Y0084819D03*
X0127536Y0083343D03*
X0127831Y0083244D03*
X0126749Y0080587D03*
X0125174Y0078520D03*
X0122910Y0075567D03*
X0121532Y0073402D03*
X0118579Y0076650D03*
X0111198Y0074878D03*
X0127044Y0088953D03*
X0127044Y0091610D03*
X0135312Y0096039D03*
X0136198Y0096039D03*
X0138461Y0097516D03*
X0139052Y0097516D03*
X0139150Y0097516D03*
X0139249Y0097614D03*
X0138264Y0100764D03*
X0138068Y0104110D03*
X0137379Y0104209D03*
X0140331Y0108539D03*
X0141512Y0108736D03*
X0141512Y0111886D03*
X0140430Y0111886D03*
X0123501Y0107949D03*
X0122221Y0107850D03*
X0123501Y0105488D03*
X0119268Y0110606D03*
X0134524Y0128421D03*
X0128520Y0138559D03*
X0125666Y0140035D03*
X0125568Y0142988D03*
X0119859Y0133835D03*
X0103619Y0136295D03*
X0103717Y0140528D03*
X0136296Y0093283D03*
D32*
X0136099Y0092988D03*
X0135410Y0096138D03*
X0135902Y0096236D03*
X0136001Y0096236D03*
X0137379Y0099091D03*
X0138363Y0100862D03*
X0138461Y0100862D03*
X0138658Y0100961D03*
X0139052Y0100961D03*
X0139150Y0100961D03*
X0138166Y0107161D03*
X0138068Y0107260D03*
X0137083Y0107161D03*
X0140528Y0108441D03*
X0140823Y0108343D03*
X0140922Y0108441D03*
X0141020Y0108441D03*
X0141119Y0108441D03*
X0141217Y0108539D03*
X0141316Y0108539D03*
X0140528Y0111984D03*
X0140627Y0112083D03*
X0140725Y0112083D03*
X0141020Y0112083D03*
X0141119Y0112083D03*
X0141217Y0112083D03*
X0135509Y0125075D03*
X0135607Y0125173D03*
X0134721Y0125075D03*
X0134623Y0125173D03*
X0136493Y0126846D03*
X0135509Y0128618D03*
X0135312Y0128717D03*
X0135115Y0128717D03*
X0135016Y0128717D03*
X0134918Y0128717D03*
X0134820Y0128618D03*
X0128422Y0138657D03*
X0128323Y0138756D03*
X0128127Y0138854D03*
X0128028Y0138854D03*
X0127930Y0138854D03*
X0127831Y0138854D03*
X0127733Y0138854D03*
X0127635Y0138756D03*
X0125371Y0139937D03*
X0125272Y0139937D03*
X0125174Y0139937D03*
X0125075Y0140035D03*
X0124977Y0140035D03*
X0124977Y0142791D03*
X0125371Y0143087D03*
X0120646Y0134327D03*
X0120548Y0134327D03*
X0120449Y0134327D03*
X0120843Y0134228D03*
X0120646Y0131276D03*
X0116316Y0133638D03*
X0104111Y0142496D03*
X0103816Y0140429D03*
X0103127Y0140429D03*
X0103619Y0134917D03*
X0103914Y0133441D03*
X0096729Y0150075D03*
X0116316Y0109819D03*
X0122320Y0108047D03*
X0122418Y0108146D03*
X0123205Y0108244D03*
X0123304Y0108146D03*
X0123402Y0108047D03*
X0123205Y0105094D03*
X0122221Y0105094D03*
X0115627Y0092791D03*
X0115725Y0092693D03*
X0115823Y0092594D03*
X0115430Y0092890D03*
X0115233Y0092988D03*
X0115135Y0092988D03*
X0114741Y0089839D03*
X0115725Y0089839D03*
X0114544Y0087181D03*
X0114446Y0087083D03*
X0113757Y0086787D03*
X0114446Y0084819D03*
X0114544Y0084720D03*
X0114741Y0084622D03*
X0115036Y0084622D03*
X0115135Y0084622D03*
X0117300Y0081276D03*
X0119662Y0084917D03*
X0126847Y0083441D03*
X0126847Y0080390D03*
X0125075Y0078717D03*
X0124386Y0079110D03*
X0124288Y0079110D03*
X0124190Y0079110D03*
X0124091Y0079012D03*
X0123993Y0078913D03*
X0125075Y0075862D03*
X0124977Y0075764D03*
X0124879Y0075665D03*
X0124780Y0075665D03*
X0124682Y0075665D03*
X0124583Y0075665D03*
X0124386Y0075764D03*
X0124288Y0075764D03*
X0121434Y0073402D03*
X0121237Y0072024D03*
X0127930Y0088559D03*
X0128028Y0088559D03*
X0128225Y0088657D03*
X0127142Y0088854D03*
X0129209Y0090134D03*
X0128127Y0091709D03*
X0127241Y0091709D03*
X0099977Y0067201D03*
D33*
X0099879Y0067250D03*
X0099780Y0067250D03*
X0111099Y0073352D03*
X0111296Y0074829D03*
X0117398Y0081423D03*
X0114938Y0084573D03*
X0114839Y0084573D03*
X0114642Y0084671D03*
X0113953Y0086837D03*
X0115331Y0087230D03*
X0115627Y0089789D03*
X0114839Y0089789D03*
X0115528Y0092841D03*
X0115331Y0092939D03*
X0127339Y0091758D03*
X0127438Y0091758D03*
X0128028Y0091758D03*
X0127241Y0088707D03*
X0127438Y0088608D03*
X0127831Y0088510D03*
X0128127Y0088608D03*
X0127438Y0083490D03*
X0126946Y0083490D03*
X0127044Y0080242D03*
X0128028Y0080341D03*
X0124583Y0079061D03*
X0124485Y0079061D03*
X0124190Y0075911D03*
X0122812Y0075518D03*
X0121335Y0072073D03*
X0135312Y0092841D03*
X0135804Y0092841D03*
X0135902Y0092841D03*
X0136001Y0092939D03*
X0135509Y0096187D03*
X0135607Y0096285D03*
X0135705Y0096285D03*
X0135804Y0096285D03*
X0138560Y0100911D03*
X0138757Y0101010D03*
X0138855Y0101010D03*
X0138953Y0101010D03*
X0137969Y0107309D03*
X0140823Y0112132D03*
X0140922Y0112132D03*
X0135410Y0125026D03*
X0135312Y0125026D03*
X0135213Y0125026D03*
X0135115Y0124927D03*
X0135016Y0124927D03*
X0134918Y0125026D03*
X0134820Y0125026D03*
X0135410Y0128667D03*
X0135213Y0128766D03*
X0128323Y0135754D03*
X0127536Y0135852D03*
X0128225Y0138805D03*
X0125075Y0142841D03*
X0125174Y0142939D03*
X0125272Y0143037D03*
X0120351Y0134278D03*
X0120253Y0134278D03*
X0120056Y0131325D03*
X0120154Y0131226D03*
X0120253Y0131226D03*
X0120351Y0131226D03*
X0120449Y0131226D03*
X0120548Y0131226D03*
X0116512Y0119317D03*
X0117989Y0112722D03*
X0122713Y0108293D03*
X0122812Y0108293D03*
X0122910Y0108293D03*
X0123009Y0108293D03*
X0123107Y0108293D03*
X0122615Y0108195D03*
X0122516Y0108195D03*
X0123107Y0105045D03*
X0117497Y0104947D03*
X0101453Y0122171D03*
X0102044Y0127880D03*
X0103717Y0134967D03*
X0103816Y0134967D03*
X0103816Y0136344D03*
X0103914Y0140380D03*
X0103323Y0140380D03*
X0103225Y0140380D03*
D34*
X0102142Y0138411D03*
X0114741Y0138215D03*
X0114839Y0138215D03*
X0120942Y0134081D03*
X0119859Y0131620D03*
X0117694Y0129159D03*
X0127438Y0138510D03*
X0125764Y0140183D03*
X0124879Y0142644D03*
X0125666Y0142939D03*
X0128520Y0135852D03*
X0118087Y0112722D03*
X0117694Y0104750D03*
X0114741Y0092644D03*
X0115922Y0092348D03*
X0114347Y0086935D03*
X0113855Y0086640D03*
X0117300Y0082801D03*
X0119465Y0084770D03*
X0114544Y0079947D03*
X0118678Y0076699D03*
X0122024Y0074140D03*
X0121138Y0071876D03*
X0123894Y0076207D03*
X0125174Y0075911D03*
X0127930Y0083195D03*
X0126946Y0091463D03*
X0128323Y0091561D03*
X0136296Y0095892D03*
X0139347Y0097663D03*
X0139446Y0100518D03*
X0138166Y0100616D03*
X0138166Y0104159D03*
X0137280Y0104159D03*
X0140233Y0108687D03*
X0140331Y0111738D03*
X0111099Y0074927D03*
D35*
X0110902Y0074976D03*
X0117694Y0075272D03*
X0118875Y0076846D03*
X0119465Y0077732D03*
X0122221Y0074287D03*
X0120253Y0071433D03*
X0125863Y0076945D03*
X0121532Y0080980D03*
X0117497Y0082949D03*
X0115922Y0090035D03*
X0107753Y0102437D03*
X0107654Y0102437D03*
X0107359Y0102437D03*
X0098107Y0099386D03*
X0099485Y0116610D03*
X0122418Y0123008D03*
X0126847Y0137181D03*
X0125863Y0140429D03*
X0125863Y0142791D03*
X0104111Y0146827D03*
X0140233Y0111492D03*
X0132851Y0089839D03*
D36*
X0126650Y0090429D03*
X0124485Y0085508D03*
X0126257Y0081965D03*
X0128914Y0083933D03*
X0118776Y0073894D03*
X0118087Y0075075D03*
X0115725Y0085803D03*
X0114249Y0086098D03*
X0108934Y0088461D03*
X0114347Y0091413D03*
X0099583Y0085902D03*
X0095646Y0098992D03*
X0118579Y0112673D03*
X0119957Y0115232D03*
X0120154Y0115528D03*
X0120253Y0115724D03*
X0125666Y0109228D03*
X0125863Y0108933D03*
X0126060Y0108638D03*
X0126158Y0108539D03*
X0126257Y0108343D03*
X0126355Y0108244D03*
X0126453Y0108047D03*
X0126552Y0107949D03*
X0127536Y0106472D03*
X0132949Y0097909D03*
X0134131Y0095941D03*
X0137674Y0099287D03*
X0140233Y0100665D03*
X0138757Y0105587D03*
X0129603Y0126945D03*
X0129701Y0127043D03*
X0126355Y0141610D03*
X0116217Y0152831D03*
X0107260Y0126157D03*
X0099977Y0069563D03*
X0099879Y0069563D03*
X0099780Y0069563D03*
D37*
X0099091Y0069858D03*
X0105292Y0067693D03*
X0118875Y0073402D03*
X0119170Y0072909D03*
X0119564Y0072319D03*
X0119662Y0072122D03*
X0119760Y0077929D03*
X0122024Y0081472D03*
X0126060Y0081965D03*
X0126453Y0090528D03*
X0123402Y0091709D03*
X0122418Y0098795D03*
X0121729Y0099189D03*
X0125174Y0102831D03*
X0120843Y0108539D03*
X0126946Y0115724D03*
X0126847Y0115921D03*
X0125568Y0117791D03*
X0125371Y0118087D03*
X0125174Y0118382D03*
X0123698Y0120646D03*
X0126749Y0123598D03*
X0120449Y0124780D03*
X0116611Y0133539D03*
X0116709Y0133736D03*
X0117300Y0134720D03*
X0117497Y0135016D03*
X0117595Y0135213D03*
X0117694Y0135311D03*
X0117792Y0135508D03*
X0117890Y0135705D03*
X0117989Y0135803D03*
X0118087Y0136000D03*
X0118186Y0136098D03*
X0118284Y0136295D03*
X0118481Y0136591D03*
X0120154Y0139150D03*
X0120745Y0139543D03*
X0126552Y0141807D03*
X0126946Y0137280D03*
X0132260Y0131079D03*
X0136394Y0126846D03*
X0137772Y0113362D03*
X0138068Y0113362D03*
X0138166Y0113264D03*
X0138658Y0112575D03*
X0138855Y0112280D03*
X0140135Y0111197D03*
X0134524Y0100665D03*
X0105489Y0125272D03*
X0101946Y0119268D03*
X0115036Y0138953D03*
X0101946Y0085705D03*
D38*
X0115331Y0084868D03*
X0116119Y0085852D03*
X0114642Y0090183D03*
X0124879Y0085360D03*
X0126749Y0083096D03*
X0125961Y0081915D03*
X0123009Y0075518D03*
X0120942Y0071778D03*
X0118776Y0076797D03*
X0119367Y0077683D03*
X0114741Y0079848D03*
X0136985Y0094612D03*
X0136394Y0095695D03*
X0138264Y0104258D03*
X0139052Y0105636D03*
X0140135Y0108884D03*
X0135804Y0125518D03*
X0122516Y0122959D03*
X0116512Y0117841D03*
X0119367Y0110557D03*
X0107556Y0102388D03*
X0107457Y0102388D03*
X0102044Y0138411D03*
X0101946Y0138411D03*
X0104012Y0146876D03*
D39*
X0104111Y0140281D03*
X0116119Y0133490D03*
X0122418Y0121679D03*
X0122516Y0121581D03*
X0116316Y0117152D03*
X0100961Y0122171D03*
X0100863Y0122171D03*
X0116119Y0100026D03*
X0114938Y0087526D03*
X0114642Y0081226D03*
X0119367Y0076305D03*
X0121532Y0079750D03*
X0125961Y0076896D03*
X0127339Y0080242D03*
X0127438Y0080242D03*
X0122024Y0072959D03*
X0121040Y0073057D03*
X0100174Y0066856D03*
X0101060Y0088707D03*
X0101158Y0088707D03*
X0137083Y0094711D03*
X0139938Y0108589D03*
D40*
X0139839Y0110705D03*
X0139741Y0110705D03*
X0135804Y0110705D03*
X0135607Y0110409D03*
X0135410Y0110114D03*
X0135213Y0109819D03*
X0134918Y0109327D03*
X0134721Y0109031D03*
X0134524Y0108736D03*
X0134327Y0108441D03*
X0134032Y0107949D03*
X0133835Y0107654D03*
X0133638Y0107358D03*
X0133442Y0107063D03*
X0132949Y0106276D03*
X0132753Y0105980D03*
X0137083Y0104602D03*
X0130095Y0110311D03*
X0130292Y0110606D03*
X0130390Y0110803D03*
X0130489Y0110902D03*
X0130587Y0111098D03*
X0130784Y0111394D03*
X0130883Y0111591D03*
X0131079Y0111886D03*
X0131178Y0112083D03*
X0131276Y0112181D03*
X0131375Y0112378D03*
X0131473Y0112476D03*
X0131572Y0112673D03*
X0131768Y0112969D03*
X0131965Y0113264D03*
X0132162Y0113559D03*
X0132359Y0113854D03*
X0132654Y0114346D03*
X0132753Y0114543D03*
X0132851Y0114642D03*
X0132949Y0114839D03*
X0133146Y0115134D03*
X0133638Y0115921D03*
X0133835Y0116217D03*
X0134032Y0116512D03*
X0134229Y0116807D03*
X0134426Y0117102D03*
X0134524Y0117299D03*
X0134721Y0117594D03*
X0134918Y0117890D03*
X0135115Y0118185D03*
X0135213Y0118382D03*
X0135312Y0118480D03*
X0135410Y0118677D03*
X0135509Y0118776D03*
X0135607Y0118972D03*
X0135705Y0119071D03*
X0135804Y0119268D03*
X0136001Y0119563D03*
X0136198Y0119858D03*
X0136296Y0120055D03*
X0136493Y0120350D03*
X0136690Y0120646D03*
X0136886Y0120941D03*
X0136985Y0121039D03*
X0137083Y0121236D03*
X0137182Y0121335D03*
X0130686Y0128717D03*
X0130784Y0128913D03*
X0119564Y0132654D03*
X0119859Y0124091D03*
X0119760Y0123894D03*
X0119465Y0123402D03*
X0119170Y0122909D03*
X0118973Y0122614D03*
X0118875Y0122417D03*
X0118776Y0122220D03*
X0118579Y0121925D03*
X0118481Y0121728D03*
X0118284Y0121433D03*
X0117989Y0120941D03*
X0120548Y0116118D03*
X0120449Y0116020D03*
X0119662Y0114740D03*
X0119564Y0114543D03*
X0119465Y0114346D03*
X0119564Y0110902D03*
X0119662Y0110705D03*
X0121040Y0108441D03*
X0121138Y0108244D03*
X0123894Y0106768D03*
X0125272Y0109819D03*
X0125174Y0109917D03*
X0124879Y0110409D03*
X0124780Y0110606D03*
X0124682Y0110705D03*
X0124583Y0110902D03*
X0124386Y0111197D03*
X0124288Y0111394D03*
X0124190Y0111492D03*
X0124091Y0111689D03*
X0123993Y0111787D03*
X0123894Y0111984D03*
X0123698Y0112280D03*
X0123599Y0112476D03*
X0123402Y0112772D03*
X0128520Y0107850D03*
X0127733Y0106669D03*
X0127635Y0106571D03*
X0124879Y0102142D03*
X0124682Y0101846D03*
X0124583Y0101650D03*
X0124485Y0101551D03*
X0124386Y0101354D03*
X0124288Y0101256D03*
X0124190Y0101059D03*
X0124091Y0100961D03*
X0123993Y0100764D03*
X0123796Y0100469D03*
X0123599Y0100173D03*
X0123501Y0100075D03*
X0123304Y0099780D03*
X0118383Y0095449D03*
X0118186Y0095744D03*
X0117890Y0096236D03*
X0118678Y0094957D03*
X0118875Y0094661D03*
X0119072Y0094366D03*
X0119170Y0094169D03*
X0119367Y0093874D03*
X0119859Y0093087D03*
X0120056Y0092791D03*
X0120253Y0092496D03*
X0120449Y0092201D03*
X0120745Y0091709D03*
X0120942Y0091413D03*
X0121138Y0091118D03*
X0121237Y0090921D03*
X0121335Y0090724D03*
X0122024Y0089642D03*
X0123599Y0087083D03*
X0131276Y0091807D03*
X0131375Y0091709D03*
X0131473Y0091512D03*
X0131178Y0092004D03*
X0130095Y0093579D03*
X0115823Y0085803D03*
X0105292Y0083539D03*
X0101847Y0081571D03*
X0108835Y0068382D03*
X0118678Y0073992D03*
X0105292Y0117004D03*
X0099485Y0119366D03*
X0107457Y0126256D03*
X0095942Y0143382D03*
X0119662Y0146039D03*
X0119760Y0146236D03*
X0120253Y0146925D03*
X0120351Y0147024D03*
X0124091Y0143185D03*
D41*
X0114446Y0138904D03*
X0116906Y0131817D03*
X0117005Y0131719D03*
X0117595Y0129750D03*
X0118579Y0129258D03*
X0122320Y0121778D03*
X0132556Y0131226D03*
X0139839Y0108687D03*
X0105390Y0096089D03*
X0100764Y0088608D03*
X0100666Y0088608D03*
X0101847Y0079455D03*
X0111296Y0073057D03*
X0122123Y0072959D03*
X0123009Y0074337D03*
X0101847Y0112919D03*
X0100666Y0122073D03*
X0100568Y0122073D03*
X0104209Y0140281D03*
D42*
X0103225Y0135065D03*
X0103127Y0135065D03*
X0103028Y0135065D03*
X0096138Y0143726D03*
X0111198Y0145006D03*
X0125961Y0141561D03*
X0129308Y0126896D03*
X0133737Y0125616D03*
X0139839Y0099632D03*
X0134524Y0095006D03*
X0134426Y0095104D03*
X0134623Y0094809D03*
X0134721Y0094711D03*
X0134820Y0094612D03*
X0130489Y0093628D03*
X0132162Y0089789D03*
X0126650Y0081915D03*
X0125272Y0077093D03*
X0123402Y0076797D03*
X0123304Y0076699D03*
X0118383Y0075026D03*
X0118875Y0085360D03*
X0122516Y0089494D03*
X0116217Y0090774D03*
X0116119Y0090872D03*
X0099780Y0113411D03*
D43*
X0101749Y0111935D03*
X0117595Y0120301D03*
X0117792Y0120596D03*
X0117890Y0120793D03*
X0118087Y0121089D03*
X0118186Y0121285D03*
X0118383Y0121581D03*
X0119072Y0122762D03*
X0119268Y0123057D03*
X0119367Y0123254D03*
X0119564Y0123549D03*
X0119662Y0123746D03*
X0119957Y0124238D03*
X0120056Y0124337D03*
X0121631Y0123943D03*
X0128422Y0124927D03*
X0128619Y0125222D03*
X0128717Y0125419D03*
X0136296Y0126896D03*
X0137280Y0121384D03*
X0138166Y0121285D03*
X0138264Y0121187D03*
X0138363Y0120990D03*
X0138461Y0120892D03*
X0138560Y0120695D03*
X0138658Y0120596D03*
X0138757Y0120400D03*
X0138855Y0120301D03*
X0138953Y0120104D03*
X0139052Y0120006D03*
X0139150Y0119809D03*
X0139249Y0119711D03*
X0139347Y0119514D03*
X0139544Y0119219D03*
X0139741Y0118923D03*
X0135016Y0118037D03*
X0134820Y0117742D03*
X0134623Y0117447D03*
X0134327Y0116955D03*
X0134131Y0116659D03*
X0133934Y0116364D03*
X0133737Y0116069D03*
X0133540Y0115774D03*
X0133442Y0115577D03*
X0133343Y0115478D03*
X0133245Y0115281D03*
X0133048Y0114986D03*
X0137083Y0112624D03*
X0136985Y0112526D03*
X0136886Y0112329D03*
X0136788Y0112230D03*
X0136690Y0112033D03*
X0136591Y0111935D03*
X0136493Y0111738D03*
X0136394Y0111640D03*
X0136296Y0111443D03*
X0136198Y0111344D03*
X0136099Y0111148D03*
X0136001Y0111049D03*
X0135902Y0110852D03*
X0135705Y0110557D03*
X0135509Y0110262D03*
X0135312Y0109967D03*
X0135115Y0109671D03*
X0135016Y0109474D03*
X0134820Y0109179D03*
X0134623Y0108884D03*
X0134426Y0108589D03*
X0134229Y0108293D03*
X0134131Y0108096D03*
X0133934Y0107801D03*
X0133737Y0107506D03*
X0133540Y0107211D03*
X0133343Y0106915D03*
X0133245Y0106719D03*
X0133146Y0106620D03*
X0133048Y0106423D03*
X0132851Y0106128D03*
X0132654Y0105833D03*
X0132556Y0105636D03*
X0132457Y0105537D03*
X0132359Y0105341D03*
X0132260Y0105242D03*
X0132162Y0105045D03*
X0132064Y0104947D03*
X0131965Y0104750D03*
X0131867Y0104553D03*
X0131768Y0104455D03*
X0131670Y0104258D03*
X0131572Y0104159D03*
X0131473Y0103963D03*
X0131375Y0103864D03*
X0131276Y0103667D03*
X0131178Y0103569D03*
X0131079Y0103372D03*
X0130883Y0103077D03*
X0130784Y0102880D03*
X0130686Y0102781D03*
X0130587Y0102585D03*
X0130489Y0102486D03*
X0130390Y0102289D03*
X0130292Y0102191D03*
X0130194Y0101994D03*
X0129997Y0101699D03*
X0129800Y0101404D03*
X0129701Y0101207D03*
X0129603Y0101108D03*
X0129505Y0100911D03*
X0129406Y0100813D03*
X0129308Y0100616D03*
X0129111Y0100321D03*
X0128914Y0100026D03*
X0128816Y0099829D03*
X0128717Y0099730D03*
X0128619Y0099533D03*
X0128422Y0099238D03*
X0128225Y0098943D03*
X0128028Y0098648D03*
X0127831Y0098352D03*
X0127635Y0098057D03*
X0127438Y0097762D03*
X0126552Y0096384D03*
X0126355Y0096089D03*
X0126158Y0095793D03*
X0125961Y0095498D03*
X0125272Y0094415D03*
X0126552Y0090478D03*
X0123107Y0087919D03*
X0123205Y0087722D03*
X0123304Y0087624D03*
X0123402Y0087427D03*
X0123501Y0087230D03*
X0121926Y0089789D03*
X0121729Y0090085D03*
X0121532Y0090380D03*
X0121434Y0090577D03*
X0119957Y0092939D03*
X0119760Y0093234D03*
X0119662Y0093333D03*
X0119465Y0093726D03*
X0119268Y0094022D03*
X0118973Y0094514D03*
X0118776Y0094809D03*
X0118579Y0095104D03*
X0118481Y0095301D03*
X0118284Y0095596D03*
X0118087Y0095892D03*
X0117989Y0096089D03*
X0117792Y0096384D03*
X0117694Y0096581D03*
X0117595Y0096679D03*
X0117497Y0096876D03*
X0117398Y0097073D03*
X0117300Y0097171D03*
X0117201Y0097368D03*
X0117103Y0097467D03*
X0117005Y0097663D03*
X0116906Y0097860D03*
X0116808Y0097959D03*
X0116709Y0098156D03*
X0116512Y0098451D03*
X0120548Y0101108D03*
X0120745Y0100813D03*
X0120942Y0100518D03*
X0121138Y0100222D03*
X0120351Y0101404D03*
X0120154Y0101699D03*
X0123205Y0099632D03*
X0123009Y0099337D03*
X0123402Y0099927D03*
X0123698Y0100321D03*
X0123894Y0100616D03*
X0124780Y0101994D03*
X0124977Y0102289D03*
X0125568Y0103274D03*
X0125764Y0103569D03*
X0125961Y0103864D03*
X0126158Y0104159D03*
X0126257Y0104356D03*
X0126453Y0104652D03*
X0127831Y0106817D03*
X0127930Y0106915D03*
X0128028Y0107112D03*
X0128127Y0107211D03*
X0128225Y0107407D03*
X0128323Y0107506D03*
X0128422Y0107703D03*
X0128619Y0107998D03*
X0128717Y0108195D03*
X0128816Y0108293D03*
X0128914Y0108490D03*
X0129012Y0108589D03*
X0129111Y0108785D03*
X0129209Y0108982D03*
X0129308Y0109081D03*
X0129406Y0109278D03*
X0129898Y0110065D03*
X0129997Y0110163D03*
X0130194Y0110459D03*
X0130686Y0111246D03*
X0130981Y0111738D03*
X0125075Y0110065D03*
X0124977Y0110262D03*
X0123796Y0112132D03*
X0123304Y0112919D03*
X0123205Y0113018D03*
X0123107Y0113215D03*
X0123009Y0113313D03*
X0122910Y0113510D03*
X0122713Y0113805D03*
X0122516Y0114100D03*
X0120646Y0116266D03*
X0119760Y0110557D03*
X0119859Y0110360D03*
X0119957Y0110163D03*
X0120154Y0109868D03*
X0120449Y0109376D03*
X0120646Y0109081D03*
X0121237Y0107900D03*
X0132851Y0097860D03*
X0131572Y0091364D03*
X0131572Y0088215D03*
X0129012Y0084179D03*
X0126158Y0081915D03*
X0125666Y0076994D03*
X0118284Y0083785D03*
X0118186Y0083589D03*
X0117103Y0081817D03*
X0119367Y0085360D03*
X0116611Y0089593D03*
X0117989Y0075124D03*
X0099190Y0069612D03*
X0137280Y0112919D03*
X0130981Y0132703D03*
X0130784Y0132998D03*
X0130587Y0133293D03*
X0129406Y0135163D03*
X0127044Y0137329D03*
X0119465Y0145793D03*
X0119564Y0145892D03*
X0120449Y0147171D03*
X0120548Y0147270D03*
X0111493Y0145006D03*
X0107556Y0126305D03*
D44*
X0117103Y0131669D03*
X0116020Y0133441D03*
X0114642Y0138264D03*
X0114544Y0138264D03*
X0114642Y0138756D03*
X0114642Y0139248D03*
X0116217Y0117201D03*
X0117694Y0106276D03*
X0121631Y0100665D03*
X0115528Y0098894D03*
X0123205Y0089937D03*
X0123698Y0088165D03*
X0113658Y0087181D03*
X0113757Y0082260D03*
X0114741Y0081276D03*
X0119465Y0076354D03*
X0118678Y0075665D03*
X0118875Y0075370D03*
X0111394Y0073008D03*
X0100568Y0088559D03*
X0096729Y0109031D03*
X0139741Y0108835D03*
D45*
X0139642Y0110606D03*
X0133048Y0097909D03*
X0136591Y0094563D03*
X0132359Y0089740D03*
X0115627Y0085803D03*
X0099288Y0069366D03*
X0096532Y0107850D03*
X0096434Y0107850D03*
X0095843Y0107850D03*
X0094760Y0107752D03*
X0093875Y0107654D03*
X0093776Y0107654D03*
X0093678Y0107654D03*
X0114052Y0109425D03*
X0114150Y0109425D03*
X0114249Y0109425D03*
X0114347Y0109425D03*
X0115331Y0109524D03*
X0115430Y0109524D03*
X0116020Y0109524D03*
X0116119Y0109524D03*
X0107064Y0126059D03*
X0106965Y0126059D03*
X0106867Y0125961D03*
X0106768Y0125961D03*
X0106276Y0125862D03*
X0106178Y0125862D03*
X0106079Y0125862D03*
X0105883Y0125764D03*
X0105784Y0125764D03*
X0101946Y0127732D03*
X0101847Y0127732D03*
X0102044Y0135508D03*
X0095745Y0151157D03*
X0095646Y0151157D03*
X0095548Y0151157D03*
X0095449Y0151157D03*
X0095351Y0151157D03*
X0094662Y0151059D03*
X0094564Y0151059D03*
X0094465Y0151059D03*
X0094367Y0151059D03*
X0094268Y0151059D03*
X0094170Y0151059D03*
X0094072Y0151059D03*
X0093973Y0150961D03*
X0093875Y0150961D03*
X0093776Y0150961D03*
X0113166Y0152732D03*
X0113264Y0152732D03*
X0113363Y0152732D03*
X0113461Y0152732D03*
X0113560Y0152732D03*
X0113658Y0152732D03*
X0113757Y0152732D03*
X0116119Y0152929D03*
X0136198Y0126945D03*
D46*
X0126749Y0136984D03*
X0117694Y0130488D03*
X0117595Y0129012D03*
X0116414Y0119268D03*
X0103422Y0133343D03*
X0102733Y0142890D03*
X0114839Y0139445D03*
X0101158Y0122220D03*
X0101060Y0122220D03*
X0117398Y0104996D03*
X0116020Y0100075D03*
X0126257Y0090626D03*
X0125075Y0085311D03*
X0128914Y0081571D03*
X0119564Y0086098D03*
X0115135Y0087378D03*
X0115036Y0087476D03*
X0099780Y0082555D03*
X0100272Y0066807D03*
X0121138Y0073106D03*
X0121532Y0072319D03*
X0139150Y0105685D03*
D47*
X0138658Y0105537D03*
X0130292Y0093628D03*
X0126749Y0090380D03*
X0122320Y0089494D03*
X0124386Y0085557D03*
X0126355Y0081915D03*
X0119072Y0085360D03*
X0115528Y0085852D03*
X0116512Y0090085D03*
X0114446Y0091364D03*
X0105194Y0096876D03*
X0105095Y0096974D03*
X0104997Y0096974D03*
X0096335Y0107900D03*
X0096237Y0107900D03*
X0096138Y0107900D03*
X0096040Y0107900D03*
X0095942Y0107900D03*
X0095745Y0107801D03*
X0095646Y0107801D03*
X0095548Y0107801D03*
X0095449Y0107801D03*
X0095351Y0107801D03*
X0095253Y0107801D03*
X0095154Y0107801D03*
X0095056Y0107801D03*
X0094957Y0107801D03*
X0094859Y0107801D03*
X0094662Y0107703D03*
X0094564Y0107703D03*
X0094465Y0107703D03*
X0094367Y0107703D03*
X0094268Y0107703D03*
X0094170Y0107703D03*
X0094072Y0107703D03*
X0093973Y0107703D03*
X0099583Y0113411D03*
X0113363Y0109376D03*
X0113461Y0109376D03*
X0113560Y0109376D03*
X0113658Y0109376D03*
X0113757Y0109376D03*
X0113855Y0109376D03*
X0113953Y0109376D03*
X0114446Y0109474D03*
X0114544Y0109474D03*
X0114642Y0109474D03*
X0114741Y0109474D03*
X0114839Y0109474D03*
X0114938Y0109474D03*
X0115036Y0109474D03*
X0115135Y0109474D03*
X0115233Y0109474D03*
X0115528Y0109573D03*
X0115627Y0109573D03*
X0115725Y0109573D03*
X0115823Y0109573D03*
X0115922Y0109573D03*
X0123698Y0106719D03*
X0129505Y0126896D03*
X0119760Y0132703D03*
X0127241Y0137329D03*
X0111296Y0144809D03*
X0103619Y0141561D03*
X0103520Y0141561D03*
X0103422Y0141561D03*
X0102438Y0141463D03*
X0102339Y0141463D03*
X0102142Y0135360D03*
X0105981Y0125813D03*
X0106375Y0125911D03*
X0106473Y0125911D03*
X0106572Y0125911D03*
X0106670Y0125911D03*
X0096631Y0151207D03*
X0096532Y0151207D03*
X0096434Y0151207D03*
X0096335Y0151207D03*
X0096237Y0151207D03*
X0096138Y0151207D03*
X0096040Y0151207D03*
X0095942Y0151207D03*
X0095843Y0151207D03*
X0095253Y0151108D03*
X0095154Y0151108D03*
X0095056Y0151108D03*
X0094957Y0151108D03*
X0094859Y0151108D03*
X0094760Y0151108D03*
X0113855Y0152781D03*
X0113953Y0152781D03*
X0114052Y0152781D03*
X0114150Y0152781D03*
X0114249Y0152781D03*
X0114347Y0152781D03*
X0114446Y0152781D03*
X0114544Y0152781D03*
X0114642Y0152781D03*
X0114741Y0152781D03*
X0114839Y0152880D03*
X0114938Y0152880D03*
X0115036Y0152880D03*
X0115135Y0152880D03*
X0115233Y0152880D03*
X0115331Y0152880D03*
X0115430Y0152880D03*
X0115528Y0152880D03*
X0115627Y0152880D03*
X0115725Y0152880D03*
X0115922Y0152880D03*
X0116020Y0152880D03*
X0118186Y0075026D03*
D48*
X0119957Y0071679D03*
X0120548Y0071581D03*
X0122418Y0074435D03*
X0115627Y0079750D03*
X0115528Y0079652D03*
X0115430Y0079652D03*
X0114938Y0079848D03*
X0108835Y0078766D03*
X0108343Y0078667D03*
X0108245Y0078667D03*
X0108146Y0078667D03*
X0107753Y0078569D03*
X0107654Y0078569D03*
X0107556Y0078569D03*
X0107457Y0078569D03*
X0107359Y0078569D03*
X0107260Y0078569D03*
X0107162Y0078569D03*
X0106965Y0078470D03*
X0106867Y0078470D03*
X0106768Y0078470D03*
X0106670Y0078470D03*
X0106572Y0078470D03*
X0106473Y0078470D03*
X0106375Y0078470D03*
X0105981Y0078372D03*
X0105883Y0078372D03*
X0105784Y0078372D03*
X0105686Y0078372D03*
X0105587Y0078372D03*
X0105194Y0078274D03*
X0105095Y0078274D03*
X0104997Y0078274D03*
X0104898Y0078274D03*
X0104800Y0078274D03*
X0104406Y0078175D03*
X0104308Y0078175D03*
X0104209Y0078175D03*
X0104111Y0078175D03*
X0104012Y0078175D03*
X0103914Y0078175D03*
X0103816Y0078077D03*
X0103717Y0078077D03*
X0103619Y0078077D03*
X0103520Y0078077D03*
X0103422Y0078077D03*
X0103323Y0078077D03*
X0102930Y0077978D03*
X0102831Y0077978D03*
X0102733Y0077978D03*
X0102635Y0077978D03*
X0102536Y0077978D03*
X0102044Y0077978D03*
X0101946Y0077978D03*
X0102635Y0075026D03*
X0102733Y0075026D03*
X0102831Y0075026D03*
X0102930Y0075026D03*
X0103028Y0075026D03*
X0103127Y0075026D03*
X0103225Y0075026D03*
X0103323Y0075026D03*
X0103422Y0075124D03*
X0103520Y0075124D03*
X0103619Y0075124D03*
X0103717Y0075124D03*
X0103816Y0075124D03*
X0103914Y0075124D03*
X0104012Y0075124D03*
X0104111Y0075124D03*
X0104308Y0075222D03*
X0104406Y0075222D03*
X0104505Y0075222D03*
X0104603Y0075222D03*
X0104701Y0075222D03*
X0104800Y0075222D03*
X0104898Y0075222D03*
X0104997Y0075222D03*
X0105095Y0075321D03*
X0105194Y0075321D03*
X0105292Y0075321D03*
X0105390Y0075321D03*
X0105489Y0075321D03*
X0105587Y0075321D03*
X0105686Y0075321D03*
X0105784Y0075321D03*
X0105981Y0075419D03*
X0106670Y0075518D03*
X0106768Y0075518D03*
X0106867Y0075518D03*
X0106965Y0075518D03*
X0107359Y0075616D03*
X0107457Y0075616D03*
X0107556Y0075616D03*
X0107654Y0075616D03*
X0107753Y0075616D03*
X0107851Y0075616D03*
X0107949Y0075616D03*
X0108343Y0075715D03*
X0108442Y0075715D03*
X0108540Y0075715D03*
X0108638Y0075715D03*
X0108737Y0075715D03*
X0108835Y0075715D03*
X0111493Y0071089D03*
X0108638Y0067939D03*
X0108540Y0067939D03*
X0108343Y0067841D03*
X0108245Y0067841D03*
X0108146Y0067841D03*
X0108048Y0067841D03*
X0107949Y0067841D03*
X0107753Y0067742D03*
X0107654Y0067742D03*
X0107556Y0067742D03*
X0107457Y0067742D03*
X0107359Y0067742D03*
X0107260Y0067742D03*
X0107162Y0067742D03*
X0106965Y0067644D03*
X0106867Y0067644D03*
X0106768Y0067644D03*
X0106670Y0067644D03*
X0106572Y0067644D03*
X0106473Y0067644D03*
X0106375Y0067644D03*
X0106276Y0067644D03*
X0104505Y0067447D03*
X0104406Y0067447D03*
X0104308Y0067447D03*
X0104209Y0067447D03*
X0103619Y0067250D03*
X0102733Y0067152D03*
X0102635Y0067152D03*
X0102536Y0067152D03*
X0102438Y0067152D03*
X0102339Y0067152D03*
X0102241Y0067152D03*
X0102142Y0067152D03*
X0102044Y0067152D03*
X0101946Y0067152D03*
X0100961Y0074730D03*
X0100863Y0074730D03*
X0100764Y0074730D03*
X0100272Y0074632D03*
X0100174Y0074632D03*
X0100075Y0074632D03*
X0099485Y0074533D03*
X0099386Y0074533D03*
X0099288Y0074533D03*
X0099190Y0074533D03*
X0099091Y0074533D03*
X0098993Y0074533D03*
X0098894Y0074533D03*
X0098402Y0074435D03*
X0098304Y0074435D03*
X0101257Y0074829D03*
X0101355Y0074829D03*
X0101453Y0074829D03*
X0101552Y0074829D03*
X0101650Y0074829D03*
X0101749Y0074829D03*
X0101847Y0074927D03*
X0101946Y0074927D03*
X0102044Y0074927D03*
X0102142Y0074927D03*
X0102241Y0074927D03*
X0102339Y0074927D03*
X0102438Y0074927D03*
X0102536Y0074927D03*
X0099583Y0083195D03*
X0101946Y0088215D03*
X0102044Y0088215D03*
X0102241Y0088313D03*
X0102339Y0088313D03*
X0102438Y0088313D03*
X0102536Y0088313D03*
X0102635Y0088313D03*
X0102930Y0088411D03*
X0103028Y0088411D03*
X0103127Y0088411D03*
X0103225Y0088411D03*
X0103323Y0088411D03*
X0103717Y0088510D03*
X0103816Y0088510D03*
X0103914Y0088510D03*
X0104012Y0088510D03*
X0104111Y0088510D03*
X0104406Y0088608D03*
X0104505Y0088608D03*
X0104603Y0088608D03*
X0104701Y0088608D03*
X0104800Y0088608D03*
X0105194Y0088707D03*
X0105292Y0088707D03*
X0105390Y0088707D03*
X0105489Y0088707D03*
X0105587Y0088707D03*
X0105981Y0088805D03*
X0106079Y0088805D03*
X0106178Y0088805D03*
X0106276Y0088805D03*
X0106375Y0088805D03*
X0106473Y0088805D03*
X0106867Y0088904D03*
X0106965Y0088904D03*
X0107064Y0088904D03*
X0107162Y0088904D03*
X0107260Y0088904D03*
X0107359Y0088904D03*
X0107753Y0089002D03*
X0107851Y0089002D03*
X0107949Y0089002D03*
X0108048Y0089002D03*
X0108146Y0089002D03*
X0108245Y0089002D03*
X0108343Y0089002D03*
X0108442Y0089002D03*
X0108540Y0089002D03*
X0108638Y0089002D03*
X0108737Y0089002D03*
X0108835Y0089002D03*
X0108245Y0091955D03*
X0108146Y0091955D03*
X0108048Y0091955D03*
X0107949Y0091955D03*
X0107851Y0091955D03*
X0107753Y0091955D03*
X0107654Y0091955D03*
X0107556Y0091955D03*
X0107457Y0091955D03*
X0107260Y0091856D03*
X0107162Y0091856D03*
X0107064Y0091856D03*
X0106965Y0091856D03*
X0106867Y0091856D03*
X0106768Y0091856D03*
X0106670Y0091856D03*
X0106572Y0091856D03*
X0106276Y0091758D03*
X0106178Y0091758D03*
X0106079Y0091758D03*
X0105981Y0091758D03*
X0105883Y0091758D03*
X0105784Y0091758D03*
X0105686Y0091758D03*
X0105587Y0091758D03*
X0105292Y0091659D03*
X0105194Y0091659D03*
X0105095Y0091659D03*
X0104997Y0091659D03*
X0104898Y0091659D03*
X0104800Y0091659D03*
X0104701Y0091659D03*
X0104603Y0091659D03*
X0104505Y0091659D03*
X0104406Y0091561D03*
X0104308Y0091561D03*
X0104209Y0091561D03*
X0104111Y0091561D03*
X0104012Y0091561D03*
X0103914Y0091561D03*
X0103816Y0091561D03*
X0103717Y0091561D03*
X0103619Y0091561D03*
X0103225Y0091463D03*
X0103127Y0091463D03*
X0103028Y0091463D03*
X0102930Y0091463D03*
X0102831Y0091463D03*
X0102733Y0091463D03*
X0101946Y0091364D03*
X0101847Y0091364D03*
X0101749Y0091364D03*
X0108442Y0092053D03*
X0108540Y0092053D03*
X0108638Y0092053D03*
X0114642Y0092250D03*
X0123205Y0091463D03*
X0138068Y0100321D03*
X0127536Y0115183D03*
X0127142Y0115380D03*
X0113068Y0108687D03*
X0112969Y0108687D03*
X0112871Y0108687D03*
X0108835Y0112230D03*
X0108737Y0112230D03*
X0108638Y0112230D03*
X0108540Y0112132D03*
X0108442Y0112132D03*
X0108343Y0112132D03*
X0108245Y0112132D03*
X0108146Y0112132D03*
X0108048Y0112132D03*
X0107949Y0112132D03*
X0107851Y0112132D03*
X0107753Y0112033D03*
X0107654Y0112033D03*
X0107556Y0112033D03*
X0107457Y0112033D03*
X0107359Y0112033D03*
X0107260Y0112033D03*
X0107162Y0112033D03*
X0107064Y0112033D03*
X0106670Y0111935D03*
X0106572Y0111935D03*
X0106473Y0111935D03*
X0106375Y0111935D03*
X0106276Y0111935D03*
X0106178Y0111935D03*
X0105784Y0111837D03*
X0105686Y0111837D03*
X0105587Y0111837D03*
X0105489Y0111837D03*
X0105390Y0111837D03*
X0105292Y0111837D03*
X0104997Y0111738D03*
X0104898Y0111738D03*
X0104800Y0111738D03*
X0104701Y0111738D03*
X0104603Y0111738D03*
X0104505Y0111738D03*
X0104406Y0111738D03*
X0104308Y0111640D03*
X0104209Y0111640D03*
X0104111Y0111640D03*
X0104012Y0111640D03*
X0103914Y0111640D03*
X0103816Y0111640D03*
X0103717Y0111640D03*
X0103422Y0111541D03*
X0103323Y0111541D03*
X0103225Y0111541D03*
X0103127Y0111541D03*
X0102635Y0111443D03*
X0102536Y0111443D03*
X0102438Y0111443D03*
X0102339Y0111443D03*
X0102241Y0111443D03*
X0102142Y0111443D03*
X0102044Y0111443D03*
X0101453Y0107703D03*
X0100371Y0107604D03*
X0099288Y0107506D03*
X0099190Y0107506D03*
X0098205Y0107407D03*
X0098107Y0107407D03*
X0100272Y0101797D03*
X0100371Y0101797D03*
X0100469Y0101797D03*
X0100568Y0101797D03*
X0100666Y0101797D03*
X0100764Y0101797D03*
X0100863Y0101797D03*
X0101158Y0101896D03*
X0101257Y0101896D03*
X0101355Y0101896D03*
X0101453Y0101896D03*
X0101552Y0101896D03*
X0101650Y0101896D03*
X0101749Y0101896D03*
X0101847Y0101896D03*
X0102044Y0101994D03*
X0102142Y0101994D03*
X0102241Y0101994D03*
X0102339Y0101994D03*
X0102438Y0101994D03*
X0102536Y0101994D03*
X0102635Y0101994D03*
X0102733Y0101994D03*
X0102930Y0102093D03*
X0103028Y0102093D03*
X0103127Y0102093D03*
X0103225Y0102093D03*
X0103323Y0102093D03*
X0103422Y0102093D03*
X0103520Y0102093D03*
X0103619Y0102093D03*
X0103717Y0102093D03*
X0103816Y0102191D03*
X0103914Y0102191D03*
X0104012Y0102191D03*
X0104111Y0102191D03*
X0104209Y0102191D03*
X0104308Y0102191D03*
X0104406Y0102191D03*
X0104505Y0102191D03*
X0104603Y0102191D03*
X0104800Y0102289D03*
X0104898Y0102289D03*
X0104997Y0102289D03*
X0105095Y0102289D03*
X0105194Y0102289D03*
X0105292Y0102289D03*
X0105390Y0102289D03*
X0105489Y0102289D03*
X0105587Y0102289D03*
X0105784Y0102388D03*
X0105883Y0102388D03*
X0105981Y0102388D03*
X0106079Y0102388D03*
X0106178Y0102388D03*
X0106276Y0102388D03*
X0106375Y0102388D03*
X0106473Y0102388D03*
X0106867Y0102486D03*
X0106965Y0102486D03*
X0107064Y0102486D03*
X0107162Y0102486D03*
X0108737Y0102585D03*
X0100075Y0101699D03*
X0099977Y0101699D03*
X0099879Y0101699D03*
X0099780Y0101699D03*
X0099682Y0101699D03*
X0099583Y0101699D03*
X0099485Y0101699D03*
X0099190Y0101600D03*
X0099091Y0101600D03*
X0098993Y0101600D03*
X0098894Y0101600D03*
X0098796Y0101600D03*
X0098402Y0101502D03*
X0098304Y0101502D03*
X0099682Y0116758D03*
X0102142Y0121778D03*
X0102241Y0121778D03*
X0102339Y0121778D03*
X0102733Y0121876D03*
X0102831Y0121876D03*
X0102930Y0121876D03*
X0103028Y0121876D03*
X0103422Y0121974D03*
X0103520Y0121974D03*
X0103619Y0121974D03*
X0103717Y0121974D03*
X0103816Y0121974D03*
X0104111Y0122073D03*
X0104209Y0122073D03*
X0104308Y0122073D03*
X0104406Y0122073D03*
X0104505Y0122073D03*
X0104603Y0122073D03*
X0104898Y0122171D03*
X0104997Y0122171D03*
X0105095Y0122171D03*
X0105194Y0122171D03*
X0105292Y0122171D03*
X0105390Y0122171D03*
X0105489Y0122171D03*
X0105686Y0122270D03*
X0105784Y0122270D03*
X0105883Y0122270D03*
X0105981Y0122270D03*
X0106079Y0122270D03*
X0106178Y0122270D03*
X0106276Y0122270D03*
X0106670Y0122368D03*
X0106768Y0122368D03*
X0106867Y0122368D03*
X0106965Y0122368D03*
X0107064Y0122368D03*
X0107162Y0122368D03*
X0107851Y0122467D03*
X0107949Y0122467D03*
X0105390Y0125124D03*
X0105194Y0125026D03*
X0105095Y0125026D03*
X0104997Y0125026D03*
X0104898Y0125026D03*
X0104800Y0125026D03*
X0104701Y0125026D03*
X0104505Y0124927D03*
X0104406Y0124927D03*
X0104308Y0124927D03*
X0104209Y0124927D03*
X0104111Y0124927D03*
X0104012Y0124927D03*
X0103914Y0124927D03*
X0103717Y0124829D03*
X0103619Y0124829D03*
X0103520Y0124829D03*
X0103422Y0124829D03*
X0103323Y0124829D03*
X0103225Y0124829D03*
X0103127Y0124829D03*
X0102930Y0124730D03*
X0102831Y0124730D03*
X0102733Y0124730D03*
X0102635Y0124730D03*
X0102536Y0124730D03*
X0102438Y0124730D03*
X0102339Y0124730D03*
X0102241Y0124730D03*
X0102142Y0124730D03*
X0102044Y0124730D03*
X0101946Y0124730D03*
X0108048Y0126797D03*
X0108146Y0126797D03*
X0108245Y0126797D03*
X0108343Y0126797D03*
X0108442Y0126896D03*
X0108540Y0126896D03*
X0108638Y0126896D03*
X0108737Y0126896D03*
X0108835Y0126896D03*
X0108245Y0131620D03*
X0108146Y0131620D03*
X0108048Y0131620D03*
X0107949Y0131620D03*
X0107851Y0131620D03*
X0107457Y0131522D03*
X0107359Y0131522D03*
X0107260Y0131522D03*
X0107162Y0131522D03*
X0107064Y0131522D03*
X0106965Y0131522D03*
X0106867Y0131522D03*
X0106572Y0131423D03*
X0106473Y0131423D03*
X0106375Y0131423D03*
X0106276Y0131423D03*
X0106178Y0131423D03*
X0106079Y0131423D03*
X0105784Y0131325D03*
X0105686Y0131325D03*
X0105587Y0131325D03*
X0105489Y0131325D03*
X0105390Y0131325D03*
X0105292Y0131325D03*
X0104997Y0131226D03*
X0104898Y0131226D03*
X0104800Y0131226D03*
X0104701Y0131226D03*
X0104603Y0131226D03*
X0104209Y0131128D03*
X0104111Y0131128D03*
X0103225Y0131030D03*
X0103127Y0131030D03*
X0103028Y0131030D03*
X0102930Y0131030D03*
X0102831Y0131030D03*
X0102339Y0130931D03*
X0102241Y0130931D03*
X0104308Y0133884D03*
X0104406Y0133884D03*
X0104505Y0133884D03*
X0104603Y0133884D03*
X0104701Y0133884D03*
X0104800Y0133884D03*
X0104898Y0133884D03*
X0104997Y0133884D03*
X0105095Y0133884D03*
X0105292Y0133982D03*
X0105390Y0133982D03*
X0105489Y0133982D03*
X0105587Y0133982D03*
X0105686Y0133982D03*
X0105784Y0133982D03*
X0105883Y0133982D03*
X0105981Y0133982D03*
X0106079Y0133982D03*
X0106178Y0134081D03*
X0106276Y0134081D03*
X0106375Y0134081D03*
X0106473Y0134081D03*
X0106572Y0134081D03*
X0106670Y0134081D03*
X0106768Y0134081D03*
X0106867Y0134081D03*
X0106965Y0134081D03*
X0107260Y0134179D03*
X0107359Y0134179D03*
X0107457Y0134179D03*
X0107556Y0134179D03*
X0107654Y0134179D03*
X0107949Y0134278D03*
X0108048Y0134278D03*
X0103816Y0142250D03*
X0103717Y0142250D03*
X0102536Y0146581D03*
X0101650Y0146482D03*
X0101552Y0146482D03*
X0101453Y0146482D03*
X0100863Y0146384D03*
X0100764Y0146384D03*
X0100666Y0146384D03*
X0100568Y0146384D03*
X0100469Y0146384D03*
X0100174Y0146285D03*
X0100075Y0146285D03*
X0099977Y0146285D03*
X0099879Y0146285D03*
X0099780Y0146285D03*
X0099682Y0146285D03*
X0099583Y0146285D03*
X0099386Y0146187D03*
X0099288Y0146187D03*
X0099190Y0146187D03*
X0099091Y0146187D03*
X0098993Y0146187D03*
X0098894Y0146187D03*
X0098796Y0146187D03*
X0098698Y0146089D03*
X0098599Y0146089D03*
X0098501Y0146089D03*
X0098107Y0151994D03*
X0099190Y0152093D03*
X0100272Y0152191D03*
X0101453Y0152289D03*
X0102536Y0152388D03*
X0104800Y0152585D03*
X0108146Y0152880D03*
X0110410Y0153077D03*
X0111493Y0153175D03*
X0111591Y0153175D03*
X0112477Y0153274D03*
X0112575Y0153274D03*
X0112674Y0153274D03*
X0108737Y0147270D03*
X0107753Y0147270D03*
X0107654Y0147270D03*
X0107556Y0147270D03*
X0107064Y0147171D03*
X0106965Y0147171D03*
X0106867Y0147171D03*
X0106768Y0147171D03*
X0106670Y0147171D03*
X0106375Y0147073D03*
X0106276Y0147073D03*
X0106178Y0147073D03*
X0106079Y0147073D03*
X0105587Y0146974D03*
X0132359Y0131128D03*
D49*
X0128225Y0135705D03*
X0128127Y0135705D03*
X0127831Y0135705D03*
X0127733Y0135705D03*
X0127635Y0135803D03*
X0120154Y0134228D03*
X0120056Y0134228D03*
X0116217Y0133539D03*
X0118481Y0129209D03*
X0122615Y0121531D03*
X0137182Y0107260D03*
X0137280Y0107358D03*
X0137379Y0107358D03*
X0137477Y0107358D03*
X0137575Y0107358D03*
X0137674Y0107358D03*
X0137772Y0107358D03*
X0137871Y0107358D03*
X0123009Y0104996D03*
X0122910Y0104898D03*
X0122812Y0104898D03*
X0122713Y0104898D03*
X0122615Y0104898D03*
X0122320Y0104898D03*
X0115922Y0100075D03*
X0115823Y0100075D03*
X0115823Y0098697D03*
X0115528Y0089740D03*
X0115430Y0089642D03*
X0115331Y0089642D03*
X0115233Y0089642D03*
X0115135Y0089642D03*
X0115036Y0089642D03*
X0114938Y0089642D03*
X0114741Y0087378D03*
X0114642Y0087280D03*
X0114150Y0086787D03*
X0114052Y0086787D03*
X0113953Y0085606D03*
X0117497Y0081571D03*
X0124682Y0079012D03*
X0124879Y0078913D03*
X0124977Y0078815D03*
X0126946Y0080291D03*
X0127142Y0080193D03*
X0127831Y0080193D03*
X0127339Y0083539D03*
X0127241Y0083539D03*
X0127142Y0083539D03*
X0127044Y0083539D03*
X0127536Y0088559D03*
X0127635Y0088559D03*
X0127733Y0088559D03*
X0127339Y0088657D03*
X0127536Y0091807D03*
X0127635Y0091807D03*
X0127733Y0091807D03*
X0127831Y0091807D03*
X0127930Y0091807D03*
X0135410Y0092791D03*
X0135509Y0092791D03*
X0135607Y0092791D03*
X0135705Y0092791D03*
X0123993Y0076157D03*
X0124091Y0076059D03*
X0122713Y0075469D03*
X0121335Y0073303D03*
X0099682Y0067299D03*
X0101355Y0122220D03*
X0103816Y0133441D03*
X0103914Y0134917D03*
X0114938Y0139543D03*
D50*
X0095745Y0072024D03*
X0099386Y0069169D03*
X0109327Y0074780D03*
X0109426Y0074780D03*
X0109524Y0074780D03*
X0109623Y0074780D03*
X0109721Y0074780D03*
X0109918Y0074681D03*
X0110016Y0074681D03*
X0099682Y0079898D03*
X0100666Y0086197D03*
X0100568Y0086295D03*
X0095745Y0098992D03*
X0116414Y0090331D03*
X0122418Y0089445D03*
X0133146Y0097909D03*
X0137871Y0099287D03*
X0122024Y0106472D03*
X0121926Y0106571D03*
X0121532Y0107161D03*
X0129406Y0126945D03*
X0102536Y0135213D03*
X0102438Y0135213D03*
X0101946Y0141315D03*
X0096040Y0143677D03*
X0099682Y0119661D03*
X0100666Y0119661D03*
X0123107Y0076157D03*
X0125371Y0077043D03*
D51*
X0123796Y0076256D03*
X0122320Y0074386D03*
X0120449Y0071531D03*
X0120056Y0071630D03*
X0118973Y0076945D03*
X0119564Y0077831D03*
X0121631Y0081079D03*
X0107260Y0075567D03*
X0107162Y0075567D03*
X0107064Y0075567D03*
X0106572Y0075469D03*
X0106473Y0075469D03*
X0106375Y0075469D03*
X0106276Y0075469D03*
X0106178Y0075469D03*
X0106079Y0075469D03*
X0104209Y0075173D03*
X0104505Y0078224D03*
X0104603Y0078224D03*
X0104701Y0078224D03*
X0105292Y0078323D03*
X0105390Y0078323D03*
X0105489Y0078323D03*
X0106079Y0078421D03*
X0106178Y0078421D03*
X0106276Y0078421D03*
X0105489Y0083146D03*
X0105095Y0088657D03*
X0104997Y0088657D03*
X0104898Y0088657D03*
X0104308Y0088559D03*
X0104209Y0088559D03*
X0103619Y0088461D03*
X0103520Y0088461D03*
X0103422Y0088461D03*
X0102831Y0088362D03*
X0102733Y0088362D03*
X0105686Y0088756D03*
X0105784Y0088756D03*
X0105883Y0088756D03*
X0106572Y0088854D03*
X0106670Y0088854D03*
X0106768Y0088854D03*
X0107457Y0088953D03*
X0107556Y0088953D03*
X0107654Y0088953D03*
X0107359Y0091906D03*
X0106473Y0091807D03*
X0106375Y0091807D03*
X0105489Y0091709D03*
X0105390Y0091709D03*
X0104701Y0102240D03*
X0105686Y0102339D03*
X0106572Y0102437D03*
X0106670Y0102437D03*
X0106768Y0102437D03*
X0107260Y0102437D03*
X0107949Y0102535D03*
X0108048Y0102535D03*
X0108146Y0102535D03*
X0108245Y0102634D03*
X0108343Y0102634D03*
X0108442Y0102634D03*
X0108540Y0102634D03*
X0108638Y0102634D03*
X0106965Y0111984D03*
X0106867Y0111984D03*
X0106768Y0111984D03*
X0106079Y0111886D03*
X0105981Y0111886D03*
X0105883Y0111886D03*
X0105194Y0111787D03*
X0105095Y0111787D03*
X0105489Y0116610D03*
X0099583Y0116709D03*
X0105587Y0122220D03*
X0106375Y0122319D03*
X0106473Y0122319D03*
X0106572Y0122319D03*
X0107260Y0122417D03*
X0107359Y0122417D03*
X0107457Y0122417D03*
X0107556Y0122417D03*
X0107654Y0122417D03*
X0107753Y0122417D03*
X0108048Y0122516D03*
X0108146Y0122516D03*
X0108245Y0122516D03*
X0108343Y0122516D03*
X0108442Y0122516D03*
X0108540Y0122516D03*
X0108638Y0122516D03*
X0108737Y0122516D03*
X0108835Y0122516D03*
X0104603Y0124976D03*
X0103816Y0124878D03*
X0103028Y0124780D03*
X0103323Y0130980D03*
X0103422Y0130980D03*
X0103717Y0131079D03*
X0103816Y0131079D03*
X0103914Y0131079D03*
X0104012Y0131079D03*
X0104308Y0131177D03*
X0104406Y0131177D03*
X0104505Y0131177D03*
X0105095Y0131276D03*
X0105194Y0131276D03*
X0105883Y0131374D03*
X0105981Y0131374D03*
X0106670Y0131472D03*
X0106768Y0131472D03*
X0107556Y0131571D03*
X0107654Y0131571D03*
X0107753Y0131571D03*
X0108343Y0131669D03*
X0108442Y0131669D03*
X0108540Y0131669D03*
X0108638Y0131669D03*
X0108737Y0131669D03*
X0108835Y0131669D03*
X0108343Y0134327D03*
X0108245Y0134327D03*
X0108146Y0134327D03*
X0107851Y0134327D03*
X0108540Y0134425D03*
X0108638Y0134425D03*
X0108737Y0134425D03*
X0108835Y0134425D03*
X0105194Y0133933D03*
X0116512Y0133539D03*
X0122320Y0123106D03*
X0127241Y0115232D03*
X0127438Y0115134D03*
X0137182Y0104307D03*
X0134327Y0127929D03*
X0108638Y0147319D03*
X0108540Y0147319D03*
X0108442Y0147319D03*
X0108343Y0147319D03*
X0108245Y0147319D03*
X0108146Y0147319D03*
X0108048Y0147319D03*
X0107949Y0147319D03*
X0107851Y0147319D03*
X0107457Y0147220D03*
X0107359Y0147220D03*
X0107260Y0147220D03*
X0107162Y0147220D03*
X0106572Y0147122D03*
X0106473Y0147122D03*
X0105981Y0147024D03*
X0105883Y0147024D03*
X0105784Y0147024D03*
X0105686Y0147024D03*
X0105489Y0146925D03*
X0105390Y0146925D03*
X0105292Y0146925D03*
X0105194Y0146925D03*
X0105095Y0146925D03*
X0104997Y0146925D03*
X0103717Y0146728D03*
X0103619Y0146728D03*
X0103520Y0146728D03*
X0103422Y0146728D03*
X0103323Y0146630D03*
X0103225Y0146630D03*
X0103127Y0146630D03*
X0103028Y0146630D03*
X0102930Y0146630D03*
X0102831Y0146630D03*
X0102733Y0146630D03*
X0102635Y0146630D03*
X0102438Y0146531D03*
X0102339Y0146531D03*
X0102241Y0146531D03*
X0102142Y0146531D03*
X0102044Y0146531D03*
X0101946Y0146531D03*
X0101847Y0146531D03*
X0101749Y0146531D03*
X0101355Y0146433D03*
X0101257Y0146433D03*
X0101158Y0146433D03*
X0101060Y0146433D03*
X0100961Y0146433D03*
X0100371Y0146335D03*
X0100272Y0146335D03*
X0099485Y0146236D03*
X0101060Y0074780D03*
X0101158Y0074780D03*
X0100666Y0074681D03*
X0100568Y0074681D03*
X0100469Y0074681D03*
X0100371Y0074681D03*
X0099977Y0074583D03*
X0099879Y0074583D03*
X0099780Y0074583D03*
X0099682Y0074583D03*
X0099583Y0074583D03*
X0105390Y0070055D03*
X0104111Y0067398D03*
X0104012Y0067398D03*
X0103914Y0067398D03*
X0107851Y0067791D03*
D52*
X0111493Y0081522D03*
X0123894Y0085459D03*
X0128422Y0082407D03*
X0128520Y0082506D03*
X0128816Y0082998D03*
X0131965Y0089789D03*
X0130686Y0093628D03*
X0136886Y0105242D03*
X0136985Y0105341D03*
X0129111Y0126896D03*
X0111001Y0145006D03*
D53*
X0104012Y0140380D03*
X0103717Y0133392D03*
X0101257Y0122171D03*
X0099780Y0116069D03*
X0117497Y0130537D03*
X0117595Y0130537D03*
X0119957Y0134179D03*
X0127930Y0135656D03*
X0128028Y0135656D03*
X0136296Y0105931D03*
X0122516Y0104848D03*
X0122418Y0104848D03*
X0115725Y0098746D03*
X0114839Y0087427D03*
X0115233Y0087329D03*
X0119465Y0086148D03*
X0114544Y0081226D03*
X0122812Y0074238D03*
X0121237Y0073254D03*
X0121434Y0072171D03*
X0124780Y0078963D03*
X0127241Y0080242D03*
X0127536Y0080144D03*
X0127635Y0080144D03*
X0127733Y0080144D03*
X0127930Y0080242D03*
X0101453Y0088707D03*
X0101355Y0088707D03*
X0101257Y0088707D03*
D54*
X0109721Y0087033D03*
X0109820Y0087033D03*
X0109918Y0087033D03*
X0096631Y0099238D03*
X0109721Y0120498D03*
X0110705Y0129159D03*
X0108048Y0140970D03*
X0107949Y0140970D03*
X0107851Y0140970D03*
X0107753Y0140970D03*
X0126650Y0106423D03*
X0133835Y0097959D03*
X0109426Y0069907D03*
X0109327Y0069907D03*
X0096729Y0072171D03*
D55*
X0110213Y0069957D03*
X0110410Y0086886D03*
X0123009Y0089445D03*
X0133737Y0097909D03*
X0110410Y0120350D03*
X0110213Y0120449D03*
X0128816Y0126846D03*
X0110509Y0145055D03*
X0107457Y0140823D03*
X0096827Y0143874D03*
X0096434Y0099189D03*
D56*
X0096237Y0099140D03*
X0099977Y0113805D03*
X0099879Y0119317D03*
X0099485Y0127683D03*
X0111001Y0129159D03*
X0110902Y0136541D03*
X0110705Y0145006D03*
X0128914Y0126896D03*
X0109032Y0120892D03*
X0133638Y0097959D03*
X0131768Y0089789D03*
X0104997Y0069120D03*
X0099977Y0080341D03*
D57*
X0099879Y0085705D03*
X0096138Y0072220D03*
X0100568Y0068776D03*
X0101749Y0068579D03*
X0123796Y0085409D03*
X0122812Y0089445D03*
X0133540Y0097909D03*
X0119072Y0112673D03*
X0129012Y0126846D03*
X0111099Y0136591D03*
D58*
X0111099Y0144957D03*
X0121040Y0132555D03*
X0121237Y0132358D03*
X0121335Y0132260D03*
X0129209Y0126846D03*
X0124583Y0141807D03*
X0124485Y0141906D03*
X0124288Y0142201D03*
X0096237Y0143776D03*
X0129111Y0091413D03*
X0129012Y0091217D03*
X0128520Y0090429D03*
X0132064Y0089740D03*
X0118776Y0085409D03*
X0111394Y0086295D03*
X0101453Y0085705D03*
X0100469Y0086591D03*
X0100371Y0086492D03*
X0104898Y0068677D03*
X0118481Y0074976D03*
D59*
X0118579Y0085360D03*
X0131867Y0089789D03*
X0130784Y0093628D03*
X0105194Y0069022D03*
X0101650Y0068628D03*
X0100863Y0068726D03*
X0100764Y0068726D03*
X0100666Y0068726D03*
X0099977Y0085754D03*
X0096138Y0099140D03*
X0111099Y0129159D03*
X0111001Y0136541D03*
X0110804Y0145006D03*
X0096532Y0143825D03*
D60*
X0107556Y0140872D03*
X0110410Y0145006D03*
X0110705Y0136541D03*
X0110804Y0129159D03*
X0110115Y0120498D03*
X0110016Y0120498D03*
X0110312Y0120400D03*
X0101749Y0119907D03*
X0130981Y0093628D03*
X0131670Y0089789D03*
X0118383Y0085360D03*
X0110312Y0086935D03*
X0110213Y0086935D03*
X0110115Y0087033D03*
X0101749Y0086443D03*
X0101552Y0086344D03*
X0099682Y0084967D03*
X0096532Y0072171D03*
X0108934Y0069711D03*
X0109918Y0069907D03*
X0110016Y0069907D03*
X0110115Y0069907D03*
D61*
X0096335Y0072220D03*
X0100075Y0085803D03*
X0122910Y0089445D03*
X0099977Y0119366D03*
X0096729Y0143874D03*
X0131276Y0130980D03*
D62*
X0131178Y0130980D03*
X0110607Y0136591D03*
X0107654Y0140921D03*
X0110312Y0145055D03*
X0097024Y0143874D03*
X0096926Y0143874D03*
X0099583Y0127634D03*
X0101552Y0119858D03*
X0101650Y0119858D03*
X0109820Y0120547D03*
X0109918Y0120547D03*
X0096532Y0099189D03*
X0101650Y0086394D03*
X0110016Y0086984D03*
X0096631Y0072122D03*
X0109524Y0069858D03*
X0109623Y0069858D03*
X0109721Y0069858D03*
X0109820Y0069858D03*
D63*
X0111296Y0081423D03*
X0118481Y0085360D03*
X0130883Y0093628D03*
X0126749Y0106423D03*
X0110902Y0129159D03*
X0110804Y0136541D03*
X0107359Y0140774D03*
X0110607Y0145006D03*
X0100075Y0119415D03*
X0100075Y0113805D03*
X0096335Y0099140D03*
X0101650Y0095498D03*
X0100075Y0080341D03*
X0096434Y0072171D03*
D64*
X0101257Y0085656D03*
X0101355Y0085656D03*
X0108934Y0079947D03*
X0122615Y0089494D03*
X0128619Y0090577D03*
X0128816Y0090872D03*
X0130587Y0093628D03*
X0127044Y0106423D03*
X0111296Y0129159D03*
X0111296Y0136640D03*
X0121138Y0132506D03*
X0124386Y0142053D03*
X0101453Y0119219D03*
X0101355Y0119219D03*
X0101257Y0119120D03*
X0100469Y0120104D03*
X0100371Y0120104D03*
D65*
X0111198Y0129159D03*
X0110902Y0145006D03*
X0096434Y0143825D03*
X0126946Y0106423D03*
X0128717Y0082801D03*
X0099780Y0085557D03*
X0100469Y0068726D03*
D66*
X0101946Y0079455D03*
X0111198Y0073648D03*
X0117497Y0075321D03*
X0121729Y0079848D03*
X0121827Y0079947D03*
X0113855Y0081325D03*
X0113757Y0081325D03*
X0113757Y0080833D03*
X0114150Y0087526D03*
X0123304Y0090085D03*
X0123402Y0090281D03*
X0125174Y0101404D03*
X0117694Y0105833D03*
X0117595Y0105833D03*
X0115627Y0099730D03*
X0101946Y0112919D03*
X0116119Y0117152D03*
X0116217Y0119219D03*
X0117398Y0130242D03*
X0117398Y0130636D03*
X0114642Y0137722D03*
X0114544Y0138805D03*
X0114347Y0138805D03*
X0114544Y0139199D03*
D67*
X0114741Y0139346D03*
X0104209Y0142594D03*
X0103028Y0142988D03*
X0102930Y0142988D03*
X0102831Y0142988D03*
X0103914Y0136394D03*
X0103619Y0133244D03*
X0103520Y0133244D03*
X0100764Y0122122D03*
X0096631Y0109130D03*
X0115725Y0099780D03*
X0115627Y0098795D03*
X0125075Y0101354D03*
X0123107Y0089740D03*
X0119662Y0086000D03*
X0113953Y0082063D03*
X0113855Y0082063D03*
X0113855Y0080783D03*
X0121631Y0079799D03*
X0122910Y0074287D03*
X0120942Y0072909D03*
X0111198Y0073106D03*
X0100961Y0088657D03*
X0100863Y0088657D03*
X0117890Y0112772D03*
X0116414Y0117201D03*
X0116316Y0119268D03*
D68*
X0111296Y0122122D03*
X0107949Y0125567D03*
X0117497Y0129799D03*
X0117300Y0130587D03*
X0116808Y0131768D03*
X0118678Y0129209D03*
X0117595Y0106276D03*
X0117497Y0105783D03*
X0117300Y0105094D03*
X0115528Y0099583D03*
X0115430Y0098992D03*
X0114052Y0087575D03*
X0113658Y0081374D03*
X0114839Y0081177D03*
X0118776Y0075764D03*
X0118973Y0075469D03*
X0111394Y0074780D03*
X0111296Y0073598D03*
X0123796Y0088067D03*
D69*
X0110410Y0071778D03*
X0111493Y0116955D03*
X0101847Y0138707D03*
D70*
X0111493Y0097171D03*
D71*
X0111394Y0117053D03*
D72*
X0111394Y0097171D03*
D73*
X0111296Y0117053D03*
D74*
X0111296Y0097171D03*
D75*
X0111198Y0083736D03*
X0111198Y0117201D03*
D76*
X0111198Y0097171D03*
X0108934Y0143037D03*
D77*
X0111099Y0117201D03*
X0111099Y0083736D03*
D78*
X0111099Y0097171D03*
X0101158Y0115970D03*
X0101060Y0115970D03*
X0111001Y0117250D03*
D79*
X0100764Y0116069D03*
X0111001Y0097171D03*
D80*
X0111001Y0083736D03*
D81*
X0109820Y0080882D03*
X0101749Y0079996D03*
X0101552Y0080094D03*
X0101453Y0080094D03*
X0097123Y0072122D03*
X0097024Y0072122D03*
X0111001Y0070843D03*
X0096926Y0099287D03*
X0101453Y0113559D03*
X0101552Y0113559D03*
X0109721Y0114445D03*
X0109820Y0114445D03*
X0110509Y0129209D03*
X0110312Y0136689D03*
X0097516Y0143874D03*
X0097418Y0143874D03*
X0097320Y0143874D03*
D82*
X0110902Y0117299D03*
X0100961Y0116020D03*
X0100863Y0116020D03*
X0100863Y0082555D03*
X0100764Y0082555D03*
X0100961Y0082457D03*
X0101060Y0082457D03*
X0101158Y0082457D03*
X0110902Y0083736D03*
D83*
X0110705Y0083785D03*
X0110902Y0097171D03*
D84*
X0099091Y0095055D03*
X0097418Y0099287D03*
X0097320Y0099287D03*
X0097221Y0099287D03*
X0101257Y0080193D03*
X0097418Y0072122D03*
X0097320Y0072122D03*
X0110902Y0070843D03*
X0110312Y0129209D03*
X0110213Y0129209D03*
X0110115Y0136689D03*
X0108835Y0141020D03*
X0098009Y0143874D03*
X0097910Y0143874D03*
D85*
X0109032Y0142791D03*
X0110804Y0117299D03*
X0110804Y0083736D03*
X0100174Y0083047D03*
D86*
X0100272Y0083047D03*
X0110804Y0097220D03*
X0100174Y0116610D03*
X0110705Y0117299D03*
D87*
X0110804Y0071778D03*
D88*
X0110509Y0083835D03*
X0110705Y0097220D03*
D89*
X0110705Y0071778D03*
D90*
X0110213Y0080931D03*
X0110115Y0080931D03*
X0110016Y0080931D03*
X0109918Y0080931D03*
X0110410Y0081030D03*
X0101650Y0080045D03*
X0096926Y0072171D03*
X0096827Y0099238D03*
X0096729Y0099238D03*
X0101650Y0113510D03*
X0109918Y0114396D03*
X0110016Y0114396D03*
X0110115Y0114396D03*
X0110312Y0114494D03*
X0110410Y0114494D03*
X0110607Y0129159D03*
X0110410Y0136640D03*
X0108737Y0140970D03*
X0108638Y0140970D03*
X0108540Y0140970D03*
X0108442Y0140970D03*
X0108343Y0140970D03*
X0110115Y0145006D03*
X0097221Y0143923D03*
D91*
X0110607Y0117348D03*
X0100272Y0116561D03*
X0110607Y0083785D03*
D92*
X0110607Y0097220D03*
D93*
X0110607Y0071778D03*
X0101749Y0138805D03*
D94*
X0108146Y0141020D03*
X0108245Y0141020D03*
X0110213Y0145055D03*
X0110509Y0136591D03*
X0097123Y0143874D03*
X0110213Y0114445D03*
X0110312Y0080980D03*
X0096827Y0072122D03*
D95*
X0110509Y0117348D03*
D96*
X0110509Y0097220D03*
D97*
X0110509Y0071827D03*
D98*
X0109721Y0080931D03*
X0101355Y0080144D03*
X0097221Y0072171D03*
X0097123Y0099238D03*
X0097024Y0099238D03*
X0101355Y0113608D03*
X0101257Y0113707D03*
X0099682Y0127683D03*
X0110410Y0129159D03*
X0110213Y0136640D03*
X0110016Y0145006D03*
X0097812Y0143923D03*
X0097713Y0143923D03*
X0097615Y0143923D03*
D99*
X0110410Y0097270D03*
D100*
X0110312Y0097220D03*
D101*
X0110312Y0071778D03*
D102*
X0109623Y0083884D03*
X0110115Y0097270D03*
X0110213Y0097270D03*
D103*
X0097713Y0099238D03*
X0097615Y0099238D03*
X0097516Y0099238D03*
X0097516Y0072171D03*
X0110016Y0129258D03*
X0110115Y0129258D03*
X0110016Y0136738D03*
X0109918Y0136738D03*
X0109918Y0144907D03*
X0098402Y0143923D03*
X0098304Y0143923D03*
X0098205Y0143923D03*
X0098107Y0143923D03*
D104*
X0109327Y0117398D03*
X0109426Y0117398D03*
X0109623Y0117398D03*
X0109820Y0097319D03*
X0109918Y0097319D03*
X0110016Y0097319D03*
X0109524Y0083933D03*
D105*
X0097812Y0072122D03*
X0097713Y0072122D03*
X0097615Y0072122D03*
X0097812Y0099287D03*
X0097910Y0099287D03*
X0099780Y0127732D03*
X0109623Y0129307D03*
X0109721Y0129307D03*
X0109820Y0129307D03*
X0109918Y0129307D03*
X0109820Y0136787D03*
X0109721Y0136787D03*
D106*
X0109820Y0144268D03*
X0100568Y0139150D03*
X0100666Y0127732D03*
X0100764Y0127732D03*
X0100863Y0127732D03*
X0100371Y0094465D03*
X0100272Y0094465D03*
D107*
X0100764Y0094366D03*
X0100863Y0094366D03*
X0100961Y0094366D03*
X0101552Y0094268D03*
X0101158Y0127732D03*
X0101060Y0127732D03*
X0100961Y0127732D03*
X0100863Y0139051D03*
X0109721Y0144268D03*
D108*
X0109721Y0097319D03*
X0109623Y0097319D03*
X0109524Y0097319D03*
X0109426Y0097319D03*
X0109327Y0097319D03*
D109*
X0109524Y0140872D03*
X0109623Y0140872D03*
D110*
X0099583Y0139593D03*
X0109524Y0129356D03*
X0099190Y0094907D03*
X0098009Y0072171D03*
X0097910Y0072171D03*
D111*
X0109032Y0083884D03*
X0109131Y0083884D03*
X0109229Y0083884D03*
X0109327Y0083884D03*
X0109426Y0083884D03*
X0109524Y0117348D03*
X0109229Y0117348D03*
X0109131Y0117348D03*
D112*
X0109229Y0140823D03*
X0109327Y0140823D03*
X0109426Y0140823D03*
D113*
X0109426Y0129307D03*
X0109327Y0129307D03*
X0109229Y0129307D03*
X0109131Y0129307D03*
X0109032Y0129307D03*
X0108934Y0129307D03*
D114*
X0109032Y0097319D03*
X0109131Y0097319D03*
X0109229Y0097319D03*
D115*
X0109229Y0071827D03*
D116*
X0109131Y0140872D03*
D117*
X0109131Y0071827D03*
X0109032Y0071827D03*
D118*
X0101749Y0127781D03*
X0101650Y0127781D03*
X0101453Y0139002D03*
X0101355Y0139002D03*
D119*
X0101650Y0138854D03*
D120*
X0101552Y0138953D03*
D121*
X0101257Y0139051D03*
X0101158Y0139051D03*
X0101060Y0139051D03*
X0101257Y0127732D03*
X0101355Y0127732D03*
X0101453Y0127732D03*
X0101552Y0127732D03*
D122*
X0100961Y0139100D03*
X0101060Y0094317D03*
X0101158Y0094317D03*
X0101257Y0094317D03*
X0101355Y0094317D03*
X0101453Y0094317D03*
D123*
X0100666Y0094415D03*
X0100568Y0094415D03*
X0100469Y0094415D03*
X0100666Y0139100D03*
X0100764Y0139100D03*
D124*
X0099879Y0139346D03*
X0099977Y0127831D03*
X0100075Y0127831D03*
X0100666Y0114150D03*
X0099583Y0094661D03*
D125*
X0099485Y0094711D03*
X0100666Y0080636D03*
X0099780Y0139396D03*
D126*
X0100174Y0139248D03*
X0100272Y0139248D03*
X0100469Y0127732D03*
X0100568Y0127732D03*
X0099977Y0094563D03*
D127*
X0099386Y0094760D03*
X0100371Y0080783D03*
X0100469Y0080685D03*
X0100568Y0080685D03*
X0100568Y0114150D03*
X0100469Y0114150D03*
X0100371Y0114248D03*
X0099879Y0127831D03*
D128*
X0100371Y0139199D03*
X0100469Y0139199D03*
X0100174Y0094514D03*
X0100075Y0094514D03*
D129*
X0100371Y0127781D03*
D130*
X0100272Y0127732D03*
X0100075Y0139248D03*
X0099879Y0094563D03*
X0099780Y0094563D03*
D131*
X0099682Y0094612D03*
X0100174Y0127781D03*
X0099977Y0139297D03*
D132*
X0099682Y0139494D03*
X0099288Y0094809D03*
M02*
