G75*
%MOIN*%
%OFA0B0*%
%FSLAX25Y25*%
%IPPOS*%
%LPD*%
%AMOC8*
5,1,8,0,0,1.08239X$1,22.5*
%
%ADD10C,0.00000*%
%ADD11C,0.06000*%
%ADD12R,0.06000X0.06000*%
%ADD13R,0.11024X0.09449*%
%ADD14C,0.05906*%
%ADD15R,0.07087X0.06299*%
%ADD16C,0.01000*%
%ADD17C,0.02400*%
%ADD18C,0.02978*%
D10*
X0042595Y0053933D02*
X0042595Y0163933D01*
X0051099Y0163933D02*
X0051101Y0164094D01*
X0051107Y0164254D01*
X0051117Y0164415D01*
X0051131Y0164575D01*
X0051149Y0164734D01*
X0051170Y0164894D01*
X0051196Y0165052D01*
X0051226Y0165210D01*
X0051259Y0165367D01*
X0051297Y0165524D01*
X0051338Y0165679D01*
X0051383Y0165833D01*
X0051432Y0165986D01*
X0051485Y0166138D01*
X0051541Y0166288D01*
X0051601Y0166437D01*
X0051665Y0166585D01*
X0051732Y0166731D01*
X0051803Y0166875D01*
X0051878Y0167017D01*
X0051956Y0167158D01*
X0052037Y0167296D01*
X0052122Y0167433D01*
X0052211Y0167567D01*
X0052302Y0167699D01*
X0052397Y0167829D01*
X0052495Y0167956D01*
X0052596Y0168081D01*
X0052700Y0168204D01*
X0052807Y0168323D01*
X0052917Y0168440D01*
X0053030Y0168555D01*
X0053146Y0168666D01*
X0053264Y0168775D01*
X0053385Y0168880D01*
X0053509Y0168983D01*
X0053635Y0169083D01*
X0053764Y0169179D01*
X0053895Y0169272D01*
X0054028Y0169362D01*
X0054163Y0169449D01*
X0054301Y0169532D01*
X0054440Y0169611D01*
X0054582Y0169688D01*
X0054725Y0169761D01*
X0054870Y0169830D01*
X0055017Y0169895D01*
X0055165Y0169957D01*
X0055315Y0170016D01*
X0055466Y0170070D01*
X0055618Y0170121D01*
X0055772Y0170168D01*
X0055927Y0170211D01*
X0056082Y0170250D01*
X0056239Y0170286D01*
X0056397Y0170318D01*
X0056555Y0170345D01*
X0056714Y0170369D01*
X0056873Y0170389D01*
X0057033Y0170405D01*
X0057194Y0170417D01*
X0057354Y0170425D01*
X0057515Y0170429D01*
X0057675Y0170429D01*
X0057836Y0170425D01*
X0057996Y0170417D01*
X0058157Y0170405D01*
X0058317Y0170389D01*
X0058476Y0170369D01*
X0058635Y0170345D01*
X0058793Y0170318D01*
X0058951Y0170286D01*
X0059108Y0170250D01*
X0059263Y0170211D01*
X0059418Y0170168D01*
X0059572Y0170121D01*
X0059724Y0170070D01*
X0059875Y0170016D01*
X0060025Y0169957D01*
X0060173Y0169895D01*
X0060320Y0169830D01*
X0060465Y0169761D01*
X0060608Y0169688D01*
X0060750Y0169611D01*
X0060889Y0169532D01*
X0061027Y0169449D01*
X0061162Y0169362D01*
X0061295Y0169272D01*
X0061426Y0169179D01*
X0061555Y0169083D01*
X0061681Y0168983D01*
X0061805Y0168880D01*
X0061926Y0168775D01*
X0062044Y0168666D01*
X0062160Y0168555D01*
X0062273Y0168440D01*
X0062383Y0168323D01*
X0062490Y0168204D01*
X0062594Y0168081D01*
X0062695Y0167956D01*
X0062793Y0167829D01*
X0062888Y0167699D01*
X0062979Y0167567D01*
X0063068Y0167433D01*
X0063153Y0167296D01*
X0063234Y0167158D01*
X0063312Y0167017D01*
X0063387Y0166875D01*
X0063458Y0166731D01*
X0063525Y0166585D01*
X0063589Y0166437D01*
X0063649Y0166288D01*
X0063705Y0166138D01*
X0063758Y0165986D01*
X0063807Y0165833D01*
X0063852Y0165679D01*
X0063893Y0165524D01*
X0063931Y0165367D01*
X0063964Y0165210D01*
X0063994Y0165052D01*
X0064020Y0164894D01*
X0064041Y0164734D01*
X0064059Y0164575D01*
X0064073Y0164415D01*
X0064083Y0164254D01*
X0064089Y0164094D01*
X0064091Y0163933D01*
X0064089Y0163772D01*
X0064083Y0163612D01*
X0064073Y0163451D01*
X0064059Y0163291D01*
X0064041Y0163132D01*
X0064020Y0162972D01*
X0063994Y0162814D01*
X0063964Y0162656D01*
X0063931Y0162499D01*
X0063893Y0162342D01*
X0063852Y0162187D01*
X0063807Y0162033D01*
X0063758Y0161880D01*
X0063705Y0161728D01*
X0063649Y0161578D01*
X0063589Y0161429D01*
X0063525Y0161281D01*
X0063458Y0161135D01*
X0063387Y0160991D01*
X0063312Y0160849D01*
X0063234Y0160708D01*
X0063153Y0160570D01*
X0063068Y0160433D01*
X0062979Y0160299D01*
X0062888Y0160167D01*
X0062793Y0160037D01*
X0062695Y0159910D01*
X0062594Y0159785D01*
X0062490Y0159662D01*
X0062383Y0159543D01*
X0062273Y0159426D01*
X0062160Y0159311D01*
X0062044Y0159200D01*
X0061926Y0159091D01*
X0061805Y0158986D01*
X0061681Y0158883D01*
X0061555Y0158783D01*
X0061426Y0158687D01*
X0061295Y0158594D01*
X0061162Y0158504D01*
X0061027Y0158417D01*
X0060889Y0158334D01*
X0060750Y0158255D01*
X0060608Y0158178D01*
X0060465Y0158105D01*
X0060320Y0158036D01*
X0060173Y0157971D01*
X0060025Y0157909D01*
X0059875Y0157850D01*
X0059724Y0157796D01*
X0059572Y0157745D01*
X0059418Y0157698D01*
X0059263Y0157655D01*
X0059108Y0157616D01*
X0058951Y0157580D01*
X0058793Y0157548D01*
X0058635Y0157521D01*
X0058476Y0157497D01*
X0058317Y0157477D01*
X0058157Y0157461D01*
X0057996Y0157449D01*
X0057836Y0157441D01*
X0057675Y0157437D01*
X0057515Y0157437D01*
X0057354Y0157441D01*
X0057194Y0157449D01*
X0057033Y0157461D01*
X0056873Y0157477D01*
X0056714Y0157497D01*
X0056555Y0157521D01*
X0056397Y0157548D01*
X0056239Y0157580D01*
X0056082Y0157616D01*
X0055927Y0157655D01*
X0055772Y0157698D01*
X0055618Y0157745D01*
X0055466Y0157796D01*
X0055315Y0157850D01*
X0055165Y0157909D01*
X0055017Y0157971D01*
X0054870Y0158036D01*
X0054725Y0158105D01*
X0054582Y0158178D01*
X0054440Y0158255D01*
X0054301Y0158334D01*
X0054163Y0158417D01*
X0054028Y0158504D01*
X0053895Y0158594D01*
X0053764Y0158687D01*
X0053635Y0158783D01*
X0053509Y0158883D01*
X0053385Y0158986D01*
X0053264Y0159091D01*
X0053146Y0159200D01*
X0053030Y0159311D01*
X0052917Y0159426D01*
X0052807Y0159543D01*
X0052700Y0159662D01*
X0052596Y0159785D01*
X0052495Y0159910D01*
X0052397Y0160037D01*
X0052302Y0160167D01*
X0052211Y0160299D01*
X0052122Y0160433D01*
X0052037Y0160570D01*
X0051956Y0160708D01*
X0051878Y0160849D01*
X0051803Y0160991D01*
X0051732Y0161135D01*
X0051665Y0161281D01*
X0051601Y0161429D01*
X0051541Y0161578D01*
X0051485Y0161728D01*
X0051432Y0161880D01*
X0051383Y0162033D01*
X0051338Y0162187D01*
X0051297Y0162342D01*
X0051259Y0162499D01*
X0051226Y0162656D01*
X0051196Y0162814D01*
X0051170Y0162972D01*
X0051149Y0163132D01*
X0051131Y0163291D01*
X0051117Y0163451D01*
X0051107Y0163612D01*
X0051101Y0163772D01*
X0051099Y0163933D01*
X0042595Y0163933D02*
X0042599Y0164295D01*
X0042613Y0164658D01*
X0042634Y0165020D01*
X0042665Y0165381D01*
X0042704Y0165741D01*
X0042752Y0166100D01*
X0042809Y0166458D01*
X0042874Y0166815D01*
X0042948Y0167170D01*
X0043031Y0167523D01*
X0043122Y0167874D01*
X0043221Y0168222D01*
X0043329Y0168568D01*
X0043445Y0168912D01*
X0043570Y0169252D01*
X0043702Y0169589D01*
X0043843Y0169923D01*
X0043992Y0170254D01*
X0044149Y0170581D01*
X0044313Y0170904D01*
X0044485Y0171223D01*
X0044665Y0171537D01*
X0044853Y0171848D01*
X0045048Y0172153D01*
X0045250Y0172454D01*
X0045460Y0172750D01*
X0045676Y0173040D01*
X0045900Y0173326D01*
X0046130Y0173606D01*
X0046367Y0173880D01*
X0046611Y0174148D01*
X0046861Y0174411D01*
X0047117Y0174667D01*
X0047380Y0174917D01*
X0047648Y0175161D01*
X0047922Y0175398D01*
X0048202Y0175628D01*
X0048488Y0175852D01*
X0048778Y0176068D01*
X0049074Y0176278D01*
X0049375Y0176480D01*
X0049680Y0176675D01*
X0049991Y0176863D01*
X0050305Y0177043D01*
X0050624Y0177215D01*
X0050947Y0177379D01*
X0051274Y0177536D01*
X0051605Y0177685D01*
X0051939Y0177826D01*
X0052276Y0177958D01*
X0052616Y0178083D01*
X0052960Y0178199D01*
X0053306Y0178307D01*
X0053654Y0178406D01*
X0054005Y0178497D01*
X0054358Y0178580D01*
X0054713Y0178654D01*
X0055070Y0178719D01*
X0055428Y0178776D01*
X0055787Y0178824D01*
X0056147Y0178863D01*
X0056508Y0178894D01*
X0056870Y0178915D01*
X0057233Y0178929D01*
X0057595Y0178933D01*
X0182595Y0178933D01*
X0176099Y0163933D02*
X0176101Y0164094D01*
X0176107Y0164254D01*
X0176117Y0164415D01*
X0176131Y0164575D01*
X0176149Y0164734D01*
X0176170Y0164894D01*
X0176196Y0165052D01*
X0176226Y0165210D01*
X0176259Y0165367D01*
X0176297Y0165524D01*
X0176338Y0165679D01*
X0176383Y0165833D01*
X0176432Y0165986D01*
X0176485Y0166138D01*
X0176541Y0166288D01*
X0176601Y0166437D01*
X0176665Y0166585D01*
X0176732Y0166731D01*
X0176803Y0166875D01*
X0176878Y0167017D01*
X0176956Y0167158D01*
X0177037Y0167296D01*
X0177122Y0167433D01*
X0177211Y0167567D01*
X0177302Y0167699D01*
X0177397Y0167829D01*
X0177495Y0167956D01*
X0177596Y0168081D01*
X0177700Y0168204D01*
X0177807Y0168323D01*
X0177917Y0168440D01*
X0178030Y0168555D01*
X0178146Y0168666D01*
X0178264Y0168775D01*
X0178385Y0168880D01*
X0178509Y0168983D01*
X0178635Y0169083D01*
X0178764Y0169179D01*
X0178895Y0169272D01*
X0179028Y0169362D01*
X0179163Y0169449D01*
X0179301Y0169532D01*
X0179440Y0169611D01*
X0179582Y0169688D01*
X0179725Y0169761D01*
X0179870Y0169830D01*
X0180017Y0169895D01*
X0180165Y0169957D01*
X0180315Y0170016D01*
X0180466Y0170070D01*
X0180618Y0170121D01*
X0180772Y0170168D01*
X0180927Y0170211D01*
X0181082Y0170250D01*
X0181239Y0170286D01*
X0181397Y0170318D01*
X0181555Y0170345D01*
X0181714Y0170369D01*
X0181873Y0170389D01*
X0182033Y0170405D01*
X0182194Y0170417D01*
X0182354Y0170425D01*
X0182515Y0170429D01*
X0182675Y0170429D01*
X0182836Y0170425D01*
X0182996Y0170417D01*
X0183157Y0170405D01*
X0183317Y0170389D01*
X0183476Y0170369D01*
X0183635Y0170345D01*
X0183793Y0170318D01*
X0183951Y0170286D01*
X0184108Y0170250D01*
X0184263Y0170211D01*
X0184418Y0170168D01*
X0184572Y0170121D01*
X0184724Y0170070D01*
X0184875Y0170016D01*
X0185025Y0169957D01*
X0185173Y0169895D01*
X0185320Y0169830D01*
X0185465Y0169761D01*
X0185608Y0169688D01*
X0185750Y0169611D01*
X0185889Y0169532D01*
X0186027Y0169449D01*
X0186162Y0169362D01*
X0186295Y0169272D01*
X0186426Y0169179D01*
X0186555Y0169083D01*
X0186681Y0168983D01*
X0186805Y0168880D01*
X0186926Y0168775D01*
X0187044Y0168666D01*
X0187160Y0168555D01*
X0187273Y0168440D01*
X0187383Y0168323D01*
X0187490Y0168204D01*
X0187594Y0168081D01*
X0187695Y0167956D01*
X0187793Y0167829D01*
X0187888Y0167699D01*
X0187979Y0167567D01*
X0188068Y0167433D01*
X0188153Y0167296D01*
X0188234Y0167158D01*
X0188312Y0167017D01*
X0188387Y0166875D01*
X0188458Y0166731D01*
X0188525Y0166585D01*
X0188589Y0166437D01*
X0188649Y0166288D01*
X0188705Y0166138D01*
X0188758Y0165986D01*
X0188807Y0165833D01*
X0188852Y0165679D01*
X0188893Y0165524D01*
X0188931Y0165367D01*
X0188964Y0165210D01*
X0188994Y0165052D01*
X0189020Y0164894D01*
X0189041Y0164734D01*
X0189059Y0164575D01*
X0189073Y0164415D01*
X0189083Y0164254D01*
X0189089Y0164094D01*
X0189091Y0163933D01*
X0189089Y0163772D01*
X0189083Y0163612D01*
X0189073Y0163451D01*
X0189059Y0163291D01*
X0189041Y0163132D01*
X0189020Y0162972D01*
X0188994Y0162814D01*
X0188964Y0162656D01*
X0188931Y0162499D01*
X0188893Y0162342D01*
X0188852Y0162187D01*
X0188807Y0162033D01*
X0188758Y0161880D01*
X0188705Y0161728D01*
X0188649Y0161578D01*
X0188589Y0161429D01*
X0188525Y0161281D01*
X0188458Y0161135D01*
X0188387Y0160991D01*
X0188312Y0160849D01*
X0188234Y0160708D01*
X0188153Y0160570D01*
X0188068Y0160433D01*
X0187979Y0160299D01*
X0187888Y0160167D01*
X0187793Y0160037D01*
X0187695Y0159910D01*
X0187594Y0159785D01*
X0187490Y0159662D01*
X0187383Y0159543D01*
X0187273Y0159426D01*
X0187160Y0159311D01*
X0187044Y0159200D01*
X0186926Y0159091D01*
X0186805Y0158986D01*
X0186681Y0158883D01*
X0186555Y0158783D01*
X0186426Y0158687D01*
X0186295Y0158594D01*
X0186162Y0158504D01*
X0186027Y0158417D01*
X0185889Y0158334D01*
X0185750Y0158255D01*
X0185608Y0158178D01*
X0185465Y0158105D01*
X0185320Y0158036D01*
X0185173Y0157971D01*
X0185025Y0157909D01*
X0184875Y0157850D01*
X0184724Y0157796D01*
X0184572Y0157745D01*
X0184418Y0157698D01*
X0184263Y0157655D01*
X0184108Y0157616D01*
X0183951Y0157580D01*
X0183793Y0157548D01*
X0183635Y0157521D01*
X0183476Y0157497D01*
X0183317Y0157477D01*
X0183157Y0157461D01*
X0182996Y0157449D01*
X0182836Y0157441D01*
X0182675Y0157437D01*
X0182515Y0157437D01*
X0182354Y0157441D01*
X0182194Y0157449D01*
X0182033Y0157461D01*
X0181873Y0157477D01*
X0181714Y0157497D01*
X0181555Y0157521D01*
X0181397Y0157548D01*
X0181239Y0157580D01*
X0181082Y0157616D01*
X0180927Y0157655D01*
X0180772Y0157698D01*
X0180618Y0157745D01*
X0180466Y0157796D01*
X0180315Y0157850D01*
X0180165Y0157909D01*
X0180017Y0157971D01*
X0179870Y0158036D01*
X0179725Y0158105D01*
X0179582Y0158178D01*
X0179440Y0158255D01*
X0179301Y0158334D01*
X0179163Y0158417D01*
X0179028Y0158504D01*
X0178895Y0158594D01*
X0178764Y0158687D01*
X0178635Y0158783D01*
X0178509Y0158883D01*
X0178385Y0158986D01*
X0178264Y0159091D01*
X0178146Y0159200D01*
X0178030Y0159311D01*
X0177917Y0159426D01*
X0177807Y0159543D01*
X0177700Y0159662D01*
X0177596Y0159785D01*
X0177495Y0159910D01*
X0177397Y0160037D01*
X0177302Y0160167D01*
X0177211Y0160299D01*
X0177122Y0160433D01*
X0177037Y0160570D01*
X0176956Y0160708D01*
X0176878Y0160849D01*
X0176803Y0160991D01*
X0176732Y0161135D01*
X0176665Y0161281D01*
X0176601Y0161429D01*
X0176541Y0161578D01*
X0176485Y0161728D01*
X0176432Y0161880D01*
X0176383Y0162033D01*
X0176338Y0162187D01*
X0176297Y0162342D01*
X0176259Y0162499D01*
X0176226Y0162656D01*
X0176196Y0162814D01*
X0176170Y0162972D01*
X0176149Y0163132D01*
X0176131Y0163291D01*
X0176117Y0163451D01*
X0176107Y0163612D01*
X0176101Y0163772D01*
X0176099Y0163933D01*
X0182595Y0178933D02*
X0182957Y0178929D01*
X0183320Y0178915D01*
X0183682Y0178894D01*
X0184043Y0178863D01*
X0184403Y0178824D01*
X0184762Y0178776D01*
X0185120Y0178719D01*
X0185477Y0178654D01*
X0185832Y0178580D01*
X0186185Y0178497D01*
X0186536Y0178406D01*
X0186884Y0178307D01*
X0187230Y0178199D01*
X0187574Y0178083D01*
X0187914Y0177958D01*
X0188251Y0177826D01*
X0188585Y0177685D01*
X0188916Y0177536D01*
X0189243Y0177379D01*
X0189566Y0177215D01*
X0189885Y0177043D01*
X0190199Y0176863D01*
X0190510Y0176675D01*
X0190815Y0176480D01*
X0191116Y0176278D01*
X0191412Y0176068D01*
X0191702Y0175852D01*
X0191988Y0175628D01*
X0192268Y0175398D01*
X0192542Y0175161D01*
X0192810Y0174917D01*
X0193073Y0174667D01*
X0193329Y0174411D01*
X0193579Y0174148D01*
X0193823Y0173880D01*
X0194060Y0173606D01*
X0194290Y0173326D01*
X0194514Y0173040D01*
X0194730Y0172750D01*
X0194940Y0172454D01*
X0195142Y0172153D01*
X0195337Y0171848D01*
X0195525Y0171537D01*
X0195705Y0171223D01*
X0195877Y0170904D01*
X0196041Y0170581D01*
X0196198Y0170254D01*
X0196347Y0169923D01*
X0196488Y0169589D01*
X0196620Y0169252D01*
X0196745Y0168912D01*
X0196861Y0168568D01*
X0196969Y0168222D01*
X0197068Y0167874D01*
X0197159Y0167523D01*
X0197242Y0167170D01*
X0197316Y0166815D01*
X0197381Y0166458D01*
X0197438Y0166100D01*
X0197486Y0165741D01*
X0197525Y0165381D01*
X0197556Y0165020D01*
X0197577Y0164658D01*
X0197591Y0164295D01*
X0197595Y0163933D01*
X0197595Y0053933D01*
X0176099Y0053933D02*
X0176101Y0054094D01*
X0176107Y0054254D01*
X0176117Y0054415D01*
X0176131Y0054575D01*
X0176149Y0054734D01*
X0176170Y0054894D01*
X0176196Y0055052D01*
X0176226Y0055210D01*
X0176259Y0055367D01*
X0176297Y0055524D01*
X0176338Y0055679D01*
X0176383Y0055833D01*
X0176432Y0055986D01*
X0176485Y0056138D01*
X0176541Y0056288D01*
X0176601Y0056437D01*
X0176665Y0056585D01*
X0176732Y0056731D01*
X0176803Y0056875D01*
X0176878Y0057017D01*
X0176956Y0057158D01*
X0177037Y0057296D01*
X0177122Y0057433D01*
X0177211Y0057567D01*
X0177302Y0057699D01*
X0177397Y0057829D01*
X0177495Y0057956D01*
X0177596Y0058081D01*
X0177700Y0058204D01*
X0177807Y0058323D01*
X0177917Y0058440D01*
X0178030Y0058555D01*
X0178146Y0058666D01*
X0178264Y0058775D01*
X0178385Y0058880D01*
X0178509Y0058983D01*
X0178635Y0059083D01*
X0178764Y0059179D01*
X0178895Y0059272D01*
X0179028Y0059362D01*
X0179163Y0059449D01*
X0179301Y0059532D01*
X0179440Y0059611D01*
X0179582Y0059688D01*
X0179725Y0059761D01*
X0179870Y0059830D01*
X0180017Y0059895D01*
X0180165Y0059957D01*
X0180315Y0060016D01*
X0180466Y0060070D01*
X0180618Y0060121D01*
X0180772Y0060168D01*
X0180927Y0060211D01*
X0181082Y0060250D01*
X0181239Y0060286D01*
X0181397Y0060318D01*
X0181555Y0060345D01*
X0181714Y0060369D01*
X0181873Y0060389D01*
X0182033Y0060405D01*
X0182194Y0060417D01*
X0182354Y0060425D01*
X0182515Y0060429D01*
X0182675Y0060429D01*
X0182836Y0060425D01*
X0182996Y0060417D01*
X0183157Y0060405D01*
X0183317Y0060389D01*
X0183476Y0060369D01*
X0183635Y0060345D01*
X0183793Y0060318D01*
X0183951Y0060286D01*
X0184108Y0060250D01*
X0184263Y0060211D01*
X0184418Y0060168D01*
X0184572Y0060121D01*
X0184724Y0060070D01*
X0184875Y0060016D01*
X0185025Y0059957D01*
X0185173Y0059895D01*
X0185320Y0059830D01*
X0185465Y0059761D01*
X0185608Y0059688D01*
X0185750Y0059611D01*
X0185889Y0059532D01*
X0186027Y0059449D01*
X0186162Y0059362D01*
X0186295Y0059272D01*
X0186426Y0059179D01*
X0186555Y0059083D01*
X0186681Y0058983D01*
X0186805Y0058880D01*
X0186926Y0058775D01*
X0187044Y0058666D01*
X0187160Y0058555D01*
X0187273Y0058440D01*
X0187383Y0058323D01*
X0187490Y0058204D01*
X0187594Y0058081D01*
X0187695Y0057956D01*
X0187793Y0057829D01*
X0187888Y0057699D01*
X0187979Y0057567D01*
X0188068Y0057433D01*
X0188153Y0057296D01*
X0188234Y0057158D01*
X0188312Y0057017D01*
X0188387Y0056875D01*
X0188458Y0056731D01*
X0188525Y0056585D01*
X0188589Y0056437D01*
X0188649Y0056288D01*
X0188705Y0056138D01*
X0188758Y0055986D01*
X0188807Y0055833D01*
X0188852Y0055679D01*
X0188893Y0055524D01*
X0188931Y0055367D01*
X0188964Y0055210D01*
X0188994Y0055052D01*
X0189020Y0054894D01*
X0189041Y0054734D01*
X0189059Y0054575D01*
X0189073Y0054415D01*
X0189083Y0054254D01*
X0189089Y0054094D01*
X0189091Y0053933D01*
X0189089Y0053772D01*
X0189083Y0053612D01*
X0189073Y0053451D01*
X0189059Y0053291D01*
X0189041Y0053132D01*
X0189020Y0052972D01*
X0188994Y0052814D01*
X0188964Y0052656D01*
X0188931Y0052499D01*
X0188893Y0052342D01*
X0188852Y0052187D01*
X0188807Y0052033D01*
X0188758Y0051880D01*
X0188705Y0051728D01*
X0188649Y0051578D01*
X0188589Y0051429D01*
X0188525Y0051281D01*
X0188458Y0051135D01*
X0188387Y0050991D01*
X0188312Y0050849D01*
X0188234Y0050708D01*
X0188153Y0050570D01*
X0188068Y0050433D01*
X0187979Y0050299D01*
X0187888Y0050167D01*
X0187793Y0050037D01*
X0187695Y0049910D01*
X0187594Y0049785D01*
X0187490Y0049662D01*
X0187383Y0049543D01*
X0187273Y0049426D01*
X0187160Y0049311D01*
X0187044Y0049200D01*
X0186926Y0049091D01*
X0186805Y0048986D01*
X0186681Y0048883D01*
X0186555Y0048783D01*
X0186426Y0048687D01*
X0186295Y0048594D01*
X0186162Y0048504D01*
X0186027Y0048417D01*
X0185889Y0048334D01*
X0185750Y0048255D01*
X0185608Y0048178D01*
X0185465Y0048105D01*
X0185320Y0048036D01*
X0185173Y0047971D01*
X0185025Y0047909D01*
X0184875Y0047850D01*
X0184724Y0047796D01*
X0184572Y0047745D01*
X0184418Y0047698D01*
X0184263Y0047655D01*
X0184108Y0047616D01*
X0183951Y0047580D01*
X0183793Y0047548D01*
X0183635Y0047521D01*
X0183476Y0047497D01*
X0183317Y0047477D01*
X0183157Y0047461D01*
X0182996Y0047449D01*
X0182836Y0047441D01*
X0182675Y0047437D01*
X0182515Y0047437D01*
X0182354Y0047441D01*
X0182194Y0047449D01*
X0182033Y0047461D01*
X0181873Y0047477D01*
X0181714Y0047497D01*
X0181555Y0047521D01*
X0181397Y0047548D01*
X0181239Y0047580D01*
X0181082Y0047616D01*
X0180927Y0047655D01*
X0180772Y0047698D01*
X0180618Y0047745D01*
X0180466Y0047796D01*
X0180315Y0047850D01*
X0180165Y0047909D01*
X0180017Y0047971D01*
X0179870Y0048036D01*
X0179725Y0048105D01*
X0179582Y0048178D01*
X0179440Y0048255D01*
X0179301Y0048334D01*
X0179163Y0048417D01*
X0179028Y0048504D01*
X0178895Y0048594D01*
X0178764Y0048687D01*
X0178635Y0048783D01*
X0178509Y0048883D01*
X0178385Y0048986D01*
X0178264Y0049091D01*
X0178146Y0049200D01*
X0178030Y0049311D01*
X0177917Y0049426D01*
X0177807Y0049543D01*
X0177700Y0049662D01*
X0177596Y0049785D01*
X0177495Y0049910D01*
X0177397Y0050037D01*
X0177302Y0050167D01*
X0177211Y0050299D01*
X0177122Y0050433D01*
X0177037Y0050570D01*
X0176956Y0050708D01*
X0176878Y0050849D01*
X0176803Y0050991D01*
X0176732Y0051135D01*
X0176665Y0051281D01*
X0176601Y0051429D01*
X0176541Y0051578D01*
X0176485Y0051728D01*
X0176432Y0051880D01*
X0176383Y0052033D01*
X0176338Y0052187D01*
X0176297Y0052342D01*
X0176259Y0052499D01*
X0176226Y0052656D01*
X0176196Y0052814D01*
X0176170Y0052972D01*
X0176149Y0053132D01*
X0176131Y0053291D01*
X0176117Y0053451D01*
X0176107Y0053612D01*
X0176101Y0053772D01*
X0176099Y0053933D01*
X0182595Y0038933D02*
X0182957Y0038937D01*
X0183320Y0038951D01*
X0183682Y0038972D01*
X0184043Y0039003D01*
X0184403Y0039042D01*
X0184762Y0039090D01*
X0185120Y0039147D01*
X0185477Y0039212D01*
X0185832Y0039286D01*
X0186185Y0039369D01*
X0186536Y0039460D01*
X0186884Y0039559D01*
X0187230Y0039667D01*
X0187574Y0039783D01*
X0187914Y0039908D01*
X0188251Y0040040D01*
X0188585Y0040181D01*
X0188916Y0040330D01*
X0189243Y0040487D01*
X0189566Y0040651D01*
X0189885Y0040823D01*
X0190199Y0041003D01*
X0190510Y0041191D01*
X0190815Y0041386D01*
X0191116Y0041588D01*
X0191412Y0041798D01*
X0191702Y0042014D01*
X0191988Y0042238D01*
X0192268Y0042468D01*
X0192542Y0042705D01*
X0192810Y0042949D01*
X0193073Y0043199D01*
X0193329Y0043455D01*
X0193579Y0043718D01*
X0193823Y0043986D01*
X0194060Y0044260D01*
X0194290Y0044540D01*
X0194514Y0044826D01*
X0194730Y0045116D01*
X0194940Y0045412D01*
X0195142Y0045713D01*
X0195337Y0046018D01*
X0195525Y0046329D01*
X0195705Y0046643D01*
X0195877Y0046962D01*
X0196041Y0047285D01*
X0196198Y0047612D01*
X0196347Y0047943D01*
X0196488Y0048277D01*
X0196620Y0048614D01*
X0196745Y0048954D01*
X0196861Y0049298D01*
X0196969Y0049644D01*
X0197068Y0049992D01*
X0197159Y0050343D01*
X0197242Y0050696D01*
X0197316Y0051051D01*
X0197381Y0051408D01*
X0197438Y0051766D01*
X0197486Y0052125D01*
X0197525Y0052485D01*
X0197556Y0052846D01*
X0197577Y0053208D01*
X0197591Y0053571D01*
X0197595Y0053933D01*
X0182595Y0038933D02*
X0057595Y0038933D01*
X0051099Y0053933D02*
X0051101Y0054094D01*
X0051107Y0054254D01*
X0051117Y0054415D01*
X0051131Y0054575D01*
X0051149Y0054734D01*
X0051170Y0054894D01*
X0051196Y0055052D01*
X0051226Y0055210D01*
X0051259Y0055367D01*
X0051297Y0055524D01*
X0051338Y0055679D01*
X0051383Y0055833D01*
X0051432Y0055986D01*
X0051485Y0056138D01*
X0051541Y0056288D01*
X0051601Y0056437D01*
X0051665Y0056585D01*
X0051732Y0056731D01*
X0051803Y0056875D01*
X0051878Y0057017D01*
X0051956Y0057158D01*
X0052037Y0057296D01*
X0052122Y0057433D01*
X0052211Y0057567D01*
X0052302Y0057699D01*
X0052397Y0057829D01*
X0052495Y0057956D01*
X0052596Y0058081D01*
X0052700Y0058204D01*
X0052807Y0058323D01*
X0052917Y0058440D01*
X0053030Y0058555D01*
X0053146Y0058666D01*
X0053264Y0058775D01*
X0053385Y0058880D01*
X0053509Y0058983D01*
X0053635Y0059083D01*
X0053764Y0059179D01*
X0053895Y0059272D01*
X0054028Y0059362D01*
X0054163Y0059449D01*
X0054301Y0059532D01*
X0054440Y0059611D01*
X0054582Y0059688D01*
X0054725Y0059761D01*
X0054870Y0059830D01*
X0055017Y0059895D01*
X0055165Y0059957D01*
X0055315Y0060016D01*
X0055466Y0060070D01*
X0055618Y0060121D01*
X0055772Y0060168D01*
X0055927Y0060211D01*
X0056082Y0060250D01*
X0056239Y0060286D01*
X0056397Y0060318D01*
X0056555Y0060345D01*
X0056714Y0060369D01*
X0056873Y0060389D01*
X0057033Y0060405D01*
X0057194Y0060417D01*
X0057354Y0060425D01*
X0057515Y0060429D01*
X0057675Y0060429D01*
X0057836Y0060425D01*
X0057996Y0060417D01*
X0058157Y0060405D01*
X0058317Y0060389D01*
X0058476Y0060369D01*
X0058635Y0060345D01*
X0058793Y0060318D01*
X0058951Y0060286D01*
X0059108Y0060250D01*
X0059263Y0060211D01*
X0059418Y0060168D01*
X0059572Y0060121D01*
X0059724Y0060070D01*
X0059875Y0060016D01*
X0060025Y0059957D01*
X0060173Y0059895D01*
X0060320Y0059830D01*
X0060465Y0059761D01*
X0060608Y0059688D01*
X0060750Y0059611D01*
X0060889Y0059532D01*
X0061027Y0059449D01*
X0061162Y0059362D01*
X0061295Y0059272D01*
X0061426Y0059179D01*
X0061555Y0059083D01*
X0061681Y0058983D01*
X0061805Y0058880D01*
X0061926Y0058775D01*
X0062044Y0058666D01*
X0062160Y0058555D01*
X0062273Y0058440D01*
X0062383Y0058323D01*
X0062490Y0058204D01*
X0062594Y0058081D01*
X0062695Y0057956D01*
X0062793Y0057829D01*
X0062888Y0057699D01*
X0062979Y0057567D01*
X0063068Y0057433D01*
X0063153Y0057296D01*
X0063234Y0057158D01*
X0063312Y0057017D01*
X0063387Y0056875D01*
X0063458Y0056731D01*
X0063525Y0056585D01*
X0063589Y0056437D01*
X0063649Y0056288D01*
X0063705Y0056138D01*
X0063758Y0055986D01*
X0063807Y0055833D01*
X0063852Y0055679D01*
X0063893Y0055524D01*
X0063931Y0055367D01*
X0063964Y0055210D01*
X0063994Y0055052D01*
X0064020Y0054894D01*
X0064041Y0054734D01*
X0064059Y0054575D01*
X0064073Y0054415D01*
X0064083Y0054254D01*
X0064089Y0054094D01*
X0064091Y0053933D01*
X0064089Y0053772D01*
X0064083Y0053612D01*
X0064073Y0053451D01*
X0064059Y0053291D01*
X0064041Y0053132D01*
X0064020Y0052972D01*
X0063994Y0052814D01*
X0063964Y0052656D01*
X0063931Y0052499D01*
X0063893Y0052342D01*
X0063852Y0052187D01*
X0063807Y0052033D01*
X0063758Y0051880D01*
X0063705Y0051728D01*
X0063649Y0051578D01*
X0063589Y0051429D01*
X0063525Y0051281D01*
X0063458Y0051135D01*
X0063387Y0050991D01*
X0063312Y0050849D01*
X0063234Y0050708D01*
X0063153Y0050570D01*
X0063068Y0050433D01*
X0062979Y0050299D01*
X0062888Y0050167D01*
X0062793Y0050037D01*
X0062695Y0049910D01*
X0062594Y0049785D01*
X0062490Y0049662D01*
X0062383Y0049543D01*
X0062273Y0049426D01*
X0062160Y0049311D01*
X0062044Y0049200D01*
X0061926Y0049091D01*
X0061805Y0048986D01*
X0061681Y0048883D01*
X0061555Y0048783D01*
X0061426Y0048687D01*
X0061295Y0048594D01*
X0061162Y0048504D01*
X0061027Y0048417D01*
X0060889Y0048334D01*
X0060750Y0048255D01*
X0060608Y0048178D01*
X0060465Y0048105D01*
X0060320Y0048036D01*
X0060173Y0047971D01*
X0060025Y0047909D01*
X0059875Y0047850D01*
X0059724Y0047796D01*
X0059572Y0047745D01*
X0059418Y0047698D01*
X0059263Y0047655D01*
X0059108Y0047616D01*
X0058951Y0047580D01*
X0058793Y0047548D01*
X0058635Y0047521D01*
X0058476Y0047497D01*
X0058317Y0047477D01*
X0058157Y0047461D01*
X0057996Y0047449D01*
X0057836Y0047441D01*
X0057675Y0047437D01*
X0057515Y0047437D01*
X0057354Y0047441D01*
X0057194Y0047449D01*
X0057033Y0047461D01*
X0056873Y0047477D01*
X0056714Y0047497D01*
X0056555Y0047521D01*
X0056397Y0047548D01*
X0056239Y0047580D01*
X0056082Y0047616D01*
X0055927Y0047655D01*
X0055772Y0047698D01*
X0055618Y0047745D01*
X0055466Y0047796D01*
X0055315Y0047850D01*
X0055165Y0047909D01*
X0055017Y0047971D01*
X0054870Y0048036D01*
X0054725Y0048105D01*
X0054582Y0048178D01*
X0054440Y0048255D01*
X0054301Y0048334D01*
X0054163Y0048417D01*
X0054028Y0048504D01*
X0053895Y0048594D01*
X0053764Y0048687D01*
X0053635Y0048783D01*
X0053509Y0048883D01*
X0053385Y0048986D01*
X0053264Y0049091D01*
X0053146Y0049200D01*
X0053030Y0049311D01*
X0052917Y0049426D01*
X0052807Y0049543D01*
X0052700Y0049662D01*
X0052596Y0049785D01*
X0052495Y0049910D01*
X0052397Y0050037D01*
X0052302Y0050167D01*
X0052211Y0050299D01*
X0052122Y0050433D01*
X0052037Y0050570D01*
X0051956Y0050708D01*
X0051878Y0050849D01*
X0051803Y0050991D01*
X0051732Y0051135D01*
X0051665Y0051281D01*
X0051601Y0051429D01*
X0051541Y0051578D01*
X0051485Y0051728D01*
X0051432Y0051880D01*
X0051383Y0052033D01*
X0051338Y0052187D01*
X0051297Y0052342D01*
X0051259Y0052499D01*
X0051226Y0052656D01*
X0051196Y0052814D01*
X0051170Y0052972D01*
X0051149Y0053132D01*
X0051131Y0053291D01*
X0051117Y0053451D01*
X0051107Y0053612D01*
X0051101Y0053772D01*
X0051099Y0053933D01*
X0042595Y0053933D02*
X0042599Y0053571D01*
X0042613Y0053208D01*
X0042634Y0052846D01*
X0042665Y0052485D01*
X0042704Y0052125D01*
X0042752Y0051766D01*
X0042809Y0051408D01*
X0042874Y0051051D01*
X0042948Y0050696D01*
X0043031Y0050343D01*
X0043122Y0049992D01*
X0043221Y0049644D01*
X0043329Y0049298D01*
X0043445Y0048954D01*
X0043570Y0048614D01*
X0043702Y0048277D01*
X0043843Y0047943D01*
X0043992Y0047612D01*
X0044149Y0047285D01*
X0044313Y0046962D01*
X0044485Y0046643D01*
X0044665Y0046329D01*
X0044853Y0046018D01*
X0045048Y0045713D01*
X0045250Y0045412D01*
X0045460Y0045116D01*
X0045676Y0044826D01*
X0045900Y0044540D01*
X0046130Y0044260D01*
X0046367Y0043986D01*
X0046611Y0043718D01*
X0046861Y0043455D01*
X0047117Y0043199D01*
X0047380Y0042949D01*
X0047648Y0042705D01*
X0047922Y0042468D01*
X0048202Y0042238D01*
X0048488Y0042014D01*
X0048778Y0041798D01*
X0049074Y0041588D01*
X0049375Y0041386D01*
X0049680Y0041191D01*
X0049991Y0041003D01*
X0050305Y0040823D01*
X0050624Y0040651D01*
X0050947Y0040487D01*
X0051274Y0040330D01*
X0051605Y0040181D01*
X0051939Y0040040D01*
X0052276Y0039908D01*
X0052616Y0039783D01*
X0052960Y0039667D01*
X0053306Y0039559D01*
X0053654Y0039460D01*
X0054005Y0039369D01*
X0054358Y0039286D01*
X0054713Y0039212D01*
X0055070Y0039147D01*
X0055428Y0039090D01*
X0055787Y0039042D01*
X0056147Y0039003D01*
X0056508Y0038972D01*
X0056870Y0038951D01*
X0057233Y0038937D01*
X0057595Y0038933D01*
X0058595Y0108933D02*
X0058597Y0109059D01*
X0058603Y0109185D01*
X0058613Y0109311D01*
X0058627Y0109437D01*
X0058645Y0109562D01*
X0058667Y0109686D01*
X0058692Y0109810D01*
X0058722Y0109933D01*
X0058755Y0110054D01*
X0058793Y0110175D01*
X0058834Y0110294D01*
X0058879Y0110413D01*
X0058927Y0110529D01*
X0058979Y0110644D01*
X0059035Y0110757D01*
X0059095Y0110869D01*
X0059158Y0110978D01*
X0059224Y0111086D01*
X0059293Y0111191D01*
X0059366Y0111294D01*
X0059443Y0111395D01*
X0059522Y0111493D01*
X0059604Y0111589D01*
X0059690Y0111682D01*
X0059778Y0111773D01*
X0059869Y0111860D01*
X0059963Y0111945D01*
X0060059Y0112026D01*
X0060158Y0112105D01*
X0060259Y0112180D01*
X0060363Y0112252D01*
X0060469Y0112321D01*
X0060577Y0112387D01*
X0060687Y0112449D01*
X0060799Y0112507D01*
X0060912Y0112562D01*
X0061028Y0112613D01*
X0061145Y0112661D01*
X0061263Y0112705D01*
X0061383Y0112745D01*
X0061504Y0112781D01*
X0061626Y0112814D01*
X0061749Y0112843D01*
X0061873Y0112867D01*
X0061997Y0112888D01*
X0062122Y0112905D01*
X0062248Y0112918D01*
X0062374Y0112927D01*
X0062500Y0112932D01*
X0062627Y0112933D01*
X0062753Y0112930D01*
X0062879Y0112923D01*
X0063005Y0112912D01*
X0063130Y0112897D01*
X0063255Y0112878D01*
X0063379Y0112855D01*
X0063503Y0112829D01*
X0063625Y0112798D01*
X0063747Y0112764D01*
X0063867Y0112725D01*
X0063986Y0112683D01*
X0064104Y0112638D01*
X0064220Y0112588D01*
X0064335Y0112535D01*
X0064447Y0112478D01*
X0064558Y0112418D01*
X0064667Y0112354D01*
X0064774Y0112287D01*
X0064879Y0112217D01*
X0064982Y0112143D01*
X0065082Y0112066D01*
X0065180Y0111986D01*
X0065275Y0111903D01*
X0065367Y0111817D01*
X0065457Y0111728D01*
X0065544Y0111636D01*
X0065627Y0111542D01*
X0065708Y0111445D01*
X0065786Y0111345D01*
X0065861Y0111243D01*
X0065932Y0111139D01*
X0066000Y0111032D01*
X0066064Y0110924D01*
X0066125Y0110813D01*
X0066183Y0110701D01*
X0066237Y0110587D01*
X0066287Y0110471D01*
X0066334Y0110354D01*
X0066377Y0110235D01*
X0066416Y0110115D01*
X0066452Y0109994D01*
X0066483Y0109871D01*
X0066511Y0109748D01*
X0066535Y0109624D01*
X0066555Y0109499D01*
X0066571Y0109374D01*
X0066583Y0109248D01*
X0066591Y0109122D01*
X0066595Y0108996D01*
X0066595Y0108870D01*
X0066591Y0108744D01*
X0066583Y0108618D01*
X0066571Y0108492D01*
X0066555Y0108367D01*
X0066535Y0108242D01*
X0066511Y0108118D01*
X0066483Y0107995D01*
X0066452Y0107872D01*
X0066416Y0107751D01*
X0066377Y0107631D01*
X0066334Y0107512D01*
X0066287Y0107395D01*
X0066237Y0107279D01*
X0066183Y0107165D01*
X0066125Y0107053D01*
X0066064Y0106942D01*
X0066000Y0106834D01*
X0065932Y0106727D01*
X0065861Y0106623D01*
X0065786Y0106521D01*
X0065708Y0106421D01*
X0065627Y0106324D01*
X0065544Y0106230D01*
X0065457Y0106138D01*
X0065367Y0106049D01*
X0065275Y0105963D01*
X0065180Y0105880D01*
X0065082Y0105800D01*
X0064982Y0105723D01*
X0064879Y0105649D01*
X0064774Y0105579D01*
X0064667Y0105512D01*
X0064558Y0105448D01*
X0064447Y0105388D01*
X0064335Y0105331D01*
X0064220Y0105278D01*
X0064104Y0105228D01*
X0063986Y0105183D01*
X0063867Y0105141D01*
X0063747Y0105102D01*
X0063625Y0105068D01*
X0063503Y0105037D01*
X0063379Y0105011D01*
X0063255Y0104988D01*
X0063130Y0104969D01*
X0063005Y0104954D01*
X0062879Y0104943D01*
X0062753Y0104936D01*
X0062627Y0104933D01*
X0062500Y0104934D01*
X0062374Y0104939D01*
X0062248Y0104948D01*
X0062122Y0104961D01*
X0061997Y0104978D01*
X0061873Y0104999D01*
X0061749Y0105023D01*
X0061626Y0105052D01*
X0061504Y0105085D01*
X0061383Y0105121D01*
X0061263Y0105161D01*
X0061145Y0105205D01*
X0061028Y0105253D01*
X0060912Y0105304D01*
X0060799Y0105359D01*
X0060687Y0105417D01*
X0060577Y0105479D01*
X0060469Y0105545D01*
X0060363Y0105614D01*
X0060259Y0105686D01*
X0060158Y0105761D01*
X0060059Y0105840D01*
X0059963Y0105921D01*
X0059869Y0106006D01*
X0059778Y0106093D01*
X0059690Y0106184D01*
X0059604Y0106277D01*
X0059522Y0106373D01*
X0059443Y0106471D01*
X0059366Y0106572D01*
X0059293Y0106675D01*
X0059224Y0106780D01*
X0059158Y0106888D01*
X0059095Y0106997D01*
X0059035Y0107109D01*
X0058979Y0107222D01*
X0058927Y0107337D01*
X0058879Y0107453D01*
X0058834Y0107572D01*
X0058793Y0107691D01*
X0058755Y0107812D01*
X0058722Y0107933D01*
X0058692Y0108056D01*
X0058667Y0108180D01*
X0058645Y0108304D01*
X0058627Y0108429D01*
X0058613Y0108555D01*
X0058603Y0108681D01*
X0058597Y0108807D01*
X0058595Y0108933D01*
X0076595Y0108933D02*
X0076597Y0109059D01*
X0076603Y0109185D01*
X0076613Y0109311D01*
X0076627Y0109437D01*
X0076645Y0109562D01*
X0076667Y0109686D01*
X0076692Y0109810D01*
X0076722Y0109933D01*
X0076755Y0110054D01*
X0076793Y0110175D01*
X0076834Y0110294D01*
X0076879Y0110413D01*
X0076927Y0110529D01*
X0076979Y0110644D01*
X0077035Y0110757D01*
X0077095Y0110869D01*
X0077158Y0110978D01*
X0077224Y0111086D01*
X0077293Y0111191D01*
X0077366Y0111294D01*
X0077443Y0111395D01*
X0077522Y0111493D01*
X0077604Y0111589D01*
X0077690Y0111682D01*
X0077778Y0111773D01*
X0077869Y0111860D01*
X0077963Y0111945D01*
X0078059Y0112026D01*
X0078158Y0112105D01*
X0078259Y0112180D01*
X0078363Y0112252D01*
X0078469Y0112321D01*
X0078577Y0112387D01*
X0078687Y0112449D01*
X0078799Y0112507D01*
X0078912Y0112562D01*
X0079028Y0112613D01*
X0079145Y0112661D01*
X0079263Y0112705D01*
X0079383Y0112745D01*
X0079504Y0112781D01*
X0079626Y0112814D01*
X0079749Y0112843D01*
X0079873Y0112867D01*
X0079997Y0112888D01*
X0080122Y0112905D01*
X0080248Y0112918D01*
X0080374Y0112927D01*
X0080500Y0112932D01*
X0080627Y0112933D01*
X0080753Y0112930D01*
X0080879Y0112923D01*
X0081005Y0112912D01*
X0081130Y0112897D01*
X0081255Y0112878D01*
X0081379Y0112855D01*
X0081503Y0112829D01*
X0081625Y0112798D01*
X0081747Y0112764D01*
X0081867Y0112725D01*
X0081986Y0112683D01*
X0082104Y0112638D01*
X0082220Y0112588D01*
X0082335Y0112535D01*
X0082447Y0112478D01*
X0082558Y0112418D01*
X0082667Y0112354D01*
X0082774Y0112287D01*
X0082879Y0112217D01*
X0082982Y0112143D01*
X0083082Y0112066D01*
X0083180Y0111986D01*
X0083275Y0111903D01*
X0083367Y0111817D01*
X0083457Y0111728D01*
X0083544Y0111636D01*
X0083627Y0111542D01*
X0083708Y0111445D01*
X0083786Y0111345D01*
X0083861Y0111243D01*
X0083932Y0111139D01*
X0084000Y0111032D01*
X0084064Y0110924D01*
X0084125Y0110813D01*
X0084183Y0110701D01*
X0084237Y0110587D01*
X0084287Y0110471D01*
X0084334Y0110354D01*
X0084377Y0110235D01*
X0084416Y0110115D01*
X0084452Y0109994D01*
X0084483Y0109871D01*
X0084511Y0109748D01*
X0084535Y0109624D01*
X0084555Y0109499D01*
X0084571Y0109374D01*
X0084583Y0109248D01*
X0084591Y0109122D01*
X0084595Y0108996D01*
X0084595Y0108870D01*
X0084591Y0108744D01*
X0084583Y0108618D01*
X0084571Y0108492D01*
X0084555Y0108367D01*
X0084535Y0108242D01*
X0084511Y0108118D01*
X0084483Y0107995D01*
X0084452Y0107872D01*
X0084416Y0107751D01*
X0084377Y0107631D01*
X0084334Y0107512D01*
X0084287Y0107395D01*
X0084237Y0107279D01*
X0084183Y0107165D01*
X0084125Y0107053D01*
X0084064Y0106942D01*
X0084000Y0106834D01*
X0083932Y0106727D01*
X0083861Y0106623D01*
X0083786Y0106521D01*
X0083708Y0106421D01*
X0083627Y0106324D01*
X0083544Y0106230D01*
X0083457Y0106138D01*
X0083367Y0106049D01*
X0083275Y0105963D01*
X0083180Y0105880D01*
X0083082Y0105800D01*
X0082982Y0105723D01*
X0082879Y0105649D01*
X0082774Y0105579D01*
X0082667Y0105512D01*
X0082558Y0105448D01*
X0082447Y0105388D01*
X0082335Y0105331D01*
X0082220Y0105278D01*
X0082104Y0105228D01*
X0081986Y0105183D01*
X0081867Y0105141D01*
X0081747Y0105102D01*
X0081625Y0105068D01*
X0081503Y0105037D01*
X0081379Y0105011D01*
X0081255Y0104988D01*
X0081130Y0104969D01*
X0081005Y0104954D01*
X0080879Y0104943D01*
X0080753Y0104936D01*
X0080627Y0104933D01*
X0080500Y0104934D01*
X0080374Y0104939D01*
X0080248Y0104948D01*
X0080122Y0104961D01*
X0079997Y0104978D01*
X0079873Y0104999D01*
X0079749Y0105023D01*
X0079626Y0105052D01*
X0079504Y0105085D01*
X0079383Y0105121D01*
X0079263Y0105161D01*
X0079145Y0105205D01*
X0079028Y0105253D01*
X0078912Y0105304D01*
X0078799Y0105359D01*
X0078687Y0105417D01*
X0078577Y0105479D01*
X0078469Y0105545D01*
X0078363Y0105614D01*
X0078259Y0105686D01*
X0078158Y0105761D01*
X0078059Y0105840D01*
X0077963Y0105921D01*
X0077869Y0106006D01*
X0077778Y0106093D01*
X0077690Y0106184D01*
X0077604Y0106277D01*
X0077522Y0106373D01*
X0077443Y0106471D01*
X0077366Y0106572D01*
X0077293Y0106675D01*
X0077224Y0106780D01*
X0077158Y0106888D01*
X0077095Y0106997D01*
X0077035Y0107109D01*
X0076979Y0107222D01*
X0076927Y0107337D01*
X0076879Y0107453D01*
X0076834Y0107572D01*
X0076793Y0107691D01*
X0076755Y0107812D01*
X0076722Y0107933D01*
X0076692Y0108056D01*
X0076667Y0108180D01*
X0076645Y0108304D01*
X0076627Y0108429D01*
X0076613Y0108555D01*
X0076603Y0108681D01*
X0076597Y0108807D01*
X0076595Y0108933D01*
D11*
X0082595Y0145933D02*
X0082595Y0151933D01*
X0092595Y0151933D02*
X0092595Y0145933D01*
X0102595Y0145933D02*
X0102595Y0151933D01*
X0112595Y0151933D02*
X0112595Y0145933D01*
X0112595Y0066933D02*
X0112595Y0060933D01*
X0102595Y0060933D02*
X0102595Y0066933D01*
X0092595Y0066933D02*
X0092595Y0060933D01*
X0082595Y0060933D02*
X0082595Y0066933D01*
D12*
X0182595Y0103933D03*
X0182595Y0113933D03*
D13*
X0086611Y0131374D03*
X0062595Y0131374D03*
X0062595Y0086492D03*
X0086611Y0086492D03*
D14*
X0122595Y0108933D03*
X0132595Y0103933D03*
X0142595Y0108933D03*
D15*
X0142595Y0079445D03*
X0142595Y0068421D03*
X0142595Y0059445D03*
X0142595Y0048421D03*
X0157595Y0048421D03*
X0157595Y0059445D03*
X0157595Y0068421D03*
X0157595Y0079445D03*
X0157595Y0143421D03*
X0157595Y0154445D03*
X0142595Y0154445D03*
X0142595Y0143421D03*
D16*
X0142595Y0143933D01*
X0122595Y0123933D01*
X0122595Y0108933D01*
X0119755Y0111824D02*
X0112478Y0111824D01*
X0113477Y0110826D02*
X0118993Y0110826D01*
X0119159Y0111229D02*
X0118542Y0109739D01*
X0118542Y0108127D01*
X0119159Y0106637D01*
X0120299Y0105497D01*
X0121789Y0104880D01*
X0123401Y0104880D01*
X0124891Y0105497D01*
X0126031Y0106637D01*
X0126648Y0108127D01*
X0126648Y0109739D01*
X0126031Y0111229D01*
X0124891Y0112369D01*
X0124195Y0112657D01*
X0124195Y0123270D01*
X0140096Y0139172D01*
X0146594Y0139172D01*
X0147238Y0139816D01*
X0147238Y0147027D01*
X0146594Y0147671D01*
X0138596Y0147671D01*
X0137952Y0147027D01*
X0137952Y0141552D01*
X0120995Y0124596D01*
X0120995Y0112657D01*
X0120299Y0112369D01*
X0119159Y0111229D01*
X0118579Y0109827D02*
X0114475Y0109827D01*
X0115474Y0108829D02*
X0118542Y0108829D01*
X0118665Y0107830D02*
X0116472Y0107830D01*
X0117471Y0106832D02*
X0119079Y0106832D01*
X0118469Y0105833D02*
X0119963Y0105833D01*
X0119468Y0104835D02*
X0128230Y0104835D01*
X0128252Y0104976D02*
X0128148Y0104319D01*
X0132209Y0104319D01*
X0132209Y0103547D01*
X0128148Y0103547D01*
X0128252Y0102890D01*
X0128469Y0102224D01*
X0128787Y0101599D01*
X0129199Y0101032D01*
X0129694Y0100537D01*
X0130261Y0100125D01*
X0130886Y0099807D01*
X0131552Y0099590D01*
X0132209Y0099486D01*
X0132209Y0103547D01*
X0132981Y0103547D01*
X0132981Y0099486D01*
X0133638Y0099590D01*
X0134304Y0099807D01*
X0134929Y0100125D01*
X0135496Y0100537D01*
X0135991Y0101032D01*
X0136403Y0101599D01*
X0136722Y0102224D01*
X0136938Y0102890D01*
X0137042Y0103547D01*
X0132981Y0103547D01*
X0132981Y0104319D01*
X0132209Y0104319D01*
X0132209Y0108380D01*
X0131552Y0108276D01*
X0130886Y0108060D01*
X0130261Y0107741D01*
X0129694Y0107329D01*
X0129199Y0106834D01*
X0128787Y0106267D01*
X0128469Y0105642D01*
X0128252Y0104976D01*
X0128566Y0105833D02*
X0125227Y0105833D01*
X0126111Y0106832D02*
X0129197Y0106832D01*
X0130436Y0107830D02*
X0126525Y0107830D01*
X0126648Y0108829D02*
X0138542Y0108829D01*
X0138542Y0108127D02*
X0138542Y0109739D01*
X0139159Y0111229D01*
X0140299Y0112369D01*
X0140995Y0112657D01*
X0140995Y0129596D01*
X0152952Y0141552D01*
X0152952Y0147027D01*
X0153258Y0147333D01*
X0151932Y0147333D01*
X0150995Y0148270D01*
X0147238Y0152027D01*
X0147238Y0150840D01*
X0146594Y0150195D01*
X0138596Y0150195D01*
X0137952Y0150840D01*
X0137952Y0158050D01*
X0138596Y0158694D01*
X0146594Y0158694D01*
X0147238Y0158050D01*
X0147238Y0156045D01*
X0147746Y0156045D01*
X0153258Y0150533D01*
X0153258Y0150533D01*
X0152952Y0150840D01*
X0152952Y0156314D01*
X0146932Y0162333D01*
X0128258Y0162333D01*
X0116695Y0150770D01*
X0116695Y0145118D01*
X0116071Y0143611D01*
X0114918Y0142457D01*
X0113411Y0141833D01*
X0111780Y0141833D01*
X0110273Y0142457D01*
X0109119Y0143611D01*
X0108495Y0145118D01*
X0108495Y0152749D01*
X0109119Y0154256D01*
X0110273Y0155409D01*
X0111780Y0156033D01*
X0113411Y0156033D01*
X0114918Y0155409D01*
X0115863Y0154464D01*
X0126932Y0165533D01*
X0148258Y0165533D01*
X0149195Y0164596D01*
X0155096Y0158694D01*
X0161594Y0158694D01*
X0162238Y0158050D01*
X0162238Y0152133D01*
X0168921Y0152133D01*
X0185327Y0135727D01*
X0185521Y0135533D01*
X0187358Y0133696D01*
X0188295Y0132759D01*
X0188295Y0097370D01*
X0187358Y0096433D01*
X0168770Y0077845D01*
X0162238Y0077845D01*
X0162238Y0075840D01*
X0161594Y0075195D01*
X0153596Y0075195D01*
X0152952Y0075840D01*
X0152952Y0083050D01*
X0153596Y0083694D01*
X0161594Y0083694D01*
X0162238Y0083050D01*
X0162238Y0081045D01*
X0167444Y0081045D01*
X0185095Y0098696D01*
X0185095Y0099433D01*
X0183095Y0099433D01*
X0183095Y0103433D01*
X0182095Y0103433D01*
X0178095Y0103433D01*
X0178095Y0100736D01*
X0178197Y0100354D01*
X0178395Y0100012D01*
X0178674Y0099733D01*
X0179016Y0099535D01*
X0179398Y0099433D01*
X0182095Y0099433D01*
X0182095Y0103433D01*
X0182095Y0104433D01*
X0178095Y0104433D01*
X0178095Y0107131D01*
X0178197Y0107512D01*
X0178395Y0107854D01*
X0178674Y0108133D01*
X0179016Y0108331D01*
X0179398Y0108433D01*
X0182095Y0108433D01*
X0182095Y0104433D01*
X0183095Y0104433D01*
X0183095Y0108433D01*
X0185095Y0108433D01*
X0185095Y0109833D01*
X0179139Y0109833D01*
X0178495Y0110477D01*
X0178495Y0117389D01*
X0179139Y0118033D01*
X0180995Y0118033D01*
X0180995Y0133270D01*
X0166932Y0147333D01*
X0161932Y0147333D01*
X0162238Y0147027D01*
X0162238Y0139816D01*
X0161594Y0139172D01*
X0155096Y0139172D01*
X0144195Y0128270D01*
X0144195Y0112657D01*
X0144891Y0112369D01*
X0146031Y0111229D01*
X0146648Y0109739D01*
X0146648Y0108127D01*
X0146031Y0106637D01*
X0144891Y0105497D01*
X0143401Y0104880D01*
X0141789Y0104880D01*
X0140299Y0105497D01*
X0139159Y0106637D01*
X0138542Y0108127D01*
X0138665Y0107830D02*
X0134754Y0107830D01*
X0134929Y0107741D02*
X0134304Y0108060D01*
X0133638Y0108276D01*
X0132981Y0108380D01*
X0132981Y0104319D01*
X0137042Y0104319D01*
X0136938Y0104976D01*
X0136722Y0105642D01*
X0136403Y0106267D01*
X0135991Y0106834D01*
X0135496Y0107329D01*
X0134929Y0107741D01*
X0135993Y0106832D02*
X0139079Y0106832D01*
X0139963Y0105833D02*
X0136624Y0105833D01*
X0136961Y0104835D02*
X0178095Y0104835D01*
X0178095Y0105833D02*
X0145227Y0105833D01*
X0146111Y0106832D02*
X0178095Y0106832D01*
X0178381Y0107830D02*
X0146525Y0107830D01*
X0146648Y0108829D02*
X0185095Y0108829D01*
X0185095Y0109827D02*
X0146611Y0109827D01*
X0146198Y0110826D02*
X0178495Y0110826D01*
X0178495Y0111824D02*
X0145435Y0111824D01*
X0144195Y0112823D02*
X0178495Y0112823D01*
X0178495Y0113821D02*
X0144195Y0113821D01*
X0144195Y0114820D02*
X0178495Y0114820D01*
X0178495Y0115818D02*
X0144195Y0115818D01*
X0144195Y0116817D02*
X0178495Y0116817D01*
X0178922Y0117815D02*
X0144195Y0117815D01*
X0144195Y0118814D02*
X0180995Y0118814D01*
X0180995Y0119812D02*
X0144195Y0119812D01*
X0144195Y0120811D02*
X0180995Y0120811D01*
X0180995Y0121810D02*
X0144195Y0121810D01*
X0144195Y0122808D02*
X0180995Y0122808D01*
X0180995Y0123807D02*
X0144195Y0123807D01*
X0144195Y0124805D02*
X0180995Y0124805D01*
X0180995Y0125804D02*
X0144195Y0125804D01*
X0144195Y0126802D02*
X0180995Y0126802D01*
X0180995Y0127801D02*
X0144195Y0127801D01*
X0144724Y0128799D02*
X0180995Y0128799D01*
X0180995Y0129798D02*
X0145722Y0129798D01*
X0146721Y0130796D02*
X0180995Y0130796D01*
X0180995Y0131795D02*
X0147719Y0131795D01*
X0148718Y0132793D02*
X0180995Y0132793D01*
X0180474Y0133792D02*
X0149716Y0133792D01*
X0150715Y0134790D02*
X0179475Y0134790D01*
X0178477Y0135789D02*
X0151713Y0135789D01*
X0152712Y0136787D02*
X0177478Y0136787D01*
X0176480Y0137786D02*
X0153710Y0137786D01*
X0154709Y0138784D02*
X0175481Y0138784D01*
X0174483Y0139783D02*
X0162205Y0139783D01*
X0162238Y0140781D02*
X0173484Y0140781D01*
X0172486Y0141780D02*
X0162238Y0141780D01*
X0162238Y0142778D02*
X0171487Y0142778D01*
X0170489Y0143777D02*
X0162238Y0143777D01*
X0162238Y0144775D02*
X0169490Y0144775D01*
X0168492Y0145774D02*
X0162238Y0145774D01*
X0162238Y0146772D02*
X0167493Y0146772D01*
X0167595Y0148933D02*
X0182595Y0133933D01*
X0182595Y0113933D01*
X0188295Y0113821D02*
X0196295Y0113821D01*
X0196295Y0112823D02*
X0188295Y0112823D01*
X0188295Y0111824D02*
X0196295Y0111824D01*
X0196295Y0110826D02*
X0188295Y0110826D01*
X0188295Y0109827D02*
X0196295Y0109827D01*
X0196295Y0108829D02*
X0188295Y0108829D01*
X0188295Y0107830D02*
X0196295Y0107830D01*
X0196295Y0106832D02*
X0188295Y0106832D01*
X0188295Y0105833D02*
X0196295Y0105833D01*
X0196295Y0104835D02*
X0188295Y0104835D01*
X0188295Y0103836D02*
X0196295Y0103836D01*
X0196295Y0102838D02*
X0188295Y0102838D01*
X0188295Y0101839D02*
X0196295Y0101839D01*
X0196295Y0100841D02*
X0188295Y0100841D01*
X0188295Y0099842D02*
X0196295Y0099842D01*
X0196295Y0098844D02*
X0188295Y0098844D01*
X0188295Y0097845D02*
X0196295Y0097845D01*
X0196295Y0096847D02*
X0187772Y0096847D01*
X0186773Y0095848D02*
X0196295Y0095848D01*
X0196295Y0094850D02*
X0185775Y0094850D01*
X0184776Y0093851D02*
X0196295Y0093851D01*
X0196295Y0092853D02*
X0183777Y0092853D01*
X0182779Y0091854D02*
X0196295Y0091854D01*
X0196295Y0090856D02*
X0181780Y0090856D01*
X0180782Y0089857D02*
X0196295Y0089857D01*
X0196295Y0088859D02*
X0179783Y0088859D01*
X0178785Y0087860D02*
X0196295Y0087860D01*
X0196295Y0086862D02*
X0177786Y0086862D01*
X0176788Y0085863D02*
X0196295Y0085863D01*
X0196295Y0084865D02*
X0175789Y0084865D01*
X0174791Y0083866D02*
X0196295Y0083866D01*
X0196295Y0082868D02*
X0173792Y0082868D01*
X0172794Y0081869D02*
X0196295Y0081869D01*
X0196295Y0080871D02*
X0171795Y0080871D01*
X0170797Y0079872D02*
X0196295Y0079872D01*
X0196295Y0078874D02*
X0169798Y0078874D01*
X0168800Y0077875D02*
X0196295Y0077875D01*
X0196295Y0076877D02*
X0162238Y0076877D01*
X0162238Y0075878D02*
X0196295Y0075878D01*
X0196295Y0074879D02*
X0104195Y0074879D01*
X0104195Y0073881D02*
X0196295Y0073881D01*
X0196295Y0072882D02*
X0104195Y0072882D01*
X0104195Y0071884D02*
X0137952Y0071884D01*
X0137952Y0072027D02*
X0137952Y0064816D01*
X0138596Y0064172D01*
X0140995Y0064172D01*
X0140995Y0063694D01*
X0138596Y0063694D01*
X0137952Y0063050D01*
X0137952Y0061045D01*
X0117095Y0061045D01*
X0117095Y0063433D01*
X0113095Y0063433D01*
X0113095Y0064433D01*
X0112095Y0064433D01*
X0112095Y0063433D01*
X0108095Y0063433D01*
X0108095Y0060579D01*
X0108206Y0059879D01*
X0108425Y0059206D01*
X0108746Y0058575D01*
X0108849Y0058433D01*
X0105893Y0058433D01*
X0106071Y0058611D01*
X0106695Y0060118D01*
X0106695Y0067749D01*
X0106071Y0069256D01*
X0104918Y0070409D01*
X0104195Y0070708D01*
X0104195Y0115582D01*
X0137952Y0081825D01*
X0137952Y0075840D01*
X0138596Y0075195D01*
X0146594Y0075195D01*
X0147238Y0075840D01*
X0147238Y0083050D01*
X0146594Y0083694D01*
X0140608Y0083694D01*
X0104195Y0120108D01*
X0104195Y0142158D01*
X0104918Y0142457D01*
X0106071Y0143611D01*
X0106695Y0145118D01*
X0106695Y0152749D01*
X0106071Y0154256D01*
X0104918Y0155409D01*
X0103411Y0156033D01*
X0101780Y0156033D01*
X0100273Y0155409D01*
X0099119Y0154256D01*
X0098495Y0152749D01*
X0098495Y0145296D01*
X0096695Y0147096D01*
X0096695Y0152749D01*
X0096071Y0154256D01*
X0094918Y0155409D01*
X0093411Y0156033D01*
X0091780Y0156033D01*
X0090273Y0155409D01*
X0089119Y0154256D01*
X0088495Y0152749D01*
X0088495Y0145118D01*
X0089119Y0143611D01*
X0090273Y0142457D01*
X0091780Y0141833D01*
X0093411Y0141833D01*
X0094918Y0142457D01*
X0095863Y0143403D01*
X0099395Y0139870D01*
X0099395Y0118119D01*
X0100332Y0117182D01*
X0100995Y0116519D01*
X0100995Y0070708D01*
X0100273Y0070409D01*
X0099119Y0069256D01*
X0098495Y0067749D01*
X0098495Y0060296D01*
X0096695Y0062096D01*
X0096695Y0067749D01*
X0096071Y0069256D01*
X0094918Y0070409D01*
X0093411Y0071033D01*
X0091780Y0071033D01*
X0090273Y0070409D01*
X0089119Y0069256D01*
X0088495Y0067749D01*
X0088495Y0060296D01*
X0086695Y0062096D01*
X0086695Y0067749D01*
X0086071Y0069256D01*
X0084918Y0070409D01*
X0083411Y0071033D01*
X0081780Y0071033D01*
X0080273Y0070409D01*
X0079119Y0069256D01*
X0078495Y0067749D01*
X0078495Y0060118D01*
X0079119Y0058611D01*
X0080273Y0057457D01*
X0081780Y0056833D01*
X0083411Y0056833D01*
X0084918Y0057457D01*
X0085863Y0058403D01*
X0091932Y0052333D01*
X0137760Y0052333D01*
X0137654Y0052150D01*
X0137552Y0051768D01*
X0137552Y0048921D01*
X0142095Y0048921D01*
X0142095Y0047921D01*
X0143095Y0047921D01*
X0143095Y0043772D01*
X0146336Y0043772D01*
X0146717Y0043874D01*
X0147059Y0044071D01*
X0147339Y0044351D01*
X0147536Y0044693D01*
X0147638Y0045074D01*
X0147638Y0047921D01*
X0143095Y0047921D01*
X0143095Y0048921D01*
X0147638Y0048921D01*
X0147638Y0051768D01*
X0147536Y0052150D01*
X0147430Y0052333D01*
X0148258Y0052333D01*
X0149195Y0053270D01*
X0152952Y0057027D01*
X0152952Y0055840D01*
X0153596Y0055195D01*
X0161594Y0055195D01*
X0162238Y0055840D01*
X0162238Y0063050D01*
X0161594Y0063694D01*
X0159195Y0063694D01*
X0159195Y0064172D01*
X0161594Y0064172D01*
X0162238Y0064816D01*
X0162238Y0072027D01*
X0161594Y0072671D01*
X0153596Y0072671D01*
X0152952Y0072027D01*
X0152952Y0064816D01*
X0153596Y0064172D01*
X0155995Y0064172D01*
X0155995Y0063694D01*
X0153596Y0063694D01*
X0152952Y0063050D01*
X0152952Y0061045D01*
X0152444Y0061045D01*
X0146932Y0055533D01*
X0147238Y0055840D01*
X0147238Y0063050D01*
X0146594Y0063694D01*
X0144195Y0063694D01*
X0144195Y0064172D01*
X0146594Y0064172D01*
X0147238Y0064816D01*
X0147238Y0072027D01*
X0146594Y0072671D01*
X0138596Y0072671D01*
X0137952Y0072027D01*
X0137952Y0070885D02*
X0114750Y0070885D01*
X0114954Y0070782D02*
X0114323Y0071103D01*
X0113649Y0071322D01*
X0113095Y0071410D01*
X0113095Y0064433D01*
X0117095Y0064433D01*
X0117095Y0067287D01*
X0116984Y0067987D01*
X0116765Y0068660D01*
X0116444Y0069292D01*
X0116028Y0069865D01*
X0115527Y0070365D01*
X0114954Y0070782D01*
X0116005Y0069887D02*
X0137952Y0069887D01*
X0137952Y0068888D02*
X0116649Y0068888D01*
X0117000Y0067890D02*
X0137952Y0067890D01*
X0137952Y0066891D02*
X0117095Y0066891D01*
X0117095Y0065893D02*
X0137952Y0065893D01*
X0137952Y0064894D02*
X0117095Y0064894D01*
X0117095Y0062897D02*
X0137952Y0062897D01*
X0137952Y0061899D02*
X0117095Y0061899D01*
X0116905Y0059445D02*
X0114293Y0056833D01*
X0099695Y0056833D01*
X0092595Y0063933D01*
X0096695Y0063896D02*
X0098495Y0063896D01*
X0098495Y0064894D02*
X0096695Y0064894D01*
X0096695Y0065893D02*
X0098495Y0065893D01*
X0098495Y0066891D02*
X0096695Y0066891D01*
X0096637Y0067890D02*
X0098554Y0067890D01*
X0098967Y0068888D02*
X0096223Y0068888D01*
X0095440Y0069887D02*
X0099751Y0069887D01*
X0100995Y0070885D02*
X0093767Y0070885D01*
X0091423Y0070885D02*
X0083767Y0070885D01*
X0085440Y0069887D02*
X0089751Y0069887D01*
X0088967Y0068888D02*
X0086223Y0068888D01*
X0086637Y0067890D02*
X0088554Y0067890D01*
X0088495Y0066891D02*
X0086695Y0066891D01*
X0086695Y0065893D02*
X0088495Y0065893D01*
X0088495Y0064894D02*
X0086695Y0064894D01*
X0086695Y0063896D02*
X0088495Y0063896D01*
X0088495Y0062897D02*
X0086695Y0062897D01*
X0086892Y0061899D02*
X0088495Y0061899D01*
X0088495Y0060900D02*
X0087891Y0060900D01*
X0086361Y0057905D02*
X0085365Y0057905D01*
X0083587Y0056906D02*
X0087359Y0056906D01*
X0088358Y0055908D02*
X0073797Y0055908D01*
X0073647Y0056906D02*
X0081603Y0056906D01*
X0079825Y0057905D02*
X0073496Y0057905D01*
X0073362Y0058797D02*
X0071228Y0063228D01*
X0067883Y0066833D01*
X0067883Y0066833D01*
X0063623Y0069292D01*
X0058828Y0070387D01*
X0053924Y0070019D01*
X0053924Y0070019D01*
X0049345Y0068222D01*
X0045500Y0065156D01*
X0045500Y0065156D01*
X0043895Y0062802D01*
X0043895Y0155064D01*
X0045500Y0152710D01*
X0049345Y0149644D01*
X0053924Y0147847D01*
X0058828Y0147479D01*
X0063623Y0148574D01*
X0067883Y0151033D01*
X0071228Y0154638D01*
X0071228Y0154638D01*
X0073362Y0159070D01*
X0074095Y0163933D01*
X0073362Y0168797D01*
X0071228Y0173228D01*
X0067883Y0176833D01*
X0067883Y0176833D01*
X0066497Y0177633D01*
X0173606Y0177633D01*
X0170500Y0175156D01*
X0167729Y0171092D01*
X0166279Y0166392D01*
X0166279Y0161474D01*
X0167729Y0156774D01*
X0170500Y0152710D01*
X0174345Y0149644D01*
X0174345Y0149644D01*
X0178924Y0147847D01*
X0183828Y0147479D01*
X0188623Y0148574D01*
X0192883Y0151033D01*
X0196228Y0154638D01*
X0196228Y0154638D01*
X0196295Y0154778D01*
X0196295Y0063089D01*
X0196228Y0063228D01*
X0192883Y0066833D01*
X0192883Y0066833D01*
X0188623Y0069292D01*
X0183828Y0070387D01*
X0178924Y0070019D01*
X0178924Y0070019D01*
X0174345Y0068222D01*
X0170500Y0065156D01*
X0167729Y0061092D01*
X0166279Y0056392D01*
X0166279Y0051474D01*
X0167729Y0046774D01*
X0170500Y0042710D01*
X0173606Y0040233D01*
X0066497Y0040233D01*
X0067883Y0041033D01*
X0071228Y0044638D01*
X0071228Y0044638D01*
X0073362Y0049070D01*
X0074095Y0053933D01*
X0073362Y0058797D01*
X0073311Y0058903D02*
X0078998Y0058903D01*
X0078584Y0059902D02*
X0072830Y0059902D01*
X0072349Y0060900D02*
X0078495Y0060900D01*
X0078495Y0061899D02*
X0071868Y0061899D01*
X0071387Y0062897D02*
X0078495Y0062897D01*
X0078495Y0063896D02*
X0070608Y0063896D01*
X0071228Y0063228D02*
X0071228Y0063228D01*
X0069682Y0064894D02*
X0078495Y0064894D01*
X0078495Y0065893D02*
X0068755Y0065893D01*
X0067782Y0066891D02*
X0078495Y0066891D01*
X0078554Y0067890D02*
X0066053Y0067890D01*
X0064323Y0068888D02*
X0078967Y0068888D01*
X0079751Y0069887D02*
X0061019Y0069887D01*
X0058828Y0070387D02*
X0058828Y0070387D01*
X0063623Y0069292D02*
X0063623Y0069292D01*
X0053586Y0069887D02*
X0043895Y0069887D01*
X0043895Y0070885D02*
X0081423Y0070885D01*
X0082595Y0063933D02*
X0092595Y0053933D01*
X0147595Y0053933D01*
X0153107Y0059445D01*
X0157595Y0059445D01*
X0157595Y0068421D01*
X0152952Y0068888D02*
X0147238Y0068888D01*
X0147238Y0067890D02*
X0152952Y0067890D01*
X0152952Y0066891D02*
X0147238Y0066891D01*
X0147238Y0065893D02*
X0152952Y0065893D01*
X0152952Y0064894D02*
X0147238Y0064894D01*
X0147238Y0062897D02*
X0152952Y0062897D01*
X0152952Y0061899D02*
X0147238Y0061899D01*
X0147238Y0060900D02*
X0152300Y0060900D01*
X0151301Y0059902D02*
X0147238Y0059902D01*
X0147238Y0058903D02*
X0150303Y0058903D01*
X0149304Y0057905D02*
X0147238Y0057905D01*
X0147238Y0056906D02*
X0148306Y0056906D01*
X0147307Y0055908D02*
X0147238Y0055908D01*
X0146932Y0055533D02*
X0146932Y0055533D01*
X0148837Y0052912D02*
X0153375Y0052912D01*
X0153473Y0052969D02*
X0153131Y0052771D01*
X0152852Y0052492D01*
X0152654Y0052150D01*
X0152552Y0051768D01*
X0152552Y0048921D01*
X0157095Y0048921D01*
X0157095Y0047921D01*
X0158095Y0047921D01*
X0158095Y0043772D01*
X0161336Y0043772D01*
X0161717Y0043874D01*
X0162059Y0044071D01*
X0162339Y0044351D01*
X0162536Y0044693D01*
X0162638Y0045074D01*
X0162638Y0047921D01*
X0158095Y0047921D01*
X0158095Y0048921D01*
X0162638Y0048921D01*
X0162638Y0051768D01*
X0162536Y0052150D01*
X0162339Y0052492D01*
X0162059Y0052771D01*
X0161717Y0052969D01*
X0161336Y0053071D01*
X0158095Y0053071D01*
X0158095Y0048921D01*
X0157095Y0048921D01*
X0157095Y0053071D01*
X0153854Y0053071D01*
X0153473Y0052969D01*
X0152591Y0051914D02*
X0147599Y0051914D01*
X0147638Y0050915D02*
X0152552Y0050915D01*
X0152552Y0049917D02*
X0147638Y0049917D01*
X0147638Y0047920D02*
X0152552Y0047920D01*
X0152552Y0047921D02*
X0152552Y0045074D01*
X0152654Y0044693D01*
X0152852Y0044351D01*
X0153131Y0044071D01*
X0153473Y0043874D01*
X0153854Y0043772D01*
X0157095Y0043772D01*
X0157095Y0047921D01*
X0152552Y0047921D01*
X0152552Y0046921D02*
X0147638Y0046921D01*
X0147638Y0045923D02*
X0152552Y0045923D01*
X0152592Y0044924D02*
X0147598Y0044924D01*
X0146807Y0043926D02*
X0153383Y0043926D01*
X0157095Y0043926D02*
X0158095Y0043926D01*
X0158095Y0044924D02*
X0157095Y0044924D01*
X0157095Y0045923D02*
X0158095Y0045923D01*
X0158095Y0046921D02*
X0157095Y0046921D01*
X0157095Y0047920D02*
X0158095Y0047920D01*
X0158095Y0048918D02*
X0167068Y0048918D01*
X0167376Y0047920D02*
X0162638Y0047920D01*
X0162638Y0046921D02*
X0167684Y0046921D01*
X0167729Y0046774D02*
X0167729Y0046774D01*
X0168310Y0045923D02*
X0162638Y0045923D01*
X0162598Y0044924D02*
X0168990Y0044924D01*
X0169671Y0043926D02*
X0161807Y0043926D01*
X0157095Y0048918D02*
X0143095Y0048918D01*
X0143095Y0047920D02*
X0142095Y0047920D01*
X0142095Y0047921D02*
X0142095Y0043772D01*
X0138854Y0043772D01*
X0138473Y0043874D01*
X0138131Y0044071D01*
X0137852Y0044351D01*
X0137654Y0044693D01*
X0137552Y0045074D01*
X0137552Y0047921D01*
X0142095Y0047921D01*
X0142095Y0048918D02*
X0073289Y0048918D01*
X0073362Y0049070D02*
X0073362Y0049070D01*
X0073490Y0049917D02*
X0137552Y0049917D01*
X0137552Y0050915D02*
X0073640Y0050915D01*
X0073791Y0051914D02*
X0137591Y0051914D01*
X0137552Y0047920D02*
X0072808Y0047920D01*
X0072327Y0046921D02*
X0137552Y0046921D01*
X0137552Y0045923D02*
X0071847Y0045923D01*
X0071366Y0044924D02*
X0137592Y0044924D01*
X0138383Y0043926D02*
X0070567Y0043926D01*
X0069640Y0042927D02*
X0170352Y0042927D01*
X0170500Y0042710D02*
X0170500Y0042710D01*
X0170500Y0042710D01*
X0171480Y0041929D02*
X0068714Y0041929D01*
X0067883Y0041033D02*
X0067883Y0041033D01*
X0067705Y0040930D02*
X0172732Y0040930D01*
X0166760Y0049917D02*
X0162638Y0049917D01*
X0162638Y0050915D02*
X0166452Y0050915D01*
X0166279Y0051914D02*
X0162599Y0051914D01*
X0161815Y0052912D02*
X0166279Y0052912D01*
X0166279Y0053911D02*
X0149836Y0053911D01*
X0150834Y0054909D02*
X0166279Y0054909D01*
X0166279Y0055908D02*
X0162238Y0055908D01*
X0162238Y0056906D02*
X0166438Y0056906D01*
X0166746Y0057905D02*
X0162238Y0057905D01*
X0162238Y0058903D02*
X0167054Y0058903D01*
X0167362Y0059902D02*
X0162238Y0059902D01*
X0162238Y0060900D02*
X0167670Y0060900D01*
X0167729Y0061092D02*
X0167729Y0061092D01*
X0168279Y0061899D02*
X0162238Y0061899D01*
X0162238Y0062897D02*
X0168960Y0062897D01*
X0169641Y0063896D02*
X0159195Y0063896D01*
X0162238Y0064894D02*
X0170321Y0064894D01*
X0170500Y0065156D02*
X0170500Y0065156D01*
X0171424Y0065893D02*
X0162238Y0065893D01*
X0162238Y0066891D02*
X0172676Y0066891D01*
X0173928Y0067890D02*
X0162238Y0067890D01*
X0162238Y0068888D02*
X0176042Y0068888D01*
X0174345Y0068222D02*
X0174345Y0068222D01*
X0178586Y0069887D02*
X0162238Y0069887D01*
X0162238Y0070885D02*
X0196295Y0070885D01*
X0196295Y0069887D02*
X0186019Y0069887D01*
X0183828Y0070387D02*
X0183828Y0070387D01*
X0188623Y0069292D02*
X0188623Y0069292D01*
X0189323Y0068888D02*
X0196295Y0068888D01*
X0196295Y0067890D02*
X0191053Y0067890D01*
X0192782Y0066891D02*
X0196295Y0066891D01*
X0196295Y0065893D02*
X0193755Y0065893D01*
X0194682Y0064894D02*
X0196295Y0064894D01*
X0196295Y0063896D02*
X0195608Y0063896D01*
X0196228Y0063228D02*
X0196228Y0063228D01*
X0196295Y0071884D02*
X0162238Y0071884D01*
X0157595Y0079445D02*
X0168107Y0079445D01*
X0186695Y0098033D01*
X0186695Y0132096D01*
X0184858Y0133933D01*
X0183727Y0135064D01*
X0168258Y0150533D01*
X0161507Y0150533D01*
X0157595Y0154445D01*
X0157083Y0154445D01*
X0147595Y0163933D01*
X0127595Y0163933D01*
X0112595Y0148933D01*
X0108495Y0148769D02*
X0106695Y0148769D01*
X0106695Y0147771D02*
X0108495Y0147771D01*
X0108495Y0146772D02*
X0106695Y0146772D01*
X0106695Y0145774D02*
X0108495Y0145774D01*
X0108637Y0144775D02*
X0106553Y0144775D01*
X0106140Y0143777D02*
X0109051Y0143777D01*
X0109952Y0142778D02*
X0105239Y0142778D01*
X0104195Y0141780D02*
X0137952Y0141780D01*
X0137952Y0142778D02*
X0115239Y0142778D01*
X0116140Y0143777D02*
X0137952Y0143777D01*
X0137952Y0144775D02*
X0116553Y0144775D01*
X0116695Y0145774D02*
X0137952Y0145774D01*
X0137952Y0146772D02*
X0116695Y0146772D01*
X0116695Y0147771D02*
X0151495Y0147771D01*
X0150496Y0148769D02*
X0116695Y0148769D01*
X0116695Y0149768D02*
X0149498Y0149768D01*
X0148499Y0150766D02*
X0147165Y0150766D01*
X0147238Y0151765D02*
X0147501Y0151765D01*
X0147083Y0154445D02*
X0152595Y0148933D01*
X0167595Y0148933D01*
X0170287Y0150766D02*
X0172937Y0150766D01*
X0171685Y0151765D02*
X0169289Y0151765D01*
X0170500Y0152710D02*
X0170500Y0152710D01*
X0170500Y0152710D01*
X0170464Y0152763D02*
X0162238Y0152763D01*
X0162238Y0153762D02*
X0169783Y0153762D01*
X0169102Y0154760D02*
X0162238Y0154760D01*
X0162238Y0155759D02*
X0168421Y0155759D01*
X0167740Y0156757D02*
X0162238Y0156757D01*
X0162238Y0157756D02*
X0167426Y0157756D01*
X0167729Y0156774D02*
X0167729Y0156774D01*
X0167118Y0158754D02*
X0155037Y0158754D01*
X0154038Y0159753D02*
X0166810Y0159753D01*
X0166502Y0160751D02*
X0153039Y0160751D01*
X0152041Y0161750D02*
X0166279Y0161750D01*
X0166279Y0162748D02*
X0151042Y0162748D01*
X0150044Y0163747D02*
X0166279Y0163747D01*
X0166279Y0164745D02*
X0149045Y0164745D01*
X0147516Y0161750D02*
X0127675Y0161750D01*
X0126676Y0160751D02*
X0148514Y0160751D01*
X0149513Y0159753D02*
X0125678Y0159753D01*
X0124679Y0158754D02*
X0150511Y0158754D01*
X0151510Y0157756D02*
X0147238Y0157756D01*
X0147238Y0156757D02*
X0152508Y0156757D01*
X0152952Y0155759D02*
X0148032Y0155759D01*
X0149031Y0154760D02*
X0152952Y0154760D01*
X0152952Y0153762D02*
X0150029Y0153762D01*
X0151028Y0152763D02*
X0152952Y0152763D01*
X0152952Y0151765D02*
X0152026Y0151765D01*
X0153025Y0150766D02*
X0153025Y0150766D01*
X0152952Y0146772D02*
X0147238Y0146772D01*
X0147238Y0145774D02*
X0152952Y0145774D01*
X0152952Y0144775D02*
X0147238Y0144775D01*
X0147238Y0143777D02*
X0152952Y0143777D01*
X0152952Y0142778D02*
X0147238Y0142778D01*
X0147238Y0141780D02*
X0152952Y0141780D01*
X0152181Y0140781D02*
X0147238Y0140781D01*
X0147205Y0139783D02*
X0151182Y0139783D01*
X0150184Y0138784D02*
X0139709Y0138784D01*
X0138710Y0137786D02*
X0149185Y0137786D01*
X0148187Y0136787D02*
X0137712Y0136787D01*
X0136713Y0135789D02*
X0147188Y0135789D01*
X0146189Y0134790D02*
X0135715Y0134790D01*
X0134716Y0133792D02*
X0145191Y0133792D01*
X0144192Y0132793D02*
X0133718Y0132793D01*
X0132719Y0131795D02*
X0143194Y0131795D01*
X0142195Y0130796D02*
X0131721Y0130796D01*
X0130722Y0129798D02*
X0141197Y0129798D01*
X0140995Y0128799D02*
X0129724Y0128799D01*
X0128725Y0127801D02*
X0140995Y0127801D01*
X0140995Y0126802D02*
X0127727Y0126802D01*
X0126728Y0125804D02*
X0140995Y0125804D01*
X0140995Y0124805D02*
X0125730Y0124805D01*
X0124731Y0123807D02*
X0140995Y0123807D01*
X0140995Y0122808D02*
X0124195Y0122808D01*
X0124195Y0121810D02*
X0140995Y0121810D01*
X0140995Y0120811D02*
X0124195Y0120811D01*
X0124195Y0119812D02*
X0140995Y0119812D01*
X0140995Y0118814D02*
X0124195Y0118814D01*
X0124195Y0117815D02*
X0140995Y0117815D01*
X0140995Y0116817D02*
X0124195Y0116817D01*
X0124195Y0115818D02*
X0140995Y0115818D01*
X0140995Y0114820D02*
X0124195Y0114820D01*
X0124195Y0113821D02*
X0140995Y0113821D01*
X0140995Y0112823D02*
X0124195Y0112823D01*
X0125435Y0111824D02*
X0139755Y0111824D01*
X0138993Y0110826D02*
X0126198Y0110826D01*
X0126611Y0109827D02*
X0138579Y0109827D01*
X0142595Y0108933D02*
X0142595Y0128933D01*
X0157595Y0143933D01*
X0157595Y0143421D01*
X0147083Y0154445D02*
X0142595Y0154445D01*
X0137952Y0154760D02*
X0120685Y0154760D01*
X0119687Y0153762D02*
X0137952Y0153762D01*
X0137952Y0152763D02*
X0118688Y0152763D01*
X0117690Y0151765D02*
X0137952Y0151765D01*
X0138025Y0150766D02*
X0116695Y0150766D01*
X0116160Y0154760D02*
X0115566Y0154760D01*
X0114073Y0155759D02*
X0117158Y0155759D01*
X0118157Y0156757D02*
X0072249Y0156757D01*
X0071768Y0155759D02*
X0080205Y0155759D01*
X0080237Y0155782D02*
X0079664Y0155365D01*
X0079163Y0154865D01*
X0078746Y0154292D01*
X0078425Y0153660D01*
X0078206Y0152987D01*
X0078095Y0152287D01*
X0078095Y0149433D01*
X0082095Y0149433D01*
X0082095Y0148433D01*
X0078095Y0148433D01*
X0078095Y0145579D01*
X0078206Y0144879D01*
X0078425Y0144206D01*
X0078746Y0143575D01*
X0079163Y0143002D01*
X0079664Y0142501D01*
X0080237Y0142084D01*
X0080868Y0141763D01*
X0081541Y0141544D01*
X0082095Y0141456D01*
X0082095Y0148433D01*
X0083095Y0148433D01*
X0083095Y0141456D01*
X0083649Y0141544D01*
X0084323Y0141763D01*
X0084954Y0142084D01*
X0085527Y0142501D01*
X0086028Y0143002D01*
X0086444Y0143575D01*
X0086765Y0144206D01*
X0086984Y0144879D01*
X0087095Y0145579D01*
X0087095Y0148433D01*
X0083095Y0148433D01*
X0083095Y0149433D01*
X0082095Y0149433D01*
X0082095Y0156410D01*
X0081541Y0156322D01*
X0080868Y0156103D01*
X0080237Y0155782D01*
X0079087Y0154760D02*
X0071287Y0154760D01*
X0070415Y0153762D02*
X0078477Y0153762D01*
X0078171Y0152763D02*
X0069488Y0152763D01*
X0068562Y0151765D02*
X0078095Y0151765D01*
X0078095Y0150766D02*
X0067421Y0150766D01*
X0067883Y0151033D02*
X0067883Y0151033D01*
X0065692Y0149768D02*
X0078095Y0149768D01*
X0078095Y0147771D02*
X0060106Y0147771D01*
X0058828Y0147479D02*
X0058828Y0147479D01*
X0054937Y0147771D02*
X0043895Y0147771D01*
X0043895Y0148769D02*
X0051573Y0148769D01*
X0053924Y0147847D02*
X0053924Y0147847D01*
X0049189Y0149768D02*
X0043895Y0149768D01*
X0043895Y0150766D02*
X0047937Y0150766D01*
X0046685Y0151765D02*
X0043895Y0151765D01*
X0043895Y0152763D02*
X0045464Y0152763D01*
X0045500Y0152710D02*
X0045500Y0152710D01*
X0044783Y0153762D02*
X0043895Y0153762D01*
X0043895Y0154760D02*
X0044102Y0154760D01*
X0043895Y0146772D02*
X0078095Y0146772D01*
X0078095Y0145774D02*
X0043895Y0145774D01*
X0043895Y0144775D02*
X0078240Y0144775D01*
X0078643Y0143777D02*
X0043895Y0143777D01*
X0043895Y0142778D02*
X0079386Y0142778D01*
X0080834Y0141780D02*
X0043895Y0141780D01*
X0043895Y0140781D02*
X0098484Y0140781D01*
X0099395Y0139783D02*
X0043895Y0139783D01*
X0043895Y0138784D02*
X0099395Y0138784D01*
X0099395Y0137786D02*
X0043895Y0137786D01*
X0043895Y0136787D02*
X0056216Y0136787D01*
X0055983Y0136554D02*
X0055983Y0126194D01*
X0056628Y0125550D01*
X0067726Y0125550D01*
X0075111Y0118164D01*
X0075400Y0117467D01*
X0076129Y0116738D01*
X0077080Y0116344D01*
X0078110Y0116344D01*
X0079062Y0116738D01*
X0079790Y0117467D01*
X0080184Y0118418D01*
X0080184Y0119448D01*
X0079790Y0120400D01*
X0079062Y0121128D01*
X0078364Y0121417D01*
X0069207Y0130574D01*
X0069207Y0136554D01*
X0068563Y0137198D01*
X0056628Y0137198D01*
X0055983Y0136554D01*
X0055983Y0135789D02*
X0043895Y0135789D01*
X0043895Y0134790D02*
X0055983Y0134790D01*
X0055983Y0133792D02*
X0043895Y0133792D01*
X0043895Y0132793D02*
X0055983Y0132793D01*
X0055983Y0131795D02*
X0043895Y0131795D01*
X0043895Y0130796D02*
X0055983Y0130796D01*
X0055983Y0129798D02*
X0043895Y0129798D01*
X0043895Y0128799D02*
X0055983Y0128799D01*
X0055983Y0127801D02*
X0043895Y0127801D01*
X0043895Y0126802D02*
X0055983Y0126802D01*
X0056374Y0125804D02*
X0043895Y0125804D01*
X0043895Y0124805D02*
X0068470Y0124805D01*
X0069469Y0123807D02*
X0043895Y0123807D01*
X0043895Y0122808D02*
X0070467Y0122808D01*
X0071466Y0121810D02*
X0043895Y0121810D01*
X0043895Y0120811D02*
X0072465Y0120811D01*
X0073463Y0119812D02*
X0043895Y0119812D01*
X0043895Y0118814D02*
X0074462Y0118814D01*
X0075256Y0117815D02*
X0043895Y0117815D01*
X0043895Y0116817D02*
X0076050Y0116817D01*
X0079140Y0116817D02*
X0100698Y0116817D01*
X0100995Y0115818D02*
X0043895Y0115818D01*
X0043895Y0114820D02*
X0100995Y0114820D01*
X0100995Y0113821D02*
X0082643Y0113821D01*
X0083597Y0113426D02*
X0081649Y0114233D01*
X0079541Y0114233D01*
X0077593Y0113426D01*
X0076102Y0111935D01*
X0075295Y0109987D01*
X0075295Y0107879D01*
X0076102Y0105931D01*
X0077593Y0104440D01*
X0079541Y0103633D01*
X0081649Y0103633D01*
X0083597Y0104440D01*
X0085088Y0105931D01*
X0085895Y0107879D01*
X0085895Y0109987D01*
X0085088Y0111935D01*
X0083597Y0113426D01*
X0084201Y0112823D02*
X0100995Y0112823D01*
X0100995Y0111824D02*
X0085134Y0111824D01*
X0085548Y0110826D02*
X0100995Y0110826D01*
X0100995Y0109827D02*
X0085895Y0109827D01*
X0085895Y0108829D02*
X0100995Y0108829D01*
X0100995Y0107830D02*
X0085875Y0107830D01*
X0085461Y0106832D02*
X0100995Y0106832D01*
X0100995Y0105833D02*
X0084991Y0105833D01*
X0083992Y0104835D02*
X0100995Y0104835D01*
X0100995Y0103836D02*
X0082140Y0103836D01*
X0079050Y0103836D02*
X0064140Y0103836D01*
X0063649Y0103633D02*
X0065597Y0104440D01*
X0067088Y0105931D01*
X0067895Y0107879D01*
X0067895Y0109987D01*
X0067088Y0111935D01*
X0065597Y0113426D01*
X0063649Y0114233D01*
X0061541Y0114233D01*
X0059593Y0113426D01*
X0058102Y0111935D01*
X0057295Y0109987D01*
X0057295Y0107879D01*
X0058102Y0105931D01*
X0059593Y0104440D01*
X0061541Y0103633D01*
X0063649Y0103633D01*
X0061050Y0103836D02*
X0043895Y0103836D01*
X0043895Y0102838D02*
X0100995Y0102838D01*
X0100995Y0101839D02*
X0043895Y0101839D01*
X0043895Y0100841D02*
X0100995Y0100841D01*
X0100995Y0099842D02*
X0043895Y0099842D01*
X0043895Y0098844D02*
X0100995Y0098844D01*
X0100995Y0097845D02*
X0043895Y0097845D01*
X0043895Y0096847D02*
X0100995Y0096847D01*
X0100995Y0095848D02*
X0043895Y0095848D01*
X0043895Y0094850D02*
X0100995Y0094850D01*
X0100995Y0093851D02*
X0043895Y0093851D01*
X0043895Y0092853D02*
X0100995Y0092853D01*
X0100995Y0091854D02*
X0093487Y0091854D01*
X0093520Y0091796D02*
X0093323Y0092138D01*
X0093044Y0092417D01*
X0092702Y0092614D01*
X0092320Y0092717D01*
X0087111Y0092717D01*
X0087111Y0086992D01*
X0093623Y0086992D01*
X0093623Y0091414D01*
X0093520Y0091796D01*
X0093623Y0090856D02*
X0100995Y0090856D01*
X0100995Y0089857D02*
X0093623Y0089857D01*
X0093623Y0088859D02*
X0100995Y0088859D01*
X0100995Y0087860D02*
X0093623Y0087860D01*
X0093623Y0085992D02*
X0087111Y0085992D01*
X0087111Y0086992D01*
X0086111Y0086992D01*
X0086111Y0085992D01*
X0087111Y0085992D01*
X0087111Y0080268D01*
X0092320Y0080268D01*
X0092702Y0080370D01*
X0093044Y0080567D01*
X0093323Y0080847D01*
X0093520Y0081189D01*
X0093623Y0081570D01*
X0093623Y0085992D01*
X0093623Y0085863D02*
X0100995Y0085863D01*
X0100995Y0084865D02*
X0093623Y0084865D01*
X0093623Y0083866D02*
X0100995Y0083866D01*
X0100995Y0082868D02*
X0093623Y0082868D01*
X0093623Y0081869D02*
X0100995Y0081869D01*
X0100995Y0080871D02*
X0093337Y0080871D01*
X0087111Y0080871D02*
X0086111Y0080871D01*
X0086111Y0080268D02*
X0086111Y0085992D01*
X0079599Y0085992D01*
X0079599Y0081570D01*
X0079701Y0081189D01*
X0079899Y0080847D01*
X0080178Y0080567D01*
X0080520Y0080370D01*
X0080902Y0080268D01*
X0086111Y0080268D01*
X0086111Y0081869D02*
X0087111Y0081869D01*
X0087111Y0082868D02*
X0086111Y0082868D01*
X0086111Y0083866D02*
X0087111Y0083866D01*
X0087111Y0084865D02*
X0086111Y0084865D01*
X0086111Y0085863D02*
X0087111Y0085863D01*
X0087111Y0086862D02*
X0100995Y0086862D01*
X0104195Y0086862D02*
X0132916Y0086862D01*
X0131917Y0087860D02*
X0104195Y0087860D01*
X0104195Y0088859D02*
X0130919Y0088859D01*
X0129920Y0089857D02*
X0104195Y0089857D01*
X0104195Y0090856D02*
X0128922Y0090856D01*
X0127923Y0091854D02*
X0104195Y0091854D01*
X0104195Y0092853D02*
X0126925Y0092853D01*
X0125926Y0093851D02*
X0104195Y0093851D01*
X0104195Y0094850D02*
X0124928Y0094850D01*
X0123929Y0095848D02*
X0104195Y0095848D01*
X0104195Y0096847D02*
X0122931Y0096847D01*
X0121932Y0097845D02*
X0104195Y0097845D01*
X0104195Y0098844D02*
X0120934Y0098844D01*
X0119935Y0099842D02*
X0104195Y0099842D01*
X0104195Y0100841D02*
X0118937Y0100841D01*
X0117938Y0101839D02*
X0104195Y0101839D01*
X0104195Y0102838D02*
X0116939Y0102838D01*
X0115941Y0103836D02*
X0104195Y0103836D01*
X0104195Y0104835D02*
X0114942Y0104835D01*
X0113944Y0105833D02*
X0104195Y0105833D01*
X0104195Y0106832D02*
X0112945Y0106832D01*
X0111947Y0107830D02*
X0104195Y0107830D01*
X0104195Y0108829D02*
X0110948Y0108829D01*
X0109950Y0109827D02*
X0104195Y0109827D01*
X0104195Y0110826D02*
X0108951Y0110826D01*
X0107953Y0111824D02*
X0104195Y0111824D01*
X0104195Y0112823D02*
X0106954Y0112823D01*
X0105956Y0113821D02*
X0104195Y0113821D01*
X0104195Y0114820D02*
X0104957Y0114820D01*
X0107486Y0116817D02*
X0120995Y0116817D01*
X0120995Y0117815D02*
X0106487Y0117815D01*
X0105489Y0118814D02*
X0120995Y0118814D01*
X0120995Y0119812D02*
X0104490Y0119812D01*
X0104195Y0120811D02*
X0120995Y0120811D01*
X0120995Y0121810D02*
X0104195Y0121810D01*
X0104195Y0122808D02*
X0120995Y0122808D01*
X0120995Y0123807D02*
X0104195Y0123807D01*
X0104195Y0124805D02*
X0121204Y0124805D01*
X0122203Y0125804D02*
X0104195Y0125804D01*
X0104195Y0126802D02*
X0123201Y0126802D01*
X0124200Y0127801D02*
X0104195Y0127801D01*
X0104195Y0128799D02*
X0125198Y0128799D01*
X0126197Y0129798D02*
X0104195Y0129798D01*
X0104195Y0130796D02*
X0127195Y0130796D01*
X0128194Y0131795D02*
X0104195Y0131795D01*
X0104195Y0132793D02*
X0129192Y0132793D01*
X0130191Y0133792D02*
X0104195Y0133792D01*
X0104195Y0134790D02*
X0131189Y0134790D01*
X0132188Y0135789D02*
X0104195Y0135789D01*
X0104195Y0136787D02*
X0133187Y0136787D01*
X0134185Y0137786D02*
X0104195Y0137786D01*
X0104195Y0138784D02*
X0135184Y0138784D01*
X0136182Y0139783D02*
X0104195Y0139783D01*
X0104195Y0140781D02*
X0137181Y0140781D01*
X0137952Y0155759D02*
X0121684Y0155759D01*
X0122682Y0156757D02*
X0137952Y0156757D01*
X0137952Y0157756D02*
X0123681Y0157756D01*
X0121152Y0159753D02*
X0073465Y0159753D01*
X0073362Y0159070D02*
X0073362Y0159070D01*
X0073210Y0158754D02*
X0120154Y0158754D01*
X0119155Y0157756D02*
X0072729Y0157756D01*
X0073616Y0160751D02*
X0122151Y0160751D01*
X0123149Y0161750D02*
X0073766Y0161750D01*
X0073917Y0162748D02*
X0124148Y0162748D01*
X0125146Y0163747D02*
X0074067Y0163747D01*
X0073973Y0164745D02*
X0126145Y0164745D01*
X0111118Y0155759D02*
X0104073Y0155759D01*
X0105566Y0154760D02*
X0109624Y0154760D01*
X0108915Y0153762D02*
X0106275Y0153762D01*
X0106689Y0152763D02*
X0108501Y0152763D01*
X0108495Y0151765D02*
X0106695Y0151765D01*
X0106695Y0150766D02*
X0108495Y0150766D01*
X0108495Y0149768D02*
X0106695Y0149768D01*
X0102595Y0148933D02*
X0102595Y0119445D01*
X0142595Y0079445D01*
X0137952Y0079872D02*
X0104195Y0079872D01*
X0104195Y0078874D02*
X0137952Y0078874D01*
X0137952Y0077875D02*
X0104195Y0077875D01*
X0104195Y0076877D02*
X0137952Y0076877D01*
X0137952Y0075878D02*
X0104195Y0075878D01*
X0100995Y0075878D02*
X0043895Y0075878D01*
X0043895Y0076877D02*
X0100995Y0076877D01*
X0100995Y0077875D02*
X0043895Y0077875D01*
X0043895Y0078874D02*
X0100995Y0078874D01*
X0100995Y0079872D02*
X0043895Y0079872D01*
X0043895Y0080871D02*
X0055869Y0080871D01*
X0055883Y0080847D02*
X0056162Y0080567D01*
X0056504Y0080370D01*
X0056886Y0080268D01*
X0062095Y0080268D01*
X0062095Y0085992D01*
X0063095Y0085992D01*
X0063095Y0080268D01*
X0068304Y0080268D01*
X0068686Y0080370D01*
X0069028Y0080567D01*
X0069307Y0080847D01*
X0069505Y0081189D01*
X0069607Y0081570D01*
X0069607Y0085992D01*
X0063095Y0085992D01*
X0063095Y0086992D01*
X0069607Y0086992D01*
X0069607Y0091414D01*
X0069505Y0091796D01*
X0069307Y0092138D01*
X0069028Y0092417D01*
X0068686Y0092614D01*
X0068304Y0092717D01*
X0063095Y0092717D01*
X0063095Y0086992D01*
X0062095Y0086992D01*
X0062095Y0085992D01*
X0055583Y0085992D01*
X0055583Y0081570D01*
X0055686Y0081189D01*
X0055883Y0080847D01*
X0055583Y0081869D02*
X0043895Y0081869D01*
X0043895Y0082868D02*
X0055583Y0082868D01*
X0055583Y0083866D02*
X0043895Y0083866D01*
X0043895Y0084865D02*
X0055583Y0084865D01*
X0055583Y0085863D02*
X0043895Y0085863D01*
X0043895Y0086862D02*
X0062095Y0086862D01*
X0062095Y0086992D02*
X0055583Y0086992D01*
X0055583Y0091414D01*
X0055686Y0091796D01*
X0055883Y0092138D01*
X0056162Y0092417D01*
X0056504Y0092614D01*
X0056886Y0092717D01*
X0062095Y0092717D01*
X0062095Y0086992D01*
X0062095Y0087860D02*
X0063095Y0087860D01*
X0063095Y0086862D02*
X0086111Y0086862D01*
X0086111Y0086992D02*
X0079599Y0086992D01*
X0079599Y0091414D01*
X0079701Y0091796D01*
X0079899Y0092138D01*
X0080178Y0092417D01*
X0080520Y0092614D01*
X0080902Y0092717D01*
X0086111Y0092717D01*
X0086111Y0086992D01*
X0086111Y0087860D02*
X0087111Y0087860D01*
X0087111Y0088859D02*
X0086111Y0088859D01*
X0086111Y0089857D02*
X0087111Y0089857D01*
X0087111Y0090856D02*
X0086111Y0090856D01*
X0086111Y0091854D02*
X0087111Y0091854D01*
X0079735Y0091854D02*
X0069471Y0091854D01*
X0069607Y0090856D02*
X0079599Y0090856D01*
X0079599Y0089857D02*
X0069607Y0089857D01*
X0069607Y0088859D02*
X0079599Y0088859D01*
X0079599Y0087860D02*
X0069607Y0087860D01*
X0069607Y0085863D02*
X0079599Y0085863D01*
X0079599Y0084865D02*
X0069607Y0084865D01*
X0069607Y0083866D02*
X0079599Y0083866D01*
X0079599Y0082868D02*
X0069607Y0082868D01*
X0069607Y0081869D02*
X0079599Y0081869D01*
X0079885Y0080871D02*
X0069321Y0080871D01*
X0063095Y0080871D02*
X0062095Y0080871D01*
X0062095Y0081869D02*
X0063095Y0081869D01*
X0063095Y0082868D02*
X0062095Y0082868D01*
X0062095Y0083866D02*
X0063095Y0083866D01*
X0063095Y0084865D02*
X0062095Y0084865D01*
X0062095Y0085863D02*
X0063095Y0085863D01*
X0063095Y0088859D02*
X0062095Y0088859D01*
X0062095Y0089857D02*
X0063095Y0089857D01*
X0063095Y0090856D02*
X0062095Y0090856D01*
X0062095Y0091854D02*
X0063095Y0091854D01*
X0055719Y0091854D02*
X0043895Y0091854D01*
X0043895Y0090856D02*
X0055583Y0090856D01*
X0055583Y0089857D02*
X0043895Y0089857D01*
X0043895Y0088859D02*
X0055583Y0088859D01*
X0055583Y0087860D02*
X0043895Y0087860D01*
X0043895Y0074879D02*
X0100995Y0074879D01*
X0100995Y0073881D02*
X0043895Y0073881D01*
X0043895Y0072882D02*
X0100995Y0072882D01*
X0100995Y0071884D02*
X0043895Y0071884D01*
X0043895Y0068888D02*
X0051042Y0068888D01*
X0049345Y0068222D02*
X0049345Y0068222D01*
X0048928Y0067890D02*
X0043895Y0067890D01*
X0043895Y0066891D02*
X0047676Y0066891D01*
X0046424Y0065893D02*
X0043895Y0065893D01*
X0043895Y0064894D02*
X0045321Y0064894D01*
X0045500Y0065156D02*
X0045500Y0065156D01*
X0044641Y0063896D02*
X0043895Y0063896D01*
X0043895Y0062897D02*
X0043960Y0062897D01*
X0073948Y0054909D02*
X0089356Y0054909D01*
X0090355Y0053911D02*
X0074092Y0053911D01*
X0074095Y0053933D02*
X0074095Y0053933D01*
X0073941Y0052912D02*
X0091353Y0052912D01*
X0097891Y0060900D02*
X0098495Y0060900D01*
X0098495Y0061899D02*
X0096892Y0061899D01*
X0096695Y0062897D02*
X0098495Y0062897D01*
X0102595Y0063933D02*
X0102595Y0117182D01*
X0100995Y0118782D01*
X0100995Y0140533D01*
X0092595Y0148933D01*
X0096695Y0148769D02*
X0098495Y0148769D01*
X0098495Y0147771D02*
X0096695Y0147771D01*
X0097019Y0146772D02*
X0098495Y0146772D01*
X0098495Y0145774D02*
X0098017Y0145774D01*
X0096487Y0142778D02*
X0095239Y0142778D01*
X0097486Y0141780D02*
X0084356Y0141780D01*
X0083095Y0141780D02*
X0082095Y0141780D01*
X0082095Y0142778D02*
X0083095Y0142778D01*
X0083095Y0143777D02*
X0082095Y0143777D01*
X0082095Y0144775D02*
X0083095Y0144775D01*
X0083095Y0145774D02*
X0082095Y0145774D01*
X0082095Y0146772D02*
X0083095Y0146772D01*
X0083095Y0147771D02*
X0082095Y0147771D01*
X0082095Y0148769D02*
X0063962Y0148769D01*
X0063623Y0148574D02*
X0063623Y0148574D01*
X0068974Y0136787D02*
X0080232Y0136787D01*
X0079999Y0136554D02*
X0079999Y0126194D01*
X0080643Y0125550D01*
X0092578Y0125550D01*
X0093223Y0126194D01*
X0093223Y0136554D01*
X0092578Y0137198D01*
X0080643Y0137198D01*
X0079999Y0136554D01*
X0079999Y0135789D02*
X0069207Y0135789D01*
X0069207Y0134790D02*
X0079999Y0134790D01*
X0079999Y0133792D02*
X0069207Y0133792D01*
X0069207Y0132793D02*
X0079999Y0132793D01*
X0079999Y0131795D02*
X0069207Y0131795D01*
X0069207Y0130796D02*
X0079999Y0130796D01*
X0079999Y0129798D02*
X0069983Y0129798D01*
X0070982Y0128799D02*
X0079999Y0128799D01*
X0079999Y0127801D02*
X0071980Y0127801D01*
X0072979Y0126802D02*
X0079999Y0126802D01*
X0080389Y0125804D02*
X0073977Y0125804D01*
X0074976Y0124805D02*
X0099395Y0124805D01*
X0099395Y0123807D02*
X0075974Y0123807D01*
X0076973Y0122808D02*
X0099395Y0122808D01*
X0099395Y0121810D02*
X0077971Y0121810D01*
X0079379Y0120811D02*
X0099395Y0120811D01*
X0099395Y0119812D02*
X0080033Y0119812D01*
X0080184Y0118814D02*
X0099395Y0118814D01*
X0099699Y0117815D02*
X0079934Y0117815D01*
X0078547Y0113821D02*
X0064643Y0113821D01*
X0066201Y0112823D02*
X0076990Y0112823D01*
X0076056Y0111824D02*
X0067134Y0111824D01*
X0067548Y0110826D02*
X0075642Y0110826D01*
X0075295Y0109827D02*
X0067895Y0109827D01*
X0067895Y0108829D02*
X0075295Y0108829D01*
X0075315Y0107830D02*
X0067875Y0107830D01*
X0067461Y0106832D02*
X0075729Y0106832D01*
X0076200Y0105833D02*
X0066991Y0105833D01*
X0065992Y0104835D02*
X0077198Y0104835D01*
X0059198Y0104835D02*
X0043895Y0104835D01*
X0043895Y0105833D02*
X0058200Y0105833D01*
X0057729Y0106832D02*
X0043895Y0106832D01*
X0043895Y0107830D02*
X0057315Y0107830D01*
X0057295Y0108829D02*
X0043895Y0108829D01*
X0043895Y0109827D02*
X0057295Y0109827D01*
X0057642Y0110826D02*
X0043895Y0110826D01*
X0043895Y0111824D02*
X0058056Y0111824D01*
X0058990Y0112823D02*
X0043895Y0112823D01*
X0043895Y0113821D02*
X0060547Y0113821D01*
X0085804Y0142778D02*
X0089952Y0142778D01*
X0089051Y0143777D02*
X0086547Y0143777D01*
X0086951Y0144775D02*
X0088637Y0144775D01*
X0088495Y0145774D02*
X0087095Y0145774D01*
X0087095Y0146772D02*
X0088495Y0146772D01*
X0088495Y0147771D02*
X0087095Y0147771D01*
X0087095Y0149433D02*
X0083095Y0149433D01*
X0083095Y0156410D01*
X0083649Y0156322D01*
X0084323Y0156103D01*
X0084954Y0155782D01*
X0085527Y0155365D01*
X0086028Y0154865D01*
X0086444Y0154292D01*
X0086765Y0153660D01*
X0086984Y0152987D01*
X0087095Y0152287D01*
X0087095Y0149433D01*
X0087095Y0149768D02*
X0088495Y0149768D01*
X0088495Y0150766D02*
X0087095Y0150766D01*
X0087095Y0151765D02*
X0088495Y0151765D01*
X0088501Y0152763D02*
X0087020Y0152763D01*
X0086714Y0153762D02*
X0088915Y0153762D01*
X0089624Y0154760D02*
X0086103Y0154760D01*
X0084985Y0155759D02*
X0091118Y0155759D01*
X0094073Y0155759D02*
X0101118Y0155759D01*
X0099624Y0154760D02*
X0095566Y0154760D01*
X0096275Y0153762D02*
X0098915Y0153762D01*
X0098501Y0152763D02*
X0096689Y0152763D01*
X0096695Y0151765D02*
X0098495Y0151765D01*
X0098495Y0150766D02*
X0096695Y0150766D01*
X0096695Y0149768D02*
X0098495Y0149768D01*
X0088495Y0148769D02*
X0083095Y0148769D01*
X0083095Y0149768D02*
X0082095Y0149768D01*
X0082095Y0150766D02*
X0083095Y0150766D01*
X0083095Y0151765D02*
X0082095Y0151765D01*
X0082095Y0152763D02*
X0083095Y0152763D01*
X0083095Y0153762D02*
X0082095Y0153762D01*
X0082095Y0154760D02*
X0083095Y0154760D01*
X0083095Y0155759D02*
X0082095Y0155759D01*
X0073822Y0165744D02*
X0166279Y0165744D01*
X0166387Y0166743D02*
X0073672Y0166743D01*
X0073521Y0167741D02*
X0166695Y0167741D01*
X0167003Y0168740D02*
X0073371Y0168740D01*
X0073362Y0168797D02*
X0073362Y0168797D01*
X0072909Y0169738D02*
X0167311Y0169738D01*
X0167619Y0170737D02*
X0072428Y0170737D01*
X0071947Y0171735D02*
X0168168Y0171735D01*
X0167729Y0171092D02*
X0167729Y0171092D01*
X0168848Y0172734D02*
X0071466Y0172734D01*
X0071228Y0173228D02*
X0071228Y0173228D01*
X0070760Y0173732D02*
X0169529Y0173732D01*
X0170210Y0174731D02*
X0069834Y0174731D01*
X0068907Y0175729D02*
X0171219Y0175729D01*
X0170500Y0175156D02*
X0170500Y0175156D01*
X0172471Y0176728D02*
X0067981Y0176728D01*
X0092990Y0136787D02*
X0099395Y0136787D01*
X0099395Y0135789D02*
X0093223Y0135789D01*
X0093223Y0134790D02*
X0099395Y0134790D01*
X0099395Y0133792D02*
X0093223Y0133792D01*
X0093223Y0132793D02*
X0099395Y0132793D01*
X0099395Y0131795D02*
X0093223Y0131795D01*
X0093223Y0130796D02*
X0099395Y0130796D01*
X0099395Y0129798D02*
X0093223Y0129798D01*
X0093223Y0128799D02*
X0099395Y0128799D01*
X0099395Y0127801D02*
X0093223Y0127801D01*
X0093223Y0126802D02*
X0099395Y0126802D01*
X0099395Y0125804D02*
X0092832Y0125804D01*
X0108484Y0115818D02*
X0120995Y0115818D01*
X0120995Y0114820D02*
X0109483Y0114820D01*
X0110481Y0113821D02*
X0120995Y0113821D01*
X0120995Y0112823D02*
X0111480Y0112823D01*
X0120466Y0103836D02*
X0132209Y0103836D01*
X0132981Y0103836D02*
X0182095Y0103836D01*
X0182095Y0102838D02*
X0183095Y0102838D01*
X0183095Y0101839D02*
X0182095Y0101839D01*
X0182095Y0100841D02*
X0183095Y0100841D01*
X0183095Y0099842D02*
X0182095Y0099842D01*
X0184245Y0097845D02*
X0126458Y0097845D01*
X0127456Y0096847D02*
X0183246Y0096847D01*
X0182248Y0095848D02*
X0128455Y0095848D01*
X0129453Y0094850D02*
X0181249Y0094850D01*
X0180251Y0093851D02*
X0130452Y0093851D01*
X0131450Y0092853D02*
X0179252Y0092853D01*
X0178254Y0091854D02*
X0132449Y0091854D01*
X0133447Y0090856D02*
X0177255Y0090856D01*
X0176256Y0089857D02*
X0134446Y0089857D01*
X0135444Y0088859D02*
X0175258Y0088859D01*
X0174259Y0087860D02*
X0136443Y0087860D01*
X0137441Y0086862D02*
X0173261Y0086862D01*
X0172262Y0085863D02*
X0138440Y0085863D01*
X0139438Y0084865D02*
X0171264Y0084865D01*
X0170265Y0083866D02*
X0140437Y0083866D01*
X0137908Y0081869D02*
X0104195Y0081869D01*
X0104195Y0080871D02*
X0137952Y0080871D01*
X0136910Y0082868D02*
X0104195Y0082868D01*
X0104195Y0083866D02*
X0135911Y0083866D01*
X0134913Y0084865D02*
X0104195Y0084865D01*
X0104195Y0085863D02*
X0133914Y0085863D01*
X0147238Y0082868D02*
X0152952Y0082868D01*
X0152952Y0081869D02*
X0147238Y0081869D01*
X0147238Y0080871D02*
X0152952Y0080871D01*
X0152952Y0079872D02*
X0147238Y0079872D01*
X0147238Y0078874D02*
X0152952Y0078874D01*
X0152952Y0077875D02*
X0147238Y0077875D01*
X0147238Y0076877D02*
X0152952Y0076877D01*
X0152952Y0075878D02*
X0147238Y0075878D01*
X0147238Y0071884D02*
X0152952Y0071884D01*
X0152952Y0070885D02*
X0147238Y0070885D01*
X0147238Y0069887D02*
X0152952Y0069887D01*
X0155995Y0063896D02*
X0144195Y0063896D01*
X0140995Y0063896D02*
X0113095Y0063896D01*
X0113095Y0064894D02*
X0112095Y0064894D01*
X0112095Y0064433D02*
X0112095Y0071410D01*
X0111541Y0071322D01*
X0110868Y0071103D01*
X0110237Y0070782D01*
X0109664Y0070365D01*
X0109163Y0069865D01*
X0108746Y0069292D01*
X0108425Y0068660D01*
X0108206Y0067987D01*
X0108095Y0067287D01*
X0108095Y0064433D01*
X0112095Y0064433D01*
X0112095Y0063896D02*
X0106695Y0063896D01*
X0106695Y0064894D02*
X0108095Y0064894D01*
X0108095Y0065893D02*
X0106695Y0065893D01*
X0106695Y0066891D02*
X0108095Y0066891D01*
X0108191Y0067890D02*
X0106637Y0067890D01*
X0106223Y0068888D02*
X0108541Y0068888D01*
X0109185Y0069887D02*
X0105440Y0069887D01*
X0104195Y0070885D02*
X0110440Y0070885D01*
X0112095Y0070885D02*
X0113095Y0070885D01*
X0113095Y0069887D02*
X0112095Y0069887D01*
X0112095Y0068888D02*
X0113095Y0068888D01*
X0113095Y0067890D02*
X0112095Y0067890D01*
X0112095Y0066891D02*
X0113095Y0066891D01*
X0113095Y0065893D02*
X0112095Y0065893D01*
X0108095Y0062897D02*
X0106695Y0062897D01*
X0106695Y0061899D02*
X0108095Y0061899D01*
X0108095Y0060900D02*
X0106695Y0060900D01*
X0106606Y0059902D02*
X0108202Y0059902D01*
X0108579Y0058903D02*
X0106192Y0058903D01*
X0116905Y0059445D02*
X0142595Y0059445D01*
X0142595Y0068421D01*
X0152831Y0056906D02*
X0152952Y0056906D01*
X0152952Y0055908D02*
X0151833Y0055908D01*
X0157095Y0052912D02*
X0158095Y0052912D01*
X0158095Y0051914D02*
X0157095Y0051914D01*
X0157095Y0050915D02*
X0158095Y0050915D01*
X0158095Y0049917D02*
X0157095Y0049917D01*
X0143095Y0046921D02*
X0142095Y0046921D01*
X0142095Y0045923D02*
X0143095Y0045923D01*
X0143095Y0044924D02*
X0142095Y0044924D01*
X0142095Y0043926D02*
X0143095Y0043926D01*
X0162238Y0081869D02*
X0168268Y0081869D01*
X0169267Y0082868D02*
X0162238Y0082868D01*
X0178565Y0099842D02*
X0134374Y0099842D01*
X0132981Y0099842D02*
X0132209Y0099842D01*
X0132209Y0100841D02*
X0132981Y0100841D01*
X0132981Y0101839D02*
X0132209Y0101839D01*
X0132209Y0102838D02*
X0132981Y0102838D01*
X0132981Y0104835D02*
X0132209Y0104835D01*
X0132209Y0105833D02*
X0132981Y0105833D01*
X0132981Y0106832D02*
X0132209Y0106832D01*
X0132209Y0107830D02*
X0132981Y0107830D01*
X0136921Y0102838D02*
X0178095Y0102838D01*
X0178095Y0101839D02*
X0136526Y0101839D01*
X0135800Y0100841D02*
X0178095Y0100841D01*
X0182095Y0104835D02*
X0183095Y0104835D01*
X0183095Y0105833D02*
X0182095Y0105833D01*
X0182095Y0106832D02*
X0183095Y0106832D01*
X0183095Y0107830D02*
X0182095Y0107830D01*
X0188295Y0114820D02*
X0196295Y0114820D01*
X0196295Y0115818D02*
X0188295Y0115818D01*
X0188295Y0116817D02*
X0196295Y0116817D01*
X0196295Y0117815D02*
X0188295Y0117815D01*
X0188295Y0118814D02*
X0196295Y0118814D01*
X0196295Y0119812D02*
X0188295Y0119812D01*
X0188295Y0120811D02*
X0196295Y0120811D01*
X0196295Y0121810D02*
X0188295Y0121810D01*
X0188295Y0122808D02*
X0196295Y0122808D01*
X0196295Y0123807D02*
X0188295Y0123807D01*
X0188295Y0124805D02*
X0196295Y0124805D01*
X0196295Y0125804D02*
X0188295Y0125804D01*
X0188295Y0126802D02*
X0196295Y0126802D01*
X0196295Y0127801D02*
X0188295Y0127801D01*
X0188295Y0128799D02*
X0196295Y0128799D01*
X0196295Y0129798D02*
X0188295Y0129798D01*
X0188295Y0130796D02*
X0196295Y0130796D01*
X0196295Y0131795D02*
X0188295Y0131795D01*
X0188261Y0132793D02*
X0196295Y0132793D01*
X0196295Y0133792D02*
X0187262Y0133792D01*
X0186264Y0134790D02*
X0196295Y0134790D01*
X0196295Y0135789D02*
X0185265Y0135789D01*
X0184266Y0136787D02*
X0196295Y0136787D01*
X0196295Y0137786D02*
X0183268Y0137786D01*
X0182269Y0138784D02*
X0196295Y0138784D01*
X0196295Y0139783D02*
X0181271Y0139783D01*
X0180272Y0140781D02*
X0196295Y0140781D01*
X0196295Y0141780D02*
X0179274Y0141780D01*
X0178275Y0142778D02*
X0196295Y0142778D01*
X0196295Y0143777D02*
X0177277Y0143777D01*
X0176278Y0144775D02*
X0196295Y0144775D01*
X0196295Y0145774D02*
X0175280Y0145774D01*
X0174281Y0146772D02*
X0196295Y0146772D01*
X0196295Y0147771D02*
X0185106Y0147771D01*
X0183828Y0147479D02*
X0183828Y0147479D01*
X0179937Y0147771D02*
X0173283Y0147771D01*
X0172284Y0148769D02*
X0176573Y0148769D01*
X0178924Y0147847D02*
X0178924Y0147847D01*
X0174189Y0149768D02*
X0171286Y0149768D01*
X0188623Y0148574D02*
X0188623Y0148574D01*
X0188962Y0148769D02*
X0196295Y0148769D01*
X0196295Y0149768D02*
X0190692Y0149768D01*
X0192421Y0150766D02*
X0196295Y0150766D01*
X0196295Y0151765D02*
X0193562Y0151765D01*
X0192883Y0151033D02*
X0192883Y0151033D01*
X0194488Y0152763D02*
X0196295Y0152763D01*
X0196295Y0153762D02*
X0195415Y0153762D01*
X0196287Y0154760D02*
X0196295Y0154760D01*
X0185095Y0098844D02*
X0125459Y0098844D01*
X0124460Y0099842D02*
X0130816Y0099842D01*
X0129390Y0100841D02*
X0123462Y0100841D01*
X0122463Y0101839D02*
X0128665Y0101839D01*
X0128269Y0102838D02*
X0121465Y0102838D01*
D17*
X0077595Y0118933D02*
X0062595Y0133933D01*
X0062595Y0131374D01*
D18*
X0077595Y0118933D03*
M02*
