%
M48
M72
T01C0.01378
T02C0.03543
T03C0.04000
T04C0.08000
T05C0.12992
%
T01
X77595Y118933
T02
X122595Y108933
X132595Y103933
X142595Y108933
T03
X182595Y103933
X182595Y113933
X112595Y148933
X102595Y148933
X92595Y148933
X82595Y148933
X82595Y63933
X92595Y63933
X102595Y63933
X112595Y63933
T04
X80595Y108933
X62595Y108933
T05
X57595Y53933
X57595Y163933
X182595Y163933
X182595Y53933
M30
