G75*
%MOIN*%
%OFA0B0*%
%FSLAX25Y25*%
%IPPOS*%
%LPD*%
%AMOC8*
5,1,8,0,0,1.08239X$1,22.5*
%
%ADD10C,0.00400*%
%ADD11C,0.00800*%
%ADD12C,0.00600*%
%ADD13R,0.01772X0.00148*%
%ADD14R,0.02215X0.00148*%
%ADD15R,0.02657X0.00148*%
%ADD16R,0.03100X0.00148*%
%ADD17R,0.03544X0.00148*%
%ADD18R,0.03838X0.00148*%
%ADD19R,0.04429X0.00148*%
%ADD20R,0.04724X0.00148*%
%ADD21R,0.05315X0.00148*%
%ADD22R,0.05610X0.00148*%
%ADD23R,0.06201X0.00148*%
%ADD24R,0.06644X0.00148*%
%ADD25R,0.06939X0.00148*%
%ADD26R,0.07529X0.00148*%
%ADD27R,0.03691X0.00148*%
%ADD28R,0.03691X0.00148*%
%ADD29R,0.03691X0.00148*%
%ADD30R,0.03543X0.00148*%
%ADD31R,0.03543X0.00148*%
%ADD32R,0.03839X0.00148*%
%ADD33R,0.03839X0.00148*%
%ADD34R,0.03248X0.00148*%
%ADD35R,0.03986X0.00148*%
%ADD36R,0.04725X0.00148*%
%ADD37R,0.05167X0.00148*%
%ADD38R,0.05757X0.00148*%
%ADD39R,0.06054X0.00148*%
%ADD40R,0.01920X0.00148*%
%ADD41R,0.01772X0.00148*%
%ADD42R,0.01624X0.00148*%
%ADD43R,0.01624X0.00148*%
%ADD44R,0.01476X0.00148*%
%ADD45R,0.01624X0.00148*%
%ADD46R,0.03986X0.00148*%
%ADD47R,0.01771X0.00148*%
%ADD48R,0.02067X0.00148*%
%ADD49R,0.01919X0.00148*%
%ADD50R,0.02510X0.00148*%
%ADD51R,0.02067X0.00148*%
%ADD52R,0.04576X0.00148*%
%ADD53R,0.03396X0.00148*%
%ADD54R,0.02363X0.00148*%
%ADD55R,0.05315X0.00148*%
%ADD56R,0.03987X0.00148*%
%ADD57R,0.06053X0.00148*%
%ADD58R,0.05610X0.00148*%
%ADD59R,0.00886X0.00148*%
%ADD60R,0.05758X0.00148*%
%ADD61R,0.04282X0.00148*%
%ADD62R,0.00591X0.00148*%
%ADD63R,0.05906X0.00148*%
%ADD64R,0.04134X0.00148*%
%ADD65R,0.00443X0.00148*%
%ADD66R,0.04872X0.00148*%
%ADD67R,0.04133X0.00148*%
%ADD68R,0.02067X0.00148*%
%ADD69R,0.01034X0.00148*%
%ADD70R,0.04134X0.00148*%
%ADD71R,0.03396X0.00148*%
%ADD72R,0.03395X0.00148*%
%ADD73R,0.05020X0.00148*%
%ADD74R,0.02657X0.00148*%
%ADD75R,0.02362X0.00148*%
%ADD76R,0.01919X0.00148*%
%ADD77R,0.02953X0.00148*%
%ADD78R,0.02215X0.00148*%
%ADD79R,0.01328X0.00148*%
%ADD80R,0.05463X0.00148*%
%ADD81R,0.05167X0.00148*%
%ADD82R,0.04577X0.00148*%
%ADD83R,0.03100X0.00148*%
%ADD84R,0.01329X0.00148*%
%ADD85R,0.02806X0.00148*%
%ADD86R,0.04281X0.00148*%
%ADD87R,0.00885X0.00148*%
%ADD88R,0.06791X0.00148*%
%ADD89R,0.04281X0.00148*%
%ADD90R,0.06939X0.00148*%
%ADD91R,0.04872X0.00148*%
%ADD92R,0.06939X0.00148*%
%ADD93R,0.05315X0.00148*%
%ADD94R,0.02362X0.00148*%
%ADD95R,0.01181X0.00148*%
%ADD96R,0.05758X0.00148*%
%ADD97R,0.06201X0.00148*%
%ADD98R,0.06053X0.00148*%
%ADD99R,0.05905X0.00148*%
%ADD100R,0.06643X0.00148*%
%ADD101R,0.08563X0.00148*%
%ADD102R,0.08120X0.00148*%
%ADD103R,0.07677X0.00148*%
%ADD104R,0.07235X0.00148*%
%ADD105R,0.05463X0.00148*%
%ADD106R,0.04872X0.00148*%
%ADD107R,0.06348X0.00148*%
%ADD108R,0.04724X0.00148*%
%ADD109R,0.07382X0.00148*%
%ADD110R,0.07677X0.00148*%
%ADD111R,0.08268X0.00148*%
%ADD112R,0.06644X0.00148*%
%ADD113R,0.07530X0.00148*%
%ADD114R,0.07825X0.00148*%
%ADD115R,0.08415X0.00148*%
%ADD116R,0.07972X0.00148*%
%ADD117R,0.06792X0.00148*%
%ADD118R,0.06496X0.00148*%
%ADD119R,0.05019X0.00148*%
%ADD120R,0.04577X0.00148*%
%ADD121R,0.05020X0.00148*%
%ADD122R,0.05462X0.00148*%
%ADD123R,0.06200X0.00148*%
%ADD124R,0.07234X0.00148*%
%ADD125R,0.06348X0.00148*%
%ADD126R,0.01033X0.00148*%
%ADD127R,0.07087X0.00148*%
%ADD128R,0.06496X0.00148*%
%ADD129R,0.01181X0.00148*%
%ADD130R,0.01181X0.00148*%
%ADD131R,0.01329X0.00148*%
%ADD132R,0.03101X0.00148*%
%ADD133R,0.00886X0.00148*%
%ADD134R,0.03248X0.00148*%
%ADD135R,0.02805X0.00148*%
%ADD136R,0.07086X0.00148*%
%ADD137R,0.08563X0.00148*%
%ADD138R,0.01033X0.00148*%
%ADD139R,0.05611X0.00148*%
%ADD140R,0.02509X0.00148*%
%ADD141R,0.02510X0.00148*%
%ADD142R,0.00295X0.00148*%
%ADD143R,0.00738X0.00148*%
%ADD144R,0.06349X0.00148*%
%ADD145R,0.00148X0.00148*%
%ADD146R,0.02805X0.00148*%
%ADD147R,0.00295X0.00148*%
%ADD148R,0.00590X0.00148*%
%ADD149R,0.00591X0.00148*%
%ADD150R,0.00739X0.00148*%
%ADD151R,0.03248X0.00148*%
%ADD152R,0.06496X0.00148*%
%ADD153R,0.02658X0.00148*%
%ADD154R,0.01476X0.00148*%
%ADD155R,0.00443X0.00148*%
%ADD156R,0.04430X0.00148*%
%ADD157R,0.00147X0.00148*%
%ADD158R,0.05906X0.00148*%
%ADD159R,0.00443X0.00148*%
%ADD160R,0.07382X0.00148*%
%ADD161R,0.07972X0.00148*%
%ADD162R,0.00738X0.00148*%
%ADD163R,0.00148X0.00148*%
%ADD164R,0.00296X0.00148*%
%ADD165R,0.13287X0.00148*%
%ADD166R,0.14764X0.00148*%
%ADD167R,0.14173X0.00148*%
%ADD168R,0.15059X0.00148*%
%ADD169R,0.14469X0.00148*%
%ADD170R,0.15354X0.00148*%
%ADD171R,0.15207X0.00148*%
%ADD172R,0.15649X0.00148*%
%ADD173R,0.15502X0.00148*%
%ADD174R,0.15945X0.00148*%
%ADD175R,0.15944X0.00148*%
%ADD176R,0.16240X0.00148*%
%ADD177R,0.15798X0.00148*%
%ADD178R,0.09006X0.00148*%
%ADD179R,0.16093X0.00148*%
%ADD180R,0.16535X0.00148*%
%ADD181R,0.09302X0.00148*%
%ADD182R,0.16388X0.00148*%
%ADD183R,0.16683X0.00148*%
%ADD184R,0.12402X0.00148*%
%ADD185R,0.08268X0.00148*%
%ADD186R,0.16978X0.00148*%
%ADD187R,0.12696X0.00148*%
%ADD188R,0.08416X0.00148*%
%ADD189R,0.08858X0.00148*%
%ADD190R,0.16831X0.00148*%
%ADD191R,0.17274X0.00148*%
%ADD192R,0.16830X0.00148*%
%ADD193R,0.12992X0.00148*%
%ADD194R,0.08711X0.00148*%
%ADD195R,0.17126X0.00148*%
%ADD196R,0.17569X0.00148*%
%ADD197R,0.16978X0.00148*%
%ADD198R,0.13140X0.00148*%
%ADD199R,0.09154X0.00148*%
%ADD200R,0.17717X0.00148*%
%ADD201R,0.08415X0.00148*%
%ADD202R,0.09301X0.00148*%
%ADD203R,0.17864X0.00148*%
%ADD204R,0.08710X0.00148*%
%ADD205R,0.13583X0.00148*%
%ADD206R,0.09153X0.00148*%
%ADD207R,0.08711X0.00148*%
%ADD208R,0.18012X0.00148*%
%ADD209R,0.08120X0.00148*%
%ADD210R,0.09301X0.00148*%
%ADD211R,0.09449X0.00148*%
%ADD212R,0.18159X0.00148*%
%ADD213R,0.09448X0.00148*%
%ADD214R,0.09596X0.00148*%
%ADD215R,0.11368X0.00148*%
%ADD216R,0.09006X0.00148*%
%ADD217R,0.11663X0.00148*%
%ADD218R,0.08563X0.00148*%
%ADD219R,0.18455X0.00148*%
%ADD220R,0.21850X0.00148*%
%ADD221R,0.18159X0.00148*%
%ADD222R,0.09744X0.00148*%
%ADD223R,0.18307X0.00148*%
%ADD224R,0.21998X0.00148*%
%ADD225R,0.09892X0.00148*%
%ADD226R,0.18307X0.00148*%
%ADD227R,0.18750X0.00148*%
%ADD228R,0.14320X0.00148*%
%ADD229R,0.22146X0.00148*%
%ADD230R,0.14616X0.00148*%
%ADD231R,0.15650X0.00148*%
%ADD232R,0.08267X0.00148*%
%ADD233R,0.02952X0.00148*%
%ADD234R,0.12992X0.00148*%
%ADD235R,0.12106X0.00148*%
%ADD236R,0.09006X0.00148*%
%ADD237R,0.12550X0.00148*%
%ADD238R,0.12254X0.00148*%
%ADD239R,0.11958X0.00148*%
%ADD240R,0.11664X0.00148*%
%ADD241R,0.07530X0.00148*%
%ADD242R,0.12106X0.00148*%
%ADD243R,0.11811X0.00148*%
%ADD244R,0.11959X0.00148*%
%ADD245R,0.11663X0.00148*%
%ADD246R,0.11368X0.00148*%
%ADD247R,0.11516X0.00148*%
%ADD248R,0.10482X0.00148*%
%ADD249R,0.11515X0.00148*%
%ADD250R,0.10335X0.00148*%
%ADD251R,0.11073X0.00148*%
%ADD252R,0.10187X0.00148*%
%ADD253R,0.10187X0.00148*%
%ADD254R,0.11220X0.00148*%
%ADD255R,0.10925X0.00148*%
%ADD256R,0.10187X0.00148*%
%ADD257R,0.11073X0.00148*%
%ADD258R,0.10778X0.00148*%
%ADD259R,0.16831X0.00148*%
%ADD260R,0.16683X0.00148*%
%ADD261R,0.10630X0.00148*%
%ADD262R,0.11220X0.00148*%
%ADD263R,0.16388X0.00148*%
%ADD264R,0.10778X0.00148*%
%ADD265R,0.10482X0.00148*%
%ADD266R,0.07824X0.00148*%
%ADD267R,0.10630X0.00148*%
%ADD268R,0.07678X0.00148*%
%ADD269R,0.11072X0.00148*%
%ADD270R,0.09597X0.00148*%
%ADD271R,0.07087X0.00148*%
%ADD272R,0.10039X0.00148*%
%ADD273R,0.09154X0.00148*%
%ADD274R,0.07973X0.00148*%
%ADD275R,0.07825X0.00148*%
%ADD276R,0.07234X0.00148*%
D10*
X0101777Y0047883D02*
X0104846Y0047883D01*
X0104846Y0052487D01*
X0101777Y0052487D01*
X0103312Y0050185D02*
X0104846Y0050185D01*
X0106381Y0048650D02*
X0106381Y0052487D01*
X0109450Y0052487D02*
X0109450Y0048650D01*
X0108683Y0047883D01*
X0107148Y0047883D01*
X0106381Y0048650D01*
X0110985Y0048650D02*
X0110985Y0051720D01*
X0111752Y0052487D01*
X0113287Y0052487D01*
X0114054Y0051720D01*
X0114054Y0048650D01*
X0113287Y0047883D01*
X0111752Y0047883D01*
X0110985Y0048650D01*
X0110985Y0047883D02*
X0112519Y0049418D01*
X0115589Y0047883D02*
X0118658Y0047883D01*
X0118658Y0052487D01*
X0115589Y0052487D01*
X0117123Y0050185D02*
X0118658Y0050185D01*
X0120193Y0049418D02*
X0120193Y0052487D01*
X0120576Y0055383D02*
X0118274Y0055383D01*
X0117507Y0056150D01*
X0117507Y0056918D01*
X0118274Y0057685D01*
X0120576Y0057685D01*
X0118274Y0057685D02*
X0117507Y0058452D01*
X0117507Y0059220D01*
X0118274Y0059987D01*
X0120576Y0059987D01*
X0120576Y0055383D01*
X0122111Y0055383D02*
X0124413Y0057685D01*
X0125180Y0056918D02*
X0122111Y0059987D01*
X0125180Y0059987D02*
X0125180Y0055383D01*
X0124797Y0052487D02*
X0127866Y0052487D01*
X0127866Y0047883D01*
X0124797Y0047883D01*
X0123262Y0049418D02*
X0123262Y0052487D01*
X0123262Y0049418D02*
X0121727Y0047883D01*
X0120193Y0049418D01*
X0126331Y0050185D02*
X0127866Y0050185D01*
X0129400Y0047883D02*
X0132470Y0047883D01*
X0132470Y0052487D01*
X0131319Y0057685D02*
X0134388Y0057685D01*
X0140527Y0056150D02*
X0141294Y0055383D01*
X0142829Y0055383D01*
X0143596Y0056150D01*
X0140527Y0059220D01*
X0140527Y0056150D01*
X0143596Y0056150D02*
X0143596Y0059220D01*
X0142829Y0059987D01*
X0141294Y0059987D01*
X0140527Y0059220D01*
X0145131Y0056150D02*
X0145131Y0055383D01*
X0145898Y0055383D01*
X0145898Y0056150D01*
X0145131Y0056150D01*
X0147433Y0055383D02*
X0150502Y0055383D01*
X0147433Y0058452D01*
X0147433Y0059220D01*
X0148200Y0059987D01*
X0149734Y0059987D01*
X0150502Y0059220D01*
X0152036Y0058452D02*
X0153571Y0055383D01*
X0155106Y0058452D01*
X0161244Y0057685D02*
X0161244Y0056918D01*
X0164314Y0056918D01*
X0164314Y0057685D02*
X0163546Y0058452D01*
X0162012Y0058452D01*
X0161244Y0057685D01*
X0162012Y0055383D02*
X0163546Y0055383D01*
X0164314Y0056150D01*
X0164314Y0057685D01*
X0165848Y0058452D02*
X0168150Y0058452D01*
X0168918Y0057685D01*
X0168918Y0056150D01*
X0168150Y0055383D01*
X0165848Y0055383D01*
X0164697Y0052487D02*
X0163930Y0051720D01*
X0163930Y0050952D01*
X0164697Y0050185D01*
X0166999Y0050185D01*
X0168534Y0049418D02*
X0168534Y0048650D01*
X0169301Y0047883D01*
X0171603Y0047883D01*
X0171603Y0052487D01*
X0169301Y0052487D01*
X0168534Y0051720D01*
X0168534Y0050952D01*
X0169301Y0050185D01*
X0171603Y0050185D01*
X0173138Y0050185D02*
X0176207Y0050185D01*
X0176207Y0050952D02*
X0176207Y0047883D01*
X0177742Y0047883D02*
X0180811Y0047883D01*
X0180811Y0052487D01*
X0180427Y0055383D02*
X0180427Y0058452D01*
X0180427Y0056918D02*
X0178893Y0058452D01*
X0178125Y0058452D01*
X0176591Y0057685D02*
X0175056Y0057685D01*
X0175823Y0059220D02*
X0175823Y0055383D01*
X0173521Y0056150D02*
X0172754Y0056918D01*
X0170452Y0056918D01*
X0170452Y0057685D02*
X0170452Y0055383D01*
X0172754Y0055383D01*
X0173521Y0056150D01*
X0172754Y0058452D02*
X0171219Y0058452D01*
X0170452Y0057685D01*
X0175056Y0059987D02*
X0175823Y0059220D01*
X0181962Y0057685D02*
X0181962Y0056918D01*
X0185031Y0056918D01*
X0185031Y0057685D02*
X0184264Y0058452D01*
X0182729Y0058452D01*
X0181962Y0057685D01*
X0182729Y0055383D02*
X0184264Y0055383D01*
X0185031Y0056150D01*
X0185031Y0057685D01*
X0186566Y0058452D02*
X0188101Y0058452D01*
X0187333Y0059220D02*
X0187333Y0056150D01*
X0186566Y0055383D01*
X0189635Y0055383D02*
X0189635Y0057685D01*
X0190402Y0058452D01*
X0192704Y0058452D01*
X0192704Y0055383D01*
X0194239Y0055383D02*
X0195774Y0055383D01*
X0195006Y0055383D02*
X0195006Y0059987D01*
X0194239Y0059987D02*
X0195774Y0059987D01*
X0201912Y0058452D02*
X0202680Y0058452D01*
X0204214Y0056918D01*
X0204214Y0058452D02*
X0204214Y0055383D01*
X0205749Y0056918D02*
X0208818Y0056918D01*
X0208818Y0057685D02*
X0208051Y0058452D01*
X0206516Y0058452D01*
X0205749Y0057685D01*
X0205749Y0056918D01*
X0206516Y0055383D02*
X0208051Y0055383D01*
X0208818Y0056150D01*
X0208818Y0057685D01*
X0210353Y0058452D02*
X0212655Y0058452D01*
X0213422Y0057685D01*
X0212655Y0056918D01*
X0211120Y0056918D01*
X0210353Y0056150D01*
X0211120Y0055383D01*
X0213422Y0055383D01*
X0214957Y0056150D02*
X0214957Y0059987D01*
X0218026Y0059987D02*
X0218026Y0056150D01*
X0217259Y0055383D01*
X0215724Y0055383D01*
X0214957Y0056150D01*
X0213806Y0052487D02*
X0213806Y0047883D01*
X0215340Y0047883D02*
X0212271Y0047883D01*
X0210736Y0047883D02*
X0210736Y0048650D01*
X0207667Y0051720D01*
X0207667Y0052487D01*
X0210736Y0052487D01*
X0213806Y0052487D02*
X0215340Y0050952D01*
X0216875Y0051720D02*
X0216875Y0048650D01*
X0217642Y0047883D01*
X0219177Y0047883D01*
X0219944Y0048650D01*
X0216875Y0051720D01*
X0217642Y0052487D01*
X0219177Y0052487D01*
X0219944Y0051720D01*
X0219944Y0048650D01*
X0221479Y0047883D02*
X0224548Y0047883D01*
X0221479Y0050952D01*
X0221479Y0051720D01*
X0222246Y0052487D01*
X0223781Y0052487D01*
X0224548Y0051720D01*
X0201529Y0050185D02*
X0198459Y0050185D01*
X0192321Y0051720D02*
X0190786Y0050185D01*
X0190786Y0047883D01*
X0190786Y0050185D02*
X0189252Y0051720D01*
X0189252Y0052487D01*
X0192321Y0052487D02*
X0192321Y0051720D01*
X0187717Y0048650D02*
X0186950Y0048650D01*
X0186950Y0047883D01*
X0187717Y0047883D01*
X0187717Y0048650D01*
X0176207Y0050952D02*
X0174672Y0052487D01*
X0173138Y0050952D01*
X0173138Y0047883D01*
X0169301Y0050185D02*
X0168534Y0049418D01*
X0166999Y0047883D02*
X0166999Y0052487D01*
X0164697Y0052487D01*
X0162395Y0052487D02*
X0162395Y0047883D01*
X0159326Y0047883D01*
X0160861Y0050185D02*
X0162395Y0050185D01*
X0163930Y0049418D02*
X0163930Y0048650D01*
X0164697Y0047883D01*
X0166999Y0047883D01*
X0164697Y0050185D02*
X0163930Y0049418D01*
X0162395Y0052487D02*
X0159326Y0052487D01*
X0153187Y0051720D02*
X0153187Y0050952D01*
X0150118Y0047883D01*
X0150118Y0049418D02*
X0151653Y0047883D01*
X0152420Y0047883D01*
X0153187Y0048650D01*
X0153187Y0049418D01*
X0151653Y0050952D01*
X0151653Y0051720D01*
X0152420Y0052487D01*
X0153187Y0051720D01*
X0143980Y0051720D02*
X0143980Y0048650D01*
X0143212Y0047883D01*
X0141678Y0047883D01*
X0140910Y0048650D01*
X0140910Y0051720D01*
X0141678Y0052487D01*
X0143212Y0052487D01*
X0143980Y0051720D01*
X0139376Y0048650D02*
X0138608Y0048650D01*
X0138608Y0047883D01*
X0139376Y0047883D01*
X0139376Y0048650D01*
X0115972Y0056150D02*
X0115205Y0055383D01*
X0113670Y0055383D01*
X0112903Y0056150D01*
X0112903Y0059220D01*
X0113670Y0059987D01*
X0115205Y0059987D01*
X0115972Y0059220D01*
X0115972Y0056150D01*
X0111368Y0059987D02*
X0108299Y0059987D01*
X0109834Y0059987D02*
X0109834Y0055383D01*
X0072395Y0094133D02*
X0070093Y0094133D01*
X0069326Y0094900D01*
X0069326Y0095668D01*
X0070093Y0096435D01*
X0072395Y0096435D01*
X0070093Y0096435D02*
X0069326Y0097202D01*
X0069326Y0097970D01*
X0070093Y0098737D01*
X0072395Y0098737D01*
X0072395Y0094133D01*
X0067791Y0094900D02*
X0067024Y0094133D01*
X0065489Y0094133D01*
X0064722Y0094900D01*
X0064722Y0098737D01*
X0063187Y0098737D02*
X0060118Y0098737D01*
X0058583Y0098737D02*
X0055514Y0098737D01*
X0057049Y0098737D02*
X0057049Y0094133D01*
X0053979Y0094900D02*
X0053212Y0094133D01*
X0051677Y0094133D01*
X0050910Y0094900D01*
X0050910Y0097970D01*
X0051677Y0098737D01*
X0053212Y0098737D01*
X0053979Y0097970D01*
X0053979Y0094900D01*
X0049376Y0094133D02*
X0049376Y0098737D01*
X0046306Y0094133D01*
X0046306Y0098737D01*
X0044772Y0097970D02*
X0044004Y0098737D01*
X0042470Y0098737D01*
X0041702Y0097970D01*
X0042470Y0096435D02*
X0041702Y0095668D01*
X0041702Y0094900D01*
X0042470Y0094133D01*
X0044004Y0094133D01*
X0044772Y0094900D01*
X0044004Y0096435D02*
X0042470Y0096435D01*
X0044004Y0096435D02*
X0044772Y0097202D01*
X0044772Y0097970D01*
X0061653Y0098737D02*
X0061653Y0094133D01*
X0067791Y0094900D02*
X0067791Y0098737D01*
X0275514Y0097970D02*
X0276281Y0098737D01*
X0277816Y0098737D01*
X0278583Y0097970D01*
X0278583Y0097202D01*
X0277816Y0096435D01*
X0276281Y0096435D01*
X0275514Y0095668D01*
X0275514Y0094900D01*
X0276281Y0094133D01*
X0277816Y0094133D01*
X0278583Y0094900D01*
X0280118Y0094900D02*
X0280118Y0097970D01*
X0280885Y0098737D01*
X0283187Y0098737D01*
X0283187Y0094133D01*
X0280885Y0094133D01*
X0280118Y0094900D01*
X0284722Y0094133D02*
X0287791Y0094133D01*
X0287791Y0098737D01*
X0284722Y0098737D01*
X0286257Y0096435D02*
X0287791Y0096435D01*
X0289326Y0094133D02*
X0292395Y0094133D01*
X0292395Y0098737D01*
D11*
X0294918Y0104169D02*
X0259879Y0104169D01*
X0259879Y0135272D01*
X0265784Y0135272D01*
X0265784Y0152594D01*
X0259879Y0152594D01*
X0259879Y0135272D01*
X0266670Y0126433D02*
X0266670Y0121433D01*
X0295312Y0104169D02*
X0295312Y0183697D01*
X0259879Y0183697D01*
X0259879Y0152594D01*
X0075312Y0152594D02*
X0075312Y0135272D01*
X0069406Y0135272D01*
X0069406Y0152594D01*
X0075312Y0152594D01*
X0075312Y0183697D01*
X0040272Y0183697D01*
X0039879Y0183697D02*
X0039879Y0104169D01*
X0075312Y0104169D01*
X0075312Y0135272D01*
X0068520Y0161433D02*
X0068520Y0166433D01*
D12*
X0119713Y0227733D02*
X0120514Y0227733D01*
X0120914Y0228133D01*
X0119313Y0229735D01*
X0119313Y0228133D01*
X0119713Y0227733D01*
X0120914Y0228133D02*
X0120914Y0229735D01*
X0120514Y0230135D01*
X0119713Y0230135D01*
X0119313Y0229735D01*
X0122075Y0227733D02*
X0123676Y0227733D01*
X0122876Y0227733D02*
X0122876Y0230135D01*
X0123676Y0229334D01*
X0124837Y0228934D02*
X0125238Y0228534D01*
X0126439Y0228534D01*
X0126439Y0227733D02*
X0126439Y0230135D01*
X0125238Y0230135D01*
X0124837Y0229735D01*
X0124837Y0228934D01*
X0125638Y0228534D02*
X0124837Y0227733D01*
X0130694Y0228133D02*
X0130694Y0229735D01*
X0131094Y0230135D01*
X0131895Y0230135D01*
X0132295Y0229735D01*
X0132295Y0229334D01*
X0131895Y0228934D01*
X0130694Y0228934D01*
X0130694Y0228133D02*
X0131094Y0227733D01*
X0131895Y0227733D01*
X0132295Y0228133D01*
X0133456Y0227733D02*
X0134257Y0228534D01*
X0133856Y0228534D02*
X0135057Y0228534D01*
X0135057Y0227733D02*
X0135057Y0230135D01*
X0133856Y0230135D01*
X0133456Y0229735D01*
X0133456Y0228934D01*
X0133856Y0228534D01*
X0140694Y0228534D02*
X0140694Y0228133D01*
X0141094Y0227733D01*
X0141895Y0227733D01*
X0142295Y0228133D01*
X0142295Y0228534D01*
X0141895Y0228934D01*
X0141094Y0228934D01*
X0140694Y0228534D01*
X0141094Y0228934D02*
X0140694Y0229334D01*
X0140694Y0229735D01*
X0141094Y0230135D01*
X0141895Y0230135D01*
X0142295Y0229735D01*
X0142295Y0229334D01*
X0141895Y0228934D01*
X0143456Y0228934D02*
X0143856Y0228534D01*
X0145058Y0228534D01*
X0145058Y0227733D02*
X0145058Y0230135D01*
X0143856Y0230135D01*
X0143456Y0229735D01*
X0143456Y0228934D01*
X0144257Y0228534D02*
X0143456Y0227733D01*
X0150694Y0229735D02*
X0152295Y0228133D01*
X0152295Y0227733D01*
X0153456Y0227733D02*
X0154257Y0228534D01*
X0153856Y0228534D02*
X0155057Y0228534D01*
X0155057Y0227733D02*
X0155057Y0230135D01*
X0153856Y0230135D01*
X0153456Y0229735D01*
X0153456Y0228934D01*
X0153856Y0228534D01*
X0152295Y0230135D02*
X0150694Y0230135D01*
X0150694Y0229735D01*
X0160694Y0230135D02*
X0161494Y0229735D01*
X0162295Y0228934D01*
X0161094Y0228934D01*
X0160694Y0228534D01*
X0160694Y0228133D01*
X0161094Y0227733D01*
X0161895Y0227733D01*
X0162295Y0228133D01*
X0162295Y0228934D01*
X0163456Y0228934D02*
X0163856Y0228534D01*
X0165057Y0228534D01*
X0164257Y0228534D02*
X0163456Y0227733D01*
X0163456Y0228934D02*
X0163456Y0229735D01*
X0163856Y0230135D01*
X0165057Y0230135D01*
X0165057Y0227733D01*
X0170694Y0228133D02*
X0171094Y0227733D01*
X0171895Y0227733D01*
X0172295Y0228133D01*
X0172295Y0228934D02*
X0171494Y0229334D01*
X0171094Y0229334D01*
X0170694Y0228934D01*
X0170694Y0228133D01*
X0172295Y0228934D02*
X0172295Y0230135D01*
X0170694Y0230135D01*
X0173456Y0229735D02*
X0173456Y0228934D01*
X0173856Y0228534D01*
X0175057Y0228534D01*
X0174257Y0228534D02*
X0173456Y0227733D01*
X0175057Y0227733D02*
X0175057Y0230135D01*
X0173856Y0230135D01*
X0173456Y0229735D01*
X0180694Y0228934D02*
X0182295Y0228934D01*
X0181094Y0230135D01*
X0181094Y0227733D01*
X0183456Y0227733D02*
X0184257Y0228534D01*
X0183856Y0228534D02*
X0185057Y0228534D01*
X0185057Y0227733D02*
X0185057Y0230135D01*
X0183856Y0230135D01*
X0183456Y0229735D01*
X0183456Y0228934D01*
X0183856Y0228534D01*
X0190694Y0228534D02*
X0190694Y0228133D01*
X0191094Y0227733D01*
X0191895Y0227733D01*
X0192295Y0228133D01*
X0191494Y0228934D02*
X0191094Y0228934D01*
X0190694Y0228534D01*
X0191094Y0228934D02*
X0190694Y0229334D01*
X0190694Y0229735D01*
X0191094Y0230135D01*
X0191895Y0230135D01*
X0192295Y0229735D01*
X0193456Y0229735D02*
X0193456Y0228934D01*
X0193856Y0228534D01*
X0195057Y0228534D01*
X0194257Y0228534D02*
X0193456Y0227733D01*
X0195057Y0227733D02*
X0195057Y0230135D01*
X0193856Y0230135D01*
X0193456Y0229735D01*
X0200694Y0229735D02*
X0201094Y0230135D01*
X0201895Y0230135D01*
X0202295Y0229735D01*
X0203456Y0229735D02*
X0203456Y0228934D01*
X0203856Y0228534D01*
X0205057Y0228534D01*
X0204257Y0228534D02*
X0203456Y0227733D01*
X0202295Y0227733D02*
X0200694Y0229334D01*
X0200694Y0229735D01*
X0200694Y0227733D02*
X0202295Y0227733D01*
X0203456Y0229735D02*
X0203856Y0230135D01*
X0205057Y0230135D01*
X0205057Y0227733D01*
X0210694Y0227733D02*
X0212295Y0227733D01*
X0211494Y0227733D02*
X0211494Y0230135D01*
X0212295Y0229334D01*
X0213456Y0228934D02*
X0213856Y0228534D01*
X0215057Y0228534D01*
X0214257Y0228534D02*
X0213456Y0227733D01*
X0213456Y0228934D02*
X0213456Y0229735D01*
X0213856Y0230135D01*
X0215057Y0230135D01*
X0215057Y0227733D01*
D13*
X0206645Y0140341D03*
X0208860Y0140045D03*
X0211813Y0123215D03*
X0205760Y0114504D03*
X0201330Y0114504D03*
X0214618Y0108303D03*
X0168407Y0076118D03*
X0166931Y0084533D03*
X0166931Y0084681D03*
X0150691Y0088077D03*
X0148476Y0091472D03*
X0143752Y0092801D03*
X0125149Y0103431D03*
X0143752Y0123067D03*
X0143752Y0123215D03*
X0131793Y0124100D03*
D14*
X0128619Y0119524D03*
X0124190Y0123657D03*
X0116808Y0129120D03*
X0112083Y0114061D03*
X0115627Y0112437D03*
X0122123Y0109927D03*
X0137773Y0102988D03*
X0144564Y0091030D03*
X0148107Y0092801D03*
X0151060Y0086453D03*
X0164495Y0088077D03*
X0167743Y0083205D03*
X0170105Y0082024D03*
X0171877Y0083205D03*
X0168481Y0076266D03*
X0192250Y0093982D03*
X0196680Y0093982D03*
X0196828Y0091915D03*
X0201109Y0096935D03*
X0188560Y0111699D03*
X0198156Y0118195D03*
X0201404Y0114356D03*
X0203324Y0116719D03*
X0204800Y0121000D03*
X0218678Y0106974D03*
X0217939Y0139602D03*
X0224731Y0139750D03*
X0224731Y0139898D03*
X0208786Y0140341D03*
X0152388Y0121591D03*
X0128767Y0146394D03*
D15*
X0152315Y0121443D03*
X0140209Y0106089D03*
X0141685Y0102988D03*
X0129136Y0103579D03*
X0111419Y0115094D03*
X0168555Y0076413D03*
X0177118Y0104612D03*
X0173427Y0118343D03*
X0198083Y0118343D03*
X0205760Y0133992D03*
X0200888Y0140193D03*
X0200888Y0140341D03*
X0224657Y0139307D03*
X0224657Y0139159D03*
X0224657Y0139012D03*
X0224657Y0138864D03*
X0224657Y0138717D03*
X0224657Y0138569D03*
X0224657Y0138421D03*
X0224657Y0138274D03*
X0217128Y0105646D03*
X0208270Y0102693D03*
D16*
X0201700Y0114209D03*
X0189446Y0105055D03*
X0189446Y0104907D03*
X0189446Y0104760D03*
X0177635Y0105055D03*
X0167300Y0126463D03*
X0167300Y0126610D03*
X0167300Y0126758D03*
X0167300Y0126906D03*
X0167300Y0127053D03*
X0167300Y0127201D03*
X0167300Y0127348D03*
X0167300Y0127496D03*
X0167300Y0127644D03*
X0167300Y0127791D03*
X0167300Y0127939D03*
X0167300Y0128087D03*
X0167152Y0128677D03*
X0167152Y0128825D03*
X0167152Y0128972D03*
X0167152Y0129120D03*
X0167152Y0129268D03*
X0167152Y0129415D03*
X0167152Y0129563D03*
X0167152Y0129711D03*
X0167152Y0129858D03*
X0167005Y0130154D03*
X0167005Y0130301D03*
X0167005Y0130449D03*
X0167005Y0130596D03*
X0167005Y0130744D03*
X0167005Y0130892D03*
X0167005Y0131039D03*
X0167005Y0131187D03*
X0167005Y0131335D03*
X0167005Y0131482D03*
X0167005Y0131630D03*
X0166267Y0138569D03*
X0166267Y0138717D03*
X0166267Y0138864D03*
X0166267Y0139012D03*
X0166267Y0139159D03*
X0166267Y0139307D03*
X0166267Y0139455D03*
X0166267Y0139602D03*
X0166267Y0139750D03*
X0166267Y0139898D03*
X0166267Y0140045D03*
X0171582Y0141079D03*
X0171582Y0141226D03*
X0171582Y0141374D03*
X0171582Y0141522D03*
X0171582Y0142703D03*
X0171582Y0142850D03*
X0171729Y0140341D03*
X0171729Y0140193D03*
X0165824Y0143589D03*
X0165824Y0143736D03*
X0165824Y0143884D03*
X0165824Y0144031D03*
X0165824Y0144179D03*
X0165824Y0144327D03*
X0165824Y0144474D03*
X0165824Y0144622D03*
X0165824Y0144770D03*
X0165824Y0144917D03*
X0165676Y0145213D03*
X0165676Y0145360D03*
X0165676Y0145508D03*
X0165676Y0145656D03*
X0165676Y0145803D03*
X0165676Y0145951D03*
X0165676Y0146098D03*
X0165676Y0146246D03*
X0165676Y0146394D03*
X0165676Y0146541D03*
X0165528Y0146984D03*
X0165528Y0147132D03*
X0165528Y0147280D03*
X0165528Y0147427D03*
X0165528Y0147575D03*
X0165528Y0147722D03*
X0165528Y0147870D03*
X0165528Y0148018D03*
X0165528Y0148165D03*
X0156818Y0146689D03*
X0156818Y0146541D03*
X0156670Y0147575D03*
X0156670Y0147722D03*
X0156670Y0147870D03*
X0156965Y0145360D03*
X0157408Y0141374D03*
X0158147Y0132368D03*
X0142497Y0132368D03*
X0142497Y0132516D03*
X0142349Y0133106D03*
X0141611Y0140341D03*
X0141611Y0140488D03*
X0141611Y0140636D03*
X0136739Y0142407D03*
X0122123Y0135026D03*
X0122418Y0132959D03*
X0122418Y0132811D03*
X0122418Y0132663D03*
X0122418Y0132516D03*
X0117398Y0136797D03*
X0105882Y0135026D03*
X0106178Y0132959D03*
X0106326Y0132516D03*
X0105587Y0138569D03*
X0105587Y0138717D03*
X0105292Y0139898D03*
X0105292Y0140045D03*
X0109278Y0148313D03*
X0109278Y0148461D03*
X0115922Y0148313D03*
X0126257Y0124543D03*
X0125961Y0124396D03*
X0125519Y0124100D03*
X0124042Y0122919D03*
X0123895Y0122772D03*
X0117103Y0118933D03*
X0112084Y0115833D03*
X0112084Y0114504D03*
X0114298Y0113028D03*
X0114741Y0112732D03*
X0116217Y0111846D03*
X0126109Y0113028D03*
X0132457Y0108451D03*
X0141759Y0110665D03*
X0133048Y0121591D03*
X0139101Y0096492D03*
X0168481Y0076561D03*
X0233147Y0121148D03*
X0233885Y0130154D03*
X0233885Y0130301D03*
X0233885Y0130449D03*
X0233885Y0130596D03*
X0233885Y0130744D03*
X0233885Y0130892D03*
X0233885Y0131039D03*
X0233885Y0131187D03*
X0233885Y0131335D03*
X0233885Y0131482D03*
X0233885Y0131630D03*
X0233737Y0131778D03*
X0233737Y0131925D03*
X0233737Y0132073D03*
X0233737Y0132220D03*
X0233737Y0132368D03*
X0233737Y0132516D03*
X0233737Y0132663D03*
X0233737Y0132811D03*
X0233737Y0132959D03*
X0233737Y0133106D03*
X0233737Y0133254D03*
X0233589Y0133549D03*
X0233589Y0133697D03*
X0233589Y0133844D03*
X0233589Y0133992D03*
X0233589Y0134140D03*
X0233589Y0134287D03*
X0233589Y0134435D03*
X0233589Y0134583D03*
X0233589Y0134730D03*
X0233589Y0134878D03*
X0233589Y0135026D03*
X0233147Y0138569D03*
X0233147Y0138717D03*
X0233147Y0138864D03*
X0233147Y0139012D03*
X0233147Y0139159D03*
X0233147Y0139307D03*
X0233147Y0139455D03*
X0233147Y0139602D03*
X0233147Y0139750D03*
X0233147Y0139898D03*
X0233147Y0140045D03*
X0232408Y0146984D03*
X0232408Y0147132D03*
X0232408Y0147280D03*
X0232408Y0147427D03*
X0232408Y0147575D03*
X0232408Y0147722D03*
X0232408Y0147870D03*
X0232408Y0148018D03*
X0232408Y0148165D03*
X0232408Y0148313D03*
X0232261Y0148608D03*
X0232261Y0148756D03*
X0232261Y0148904D03*
X0232261Y0149051D03*
X0232261Y0149199D03*
X0232261Y0149346D03*
X0232261Y0149494D03*
X0232261Y0149642D03*
X0232261Y0149789D03*
X0232261Y0149937D03*
X0232113Y0150232D03*
X0232113Y0150380D03*
X0232113Y0150528D03*
X0217054Y0147870D03*
X0217054Y0147722D03*
X0217054Y0147575D03*
X0217054Y0147427D03*
X0217054Y0147280D03*
X0217054Y0147132D03*
X0217054Y0146984D03*
X0217054Y0146837D03*
X0217054Y0146689D03*
X0217054Y0146541D03*
X0217054Y0146394D03*
X0205243Y0139307D03*
X0200814Y0141522D03*
X0200814Y0141669D03*
X0200814Y0141817D03*
X0200814Y0141965D03*
X0200666Y0142407D03*
X0200666Y0142555D03*
X0200666Y0142703D03*
X0200518Y0142850D03*
X0205538Y0135026D03*
X0205538Y0134878D03*
X0186936Y0142555D03*
X0186936Y0142703D03*
D17*
X0211074Y0146394D03*
X0209746Y0117604D03*
X0211074Y0116719D03*
X0212698Y0115685D03*
X0199263Y0112142D03*
X0196606Y0110370D03*
X0195130Y0109337D03*
X0193653Y0108303D03*
X0189962Y0105646D03*
X0189962Y0104169D03*
X0185976Y0098559D03*
X0186271Y0098411D03*
X0185533Y0098854D03*
X0184795Y0099297D03*
X0189224Y0096492D03*
X0189962Y0096049D03*
X0190405Y0095754D03*
X0190700Y0095606D03*
X0180366Y0106827D03*
X0180071Y0106679D03*
X0179628Y0106384D03*
X0182580Y0108303D03*
X0183023Y0108598D03*
X0183319Y0108746D03*
X0184795Y0109780D03*
X0185533Y0110222D03*
X0185976Y0110518D03*
X0186271Y0110665D03*
X0191439Y0115094D03*
X0178889Y0114061D03*
X0157925Y0132220D03*
X0153053Y0112880D03*
X0150100Y0097230D03*
X0156744Y0092949D03*
X0158220Y0083648D03*
X0158958Y0083205D03*
X0159401Y0082909D03*
X0160435Y0082171D03*
X0160878Y0081876D03*
X0161173Y0081728D03*
X0163387Y0080252D03*
X0163830Y0079957D03*
X0168555Y0076709D03*
X0170769Y0078185D03*
X0171212Y0078480D03*
X0172246Y0087043D03*
X0172984Y0087486D03*
X0173722Y0087929D03*
X0128250Y0111404D03*
X0126773Y0112437D03*
X0121606Y0115685D03*
X0124559Y0121591D03*
X0114224Y0117161D03*
X0113486Y0116719D03*
D18*
X0128988Y0118785D03*
X0135041Y0118343D03*
X0143456Y0109337D03*
X0143899Y0109041D03*
X0135041Y0099297D03*
X0164569Y0109632D03*
X0167078Y0114209D03*
X0177413Y0113028D03*
X0178889Y0114504D03*
X0182580Y0120557D03*
X0183319Y0120114D03*
X0194096Y0133992D03*
X0216242Y0120852D03*
X0216389Y0120705D03*
X0225100Y0113470D03*
X0223624Y0112437D03*
X0203102Y0106827D03*
X0201626Y0105793D03*
X0200149Y0104760D03*
X0182285Y0100921D03*
X0178151Y0103431D03*
X0186714Y0088815D03*
X0182285Y0085715D03*
X0181842Y0085419D03*
X0179628Y0083943D03*
X0179332Y0083795D03*
X0177856Y0082762D03*
X0177413Y0082467D03*
X0176675Y0082024D03*
X0174903Y0080843D03*
X0168555Y0076856D03*
X0129726Y0138126D03*
D19*
X0129726Y0137978D03*
X0129726Y0137831D03*
X0124263Y0146394D03*
X0108614Y0146098D03*
X0141242Y0114061D03*
X0141685Y0114356D03*
X0142127Y0114652D03*
X0142423Y0114799D03*
X0142866Y0115094D03*
X0143309Y0115390D03*
X0138732Y0112437D03*
X0142571Y0099002D03*
X0139027Y0096935D03*
X0146262Y0090587D03*
X0148624Y0094573D03*
X0148919Y0094720D03*
X0167521Y0106679D03*
X0167964Y0106974D03*
X0168407Y0107270D03*
X0168702Y0107417D03*
X0168850Y0107565D03*
X0170917Y0108894D03*
X0173279Y0110370D03*
X0178151Y0115094D03*
X0177413Y0115537D03*
X0176970Y0115833D03*
X0176675Y0115980D03*
X0171065Y0116423D03*
X0187452Y0117604D03*
X0193653Y0134583D03*
X0192768Y0137240D03*
X0182728Y0142850D03*
X0180070Y0137978D03*
X0179923Y0137831D03*
X0176823Y0142998D03*
X0149509Y0137683D03*
X0195130Y0100921D03*
X0195425Y0100774D03*
X0195720Y0100626D03*
X0195868Y0100478D03*
X0196163Y0100331D03*
X0196459Y0100183D03*
X0196606Y0100035D03*
X0196901Y0099888D03*
X0197197Y0099740D03*
X0197935Y0099297D03*
X0198230Y0099150D03*
X0198525Y0099002D03*
X0200888Y0097526D03*
X0185533Y0090439D03*
X0185090Y0090734D03*
X0184648Y0091030D03*
X0183909Y0091472D03*
X0183466Y0091768D03*
X0175641Y0096787D03*
X0175346Y0096935D03*
X0174903Y0097230D03*
X0174460Y0097526D03*
X0174018Y0097821D03*
X0173575Y0098116D03*
X0170917Y0086453D03*
X0170327Y0085715D03*
X0168555Y0077004D03*
X0223919Y0115833D03*
X0224067Y0115685D03*
X0224362Y0115537D03*
X0224510Y0115390D03*
X0207679Y0140488D03*
D20*
X0207826Y0142703D03*
X0206941Y0132073D03*
X0221704Y0128530D03*
X0203397Y0116128D03*
X0168555Y0121295D03*
X0119834Y0107270D03*
X0108614Y0145508D03*
X0168555Y0077152D03*
D21*
X0168555Y0077299D03*
X0162649Y0087781D03*
X0147590Y0094278D03*
X0165307Y0113470D03*
X0174460Y0116866D03*
X0192177Y0095163D03*
X0200887Y0097821D03*
X0174460Y0146098D03*
X0196311Y0146541D03*
X0116439Y0130892D03*
X0108319Y0145213D03*
X0108319Y0145360D03*
D22*
X0116586Y0132220D03*
X0140209Y0121148D03*
X0127216Y0105793D03*
X0147295Y0094130D03*
X0162649Y0087929D03*
X0168555Y0077447D03*
X0174608Y0116719D03*
D23*
X0198083Y0128530D03*
X0202512Y0113470D03*
X0209746Y0102545D03*
X0169736Y0083057D03*
X0168555Y0077594D03*
X0153348Y0086157D03*
X0153201Y0086305D03*
X0151281Y0095606D03*
X0146114Y0093096D03*
X0146114Y0092949D03*
X0109943Y0128677D03*
D24*
X0109869Y0128825D03*
X0133934Y0128677D03*
X0132605Y0109632D03*
X0127585Y0103283D03*
X0140430Y0102545D03*
X0140873Y0102250D03*
X0151208Y0095459D03*
X0161099Y0091030D03*
X0168628Y0077742D03*
X0193580Y0094720D03*
X0193875Y0094573D03*
X0194023Y0094425D03*
X0173353Y0117161D03*
X0174534Y0132073D03*
X0152979Y0151709D03*
X0148107Y0147132D03*
X0112674Y0151709D03*
D25*
X0132458Y0117604D03*
X0138511Y0111551D03*
X0128324Y0102693D03*
X0161690Y0090734D03*
X0161985Y0090439D03*
X0168629Y0077890D03*
D26*
X0168629Y0078037D03*
X0126404Y0128530D03*
X0107949Y0137978D03*
X0124928Y0145803D03*
X0215282Y0134730D03*
D27*
X0216021Y0141079D03*
X0216021Y0141226D03*
X0224879Y0132368D03*
X0215725Y0121148D03*
X0215282Y0121443D03*
X0214544Y0121886D03*
X0214397Y0122033D03*
X0213658Y0122476D03*
X0211591Y0116423D03*
X0212034Y0116128D03*
X0212477Y0115833D03*
X0213068Y0113913D03*
X0212920Y0113766D03*
X0212772Y0113618D03*
X0212330Y0113323D03*
X0211444Y0112732D03*
X0211296Y0112585D03*
X0210853Y0112289D03*
X0209967Y0111699D03*
X0209819Y0111551D03*
X0209524Y0111404D03*
X0209377Y0111256D03*
X0209229Y0111108D03*
X0208786Y0110813D03*
X0208491Y0110665D03*
X0208343Y0110518D03*
X0207900Y0110222D03*
X0207310Y0109780D03*
X0207015Y0109632D03*
X0206867Y0109484D03*
X0206572Y0109337D03*
X0206424Y0109189D03*
X0205538Y0108598D03*
X0205390Y0108451D03*
X0204948Y0108156D03*
X0203914Y0107417D03*
X0202585Y0106531D03*
X0202143Y0106236D03*
X0201995Y0106089D03*
X0197713Y0111108D03*
X0199928Y0112585D03*
X0200371Y0112880D03*
X0200666Y0113028D03*
X0195351Y0109484D03*
X0192989Y0107860D03*
X0192546Y0107565D03*
X0192103Y0107270D03*
X0191660Y0106974D03*
X0191512Y0106827D03*
X0190184Y0105941D03*
X0190036Y0105793D03*
X0190332Y0103874D03*
X0186493Y0098264D03*
X0186641Y0098116D03*
X0186936Y0097969D03*
X0187083Y0097821D03*
X0187379Y0097673D03*
X0187821Y0097378D03*
X0188117Y0097230D03*
X0188560Y0096935D03*
X0189446Y0096344D03*
X0190184Y0095902D03*
X0190922Y0095459D03*
X0186936Y0089258D03*
X0186936Y0089110D03*
X0175568Y0081285D03*
X0175125Y0080990D03*
X0174682Y0080695D03*
X0174387Y0080547D03*
X0173944Y0080252D03*
X0173796Y0080104D03*
X0173353Y0079809D03*
X0173058Y0079661D03*
X0172615Y0079366D03*
X0172172Y0079071D03*
X0171877Y0078923D03*
X0171729Y0078776D03*
X0171434Y0078628D03*
X0170991Y0078333D03*
X0166562Y0078185D03*
X0166267Y0078333D03*
X0165824Y0078628D03*
X0165676Y0078776D03*
X0164937Y0079219D03*
X0164495Y0079514D03*
X0164052Y0079809D03*
X0163609Y0080104D03*
X0162723Y0080695D03*
X0162280Y0080990D03*
X0161837Y0081285D03*
X0158442Y0083500D03*
X0157851Y0083943D03*
X0157556Y0084091D03*
X0157113Y0084386D03*
X0159180Y0091325D03*
X0159032Y0091472D03*
X0158589Y0091768D03*
X0158294Y0091915D03*
X0157851Y0092211D03*
X0157408Y0092506D03*
X0156965Y0092801D03*
X0156079Y0093392D03*
X0150912Y0096640D03*
X0150765Y0096787D03*
X0150469Y0096935D03*
X0150322Y0097083D03*
X0149435Y0097673D03*
X0148697Y0098116D03*
X0148255Y0098411D03*
X0147812Y0098707D03*
X0147517Y0098854D03*
X0144564Y0100774D03*
X0144121Y0101069D03*
X0143826Y0101217D03*
X0143678Y0101364D03*
X0143383Y0101512D03*
X0142940Y0101807D03*
X0152684Y0112289D03*
X0152979Y0112732D03*
X0161837Y0118785D03*
X0178816Y0113913D03*
X0187379Y0111404D03*
X0188708Y0112289D03*
X0189150Y0112585D03*
X0189446Y0112732D03*
X0189593Y0112880D03*
X0178816Y0105793D03*
X0178521Y0105498D03*
X0182507Y0100774D03*
X0182950Y0100478D03*
X0183392Y0100183D03*
X0184130Y0099740D03*
X0184278Y0099593D03*
X0174091Y0088224D03*
X0173944Y0088077D03*
X0171729Y0086748D03*
X0137920Y0120262D03*
X0137625Y0120114D03*
X0137477Y0119967D03*
X0137182Y0119819D03*
X0137034Y0119671D03*
X0136739Y0119524D03*
X0136148Y0119081D03*
X0133048Y0121738D03*
X0125076Y0113470D03*
X0124632Y0113766D03*
X0124190Y0114061D03*
X0123894Y0114209D03*
X0123452Y0114504D03*
X0122713Y0114947D03*
X0122271Y0115242D03*
X0122123Y0115390D03*
X0119761Y0116866D03*
X0117103Y0118785D03*
X0127143Y0112142D03*
X0127585Y0111846D03*
X0128028Y0111551D03*
X0128767Y0111108D03*
X0128914Y0110961D03*
X0129652Y0110518D03*
X0179997Y0138126D03*
X0222074Y0117161D03*
X0225617Y0114061D03*
X0221778Y0111256D03*
X0221630Y0111108D03*
X0221188Y0110813D03*
D28*
X0220745Y0110518D03*
X0222221Y0117014D03*
X0214839Y0121738D03*
X0210410Y0117161D03*
X0213363Y0114061D03*
X0211886Y0113028D03*
X0210410Y0111994D03*
X0208934Y0110961D03*
X0207457Y0109927D03*
X0205981Y0108894D03*
X0204505Y0107860D03*
X0202438Y0106384D03*
X0191217Y0106679D03*
X0185312Y0099002D03*
X0183835Y0099888D03*
X0180883Y0101807D03*
X0177930Y0103579D03*
X0188264Y0097083D03*
X0191217Y0095311D03*
X0173501Y0079957D03*
X0166119Y0078480D03*
X0163166Y0080400D03*
X0149879Y0097378D03*
X0158737Y0107713D03*
X0152831Y0111551D03*
X0152831Y0112437D03*
X0161690Y0118638D03*
X0136591Y0119376D03*
X0129209Y0110813D03*
X0126257Y0112732D03*
X0121827Y0115537D03*
X0124780Y0121443D03*
X0191217Y0115242D03*
X0194170Y0133844D03*
D29*
X0214101Y0122181D03*
X0222959Y0111994D03*
X0194908Y0109189D03*
X0193432Y0108156D03*
X0191955Y0107122D03*
X0189003Y0112437D03*
X0178668Y0105646D03*
X0184573Y0099445D03*
X0187526Y0097526D03*
X0189003Y0096640D03*
X0174239Y0089258D03*
X0174239Y0080400D03*
X0165381Y0078923D03*
X0157999Y0083795D03*
X0156522Y0093096D03*
X0143235Y0101659D03*
X0134377Y0110075D03*
X0128471Y0111256D03*
D30*
X0129431Y0110665D03*
X0129873Y0110370D03*
X0130169Y0110222D03*
X0130317Y0110075D03*
X0132531Y0108598D03*
X0127364Y0111994D03*
X0126921Y0112289D03*
X0124411Y0113913D03*
X0121459Y0115833D03*
X0119982Y0116719D03*
X0113929Y0117014D03*
X0113191Y0116571D03*
X0124411Y0121738D03*
X0119835Y0106974D03*
X0128840Y0103431D03*
X0139027Y0096640D03*
X0144490Y0100921D03*
X0148919Y0097969D03*
X0149214Y0097821D03*
X0149657Y0097526D03*
X0154234Y0094573D03*
X0154825Y0094130D03*
X0155120Y0093982D03*
X0155563Y0093687D03*
X0156301Y0093244D03*
X0157187Y0092654D03*
X0158073Y0092063D03*
X0158663Y0083352D03*
X0159549Y0082762D03*
X0159992Y0082467D03*
X0160730Y0082024D03*
X0161616Y0081433D03*
X0162502Y0080843D03*
X0162945Y0080547D03*
X0165159Y0079071D03*
X0172836Y0079514D03*
X0172541Y0087191D03*
X0173427Y0087781D03*
X0174313Y0089110D03*
X0185090Y0099150D03*
X0185829Y0098707D03*
X0188781Y0096787D03*
X0189667Y0096197D03*
X0179923Y0106531D03*
X0179185Y0106089D03*
X0180809Y0107122D03*
X0181695Y0107713D03*
X0182138Y0108008D03*
X0182876Y0108451D03*
X0183762Y0109041D03*
X0184352Y0109484D03*
X0184648Y0109632D03*
X0185090Y0109927D03*
X0185829Y0110370D03*
X0186714Y0110961D03*
X0187600Y0111551D03*
X0191144Y0113913D03*
X0194687Y0109041D03*
X0194539Y0108894D03*
X0194096Y0108598D03*
X0193801Y0108451D03*
X0193210Y0108008D03*
X0195573Y0109632D03*
X0196016Y0109927D03*
X0196163Y0110075D03*
X0196459Y0110222D03*
X0196901Y0110518D03*
X0197049Y0110665D03*
X0197344Y0110813D03*
X0197492Y0110961D03*
X0197935Y0111256D03*
X0198083Y0111404D03*
X0198378Y0111551D03*
X0198525Y0111699D03*
X0198821Y0111846D03*
X0198968Y0111994D03*
X0199411Y0112289D03*
X0199707Y0112437D03*
X0198083Y0118638D03*
X0209007Y0118047D03*
X0209451Y0117752D03*
X0210189Y0117309D03*
X0210927Y0116866D03*
X0211813Y0116276D03*
X0212256Y0115980D03*
X0213289Y0115242D03*
X0213436Y0114209D03*
X0222000Y0111404D03*
X0222148Y0111551D03*
X0225691Y0114209D03*
X0225691Y0114356D03*
X0225691Y0114504D03*
X0213880Y0122329D03*
X0213436Y0122624D03*
X0213289Y0122772D03*
X0212994Y0122919D03*
X0177709Y0103726D03*
X0173427Y0118047D03*
X0152610Y0112142D03*
X0142718Y0132220D03*
D31*
X0162059Y0118933D03*
X0179037Y0114356D03*
X0179037Y0114209D03*
X0183466Y0108894D03*
X0183909Y0109189D03*
X0184204Y0109337D03*
X0182433Y0108156D03*
X0181252Y0107417D03*
X0180513Y0106974D03*
X0179480Y0106236D03*
X0179037Y0105941D03*
X0177561Y0103874D03*
X0186419Y0110813D03*
X0186862Y0111108D03*
X0187157Y0111256D03*
X0189815Y0113028D03*
X0191291Y0114061D03*
X0194244Y0108746D03*
X0195720Y0109780D03*
X0192767Y0107713D03*
X0192324Y0107417D03*
X0189815Y0104317D03*
X0190110Y0104022D03*
X0200149Y0112732D03*
X0209893Y0117457D03*
X0210632Y0117014D03*
X0211370Y0116571D03*
X0212846Y0115537D03*
X0213584Y0114356D03*
X0205464Y0139602D03*
X0155858Y0093539D03*
X0154677Y0094278D03*
X0154382Y0094425D03*
X0153939Y0094720D03*
X0157630Y0092358D03*
X0148476Y0098264D03*
X0148033Y0098559D03*
X0159106Y0083057D03*
X0159844Y0082614D03*
X0160287Y0082319D03*
X0161321Y0081581D03*
X0162059Y0081138D03*
X0164273Y0079661D03*
X0164716Y0079366D03*
X0172393Y0079219D03*
X0172098Y0086896D03*
X0186862Y0088963D03*
X0127807Y0111699D03*
X0124854Y0113618D03*
X0113043Y0116423D03*
D32*
X0122492Y0115094D03*
X0128545Y0119081D03*
X0135927Y0118933D03*
X0132826Y0100774D03*
X0132974Y0100626D03*
X0134303Y0099740D03*
X0135927Y0098707D03*
X0147295Y0099002D03*
X0146261Y0090439D03*
X0156153Y0084976D03*
X0156596Y0084681D03*
X0156891Y0084533D03*
X0175346Y0081138D03*
X0175789Y0081433D03*
X0176084Y0081581D03*
X0177561Y0082614D03*
X0178299Y0083057D03*
X0178742Y0083352D03*
X0179775Y0084091D03*
X0180218Y0084386D03*
X0180513Y0084533D03*
X0183171Y0100331D03*
X0182728Y0100626D03*
X0181990Y0101069D03*
X0190553Y0103726D03*
X0190553Y0106236D03*
X0190848Y0106384D03*
X0197935Y0103283D03*
X0204726Y0108008D03*
X0206202Y0109041D03*
X0207679Y0110075D03*
X0210632Y0112142D03*
X0212108Y0113175D03*
X0218013Y0119671D03*
X0215061Y0121591D03*
X0220966Y0117752D03*
X0221704Y0117309D03*
X0225395Y0113766D03*
X0223181Y0112142D03*
X0220966Y0110665D03*
X0190848Y0113618D03*
X0161025Y0118195D03*
X0160582Y0117900D03*
X0132826Y0146394D03*
D33*
X0129431Y0137535D03*
X0125002Y0121295D03*
X0125149Y0121148D03*
X0125888Y0120705D03*
X0122935Y0114799D03*
X0123230Y0114652D03*
X0123673Y0114356D03*
X0135484Y0118638D03*
X0136370Y0119228D03*
X0138142Y0120409D03*
X0138437Y0120557D03*
X0142275Y0110075D03*
X0152905Y0112585D03*
X0158811Y0107565D03*
X0161468Y0118490D03*
X0178594Y0113766D03*
X0190996Y0113766D03*
X0198378Y0118933D03*
X0203250Y0116423D03*
X0208122Y0110370D03*
X0210189Y0111846D03*
X0211075Y0112437D03*
X0211665Y0112880D03*
X0212551Y0113470D03*
X0219638Y0109780D03*
X0219933Y0109927D03*
X0220080Y0110075D03*
X0220376Y0110222D03*
X0220523Y0110370D03*
X0221409Y0110961D03*
X0222590Y0111699D03*
X0222738Y0111846D03*
X0223329Y0112289D03*
X0224067Y0112732D03*
X0224509Y0113028D03*
X0225248Y0113618D03*
X0225543Y0113913D03*
X0221262Y0117604D03*
X0220523Y0118047D03*
X0220080Y0118343D03*
X0218899Y0119081D03*
X0218457Y0119376D03*
X0217571Y0119967D03*
X0216833Y0120409D03*
X0215947Y0121000D03*
X0215504Y0121295D03*
X0205760Y0108746D03*
X0205169Y0108303D03*
X0204283Y0107713D03*
X0204136Y0107565D03*
X0203693Y0107270D03*
X0203545Y0107122D03*
X0203250Y0106974D03*
X0202807Y0106679D03*
X0201773Y0105941D03*
X0201331Y0105646D03*
X0201183Y0105498D03*
X0200740Y0105203D03*
X0200297Y0104907D03*
X0199707Y0104465D03*
X0198378Y0103579D03*
X0197492Y0102988D03*
X0197344Y0102841D03*
X0196901Y0102545D03*
X0190996Y0103431D03*
X0190405Y0106089D03*
X0190996Y0106531D03*
X0183614Y0100035D03*
X0178594Y0103136D03*
X0178447Y0103283D03*
X0174018Y0089406D03*
X0178447Y0083205D03*
X0178004Y0082909D03*
X0176970Y0082171D03*
X0176527Y0081876D03*
X0176232Y0081728D03*
X0179185Y0083648D03*
X0180071Y0084238D03*
X0180957Y0084829D03*
X0181399Y0085124D03*
X0186567Y0088667D03*
X0200887Y0097378D03*
X0158811Y0091620D03*
X0156449Y0084829D03*
X0157335Y0084238D03*
X0151134Y0096492D03*
X0135484Y0099002D03*
X0134746Y0099445D03*
X0134598Y0099593D03*
X0134155Y0099888D03*
X0133860Y0100035D03*
X0133712Y0100183D03*
X0133417Y0100331D03*
X0133270Y0100478D03*
X0132531Y0100921D03*
X0132384Y0101069D03*
X0132088Y0101217D03*
X0131646Y0101512D03*
X0149953Y0138274D03*
X0215947Y0141374D03*
X0215947Y0141522D03*
X0230268Y0155104D03*
D34*
X0232187Y0150085D03*
X0205317Y0139455D03*
X0205464Y0120262D03*
X0205760Y0120114D03*
X0213437Y0115094D03*
X0198083Y0118490D03*
X0191586Y0114799D03*
X0189667Y0105350D03*
X0189667Y0104465D03*
X0177413Y0104022D03*
X0164569Y0109484D03*
X0153201Y0113175D03*
X0152462Y0111846D03*
X0152462Y0111699D03*
X0167522Y0125872D03*
X0167226Y0128234D03*
X0167226Y0128382D03*
X0167226Y0128530D03*
X0167079Y0130006D03*
X0166783Y0133402D03*
X0166635Y0135173D03*
X0166488Y0136797D03*
X0156449Y0148608D03*
X0165307Y0150232D03*
X0165307Y0150380D03*
X0165307Y0150528D03*
X0165307Y0150675D03*
X0136518Y0142850D03*
X0124264Y0121886D03*
X0126183Y0112880D03*
X0109795Y0137683D03*
X0109205Y0147132D03*
X0109205Y0147280D03*
X0109205Y0147427D03*
X0109205Y0147575D03*
X0109205Y0147722D03*
X0109205Y0147870D03*
X0109205Y0148018D03*
X0109205Y0148165D03*
X0146262Y0090291D03*
X0162797Y0087191D03*
X0170031Y0082171D03*
X0174460Y0088667D03*
X0174460Y0088815D03*
D35*
X0173501Y0089848D03*
X0171434Y0086600D03*
X0169957Y0082319D03*
X0177192Y0082319D03*
X0178963Y0083500D03*
X0181178Y0084976D03*
X0181621Y0085272D03*
X0182950Y0086157D03*
X0183393Y0086453D03*
X0186788Y0089406D03*
X0181768Y0101217D03*
X0181473Y0101364D03*
X0180292Y0102102D03*
X0179997Y0102250D03*
X0178815Y0102988D03*
X0175273Y0111699D03*
X0175715Y0111994D03*
X0176011Y0112142D03*
X0176454Y0112437D03*
X0176749Y0112585D03*
X0177192Y0112880D03*
X0177930Y0113323D03*
X0178225Y0113470D03*
X0182359Y0120705D03*
X0183097Y0120262D03*
X0183835Y0119819D03*
X0184131Y0119671D03*
X0184574Y0119376D03*
X0190626Y0113470D03*
X0190479Y0113323D03*
X0198156Y0118785D03*
X0200519Y0105055D03*
X0199337Y0104169D03*
X0199042Y0104022D03*
X0198895Y0103874D03*
X0198599Y0103726D03*
X0198156Y0103431D03*
X0197713Y0103136D03*
X0197123Y0102693D03*
X0191956Y0102841D03*
X0191513Y0103136D03*
X0191217Y0103283D03*
X0190774Y0103579D03*
X0203176Y0099002D03*
X0203619Y0099297D03*
X0204948Y0100183D03*
X0205686Y0100626D03*
X0206129Y0100921D03*
X0206424Y0101069D03*
X0206572Y0101217D03*
X0216906Y0105941D03*
X0219416Y0109632D03*
X0223845Y0112585D03*
X0224288Y0112880D03*
X0224879Y0113323D03*
X0222812Y0116571D03*
X0222369Y0116866D03*
X0219859Y0118490D03*
X0219416Y0118785D03*
X0218235Y0119524D03*
X0179702Y0137535D03*
X0174091Y0146394D03*
X0167891Y0125724D03*
X0161247Y0118343D03*
X0160804Y0118047D03*
X0160213Y0117604D03*
X0159771Y0117309D03*
X0159475Y0117161D03*
X0159328Y0117014D03*
X0159032Y0116866D03*
X0158146Y0116276D03*
X0157999Y0116128D03*
X0157556Y0115833D03*
X0157261Y0115685D03*
X0156670Y0115242D03*
X0155784Y0114652D03*
X0155341Y0114356D03*
X0154898Y0114061D03*
X0154308Y0113618D03*
X0153865Y0113323D03*
X0153127Y0111256D03*
X0153570Y0110961D03*
X0159032Y0107417D03*
X0159475Y0107122D03*
X0161099Y0106089D03*
X0155046Y0101807D03*
X0154603Y0102102D03*
X0153422Y0102841D03*
X0152093Y0103726D03*
X0151650Y0104022D03*
X0150764Y0104612D03*
X0150469Y0104760D03*
X0149879Y0105203D03*
X0149436Y0105498D03*
X0149141Y0105646D03*
X0148698Y0105941D03*
X0147811Y0106531D03*
X0146926Y0107122D03*
X0146631Y0107270D03*
X0146483Y0107417D03*
X0146188Y0107565D03*
X0145745Y0107860D03*
X0145450Y0108008D03*
X0145007Y0108303D03*
X0144859Y0108451D03*
X0144564Y0108598D03*
X0144416Y0108746D03*
X0143678Y0109189D03*
X0143235Y0109484D03*
X0142940Y0109632D03*
X0142792Y0109780D03*
X0142497Y0109927D03*
X0142054Y0110222D03*
X0141759Y0110370D03*
X0139692Y0113175D03*
X0139249Y0112880D03*
X0144564Y0116276D03*
X0135706Y0118785D03*
X0135263Y0118490D03*
X0134820Y0118195D03*
X0129505Y0118490D03*
X0128767Y0118933D03*
X0128324Y0119228D03*
X0126847Y0120114D03*
X0126552Y0120262D03*
X0126404Y0120409D03*
X0125371Y0121000D03*
X0132605Y0108746D03*
X0130981Y0101955D03*
X0131129Y0101807D03*
X0131867Y0101364D03*
X0135263Y0099150D03*
X0135706Y0098854D03*
X0136148Y0098559D03*
X0139101Y0096787D03*
X0144711Y0100626D03*
X0156670Y0100774D03*
X0159475Y0091177D03*
X0162723Y0087339D03*
X0155784Y0085124D03*
X0153127Y0089258D03*
X0168481Y0101364D03*
X0169072Y0101069D03*
X0168186Y0114799D03*
X0168629Y0115094D03*
X0169367Y0115537D03*
X0152241Y0121000D03*
X0141463Y0124248D03*
X0106178Y0138421D03*
D36*
X0163978Y0104465D03*
X0170622Y0086305D03*
X0169884Y0082467D03*
X0210336Y0104907D03*
X0193506Y0134878D03*
D37*
X0169810Y0082614D03*
D38*
X0169810Y0082762D03*
X0153274Y0088667D03*
X0164642Y0113028D03*
D39*
X0153570Y0086010D03*
X0169810Y0082909D03*
X0208786Y0101955D03*
X0216906Y0108598D03*
X0119908Y0110222D03*
D40*
X0125223Y0105498D03*
X0119318Y0117752D03*
X0166266Y0110370D03*
X0172172Y0084976D03*
X0172172Y0083352D03*
X0167448Y0083352D03*
X0196975Y0093835D03*
X0208786Y0140193D03*
D41*
X0201478Y0115685D03*
X0212403Y0104317D03*
X0207974Y0102988D03*
X0197197Y0093539D03*
X0197049Y0093687D03*
X0197197Y0092211D03*
X0197049Y0092063D03*
X0192325Y0092063D03*
X0172394Y0083648D03*
X0172246Y0083500D03*
X0167373Y0083500D03*
X0164864Y0088224D03*
X0160583Y0089258D03*
X0160583Y0089406D03*
X0160435Y0089110D03*
X0160435Y0088963D03*
X0160435Y0088815D03*
X0160435Y0088667D03*
X0155710Y0086748D03*
X0155415Y0086600D03*
X0150986Y0088372D03*
X0150543Y0087781D03*
X0150543Y0087634D03*
X0150543Y0087486D03*
X0150543Y0087339D03*
X0150543Y0087191D03*
X0144047Y0091325D03*
X0141833Y0103283D03*
X0141833Y0104907D03*
X0137403Y0103136D03*
X0132384Y0108156D03*
X0132236Y0115980D03*
X0131350Y0122772D03*
X0132384Y0124543D03*
X0126183Y0119819D03*
X0117325Y0119228D03*
X0115848Y0111551D03*
X0117915Y0108894D03*
X0122492Y0109780D03*
X0162354Y0110518D03*
X0164864Y0109189D03*
X0170474Y0116866D03*
X0161616Y0119228D03*
D42*
X0166709Y0110813D03*
X0143530Y0122181D03*
X0139101Y0122033D03*
X0139101Y0123510D03*
X0131572Y0123953D03*
X0122713Y0109632D03*
X0124928Y0105350D03*
X0137625Y0104907D03*
X0155636Y0088077D03*
X0155636Y0087929D03*
X0165233Y0088520D03*
X0167152Y0083795D03*
X0167152Y0083648D03*
X0212329Y0102988D03*
X0214396Y0108008D03*
X0214396Y0108156D03*
X0112379Y0113766D03*
D43*
X0114446Y0113470D03*
X0117989Y0109189D03*
X0117989Y0109041D03*
X0117841Y0108746D03*
X0117841Y0108598D03*
X0117841Y0108451D03*
X0117841Y0108303D03*
X0117989Y0108156D03*
X0118137Y0108008D03*
X0122418Y0108008D03*
X0122861Y0109484D03*
X0131719Y0116128D03*
X0126257Y0119671D03*
X0131276Y0122919D03*
X0131276Y0123067D03*
X0131276Y0123510D03*
X0131424Y0123805D03*
X0134524Y0124986D03*
X0134967Y0123953D03*
X0135115Y0123805D03*
X0143235Y0121886D03*
X0143383Y0122033D03*
X0143826Y0122772D03*
X0143826Y0122919D03*
X0141906Y0104760D03*
X0141906Y0103431D03*
X0139544Y0101807D03*
X0137330Y0103283D03*
X0137182Y0103579D03*
X0137182Y0103726D03*
X0143826Y0091472D03*
X0148550Y0092506D03*
X0148698Y0091768D03*
X0148698Y0091620D03*
X0152979Y0089553D03*
X0165085Y0089996D03*
X0165085Y0088372D03*
X0167005Y0084829D03*
X0167005Y0084238D03*
X0167005Y0084091D03*
X0167005Y0083943D03*
X0172320Y0084829D03*
X0172467Y0084681D03*
X0172467Y0084533D03*
X0172467Y0084091D03*
X0172467Y0083943D03*
X0172467Y0083795D03*
X0192103Y0092211D03*
X0192103Y0093687D03*
X0194613Y0090882D03*
X0197271Y0092358D03*
X0197418Y0092654D03*
X0197418Y0092949D03*
X0197418Y0093096D03*
X0197418Y0093244D03*
X0197271Y0093392D03*
X0212625Y0103431D03*
X0212625Y0103579D03*
X0212625Y0103726D03*
X0212625Y0103874D03*
X0212625Y0104022D03*
X0214249Y0107565D03*
X0214249Y0107713D03*
X0214249Y0107860D03*
X0218530Y0108156D03*
X0218973Y0107565D03*
X0205685Y0114356D03*
X0201256Y0114652D03*
X0204800Y0121148D03*
X0204505Y0139750D03*
X0206719Y0140193D03*
X0214987Y0139898D03*
X0214987Y0140931D03*
X0218087Y0139455D03*
X0229456Y0150528D03*
X0166562Y0111994D03*
X0166414Y0112142D03*
X0166562Y0110665D03*
X0166414Y0110518D03*
X0161985Y0110813D03*
X0161985Y0112289D03*
X0105144Y0145656D03*
D44*
X0105218Y0145803D03*
X0105218Y0145951D03*
X0114372Y0128972D03*
X0116586Y0128677D03*
X0126478Y0119524D03*
X0131203Y0123215D03*
X0131203Y0123362D03*
X0131350Y0123657D03*
X0134598Y0124691D03*
X0135189Y0122624D03*
X0139027Y0122181D03*
X0139027Y0123362D03*
X0143604Y0122329D03*
X0143752Y0122624D03*
X0141980Y0104612D03*
X0141980Y0104465D03*
X0141980Y0103579D03*
X0137403Y0104760D03*
X0137256Y0104465D03*
X0137108Y0103874D03*
X0137256Y0103431D03*
X0129579Y0104465D03*
X0129579Y0105203D03*
X0124707Y0105055D03*
X0124854Y0103579D03*
X0122935Y0108746D03*
X0122935Y0108894D03*
X0118210Y0109337D03*
X0117620Y0111404D03*
X0112452Y0113618D03*
X0143604Y0092654D03*
X0143604Y0091915D03*
X0143604Y0091768D03*
X0143752Y0091620D03*
X0148624Y0092358D03*
X0148772Y0092211D03*
X0148772Y0092063D03*
X0148772Y0091915D03*
X0155710Y0087781D03*
X0155858Y0087486D03*
X0155858Y0087339D03*
X0155858Y0087191D03*
X0165307Y0088667D03*
X0172541Y0084386D03*
X0172541Y0084238D03*
X0191734Y0092949D03*
X0191734Y0093096D03*
X0191881Y0093244D03*
X0191881Y0093392D03*
X0191881Y0092801D03*
X0191881Y0092654D03*
X0191881Y0092506D03*
X0197344Y0092506D03*
X0197492Y0092801D03*
X0207974Y0103136D03*
X0208122Y0104317D03*
X0212551Y0103283D03*
X0218604Y0108008D03*
X0218752Y0107860D03*
X0218899Y0107713D03*
X0205759Y0115094D03*
X0205759Y0115242D03*
X0201183Y0115242D03*
X0201183Y0115094D03*
X0201183Y0114947D03*
X0201183Y0114799D03*
X0201183Y0115390D03*
X0183319Y0120852D03*
X0173427Y0118638D03*
X0166636Y0111846D03*
X0166636Y0111699D03*
X0166783Y0111551D03*
X0166783Y0111404D03*
X0166783Y0111256D03*
X0166783Y0111108D03*
X0166783Y0110961D03*
X0161911Y0110961D03*
X0161764Y0119376D03*
X0187600Y0143441D03*
X0196163Y0142555D03*
X0206793Y0140045D03*
X0206793Y0139898D03*
X0208860Y0139898D03*
X0214913Y0139750D03*
X0214913Y0140636D03*
X0214913Y0140783D03*
D45*
X0205833Y0114947D03*
X0205833Y0114799D03*
X0205833Y0114652D03*
X0212477Y0104169D03*
X0212477Y0103136D03*
X0191955Y0093539D03*
X0191955Y0092358D03*
X0166857Y0084386D03*
X0155784Y0086896D03*
X0155784Y0087043D03*
X0155784Y0087634D03*
X0129505Y0105350D03*
X0123009Y0109041D03*
X0123009Y0109189D03*
X0123009Y0109337D03*
X0143678Y0122476D03*
X0169072Y0121148D03*
D46*
X0173353Y0117900D03*
X0168924Y0115242D03*
X0167743Y0114504D03*
X0174829Y0111404D03*
X0179259Y0102693D03*
X0179554Y0102545D03*
X0181030Y0101659D03*
X0169219Y0100921D03*
X0161542Y0105793D03*
X0160361Y0106531D03*
X0157113Y0100478D03*
X0152979Y0103136D03*
X0151207Y0104317D03*
X0150026Y0105055D03*
X0148255Y0106236D03*
X0147073Y0106974D03*
X0145302Y0108156D03*
X0144121Y0108894D03*
X0152979Y0111404D03*
X0154455Y0113766D03*
X0157113Y0115537D03*
X0158589Y0116571D03*
X0158885Y0116719D03*
X0160361Y0117752D03*
X0152684Y0121295D03*
X0126109Y0120557D03*
X0136444Y0098411D03*
X0180735Y0084681D03*
X0182507Y0085862D03*
X0186640Y0089553D03*
X0204505Y0099888D03*
X0205243Y0100331D03*
X0205833Y0100774D03*
X0199928Y0104612D03*
X0191070Y0115390D03*
X0217054Y0120262D03*
X0217792Y0119819D03*
X0219121Y0118933D03*
X0220745Y0117900D03*
X0221483Y0117457D03*
D47*
X0218899Y0107417D03*
X0214323Y0107417D03*
X0214323Y0107270D03*
X0208417Y0104465D03*
X0198082Y0118047D03*
X0192177Y0093835D03*
X0167078Y0084976D03*
X0150838Y0088224D03*
X0139027Y0096197D03*
X0129283Y0104022D03*
X0129283Y0104169D03*
X0125740Y0124691D03*
X0105071Y0145508D03*
X0152315Y0121738D03*
X0162206Y0110665D03*
D48*
X0173427Y0118490D03*
X0155267Y0088372D03*
X0150838Y0086600D03*
X0171950Y0085124D03*
X0118653Y0109780D03*
X0119391Y0117604D03*
X0211960Y0142407D03*
D49*
X0205095Y0115833D03*
X0166119Y0112289D03*
X0162575Y0110370D03*
X0141759Y0105055D03*
X0137773Y0105055D03*
X0129357Y0104317D03*
X0122123Y0107860D03*
X0117694Y0111256D03*
X0128324Y0119819D03*
X0132310Y0124396D03*
X0139249Y0121886D03*
X0141463Y0124543D03*
X0143530Y0123362D03*
X0148402Y0092654D03*
X0148402Y0091325D03*
X0150617Y0087929D03*
X0150617Y0087043D03*
X0150617Y0086896D03*
X0150764Y0086748D03*
X0144269Y0091177D03*
X0160509Y0088520D03*
X0167152Y0085124D03*
D50*
X0171582Y0085272D03*
X0139101Y0096344D03*
X0125814Y0113323D03*
X0128767Y0119376D03*
X0139397Y0121738D03*
X0157999Y0133992D03*
X0157999Y0134140D03*
X0157999Y0134583D03*
X0179259Y0146394D03*
X0224584Y0139455D03*
X0210115Y0105350D03*
X0119761Y0106827D03*
X0115774Y0112289D03*
X0117251Y0119081D03*
X0116808Y0129268D03*
D51*
X0124264Y0123805D03*
X0134303Y0124839D03*
X0134746Y0124100D03*
X0142866Y0121738D03*
X0161468Y0119081D03*
X0141537Y0105203D03*
X0141685Y0103136D03*
X0129135Y0103726D03*
X0115553Y0112585D03*
X0148181Y0091177D03*
X0167374Y0085272D03*
X0208122Y0102841D03*
X0214618Y0106974D03*
X0218309Y0108303D03*
X0211665Y0123362D03*
X0211665Y0123510D03*
X0198083Y0119081D03*
D52*
X0216759Y0106089D03*
X0233589Y0121295D03*
X0173353Y0117752D03*
X0168186Y0107122D03*
X0167152Y0106384D03*
X0166709Y0106089D03*
X0151207Y0096197D03*
X0148255Y0094425D03*
X0155341Y0085272D03*
X0162723Y0087486D03*
X0108688Y0145656D03*
X0108688Y0145803D03*
X0108688Y0145951D03*
D53*
X0109131Y0146984D03*
X0140135Y0105941D03*
X0171138Y0085419D03*
X0174386Y0088520D03*
X0174386Y0088963D03*
X0181473Y0107565D03*
X0208048Y0118638D03*
X0217054Y0105793D03*
X0183245Y0142703D03*
D54*
X0170179Y0116571D03*
X0139618Y0123657D03*
X0162797Y0087043D03*
X0167669Y0085419D03*
X0224657Y0139602D03*
D55*
X0154677Y0085419D03*
D56*
X0159180Y0099150D03*
X0159918Y0106827D03*
X0152536Y0103431D03*
X0150322Y0104907D03*
X0149583Y0105350D03*
X0147369Y0106827D03*
X0154012Y0113470D03*
X0156227Y0114947D03*
X0157703Y0115980D03*
X0158442Y0116423D03*
X0159918Y0117457D03*
X0152536Y0121148D03*
X0151798Y0120705D03*
X0173205Y0132220D03*
X0176896Y0142850D03*
X0193875Y0134140D03*
X0185016Y0119081D03*
X0184278Y0119524D03*
X0183540Y0119967D03*
X0182802Y0120409D03*
X0178373Y0113618D03*
X0177635Y0113175D03*
X0176896Y0112732D03*
X0176158Y0112289D03*
X0179111Y0102841D03*
X0179849Y0102398D03*
X0180587Y0101955D03*
X0181325Y0101512D03*
X0168776Y0101217D03*
X0173944Y0089553D03*
X0182064Y0085567D03*
X0186493Y0088520D03*
X0204062Y0099593D03*
X0204800Y0100035D03*
X0205390Y0100478D03*
X0206867Y0101364D03*
X0200961Y0105350D03*
X0199485Y0104317D03*
X0216611Y0120557D03*
X0217349Y0120114D03*
X0218678Y0119228D03*
X0219564Y0118638D03*
X0220302Y0118195D03*
X0222516Y0116719D03*
X0225469Y0114652D03*
X0224731Y0113175D03*
X0131424Y0101659D03*
X0129209Y0118638D03*
X0125666Y0120852D03*
D57*
X0119760Y0110370D03*
X0169662Y0085567D03*
X0173353Y0117309D03*
D58*
X0163978Y0104760D03*
X0144785Y0100035D03*
X0154382Y0085567D03*
X0209450Y0128382D03*
D59*
X0187600Y0144179D03*
X0187600Y0144327D03*
X0137403Y0144031D03*
X0137403Y0143884D03*
X0123968Y0113323D03*
X0119687Y0106679D03*
X0113781Y0112585D03*
X0167226Y0085715D03*
D60*
X0154013Y0085715D03*
X0132753Y0109337D03*
X0164052Y0112437D03*
X0200814Y0097969D03*
X0208491Y0101807D03*
X0207015Y0141226D03*
X0207015Y0141374D03*
X0207015Y0141522D03*
D61*
X0193727Y0134435D03*
X0183392Y0146394D03*
X0170400Y0116128D03*
X0166709Y0113913D03*
X0164495Y0109780D03*
X0164199Y0104169D03*
X0170400Y0108598D03*
X0171138Y0109041D03*
X0171581Y0109337D03*
X0171877Y0109484D03*
X0173058Y0110222D03*
X0178520Y0114799D03*
X0172615Y0098707D03*
X0173058Y0098411D03*
X0173353Y0098264D03*
X0176306Y0096344D03*
X0177044Y0095902D03*
X0179997Y0093982D03*
X0180735Y0093539D03*
X0181916Y0092801D03*
X0182949Y0092063D03*
X0183688Y0091620D03*
X0184426Y0091177D03*
X0184869Y0090882D03*
X0185902Y0090144D03*
X0186345Y0089848D03*
X0170400Y0091915D03*
X0167448Y0093835D03*
X0163757Y0096197D03*
X0161247Y0089996D03*
X0170400Y0086010D03*
X0170400Y0085862D03*
X0157113Y0108598D03*
X0156818Y0108746D03*
X0156375Y0109041D03*
X0147516Y0118047D03*
X0147959Y0118343D03*
X0143530Y0115537D03*
X0133048Y0121886D03*
X0115331Y0117604D03*
X0142054Y0098707D03*
X0224731Y0115242D03*
D62*
X0202069Y0120262D03*
X0201921Y0120114D03*
X0198968Y0119228D03*
X0198230Y0117752D03*
X0201183Y0096787D03*
X0167374Y0085862D03*
X0113781Y0112437D03*
X0113929Y0128677D03*
X0123525Y0142850D03*
X0214766Y0139307D03*
D63*
X0206941Y0140783D03*
X0206941Y0140931D03*
X0206941Y0141079D03*
X0219933Y0151413D03*
X0221852Y0128825D03*
X0216685Y0106679D03*
X0194687Y0101659D03*
X0192768Y0095016D03*
X0153791Y0085862D03*
X0147000Y0093982D03*
X0146557Y0093687D03*
X0146409Y0093539D03*
X0146262Y0093392D03*
X0144785Y0099888D03*
X0139027Y0097378D03*
X0127216Y0105646D03*
X0119982Y0107713D03*
X0119539Y0110518D03*
X0119392Y0110665D03*
X0116881Y0118047D03*
X0138585Y0111846D03*
X0140504Y0121295D03*
X0140651Y0121443D03*
X0174460Y0145951D03*
D64*
X0172246Y0142998D03*
X0193801Y0134287D03*
X0185533Y0118785D03*
X0185238Y0118933D03*
X0185976Y0118490D03*
X0186714Y0118047D03*
X0188486Y0117014D03*
X0188929Y0116719D03*
X0189667Y0116276D03*
X0189962Y0116128D03*
X0190848Y0115537D03*
X0192472Y0102545D03*
X0203398Y0099150D03*
X0203840Y0099445D03*
X0186419Y0089701D03*
X0185681Y0087929D03*
X0185238Y0087634D03*
X0184943Y0087486D03*
X0184500Y0087191D03*
X0184057Y0086896D03*
X0183614Y0086600D03*
X0182728Y0086010D03*
X0180514Y0093687D03*
X0179775Y0094130D03*
X0179333Y0094425D03*
X0177708Y0095459D03*
X0177561Y0095606D03*
X0176823Y0096049D03*
X0171951Y0099150D03*
X0171212Y0099593D03*
X0169441Y0100774D03*
X0168260Y0101512D03*
X0167964Y0101659D03*
X0167817Y0101807D03*
X0167522Y0101955D03*
X0167226Y0102102D03*
X0166783Y0102398D03*
X0166340Y0102693D03*
X0165897Y0102988D03*
X0165012Y0103579D03*
X0164569Y0103874D03*
X0161321Y0105941D03*
X0160878Y0106236D03*
X0160583Y0106384D03*
X0160140Y0106679D03*
X0155562Y0101512D03*
X0155710Y0101364D03*
X0156006Y0101217D03*
X0156153Y0101069D03*
X0156449Y0100921D03*
X0156892Y0100626D03*
X0157630Y0100183D03*
X0158515Y0099593D03*
X0158663Y0099445D03*
X0158959Y0099297D03*
X0159401Y0099002D03*
X0159844Y0098707D03*
X0160140Y0098559D03*
X0160583Y0098264D03*
X0161468Y0097673D03*
X0161911Y0097378D03*
X0162354Y0097083D03*
X0162797Y0096787D03*
X0163092Y0096640D03*
X0163535Y0096344D03*
X0164273Y0095902D03*
X0164421Y0095754D03*
X0166045Y0094720D03*
X0166488Y0094425D03*
X0166783Y0094278D03*
X0167226Y0093982D03*
X0168850Y0092949D03*
X0169293Y0092654D03*
X0169736Y0092358D03*
X0170179Y0092063D03*
X0170917Y0091620D03*
X0171803Y0091030D03*
X0171951Y0090882D03*
X0172246Y0090734D03*
X0172394Y0090587D03*
X0172689Y0090439D03*
X0173132Y0090144D03*
X0173279Y0089996D03*
X0173722Y0089701D03*
X0154086Y0102398D03*
X0153939Y0102545D03*
X0153201Y0102988D03*
X0152758Y0103283D03*
X0150986Y0104465D03*
X0148033Y0106384D03*
X0147590Y0106679D03*
X0145966Y0107713D03*
X0140061Y0105793D03*
X0136222Y0110961D03*
X0135927Y0110813D03*
X0135779Y0110665D03*
X0135484Y0110518D03*
X0135189Y0110370D03*
X0139470Y0113028D03*
X0139913Y0113323D03*
X0140209Y0113470D03*
X0144195Y0115980D03*
X0144342Y0116128D03*
X0145376Y0116719D03*
X0146114Y0117161D03*
X0146557Y0117457D03*
X0147295Y0117900D03*
X0148181Y0118490D03*
X0149657Y0119376D03*
X0150100Y0119671D03*
X0150543Y0119967D03*
X0151133Y0120262D03*
X0151281Y0120409D03*
X0151577Y0120557D03*
X0152020Y0120852D03*
X0156006Y0114799D03*
X0156449Y0115094D03*
X0156892Y0115390D03*
X0155562Y0114504D03*
X0154677Y0113913D03*
X0154234Y0110518D03*
X0167964Y0114652D03*
X0170179Y0115980D03*
X0173870Y0110813D03*
X0173722Y0110665D03*
X0174165Y0110961D03*
X0174608Y0111256D03*
X0169736Y0108156D03*
X0169441Y0108008D03*
X0151133Y0096344D03*
X0141390Y0098264D03*
X0136665Y0098264D03*
X0130612Y0102102D03*
X0132384Y0116571D03*
X0129726Y0118343D03*
X0138732Y0120705D03*
X0108762Y0146837D03*
X0223033Y0116423D03*
X0225100Y0114947D03*
X0225248Y0114799D03*
D65*
X0213215Y0123657D03*
X0211739Y0123657D03*
X0211739Y0123805D03*
X0180145Y0121295D03*
X0155341Y0113175D03*
X0152684Y0122329D03*
X0139249Y0110813D03*
X0136591Y0110075D03*
X0135115Y0125134D03*
X0113855Y0128530D03*
X0167891Y0150528D03*
X0167595Y0086010D03*
D66*
X0170253Y0086157D03*
X0138953Y0097083D03*
X0133048Y0122181D03*
X0165823Y0154809D03*
X0165823Y0154957D03*
X0165823Y0155104D03*
X0233442Y0125872D03*
X0233442Y0125724D03*
X0233442Y0125577D03*
X0233442Y0125429D03*
X0233442Y0125281D03*
X0233442Y0125134D03*
X0233442Y0124986D03*
D67*
X0210336Y0105055D03*
X0204283Y0099740D03*
X0186124Y0088224D03*
X0185385Y0087781D03*
X0183909Y0086748D03*
X0183171Y0086305D03*
X0180956Y0093392D03*
X0178004Y0095311D03*
X0177265Y0095754D03*
X0172836Y0090291D03*
X0171360Y0091325D03*
X0170622Y0091768D03*
X0167669Y0093687D03*
X0164716Y0095606D03*
X0163978Y0096049D03*
X0161763Y0097526D03*
X0161025Y0097969D03*
X0160287Y0098411D03*
X0158073Y0099888D03*
X0157334Y0100331D03*
X0154382Y0102250D03*
X0153643Y0102693D03*
X0151429Y0104169D03*
X0148476Y0106089D03*
X0157334Y0108451D03*
X0155120Y0114209D03*
X0149952Y0119524D03*
X0149214Y0119081D03*
X0148476Y0118638D03*
X0147738Y0118195D03*
X0147000Y0117752D03*
X0143752Y0115685D03*
X0164716Y0103726D03*
X0165454Y0103283D03*
X0174313Y0111108D03*
X0175051Y0111551D03*
X0178742Y0114652D03*
X0169884Y0115833D03*
X0169145Y0115390D03*
X0168407Y0114947D03*
X0166193Y0113766D03*
X0117029Y0118638D03*
D68*
X0112157Y0113913D03*
X0118210Y0107860D03*
X0128545Y0119671D03*
X0131498Y0116423D03*
X0143309Y0123510D03*
X0116734Y0128972D03*
X0160582Y0089701D03*
X0160582Y0088372D03*
X0155120Y0086453D03*
X0201773Y0115833D03*
X0205464Y0114209D03*
X0212108Y0104465D03*
X0218752Y0107122D03*
D69*
X0209820Y0105498D03*
X0218678Y0141522D03*
X0162871Y0086896D03*
D70*
X0171065Y0091472D03*
X0171508Y0091177D03*
X0168555Y0093096D03*
X0168112Y0093392D03*
X0165602Y0095016D03*
X0165159Y0095311D03*
X0162649Y0096935D03*
X0162206Y0097230D03*
X0161173Y0097821D03*
X0160730Y0098116D03*
X0159697Y0098854D03*
X0158220Y0099740D03*
X0157777Y0100035D03*
X0155267Y0101659D03*
X0154824Y0101955D03*
X0152315Y0103579D03*
X0151872Y0103874D03*
X0148919Y0105793D03*
X0153348Y0111108D03*
X0153791Y0110813D03*
X0154824Y0110075D03*
X0155267Y0109780D03*
X0157777Y0108156D03*
X0159254Y0107270D03*
X0159697Y0106974D03*
X0165159Y0103431D03*
X0165602Y0103136D03*
X0166635Y0102545D03*
X0167078Y0102250D03*
X0169588Y0100626D03*
X0170031Y0100331D03*
X0178447Y0095016D03*
X0178889Y0094720D03*
X0181399Y0093096D03*
X0184795Y0087339D03*
X0184352Y0087043D03*
X0185828Y0088077D03*
X0186271Y0088372D03*
X0194687Y0091177D03*
X0192177Y0102693D03*
X0191734Y0102988D03*
X0190258Y0113175D03*
X0190700Y0115685D03*
X0189224Y0116571D03*
X0186271Y0118343D03*
X0184795Y0119228D03*
X0175494Y0111846D03*
X0172541Y0109927D03*
X0169588Y0115685D03*
X0150838Y0120114D03*
X0150395Y0119819D03*
X0149362Y0119228D03*
X0148919Y0118933D03*
X0144933Y0116423D03*
X0139027Y0112732D03*
X0130021Y0118195D03*
X0127069Y0119967D03*
X0119834Y0107122D03*
X0127216Y0106384D03*
X0207088Y0101512D03*
X0223181Y0116276D03*
X0221852Y0128382D03*
D71*
X0212773Y0123067D03*
X0208786Y0118195D03*
X0208343Y0118490D03*
X0207900Y0118785D03*
X0207310Y0119081D03*
X0207162Y0119228D03*
X0206867Y0119376D03*
X0206424Y0119671D03*
X0204948Y0120557D03*
X0213068Y0115390D03*
X0210263Y0105203D03*
X0200961Y0097230D03*
X0194613Y0091030D03*
X0189741Y0105498D03*
X0185312Y0110075D03*
X0181916Y0107860D03*
X0181030Y0107270D03*
X0178225Y0105350D03*
X0177930Y0105203D03*
X0167152Y0114356D03*
X0158589Y0107860D03*
X0153127Y0113028D03*
X0141906Y0110518D03*
X0127290Y0106531D03*
X0126552Y0112585D03*
X0121237Y0115980D03*
X0112822Y0116276D03*
X0112526Y0116128D03*
X0105883Y0137683D03*
X0132900Y0142703D03*
X0155341Y0093835D03*
X0172763Y0087339D03*
X0174239Y0088372D03*
X0191513Y0114947D03*
X0192251Y0137388D03*
D72*
X0204652Y0120705D03*
X0207605Y0118933D03*
X0208491Y0118343D03*
X0209229Y0117900D03*
X0213658Y0114504D03*
X0173205Y0087634D03*
X0152536Y0111994D03*
X0114446Y0117309D03*
X0113707Y0116866D03*
D73*
X0132679Y0109041D03*
X0139470Y0120852D03*
X0149805Y0137978D03*
X0149805Y0138126D03*
X0166045Y0152004D03*
X0166045Y0152152D03*
X0166045Y0152299D03*
X0166045Y0152447D03*
X0166045Y0152594D03*
X0166045Y0152742D03*
X0166045Y0152890D03*
X0166045Y0153037D03*
X0166045Y0153185D03*
X0166045Y0153333D03*
X0174460Y0146246D03*
X0168555Y0123953D03*
X0168555Y0123805D03*
X0168555Y0123657D03*
X0168555Y0123510D03*
X0168555Y0123362D03*
X0168555Y0123215D03*
X0168555Y0123067D03*
X0168555Y0122919D03*
X0168555Y0122772D03*
X0207384Y0142407D03*
X0231006Y0152742D03*
X0231006Y0152890D03*
X0231006Y0153037D03*
X0231006Y0153185D03*
X0231006Y0153333D03*
X0231006Y0153480D03*
X0233663Y0123362D03*
X0233663Y0123215D03*
X0233663Y0123067D03*
X0233663Y0122919D03*
X0233663Y0122772D03*
X0233663Y0122624D03*
X0233663Y0122476D03*
X0233663Y0122329D03*
X0233663Y0122181D03*
X0233663Y0122033D03*
X0233663Y0121738D03*
X0233663Y0121591D03*
X0210336Y0104760D03*
X0162649Y0087634D03*
D74*
X0161025Y0088077D03*
X0164716Y0109337D03*
X0158073Y0133844D03*
X0205907Y0132959D03*
X0217718Y0139750D03*
D75*
X0211960Y0142555D03*
X0211960Y0142703D03*
X0188781Y0111846D03*
X0192620Y0091915D03*
X0160730Y0088224D03*
X0146262Y0090144D03*
X0132384Y0108303D03*
X0127216Y0106679D03*
X0117620Y0111108D03*
X0119539Y0117457D03*
X0124116Y0123510D03*
X0131646Y0122624D03*
X0133122Y0121443D03*
D76*
X0131572Y0116276D03*
X0129209Y0103874D03*
X0114446Y0113323D03*
X0116660Y0128825D03*
X0153274Y0148313D03*
X0170253Y0116719D03*
X0160656Y0089553D03*
X0155489Y0088224D03*
X0212182Y0102841D03*
X0214396Y0107122D03*
X0218825Y0107270D03*
X0215135Y0140045D03*
D77*
X0217718Y0140045D03*
X0217718Y0139898D03*
X0224214Y0141817D03*
X0224066Y0143146D03*
X0224066Y0143293D03*
X0224066Y0143441D03*
X0223919Y0144327D03*
X0223919Y0144474D03*
X0223919Y0144622D03*
X0223919Y0144770D03*
X0223919Y0144917D03*
X0223772Y0145360D03*
X0223772Y0145508D03*
X0223772Y0145656D03*
X0223772Y0145803D03*
X0223772Y0145951D03*
X0223772Y0146098D03*
X0223772Y0146246D03*
X0223624Y0146541D03*
X0223624Y0146689D03*
X0223624Y0146837D03*
X0223624Y0146984D03*
X0223624Y0147132D03*
X0223624Y0147280D03*
X0223624Y0147427D03*
X0223476Y0147575D03*
X0223476Y0147722D03*
X0223476Y0147870D03*
X0232335Y0148461D03*
X0232482Y0146837D03*
X0232629Y0145213D03*
X0232777Y0143441D03*
X0232925Y0141817D03*
X0233220Y0138421D03*
X0233663Y0133402D03*
X0233959Y0130006D03*
X0234106Y0128382D03*
X0234106Y0128234D03*
X0234254Y0126906D03*
X0234254Y0126758D03*
X0234254Y0126610D03*
X0225248Y0132516D03*
X0225248Y0133992D03*
X0225248Y0134140D03*
X0225248Y0134287D03*
X0225100Y0135026D03*
X0225100Y0135173D03*
X0225100Y0135321D03*
X0225100Y0135469D03*
X0225100Y0135616D03*
X0224952Y0136059D03*
X0224952Y0136207D03*
X0224952Y0136354D03*
X0224952Y0136502D03*
X0224805Y0137240D03*
X0205612Y0134730D03*
X0205612Y0134583D03*
X0205612Y0134435D03*
X0205612Y0134287D03*
X0205612Y0134140D03*
X0205759Y0133697D03*
X0205759Y0133549D03*
X0205464Y0135173D03*
X0205464Y0135321D03*
X0205464Y0135469D03*
X0205464Y0135616D03*
X0205464Y0135764D03*
X0205464Y0135911D03*
X0205464Y0136059D03*
X0205464Y0136207D03*
X0205464Y0136354D03*
X0205317Y0136502D03*
X0205317Y0136650D03*
X0205317Y0136797D03*
X0205317Y0136945D03*
X0205317Y0137093D03*
X0205317Y0137240D03*
X0205317Y0137388D03*
X0205317Y0137535D03*
X0205317Y0137683D03*
X0205169Y0137978D03*
X0205169Y0138126D03*
X0205169Y0138274D03*
X0205169Y0138421D03*
X0205169Y0138569D03*
X0205169Y0138717D03*
X0205169Y0138864D03*
X0205169Y0139012D03*
X0205169Y0139159D03*
X0201183Y0138717D03*
X0201183Y0138569D03*
X0201183Y0138421D03*
X0201183Y0138274D03*
X0201183Y0138126D03*
X0201035Y0139307D03*
X0201035Y0139455D03*
X0200888Y0140783D03*
X0200888Y0140931D03*
X0200888Y0141079D03*
X0200888Y0141226D03*
X0200888Y0141374D03*
X0200740Y0142112D03*
X0200740Y0142260D03*
X0201478Y0136502D03*
X0201478Y0136354D03*
X0201478Y0136207D03*
X0201478Y0136059D03*
X0201478Y0135911D03*
X0201478Y0135764D03*
X0201626Y0135321D03*
X0201626Y0135173D03*
X0201626Y0135026D03*
X0201626Y0134878D03*
X0201626Y0134730D03*
X0201626Y0134583D03*
X0201626Y0134435D03*
X0201773Y0133844D03*
X0201773Y0133697D03*
X0201773Y0133549D03*
X0201773Y0133402D03*
X0201773Y0133254D03*
X0194687Y0132959D03*
X0194687Y0132811D03*
X0194687Y0132663D03*
X0194687Y0132516D03*
X0194687Y0132368D03*
X0194539Y0133106D03*
X0194539Y0133254D03*
X0194539Y0133402D03*
X0194539Y0133549D03*
X0192029Y0137535D03*
X0191881Y0137831D03*
X0191881Y0137978D03*
X0191881Y0138126D03*
X0191881Y0138274D03*
X0191881Y0138421D03*
X0191881Y0138569D03*
X0191734Y0138864D03*
X0191734Y0139012D03*
X0191734Y0139159D03*
X0191734Y0139307D03*
X0191734Y0139455D03*
X0191734Y0139602D03*
X0191734Y0139750D03*
X0191586Y0140045D03*
X0191586Y0140193D03*
X0191586Y0140341D03*
X0191586Y0140488D03*
X0191586Y0140636D03*
X0191586Y0140783D03*
X0191586Y0140931D03*
X0191439Y0141226D03*
X0191439Y0141374D03*
X0191439Y0141522D03*
X0191439Y0141669D03*
X0191439Y0141817D03*
X0191439Y0141965D03*
X0191439Y0142112D03*
X0191439Y0142260D03*
X0191439Y0142407D03*
X0191439Y0142555D03*
X0191439Y0142703D03*
X0187010Y0142407D03*
X0187010Y0142260D03*
X0187010Y0142112D03*
X0187157Y0141522D03*
X0187157Y0141374D03*
X0187157Y0141226D03*
X0187157Y0141079D03*
X0187305Y0140488D03*
X0187305Y0140341D03*
X0187305Y0140193D03*
X0187305Y0140045D03*
X0187305Y0139898D03*
X0187452Y0139455D03*
X0187452Y0139307D03*
X0187452Y0139159D03*
X0187452Y0139012D03*
X0187452Y0138864D03*
X0187452Y0138717D03*
X0187600Y0138274D03*
X0187600Y0138126D03*
X0187600Y0137978D03*
X0187600Y0137831D03*
X0187600Y0137683D03*
X0187600Y0137535D03*
X0187600Y0137388D03*
X0187748Y0137093D03*
X0187748Y0136945D03*
X0187748Y0136797D03*
X0187748Y0136650D03*
X0187748Y0136502D03*
X0187748Y0136354D03*
X0187748Y0136207D03*
X0187896Y0135616D03*
X0187896Y0135469D03*
X0187896Y0135321D03*
X0187896Y0135173D03*
X0187896Y0135026D03*
X0187896Y0134878D03*
X0188043Y0133844D03*
X0188043Y0133697D03*
X0179480Y0146098D03*
X0171655Y0140931D03*
X0171655Y0140783D03*
X0171655Y0140636D03*
X0171655Y0140488D03*
X0171803Y0140045D03*
X0171803Y0139898D03*
X0171803Y0139750D03*
X0171803Y0139602D03*
X0171803Y0139455D03*
X0171803Y0139307D03*
X0171803Y0139159D03*
X0171950Y0139012D03*
X0171950Y0138864D03*
X0171950Y0138717D03*
X0171950Y0138569D03*
X0171950Y0138421D03*
X0171950Y0138274D03*
X0171950Y0138126D03*
X0172098Y0137683D03*
X0172098Y0137535D03*
X0172098Y0137388D03*
X0172098Y0137240D03*
X0172098Y0137093D03*
X0172098Y0136945D03*
X0172246Y0136354D03*
X0172246Y0136207D03*
X0172246Y0136059D03*
X0172246Y0135911D03*
X0172246Y0135764D03*
X0172246Y0135616D03*
X0172393Y0135026D03*
X0172393Y0134878D03*
X0172393Y0134730D03*
X0172393Y0134583D03*
X0172393Y0134435D03*
X0172393Y0134287D03*
X0172393Y0134140D03*
X0172393Y0133992D03*
X0172541Y0133844D03*
X0172541Y0133697D03*
X0172541Y0133549D03*
X0172541Y0133402D03*
X0172541Y0133254D03*
X0172541Y0133106D03*
X0172541Y0132959D03*
X0172541Y0132811D03*
X0172688Y0132663D03*
X0172688Y0132516D03*
X0172688Y0132368D03*
X0167374Y0126315D03*
X0167374Y0126167D03*
X0167374Y0126020D03*
X0158220Y0132516D03*
X0158073Y0134878D03*
X0158073Y0135026D03*
X0158073Y0135173D03*
X0158073Y0135321D03*
X0157925Y0135911D03*
X0157925Y0136059D03*
X0157925Y0136207D03*
X0157925Y0136354D03*
X0157925Y0136502D03*
X0157925Y0136650D03*
X0157925Y0136797D03*
X0157925Y0136945D03*
X0157777Y0137240D03*
X0157777Y0137388D03*
X0157777Y0137535D03*
X0157777Y0137683D03*
X0157777Y0137831D03*
X0157777Y0137978D03*
X0157777Y0138126D03*
X0157777Y0138274D03*
X0157777Y0138421D03*
X0157629Y0138717D03*
X0157629Y0138864D03*
X0157629Y0139012D03*
X0157629Y0139159D03*
X0157629Y0139307D03*
X0157629Y0139455D03*
X0157629Y0139602D03*
X0157629Y0139750D03*
X0157629Y0139898D03*
X0157482Y0140045D03*
X0157482Y0140193D03*
X0157482Y0140341D03*
X0157482Y0140488D03*
X0157482Y0140636D03*
X0157482Y0140783D03*
X0157482Y0140931D03*
X0157482Y0141079D03*
X0157482Y0141226D03*
X0157335Y0141522D03*
X0157335Y0141669D03*
X0157335Y0141817D03*
X0157335Y0141965D03*
X0157335Y0142112D03*
X0157335Y0142260D03*
X0157335Y0142407D03*
X0157335Y0142555D03*
X0157186Y0142850D03*
X0157186Y0142998D03*
X0157186Y0143146D03*
X0157186Y0143293D03*
X0157186Y0143441D03*
X0157186Y0143589D03*
X0157186Y0143736D03*
X0157186Y0143884D03*
X0157039Y0144327D03*
X0157039Y0144474D03*
X0157039Y0144622D03*
X0157039Y0144770D03*
X0157039Y0144917D03*
X0157039Y0145065D03*
X0157039Y0145213D03*
X0156892Y0145508D03*
X0156892Y0145656D03*
X0156892Y0145803D03*
X0156892Y0145951D03*
X0156892Y0146098D03*
X0156892Y0146246D03*
X0156892Y0146394D03*
X0156744Y0146837D03*
X0156744Y0146984D03*
X0156744Y0147132D03*
X0156744Y0147280D03*
X0156744Y0147427D03*
X0156596Y0148018D03*
X0156596Y0148165D03*
X0165455Y0148313D03*
X0165455Y0148461D03*
X0165602Y0146837D03*
X0165602Y0146689D03*
X0165750Y0145065D03*
X0165898Y0143441D03*
X0171508Y0142555D03*
X0171508Y0142407D03*
X0171508Y0142260D03*
X0171508Y0142112D03*
X0171508Y0141965D03*
X0171508Y0141817D03*
X0171508Y0141669D03*
X0141833Y0138864D03*
X0141833Y0138717D03*
X0141833Y0138569D03*
X0141833Y0138421D03*
X0141833Y0138274D03*
X0141833Y0138126D03*
X0141833Y0137978D03*
X0141833Y0137831D03*
X0141833Y0137683D03*
X0141980Y0137240D03*
X0141980Y0137093D03*
X0141980Y0136945D03*
X0141980Y0136797D03*
X0141980Y0136650D03*
X0141980Y0136502D03*
X0141980Y0136354D03*
X0141980Y0136207D03*
X0142128Y0135764D03*
X0142128Y0135616D03*
X0142128Y0135469D03*
X0142128Y0135321D03*
X0142128Y0135173D03*
X0142128Y0135026D03*
X0142128Y0134878D03*
X0142128Y0134730D03*
X0142275Y0134435D03*
X0142275Y0134287D03*
X0142275Y0134140D03*
X0142275Y0133992D03*
X0142275Y0133844D03*
X0142275Y0133697D03*
X0142275Y0133549D03*
X0142275Y0133402D03*
X0142275Y0133254D03*
X0142423Y0132959D03*
X0142423Y0132811D03*
X0142423Y0132663D03*
X0137846Y0132663D03*
X0137846Y0132516D03*
X0137846Y0132368D03*
X0137846Y0132811D03*
X0137846Y0132959D03*
X0137846Y0133106D03*
X0137846Y0133254D03*
X0137846Y0133402D03*
X0137846Y0133549D03*
X0137846Y0133697D03*
X0137846Y0133844D03*
X0137846Y0133992D03*
X0137699Y0134583D03*
X0137699Y0134730D03*
X0137699Y0134878D03*
X0137699Y0135026D03*
X0137699Y0135173D03*
X0137699Y0135321D03*
X0137551Y0135911D03*
X0137551Y0136059D03*
X0137551Y0136207D03*
X0137551Y0136354D03*
X0137551Y0136502D03*
X0137551Y0136650D03*
X0137403Y0137240D03*
X0137403Y0137388D03*
X0137403Y0137535D03*
X0137403Y0137683D03*
X0137403Y0137831D03*
X0137256Y0138421D03*
X0137256Y0138569D03*
X0137256Y0138717D03*
X0137256Y0138864D03*
X0137256Y0139012D03*
X0137108Y0139455D03*
X0137108Y0139602D03*
X0137108Y0139750D03*
X0137108Y0139898D03*
X0137108Y0140045D03*
X0136960Y0140636D03*
X0136960Y0140783D03*
X0136960Y0140931D03*
X0136960Y0141079D03*
X0136960Y0141226D03*
X0136813Y0141669D03*
X0136813Y0141817D03*
X0136813Y0141965D03*
X0136813Y0142112D03*
X0136813Y0142260D03*
X0136665Y0142555D03*
X0136665Y0142703D03*
X0141389Y0142703D03*
X0141389Y0142850D03*
X0141389Y0142998D03*
X0141537Y0141522D03*
X0141537Y0141374D03*
X0141537Y0141226D03*
X0141537Y0141079D03*
X0141537Y0140931D03*
X0141537Y0140783D03*
X0141685Y0140193D03*
X0141685Y0140045D03*
X0141685Y0139898D03*
X0141685Y0139750D03*
X0141685Y0139602D03*
X0141685Y0139455D03*
X0141685Y0139307D03*
X0141685Y0139159D03*
X0141685Y0139012D03*
X0129136Y0146246D03*
X0121310Y0142703D03*
X0121310Y0142555D03*
X0121310Y0141817D03*
X0121310Y0141669D03*
X0121310Y0141522D03*
X0121310Y0141374D03*
X0121310Y0141226D03*
X0121459Y0140636D03*
X0121459Y0140488D03*
X0121459Y0140341D03*
X0121459Y0140193D03*
X0121459Y0140045D03*
X0121459Y0139898D03*
X0121606Y0139750D03*
X0121606Y0139602D03*
X0121606Y0139455D03*
X0121606Y0139307D03*
X0121606Y0139159D03*
X0121606Y0139012D03*
X0121754Y0138421D03*
X0121754Y0138274D03*
X0121754Y0138126D03*
X0121754Y0137978D03*
X0121754Y0137831D03*
X0121901Y0137240D03*
X0121901Y0137093D03*
X0121901Y0136945D03*
X0121901Y0136797D03*
X0121901Y0136650D03*
X0122049Y0136059D03*
X0122049Y0135911D03*
X0122049Y0135764D03*
X0122049Y0135616D03*
X0122049Y0135469D03*
X0122049Y0135321D03*
X0122049Y0135173D03*
X0122196Y0134878D03*
X0122196Y0134730D03*
X0122196Y0134583D03*
X0122196Y0134435D03*
X0122196Y0134287D03*
X0122196Y0134140D03*
X0122196Y0133992D03*
X0122344Y0133402D03*
X0122344Y0133254D03*
X0122344Y0133106D03*
X0122492Y0132368D03*
X0117915Y0132368D03*
X0117915Y0132516D03*
X0117915Y0132663D03*
X0117915Y0132811D03*
X0117915Y0132959D03*
X0117915Y0133106D03*
X0117767Y0133697D03*
X0117767Y0133844D03*
X0117767Y0133992D03*
X0117767Y0134140D03*
X0117767Y0134287D03*
X0117767Y0134435D03*
X0117767Y0134583D03*
X0117620Y0135173D03*
X0117620Y0135321D03*
X0117620Y0135469D03*
X0117620Y0135616D03*
X0117472Y0136650D03*
X0117325Y0136945D03*
X0117325Y0137093D03*
X0117325Y0137240D03*
X0117325Y0137388D03*
X0117325Y0137535D03*
X0117325Y0137683D03*
X0117325Y0137831D03*
X0117325Y0137978D03*
X0117177Y0138126D03*
X0117177Y0138274D03*
X0117177Y0138421D03*
X0117177Y0138569D03*
X0117177Y0138717D03*
X0117177Y0138864D03*
X0117177Y0139012D03*
X0117177Y0139159D03*
X0117029Y0139455D03*
X0117029Y0139602D03*
X0117029Y0139750D03*
X0117029Y0139898D03*
X0117029Y0140045D03*
X0117029Y0140193D03*
X0117029Y0140341D03*
X0117029Y0140488D03*
X0116881Y0140636D03*
X0116881Y0140783D03*
X0116881Y0140931D03*
X0116881Y0141079D03*
X0116881Y0141226D03*
X0116881Y0141374D03*
X0116881Y0141522D03*
X0116881Y0141669D03*
X0116734Y0141817D03*
X0116734Y0141965D03*
X0116734Y0142112D03*
X0116734Y0142260D03*
X0116734Y0142407D03*
X0116734Y0142555D03*
X0116734Y0142703D03*
X0116734Y0142850D03*
X0116586Y0142998D03*
X0116586Y0143146D03*
X0116586Y0143293D03*
X0116586Y0143441D03*
X0116586Y0143589D03*
X0116586Y0143736D03*
X0116439Y0144179D03*
X0116439Y0144327D03*
X0116439Y0144474D03*
X0116291Y0145213D03*
X0116291Y0145360D03*
X0116291Y0145508D03*
X0116143Y0146394D03*
X0116143Y0146541D03*
X0116143Y0146689D03*
X0116143Y0146837D03*
X0116143Y0146984D03*
X0116143Y0147132D03*
X0116143Y0147280D03*
X0115996Y0148018D03*
X0115996Y0148165D03*
X0105070Y0142703D03*
X0105070Y0142555D03*
X0105070Y0142407D03*
X0105070Y0142260D03*
X0105070Y0142112D03*
X0105070Y0141965D03*
X0105070Y0141817D03*
X0105070Y0141669D03*
X0105070Y0141522D03*
X0105218Y0140193D03*
X0105514Y0139307D03*
X0105514Y0139159D03*
X0105514Y0139012D03*
X0105514Y0138864D03*
X0105809Y0136207D03*
X0105809Y0136059D03*
X0105809Y0135911D03*
X0105809Y0135764D03*
X0105809Y0135616D03*
X0105809Y0135469D03*
X0105809Y0135321D03*
X0105809Y0135173D03*
X0105956Y0134878D03*
X0105956Y0134730D03*
X0105956Y0134583D03*
X0105956Y0134435D03*
X0105956Y0134287D03*
X0105956Y0134140D03*
X0105956Y0133992D03*
X0106104Y0133697D03*
X0106104Y0133549D03*
X0106104Y0133402D03*
X0106104Y0133254D03*
X0106104Y0133106D03*
X0106252Y0132811D03*
X0106252Y0132663D03*
X0110976Y0128382D03*
X0111862Y0115685D03*
X0111714Y0114799D03*
X0115996Y0111994D03*
X0123968Y0122181D03*
X0123821Y0122329D03*
X0123821Y0122476D03*
X0124116Y0123215D03*
X0142718Y0123657D03*
X0141537Y0110813D03*
X0154825Y0088520D03*
X0177118Y0104317D03*
X0177413Y0104907D03*
X0201035Y0097083D03*
D78*
X0211886Y0102693D03*
X0151355Y0088520D03*
X0138068Y0105203D03*
X0112969Y0148313D03*
D79*
X0105292Y0146098D03*
X0118579Y0109632D03*
X0161690Y0111256D03*
X0161690Y0111404D03*
X0161690Y0111551D03*
X0161690Y0111699D03*
X0161690Y0112142D03*
X0165381Y0089701D03*
X0165381Y0089553D03*
X0165381Y0089406D03*
X0165381Y0089258D03*
X0165381Y0089110D03*
X0165381Y0088963D03*
X0165381Y0088815D03*
X0208048Y0104169D03*
D80*
X0165085Y0113323D03*
X0153274Y0088815D03*
X0133638Y0144622D03*
X0133786Y0144770D03*
D81*
X0124190Y0146246D03*
X0133196Y0122476D03*
X0119908Y0107417D03*
X0153274Y0088963D03*
X0173353Y0117604D03*
X0183688Y0146246D03*
X0207310Y0142260D03*
X0216463Y0142260D03*
X0216463Y0142407D03*
X0216611Y0141817D03*
X0216611Y0141669D03*
X0233737Y0121886D03*
X0216759Y0106236D03*
D82*
X0194761Y0101217D03*
X0167743Y0106827D03*
X0166414Y0105941D03*
X0166267Y0105793D03*
X0164052Y0104317D03*
X0153274Y0089110D03*
X0139987Y0105646D03*
X0132605Y0108894D03*
X0127290Y0106236D03*
X0130243Y0102250D03*
X0115184Y0117457D03*
X0116955Y0118490D03*
X0133048Y0122033D03*
X0133491Y0124248D03*
X0137034Y0132220D03*
X0141463Y0124100D03*
X0133195Y0146246D03*
X0193580Y0134730D03*
D83*
X0194465Y0133697D03*
X0187379Y0139602D03*
X0187379Y0139750D03*
X0187083Y0141669D03*
X0187083Y0141817D03*
X0187083Y0141965D03*
X0191512Y0142850D03*
X0166414Y0138421D03*
X0166414Y0138274D03*
X0166414Y0138126D03*
X0166414Y0137978D03*
X0166414Y0137831D03*
X0166414Y0137683D03*
X0166414Y0137535D03*
X0166414Y0137388D03*
X0166414Y0137240D03*
X0166414Y0137093D03*
X0166414Y0136945D03*
X0166709Y0135026D03*
X0166709Y0134878D03*
X0166709Y0134730D03*
X0166709Y0134583D03*
X0166709Y0134435D03*
X0166709Y0134287D03*
X0166709Y0134140D03*
X0166709Y0133992D03*
X0166709Y0133844D03*
X0166709Y0133697D03*
X0166709Y0133549D03*
X0165971Y0141817D03*
X0165971Y0141965D03*
X0165971Y0142112D03*
X0165971Y0142260D03*
X0165971Y0142407D03*
X0165971Y0142555D03*
X0165971Y0142703D03*
X0165971Y0142850D03*
X0165971Y0142998D03*
X0165971Y0143146D03*
X0165971Y0143293D03*
X0157113Y0144031D03*
X0157113Y0144179D03*
X0125666Y0124248D03*
X0119760Y0117014D03*
X0141316Y0110961D03*
X0153127Y0089406D03*
X0173353Y0118195D03*
X0191512Y0114356D03*
X0203323Y0116571D03*
X0192546Y0094130D03*
X0234327Y0126020D03*
X0234327Y0126167D03*
X0234327Y0126315D03*
X0234327Y0126463D03*
X0234032Y0128530D03*
X0234032Y0128677D03*
X0234032Y0128825D03*
X0234032Y0128972D03*
X0234032Y0129120D03*
X0234032Y0129268D03*
X0234032Y0129415D03*
X0234032Y0129563D03*
X0234032Y0129711D03*
X0234032Y0129858D03*
X0233294Y0136797D03*
X0233294Y0136945D03*
X0233294Y0137093D03*
X0233294Y0137240D03*
X0233294Y0137388D03*
X0233294Y0137535D03*
X0233294Y0137683D03*
X0233294Y0137831D03*
X0233294Y0137978D03*
X0233294Y0138126D03*
X0233294Y0138274D03*
X0232851Y0141965D03*
X0232851Y0142112D03*
X0232851Y0142260D03*
X0232851Y0142407D03*
X0232851Y0142555D03*
X0232851Y0142703D03*
X0232851Y0142850D03*
X0232851Y0142998D03*
X0232851Y0143146D03*
X0232851Y0143293D03*
X0232556Y0145360D03*
X0232556Y0145508D03*
X0232556Y0145656D03*
X0232556Y0145803D03*
X0232556Y0145951D03*
X0232556Y0146098D03*
X0232556Y0146246D03*
X0232556Y0146394D03*
X0232556Y0146541D03*
X0232556Y0146689D03*
X0121237Y0142407D03*
X0121237Y0142260D03*
X0121237Y0142112D03*
X0121237Y0141965D03*
X0116070Y0147427D03*
X0116070Y0147575D03*
X0116070Y0147722D03*
X0116070Y0147870D03*
X0105735Y0137240D03*
X0105735Y0137093D03*
X0105735Y0136945D03*
X0105735Y0136797D03*
X0105735Y0136650D03*
X0105735Y0136502D03*
X0105735Y0136354D03*
D84*
X0117546Y0111551D03*
X0122713Y0108303D03*
X0142054Y0104317D03*
X0142054Y0104169D03*
X0142054Y0104022D03*
X0142054Y0103874D03*
X0142054Y0103726D03*
X0143530Y0092506D03*
X0143530Y0092358D03*
X0143530Y0092211D03*
X0143530Y0092063D03*
X0165233Y0089848D03*
X0186640Y0111699D03*
X0198156Y0117900D03*
X0207900Y0104022D03*
X0207900Y0103874D03*
X0207900Y0103431D03*
X0207900Y0103283D03*
X0152388Y0121886D03*
D85*
X0157851Y0137093D03*
X0172320Y0135469D03*
X0172320Y0135321D03*
X0172320Y0135173D03*
X0179259Y0137388D03*
X0188117Y0133549D03*
X0188117Y0133402D03*
X0188117Y0133254D03*
X0188117Y0133106D03*
X0188117Y0132959D03*
X0188117Y0132811D03*
X0188117Y0132663D03*
X0188117Y0132516D03*
X0188117Y0132368D03*
X0191808Y0138717D03*
X0191512Y0141079D03*
X0201847Y0133106D03*
X0201847Y0132959D03*
X0201847Y0132811D03*
X0201847Y0132663D03*
X0201847Y0132516D03*
X0201847Y0132368D03*
X0224879Y0136650D03*
X0224879Y0136797D03*
X0224879Y0136945D03*
X0224879Y0137093D03*
X0223993Y0143589D03*
X0223993Y0143736D03*
X0223993Y0143884D03*
X0223993Y0144031D03*
X0223993Y0144179D03*
X0177044Y0104465D03*
X0196237Y0094130D03*
X0160804Y0089848D03*
X0119760Y0117161D03*
X0111640Y0114947D03*
X0117546Y0135764D03*
X0117546Y0135911D03*
X0117546Y0136059D03*
X0117546Y0136207D03*
X0117546Y0136354D03*
X0117546Y0136502D03*
X0121975Y0136502D03*
X0121975Y0136354D03*
X0121975Y0136207D03*
X0109426Y0137535D03*
X0136886Y0141374D03*
X0136886Y0141522D03*
D86*
X0129652Y0137683D03*
X0126700Y0142850D03*
X0106916Y0132368D03*
X0134967Y0110222D03*
X0138806Y0112585D03*
X0140430Y0113618D03*
X0141021Y0113913D03*
X0141463Y0114209D03*
X0141906Y0114504D03*
X0142645Y0114947D03*
X0143087Y0115242D03*
X0145597Y0116866D03*
X0145893Y0117014D03*
X0146335Y0117309D03*
X0146778Y0117604D03*
X0148698Y0118785D03*
X0154456Y0110370D03*
X0154603Y0110222D03*
X0155932Y0109337D03*
X0156227Y0109189D03*
X0156670Y0108894D03*
X0157556Y0108303D03*
X0167005Y0114061D03*
X0170696Y0116276D03*
X0175863Y0116423D03*
X0178373Y0114947D03*
X0172320Y0109780D03*
X0171434Y0109189D03*
X0170696Y0108746D03*
X0169958Y0108303D03*
X0169219Y0107860D03*
X0170696Y0099888D03*
X0170991Y0099740D03*
X0171434Y0099445D03*
X0172172Y0099002D03*
X0172467Y0098854D03*
X0172910Y0098559D03*
X0173796Y0097969D03*
X0175125Y0097083D03*
X0175863Y0096640D03*
X0176601Y0096197D03*
X0178225Y0095163D03*
X0179554Y0094278D03*
X0180292Y0093835D03*
X0181178Y0093244D03*
X0182507Y0092358D03*
X0182802Y0092211D03*
X0183245Y0091915D03*
X0184131Y0091325D03*
X0185755Y0090291D03*
X0186198Y0089996D03*
X0197418Y0099593D03*
X0197713Y0099445D03*
X0203324Y0116276D03*
X0190184Y0115980D03*
X0188708Y0116866D03*
X0187674Y0117457D03*
X0187231Y0117752D03*
X0186936Y0117900D03*
X0185755Y0118638D03*
X0179849Y0137683D03*
X0219416Y0151709D03*
X0223402Y0116128D03*
X0223698Y0115980D03*
X0224878Y0115094D03*
X0169958Y0092211D03*
X0169515Y0092506D03*
X0167891Y0093539D03*
X0167005Y0094130D03*
X0166267Y0094573D03*
X0164938Y0095459D03*
X0163314Y0096492D03*
X0142349Y0098854D03*
X0141906Y0098559D03*
X0141611Y0098411D03*
D87*
X0146409Y0089996D03*
X0186714Y0111846D03*
X0204578Y0121443D03*
X0214765Y0139455D03*
X0104628Y0145360D03*
D88*
X0126626Y0128382D03*
X0132531Y0109780D03*
X0127955Y0102988D03*
X0128102Y0102841D03*
X0128840Y0102398D03*
X0139027Y0097673D03*
X0162207Y0090291D03*
X0162354Y0090144D03*
X0194687Y0101955D03*
X0221852Y0129120D03*
D89*
X0219121Y0109484D03*
X0190479Y0115833D03*
X0189446Y0116423D03*
X0188264Y0117161D03*
X0187969Y0117309D03*
X0186493Y0118195D03*
X0176453Y0116128D03*
X0176158Y0116276D03*
X0173501Y0110518D03*
X0172762Y0110075D03*
X0172024Y0109632D03*
X0170253Y0108451D03*
X0169072Y0107713D03*
X0166119Y0102841D03*
X0164347Y0104022D03*
X0169810Y0100478D03*
X0170253Y0100183D03*
X0170548Y0100035D03*
X0171729Y0099297D03*
X0174239Y0097673D03*
X0174682Y0097378D03*
X0176158Y0096492D03*
X0178668Y0094868D03*
X0179111Y0094573D03*
X0181621Y0092949D03*
X0182064Y0092654D03*
X0182359Y0092506D03*
X0185312Y0090587D03*
X0169072Y0092801D03*
X0168333Y0093244D03*
X0165823Y0094868D03*
X0165381Y0095163D03*
X0155784Y0109484D03*
X0155489Y0109632D03*
X0155046Y0109927D03*
X0154012Y0110665D03*
X0145154Y0116571D03*
X0143973Y0115833D03*
X0140725Y0113766D03*
X0144711Y0100478D03*
D90*
X0161837Y0090587D03*
X0200814Y0098411D03*
X0152979Y0151561D03*
X0112674Y0151561D03*
X0107507Y0145065D03*
X0109869Y0128972D03*
D91*
X0146188Y0090734D03*
X0168629Y0121443D03*
X0168629Y0121591D03*
X0168629Y0122476D03*
X0168629Y0122624D03*
X0168481Y0124100D03*
X0168481Y0124248D03*
X0168481Y0124396D03*
X0168481Y0124543D03*
X0193284Y0135321D03*
X0193284Y0135469D03*
X0193432Y0135173D03*
X0193432Y0135026D03*
X0193137Y0136207D03*
X0193137Y0136354D03*
X0193137Y0136502D03*
X0192989Y0136797D03*
X0192989Y0136945D03*
X0195942Y0142703D03*
X0195942Y0142850D03*
X0207605Y0142555D03*
X0231080Y0152004D03*
X0231080Y0152152D03*
X0231080Y0152299D03*
X0231080Y0152447D03*
X0231080Y0152594D03*
X0230932Y0153628D03*
X0230932Y0153776D03*
X0230932Y0153923D03*
X0230932Y0154071D03*
X0230932Y0154219D03*
X0230932Y0154366D03*
X0230932Y0154514D03*
X0230784Y0154661D03*
X0230784Y0154809D03*
X0230784Y0154957D03*
X0233737Y0121443D03*
X0194761Y0091325D03*
X0166119Y0150823D03*
X0166119Y0150970D03*
X0166119Y0151856D03*
D92*
X0209229Y0128825D03*
X0161394Y0090882D03*
D93*
X0146262Y0090882D03*
X0139027Y0097230D03*
X0139913Y0105350D03*
X0132679Y0109189D03*
X0127216Y0105941D03*
X0132384Y0117161D03*
X0141390Y0123805D03*
X0164421Y0110222D03*
X0163978Y0104612D03*
X0194687Y0091472D03*
X0210336Y0104612D03*
X0216685Y0106384D03*
X0198083Y0128382D03*
X0207236Y0142112D03*
X0216389Y0142555D03*
X0116291Y0130449D03*
X0116291Y0130301D03*
X0116882Y0118195D03*
D94*
X0120868Y0116571D03*
X0112010Y0114209D03*
X0128988Y0105498D03*
X0147885Y0091030D03*
X0181104Y0120852D03*
X0157925Y0134287D03*
X0157925Y0134435D03*
D95*
X0187600Y0143736D03*
X0204431Y0140045D03*
X0163240Y0091177D03*
X0124559Y0104022D03*
X0124559Y0104169D03*
X0124559Y0104317D03*
X0115700Y0111404D03*
X0114224Y0113766D03*
X0112600Y0113470D03*
D96*
X0107949Y0146394D03*
X0124190Y0145951D03*
X0151207Y0095754D03*
X0194760Y0091620D03*
D97*
X0194687Y0091768D03*
X0193210Y0094868D03*
X0209598Y0102398D03*
X0163978Y0104907D03*
X0112600Y0151856D03*
D98*
X0114446Y0148461D03*
X0107802Y0146246D03*
X0133491Y0128382D03*
X0140873Y0121591D03*
X0132753Y0109484D03*
X0120056Y0110075D03*
X0146188Y0093244D03*
X0174682Y0116571D03*
X0200814Y0098116D03*
X0216758Y0108451D03*
X0217940Y0109337D03*
X0202143Y0113323D03*
X0206867Y0140636D03*
X0152979Y0151856D03*
D99*
X0146852Y0093835D03*
D100*
X0127733Y0103136D03*
X0194170Y0094278D03*
D101*
X0198083Y0129563D03*
X0215799Y0133549D03*
X0215799Y0133697D03*
X0215799Y0133844D03*
X0215799Y0133992D03*
X0153201Y0150675D03*
X0134894Y0131039D03*
X0134894Y0130892D03*
X0134894Y0130744D03*
X0109205Y0131482D03*
X0109205Y0131630D03*
X0151281Y0094868D03*
D102*
X0151208Y0095016D03*
X0138511Y0111108D03*
X0134672Y0130006D03*
X0153126Y0150970D03*
X0185017Y0130301D03*
X0184869Y0130006D03*
X0194613Y0102398D03*
X0221926Y0129858D03*
X0220154Y0150380D03*
D103*
X0195868Y0146394D03*
X0185681Y0132073D03*
X0209155Y0129268D03*
X0194687Y0102250D03*
X0151281Y0095163D03*
X0153053Y0151266D03*
D104*
X0173353Y0117014D03*
X0151207Y0095311D03*
X0107211Y0142998D03*
D105*
X0108097Y0146541D03*
X0112379Y0152004D03*
X0124190Y0146098D03*
X0152832Y0152004D03*
X0183835Y0146098D03*
X0183835Y0144622D03*
X0207162Y0141965D03*
X0207162Y0141817D03*
X0164200Y0112732D03*
X0151208Y0095902D03*
X0138511Y0111994D03*
X0139839Y0121000D03*
X0119908Y0107565D03*
D106*
X0151207Y0096049D03*
X0108392Y0146689D03*
X0165971Y0153480D03*
D107*
X0132900Y0143441D03*
X0107359Y0138274D03*
X0116808Y0117900D03*
X0132458Y0117457D03*
X0139987Y0102841D03*
X0141463Y0101955D03*
X0138954Y0097526D03*
X0194613Y0101807D03*
X0202733Y0113618D03*
X0202881Y0113766D03*
X0217202Y0108894D03*
X0217645Y0109189D03*
D108*
X0207679Y0101659D03*
X0200888Y0097673D03*
X0165750Y0113618D03*
X0164421Y0109927D03*
X0144785Y0100331D03*
X0138585Y0112289D03*
X0132384Y0116866D03*
X0115848Y0117752D03*
X0187157Y0132220D03*
X0192915Y0137093D03*
D109*
X0198083Y0128972D03*
X0209155Y0129120D03*
X0221852Y0129415D03*
X0220081Y0150823D03*
X0153053Y0151413D03*
X0132974Y0145656D03*
X0107876Y0137831D03*
X0107285Y0143146D03*
X0107433Y0144327D03*
X0107433Y0144474D03*
X0107433Y0144622D03*
X0144785Y0099445D03*
X0139027Y0097821D03*
D110*
X0139027Y0097969D03*
X0108023Y0138126D03*
X0124854Y0145656D03*
X0183319Y0145803D03*
X0198082Y0129120D03*
X0221852Y0129563D03*
D111*
X0221852Y0130006D03*
X0198083Y0129415D03*
X0185090Y0130449D03*
X0185090Y0130596D03*
X0144785Y0099150D03*
X0139027Y0098116D03*
X0132384Y0118047D03*
X0134746Y0130154D03*
X0134746Y0130301D03*
X0134894Y0130449D03*
X0134008Y0142998D03*
X0133860Y0143293D03*
X0131793Y0146098D03*
X0112600Y0150823D03*
X0108909Y0132220D03*
X0109204Y0130744D03*
X0109204Y0130596D03*
X0109204Y0130449D03*
D112*
X0200814Y0098264D03*
X0220007Y0151118D03*
D113*
X0220154Y0150675D03*
X0175125Y0145803D03*
X0147664Y0142998D03*
X0164052Y0105350D03*
X0200814Y0098559D03*
D114*
X0200814Y0098707D03*
X0183393Y0145656D03*
X0138511Y0111256D03*
D115*
X0109131Y0130892D03*
X0109131Y0131039D03*
X0109131Y0131187D03*
X0109131Y0131335D03*
X0200814Y0098854D03*
D116*
X0209155Y0129415D03*
X0183466Y0145508D03*
X0163978Y0105498D03*
X0144785Y0099297D03*
D117*
X0144785Y0099593D03*
D118*
X0144785Y0099740D03*
X0140651Y0102398D03*
X0138585Y0111699D03*
X0124264Y0132220D03*
X0163978Y0105055D03*
X0183171Y0143441D03*
X0183171Y0143589D03*
X0209303Y0128677D03*
X0217423Y0109041D03*
D119*
X0216537Y0141965D03*
X0216537Y0142112D03*
X0168407Y0125577D03*
X0168407Y0125429D03*
X0168407Y0125281D03*
X0168407Y0125134D03*
X0168407Y0124986D03*
X0168407Y0124839D03*
X0168407Y0124691D03*
X0168702Y0122329D03*
X0168702Y0122181D03*
X0168702Y0122033D03*
X0168702Y0121886D03*
X0168702Y0121738D03*
X0144785Y0100183D03*
D120*
X0166857Y0106236D03*
X0167300Y0106531D03*
X0177635Y0115390D03*
X0177930Y0115242D03*
X0177192Y0115685D03*
X0194908Y0101069D03*
X0152831Y0152152D03*
D121*
X0165898Y0153628D03*
X0165898Y0153776D03*
X0165898Y0153923D03*
X0165898Y0154071D03*
X0165898Y0154219D03*
X0165898Y0154366D03*
X0165898Y0154514D03*
X0165898Y0154661D03*
X0166193Y0151709D03*
X0166193Y0151561D03*
X0166193Y0151413D03*
X0166193Y0151266D03*
X0166193Y0151118D03*
X0149657Y0137831D03*
X0141390Y0123953D03*
X0133122Y0122329D03*
X0132384Y0117014D03*
X0138585Y0112142D03*
X0139913Y0105498D03*
X0127216Y0106089D03*
X0116882Y0118343D03*
X0164421Y0110075D03*
X0194687Y0101364D03*
X0203398Y0115980D03*
X0221557Y0128677D03*
X0216685Y0140193D03*
X0216685Y0140341D03*
X0216685Y0140488D03*
X0231153Y0150675D03*
X0231153Y0150823D03*
X0231153Y0150970D03*
X0231153Y0151118D03*
X0231153Y0151266D03*
X0231153Y0151413D03*
X0231153Y0151561D03*
X0231153Y0151709D03*
X0231153Y0151856D03*
X0233516Y0124839D03*
X0233516Y0124691D03*
X0233516Y0124543D03*
X0233516Y0124396D03*
X0233516Y0124248D03*
X0233516Y0124100D03*
X0233516Y0123953D03*
X0233516Y0123805D03*
X0233516Y0123657D03*
X0233516Y0123510D03*
X0193210Y0135616D03*
X0193210Y0135764D03*
X0193210Y0135911D03*
X0193210Y0136059D03*
X0193063Y0136650D03*
D122*
X0216316Y0142703D03*
X0219859Y0151561D03*
X0194760Y0101512D03*
X0164052Y0112585D03*
X0118579Y0110961D03*
X0116365Y0130596D03*
X0116365Y0130744D03*
X0116512Y0131039D03*
X0116512Y0131187D03*
X0116512Y0131335D03*
X0116512Y0131482D03*
X0116512Y0131630D03*
D123*
X0151576Y0148608D03*
X0209303Y0128530D03*
X0209303Y0102250D03*
X0209155Y0102102D03*
D124*
X0194613Y0102102D03*
X0209229Y0128972D03*
X0138511Y0111404D03*
X0132458Y0109927D03*
X0132900Y0145803D03*
X0107507Y0144770D03*
D125*
X0133786Y0128530D03*
X0141168Y0102102D03*
X0203176Y0114061D03*
X0221778Y0128972D03*
D126*
X0204357Y0140488D03*
X0161837Y0119524D03*
X0154455Y0121591D03*
X0133491Y0116276D03*
X0126699Y0102250D03*
X0112822Y0113323D03*
X0104554Y0145213D03*
X0128176Y0145951D03*
D127*
X0128545Y0102545D03*
X0198082Y0128825D03*
X0221852Y0129268D03*
D128*
X0198082Y0128677D03*
X0184500Y0144917D03*
X0184500Y0145065D03*
X0183023Y0143736D03*
X0132826Y0143736D03*
X0132826Y0143589D03*
X0140208Y0102693D03*
D129*
X0122787Y0108451D03*
X0178447Y0145951D03*
X0205612Y0115685D03*
X0207826Y0103726D03*
X0207826Y0103579D03*
D130*
X0200149Y0119228D03*
X0200149Y0119376D03*
X0214913Y0139602D03*
X0161616Y0111994D03*
X0161616Y0111846D03*
X0152462Y0122033D03*
X0135484Y0123362D03*
X0135336Y0122772D03*
X0133565Y0116423D03*
X0126183Y0123805D03*
X0124707Y0104760D03*
X0124707Y0103726D03*
X0137403Y0143441D03*
X0137403Y0143589D03*
X0137403Y0143736D03*
D131*
X0134524Y0124543D03*
X0134524Y0124396D03*
X0135263Y0123657D03*
X0135410Y0123510D03*
X0132753Y0124691D03*
X0138806Y0123215D03*
X0138806Y0123067D03*
X0138806Y0122919D03*
X0138806Y0122772D03*
X0138806Y0122624D03*
X0138806Y0122476D03*
X0138954Y0122329D03*
X0126700Y0119376D03*
X0122861Y0108598D03*
X0122566Y0108156D03*
X0124780Y0105203D03*
X0124633Y0104907D03*
X0124633Y0103874D03*
X0129652Y0104612D03*
X0129652Y0104760D03*
X0129652Y0104907D03*
X0129652Y0105055D03*
X0137182Y0104317D03*
X0137182Y0104169D03*
X0137182Y0104022D03*
X0137330Y0104612D03*
X0118432Y0109484D03*
X0114298Y0113618D03*
X0154456Y0121738D03*
X0154456Y0121886D03*
X0161837Y0111108D03*
X0187674Y0143589D03*
X0204505Y0139898D03*
X0206719Y0139750D03*
X0213658Y0123215D03*
X0205685Y0115537D03*
X0205685Y0115390D03*
X0204652Y0121295D03*
D132*
X0191660Y0114652D03*
X0191660Y0114504D03*
X0177192Y0104169D03*
X0166857Y0131925D03*
X0166857Y0132073D03*
X0166857Y0132220D03*
X0166857Y0132368D03*
X0166857Y0132516D03*
X0166857Y0132663D03*
X0166857Y0132811D03*
X0166857Y0132959D03*
X0166857Y0133106D03*
X0166857Y0133254D03*
X0166562Y0135321D03*
X0166562Y0135469D03*
X0166562Y0135616D03*
X0166562Y0135764D03*
X0166562Y0135911D03*
X0166562Y0136059D03*
X0166562Y0136207D03*
X0166562Y0136354D03*
X0166562Y0136502D03*
X0166562Y0136650D03*
X0166119Y0140193D03*
X0166119Y0140341D03*
X0166119Y0140488D03*
X0166119Y0140636D03*
X0166119Y0140783D03*
X0166119Y0140931D03*
X0166119Y0141079D03*
X0166119Y0141226D03*
X0166119Y0141374D03*
X0166119Y0141522D03*
X0166119Y0141669D03*
X0165381Y0148608D03*
X0165381Y0148756D03*
X0165381Y0148904D03*
X0165381Y0149051D03*
X0165381Y0149199D03*
X0165381Y0149346D03*
X0165381Y0149494D03*
X0165381Y0149642D03*
X0165381Y0149789D03*
X0165381Y0149937D03*
X0165381Y0150085D03*
X0156522Y0148461D03*
X0156522Y0148313D03*
X0157260Y0142703D03*
X0149879Y0147280D03*
X0149879Y0147427D03*
X0149879Y0147575D03*
X0149879Y0147722D03*
X0149879Y0147870D03*
X0149879Y0148018D03*
X0149879Y0148165D03*
X0149879Y0148313D03*
X0141463Y0143146D03*
X0141463Y0142555D03*
X0141463Y0142407D03*
X0141463Y0142260D03*
X0141463Y0142112D03*
X0141463Y0141965D03*
X0141463Y0141817D03*
X0141463Y0141669D03*
X0141463Y0124396D03*
X0123747Y0122624D03*
X0111936Y0114652D03*
X0116365Y0111699D03*
X0117841Y0133254D03*
X0117841Y0133402D03*
X0117841Y0133549D03*
X0122270Y0133549D03*
X0122270Y0133697D03*
X0122270Y0133844D03*
X0121385Y0140783D03*
X0121385Y0140931D03*
X0121385Y0141079D03*
X0121385Y0142850D03*
X0105144Y0142850D03*
X0105144Y0141374D03*
X0105144Y0141226D03*
X0105144Y0141079D03*
X0105144Y0140931D03*
X0105144Y0140783D03*
X0105144Y0140636D03*
X0105144Y0140488D03*
X0105144Y0140341D03*
X0187231Y0140636D03*
X0187231Y0140783D03*
X0187231Y0140931D03*
X0187526Y0138569D03*
X0187526Y0138421D03*
X0191955Y0137683D03*
X0217644Y0140636D03*
X0217644Y0140783D03*
X0217644Y0140931D03*
X0232703Y0143589D03*
X0232703Y0143736D03*
X0232703Y0143884D03*
X0232703Y0144031D03*
X0232703Y0144179D03*
X0232703Y0144327D03*
X0232703Y0144474D03*
X0232703Y0144622D03*
X0232703Y0144770D03*
X0232703Y0144917D03*
X0232703Y0145065D03*
X0232999Y0141669D03*
X0232999Y0141522D03*
X0232999Y0141374D03*
X0232999Y0141226D03*
X0232999Y0141079D03*
X0232999Y0140931D03*
X0232999Y0140783D03*
X0232999Y0140636D03*
X0232999Y0140488D03*
X0232999Y0140341D03*
X0232999Y0140193D03*
X0233442Y0136650D03*
X0233442Y0136502D03*
X0233442Y0136354D03*
X0233442Y0136207D03*
X0233442Y0136059D03*
X0233442Y0135911D03*
X0233442Y0135764D03*
X0233442Y0135616D03*
X0233442Y0135469D03*
X0233442Y0135321D03*
X0233442Y0135173D03*
X0234180Y0128087D03*
X0234180Y0127939D03*
X0234180Y0127791D03*
X0234180Y0127644D03*
X0234180Y0127496D03*
X0234180Y0127348D03*
X0234180Y0127201D03*
X0234180Y0127053D03*
D133*
X0186862Y0111994D03*
X0180071Y0121148D03*
X0154382Y0121443D03*
X0135632Y0123215D03*
X0126183Y0123657D03*
X0118801Y0116571D03*
X0113929Y0114061D03*
X0124706Y0104612D03*
X0124706Y0104465D03*
D134*
X0114519Y0112880D03*
X0112305Y0114356D03*
X0112305Y0115980D03*
X0121163Y0116128D03*
X0124116Y0122033D03*
X0124116Y0123067D03*
X0105809Y0137388D03*
X0105809Y0137535D03*
X0152610Y0152299D03*
X0191439Y0114209D03*
X0189519Y0105203D03*
X0189519Y0104612D03*
X0206202Y0119819D03*
X0213584Y0114947D03*
X0213732Y0114799D03*
X0213732Y0114652D03*
X0206202Y0132220D03*
X0158515Y0108008D03*
D135*
X0177192Y0104760D03*
X0189003Y0112142D03*
X0205833Y0133106D03*
X0205833Y0133254D03*
X0205833Y0133402D03*
X0205833Y0133844D03*
X0201404Y0136650D03*
X0201404Y0136797D03*
X0191660Y0139898D03*
X0179406Y0146246D03*
X0172024Y0137978D03*
X0172024Y0137831D03*
X0157999Y0135764D03*
X0157999Y0135616D03*
X0157999Y0135469D03*
X0157999Y0134730D03*
X0157703Y0138569D03*
X0137034Y0140193D03*
X0137034Y0140341D03*
X0137034Y0140488D03*
X0116365Y0144622D03*
X0116365Y0144770D03*
X0116365Y0144917D03*
X0116365Y0145065D03*
X0106030Y0133844D03*
X0224288Y0140636D03*
X0224288Y0140783D03*
X0224288Y0140931D03*
X0224288Y0141079D03*
X0224288Y0141226D03*
X0224288Y0141374D03*
X0224288Y0141522D03*
X0224288Y0141669D03*
X0225026Y0135911D03*
X0225026Y0135764D03*
D136*
X0163978Y0105203D03*
X0107433Y0144917D03*
D137*
X0112600Y0150528D03*
X0163978Y0105646D03*
D138*
X0183245Y0121000D03*
X0197861Y0119228D03*
X0200076Y0119081D03*
X0213511Y0123362D03*
X0187674Y0143884D03*
X0187674Y0144031D03*
X0140282Y0106236D03*
X0132310Y0108008D03*
X0135410Y0122919D03*
X0135558Y0123067D03*
X0114003Y0113913D03*
D139*
X0119096Y0110813D03*
X0110090Y0128530D03*
X0164421Y0112880D03*
X0164864Y0113175D03*
X0173279Y0117457D03*
X0201773Y0113175D03*
X0216685Y0106531D03*
X0207088Y0141669D03*
X0184057Y0144770D03*
D140*
X0153422Y0148461D03*
X0120942Y0116423D03*
X0188855Y0111994D03*
X0218530Y0106827D03*
D141*
X0214987Y0106827D03*
X0119613Y0117309D03*
X0111493Y0115242D03*
D142*
X0117325Y0119376D03*
X0124264Y0112880D03*
X0139470Y0110665D03*
X0153939Y0122181D03*
X0163092Y0119228D03*
X0163092Y0119081D03*
X0156449Y0107860D03*
X0180071Y0121443D03*
X0199707Y0119524D03*
X0213142Y0123805D03*
D143*
X0218235Y0139307D03*
X0218826Y0141079D03*
X0218826Y0141226D03*
X0218826Y0141374D03*
X0204210Y0140341D03*
X0204210Y0140193D03*
X0183245Y0121148D03*
X0156375Y0108008D03*
X0154013Y0122033D03*
X0152536Y0122181D03*
X0138954Y0110961D03*
X0133343Y0116128D03*
X0127438Y0124691D03*
X0127438Y0124839D03*
X0114003Y0128825D03*
X0115774Y0111256D03*
X0168038Y0150675D03*
D144*
X0134229Y0144917D03*
X0134081Y0145065D03*
X0217054Y0108746D03*
X0220007Y0151266D03*
D145*
X0201995Y0120409D03*
X0200223Y0119671D03*
X0198156Y0117604D03*
X0153717Y0122329D03*
X0135706Y0124543D03*
X0126109Y0123362D03*
X0117989Y0117457D03*
X0116513Y0128530D03*
X0114741Y0128677D03*
X0136444Y0109927D03*
D146*
X0125961Y0113175D03*
X0121089Y0116276D03*
X0115922Y0112142D03*
X0118727Y0109927D03*
X0111788Y0115537D03*
X0117693Y0134730D03*
X0117693Y0134878D03*
X0117693Y0135026D03*
X0117103Y0139307D03*
X0121680Y0138864D03*
X0121680Y0138717D03*
X0121680Y0138569D03*
X0121828Y0137683D03*
X0121828Y0137535D03*
X0121828Y0137388D03*
X0129062Y0137388D03*
X0137330Y0137978D03*
X0137330Y0138126D03*
X0137330Y0138274D03*
X0137182Y0139159D03*
X0137182Y0139307D03*
X0137477Y0137093D03*
X0137477Y0136945D03*
X0137477Y0136797D03*
X0137625Y0135764D03*
X0137625Y0135616D03*
X0137625Y0135469D03*
X0137773Y0134435D03*
X0137773Y0134287D03*
X0137773Y0134140D03*
X0142202Y0134583D03*
X0142054Y0135911D03*
X0142054Y0136059D03*
X0141906Y0137388D03*
X0141906Y0137535D03*
X0158147Y0133697D03*
X0158147Y0133549D03*
X0158147Y0133402D03*
X0158294Y0133254D03*
X0158294Y0133106D03*
X0158294Y0132959D03*
X0158294Y0132811D03*
X0158294Y0132663D03*
X0172172Y0136502D03*
X0172172Y0136650D03*
X0172172Y0136797D03*
X0187674Y0137240D03*
X0187822Y0136059D03*
X0187822Y0135911D03*
X0187822Y0135764D03*
X0187969Y0134730D03*
X0187969Y0134583D03*
X0187969Y0134435D03*
X0187969Y0134287D03*
X0187969Y0134140D03*
X0187969Y0133992D03*
X0201552Y0135469D03*
X0201552Y0135616D03*
X0201700Y0134287D03*
X0201700Y0134140D03*
X0201700Y0133992D03*
X0201257Y0137831D03*
X0201257Y0137978D03*
X0201109Y0138864D03*
X0201109Y0139012D03*
X0201109Y0139159D03*
X0200961Y0139602D03*
X0200961Y0139750D03*
X0200961Y0139898D03*
X0200961Y0140045D03*
X0200814Y0140488D03*
X0200814Y0140636D03*
X0205243Y0137831D03*
X0205981Y0132811D03*
X0205981Y0132663D03*
X0205981Y0132516D03*
X0205981Y0132368D03*
X0204652Y0120852D03*
X0225322Y0132663D03*
X0225322Y0132811D03*
X0225322Y0132959D03*
X0225322Y0133106D03*
X0225322Y0133254D03*
X0225322Y0133402D03*
X0225322Y0133549D03*
X0225322Y0133697D03*
X0225322Y0133844D03*
X0225174Y0134435D03*
X0225174Y0134583D03*
X0225174Y0134730D03*
X0225174Y0134878D03*
X0224731Y0137388D03*
X0224731Y0137535D03*
X0224731Y0137683D03*
X0224731Y0137831D03*
X0224731Y0137978D03*
X0224731Y0138126D03*
X0224436Y0140045D03*
X0224436Y0140193D03*
X0224436Y0140341D03*
X0224436Y0140488D03*
X0224140Y0141965D03*
X0224140Y0142112D03*
X0224140Y0142260D03*
X0224140Y0142407D03*
X0224140Y0142555D03*
X0224140Y0142703D03*
X0224140Y0142850D03*
X0224140Y0142998D03*
X0223845Y0145065D03*
X0223845Y0145213D03*
X0223698Y0146394D03*
X0116513Y0144031D03*
X0116513Y0143884D03*
X0116217Y0145656D03*
X0116217Y0145803D03*
X0116217Y0145951D03*
X0116217Y0146098D03*
X0116217Y0146246D03*
X0105440Y0139750D03*
X0105440Y0139602D03*
X0105440Y0139455D03*
D147*
X0123525Y0142703D03*
X0125592Y0124986D03*
X0126330Y0124986D03*
X0126330Y0124839D03*
X0124116Y0113028D03*
X0139765Y0110518D03*
X0173722Y0142703D03*
X0200297Y0119524D03*
D148*
X0148476Y0137535D03*
X0115848Y0111108D03*
D149*
X0137256Y0144474D03*
X0137256Y0144622D03*
X0173722Y0142850D03*
X0187452Y0144622D03*
X0187452Y0144770D03*
X0212698Y0123953D03*
X0187010Y0112142D03*
D150*
X0180144Y0121000D03*
X0187526Y0144474D03*
X0137329Y0144327D03*
X0137329Y0144179D03*
X0125518Y0124839D03*
X0124042Y0113175D03*
X0113707Y0114209D03*
D151*
X0114076Y0113175D03*
X0125297Y0123953D03*
X0149952Y0148461D03*
X0166931Y0131778D03*
X0186862Y0142850D03*
X0205169Y0120409D03*
X0205907Y0119967D03*
X0206645Y0119524D03*
D152*
X0203102Y0113913D03*
D153*
X0133860Y0128234D03*
X0124116Y0123362D03*
X0111567Y0115390D03*
D154*
X0201330Y0115537D03*
D155*
X0201847Y0119967D03*
X0127733Y0124986D03*
X0126257Y0123510D03*
X0118875Y0116423D03*
X0117398Y0117309D03*
D156*
X0132384Y0116719D03*
X0132384Y0142850D03*
D157*
X0126404Y0125134D03*
X0117546Y0117161D03*
X0161985Y0119671D03*
X0163018Y0119376D03*
X0163757Y0119228D03*
D158*
X0132384Y0117309D03*
D159*
X0117841Y0117604D03*
X0137182Y0144770D03*
X0163757Y0119081D03*
X0204505Y0121591D03*
X0212477Y0123657D03*
D160*
X0132384Y0117752D03*
D161*
X0132384Y0117900D03*
X0126478Y0128677D03*
X0124854Y0145508D03*
X0112600Y0150970D03*
X0147590Y0143146D03*
X0175051Y0145508D03*
X0198082Y0129268D03*
X0215504Y0134583D03*
X0221852Y0129711D03*
D162*
X0213363Y0123510D03*
X0208934Y0139750D03*
X0173501Y0118785D03*
D163*
X0187526Y0128677D03*
X0192694Y0133697D03*
X0199042Y0119376D03*
X0152831Y0122476D03*
D164*
X0135632Y0124396D03*
X0114815Y0128825D03*
X0183171Y0121295D03*
X0210927Y0123657D03*
X0212551Y0123805D03*
X0212551Y0124100D03*
D165*
X0212403Y0142850D03*
X0179775Y0128382D03*
X0112010Y0130006D03*
D166*
X0150100Y0128382D03*
D167*
X0179923Y0128530D03*
D168*
X0150100Y0128530D03*
D169*
X0179923Y0128677D03*
D170*
X0150100Y0128677D03*
D171*
X0129948Y0128825D03*
X0180145Y0128825D03*
D172*
X0150100Y0128825D03*
D173*
X0129948Y0128972D03*
X0180144Y0128972D03*
D174*
X0178299Y0143884D03*
X0178299Y0144031D03*
X0150100Y0128972D03*
D175*
X0180218Y0129120D03*
D176*
X0178447Y0144474D03*
X0150100Y0129120D03*
D177*
X0129948Y0129120D03*
D178*
X0124485Y0143293D03*
X0124485Y0143441D03*
X0110607Y0129120D03*
X0174682Y0143293D03*
X0174682Y0143441D03*
X0176011Y0131039D03*
X0176011Y0130892D03*
X0198156Y0129858D03*
X0209376Y0130154D03*
X0220154Y0149346D03*
X0220154Y0149494D03*
X0220154Y0149642D03*
D179*
X0178373Y0144327D03*
X0178373Y0144179D03*
X0180292Y0129268D03*
X0129948Y0129268D03*
X0128028Y0143884D03*
X0128028Y0144031D03*
X0128028Y0144179D03*
X0128176Y0144327D03*
X0128176Y0144474D03*
D180*
X0130022Y0129563D03*
X0150100Y0129268D03*
D181*
X0110607Y0129268D03*
D182*
X0129948Y0129415D03*
X0180292Y0129415D03*
X0218530Y0132073D03*
D183*
X0180292Y0129563D03*
X0150174Y0129415D03*
D184*
X0112010Y0129415D03*
D185*
X0184943Y0130154D03*
X0184204Y0142998D03*
X0209155Y0129563D03*
D186*
X0150174Y0129563D03*
D187*
X0112010Y0129563D03*
D188*
X0195794Y0146246D03*
X0209229Y0129711D03*
D189*
X0209303Y0130006D03*
X0215799Y0132516D03*
X0215799Y0132663D03*
X0215799Y0132811D03*
X0215799Y0132959D03*
X0215799Y0133106D03*
X0221852Y0130449D03*
X0220228Y0149789D03*
X0198083Y0129711D03*
X0176085Y0130006D03*
X0176085Y0130154D03*
X0175937Y0130449D03*
X0175937Y0130596D03*
X0175937Y0130744D03*
X0174608Y0143146D03*
X0153200Y0150380D03*
X0153200Y0150528D03*
X0125740Y0130744D03*
X0125740Y0130596D03*
X0125740Y0130449D03*
X0125740Y0130301D03*
X0125888Y0130006D03*
X0124411Y0143146D03*
X0112600Y0150232D03*
D190*
X0180366Y0129711D03*
D191*
X0150174Y0129711D03*
D192*
X0130021Y0129711D03*
D193*
X0112010Y0129711D03*
D194*
X0209229Y0129858D03*
X0221926Y0130301D03*
D195*
X0180366Y0129858D03*
D196*
X0150174Y0129858D03*
D197*
X0130095Y0129858D03*
D198*
X0112084Y0129858D03*
D199*
X0125740Y0131039D03*
X0124559Y0143589D03*
X0153201Y0149937D03*
X0153201Y0150085D03*
X0174903Y0143736D03*
X0198083Y0130006D03*
X0220228Y0148904D03*
X0220228Y0149051D03*
X0220228Y0149199D03*
D200*
X0150248Y0130006D03*
D201*
X0134820Y0130596D03*
X0133934Y0143146D03*
X0153127Y0150823D03*
X0184131Y0143293D03*
X0184131Y0143146D03*
X0185164Y0130892D03*
X0185164Y0130744D03*
X0215725Y0134140D03*
X0221926Y0130154D03*
X0220154Y0150085D03*
X0220154Y0150232D03*
X0112526Y0150675D03*
D202*
X0153274Y0149789D03*
X0153274Y0149642D03*
X0153274Y0149494D03*
X0198156Y0130301D03*
X0198156Y0130154D03*
X0215873Y0132368D03*
D203*
X0150174Y0130154D03*
D204*
X0125814Y0130154D03*
X0112526Y0150380D03*
D205*
X0112010Y0130154D03*
D206*
X0174756Y0143589D03*
X0195868Y0146098D03*
X0209303Y0130301D03*
X0221852Y0130596D03*
D207*
X0215873Y0133254D03*
X0215873Y0133402D03*
X0220154Y0149937D03*
X0176011Y0130301D03*
D208*
X0150248Y0130301D03*
X0150248Y0130449D03*
X0130169Y0131187D03*
D209*
X0109278Y0130301D03*
X0215577Y0134435D03*
D210*
X0209377Y0130449D03*
X0220154Y0148608D03*
X0220154Y0148756D03*
X0146926Y0146984D03*
X0124633Y0143736D03*
X0112526Y0149494D03*
X0112526Y0149642D03*
D211*
X0112600Y0149346D03*
X0198230Y0130596D03*
X0198230Y0130449D03*
X0209451Y0130596D03*
X0209451Y0130744D03*
D212*
X0150322Y0130744D03*
X0150322Y0130596D03*
X0150322Y0130892D03*
D213*
X0153200Y0149051D03*
X0153200Y0149199D03*
X0153200Y0149346D03*
X0220228Y0148461D03*
X0220228Y0148313D03*
X0220228Y0148165D03*
X0220228Y0148018D03*
X0221704Y0130744D03*
D214*
X0209524Y0130892D03*
X0209524Y0131039D03*
X0198304Y0131039D03*
X0198304Y0130892D03*
X0198304Y0130744D03*
X0198304Y0131187D03*
X0153274Y0148756D03*
X0153274Y0148904D03*
X0112526Y0148904D03*
X0112526Y0149051D03*
X0112526Y0149199D03*
D215*
X0146040Y0145213D03*
X0146040Y0145065D03*
X0220745Y0130892D03*
D216*
X0125666Y0130892D03*
D217*
X0212920Y0144327D03*
X0220745Y0131039D03*
D218*
X0185090Y0131039D03*
D219*
X0150322Y0131039D03*
X0150322Y0131187D03*
X0150322Y0131335D03*
X0150322Y0131482D03*
X0150322Y0131630D03*
D220*
X0215651Y0131335D03*
X0215651Y0131187D03*
D221*
X0180440Y0131187D03*
X0180440Y0131482D03*
X0180440Y0131630D03*
X0130243Y0131335D03*
D222*
X0146705Y0146837D03*
X0112600Y0148608D03*
X0112600Y0148756D03*
X0198378Y0131335D03*
X0213732Y0146246D03*
D223*
X0180366Y0131925D03*
X0180366Y0131778D03*
X0180366Y0131335D03*
D224*
X0215578Y0131482D03*
X0215578Y0131630D03*
X0215578Y0131778D03*
D225*
X0198304Y0131778D03*
X0198304Y0131925D03*
X0198304Y0132073D03*
X0198304Y0132220D03*
X0198304Y0131630D03*
X0198304Y0131482D03*
D226*
X0130169Y0131482D03*
X0130169Y0131630D03*
X0130169Y0131778D03*
X0130169Y0131925D03*
X0130169Y0132073D03*
D227*
X0150322Y0132073D03*
X0150322Y0131925D03*
X0150322Y0131778D03*
D228*
X0112083Y0131778D03*
D229*
X0215651Y0131925D03*
D230*
X0112084Y0131925D03*
X0112084Y0132073D03*
D231*
X0218899Y0132220D03*
D232*
X0215651Y0134287D03*
D233*
X0201330Y0136945D03*
X0201330Y0137093D03*
X0201330Y0137240D03*
X0201330Y0137388D03*
X0201330Y0137535D03*
X0201330Y0137683D03*
D234*
X0212551Y0142998D03*
D235*
X0196015Y0142998D03*
X0196015Y0143146D03*
D236*
X0153274Y0150232D03*
X0124337Y0142998D03*
X0112526Y0149937D03*
X0112526Y0150085D03*
D237*
X0212625Y0143146D03*
D238*
X0212773Y0143293D03*
D239*
X0195942Y0143293D03*
X0195942Y0143441D03*
X0195942Y0143589D03*
X0195942Y0143736D03*
D240*
X0195942Y0143884D03*
X0195942Y0144031D03*
X0195942Y0144179D03*
X0145745Y0143293D03*
D241*
X0112674Y0151266D03*
X0107359Y0144179D03*
X0107359Y0144031D03*
X0107359Y0143884D03*
X0107359Y0143736D03*
X0107359Y0143589D03*
X0107359Y0143441D03*
X0107359Y0143293D03*
X0183097Y0145951D03*
D242*
X0212846Y0143589D03*
X0212846Y0143441D03*
D243*
X0212994Y0144179D03*
X0145818Y0144031D03*
X0145818Y0143884D03*
X0145818Y0143736D03*
X0145818Y0143589D03*
X0145818Y0143441D03*
D244*
X0212920Y0143736D03*
X0212920Y0143884D03*
X0212920Y0144031D03*
D245*
X0145892Y0144179D03*
X0145892Y0144327D03*
X0145892Y0144474D03*
D246*
X0195942Y0144474D03*
X0195942Y0144327D03*
X0195942Y0144622D03*
X0213068Y0144770D03*
D247*
X0212994Y0144622D03*
X0212994Y0144474D03*
D248*
X0175568Y0144622D03*
D249*
X0145966Y0144622D03*
X0145966Y0144770D03*
X0145966Y0144917D03*
D250*
X0146409Y0146394D03*
X0125297Y0144622D03*
X0213437Y0145951D03*
D251*
X0195942Y0144917D03*
X0195942Y0144770D03*
D252*
X0175568Y0144770D03*
X0175568Y0144917D03*
X0146483Y0146541D03*
D253*
X0125519Y0145065D03*
X0125371Y0144917D03*
X0125371Y0144770D03*
X0196089Y0145803D03*
D254*
X0213142Y0145065D03*
X0213142Y0144917D03*
D255*
X0196016Y0145065D03*
D256*
X0175715Y0145065D03*
D257*
X0213215Y0145213D03*
X0213215Y0145360D03*
D258*
X0195942Y0145213D03*
X0146188Y0145803D03*
X0146188Y0145951D03*
D259*
X0179185Y0145213D03*
D260*
X0179259Y0145360D03*
X0128914Y0145213D03*
D261*
X0146262Y0146098D03*
X0196016Y0145360D03*
D262*
X0146114Y0145360D03*
X0146114Y0145508D03*
D263*
X0128914Y0145360D03*
D264*
X0213215Y0145508D03*
D265*
X0213363Y0145803D03*
X0196089Y0145656D03*
X0196089Y0145508D03*
X0146335Y0146246D03*
D266*
X0133048Y0145508D03*
X0220154Y0150528D03*
D267*
X0213289Y0145656D03*
D268*
X0175051Y0145656D03*
D269*
X0146188Y0145656D03*
D270*
X0195942Y0145951D03*
D271*
X0220081Y0150970D03*
X0132679Y0145951D03*
D272*
X0146557Y0146689D03*
X0213585Y0146098D03*
D273*
X0112600Y0149789D03*
D274*
X0153053Y0151118D03*
D275*
X0112674Y0151118D03*
D276*
X0112674Y0151413D03*
M02*
