%
M48
M72
T01C0.01378
T02C0.03200
T03C0.04000
T04C0.12992
%
T01
X257595Y143933
X262595Y133933
X207595Y243933
X202595Y243933
T02
X202595Y208933
X192595Y208933
X182595Y208933
X172595Y208933
X162595Y208933
X152595Y208933
X142595Y208933
X132595Y208933
X122595Y208933
X122595Y178933
X132595Y178933
X142595Y178933
X152595Y178933
X162595Y178933
X172595Y178933
X182595Y178933
X192595Y178933
X202595Y178933
X212595Y178933
X212595Y208933
T03
X272595Y163933
X282595Y163933
X282595Y153933
X272595Y153933
X272595Y143933
X282595Y143933
X282595Y133933
X272595Y133933
X272595Y123933
X282595Y123933
X220395Y122833
X220395Y105033
X194795Y105033
X180395Y105033
X180395Y92833
X180395Y75033
X154795Y75033
X154795Y92833
X154795Y105033
X140395Y105033
X140395Y122833
X154795Y122833
X154795Y135033
X154795Y152833
X180395Y152833
X180395Y135033
X180395Y122833
X194795Y122833
X114795Y122833
X114795Y105033
X62595Y123933
X52595Y123933
X52595Y133933
X62595Y133933
X62595Y143933
X52595Y143933
X52595Y153933
X62595Y153933
X62595Y163933
X52595Y163933
T04
X57595Y58933
X57595Y228933
X277595Y228933
X277595Y58933
M30
