G75*
%MOIN*%
%OFA0B0*%
%FSLAX25Y25*%
%IPPOS*%
%LPD*%
%AMOC8*
5,1,8,0,0,1.08239X$1,22.5*
%
%ADD10C,0.00800*%
%ADD11C,0.00500*%
%ADD12C,0.01600*%
%ADD13C,0.00600*%
D10*
X0050705Y0058933D02*
X0050707Y0059102D01*
X0050713Y0059271D01*
X0050724Y0059440D01*
X0050738Y0059608D01*
X0050757Y0059776D01*
X0050780Y0059944D01*
X0050806Y0060111D01*
X0050837Y0060277D01*
X0050872Y0060443D01*
X0050911Y0060607D01*
X0050955Y0060771D01*
X0051002Y0060933D01*
X0051053Y0061094D01*
X0051108Y0061254D01*
X0051167Y0061413D01*
X0051229Y0061570D01*
X0051296Y0061725D01*
X0051367Y0061879D01*
X0051441Y0062031D01*
X0051519Y0062181D01*
X0051600Y0062329D01*
X0051685Y0062475D01*
X0051774Y0062619D01*
X0051866Y0062761D01*
X0051962Y0062900D01*
X0052061Y0063037D01*
X0052163Y0063172D01*
X0052269Y0063304D01*
X0052378Y0063433D01*
X0052490Y0063560D01*
X0052605Y0063684D01*
X0052723Y0063805D01*
X0052844Y0063923D01*
X0052968Y0064038D01*
X0053095Y0064150D01*
X0053224Y0064259D01*
X0053356Y0064365D01*
X0053491Y0064467D01*
X0053628Y0064566D01*
X0053767Y0064662D01*
X0053909Y0064754D01*
X0054053Y0064843D01*
X0054199Y0064928D01*
X0054347Y0065009D01*
X0054497Y0065087D01*
X0054649Y0065161D01*
X0054803Y0065232D01*
X0054958Y0065299D01*
X0055115Y0065361D01*
X0055274Y0065420D01*
X0055434Y0065475D01*
X0055595Y0065526D01*
X0055757Y0065573D01*
X0055921Y0065617D01*
X0056085Y0065656D01*
X0056251Y0065691D01*
X0056417Y0065722D01*
X0056584Y0065748D01*
X0056752Y0065771D01*
X0056920Y0065790D01*
X0057088Y0065804D01*
X0057257Y0065815D01*
X0057426Y0065821D01*
X0057595Y0065823D01*
X0057764Y0065821D01*
X0057933Y0065815D01*
X0058102Y0065804D01*
X0058270Y0065790D01*
X0058438Y0065771D01*
X0058606Y0065748D01*
X0058773Y0065722D01*
X0058939Y0065691D01*
X0059105Y0065656D01*
X0059269Y0065617D01*
X0059433Y0065573D01*
X0059595Y0065526D01*
X0059756Y0065475D01*
X0059916Y0065420D01*
X0060075Y0065361D01*
X0060232Y0065299D01*
X0060387Y0065232D01*
X0060541Y0065161D01*
X0060693Y0065087D01*
X0060843Y0065009D01*
X0060991Y0064928D01*
X0061137Y0064843D01*
X0061281Y0064754D01*
X0061423Y0064662D01*
X0061562Y0064566D01*
X0061699Y0064467D01*
X0061834Y0064365D01*
X0061966Y0064259D01*
X0062095Y0064150D01*
X0062222Y0064038D01*
X0062346Y0063923D01*
X0062467Y0063805D01*
X0062585Y0063684D01*
X0062700Y0063560D01*
X0062812Y0063433D01*
X0062921Y0063304D01*
X0063027Y0063172D01*
X0063129Y0063037D01*
X0063228Y0062900D01*
X0063324Y0062761D01*
X0063416Y0062619D01*
X0063505Y0062475D01*
X0063590Y0062329D01*
X0063671Y0062181D01*
X0063749Y0062031D01*
X0063823Y0061879D01*
X0063894Y0061725D01*
X0063961Y0061570D01*
X0064023Y0061413D01*
X0064082Y0061254D01*
X0064137Y0061094D01*
X0064188Y0060933D01*
X0064235Y0060771D01*
X0064279Y0060607D01*
X0064318Y0060443D01*
X0064353Y0060277D01*
X0064384Y0060111D01*
X0064410Y0059944D01*
X0064433Y0059776D01*
X0064452Y0059608D01*
X0064466Y0059440D01*
X0064477Y0059271D01*
X0064483Y0059102D01*
X0064485Y0058933D01*
X0064483Y0058764D01*
X0064477Y0058595D01*
X0064466Y0058426D01*
X0064452Y0058258D01*
X0064433Y0058090D01*
X0064410Y0057922D01*
X0064384Y0057755D01*
X0064353Y0057589D01*
X0064318Y0057423D01*
X0064279Y0057259D01*
X0064235Y0057095D01*
X0064188Y0056933D01*
X0064137Y0056772D01*
X0064082Y0056612D01*
X0064023Y0056453D01*
X0063961Y0056296D01*
X0063894Y0056141D01*
X0063823Y0055987D01*
X0063749Y0055835D01*
X0063671Y0055685D01*
X0063590Y0055537D01*
X0063505Y0055391D01*
X0063416Y0055247D01*
X0063324Y0055105D01*
X0063228Y0054966D01*
X0063129Y0054829D01*
X0063027Y0054694D01*
X0062921Y0054562D01*
X0062812Y0054433D01*
X0062700Y0054306D01*
X0062585Y0054182D01*
X0062467Y0054061D01*
X0062346Y0053943D01*
X0062222Y0053828D01*
X0062095Y0053716D01*
X0061966Y0053607D01*
X0061834Y0053501D01*
X0061699Y0053399D01*
X0061562Y0053300D01*
X0061423Y0053204D01*
X0061281Y0053112D01*
X0061137Y0053023D01*
X0060991Y0052938D01*
X0060843Y0052857D01*
X0060693Y0052779D01*
X0060541Y0052705D01*
X0060387Y0052634D01*
X0060232Y0052567D01*
X0060075Y0052505D01*
X0059916Y0052446D01*
X0059756Y0052391D01*
X0059595Y0052340D01*
X0059433Y0052293D01*
X0059269Y0052249D01*
X0059105Y0052210D01*
X0058939Y0052175D01*
X0058773Y0052144D01*
X0058606Y0052118D01*
X0058438Y0052095D01*
X0058270Y0052076D01*
X0058102Y0052062D01*
X0057933Y0052051D01*
X0057764Y0052045D01*
X0057595Y0052043D01*
X0057426Y0052045D01*
X0057257Y0052051D01*
X0057088Y0052062D01*
X0056920Y0052076D01*
X0056752Y0052095D01*
X0056584Y0052118D01*
X0056417Y0052144D01*
X0056251Y0052175D01*
X0056085Y0052210D01*
X0055921Y0052249D01*
X0055757Y0052293D01*
X0055595Y0052340D01*
X0055434Y0052391D01*
X0055274Y0052446D01*
X0055115Y0052505D01*
X0054958Y0052567D01*
X0054803Y0052634D01*
X0054649Y0052705D01*
X0054497Y0052779D01*
X0054347Y0052857D01*
X0054199Y0052938D01*
X0054053Y0053023D01*
X0053909Y0053112D01*
X0053767Y0053204D01*
X0053628Y0053300D01*
X0053491Y0053399D01*
X0053356Y0053501D01*
X0053224Y0053607D01*
X0053095Y0053716D01*
X0052968Y0053828D01*
X0052844Y0053943D01*
X0052723Y0054061D01*
X0052605Y0054182D01*
X0052490Y0054306D01*
X0052378Y0054433D01*
X0052269Y0054562D01*
X0052163Y0054694D01*
X0052061Y0054829D01*
X0051962Y0054966D01*
X0051866Y0055105D01*
X0051774Y0055247D01*
X0051685Y0055391D01*
X0051600Y0055537D01*
X0051519Y0055685D01*
X0051441Y0055835D01*
X0051367Y0055987D01*
X0051296Y0056141D01*
X0051229Y0056296D01*
X0051167Y0056453D01*
X0051108Y0056612D01*
X0051053Y0056772D01*
X0051002Y0056933D01*
X0050955Y0057095D01*
X0050911Y0057259D01*
X0050872Y0057423D01*
X0050837Y0057589D01*
X0050806Y0057755D01*
X0050780Y0057922D01*
X0050757Y0058090D01*
X0050738Y0058258D01*
X0050724Y0058426D01*
X0050713Y0058595D01*
X0050707Y0058764D01*
X0050705Y0058933D01*
X0115595Y0109933D02*
X0115595Y0117980D01*
X0119095Y0125933D02*
X0136095Y0125933D01*
X0139595Y0117862D02*
X0139595Y0109933D01*
X0136095Y0101933D02*
X0119095Y0101933D01*
X0120595Y0113933D02*
X0120597Y0114105D01*
X0120603Y0114276D01*
X0120614Y0114448D01*
X0120629Y0114619D01*
X0120648Y0114790D01*
X0120671Y0114960D01*
X0120698Y0115130D01*
X0120730Y0115299D01*
X0120765Y0115467D01*
X0120805Y0115634D01*
X0120849Y0115800D01*
X0120896Y0115965D01*
X0120948Y0116129D01*
X0121004Y0116291D01*
X0121064Y0116452D01*
X0121128Y0116612D01*
X0121196Y0116770D01*
X0121267Y0116926D01*
X0121342Y0117080D01*
X0121422Y0117233D01*
X0121504Y0117383D01*
X0121591Y0117532D01*
X0121681Y0117678D01*
X0121775Y0117822D01*
X0121872Y0117964D01*
X0121973Y0118103D01*
X0122077Y0118240D01*
X0122184Y0118374D01*
X0122295Y0118505D01*
X0122408Y0118634D01*
X0122525Y0118760D01*
X0122645Y0118883D01*
X0122768Y0119003D01*
X0122894Y0119120D01*
X0123023Y0119233D01*
X0123154Y0119344D01*
X0123288Y0119451D01*
X0123425Y0119555D01*
X0123564Y0119656D01*
X0123706Y0119753D01*
X0123850Y0119847D01*
X0123996Y0119937D01*
X0124145Y0120024D01*
X0124295Y0120106D01*
X0124448Y0120186D01*
X0124602Y0120261D01*
X0124758Y0120332D01*
X0124916Y0120400D01*
X0125076Y0120464D01*
X0125237Y0120524D01*
X0125399Y0120580D01*
X0125563Y0120632D01*
X0125728Y0120679D01*
X0125894Y0120723D01*
X0126061Y0120763D01*
X0126229Y0120798D01*
X0126398Y0120830D01*
X0126568Y0120857D01*
X0126738Y0120880D01*
X0126909Y0120899D01*
X0127080Y0120914D01*
X0127252Y0120925D01*
X0127423Y0120931D01*
X0127595Y0120933D01*
X0127767Y0120931D01*
X0127938Y0120925D01*
X0128110Y0120914D01*
X0128281Y0120899D01*
X0128452Y0120880D01*
X0128622Y0120857D01*
X0128792Y0120830D01*
X0128961Y0120798D01*
X0129129Y0120763D01*
X0129296Y0120723D01*
X0129462Y0120679D01*
X0129627Y0120632D01*
X0129791Y0120580D01*
X0129953Y0120524D01*
X0130114Y0120464D01*
X0130274Y0120400D01*
X0130432Y0120332D01*
X0130588Y0120261D01*
X0130742Y0120186D01*
X0130895Y0120106D01*
X0131045Y0120024D01*
X0131194Y0119937D01*
X0131340Y0119847D01*
X0131484Y0119753D01*
X0131626Y0119656D01*
X0131765Y0119555D01*
X0131902Y0119451D01*
X0132036Y0119344D01*
X0132167Y0119233D01*
X0132296Y0119120D01*
X0132422Y0119003D01*
X0132545Y0118883D01*
X0132665Y0118760D01*
X0132782Y0118634D01*
X0132895Y0118505D01*
X0133006Y0118374D01*
X0133113Y0118240D01*
X0133217Y0118103D01*
X0133318Y0117964D01*
X0133415Y0117822D01*
X0133509Y0117678D01*
X0133599Y0117532D01*
X0133686Y0117383D01*
X0133768Y0117233D01*
X0133848Y0117080D01*
X0133923Y0116926D01*
X0133994Y0116770D01*
X0134062Y0116612D01*
X0134126Y0116452D01*
X0134186Y0116291D01*
X0134242Y0116129D01*
X0134294Y0115965D01*
X0134341Y0115800D01*
X0134385Y0115634D01*
X0134425Y0115467D01*
X0134460Y0115299D01*
X0134492Y0115130D01*
X0134519Y0114960D01*
X0134542Y0114790D01*
X0134561Y0114619D01*
X0134576Y0114448D01*
X0134587Y0114276D01*
X0134593Y0114105D01*
X0134595Y0113933D01*
X0134593Y0113761D01*
X0134587Y0113590D01*
X0134576Y0113418D01*
X0134561Y0113247D01*
X0134542Y0113076D01*
X0134519Y0112906D01*
X0134492Y0112736D01*
X0134460Y0112567D01*
X0134425Y0112399D01*
X0134385Y0112232D01*
X0134341Y0112066D01*
X0134294Y0111901D01*
X0134242Y0111737D01*
X0134186Y0111575D01*
X0134126Y0111414D01*
X0134062Y0111254D01*
X0133994Y0111096D01*
X0133923Y0110940D01*
X0133848Y0110786D01*
X0133768Y0110633D01*
X0133686Y0110483D01*
X0133599Y0110334D01*
X0133509Y0110188D01*
X0133415Y0110044D01*
X0133318Y0109902D01*
X0133217Y0109763D01*
X0133113Y0109626D01*
X0133006Y0109492D01*
X0132895Y0109361D01*
X0132782Y0109232D01*
X0132665Y0109106D01*
X0132545Y0108983D01*
X0132422Y0108863D01*
X0132296Y0108746D01*
X0132167Y0108633D01*
X0132036Y0108522D01*
X0131902Y0108415D01*
X0131765Y0108311D01*
X0131626Y0108210D01*
X0131484Y0108113D01*
X0131340Y0108019D01*
X0131194Y0107929D01*
X0131045Y0107842D01*
X0130895Y0107760D01*
X0130742Y0107680D01*
X0130588Y0107605D01*
X0130432Y0107534D01*
X0130274Y0107466D01*
X0130114Y0107402D01*
X0129953Y0107342D01*
X0129791Y0107286D01*
X0129627Y0107234D01*
X0129462Y0107187D01*
X0129296Y0107143D01*
X0129129Y0107103D01*
X0128961Y0107068D01*
X0128792Y0107036D01*
X0128622Y0107009D01*
X0128452Y0106986D01*
X0128281Y0106967D01*
X0128110Y0106952D01*
X0127938Y0106941D01*
X0127767Y0106935D01*
X0127595Y0106933D01*
X0127423Y0106935D01*
X0127252Y0106941D01*
X0127080Y0106952D01*
X0126909Y0106967D01*
X0126738Y0106986D01*
X0126568Y0107009D01*
X0126398Y0107036D01*
X0126229Y0107068D01*
X0126061Y0107103D01*
X0125894Y0107143D01*
X0125728Y0107187D01*
X0125563Y0107234D01*
X0125399Y0107286D01*
X0125237Y0107342D01*
X0125076Y0107402D01*
X0124916Y0107466D01*
X0124758Y0107534D01*
X0124602Y0107605D01*
X0124448Y0107680D01*
X0124295Y0107760D01*
X0124145Y0107842D01*
X0123996Y0107929D01*
X0123850Y0108019D01*
X0123706Y0108113D01*
X0123564Y0108210D01*
X0123425Y0108311D01*
X0123288Y0108415D01*
X0123154Y0108522D01*
X0123023Y0108633D01*
X0122894Y0108746D01*
X0122768Y0108863D01*
X0122645Y0108983D01*
X0122525Y0109106D01*
X0122408Y0109232D01*
X0122295Y0109361D01*
X0122184Y0109492D01*
X0122077Y0109626D01*
X0121973Y0109763D01*
X0121872Y0109902D01*
X0121775Y0110044D01*
X0121681Y0110188D01*
X0121591Y0110334D01*
X0121504Y0110483D01*
X0121422Y0110633D01*
X0121342Y0110786D01*
X0121267Y0110940D01*
X0121196Y0111096D01*
X0121128Y0111254D01*
X0121064Y0111414D01*
X0121004Y0111575D01*
X0120948Y0111737D01*
X0120896Y0111901D01*
X0120849Y0112066D01*
X0120805Y0112232D01*
X0120765Y0112399D01*
X0120730Y0112567D01*
X0120698Y0112736D01*
X0120671Y0112906D01*
X0120648Y0113076D01*
X0120629Y0113247D01*
X0120614Y0113418D01*
X0120603Y0113590D01*
X0120597Y0113761D01*
X0120595Y0113933D01*
X0155595Y0109933D02*
X0155595Y0117980D01*
X0159095Y0125933D02*
X0176095Y0125933D01*
X0176095Y0131933D02*
X0159095Y0131933D01*
X0155595Y0139933D02*
X0155595Y0147980D01*
X0159095Y0155933D02*
X0176095Y0155933D01*
X0179595Y0147862D02*
X0179595Y0139933D01*
X0160595Y0143933D02*
X0160597Y0144105D01*
X0160603Y0144276D01*
X0160614Y0144448D01*
X0160629Y0144619D01*
X0160648Y0144790D01*
X0160671Y0144960D01*
X0160698Y0145130D01*
X0160730Y0145299D01*
X0160765Y0145467D01*
X0160805Y0145634D01*
X0160849Y0145800D01*
X0160896Y0145965D01*
X0160948Y0146129D01*
X0161004Y0146291D01*
X0161064Y0146452D01*
X0161128Y0146612D01*
X0161196Y0146770D01*
X0161267Y0146926D01*
X0161342Y0147080D01*
X0161422Y0147233D01*
X0161504Y0147383D01*
X0161591Y0147532D01*
X0161681Y0147678D01*
X0161775Y0147822D01*
X0161872Y0147964D01*
X0161973Y0148103D01*
X0162077Y0148240D01*
X0162184Y0148374D01*
X0162295Y0148505D01*
X0162408Y0148634D01*
X0162525Y0148760D01*
X0162645Y0148883D01*
X0162768Y0149003D01*
X0162894Y0149120D01*
X0163023Y0149233D01*
X0163154Y0149344D01*
X0163288Y0149451D01*
X0163425Y0149555D01*
X0163564Y0149656D01*
X0163706Y0149753D01*
X0163850Y0149847D01*
X0163996Y0149937D01*
X0164145Y0150024D01*
X0164295Y0150106D01*
X0164448Y0150186D01*
X0164602Y0150261D01*
X0164758Y0150332D01*
X0164916Y0150400D01*
X0165076Y0150464D01*
X0165237Y0150524D01*
X0165399Y0150580D01*
X0165563Y0150632D01*
X0165728Y0150679D01*
X0165894Y0150723D01*
X0166061Y0150763D01*
X0166229Y0150798D01*
X0166398Y0150830D01*
X0166568Y0150857D01*
X0166738Y0150880D01*
X0166909Y0150899D01*
X0167080Y0150914D01*
X0167252Y0150925D01*
X0167423Y0150931D01*
X0167595Y0150933D01*
X0167767Y0150931D01*
X0167938Y0150925D01*
X0168110Y0150914D01*
X0168281Y0150899D01*
X0168452Y0150880D01*
X0168622Y0150857D01*
X0168792Y0150830D01*
X0168961Y0150798D01*
X0169129Y0150763D01*
X0169296Y0150723D01*
X0169462Y0150679D01*
X0169627Y0150632D01*
X0169791Y0150580D01*
X0169953Y0150524D01*
X0170114Y0150464D01*
X0170274Y0150400D01*
X0170432Y0150332D01*
X0170588Y0150261D01*
X0170742Y0150186D01*
X0170895Y0150106D01*
X0171045Y0150024D01*
X0171194Y0149937D01*
X0171340Y0149847D01*
X0171484Y0149753D01*
X0171626Y0149656D01*
X0171765Y0149555D01*
X0171902Y0149451D01*
X0172036Y0149344D01*
X0172167Y0149233D01*
X0172296Y0149120D01*
X0172422Y0149003D01*
X0172545Y0148883D01*
X0172665Y0148760D01*
X0172782Y0148634D01*
X0172895Y0148505D01*
X0173006Y0148374D01*
X0173113Y0148240D01*
X0173217Y0148103D01*
X0173318Y0147964D01*
X0173415Y0147822D01*
X0173509Y0147678D01*
X0173599Y0147532D01*
X0173686Y0147383D01*
X0173768Y0147233D01*
X0173848Y0147080D01*
X0173923Y0146926D01*
X0173994Y0146770D01*
X0174062Y0146612D01*
X0174126Y0146452D01*
X0174186Y0146291D01*
X0174242Y0146129D01*
X0174294Y0145965D01*
X0174341Y0145800D01*
X0174385Y0145634D01*
X0174425Y0145467D01*
X0174460Y0145299D01*
X0174492Y0145130D01*
X0174519Y0144960D01*
X0174542Y0144790D01*
X0174561Y0144619D01*
X0174576Y0144448D01*
X0174587Y0144276D01*
X0174593Y0144105D01*
X0174595Y0143933D01*
X0174593Y0143761D01*
X0174587Y0143590D01*
X0174576Y0143418D01*
X0174561Y0143247D01*
X0174542Y0143076D01*
X0174519Y0142906D01*
X0174492Y0142736D01*
X0174460Y0142567D01*
X0174425Y0142399D01*
X0174385Y0142232D01*
X0174341Y0142066D01*
X0174294Y0141901D01*
X0174242Y0141737D01*
X0174186Y0141575D01*
X0174126Y0141414D01*
X0174062Y0141254D01*
X0173994Y0141096D01*
X0173923Y0140940D01*
X0173848Y0140786D01*
X0173768Y0140633D01*
X0173686Y0140483D01*
X0173599Y0140334D01*
X0173509Y0140188D01*
X0173415Y0140044D01*
X0173318Y0139902D01*
X0173217Y0139763D01*
X0173113Y0139626D01*
X0173006Y0139492D01*
X0172895Y0139361D01*
X0172782Y0139232D01*
X0172665Y0139106D01*
X0172545Y0138983D01*
X0172422Y0138863D01*
X0172296Y0138746D01*
X0172167Y0138633D01*
X0172036Y0138522D01*
X0171902Y0138415D01*
X0171765Y0138311D01*
X0171626Y0138210D01*
X0171484Y0138113D01*
X0171340Y0138019D01*
X0171194Y0137929D01*
X0171045Y0137842D01*
X0170895Y0137760D01*
X0170742Y0137680D01*
X0170588Y0137605D01*
X0170432Y0137534D01*
X0170274Y0137466D01*
X0170114Y0137402D01*
X0169953Y0137342D01*
X0169791Y0137286D01*
X0169627Y0137234D01*
X0169462Y0137187D01*
X0169296Y0137143D01*
X0169129Y0137103D01*
X0168961Y0137068D01*
X0168792Y0137036D01*
X0168622Y0137009D01*
X0168452Y0136986D01*
X0168281Y0136967D01*
X0168110Y0136952D01*
X0167938Y0136941D01*
X0167767Y0136935D01*
X0167595Y0136933D01*
X0167423Y0136935D01*
X0167252Y0136941D01*
X0167080Y0136952D01*
X0166909Y0136967D01*
X0166738Y0136986D01*
X0166568Y0137009D01*
X0166398Y0137036D01*
X0166229Y0137068D01*
X0166061Y0137103D01*
X0165894Y0137143D01*
X0165728Y0137187D01*
X0165563Y0137234D01*
X0165399Y0137286D01*
X0165237Y0137342D01*
X0165076Y0137402D01*
X0164916Y0137466D01*
X0164758Y0137534D01*
X0164602Y0137605D01*
X0164448Y0137680D01*
X0164295Y0137760D01*
X0164145Y0137842D01*
X0163996Y0137929D01*
X0163850Y0138019D01*
X0163706Y0138113D01*
X0163564Y0138210D01*
X0163425Y0138311D01*
X0163288Y0138415D01*
X0163154Y0138522D01*
X0163023Y0138633D01*
X0162894Y0138746D01*
X0162768Y0138863D01*
X0162645Y0138983D01*
X0162525Y0139106D01*
X0162408Y0139232D01*
X0162295Y0139361D01*
X0162184Y0139492D01*
X0162077Y0139626D01*
X0161973Y0139763D01*
X0161872Y0139902D01*
X0161775Y0140044D01*
X0161681Y0140188D01*
X0161591Y0140334D01*
X0161504Y0140483D01*
X0161422Y0140633D01*
X0161342Y0140786D01*
X0161267Y0140940D01*
X0161196Y0141096D01*
X0161128Y0141254D01*
X0161064Y0141414D01*
X0161004Y0141575D01*
X0160948Y0141737D01*
X0160896Y0141901D01*
X0160849Y0142066D01*
X0160805Y0142232D01*
X0160765Y0142399D01*
X0160730Y0142567D01*
X0160698Y0142736D01*
X0160671Y0142906D01*
X0160648Y0143076D01*
X0160629Y0143247D01*
X0160614Y0143418D01*
X0160603Y0143590D01*
X0160597Y0143761D01*
X0160595Y0143933D01*
X0179595Y0117862D02*
X0179595Y0109933D01*
X0176095Y0101933D02*
X0159095Y0101933D01*
X0159095Y0095933D02*
X0176095Y0095933D01*
X0179595Y0087862D02*
X0179595Y0079933D01*
X0176095Y0071933D02*
X0159095Y0071933D01*
X0155595Y0079933D02*
X0155595Y0087980D01*
X0160595Y0083933D02*
X0160597Y0084105D01*
X0160603Y0084276D01*
X0160614Y0084448D01*
X0160629Y0084619D01*
X0160648Y0084790D01*
X0160671Y0084960D01*
X0160698Y0085130D01*
X0160730Y0085299D01*
X0160765Y0085467D01*
X0160805Y0085634D01*
X0160849Y0085800D01*
X0160896Y0085965D01*
X0160948Y0086129D01*
X0161004Y0086291D01*
X0161064Y0086452D01*
X0161128Y0086612D01*
X0161196Y0086770D01*
X0161267Y0086926D01*
X0161342Y0087080D01*
X0161422Y0087233D01*
X0161504Y0087383D01*
X0161591Y0087532D01*
X0161681Y0087678D01*
X0161775Y0087822D01*
X0161872Y0087964D01*
X0161973Y0088103D01*
X0162077Y0088240D01*
X0162184Y0088374D01*
X0162295Y0088505D01*
X0162408Y0088634D01*
X0162525Y0088760D01*
X0162645Y0088883D01*
X0162768Y0089003D01*
X0162894Y0089120D01*
X0163023Y0089233D01*
X0163154Y0089344D01*
X0163288Y0089451D01*
X0163425Y0089555D01*
X0163564Y0089656D01*
X0163706Y0089753D01*
X0163850Y0089847D01*
X0163996Y0089937D01*
X0164145Y0090024D01*
X0164295Y0090106D01*
X0164448Y0090186D01*
X0164602Y0090261D01*
X0164758Y0090332D01*
X0164916Y0090400D01*
X0165076Y0090464D01*
X0165237Y0090524D01*
X0165399Y0090580D01*
X0165563Y0090632D01*
X0165728Y0090679D01*
X0165894Y0090723D01*
X0166061Y0090763D01*
X0166229Y0090798D01*
X0166398Y0090830D01*
X0166568Y0090857D01*
X0166738Y0090880D01*
X0166909Y0090899D01*
X0167080Y0090914D01*
X0167252Y0090925D01*
X0167423Y0090931D01*
X0167595Y0090933D01*
X0167767Y0090931D01*
X0167938Y0090925D01*
X0168110Y0090914D01*
X0168281Y0090899D01*
X0168452Y0090880D01*
X0168622Y0090857D01*
X0168792Y0090830D01*
X0168961Y0090798D01*
X0169129Y0090763D01*
X0169296Y0090723D01*
X0169462Y0090679D01*
X0169627Y0090632D01*
X0169791Y0090580D01*
X0169953Y0090524D01*
X0170114Y0090464D01*
X0170274Y0090400D01*
X0170432Y0090332D01*
X0170588Y0090261D01*
X0170742Y0090186D01*
X0170895Y0090106D01*
X0171045Y0090024D01*
X0171194Y0089937D01*
X0171340Y0089847D01*
X0171484Y0089753D01*
X0171626Y0089656D01*
X0171765Y0089555D01*
X0171902Y0089451D01*
X0172036Y0089344D01*
X0172167Y0089233D01*
X0172296Y0089120D01*
X0172422Y0089003D01*
X0172545Y0088883D01*
X0172665Y0088760D01*
X0172782Y0088634D01*
X0172895Y0088505D01*
X0173006Y0088374D01*
X0173113Y0088240D01*
X0173217Y0088103D01*
X0173318Y0087964D01*
X0173415Y0087822D01*
X0173509Y0087678D01*
X0173599Y0087532D01*
X0173686Y0087383D01*
X0173768Y0087233D01*
X0173848Y0087080D01*
X0173923Y0086926D01*
X0173994Y0086770D01*
X0174062Y0086612D01*
X0174126Y0086452D01*
X0174186Y0086291D01*
X0174242Y0086129D01*
X0174294Y0085965D01*
X0174341Y0085800D01*
X0174385Y0085634D01*
X0174425Y0085467D01*
X0174460Y0085299D01*
X0174492Y0085130D01*
X0174519Y0084960D01*
X0174542Y0084790D01*
X0174561Y0084619D01*
X0174576Y0084448D01*
X0174587Y0084276D01*
X0174593Y0084105D01*
X0174595Y0083933D01*
X0174593Y0083761D01*
X0174587Y0083590D01*
X0174576Y0083418D01*
X0174561Y0083247D01*
X0174542Y0083076D01*
X0174519Y0082906D01*
X0174492Y0082736D01*
X0174460Y0082567D01*
X0174425Y0082399D01*
X0174385Y0082232D01*
X0174341Y0082066D01*
X0174294Y0081901D01*
X0174242Y0081737D01*
X0174186Y0081575D01*
X0174126Y0081414D01*
X0174062Y0081254D01*
X0173994Y0081096D01*
X0173923Y0080940D01*
X0173848Y0080786D01*
X0173768Y0080633D01*
X0173686Y0080483D01*
X0173599Y0080334D01*
X0173509Y0080188D01*
X0173415Y0080044D01*
X0173318Y0079902D01*
X0173217Y0079763D01*
X0173113Y0079626D01*
X0173006Y0079492D01*
X0172895Y0079361D01*
X0172782Y0079232D01*
X0172665Y0079106D01*
X0172545Y0078983D01*
X0172422Y0078863D01*
X0172296Y0078746D01*
X0172167Y0078633D01*
X0172036Y0078522D01*
X0171902Y0078415D01*
X0171765Y0078311D01*
X0171626Y0078210D01*
X0171484Y0078113D01*
X0171340Y0078019D01*
X0171194Y0077929D01*
X0171045Y0077842D01*
X0170895Y0077760D01*
X0170742Y0077680D01*
X0170588Y0077605D01*
X0170432Y0077534D01*
X0170274Y0077466D01*
X0170114Y0077402D01*
X0169953Y0077342D01*
X0169791Y0077286D01*
X0169627Y0077234D01*
X0169462Y0077187D01*
X0169296Y0077143D01*
X0169129Y0077103D01*
X0168961Y0077068D01*
X0168792Y0077036D01*
X0168622Y0077009D01*
X0168452Y0076986D01*
X0168281Y0076967D01*
X0168110Y0076952D01*
X0167938Y0076941D01*
X0167767Y0076935D01*
X0167595Y0076933D01*
X0167423Y0076935D01*
X0167252Y0076941D01*
X0167080Y0076952D01*
X0166909Y0076967D01*
X0166738Y0076986D01*
X0166568Y0077009D01*
X0166398Y0077036D01*
X0166229Y0077068D01*
X0166061Y0077103D01*
X0165894Y0077143D01*
X0165728Y0077187D01*
X0165563Y0077234D01*
X0165399Y0077286D01*
X0165237Y0077342D01*
X0165076Y0077402D01*
X0164916Y0077466D01*
X0164758Y0077534D01*
X0164602Y0077605D01*
X0164448Y0077680D01*
X0164295Y0077760D01*
X0164145Y0077842D01*
X0163996Y0077929D01*
X0163850Y0078019D01*
X0163706Y0078113D01*
X0163564Y0078210D01*
X0163425Y0078311D01*
X0163288Y0078415D01*
X0163154Y0078522D01*
X0163023Y0078633D01*
X0162894Y0078746D01*
X0162768Y0078863D01*
X0162645Y0078983D01*
X0162525Y0079106D01*
X0162408Y0079232D01*
X0162295Y0079361D01*
X0162184Y0079492D01*
X0162077Y0079626D01*
X0161973Y0079763D01*
X0161872Y0079902D01*
X0161775Y0080044D01*
X0161681Y0080188D01*
X0161591Y0080334D01*
X0161504Y0080483D01*
X0161422Y0080633D01*
X0161342Y0080786D01*
X0161267Y0080940D01*
X0161196Y0081096D01*
X0161128Y0081254D01*
X0161064Y0081414D01*
X0161004Y0081575D01*
X0160948Y0081737D01*
X0160896Y0081901D01*
X0160849Y0082066D01*
X0160805Y0082232D01*
X0160765Y0082399D01*
X0160730Y0082567D01*
X0160698Y0082736D01*
X0160671Y0082906D01*
X0160648Y0083076D01*
X0160629Y0083247D01*
X0160614Y0083418D01*
X0160603Y0083590D01*
X0160597Y0083761D01*
X0160595Y0083933D01*
X0160595Y0113933D02*
X0160597Y0114105D01*
X0160603Y0114276D01*
X0160614Y0114448D01*
X0160629Y0114619D01*
X0160648Y0114790D01*
X0160671Y0114960D01*
X0160698Y0115130D01*
X0160730Y0115299D01*
X0160765Y0115467D01*
X0160805Y0115634D01*
X0160849Y0115800D01*
X0160896Y0115965D01*
X0160948Y0116129D01*
X0161004Y0116291D01*
X0161064Y0116452D01*
X0161128Y0116612D01*
X0161196Y0116770D01*
X0161267Y0116926D01*
X0161342Y0117080D01*
X0161422Y0117233D01*
X0161504Y0117383D01*
X0161591Y0117532D01*
X0161681Y0117678D01*
X0161775Y0117822D01*
X0161872Y0117964D01*
X0161973Y0118103D01*
X0162077Y0118240D01*
X0162184Y0118374D01*
X0162295Y0118505D01*
X0162408Y0118634D01*
X0162525Y0118760D01*
X0162645Y0118883D01*
X0162768Y0119003D01*
X0162894Y0119120D01*
X0163023Y0119233D01*
X0163154Y0119344D01*
X0163288Y0119451D01*
X0163425Y0119555D01*
X0163564Y0119656D01*
X0163706Y0119753D01*
X0163850Y0119847D01*
X0163996Y0119937D01*
X0164145Y0120024D01*
X0164295Y0120106D01*
X0164448Y0120186D01*
X0164602Y0120261D01*
X0164758Y0120332D01*
X0164916Y0120400D01*
X0165076Y0120464D01*
X0165237Y0120524D01*
X0165399Y0120580D01*
X0165563Y0120632D01*
X0165728Y0120679D01*
X0165894Y0120723D01*
X0166061Y0120763D01*
X0166229Y0120798D01*
X0166398Y0120830D01*
X0166568Y0120857D01*
X0166738Y0120880D01*
X0166909Y0120899D01*
X0167080Y0120914D01*
X0167252Y0120925D01*
X0167423Y0120931D01*
X0167595Y0120933D01*
X0167767Y0120931D01*
X0167938Y0120925D01*
X0168110Y0120914D01*
X0168281Y0120899D01*
X0168452Y0120880D01*
X0168622Y0120857D01*
X0168792Y0120830D01*
X0168961Y0120798D01*
X0169129Y0120763D01*
X0169296Y0120723D01*
X0169462Y0120679D01*
X0169627Y0120632D01*
X0169791Y0120580D01*
X0169953Y0120524D01*
X0170114Y0120464D01*
X0170274Y0120400D01*
X0170432Y0120332D01*
X0170588Y0120261D01*
X0170742Y0120186D01*
X0170895Y0120106D01*
X0171045Y0120024D01*
X0171194Y0119937D01*
X0171340Y0119847D01*
X0171484Y0119753D01*
X0171626Y0119656D01*
X0171765Y0119555D01*
X0171902Y0119451D01*
X0172036Y0119344D01*
X0172167Y0119233D01*
X0172296Y0119120D01*
X0172422Y0119003D01*
X0172545Y0118883D01*
X0172665Y0118760D01*
X0172782Y0118634D01*
X0172895Y0118505D01*
X0173006Y0118374D01*
X0173113Y0118240D01*
X0173217Y0118103D01*
X0173318Y0117964D01*
X0173415Y0117822D01*
X0173509Y0117678D01*
X0173599Y0117532D01*
X0173686Y0117383D01*
X0173768Y0117233D01*
X0173848Y0117080D01*
X0173923Y0116926D01*
X0173994Y0116770D01*
X0174062Y0116612D01*
X0174126Y0116452D01*
X0174186Y0116291D01*
X0174242Y0116129D01*
X0174294Y0115965D01*
X0174341Y0115800D01*
X0174385Y0115634D01*
X0174425Y0115467D01*
X0174460Y0115299D01*
X0174492Y0115130D01*
X0174519Y0114960D01*
X0174542Y0114790D01*
X0174561Y0114619D01*
X0174576Y0114448D01*
X0174587Y0114276D01*
X0174593Y0114105D01*
X0174595Y0113933D01*
X0174593Y0113761D01*
X0174587Y0113590D01*
X0174576Y0113418D01*
X0174561Y0113247D01*
X0174542Y0113076D01*
X0174519Y0112906D01*
X0174492Y0112736D01*
X0174460Y0112567D01*
X0174425Y0112399D01*
X0174385Y0112232D01*
X0174341Y0112066D01*
X0174294Y0111901D01*
X0174242Y0111737D01*
X0174186Y0111575D01*
X0174126Y0111414D01*
X0174062Y0111254D01*
X0173994Y0111096D01*
X0173923Y0110940D01*
X0173848Y0110786D01*
X0173768Y0110633D01*
X0173686Y0110483D01*
X0173599Y0110334D01*
X0173509Y0110188D01*
X0173415Y0110044D01*
X0173318Y0109902D01*
X0173217Y0109763D01*
X0173113Y0109626D01*
X0173006Y0109492D01*
X0172895Y0109361D01*
X0172782Y0109232D01*
X0172665Y0109106D01*
X0172545Y0108983D01*
X0172422Y0108863D01*
X0172296Y0108746D01*
X0172167Y0108633D01*
X0172036Y0108522D01*
X0171902Y0108415D01*
X0171765Y0108311D01*
X0171626Y0108210D01*
X0171484Y0108113D01*
X0171340Y0108019D01*
X0171194Y0107929D01*
X0171045Y0107842D01*
X0170895Y0107760D01*
X0170742Y0107680D01*
X0170588Y0107605D01*
X0170432Y0107534D01*
X0170274Y0107466D01*
X0170114Y0107402D01*
X0169953Y0107342D01*
X0169791Y0107286D01*
X0169627Y0107234D01*
X0169462Y0107187D01*
X0169296Y0107143D01*
X0169129Y0107103D01*
X0168961Y0107068D01*
X0168792Y0107036D01*
X0168622Y0107009D01*
X0168452Y0106986D01*
X0168281Y0106967D01*
X0168110Y0106952D01*
X0167938Y0106941D01*
X0167767Y0106935D01*
X0167595Y0106933D01*
X0167423Y0106935D01*
X0167252Y0106941D01*
X0167080Y0106952D01*
X0166909Y0106967D01*
X0166738Y0106986D01*
X0166568Y0107009D01*
X0166398Y0107036D01*
X0166229Y0107068D01*
X0166061Y0107103D01*
X0165894Y0107143D01*
X0165728Y0107187D01*
X0165563Y0107234D01*
X0165399Y0107286D01*
X0165237Y0107342D01*
X0165076Y0107402D01*
X0164916Y0107466D01*
X0164758Y0107534D01*
X0164602Y0107605D01*
X0164448Y0107680D01*
X0164295Y0107760D01*
X0164145Y0107842D01*
X0163996Y0107929D01*
X0163850Y0108019D01*
X0163706Y0108113D01*
X0163564Y0108210D01*
X0163425Y0108311D01*
X0163288Y0108415D01*
X0163154Y0108522D01*
X0163023Y0108633D01*
X0162894Y0108746D01*
X0162768Y0108863D01*
X0162645Y0108983D01*
X0162525Y0109106D01*
X0162408Y0109232D01*
X0162295Y0109361D01*
X0162184Y0109492D01*
X0162077Y0109626D01*
X0161973Y0109763D01*
X0161872Y0109902D01*
X0161775Y0110044D01*
X0161681Y0110188D01*
X0161591Y0110334D01*
X0161504Y0110483D01*
X0161422Y0110633D01*
X0161342Y0110786D01*
X0161267Y0110940D01*
X0161196Y0111096D01*
X0161128Y0111254D01*
X0161064Y0111414D01*
X0161004Y0111575D01*
X0160948Y0111737D01*
X0160896Y0111901D01*
X0160849Y0112066D01*
X0160805Y0112232D01*
X0160765Y0112399D01*
X0160730Y0112567D01*
X0160698Y0112736D01*
X0160671Y0112906D01*
X0160648Y0113076D01*
X0160629Y0113247D01*
X0160614Y0113418D01*
X0160603Y0113590D01*
X0160597Y0113761D01*
X0160595Y0113933D01*
X0195595Y0109933D02*
X0195595Y0117980D01*
X0199095Y0125933D02*
X0216095Y0125933D01*
X0219595Y0117862D02*
X0219595Y0109933D01*
X0216095Y0101933D02*
X0199095Y0101933D01*
X0200595Y0113933D02*
X0200597Y0114105D01*
X0200603Y0114276D01*
X0200614Y0114448D01*
X0200629Y0114619D01*
X0200648Y0114790D01*
X0200671Y0114960D01*
X0200698Y0115130D01*
X0200730Y0115299D01*
X0200765Y0115467D01*
X0200805Y0115634D01*
X0200849Y0115800D01*
X0200896Y0115965D01*
X0200948Y0116129D01*
X0201004Y0116291D01*
X0201064Y0116452D01*
X0201128Y0116612D01*
X0201196Y0116770D01*
X0201267Y0116926D01*
X0201342Y0117080D01*
X0201422Y0117233D01*
X0201504Y0117383D01*
X0201591Y0117532D01*
X0201681Y0117678D01*
X0201775Y0117822D01*
X0201872Y0117964D01*
X0201973Y0118103D01*
X0202077Y0118240D01*
X0202184Y0118374D01*
X0202295Y0118505D01*
X0202408Y0118634D01*
X0202525Y0118760D01*
X0202645Y0118883D01*
X0202768Y0119003D01*
X0202894Y0119120D01*
X0203023Y0119233D01*
X0203154Y0119344D01*
X0203288Y0119451D01*
X0203425Y0119555D01*
X0203564Y0119656D01*
X0203706Y0119753D01*
X0203850Y0119847D01*
X0203996Y0119937D01*
X0204145Y0120024D01*
X0204295Y0120106D01*
X0204448Y0120186D01*
X0204602Y0120261D01*
X0204758Y0120332D01*
X0204916Y0120400D01*
X0205076Y0120464D01*
X0205237Y0120524D01*
X0205399Y0120580D01*
X0205563Y0120632D01*
X0205728Y0120679D01*
X0205894Y0120723D01*
X0206061Y0120763D01*
X0206229Y0120798D01*
X0206398Y0120830D01*
X0206568Y0120857D01*
X0206738Y0120880D01*
X0206909Y0120899D01*
X0207080Y0120914D01*
X0207252Y0120925D01*
X0207423Y0120931D01*
X0207595Y0120933D01*
X0207767Y0120931D01*
X0207938Y0120925D01*
X0208110Y0120914D01*
X0208281Y0120899D01*
X0208452Y0120880D01*
X0208622Y0120857D01*
X0208792Y0120830D01*
X0208961Y0120798D01*
X0209129Y0120763D01*
X0209296Y0120723D01*
X0209462Y0120679D01*
X0209627Y0120632D01*
X0209791Y0120580D01*
X0209953Y0120524D01*
X0210114Y0120464D01*
X0210274Y0120400D01*
X0210432Y0120332D01*
X0210588Y0120261D01*
X0210742Y0120186D01*
X0210895Y0120106D01*
X0211045Y0120024D01*
X0211194Y0119937D01*
X0211340Y0119847D01*
X0211484Y0119753D01*
X0211626Y0119656D01*
X0211765Y0119555D01*
X0211902Y0119451D01*
X0212036Y0119344D01*
X0212167Y0119233D01*
X0212296Y0119120D01*
X0212422Y0119003D01*
X0212545Y0118883D01*
X0212665Y0118760D01*
X0212782Y0118634D01*
X0212895Y0118505D01*
X0213006Y0118374D01*
X0213113Y0118240D01*
X0213217Y0118103D01*
X0213318Y0117964D01*
X0213415Y0117822D01*
X0213509Y0117678D01*
X0213599Y0117532D01*
X0213686Y0117383D01*
X0213768Y0117233D01*
X0213848Y0117080D01*
X0213923Y0116926D01*
X0213994Y0116770D01*
X0214062Y0116612D01*
X0214126Y0116452D01*
X0214186Y0116291D01*
X0214242Y0116129D01*
X0214294Y0115965D01*
X0214341Y0115800D01*
X0214385Y0115634D01*
X0214425Y0115467D01*
X0214460Y0115299D01*
X0214492Y0115130D01*
X0214519Y0114960D01*
X0214542Y0114790D01*
X0214561Y0114619D01*
X0214576Y0114448D01*
X0214587Y0114276D01*
X0214593Y0114105D01*
X0214595Y0113933D01*
X0214593Y0113761D01*
X0214587Y0113590D01*
X0214576Y0113418D01*
X0214561Y0113247D01*
X0214542Y0113076D01*
X0214519Y0112906D01*
X0214492Y0112736D01*
X0214460Y0112567D01*
X0214425Y0112399D01*
X0214385Y0112232D01*
X0214341Y0112066D01*
X0214294Y0111901D01*
X0214242Y0111737D01*
X0214186Y0111575D01*
X0214126Y0111414D01*
X0214062Y0111254D01*
X0213994Y0111096D01*
X0213923Y0110940D01*
X0213848Y0110786D01*
X0213768Y0110633D01*
X0213686Y0110483D01*
X0213599Y0110334D01*
X0213509Y0110188D01*
X0213415Y0110044D01*
X0213318Y0109902D01*
X0213217Y0109763D01*
X0213113Y0109626D01*
X0213006Y0109492D01*
X0212895Y0109361D01*
X0212782Y0109232D01*
X0212665Y0109106D01*
X0212545Y0108983D01*
X0212422Y0108863D01*
X0212296Y0108746D01*
X0212167Y0108633D01*
X0212036Y0108522D01*
X0211902Y0108415D01*
X0211765Y0108311D01*
X0211626Y0108210D01*
X0211484Y0108113D01*
X0211340Y0108019D01*
X0211194Y0107929D01*
X0211045Y0107842D01*
X0210895Y0107760D01*
X0210742Y0107680D01*
X0210588Y0107605D01*
X0210432Y0107534D01*
X0210274Y0107466D01*
X0210114Y0107402D01*
X0209953Y0107342D01*
X0209791Y0107286D01*
X0209627Y0107234D01*
X0209462Y0107187D01*
X0209296Y0107143D01*
X0209129Y0107103D01*
X0208961Y0107068D01*
X0208792Y0107036D01*
X0208622Y0107009D01*
X0208452Y0106986D01*
X0208281Y0106967D01*
X0208110Y0106952D01*
X0207938Y0106941D01*
X0207767Y0106935D01*
X0207595Y0106933D01*
X0207423Y0106935D01*
X0207252Y0106941D01*
X0207080Y0106952D01*
X0206909Y0106967D01*
X0206738Y0106986D01*
X0206568Y0107009D01*
X0206398Y0107036D01*
X0206229Y0107068D01*
X0206061Y0107103D01*
X0205894Y0107143D01*
X0205728Y0107187D01*
X0205563Y0107234D01*
X0205399Y0107286D01*
X0205237Y0107342D01*
X0205076Y0107402D01*
X0204916Y0107466D01*
X0204758Y0107534D01*
X0204602Y0107605D01*
X0204448Y0107680D01*
X0204295Y0107760D01*
X0204145Y0107842D01*
X0203996Y0107929D01*
X0203850Y0108019D01*
X0203706Y0108113D01*
X0203564Y0108210D01*
X0203425Y0108311D01*
X0203288Y0108415D01*
X0203154Y0108522D01*
X0203023Y0108633D01*
X0202894Y0108746D01*
X0202768Y0108863D01*
X0202645Y0108983D01*
X0202525Y0109106D01*
X0202408Y0109232D01*
X0202295Y0109361D01*
X0202184Y0109492D01*
X0202077Y0109626D01*
X0201973Y0109763D01*
X0201872Y0109902D01*
X0201775Y0110044D01*
X0201681Y0110188D01*
X0201591Y0110334D01*
X0201504Y0110483D01*
X0201422Y0110633D01*
X0201342Y0110786D01*
X0201267Y0110940D01*
X0201196Y0111096D01*
X0201128Y0111254D01*
X0201064Y0111414D01*
X0201004Y0111575D01*
X0200948Y0111737D01*
X0200896Y0111901D01*
X0200849Y0112066D01*
X0200805Y0112232D01*
X0200765Y0112399D01*
X0200730Y0112567D01*
X0200698Y0112736D01*
X0200671Y0112906D01*
X0200648Y0113076D01*
X0200629Y0113247D01*
X0200614Y0113418D01*
X0200603Y0113590D01*
X0200597Y0113761D01*
X0200595Y0113933D01*
X0266520Y0121433D02*
X0266520Y0126433D01*
X0217595Y0172683D02*
X0217595Y0203933D01*
X0207595Y0215183D01*
X0117595Y0215183D01*
X0117595Y0172683D01*
X0217595Y0172683D01*
X0170095Y0191433D02*
X0165095Y0191433D01*
X0167595Y0185183D02*
X0167595Y0202683D01*
X0105282Y0184484D02*
X0099908Y0184484D01*
X0068670Y0166433D02*
X0068670Y0161433D01*
X0050705Y0228933D02*
X0050707Y0229102D01*
X0050713Y0229271D01*
X0050724Y0229440D01*
X0050738Y0229608D01*
X0050757Y0229776D01*
X0050780Y0229944D01*
X0050806Y0230111D01*
X0050837Y0230277D01*
X0050872Y0230443D01*
X0050911Y0230607D01*
X0050955Y0230771D01*
X0051002Y0230933D01*
X0051053Y0231094D01*
X0051108Y0231254D01*
X0051167Y0231413D01*
X0051229Y0231570D01*
X0051296Y0231725D01*
X0051367Y0231879D01*
X0051441Y0232031D01*
X0051519Y0232181D01*
X0051600Y0232329D01*
X0051685Y0232475D01*
X0051774Y0232619D01*
X0051866Y0232761D01*
X0051962Y0232900D01*
X0052061Y0233037D01*
X0052163Y0233172D01*
X0052269Y0233304D01*
X0052378Y0233433D01*
X0052490Y0233560D01*
X0052605Y0233684D01*
X0052723Y0233805D01*
X0052844Y0233923D01*
X0052968Y0234038D01*
X0053095Y0234150D01*
X0053224Y0234259D01*
X0053356Y0234365D01*
X0053491Y0234467D01*
X0053628Y0234566D01*
X0053767Y0234662D01*
X0053909Y0234754D01*
X0054053Y0234843D01*
X0054199Y0234928D01*
X0054347Y0235009D01*
X0054497Y0235087D01*
X0054649Y0235161D01*
X0054803Y0235232D01*
X0054958Y0235299D01*
X0055115Y0235361D01*
X0055274Y0235420D01*
X0055434Y0235475D01*
X0055595Y0235526D01*
X0055757Y0235573D01*
X0055921Y0235617D01*
X0056085Y0235656D01*
X0056251Y0235691D01*
X0056417Y0235722D01*
X0056584Y0235748D01*
X0056752Y0235771D01*
X0056920Y0235790D01*
X0057088Y0235804D01*
X0057257Y0235815D01*
X0057426Y0235821D01*
X0057595Y0235823D01*
X0057764Y0235821D01*
X0057933Y0235815D01*
X0058102Y0235804D01*
X0058270Y0235790D01*
X0058438Y0235771D01*
X0058606Y0235748D01*
X0058773Y0235722D01*
X0058939Y0235691D01*
X0059105Y0235656D01*
X0059269Y0235617D01*
X0059433Y0235573D01*
X0059595Y0235526D01*
X0059756Y0235475D01*
X0059916Y0235420D01*
X0060075Y0235361D01*
X0060232Y0235299D01*
X0060387Y0235232D01*
X0060541Y0235161D01*
X0060693Y0235087D01*
X0060843Y0235009D01*
X0060991Y0234928D01*
X0061137Y0234843D01*
X0061281Y0234754D01*
X0061423Y0234662D01*
X0061562Y0234566D01*
X0061699Y0234467D01*
X0061834Y0234365D01*
X0061966Y0234259D01*
X0062095Y0234150D01*
X0062222Y0234038D01*
X0062346Y0233923D01*
X0062467Y0233805D01*
X0062585Y0233684D01*
X0062700Y0233560D01*
X0062812Y0233433D01*
X0062921Y0233304D01*
X0063027Y0233172D01*
X0063129Y0233037D01*
X0063228Y0232900D01*
X0063324Y0232761D01*
X0063416Y0232619D01*
X0063505Y0232475D01*
X0063590Y0232329D01*
X0063671Y0232181D01*
X0063749Y0232031D01*
X0063823Y0231879D01*
X0063894Y0231725D01*
X0063961Y0231570D01*
X0064023Y0231413D01*
X0064082Y0231254D01*
X0064137Y0231094D01*
X0064188Y0230933D01*
X0064235Y0230771D01*
X0064279Y0230607D01*
X0064318Y0230443D01*
X0064353Y0230277D01*
X0064384Y0230111D01*
X0064410Y0229944D01*
X0064433Y0229776D01*
X0064452Y0229608D01*
X0064466Y0229440D01*
X0064477Y0229271D01*
X0064483Y0229102D01*
X0064485Y0228933D01*
X0064483Y0228764D01*
X0064477Y0228595D01*
X0064466Y0228426D01*
X0064452Y0228258D01*
X0064433Y0228090D01*
X0064410Y0227922D01*
X0064384Y0227755D01*
X0064353Y0227589D01*
X0064318Y0227423D01*
X0064279Y0227259D01*
X0064235Y0227095D01*
X0064188Y0226933D01*
X0064137Y0226772D01*
X0064082Y0226612D01*
X0064023Y0226453D01*
X0063961Y0226296D01*
X0063894Y0226141D01*
X0063823Y0225987D01*
X0063749Y0225835D01*
X0063671Y0225685D01*
X0063590Y0225537D01*
X0063505Y0225391D01*
X0063416Y0225247D01*
X0063324Y0225105D01*
X0063228Y0224966D01*
X0063129Y0224829D01*
X0063027Y0224694D01*
X0062921Y0224562D01*
X0062812Y0224433D01*
X0062700Y0224306D01*
X0062585Y0224182D01*
X0062467Y0224061D01*
X0062346Y0223943D01*
X0062222Y0223828D01*
X0062095Y0223716D01*
X0061966Y0223607D01*
X0061834Y0223501D01*
X0061699Y0223399D01*
X0061562Y0223300D01*
X0061423Y0223204D01*
X0061281Y0223112D01*
X0061137Y0223023D01*
X0060991Y0222938D01*
X0060843Y0222857D01*
X0060693Y0222779D01*
X0060541Y0222705D01*
X0060387Y0222634D01*
X0060232Y0222567D01*
X0060075Y0222505D01*
X0059916Y0222446D01*
X0059756Y0222391D01*
X0059595Y0222340D01*
X0059433Y0222293D01*
X0059269Y0222249D01*
X0059105Y0222210D01*
X0058939Y0222175D01*
X0058773Y0222144D01*
X0058606Y0222118D01*
X0058438Y0222095D01*
X0058270Y0222076D01*
X0058102Y0222062D01*
X0057933Y0222051D01*
X0057764Y0222045D01*
X0057595Y0222043D01*
X0057426Y0222045D01*
X0057257Y0222051D01*
X0057088Y0222062D01*
X0056920Y0222076D01*
X0056752Y0222095D01*
X0056584Y0222118D01*
X0056417Y0222144D01*
X0056251Y0222175D01*
X0056085Y0222210D01*
X0055921Y0222249D01*
X0055757Y0222293D01*
X0055595Y0222340D01*
X0055434Y0222391D01*
X0055274Y0222446D01*
X0055115Y0222505D01*
X0054958Y0222567D01*
X0054803Y0222634D01*
X0054649Y0222705D01*
X0054497Y0222779D01*
X0054347Y0222857D01*
X0054199Y0222938D01*
X0054053Y0223023D01*
X0053909Y0223112D01*
X0053767Y0223204D01*
X0053628Y0223300D01*
X0053491Y0223399D01*
X0053356Y0223501D01*
X0053224Y0223607D01*
X0053095Y0223716D01*
X0052968Y0223828D01*
X0052844Y0223943D01*
X0052723Y0224061D01*
X0052605Y0224182D01*
X0052490Y0224306D01*
X0052378Y0224433D01*
X0052269Y0224562D01*
X0052163Y0224694D01*
X0052061Y0224829D01*
X0051962Y0224966D01*
X0051866Y0225105D01*
X0051774Y0225247D01*
X0051685Y0225391D01*
X0051600Y0225537D01*
X0051519Y0225685D01*
X0051441Y0225835D01*
X0051367Y0225987D01*
X0051296Y0226141D01*
X0051229Y0226296D01*
X0051167Y0226453D01*
X0051108Y0226612D01*
X0051053Y0226772D01*
X0051002Y0226933D01*
X0050955Y0227095D01*
X0050911Y0227259D01*
X0050872Y0227423D01*
X0050837Y0227589D01*
X0050806Y0227755D01*
X0050780Y0227922D01*
X0050757Y0228090D01*
X0050738Y0228258D01*
X0050724Y0228426D01*
X0050713Y0228595D01*
X0050707Y0228764D01*
X0050705Y0228933D01*
X0270705Y0228933D02*
X0270707Y0229102D01*
X0270713Y0229271D01*
X0270724Y0229440D01*
X0270738Y0229608D01*
X0270757Y0229776D01*
X0270780Y0229944D01*
X0270806Y0230111D01*
X0270837Y0230277D01*
X0270872Y0230443D01*
X0270911Y0230607D01*
X0270955Y0230771D01*
X0271002Y0230933D01*
X0271053Y0231094D01*
X0271108Y0231254D01*
X0271167Y0231413D01*
X0271229Y0231570D01*
X0271296Y0231725D01*
X0271367Y0231879D01*
X0271441Y0232031D01*
X0271519Y0232181D01*
X0271600Y0232329D01*
X0271685Y0232475D01*
X0271774Y0232619D01*
X0271866Y0232761D01*
X0271962Y0232900D01*
X0272061Y0233037D01*
X0272163Y0233172D01*
X0272269Y0233304D01*
X0272378Y0233433D01*
X0272490Y0233560D01*
X0272605Y0233684D01*
X0272723Y0233805D01*
X0272844Y0233923D01*
X0272968Y0234038D01*
X0273095Y0234150D01*
X0273224Y0234259D01*
X0273356Y0234365D01*
X0273491Y0234467D01*
X0273628Y0234566D01*
X0273767Y0234662D01*
X0273909Y0234754D01*
X0274053Y0234843D01*
X0274199Y0234928D01*
X0274347Y0235009D01*
X0274497Y0235087D01*
X0274649Y0235161D01*
X0274803Y0235232D01*
X0274958Y0235299D01*
X0275115Y0235361D01*
X0275274Y0235420D01*
X0275434Y0235475D01*
X0275595Y0235526D01*
X0275757Y0235573D01*
X0275921Y0235617D01*
X0276085Y0235656D01*
X0276251Y0235691D01*
X0276417Y0235722D01*
X0276584Y0235748D01*
X0276752Y0235771D01*
X0276920Y0235790D01*
X0277088Y0235804D01*
X0277257Y0235815D01*
X0277426Y0235821D01*
X0277595Y0235823D01*
X0277764Y0235821D01*
X0277933Y0235815D01*
X0278102Y0235804D01*
X0278270Y0235790D01*
X0278438Y0235771D01*
X0278606Y0235748D01*
X0278773Y0235722D01*
X0278939Y0235691D01*
X0279105Y0235656D01*
X0279269Y0235617D01*
X0279433Y0235573D01*
X0279595Y0235526D01*
X0279756Y0235475D01*
X0279916Y0235420D01*
X0280075Y0235361D01*
X0280232Y0235299D01*
X0280387Y0235232D01*
X0280541Y0235161D01*
X0280693Y0235087D01*
X0280843Y0235009D01*
X0280991Y0234928D01*
X0281137Y0234843D01*
X0281281Y0234754D01*
X0281423Y0234662D01*
X0281562Y0234566D01*
X0281699Y0234467D01*
X0281834Y0234365D01*
X0281966Y0234259D01*
X0282095Y0234150D01*
X0282222Y0234038D01*
X0282346Y0233923D01*
X0282467Y0233805D01*
X0282585Y0233684D01*
X0282700Y0233560D01*
X0282812Y0233433D01*
X0282921Y0233304D01*
X0283027Y0233172D01*
X0283129Y0233037D01*
X0283228Y0232900D01*
X0283324Y0232761D01*
X0283416Y0232619D01*
X0283505Y0232475D01*
X0283590Y0232329D01*
X0283671Y0232181D01*
X0283749Y0232031D01*
X0283823Y0231879D01*
X0283894Y0231725D01*
X0283961Y0231570D01*
X0284023Y0231413D01*
X0284082Y0231254D01*
X0284137Y0231094D01*
X0284188Y0230933D01*
X0284235Y0230771D01*
X0284279Y0230607D01*
X0284318Y0230443D01*
X0284353Y0230277D01*
X0284384Y0230111D01*
X0284410Y0229944D01*
X0284433Y0229776D01*
X0284452Y0229608D01*
X0284466Y0229440D01*
X0284477Y0229271D01*
X0284483Y0229102D01*
X0284485Y0228933D01*
X0284483Y0228764D01*
X0284477Y0228595D01*
X0284466Y0228426D01*
X0284452Y0228258D01*
X0284433Y0228090D01*
X0284410Y0227922D01*
X0284384Y0227755D01*
X0284353Y0227589D01*
X0284318Y0227423D01*
X0284279Y0227259D01*
X0284235Y0227095D01*
X0284188Y0226933D01*
X0284137Y0226772D01*
X0284082Y0226612D01*
X0284023Y0226453D01*
X0283961Y0226296D01*
X0283894Y0226141D01*
X0283823Y0225987D01*
X0283749Y0225835D01*
X0283671Y0225685D01*
X0283590Y0225537D01*
X0283505Y0225391D01*
X0283416Y0225247D01*
X0283324Y0225105D01*
X0283228Y0224966D01*
X0283129Y0224829D01*
X0283027Y0224694D01*
X0282921Y0224562D01*
X0282812Y0224433D01*
X0282700Y0224306D01*
X0282585Y0224182D01*
X0282467Y0224061D01*
X0282346Y0223943D01*
X0282222Y0223828D01*
X0282095Y0223716D01*
X0281966Y0223607D01*
X0281834Y0223501D01*
X0281699Y0223399D01*
X0281562Y0223300D01*
X0281423Y0223204D01*
X0281281Y0223112D01*
X0281137Y0223023D01*
X0280991Y0222938D01*
X0280843Y0222857D01*
X0280693Y0222779D01*
X0280541Y0222705D01*
X0280387Y0222634D01*
X0280232Y0222567D01*
X0280075Y0222505D01*
X0279916Y0222446D01*
X0279756Y0222391D01*
X0279595Y0222340D01*
X0279433Y0222293D01*
X0279269Y0222249D01*
X0279105Y0222210D01*
X0278939Y0222175D01*
X0278773Y0222144D01*
X0278606Y0222118D01*
X0278438Y0222095D01*
X0278270Y0222076D01*
X0278102Y0222062D01*
X0277933Y0222051D01*
X0277764Y0222045D01*
X0277595Y0222043D01*
X0277426Y0222045D01*
X0277257Y0222051D01*
X0277088Y0222062D01*
X0276920Y0222076D01*
X0276752Y0222095D01*
X0276584Y0222118D01*
X0276417Y0222144D01*
X0276251Y0222175D01*
X0276085Y0222210D01*
X0275921Y0222249D01*
X0275757Y0222293D01*
X0275595Y0222340D01*
X0275434Y0222391D01*
X0275274Y0222446D01*
X0275115Y0222505D01*
X0274958Y0222567D01*
X0274803Y0222634D01*
X0274649Y0222705D01*
X0274497Y0222779D01*
X0274347Y0222857D01*
X0274199Y0222938D01*
X0274053Y0223023D01*
X0273909Y0223112D01*
X0273767Y0223204D01*
X0273628Y0223300D01*
X0273491Y0223399D01*
X0273356Y0223501D01*
X0273224Y0223607D01*
X0273095Y0223716D01*
X0272968Y0223828D01*
X0272844Y0223943D01*
X0272723Y0224061D01*
X0272605Y0224182D01*
X0272490Y0224306D01*
X0272378Y0224433D01*
X0272269Y0224562D01*
X0272163Y0224694D01*
X0272061Y0224829D01*
X0271962Y0224966D01*
X0271866Y0225105D01*
X0271774Y0225247D01*
X0271685Y0225391D01*
X0271600Y0225537D01*
X0271519Y0225685D01*
X0271441Y0225835D01*
X0271367Y0225987D01*
X0271296Y0226141D01*
X0271229Y0226296D01*
X0271167Y0226453D01*
X0271108Y0226612D01*
X0271053Y0226772D01*
X0271002Y0226933D01*
X0270955Y0227095D01*
X0270911Y0227259D01*
X0270872Y0227423D01*
X0270837Y0227589D01*
X0270806Y0227755D01*
X0270780Y0227922D01*
X0270757Y0228090D01*
X0270738Y0228258D01*
X0270724Y0228426D01*
X0270713Y0228595D01*
X0270707Y0228764D01*
X0270705Y0228933D01*
X0270705Y0058933D02*
X0270707Y0059102D01*
X0270713Y0059271D01*
X0270724Y0059440D01*
X0270738Y0059608D01*
X0270757Y0059776D01*
X0270780Y0059944D01*
X0270806Y0060111D01*
X0270837Y0060277D01*
X0270872Y0060443D01*
X0270911Y0060607D01*
X0270955Y0060771D01*
X0271002Y0060933D01*
X0271053Y0061094D01*
X0271108Y0061254D01*
X0271167Y0061413D01*
X0271229Y0061570D01*
X0271296Y0061725D01*
X0271367Y0061879D01*
X0271441Y0062031D01*
X0271519Y0062181D01*
X0271600Y0062329D01*
X0271685Y0062475D01*
X0271774Y0062619D01*
X0271866Y0062761D01*
X0271962Y0062900D01*
X0272061Y0063037D01*
X0272163Y0063172D01*
X0272269Y0063304D01*
X0272378Y0063433D01*
X0272490Y0063560D01*
X0272605Y0063684D01*
X0272723Y0063805D01*
X0272844Y0063923D01*
X0272968Y0064038D01*
X0273095Y0064150D01*
X0273224Y0064259D01*
X0273356Y0064365D01*
X0273491Y0064467D01*
X0273628Y0064566D01*
X0273767Y0064662D01*
X0273909Y0064754D01*
X0274053Y0064843D01*
X0274199Y0064928D01*
X0274347Y0065009D01*
X0274497Y0065087D01*
X0274649Y0065161D01*
X0274803Y0065232D01*
X0274958Y0065299D01*
X0275115Y0065361D01*
X0275274Y0065420D01*
X0275434Y0065475D01*
X0275595Y0065526D01*
X0275757Y0065573D01*
X0275921Y0065617D01*
X0276085Y0065656D01*
X0276251Y0065691D01*
X0276417Y0065722D01*
X0276584Y0065748D01*
X0276752Y0065771D01*
X0276920Y0065790D01*
X0277088Y0065804D01*
X0277257Y0065815D01*
X0277426Y0065821D01*
X0277595Y0065823D01*
X0277764Y0065821D01*
X0277933Y0065815D01*
X0278102Y0065804D01*
X0278270Y0065790D01*
X0278438Y0065771D01*
X0278606Y0065748D01*
X0278773Y0065722D01*
X0278939Y0065691D01*
X0279105Y0065656D01*
X0279269Y0065617D01*
X0279433Y0065573D01*
X0279595Y0065526D01*
X0279756Y0065475D01*
X0279916Y0065420D01*
X0280075Y0065361D01*
X0280232Y0065299D01*
X0280387Y0065232D01*
X0280541Y0065161D01*
X0280693Y0065087D01*
X0280843Y0065009D01*
X0280991Y0064928D01*
X0281137Y0064843D01*
X0281281Y0064754D01*
X0281423Y0064662D01*
X0281562Y0064566D01*
X0281699Y0064467D01*
X0281834Y0064365D01*
X0281966Y0064259D01*
X0282095Y0064150D01*
X0282222Y0064038D01*
X0282346Y0063923D01*
X0282467Y0063805D01*
X0282585Y0063684D01*
X0282700Y0063560D01*
X0282812Y0063433D01*
X0282921Y0063304D01*
X0283027Y0063172D01*
X0283129Y0063037D01*
X0283228Y0062900D01*
X0283324Y0062761D01*
X0283416Y0062619D01*
X0283505Y0062475D01*
X0283590Y0062329D01*
X0283671Y0062181D01*
X0283749Y0062031D01*
X0283823Y0061879D01*
X0283894Y0061725D01*
X0283961Y0061570D01*
X0284023Y0061413D01*
X0284082Y0061254D01*
X0284137Y0061094D01*
X0284188Y0060933D01*
X0284235Y0060771D01*
X0284279Y0060607D01*
X0284318Y0060443D01*
X0284353Y0060277D01*
X0284384Y0060111D01*
X0284410Y0059944D01*
X0284433Y0059776D01*
X0284452Y0059608D01*
X0284466Y0059440D01*
X0284477Y0059271D01*
X0284483Y0059102D01*
X0284485Y0058933D01*
X0284483Y0058764D01*
X0284477Y0058595D01*
X0284466Y0058426D01*
X0284452Y0058258D01*
X0284433Y0058090D01*
X0284410Y0057922D01*
X0284384Y0057755D01*
X0284353Y0057589D01*
X0284318Y0057423D01*
X0284279Y0057259D01*
X0284235Y0057095D01*
X0284188Y0056933D01*
X0284137Y0056772D01*
X0284082Y0056612D01*
X0284023Y0056453D01*
X0283961Y0056296D01*
X0283894Y0056141D01*
X0283823Y0055987D01*
X0283749Y0055835D01*
X0283671Y0055685D01*
X0283590Y0055537D01*
X0283505Y0055391D01*
X0283416Y0055247D01*
X0283324Y0055105D01*
X0283228Y0054966D01*
X0283129Y0054829D01*
X0283027Y0054694D01*
X0282921Y0054562D01*
X0282812Y0054433D01*
X0282700Y0054306D01*
X0282585Y0054182D01*
X0282467Y0054061D01*
X0282346Y0053943D01*
X0282222Y0053828D01*
X0282095Y0053716D01*
X0281966Y0053607D01*
X0281834Y0053501D01*
X0281699Y0053399D01*
X0281562Y0053300D01*
X0281423Y0053204D01*
X0281281Y0053112D01*
X0281137Y0053023D01*
X0280991Y0052938D01*
X0280843Y0052857D01*
X0280693Y0052779D01*
X0280541Y0052705D01*
X0280387Y0052634D01*
X0280232Y0052567D01*
X0280075Y0052505D01*
X0279916Y0052446D01*
X0279756Y0052391D01*
X0279595Y0052340D01*
X0279433Y0052293D01*
X0279269Y0052249D01*
X0279105Y0052210D01*
X0278939Y0052175D01*
X0278773Y0052144D01*
X0278606Y0052118D01*
X0278438Y0052095D01*
X0278270Y0052076D01*
X0278102Y0052062D01*
X0277933Y0052051D01*
X0277764Y0052045D01*
X0277595Y0052043D01*
X0277426Y0052045D01*
X0277257Y0052051D01*
X0277088Y0052062D01*
X0276920Y0052076D01*
X0276752Y0052095D01*
X0276584Y0052118D01*
X0276417Y0052144D01*
X0276251Y0052175D01*
X0276085Y0052210D01*
X0275921Y0052249D01*
X0275757Y0052293D01*
X0275595Y0052340D01*
X0275434Y0052391D01*
X0275274Y0052446D01*
X0275115Y0052505D01*
X0274958Y0052567D01*
X0274803Y0052634D01*
X0274649Y0052705D01*
X0274497Y0052779D01*
X0274347Y0052857D01*
X0274199Y0052938D01*
X0274053Y0053023D01*
X0273909Y0053112D01*
X0273767Y0053204D01*
X0273628Y0053300D01*
X0273491Y0053399D01*
X0273356Y0053501D01*
X0273224Y0053607D01*
X0273095Y0053716D01*
X0272968Y0053828D01*
X0272844Y0053943D01*
X0272723Y0054061D01*
X0272605Y0054182D01*
X0272490Y0054306D01*
X0272378Y0054433D01*
X0272269Y0054562D01*
X0272163Y0054694D01*
X0272061Y0054829D01*
X0271962Y0054966D01*
X0271866Y0055105D01*
X0271774Y0055247D01*
X0271685Y0055391D01*
X0271600Y0055537D01*
X0271519Y0055685D01*
X0271441Y0055835D01*
X0271367Y0055987D01*
X0271296Y0056141D01*
X0271229Y0056296D01*
X0271167Y0056453D01*
X0271108Y0056612D01*
X0271053Y0056772D01*
X0271002Y0056933D01*
X0270955Y0057095D01*
X0270911Y0057259D01*
X0270872Y0057423D01*
X0270837Y0057589D01*
X0270806Y0057755D01*
X0270780Y0057922D01*
X0270757Y0058090D01*
X0270738Y0058258D01*
X0270724Y0058426D01*
X0270713Y0058595D01*
X0270707Y0058764D01*
X0270705Y0058933D01*
D11*
X0217595Y0171433D02*
X0117595Y0171433D01*
X0165095Y0195183D02*
X0167595Y0191433D01*
X0170095Y0195183D01*
X0165095Y0195183D01*
X0165239Y0194967D02*
X0169951Y0194967D01*
X0169619Y0194469D02*
X0165571Y0194469D01*
X0165904Y0193970D02*
X0169286Y0193970D01*
X0168954Y0193472D02*
X0166236Y0193472D01*
X0166568Y0192973D02*
X0168622Y0192973D01*
X0168289Y0192475D02*
X0166901Y0192475D01*
X0167233Y0191976D02*
X0167957Y0191976D01*
X0167625Y0191478D02*
X0167565Y0191478D01*
D12*
X0220095Y0203933D03*
D13*
X0104497Y0194735D02*
X0104096Y0195135D01*
X0103295Y0195135D01*
X0102895Y0194735D01*
X0101734Y0194735D02*
X0101334Y0195135D01*
X0100133Y0195135D01*
X0100133Y0192733D01*
X0101334Y0192733D01*
X0101734Y0193133D01*
X0101734Y0194735D01*
X0102895Y0192733D02*
X0104497Y0194334D01*
X0104497Y0194735D01*
X0104497Y0192733D02*
X0102895Y0192733D01*
X0090878Y0192733D02*
X0089276Y0192733D01*
X0090077Y0192733D02*
X0090077Y0195135D01*
X0089276Y0194334D01*
X0088115Y0192733D02*
X0086514Y0192733D01*
X0087315Y0192733D02*
X0087315Y0195135D01*
X0086514Y0194334D01*
X0085353Y0193934D02*
X0085353Y0194735D01*
X0084953Y0195135D01*
X0083752Y0195135D01*
X0083752Y0192733D01*
X0083752Y0193534D02*
X0084953Y0193534D01*
X0085353Y0193934D01*
X0084552Y0193534D02*
X0085353Y0192733D01*
M02*
