G75*
%MOIN*%
%OFA0B0*%
%FSLAX25Y25*%
%IPPOS*%
%LPD*%
%AMOC8*
5,1,8,0,0,1.08239X$1,22.5*
%
%ADD10C,0.08200*%
%ADD11C,0.06000*%
%ADD12R,0.06312X0.05524*%
%ADD13R,0.07887X0.07099*%
%ADD14C,0.13792*%
%ADD15C,0.03778*%
D10*
X0114795Y0105033D03*
X0114795Y0122833D03*
X0140395Y0122833D03*
X0154795Y0122833D03*
X0154795Y0135033D03*
X0154795Y0152833D03*
X0180395Y0152833D03*
X0180395Y0135033D03*
X0180395Y0122833D03*
X0194795Y0122833D03*
X0194795Y0105033D03*
X0180395Y0105033D03*
X0180395Y0092833D03*
X0180395Y0075033D03*
X0154795Y0075033D03*
X0154795Y0092833D03*
X0154795Y0105033D03*
X0140395Y0105033D03*
X0062595Y0123933D03*
X0052595Y0123933D03*
X0052595Y0133933D03*
X0062595Y0133933D03*
X0062595Y0143933D03*
X0052595Y0143933D03*
X0052595Y0153933D03*
X0062595Y0153933D03*
X0062595Y0163933D03*
X0052595Y0163933D03*
X0220395Y0122833D03*
X0220395Y0105033D03*
X0272595Y0123933D03*
X0282595Y0123933D03*
X0282595Y0133933D03*
X0272595Y0133933D03*
X0272595Y0143933D03*
X0282595Y0143933D03*
X0282595Y0153933D03*
X0272595Y0153933D03*
X0272595Y0163933D03*
X0282595Y0163933D03*
D11*
X0212595Y0176333D02*
X0212595Y0181533D01*
X0202595Y0181533D02*
X0202595Y0176333D01*
X0192595Y0176333D02*
X0192595Y0181533D01*
X0182595Y0181533D02*
X0182595Y0176333D01*
X0172595Y0176333D02*
X0172595Y0181533D01*
X0162595Y0181533D02*
X0162595Y0176333D01*
X0152595Y0176333D02*
X0152595Y0181533D01*
X0142595Y0181533D02*
X0142595Y0176333D01*
X0132595Y0176333D02*
X0132595Y0181533D01*
X0122595Y0181533D02*
X0122595Y0176333D01*
X0122595Y0206333D02*
X0122595Y0211533D01*
X0132595Y0211533D02*
X0132595Y0206333D01*
X0142595Y0206333D02*
X0142595Y0211533D01*
X0152595Y0211533D02*
X0152595Y0206333D01*
X0162595Y0206333D02*
X0162595Y0211533D01*
X0172595Y0211533D02*
X0172595Y0206333D01*
X0182595Y0206333D02*
X0182595Y0211533D01*
X0192595Y0211533D02*
X0192595Y0206333D01*
X0202595Y0206333D02*
X0202595Y0211533D01*
X0212595Y0211533D02*
X0212595Y0206333D01*
D12*
X0102595Y0199839D03*
X0102595Y0188028D03*
D13*
X0087595Y0188421D03*
X0087595Y0199445D03*
D14*
X0057595Y0058933D03*
X0057595Y0228933D03*
X0277595Y0228933D03*
X0277595Y0058933D03*
D15*
X0262595Y0133933D03*
X0257595Y0143933D03*
X0207595Y0243933D03*
X0202595Y0243933D03*
M02*
