G75*
%MOIN*%
%OFA0B0*%
%FSLAX25Y25*%
%IPPOS*%
%LPD*%
%AMOC8*
5,1,8,0,0,1.08239X$1,22.5*
%
%ADD10C,0.07400*%
%ADD11C,0.05200*%
%ADD12R,0.07087X0.06299*%
%ADD13C,0.01000*%
%ADD14C,0.02978*%
D10*
X0114795Y0105033D03*
X0114795Y0122833D03*
X0140395Y0122833D03*
X0154795Y0122833D03*
X0154795Y0135033D03*
X0154795Y0152833D03*
X0180395Y0152833D03*
X0180395Y0135033D03*
X0180395Y0122833D03*
X0194795Y0122833D03*
X0194795Y0105033D03*
X0180395Y0105033D03*
X0180395Y0092833D03*
X0180395Y0075033D03*
X0154795Y0075033D03*
X0154795Y0092833D03*
X0154795Y0105033D03*
X0140395Y0105033D03*
X0062595Y0123933D03*
X0052595Y0123933D03*
X0052595Y0133933D03*
X0062595Y0133933D03*
X0062595Y0143933D03*
X0052595Y0143933D03*
X0052595Y0153933D03*
X0062595Y0153933D03*
X0062595Y0163933D03*
X0052595Y0163933D03*
X0220395Y0122833D03*
X0220395Y0105033D03*
X0272595Y0123933D03*
X0282595Y0123933D03*
X0282595Y0133933D03*
X0272595Y0133933D03*
X0272595Y0143933D03*
X0282595Y0143933D03*
X0282595Y0153933D03*
X0272595Y0153933D03*
X0272595Y0163933D03*
X0282595Y0163933D03*
D11*
X0212595Y0176333D02*
X0212595Y0181533D01*
X0202595Y0181533D02*
X0202595Y0176333D01*
X0192595Y0176333D02*
X0192595Y0181533D01*
X0182595Y0181533D02*
X0182595Y0176333D01*
X0172595Y0176333D02*
X0172595Y0181533D01*
X0162595Y0181533D02*
X0162595Y0176333D01*
X0152595Y0176333D02*
X0152595Y0181533D01*
X0142595Y0181533D02*
X0142595Y0176333D01*
X0132595Y0176333D02*
X0132595Y0181533D01*
X0122595Y0181533D02*
X0122595Y0176333D01*
X0122595Y0206333D02*
X0122595Y0211533D01*
X0132595Y0211533D02*
X0132595Y0206333D01*
X0142595Y0206333D02*
X0142595Y0211533D01*
X0152595Y0211533D02*
X0152595Y0206333D01*
X0162595Y0206333D02*
X0162595Y0211533D01*
X0172595Y0211533D02*
X0172595Y0206333D01*
X0182595Y0206333D02*
X0182595Y0211533D01*
X0192595Y0211533D02*
X0192595Y0206333D01*
X0202595Y0206333D02*
X0202595Y0211533D01*
X0212595Y0211533D02*
X0212595Y0206333D01*
D12*
X0212595Y0223421D03*
X0202595Y0223421D03*
X0192595Y0223421D03*
X0182595Y0223421D03*
X0172595Y0223421D03*
X0162595Y0223421D03*
X0152595Y0223421D03*
X0142595Y0223421D03*
X0132595Y0223421D03*
X0122595Y0223421D03*
X0122595Y0234445D03*
X0132595Y0234445D03*
X0142595Y0234445D03*
X0152595Y0234445D03*
X0162595Y0234445D03*
X0172595Y0234445D03*
X0182595Y0234445D03*
X0192595Y0234445D03*
X0202595Y0234445D03*
X0212595Y0234445D03*
D13*
X0283563Y0041929D02*
X0050077Y0041929D01*
X0051419Y0041282D02*
X0047646Y0043099D01*
X0044372Y0045710D01*
X0041761Y0048984D01*
X0039945Y0052757D01*
X0039013Y0056839D01*
X0038895Y0058933D01*
X0038895Y0228933D01*
X0039013Y0231027D01*
X0039945Y0235109D01*
X0041761Y0238882D01*
X0044372Y0242156D01*
X0047646Y0244767D01*
X0051419Y0246584D01*
X0055501Y0247515D01*
X0057595Y0247633D01*
X0277595Y0247633D01*
X0279689Y0247515D01*
X0283771Y0246584D01*
X0287544Y0244767D01*
X0290818Y0242156D01*
X0293429Y0238882D01*
X0295246Y0235109D01*
X0296178Y0231027D01*
X0296295Y0228933D01*
X0296295Y0064389D01*
X0296244Y0064325D01*
X0296295Y0063861D01*
X0296295Y0063395D01*
X0296326Y0063363D01*
X0296434Y0061400D01*
X0295891Y0056653D01*
X0294306Y0052145D01*
X0291758Y0048103D01*
X0288374Y0044729D01*
X0284324Y0042194D01*
X0279811Y0040622D01*
X0277499Y0040233D01*
X0057595Y0040233D01*
X0055501Y0040351D01*
X0051419Y0041282D01*
X0052963Y0040930D02*
X0280695Y0040930D01*
X0280791Y0042927D02*
X0285495Y0042927D01*
X0284233Y0043926D02*
X0287090Y0043926D01*
X0285962Y0044924D02*
X0288569Y0044924D01*
X0287883Y0046033D02*
X0287883Y0046033D01*
X0291228Y0049638D01*
X0293362Y0054070D01*
X0294095Y0058933D01*
X0294095Y0058933D01*
X0293362Y0063797D01*
X0291228Y0068228D01*
X0287883Y0071833D01*
X0287883Y0071833D01*
X0283623Y0074292D01*
X0278828Y0075387D01*
X0273924Y0075019D01*
X0273924Y0075019D01*
X0269345Y0073222D01*
X0265500Y0070156D01*
X0262729Y0066092D01*
X0261279Y0061392D01*
X0261279Y0056474D01*
X0262729Y0051774D01*
X0265500Y0047710D01*
X0269345Y0044644D01*
X0269345Y0044644D01*
X0273924Y0042847D01*
X0278828Y0042479D01*
X0283623Y0043574D01*
X0287883Y0046033D01*
X0287883Y0046033D01*
X0287692Y0045923D02*
X0289571Y0045923D01*
X0288707Y0046921D02*
X0290572Y0046921D01*
X0289633Y0047920D02*
X0291574Y0047920D01*
X0292272Y0048918D02*
X0290560Y0048918D01*
X0291362Y0049917D02*
X0292901Y0049917D01*
X0293531Y0050915D02*
X0291843Y0050915D01*
X0292324Y0051914D02*
X0294160Y0051914D01*
X0294576Y0052912D02*
X0292805Y0052912D01*
X0293286Y0053911D02*
X0294927Y0053911D01*
X0295278Y0054909D02*
X0293489Y0054909D01*
X0293639Y0055908D02*
X0295629Y0055908D01*
X0295920Y0056906D02*
X0293790Y0056906D01*
X0293940Y0057905D02*
X0296034Y0057905D01*
X0296148Y0058903D02*
X0294091Y0058903D01*
X0293949Y0059902D02*
X0296262Y0059902D01*
X0296376Y0060900D02*
X0293799Y0060900D01*
X0293648Y0061899D02*
X0296406Y0061899D01*
X0296352Y0062897D02*
X0293498Y0062897D01*
X0293362Y0063797D02*
X0293362Y0063797D01*
X0293314Y0063896D02*
X0296291Y0063896D01*
X0296295Y0064894D02*
X0292833Y0064894D01*
X0292353Y0065893D02*
X0296295Y0065893D01*
X0296295Y0066891D02*
X0291872Y0066891D01*
X0291391Y0067890D02*
X0296295Y0067890D01*
X0296295Y0068888D02*
X0290615Y0068888D01*
X0291228Y0068228D02*
X0291228Y0068228D01*
X0289689Y0069887D02*
X0296295Y0069887D01*
X0296295Y0070885D02*
X0288762Y0070885D01*
X0287795Y0071884D02*
X0296295Y0071884D01*
X0296295Y0072882D02*
X0286065Y0072882D01*
X0284336Y0073881D02*
X0296295Y0073881D01*
X0296295Y0074879D02*
X0281051Y0074879D01*
X0278828Y0075387D02*
X0278828Y0075387D01*
X0273567Y0074879D02*
X0185195Y0074879D01*
X0185195Y0074078D02*
X0184464Y0072314D01*
X0183114Y0070964D01*
X0181350Y0070233D01*
X0179440Y0070233D01*
X0177676Y0070964D01*
X0176326Y0072314D01*
X0175595Y0074078D01*
X0175595Y0075988D01*
X0176326Y0077752D01*
X0177676Y0079102D01*
X0179440Y0079833D01*
X0181350Y0079833D01*
X0183114Y0079102D01*
X0184464Y0077752D01*
X0185195Y0075988D01*
X0185195Y0074078D01*
X0185113Y0073881D02*
X0271023Y0073881D01*
X0269345Y0073222D02*
X0269345Y0073222D01*
X0268919Y0072882D02*
X0184700Y0072882D01*
X0184034Y0071884D02*
X0267667Y0071884D01*
X0266415Y0070885D02*
X0182925Y0070885D01*
X0185195Y0075878D02*
X0296295Y0075878D01*
X0296295Y0076877D02*
X0184827Y0076877D01*
X0184341Y0077875D02*
X0296295Y0077875D01*
X0296295Y0078874D02*
X0183343Y0078874D01*
X0177447Y0078874D02*
X0158309Y0078874D01*
X0158183Y0078999D02*
X0157521Y0079480D01*
X0156791Y0079852D01*
X0156013Y0080105D01*
X0155295Y0080219D01*
X0155295Y0075533D01*
X0154295Y0075533D01*
X0154295Y0074533D01*
X0149610Y0074533D01*
X0149723Y0073815D01*
X0149976Y0073037D01*
X0150348Y0072308D01*
X0150829Y0071645D01*
X0151408Y0071067D01*
X0152070Y0070586D01*
X0152799Y0070214D01*
X0153577Y0069961D01*
X0154295Y0069847D01*
X0154295Y0074533D01*
X0155295Y0074533D01*
X0155295Y0069847D01*
X0156013Y0069961D01*
X0156791Y0070214D01*
X0157521Y0070586D01*
X0158183Y0071067D01*
X0158761Y0071645D01*
X0159243Y0072308D01*
X0159614Y0073037D01*
X0159867Y0073815D01*
X0159981Y0074533D01*
X0155295Y0074533D01*
X0155295Y0075533D01*
X0159981Y0075533D01*
X0159867Y0076251D01*
X0159614Y0077029D01*
X0159243Y0077758D01*
X0158761Y0078421D01*
X0158183Y0078999D01*
X0159158Y0077875D02*
X0176449Y0077875D01*
X0175963Y0076877D02*
X0159664Y0076877D01*
X0159926Y0075878D02*
X0175595Y0075878D01*
X0175595Y0074879D02*
X0155295Y0074879D01*
X0155295Y0073881D02*
X0154295Y0073881D01*
X0154295Y0074879D02*
X0061051Y0074879D01*
X0058828Y0075387D02*
X0063623Y0074292D01*
X0063623Y0074292D01*
X0067883Y0071833D01*
X0067883Y0071833D01*
X0071228Y0068228D01*
X0071228Y0068228D01*
X0073362Y0063797D01*
X0073362Y0063797D01*
X0074095Y0058933D01*
X0073362Y0054070D01*
X0073362Y0054070D01*
X0071228Y0049638D01*
X0071228Y0049638D01*
X0067883Y0046033D01*
X0067883Y0046033D01*
X0063623Y0043574D01*
X0063623Y0043574D01*
X0058828Y0042479D01*
X0058828Y0042479D01*
X0053924Y0042847D01*
X0053924Y0042847D01*
X0049345Y0044644D01*
X0049345Y0044644D01*
X0045500Y0047710D01*
X0045500Y0047710D01*
X0045500Y0047710D01*
X0042729Y0051774D01*
X0042729Y0051774D01*
X0041279Y0056474D01*
X0041279Y0061392D01*
X0042729Y0066092D01*
X0042729Y0066092D01*
X0045500Y0070156D01*
X0045500Y0070156D01*
X0049345Y0073222D01*
X0049345Y0073222D01*
X0053924Y0075019D01*
X0053924Y0075019D01*
X0058828Y0075387D01*
X0058828Y0075387D01*
X0053567Y0074879D02*
X0038895Y0074879D01*
X0038895Y0073881D02*
X0051023Y0073881D01*
X0048919Y0072882D02*
X0038895Y0072882D01*
X0038895Y0071884D02*
X0047667Y0071884D01*
X0046415Y0070885D02*
X0038895Y0070885D01*
X0038895Y0069887D02*
X0045316Y0069887D01*
X0045500Y0070156D02*
X0045500Y0070156D01*
X0044636Y0068888D02*
X0038895Y0068888D01*
X0038895Y0067890D02*
X0043955Y0067890D01*
X0043274Y0066891D02*
X0038895Y0066891D01*
X0038895Y0065893D02*
X0042668Y0065893D01*
X0042360Y0064894D02*
X0038895Y0064894D01*
X0038895Y0063896D02*
X0042052Y0063896D01*
X0041744Y0062897D02*
X0038895Y0062897D01*
X0038895Y0061899D02*
X0041436Y0061899D01*
X0041279Y0060900D02*
X0038895Y0060900D01*
X0038895Y0059902D02*
X0041279Y0059902D01*
X0041279Y0058903D02*
X0038897Y0058903D01*
X0038953Y0057905D02*
X0041279Y0057905D01*
X0041279Y0056906D02*
X0039009Y0056906D01*
X0039225Y0055908D02*
X0041454Y0055908D01*
X0041762Y0054909D02*
X0039453Y0054909D01*
X0039681Y0053911D02*
X0042070Y0053911D01*
X0042378Y0052912D02*
X0039909Y0052912D01*
X0040351Y0051914D02*
X0042686Y0051914D01*
X0043315Y0050915D02*
X0040831Y0050915D01*
X0041312Y0049917D02*
X0043995Y0049917D01*
X0044676Y0048918D02*
X0041814Y0048918D01*
X0042610Y0047920D02*
X0045357Y0047920D01*
X0046489Y0046921D02*
X0043407Y0046921D01*
X0044203Y0045923D02*
X0047741Y0045923D01*
X0048993Y0044924D02*
X0045358Y0044924D01*
X0046610Y0043926D02*
X0051175Y0043926D01*
X0053719Y0042927D02*
X0048004Y0042927D01*
X0060791Y0042927D02*
X0273719Y0042927D01*
X0273924Y0042847D02*
X0273924Y0042847D01*
X0271175Y0043926D02*
X0064233Y0043926D01*
X0065962Y0044924D02*
X0268993Y0044924D01*
X0267741Y0045923D02*
X0067692Y0045923D01*
X0068707Y0046921D02*
X0266489Y0046921D01*
X0265500Y0047710D02*
X0265500Y0047710D01*
X0265500Y0047710D01*
X0265357Y0047920D02*
X0069633Y0047920D01*
X0070560Y0048918D02*
X0264676Y0048918D01*
X0263995Y0049917D02*
X0071362Y0049917D01*
X0071843Y0050915D02*
X0263315Y0050915D01*
X0262729Y0051774D02*
X0262729Y0051774D01*
X0262686Y0051914D02*
X0072324Y0051914D01*
X0072805Y0052912D02*
X0262378Y0052912D01*
X0262070Y0053911D02*
X0073286Y0053911D01*
X0073489Y0054909D02*
X0261762Y0054909D01*
X0261454Y0055908D02*
X0073639Y0055908D01*
X0073790Y0056906D02*
X0261279Y0056906D01*
X0261279Y0057905D02*
X0073940Y0057905D01*
X0074091Y0058903D02*
X0261279Y0058903D01*
X0261279Y0059902D02*
X0073949Y0059902D01*
X0073799Y0060900D02*
X0261279Y0060900D01*
X0261436Y0061899D02*
X0073648Y0061899D01*
X0073498Y0062897D02*
X0261744Y0062897D01*
X0262052Y0063896D02*
X0073314Y0063896D01*
X0072833Y0064894D02*
X0262360Y0064894D01*
X0262668Y0065893D02*
X0072353Y0065893D01*
X0071872Y0066891D02*
X0263274Y0066891D01*
X0262729Y0066092D02*
X0262729Y0066092D01*
X0263955Y0067890D02*
X0071391Y0067890D01*
X0070615Y0068888D02*
X0264636Y0068888D01*
X0265316Y0069887D02*
X0155544Y0069887D01*
X0155295Y0069887D02*
X0154295Y0069887D01*
X0154046Y0069887D02*
X0069689Y0069887D01*
X0068762Y0070885D02*
X0151657Y0070885D01*
X0150656Y0071884D02*
X0067795Y0071884D01*
X0066065Y0072882D02*
X0150055Y0072882D01*
X0149713Y0073881D02*
X0064336Y0073881D01*
X0038895Y0075878D02*
X0149664Y0075878D01*
X0149610Y0075533D02*
X0154295Y0075533D01*
X0154295Y0080219D01*
X0153577Y0080105D01*
X0152799Y0079852D01*
X0152070Y0079480D01*
X0151408Y0078999D01*
X0150829Y0078421D01*
X0150348Y0077758D01*
X0149976Y0077029D01*
X0149723Y0076251D01*
X0149610Y0075533D01*
X0149927Y0076877D02*
X0038895Y0076877D01*
X0038895Y0077875D02*
X0150432Y0077875D01*
X0151282Y0078874D02*
X0038895Y0078874D01*
X0038895Y0079872D02*
X0152860Y0079872D01*
X0154295Y0079872D02*
X0155295Y0079872D01*
X0155295Y0078874D02*
X0154295Y0078874D01*
X0154295Y0077875D02*
X0155295Y0077875D01*
X0155295Y0076877D02*
X0154295Y0076877D01*
X0154295Y0075878D02*
X0155295Y0075878D01*
X0155295Y0072882D02*
X0154295Y0072882D01*
X0154295Y0071884D02*
X0155295Y0071884D01*
X0155295Y0070885D02*
X0154295Y0070885D01*
X0157933Y0070885D02*
X0177865Y0070885D01*
X0176756Y0071884D02*
X0158935Y0071884D01*
X0159535Y0072882D02*
X0176090Y0072882D01*
X0175677Y0073881D02*
X0159877Y0073881D01*
X0156730Y0079872D02*
X0296295Y0079872D01*
X0296295Y0080871D02*
X0038895Y0080871D01*
X0038895Y0081869D02*
X0296295Y0081869D01*
X0296295Y0082868D02*
X0038895Y0082868D01*
X0038895Y0083866D02*
X0296295Y0083866D01*
X0296295Y0084865D02*
X0038895Y0084865D01*
X0038895Y0085863D02*
X0296295Y0085863D01*
X0296295Y0086862D02*
X0038895Y0086862D01*
X0038895Y0087860D02*
X0296295Y0087860D01*
X0296295Y0088859D02*
X0183209Y0088859D01*
X0183114Y0088764D02*
X0184464Y0090114D01*
X0185195Y0091878D01*
X0185195Y0093788D01*
X0184464Y0095552D01*
X0183114Y0096902D01*
X0181350Y0097633D01*
X0179440Y0097633D01*
X0177676Y0096902D01*
X0176326Y0095552D01*
X0175595Y0093788D01*
X0175595Y0091878D01*
X0176326Y0090114D01*
X0177676Y0088764D01*
X0179440Y0088033D01*
X0181350Y0088033D01*
X0183114Y0088764D01*
X0184207Y0089857D02*
X0296295Y0089857D01*
X0296295Y0090856D02*
X0184772Y0090856D01*
X0185185Y0091854D02*
X0296295Y0091854D01*
X0296295Y0092853D02*
X0185195Y0092853D01*
X0185169Y0093851D02*
X0296295Y0093851D01*
X0296295Y0094850D02*
X0184755Y0094850D01*
X0184168Y0095848D02*
X0296295Y0095848D01*
X0296295Y0096847D02*
X0183170Y0096847D01*
X0181350Y0100233D02*
X0183114Y0100964D01*
X0184464Y0102314D01*
X0185195Y0104078D01*
X0185195Y0105988D01*
X0184464Y0107752D01*
X0183114Y0109102D01*
X0181350Y0109833D01*
X0179440Y0109833D01*
X0177676Y0109102D01*
X0176326Y0107752D01*
X0175595Y0105988D01*
X0175595Y0104078D01*
X0176326Y0102314D01*
X0177676Y0100964D01*
X0179440Y0100233D01*
X0181350Y0100233D01*
X0182817Y0100841D02*
X0191719Y0100841D01*
X0191408Y0101067D02*
X0192070Y0100586D01*
X0192799Y0100214D01*
X0193577Y0099961D01*
X0194295Y0099847D01*
X0194295Y0104533D01*
X0189610Y0104533D01*
X0189723Y0103815D01*
X0189976Y0103037D01*
X0190348Y0102308D01*
X0190829Y0101645D01*
X0191408Y0101067D01*
X0190688Y0101839D02*
X0183990Y0101839D01*
X0184681Y0102838D02*
X0190078Y0102838D01*
X0189720Y0103836D02*
X0185095Y0103836D01*
X0185195Y0104835D02*
X0194295Y0104835D01*
X0194295Y0104533D02*
X0194295Y0105533D01*
X0189610Y0105533D01*
X0189723Y0106251D01*
X0189976Y0107029D01*
X0190348Y0107758D01*
X0190829Y0108421D01*
X0191408Y0108999D01*
X0192070Y0109480D01*
X0192799Y0109852D01*
X0193577Y0110105D01*
X0194295Y0110219D01*
X0194295Y0105533D01*
X0195295Y0105533D01*
X0195295Y0110219D01*
X0196013Y0110105D01*
X0196791Y0109852D01*
X0197521Y0109480D01*
X0198183Y0108999D01*
X0198761Y0108421D01*
X0199243Y0107758D01*
X0199614Y0107029D01*
X0199867Y0106251D01*
X0199981Y0105533D01*
X0195295Y0105533D01*
X0195295Y0104533D01*
X0195295Y0099847D01*
X0196013Y0099961D01*
X0196791Y0100214D01*
X0197521Y0100586D01*
X0198183Y0101067D01*
X0198761Y0101645D01*
X0199243Y0102308D01*
X0199614Y0103037D01*
X0199867Y0103815D01*
X0199981Y0104533D01*
X0195295Y0104533D01*
X0194295Y0104533D01*
X0194295Y0103836D02*
X0195295Y0103836D01*
X0195295Y0102838D02*
X0194295Y0102838D01*
X0194295Y0101839D02*
X0195295Y0101839D01*
X0195295Y0100841D02*
X0194295Y0100841D01*
X0197872Y0100841D02*
X0217973Y0100841D01*
X0217676Y0100964D02*
X0219440Y0100233D01*
X0221350Y0100233D01*
X0223114Y0100964D01*
X0224464Y0102314D01*
X0225195Y0104078D01*
X0225195Y0105988D01*
X0224464Y0107752D01*
X0223114Y0109102D01*
X0221350Y0109833D01*
X0219440Y0109833D01*
X0217676Y0109102D01*
X0216326Y0107752D01*
X0215595Y0105988D01*
X0215595Y0104078D01*
X0216326Y0102314D01*
X0217676Y0100964D01*
X0216801Y0101839D02*
X0198902Y0101839D01*
X0199513Y0102838D02*
X0216109Y0102838D01*
X0215695Y0103836D02*
X0199870Y0103836D01*
X0199933Y0105833D02*
X0215595Y0105833D01*
X0215595Y0104835D02*
X0195295Y0104835D01*
X0195295Y0105833D02*
X0194295Y0105833D01*
X0194295Y0106832D02*
X0195295Y0106832D01*
X0195295Y0107830D02*
X0194295Y0107830D01*
X0194295Y0108829D02*
X0195295Y0108829D01*
X0195295Y0109827D02*
X0194295Y0109827D01*
X0192751Y0109827D02*
X0181364Y0109827D01*
X0179427Y0109827D02*
X0156840Y0109827D01*
X0156791Y0109852D02*
X0156013Y0110105D01*
X0155295Y0110219D01*
X0155295Y0105533D01*
X0154295Y0105533D01*
X0154295Y0104533D01*
X0149610Y0104533D01*
X0149723Y0103815D01*
X0149976Y0103037D01*
X0150348Y0102308D01*
X0150829Y0101645D01*
X0151408Y0101067D01*
X0152070Y0100586D01*
X0152799Y0100214D01*
X0153577Y0099961D01*
X0154295Y0099847D01*
X0154295Y0104533D01*
X0155295Y0104533D01*
X0155295Y0099847D01*
X0156013Y0099961D01*
X0156791Y0100214D01*
X0157521Y0100586D01*
X0158183Y0101067D01*
X0158761Y0101645D01*
X0159243Y0102308D01*
X0159614Y0103037D01*
X0159867Y0103815D01*
X0159981Y0104533D01*
X0155295Y0104533D01*
X0155295Y0105533D01*
X0159981Y0105533D01*
X0159867Y0106251D01*
X0159614Y0107029D01*
X0159243Y0107758D01*
X0158761Y0108421D01*
X0158183Y0108999D01*
X0157521Y0109480D01*
X0156791Y0109852D01*
X0155295Y0109827D02*
X0154295Y0109827D01*
X0154295Y0110219D02*
X0153577Y0110105D01*
X0152799Y0109852D01*
X0152070Y0109480D01*
X0151408Y0108999D01*
X0150829Y0108421D01*
X0150348Y0107758D01*
X0149976Y0107029D01*
X0149723Y0106251D01*
X0149610Y0105533D01*
X0154295Y0105533D01*
X0154295Y0110219D01*
X0154295Y0108829D02*
X0155295Y0108829D01*
X0155295Y0107830D02*
X0154295Y0107830D01*
X0154295Y0106832D02*
X0155295Y0106832D01*
X0155295Y0105833D02*
X0154295Y0105833D01*
X0154295Y0104835D02*
X0145195Y0104835D01*
X0145195Y0104078D02*
X0145195Y0105988D01*
X0144464Y0107752D01*
X0143114Y0109102D01*
X0141350Y0109833D01*
X0139440Y0109833D01*
X0137676Y0109102D01*
X0136326Y0107752D01*
X0135595Y0105988D01*
X0135595Y0104078D01*
X0136326Y0102314D01*
X0137676Y0100964D01*
X0139440Y0100233D01*
X0141350Y0100233D01*
X0143114Y0100964D01*
X0144464Y0102314D01*
X0145195Y0104078D01*
X0145095Y0103836D02*
X0149720Y0103836D01*
X0150078Y0102838D02*
X0144681Y0102838D01*
X0143990Y0101839D02*
X0150688Y0101839D01*
X0151719Y0100841D02*
X0142817Y0100841D01*
X0137973Y0100841D02*
X0117872Y0100841D01*
X0118183Y0101067D02*
X0118761Y0101645D01*
X0119243Y0102308D01*
X0119614Y0103037D01*
X0119867Y0103815D01*
X0119981Y0104533D01*
X0115295Y0104533D01*
X0115295Y0099847D01*
X0116013Y0099961D01*
X0116791Y0100214D01*
X0117521Y0100586D01*
X0118183Y0101067D01*
X0118902Y0101839D02*
X0136801Y0101839D01*
X0136109Y0102838D02*
X0119513Y0102838D01*
X0119870Y0103836D02*
X0135695Y0103836D01*
X0135595Y0104835D02*
X0115295Y0104835D01*
X0115295Y0104533D02*
X0115295Y0105533D01*
X0114295Y0105533D01*
X0114295Y0104533D01*
X0109610Y0104533D01*
X0109723Y0103815D01*
X0109976Y0103037D01*
X0110348Y0102308D01*
X0110829Y0101645D01*
X0111408Y0101067D01*
X0112070Y0100586D01*
X0112799Y0100214D01*
X0113577Y0099961D01*
X0114295Y0099847D01*
X0114295Y0104533D01*
X0115295Y0104533D01*
X0115295Y0103836D02*
X0114295Y0103836D01*
X0114295Y0102838D02*
X0115295Y0102838D01*
X0115295Y0101839D02*
X0114295Y0101839D01*
X0114295Y0100841D02*
X0115295Y0100841D01*
X0111719Y0100841D02*
X0038895Y0100841D01*
X0038895Y0101839D02*
X0110688Y0101839D01*
X0110078Y0102838D02*
X0038895Y0102838D01*
X0038895Y0103836D02*
X0109720Y0103836D01*
X0109610Y0105533D02*
X0114295Y0105533D01*
X0114295Y0110219D01*
X0113577Y0110105D01*
X0112799Y0109852D01*
X0112070Y0109480D01*
X0111408Y0108999D01*
X0110829Y0108421D01*
X0110348Y0107758D01*
X0109976Y0107029D01*
X0109723Y0106251D01*
X0109610Y0105533D01*
X0109657Y0105833D02*
X0038895Y0105833D01*
X0038895Y0104835D02*
X0114295Y0104835D01*
X0114295Y0105833D02*
X0115295Y0105833D01*
X0115295Y0105533D02*
X0115295Y0110219D01*
X0116013Y0110105D01*
X0116791Y0109852D01*
X0117521Y0109480D01*
X0118183Y0108999D01*
X0118761Y0108421D01*
X0119243Y0107758D01*
X0119614Y0107029D01*
X0119867Y0106251D01*
X0119981Y0105533D01*
X0115295Y0105533D01*
X0115295Y0106832D02*
X0114295Y0106832D01*
X0114295Y0107830D02*
X0115295Y0107830D01*
X0115295Y0108829D02*
X0114295Y0108829D01*
X0114295Y0109827D02*
X0115295Y0109827D01*
X0116840Y0109827D02*
X0139427Y0109827D01*
X0141364Y0109827D02*
X0152751Y0109827D01*
X0151237Y0108829D02*
X0143388Y0108829D01*
X0144386Y0107830D02*
X0150400Y0107830D01*
X0149912Y0106832D02*
X0144846Y0106832D01*
X0145195Y0105833D02*
X0149657Y0105833D01*
X0154295Y0103836D02*
X0155295Y0103836D01*
X0155295Y0102838D02*
X0154295Y0102838D01*
X0154295Y0101839D02*
X0155295Y0101839D01*
X0155295Y0100841D02*
X0154295Y0100841D01*
X0153840Y0097633D02*
X0152076Y0096902D01*
X0150726Y0095552D01*
X0149995Y0093788D01*
X0149995Y0091878D01*
X0150726Y0090114D01*
X0152076Y0088764D01*
X0153840Y0088033D01*
X0155750Y0088033D01*
X0157514Y0088764D01*
X0158864Y0090114D01*
X0159595Y0091878D01*
X0159595Y0093788D01*
X0158864Y0095552D01*
X0157514Y0096902D01*
X0155750Y0097633D01*
X0153840Y0097633D01*
X0152021Y0096847D02*
X0038895Y0096847D01*
X0038895Y0097845D02*
X0296295Y0097845D01*
X0296295Y0098844D02*
X0038895Y0098844D01*
X0038895Y0099842D02*
X0296295Y0099842D01*
X0296295Y0100841D02*
X0222817Y0100841D01*
X0223990Y0101839D02*
X0296295Y0101839D01*
X0296295Y0102838D02*
X0224681Y0102838D01*
X0225095Y0103836D02*
X0296295Y0103836D01*
X0296295Y0104835D02*
X0225195Y0104835D01*
X0225195Y0105833D02*
X0296295Y0105833D01*
X0296295Y0106832D02*
X0224846Y0106832D01*
X0224386Y0107830D02*
X0296295Y0107830D01*
X0296295Y0108829D02*
X0223388Y0108829D01*
X0221364Y0109827D02*
X0296295Y0109827D01*
X0296295Y0110826D02*
X0038895Y0110826D01*
X0038895Y0111824D02*
X0296295Y0111824D01*
X0296295Y0112823D02*
X0187048Y0112823D01*
X0186558Y0112333D02*
X0192721Y0118497D01*
X0193840Y0118033D01*
X0195750Y0118033D01*
X0197514Y0118764D01*
X0198864Y0120114D01*
X0199595Y0121878D01*
X0199595Y0123788D01*
X0198864Y0125552D01*
X0197514Y0126902D01*
X0195750Y0127633D01*
X0193840Y0127633D01*
X0192076Y0126902D01*
X0190726Y0125552D01*
X0189995Y0123788D01*
X0189995Y0121878D01*
X0190459Y0120759D01*
X0185232Y0115533D01*
X0113258Y0115533D01*
X0103258Y0125533D01*
X0067128Y0125533D01*
X0066664Y0126652D01*
X0065314Y0128002D01*
X0063550Y0128733D01*
X0061640Y0128733D01*
X0059876Y0128002D01*
X0058526Y0126652D01*
X0057795Y0124888D01*
X0057795Y0122978D01*
X0058526Y0121214D01*
X0059876Y0119864D01*
X0061640Y0119133D01*
X0063550Y0119133D01*
X0065314Y0119864D01*
X0066664Y0121214D01*
X0067128Y0122333D01*
X0101932Y0122333D01*
X0110995Y0113270D01*
X0111932Y0112333D01*
X0186558Y0112333D01*
X0185895Y0113933D02*
X0194795Y0122833D01*
X0189995Y0122808D02*
X0185195Y0122808D01*
X0185195Y0121878D02*
X0184464Y0120114D01*
X0183114Y0118764D01*
X0181350Y0118033D01*
X0179440Y0118033D01*
X0177676Y0118764D01*
X0176326Y0120114D01*
X0175595Y0121878D01*
X0175595Y0123788D01*
X0176326Y0125552D01*
X0177676Y0126902D01*
X0179440Y0127633D01*
X0181350Y0127633D01*
X0183114Y0126902D01*
X0184464Y0125552D01*
X0185195Y0123788D01*
X0185195Y0121878D01*
X0185167Y0121810D02*
X0190024Y0121810D01*
X0190437Y0120811D02*
X0184753Y0120811D01*
X0184163Y0119812D02*
X0189512Y0119812D01*
X0188513Y0118814D02*
X0183164Y0118814D01*
X0185518Y0115818D02*
X0112972Y0115818D01*
X0111974Y0116817D02*
X0186516Y0116817D01*
X0187515Y0117815D02*
X0110975Y0117815D01*
X0109977Y0118814D02*
X0112026Y0118814D01*
X0112076Y0118764D02*
X0113840Y0118033D01*
X0115750Y0118033D01*
X0117514Y0118764D01*
X0118864Y0120114D01*
X0119595Y0121878D01*
X0119595Y0123788D01*
X0118864Y0125552D01*
X0117514Y0126902D01*
X0115750Y0127633D01*
X0113840Y0127633D01*
X0112721Y0127170D01*
X0104358Y0135533D01*
X0067128Y0135533D01*
X0066664Y0136652D01*
X0065314Y0138002D01*
X0063550Y0138733D01*
X0061640Y0138733D01*
X0059876Y0138002D01*
X0058526Y0136652D01*
X0057795Y0134888D01*
X0057795Y0132978D01*
X0058526Y0131214D01*
X0059876Y0129864D01*
X0061640Y0129133D01*
X0063550Y0129133D01*
X0065314Y0129864D01*
X0066664Y0131214D01*
X0067128Y0132333D01*
X0103032Y0132333D01*
X0110459Y0124907D01*
X0109995Y0123788D01*
X0109995Y0121878D01*
X0110726Y0120114D01*
X0112076Y0118764D01*
X0111027Y0119812D02*
X0108978Y0119812D01*
X0107980Y0120811D02*
X0110437Y0120811D01*
X0110024Y0121810D02*
X0106981Y0121810D01*
X0105983Y0122808D02*
X0109995Y0122808D01*
X0110003Y0123807D02*
X0104984Y0123807D01*
X0103986Y0124805D02*
X0110416Y0124805D01*
X0109562Y0125804D02*
X0067016Y0125804D01*
X0066514Y0126802D02*
X0108563Y0126802D01*
X0107565Y0127801D02*
X0065516Y0127801D01*
X0065154Y0129798D02*
X0105568Y0129798D01*
X0104569Y0130796D02*
X0066246Y0130796D01*
X0066905Y0131795D02*
X0103571Y0131795D01*
X0103695Y0133933D02*
X0114795Y0122833D01*
X0119595Y0122808D02*
X0135595Y0122808D01*
X0135595Y0121878D02*
X0136326Y0120114D01*
X0137676Y0118764D01*
X0139440Y0118033D01*
X0141350Y0118033D01*
X0143114Y0118764D01*
X0144464Y0120114D01*
X0145195Y0121878D01*
X0145195Y0123788D01*
X0144464Y0125552D01*
X0143114Y0126902D01*
X0141350Y0127633D01*
X0139440Y0127633D01*
X0137676Y0126902D01*
X0136326Y0125552D01*
X0135595Y0123788D01*
X0135595Y0121878D01*
X0135624Y0121810D02*
X0119567Y0121810D01*
X0119153Y0120811D02*
X0136037Y0120811D01*
X0136627Y0119812D02*
X0118563Y0119812D01*
X0117564Y0118814D02*
X0137626Y0118814D01*
X0135603Y0123807D02*
X0119587Y0123807D01*
X0119174Y0124805D02*
X0136016Y0124805D01*
X0136577Y0125804D02*
X0118613Y0125804D01*
X0117614Y0126802D02*
X0137576Y0126802D01*
X0143214Y0126802D02*
X0148563Y0126802D01*
X0147565Y0127801D02*
X0112090Y0127801D01*
X0111092Y0128799D02*
X0146566Y0128799D01*
X0145568Y0129798D02*
X0110093Y0129798D01*
X0109095Y0130796D02*
X0144569Y0130796D01*
X0143571Y0131795D02*
X0108096Y0131795D01*
X0107098Y0132793D02*
X0142572Y0132793D01*
X0141574Y0133792D02*
X0106099Y0133792D01*
X0105101Y0134790D02*
X0140575Y0134790D01*
X0139577Y0135789D02*
X0067022Y0135789D01*
X0066529Y0136787D02*
X0138578Y0136787D01*
X0137580Y0137786D02*
X0065531Y0137786D01*
X0065118Y0139783D02*
X0135583Y0139783D01*
X0134584Y0140781D02*
X0066232Y0140781D01*
X0066664Y0141214D02*
X0067128Y0142333D01*
X0133032Y0142333D01*
X0150459Y0124907D01*
X0149995Y0123788D01*
X0149995Y0121878D01*
X0150726Y0120114D01*
X0152076Y0118764D01*
X0153840Y0118033D01*
X0155750Y0118033D01*
X0157514Y0118764D01*
X0158864Y0120114D01*
X0159595Y0121878D01*
X0159595Y0123788D01*
X0158864Y0125552D01*
X0157514Y0126902D01*
X0155750Y0127633D01*
X0153840Y0127633D01*
X0152721Y0127170D01*
X0134358Y0145533D01*
X0067128Y0145533D01*
X0066664Y0146652D01*
X0065314Y0148002D01*
X0063550Y0148733D01*
X0061640Y0148733D01*
X0059876Y0148002D01*
X0058526Y0146652D01*
X0057795Y0144888D01*
X0057795Y0142978D01*
X0058526Y0141214D01*
X0059876Y0139864D01*
X0061640Y0139133D01*
X0063550Y0139133D01*
X0065314Y0139864D01*
X0066664Y0141214D01*
X0066899Y0141780D02*
X0133586Y0141780D01*
X0133695Y0143933D02*
X0154795Y0122833D01*
X0149995Y0122808D02*
X0145195Y0122808D01*
X0145187Y0123807D02*
X0150003Y0123807D01*
X0150416Y0124805D02*
X0144774Y0124805D01*
X0144213Y0125804D02*
X0149562Y0125804D01*
X0152090Y0127801D02*
X0223632Y0127801D01*
X0224300Y0127133D02*
X0269007Y0127133D01*
X0268526Y0126652D01*
X0267795Y0124888D01*
X0267795Y0122978D01*
X0268526Y0121214D01*
X0269876Y0119864D01*
X0271640Y0119133D01*
X0273550Y0119133D01*
X0274669Y0119597D01*
X0275995Y0118270D01*
X0276932Y0117333D01*
X0288258Y0117333D01*
X0289195Y0118270D01*
X0289195Y0118270D01*
X0293258Y0122333D01*
X0294195Y0123270D01*
X0294195Y0169596D01*
X0229195Y0234596D01*
X0228258Y0235533D01*
X0217238Y0235533D01*
X0217238Y0238050D01*
X0216594Y0238694D01*
X0208596Y0238694D01*
X0207952Y0238050D01*
X0207952Y0230871D01*
X0207238Y0230871D01*
X0207238Y0238050D01*
X0206594Y0238694D01*
X0204619Y0238694D01*
X0207269Y0241344D01*
X0208110Y0241344D01*
X0209062Y0241738D01*
X0209790Y0242467D01*
X0210184Y0243418D01*
X0210184Y0244448D01*
X0209790Y0245400D01*
X0209062Y0246128D01*
X0208110Y0246522D01*
X0207080Y0246522D01*
X0206129Y0246128D01*
X0205400Y0245400D01*
X0205095Y0244663D01*
X0204790Y0245400D01*
X0204062Y0246128D01*
X0203110Y0246522D01*
X0202080Y0246522D01*
X0201129Y0246128D01*
X0200400Y0245400D01*
X0200006Y0244448D01*
X0200006Y0243607D01*
X0196932Y0240533D01*
X0195995Y0239596D01*
X0195995Y0238694D01*
X0188596Y0238694D01*
X0187952Y0238050D01*
X0187952Y0231351D01*
X0187238Y0232064D01*
X0187238Y0238050D01*
X0186594Y0238694D01*
X0178596Y0238694D01*
X0177952Y0238050D01*
X0177952Y0231351D01*
X0177238Y0232064D01*
X0177238Y0238050D01*
X0176594Y0238694D01*
X0168596Y0238694D01*
X0167952Y0238050D01*
X0167952Y0231351D01*
X0167238Y0232064D01*
X0167238Y0238050D01*
X0166594Y0238694D01*
X0158596Y0238694D01*
X0157952Y0238050D01*
X0157952Y0231351D01*
X0157238Y0232064D01*
X0157238Y0238050D01*
X0156594Y0238694D01*
X0148596Y0238694D01*
X0147952Y0238050D01*
X0147952Y0231351D01*
X0147238Y0232064D01*
X0147238Y0238050D01*
X0146594Y0238694D01*
X0138596Y0238694D01*
X0137952Y0238050D01*
X0137952Y0231351D01*
X0137238Y0232064D01*
X0137238Y0238050D01*
X0136594Y0238694D01*
X0128596Y0238694D01*
X0127952Y0238050D01*
X0127952Y0231351D01*
X0127238Y0232064D01*
X0127238Y0238050D01*
X0126594Y0238694D01*
X0118596Y0238694D01*
X0117952Y0238050D01*
X0117952Y0230840D01*
X0118596Y0230195D01*
X0124582Y0230195D01*
X0127952Y0226825D01*
X0127952Y0219816D01*
X0128596Y0219172D01*
X0130995Y0219172D01*
X0130995Y0214875D01*
X0130499Y0214670D01*
X0129458Y0213629D01*
X0128895Y0212269D01*
X0128895Y0205597D01*
X0129458Y0204237D01*
X0130499Y0203196D01*
X0131859Y0202633D01*
X0133331Y0202633D01*
X0134691Y0203196D01*
X0135732Y0204237D01*
X0136161Y0205272D01*
X0136576Y0204857D01*
X0146800Y0194633D01*
X0162465Y0194633D01*
X0171583Y0185515D01*
X0171021Y0185333D01*
X0170446Y0185040D01*
X0169924Y0184660D01*
X0169468Y0184204D01*
X0169089Y0183682D01*
X0168796Y0183107D01*
X0168596Y0182493D01*
X0168495Y0181856D01*
X0168495Y0179233D01*
X0172295Y0179233D01*
X0172295Y0178633D01*
X0168495Y0178633D01*
X0168495Y0176010D01*
X0168596Y0175373D01*
X0168796Y0174759D01*
X0169089Y0174184D01*
X0169468Y0173662D01*
X0169924Y0173206D01*
X0170446Y0172826D01*
X0171021Y0172533D01*
X0171635Y0172334D01*
X0172272Y0172233D01*
X0172295Y0172233D01*
X0172295Y0178633D01*
X0172895Y0178633D01*
X0172895Y0172233D01*
X0172918Y0172233D01*
X0173555Y0172334D01*
X0174169Y0172533D01*
X0174744Y0172826D01*
X0175266Y0173206D01*
X0175722Y0173662D01*
X0176102Y0174184D01*
X0176395Y0174759D01*
X0176463Y0174970D01*
X0224300Y0127133D01*
X0223214Y0126802D02*
X0268676Y0126802D01*
X0268174Y0125804D02*
X0224213Y0125804D01*
X0224464Y0125552D02*
X0223114Y0126902D01*
X0221350Y0127633D01*
X0219440Y0127633D01*
X0217676Y0126902D01*
X0216326Y0125552D01*
X0215595Y0123788D01*
X0215595Y0121878D01*
X0216326Y0120114D01*
X0217676Y0118764D01*
X0219440Y0118033D01*
X0221350Y0118033D01*
X0223114Y0118764D01*
X0224464Y0120114D01*
X0225195Y0121878D01*
X0225195Y0123788D01*
X0224464Y0125552D01*
X0224774Y0124805D02*
X0267795Y0124805D01*
X0267795Y0123807D02*
X0225187Y0123807D01*
X0225195Y0122808D02*
X0267866Y0122808D01*
X0268279Y0121810D02*
X0225167Y0121810D01*
X0224753Y0120811D02*
X0268929Y0120811D01*
X0270000Y0119812D02*
X0224163Y0119812D01*
X0223164Y0118814D02*
X0275451Y0118814D01*
X0276450Y0117815D02*
X0192040Y0117815D01*
X0191042Y0116817D02*
X0296295Y0116817D01*
X0296295Y0117815D02*
X0288740Y0117815D01*
X0289739Y0118814D02*
X0296295Y0118814D01*
X0296295Y0119812D02*
X0290737Y0119812D01*
X0291736Y0120811D02*
X0296295Y0120811D01*
X0296295Y0121810D02*
X0292734Y0121810D01*
X0293258Y0122333D02*
X0293258Y0122333D01*
X0293733Y0122808D02*
X0296295Y0122808D01*
X0296295Y0123807D02*
X0294195Y0123807D01*
X0294195Y0124805D02*
X0296295Y0124805D01*
X0296295Y0125804D02*
X0294195Y0125804D01*
X0294195Y0126802D02*
X0296295Y0126802D01*
X0296295Y0127801D02*
X0294195Y0127801D01*
X0294195Y0128799D02*
X0296295Y0128799D01*
X0296295Y0129798D02*
X0294195Y0129798D01*
X0294195Y0130796D02*
X0296295Y0130796D01*
X0296295Y0131795D02*
X0294195Y0131795D01*
X0294195Y0132793D02*
X0296295Y0132793D01*
X0296295Y0133792D02*
X0294195Y0133792D01*
X0294195Y0134790D02*
X0296295Y0134790D01*
X0296295Y0135789D02*
X0294195Y0135789D01*
X0294195Y0136787D02*
X0296295Y0136787D01*
X0296295Y0137786D02*
X0294195Y0137786D01*
X0294195Y0138784D02*
X0296295Y0138784D01*
X0296295Y0139783D02*
X0294195Y0139783D01*
X0294195Y0140781D02*
X0296295Y0140781D01*
X0296295Y0141780D02*
X0294195Y0141780D01*
X0294195Y0142778D02*
X0296295Y0142778D01*
X0296295Y0143777D02*
X0294195Y0143777D01*
X0294195Y0144775D02*
X0296295Y0144775D01*
X0296295Y0145774D02*
X0294195Y0145774D01*
X0294195Y0146772D02*
X0296295Y0146772D01*
X0296295Y0147771D02*
X0294195Y0147771D01*
X0294195Y0148769D02*
X0296295Y0148769D01*
X0296295Y0149768D02*
X0294195Y0149768D01*
X0294195Y0150766D02*
X0296295Y0150766D01*
X0296295Y0151765D02*
X0294195Y0151765D01*
X0294195Y0152763D02*
X0296295Y0152763D01*
X0296295Y0153762D02*
X0294195Y0153762D01*
X0294195Y0154760D02*
X0296295Y0154760D01*
X0296295Y0155759D02*
X0294195Y0155759D01*
X0294195Y0156757D02*
X0296295Y0156757D01*
X0296295Y0157756D02*
X0294195Y0157756D01*
X0294195Y0158754D02*
X0296295Y0158754D01*
X0296295Y0159753D02*
X0294195Y0159753D01*
X0294195Y0160751D02*
X0296295Y0160751D01*
X0296295Y0161750D02*
X0294195Y0161750D01*
X0294195Y0162748D02*
X0296295Y0162748D01*
X0296295Y0163747D02*
X0294195Y0163747D01*
X0294195Y0164745D02*
X0296295Y0164745D01*
X0296295Y0165744D02*
X0294195Y0165744D01*
X0294195Y0166743D02*
X0296295Y0166743D01*
X0296295Y0167741D02*
X0294195Y0167741D01*
X0294195Y0168740D02*
X0296295Y0168740D01*
X0296295Y0169738D02*
X0294053Y0169738D01*
X0293054Y0170737D02*
X0296295Y0170737D01*
X0296295Y0171735D02*
X0292056Y0171735D01*
X0291057Y0172734D02*
X0296295Y0172734D01*
X0296295Y0173732D02*
X0290059Y0173732D01*
X0289060Y0174731D02*
X0296295Y0174731D01*
X0296295Y0175729D02*
X0288062Y0175729D01*
X0287063Y0176728D02*
X0296295Y0176728D01*
X0296295Y0177726D02*
X0286065Y0177726D01*
X0285066Y0178725D02*
X0296295Y0178725D01*
X0296295Y0179723D02*
X0284068Y0179723D01*
X0283069Y0180722D02*
X0296295Y0180722D01*
X0296295Y0181720D02*
X0282071Y0181720D01*
X0281072Y0182719D02*
X0296295Y0182719D01*
X0296295Y0183717D02*
X0280074Y0183717D01*
X0279075Y0184716D02*
X0296295Y0184716D01*
X0296295Y0185714D02*
X0278077Y0185714D01*
X0277078Y0186713D02*
X0296295Y0186713D01*
X0296295Y0187711D02*
X0276080Y0187711D01*
X0275081Y0188710D02*
X0296295Y0188710D01*
X0296295Y0189708D02*
X0274083Y0189708D01*
X0273084Y0190707D02*
X0296295Y0190707D01*
X0296295Y0191705D02*
X0272086Y0191705D01*
X0271087Y0192704D02*
X0296295Y0192704D01*
X0296295Y0193702D02*
X0270089Y0193702D01*
X0269090Y0194701D02*
X0296295Y0194701D01*
X0296295Y0195699D02*
X0268092Y0195699D01*
X0267093Y0196698D02*
X0296295Y0196698D01*
X0296295Y0197696D02*
X0266095Y0197696D01*
X0265096Y0198695D02*
X0296295Y0198695D01*
X0296295Y0199693D02*
X0264098Y0199693D01*
X0263099Y0200692D02*
X0296295Y0200692D01*
X0296295Y0201690D02*
X0262101Y0201690D01*
X0261102Y0202689D02*
X0296295Y0202689D01*
X0296295Y0203687D02*
X0260103Y0203687D01*
X0259105Y0204686D02*
X0296295Y0204686D01*
X0296295Y0205684D02*
X0258106Y0205684D01*
X0257108Y0206683D02*
X0296295Y0206683D01*
X0296295Y0207681D02*
X0256109Y0207681D01*
X0255111Y0208680D02*
X0296295Y0208680D01*
X0296295Y0209679D02*
X0254112Y0209679D01*
X0253114Y0210677D02*
X0296295Y0210677D01*
X0296295Y0211676D02*
X0252115Y0211676D01*
X0251117Y0212674D02*
X0276228Y0212674D01*
X0273924Y0212847D02*
X0278828Y0212479D01*
X0283623Y0213574D01*
X0287883Y0216033D01*
X0291228Y0219638D01*
X0291228Y0219638D01*
X0293362Y0224070D01*
X0294095Y0228933D01*
X0293362Y0233797D01*
X0291228Y0238228D01*
X0287883Y0241833D01*
X0287883Y0241833D01*
X0283623Y0244292D01*
X0278828Y0245387D01*
X0273924Y0245019D01*
X0273924Y0245019D01*
X0269345Y0243222D01*
X0265500Y0240156D01*
X0265500Y0240156D01*
X0262729Y0236092D01*
X0261279Y0231392D01*
X0261279Y0226474D01*
X0262729Y0221774D01*
X0265500Y0217710D01*
X0269345Y0214644D01*
X0269345Y0214644D01*
X0273924Y0212847D01*
X0273924Y0212847D01*
X0271819Y0213673D02*
X0250118Y0213673D01*
X0249120Y0214671D02*
X0269311Y0214671D01*
X0268059Y0215670D02*
X0248121Y0215670D01*
X0247123Y0216668D02*
X0266807Y0216668D01*
X0265554Y0217667D02*
X0246124Y0217667D01*
X0245126Y0218665D02*
X0264849Y0218665D01*
X0265500Y0217710D02*
X0265500Y0217710D01*
X0265500Y0217710D01*
X0264168Y0219664D02*
X0244127Y0219664D01*
X0243129Y0220662D02*
X0263487Y0220662D01*
X0262806Y0221661D02*
X0242130Y0221661D01*
X0241132Y0222659D02*
X0262456Y0222659D01*
X0262729Y0221774D02*
X0262729Y0221774D01*
X0262148Y0223658D02*
X0240133Y0223658D01*
X0239135Y0224656D02*
X0261840Y0224656D01*
X0261532Y0225655D02*
X0238136Y0225655D01*
X0237138Y0226653D02*
X0261279Y0226653D01*
X0261279Y0227652D02*
X0236139Y0227652D01*
X0235141Y0228650D02*
X0261279Y0228650D01*
X0261279Y0229649D02*
X0234142Y0229649D01*
X0233144Y0230647D02*
X0261279Y0230647D01*
X0261358Y0231646D02*
X0232145Y0231646D01*
X0231147Y0232644D02*
X0261666Y0232644D01*
X0261974Y0233643D02*
X0230148Y0233643D01*
X0229150Y0234641D02*
X0262282Y0234641D01*
X0262590Y0235640D02*
X0217238Y0235640D01*
X0217238Y0236638D02*
X0263102Y0236638D01*
X0262729Y0236092D02*
X0262729Y0236092D01*
X0263782Y0237637D02*
X0217238Y0237637D01*
X0216653Y0238635D02*
X0264463Y0238635D01*
X0265144Y0239634D02*
X0205559Y0239634D01*
X0206557Y0240632D02*
X0266097Y0240632D01*
X0265500Y0240156D02*
X0265500Y0240156D01*
X0267349Y0241631D02*
X0208802Y0241631D01*
X0209857Y0242629D02*
X0268601Y0242629D01*
X0269345Y0243222D02*
X0269345Y0243222D01*
X0270378Y0243628D02*
X0210184Y0243628D01*
X0210110Y0244626D02*
X0272922Y0244626D01*
X0277793Y0247622D02*
X0057397Y0247622D01*
X0058828Y0245387D02*
X0053924Y0245019D01*
X0049345Y0243222D01*
X0045500Y0240156D01*
X0045500Y0240156D01*
X0042729Y0236092D01*
X0041279Y0231392D01*
X0041279Y0226474D01*
X0042729Y0221774D01*
X0045500Y0217710D01*
X0049345Y0214644D01*
X0049345Y0214644D01*
X0053924Y0212847D01*
X0058828Y0212479D01*
X0063623Y0213574D01*
X0067883Y0216033D01*
X0071228Y0219638D01*
X0071228Y0219638D01*
X0073362Y0224070D01*
X0074095Y0228933D01*
X0073362Y0233797D01*
X0071228Y0238228D01*
X0067883Y0241833D01*
X0067883Y0241833D01*
X0063623Y0244292D01*
X0058828Y0245387D01*
X0062160Y0244626D02*
X0200080Y0244626D01*
X0200006Y0243628D02*
X0064774Y0243628D01*
X0063623Y0244292D02*
X0063623Y0244292D01*
X0066504Y0242629D02*
X0199029Y0242629D01*
X0198030Y0241631D02*
X0068071Y0241631D01*
X0068997Y0240632D02*
X0197032Y0240632D01*
X0196033Y0239634D02*
X0069923Y0239634D01*
X0070850Y0238635D02*
X0118537Y0238635D01*
X0117952Y0237637D02*
X0071513Y0237637D01*
X0071228Y0238228D02*
X0071228Y0238228D01*
X0071994Y0236638D02*
X0117952Y0236638D01*
X0117952Y0235640D02*
X0072474Y0235640D01*
X0072955Y0234641D02*
X0117952Y0234641D01*
X0117952Y0233643D02*
X0073385Y0233643D01*
X0073362Y0233797D02*
X0073362Y0233797D01*
X0073536Y0232644D02*
X0117952Y0232644D01*
X0117952Y0231646D02*
X0073686Y0231646D01*
X0073837Y0230647D02*
X0118144Y0230647D01*
X0118596Y0227671D02*
X0117952Y0227027D01*
X0117952Y0219816D01*
X0118596Y0219172D01*
X0120995Y0219172D01*
X0120995Y0214875D01*
X0120499Y0214670D01*
X0119458Y0213629D01*
X0118895Y0212269D01*
X0118895Y0205597D01*
X0119458Y0204237D01*
X0120499Y0203196D01*
X0121859Y0202633D01*
X0123331Y0202633D01*
X0124691Y0203196D01*
X0125732Y0204237D01*
X0126295Y0205597D01*
X0126295Y0212269D01*
X0125732Y0213629D01*
X0124691Y0214670D01*
X0124195Y0214875D01*
X0124195Y0219172D01*
X0126594Y0219172D01*
X0127238Y0219816D01*
X0127238Y0227027D01*
X0126594Y0227671D01*
X0118596Y0227671D01*
X0118577Y0227652D02*
X0073902Y0227652D01*
X0074052Y0228650D02*
X0126127Y0228650D01*
X0126613Y0227652D02*
X0127126Y0227652D01*
X0127238Y0226653D02*
X0127952Y0226653D01*
X0127952Y0225655D02*
X0127238Y0225655D01*
X0127238Y0224656D02*
X0127952Y0224656D01*
X0127952Y0223658D02*
X0127238Y0223658D01*
X0127238Y0222659D02*
X0127952Y0222659D01*
X0127952Y0221661D02*
X0127238Y0221661D01*
X0127238Y0220662D02*
X0127952Y0220662D01*
X0128104Y0219664D02*
X0127086Y0219664D01*
X0124195Y0218665D02*
X0130995Y0218665D01*
X0130995Y0217667D02*
X0124195Y0217667D01*
X0124195Y0216668D02*
X0130995Y0216668D01*
X0130995Y0215670D02*
X0124195Y0215670D01*
X0124688Y0214671D02*
X0130502Y0214671D01*
X0129502Y0213673D02*
X0125688Y0213673D01*
X0126127Y0212674D02*
X0129063Y0212674D01*
X0128895Y0211676D02*
X0126295Y0211676D01*
X0126295Y0210677D02*
X0128895Y0210677D01*
X0128895Y0209679D02*
X0126295Y0209679D01*
X0126295Y0208680D02*
X0128895Y0208680D01*
X0128895Y0207681D02*
X0126295Y0207681D01*
X0126295Y0206683D02*
X0128895Y0206683D01*
X0128895Y0205684D02*
X0126295Y0205684D01*
X0125918Y0204686D02*
X0129273Y0204686D01*
X0130008Y0203687D02*
X0125182Y0203687D01*
X0123466Y0202689D02*
X0131724Y0202689D01*
X0133466Y0202689D02*
X0138744Y0202689D01*
X0137745Y0203687D02*
X0135182Y0203687D01*
X0135918Y0204686D02*
X0136747Y0204686D01*
X0137238Y0206457D02*
X0137238Y0227027D01*
X0136594Y0227671D01*
X0129369Y0227671D01*
X0122595Y0234445D01*
X0127238Y0234641D02*
X0127952Y0234641D01*
X0127952Y0233643D02*
X0127238Y0233643D01*
X0127238Y0232644D02*
X0127952Y0232644D01*
X0127952Y0231646D02*
X0127657Y0231646D01*
X0125129Y0229649D02*
X0073987Y0229649D01*
X0073751Y0226653D02*
X0117952Y0226653D01*
X0117952Y0225655D02*
X0073601Y0225655D01*
X0073450Y0224656D02*
X0117952Y0224656D01*
X0117952Y0223658D02*
X0073164Y0223658D01*
X0073362Y0224070D02*
X0073362Y0224070D01*
X0072683Y0222659D02*
X0117952Y0222659D01*
X0117952Y0221661D02*
X0072202Y0221661D01*
X0071721Y0220662D02*
X0117952Y0220662D01*
X0118104Y0219664D02*
X0071240Y0219664D01*
X0070325Y0218665D02*
X0120995Y0218665D01*
X0120995Y0217667D02*
X0069399Y0217667D01*
X0068472Y0216668D02*
X0120995Y0216668D01*
X0120995Y0215670D02*
X0067253Y0215670D01*
X0067883Y0216033D02*
X0067883Y0216033D01*
X0065524Y0214671D02*
X0120502Y0214671D01*
X0119502Y0213673D02*
X0063795Y0213673D01*
X0063623Y0213574D02*
X0063623Y0213574D01*
X0059682Y0212674D02*
X0119063Y0212674D01*
X0118895Y0211676D02*
X0038895Y0211676D01*
X0038895Y0212674D02*
X0056228Y0212674D01*
X0053924Y0212847D02*
X0053924Y0212847D01*
X0051819Y0213673D02*
X0038895Y0213673D01*
X0038895Y0214671D02*
X0049311Y0214671D01*
X0048059Y0215670D02*
X0038895Y0215670D01*
X0038895Y0216668D02*
X0046807Y0216668D01*
X0045554Y0217667D02*
X0038895Y0217667D01*
X0038895Y0218665D02*
X0044849Y0218665D01*
X0045500Y0217710D02*
X0045500Y0217710D01*
X0045500Y0217710D01*
X0044168Y0219664D02*
X0038895Y0219664D01*
X0038895Y0220662D02*
X0043487Y0220662D01*
X0042806Y0221661D02*
X0038895Y0221661D01*
X0038895Y0222659D02*
X0042456Y0222659D01*
X0042729Y0221774D02*
X0042729Y0221774D01*
X0042148Y0223658D02*
X0038895Y0223658D01*
X0038895Y0224656D02*
X0041840Y0224656D01*
X0041532Y0225655D02*
X0038895Y0225655D01*
X0038895Y0226653D02*
X0041279Y0226653D01*
X0041279Y0227652D02*
X0038895Y0227652D01*
X0038895Y0228650D02*
X0041279Y0228650D01*
X0041279Y0229649D02*
X0038935Y0229649D01*
X0038991Y0230647D02*
X0041279Y0230647D01*
X0041358Y0231646D02*
X0039154Y0231646D01*
X0039382Y0232644D02*
X0041666Y0232644D01*
X0041974Y0233643D02*
X0039610Y0233643D01*
X0039838Y0234641D02*
X0042282Y0234641D01*
X0042590Y0235640D02*
X0040200Y0235640D01*
X0040681Y0236638D02*
X0043102Y0236638D01*
X0042729Y0236092D02*
X0042729Y0236092D01*
X0043782Y0237637D02*
X0041162Y0237637D01*
X0041643Y0238635D02*
X0044463Y0238635D01*
X0045144Y0239634D02*
X0042361Y0239634D01*
X0043157Y0240632D02*
X0046097Y0240632D01*
X0047349Y0241631D02*
X0043953Y0241631D01*
X0044966Y0242629D02*
X0048601Y0242629D01*
X0049345Y0243222D02*
X0049345Y0243222D01*
X0050378Y0243628D02*
X0046218Y0243628D01*
X0047470Y0244626D02*
X0052922Y0244626D01*
X0051593Y0246623D02*
X0283597Y0246623D01*
X0283623Y0244292D02*
X0283623Y0244292D01*
X0284774Y0243628D02*
X0288972Y0243628D01*
X0287720Y0244626D02*
X0282160Y0244626D01*
X0278828Y0245387D02*
X0278828Y0245387D01*
X0285762Y0245625D02*
X0209565Y0245625D01*
X0207595Y0243933D02*
X0202595Y0238933D01*
X0202595Y0234445D01*
X0202595Y0233933D01*
X0207238Y0233643D02*
X0207952Y0233643D01*
X0207952Y0234641D02*
X0207238Y0234641D01*
X0207238Y0235640D02*
X0207952Y0235640D01*
X0207952Y0236638D02*
X0207238Y0236638D01*
X0207238Y0237637D02*
X0207952Y0237637D01*
X0208537Y0238635D02*
X0206653Y0238635D01*
X0207238Y0232644D02*
X0207952Y0232644D01*
X0207952Y0231646D02*
X0207238Y0231646D01*
X0212595Y0233933D02*
X0212595Y0234445D01*
X0212595Y0233933D02*
X0227595Y0233933D01*
X0292595Y0168933D01*
X0292595Y0123933D01*
X0287595Y0118933D01*
X0277595Y0118933D01*
X0272595Y0123933D01*
X0274583Y0128733D02*
X0224963Y0128733D01*
X0176295Y0177400D01*
X0176295Y0183066D01*
X0163128Y0196233D01*
X0147463Y0196233D01*
X0137238Y0206457D01*
X0132595Y0208933D02*
X0132595Y0223421D01*
X0139369Y0227671D02*
X0132595Y0234445D01*
X0137238Y0234641D02*
X0137952Y0234641D01*
X0137952Y0233643D02*
X0137238Y0233643D01*
X0137238Y0232644D02*
X0137952Y0232644D01*
X0137952Y0231646D02*
X0137657Y0231646D01*
X0137952Y0235640D02*
X0137238Y0235640D01*
X0137238Y0236638D02*
X0137952Y0236638D01*
X0137952Y0237637D02*
X0137238Y0237637D01*
X0136653Y0238635D02*
X0138537Y0238635D01*
X0142595Y0234445D02*
X0149369Y0227671D01*
X0156594Y0227671D01*
X0157238Y0227027D01*
X0157238Y0206457D01*
X0164263Y0199433D01*
X0179928Y0199433D01*
X0196295Y0183066D01*
X0196295Y0177400D01*
X0224963Y0148733D01*
X0274583Y0148733D01*
X0279383Y0143933D01*
X0282595Y0143933D01*
X0280607Y0149133D02*
X0275807Y0153933D01*
X0272595Y0153933D01*
X0274583Y0158733D02*
X0224963Y0158733D01*
X0206295Y0177400D01*
X0206295Y0183066D01*
X0188328Y0201033D01*
X0172663Y0201033D01*
X0167238Y0206457D01*
X0167238Y0227027D01*
X0166594Y0227671D01*
X0159369Y0227671D01*
X0152595Y0234445D01*
X0157238Y0234641D02*
X0157952Y0234641D01*
X0157952Y0233643D02*
X0157238Y0233643D01*
X0157238Y0232644D02*
X0157952Y0232644D01*
X0157952Y0231646D02*
X0157657Y0231646D01*
X0157952Y0235640D02*
X0157238Y0235640D01*
X0157238Y0236638D02*
X0157952Y0236638D01*
X0157952Y0237637D02*
X0157238Y0237637D01*
X0156653Y0238635D02*
X0158537Y0238635D01*
X0162595Y0234445D02*
X0169369Y0227671D01*
X0176594Y0227671D01*
X0177238Y0227027D01*
X0177238Y0206457D01*
X0181063Y0202633D01*
X0240683Y0202633D01*
X0279383Y0163933D01*
X0282595Y0163933D01*
X0280607Y0159133D02*
X0275807Y0163933D01*
X0272595Y0163933D01*
X0272321Y0168733D02*
X0271640Y0168733D01*
X0269876Y0168002D01*
X0268526Y0166652D01*
X0267795Y0164888D01*
X0267795Y0162978D01*
X0268526Y0161214D01*
X0269407Y0160333D01*
X0225625Y0160333D01*
X0213607Y0172351D01*
X0214169Y0172533D01*
X0214744Y0172826D01*
X0215266Y0173206D01*
X0215722Y0173662D01*
X0216102Y0174184D01*
X0216395Y0174759D01*
X0216594Y0175373D01*
X0216695Y0176010D01*
X0216695Y0178633D01*
X0212895Y0178633D01*
X0212895Y0179233D01*
X0212295Y0179233D01*
X0212295Y0178633D01*
X0208495Y0178633D01*
X0208495Y0177463D01*
X0207895Y0178063D01*
X0207895Y0183728D01*
X0190590Y0201033D01*
X0240021Y0201033D01*
X0272321Y0168733D01*
X0272314Y0168740D02*
X0217219Y0168740D01*
X0216220Y0169738D02*
X0271316Y0169738D01*
X0270317Y0170737D02*
X0215222Y0170737D01*
X0214223Y0171735D02*
X0269319Y0171735D01*
X0268320Y0172734D02*
X0214562Y0172734D01*
X0215773Y0173732D02*
X0267322Y0173732D01*
X0266323Y0174731D02*
X0216380Y0174731D01*
X0216651Y0175729D02*
X0265325Y0175729D01*
X0264326Y0176728D02*
X0216695Y0176728D01*
X0216695Y0177726D02*
X0263328Y0177726D01*
X0262329Y0178725D02*
X0212895Y0178725D01*
X0212895Y0179233D02*
X0216695Y0179233D01*
X0216695Y0181856D01*
X0216594Y0182493D01*
X0216395Y0183107D01*
X0216102Y0183682D01*
X0215722Y0184204D01*
X0215266Y0184660D01*
X0214744Y0185040D01*
X0214169Y0185333D01*
X0213555Y0185532D01*
X0212918Y0185633D01*
X0212895Y0185633D01*
X0212895Y0179233D01*
X0212895Y0179723D02*
X0212295Y0179723D01*
X0212295Y0179233D02*
X0212295Y0185633D01*
X0212272Y0185633D01*
X0211635Y0185532D01*
X0211021Y0185333D01*
X0210446Y0185040D01*
X0209924Y0184660D01*
X0209468Y0184204D01*
X0209089Y0183682D01*
X0208796Y0183107D01*
X0208596Y0182493D01*
X0208495Y0181856D01*
X0208495Y0179233D01*
X0212295Y0179233D01*
X0212295Y0178725D02*
X0207895Y0178725D01*
X0207895Y0179723D02*
X0208495Y0179723D01*
X0208495Y0180722D02*
X0207895Y0180722D01*
X0207895Y0181720D02*
X0208495Y0181720D01*
X0208669Y0182719D02*
X0207895Y0182719D01*
X0207895Y0183717D02*
X0209114Y0183717D01*
X0210000Y0184716D02*
X0206908Y0184716D01*
X0205909Y0185714D02*
X0255339Y0185714D01*
X0254341Y0186713D02*
X0204911Y0186713D01*
X0203912Y0187711D02*
X0253342Y0187711D01*
X0252344Y0188710D02*
X0202914Y0188710D01*
X0201915Y0189708D02*
X0251345Y0189708D01*
X0250347Y0190707D02*
X0200917Y0190707D01*
X0199918Y0191705D02*
X0249348Y0191705D01*
X0248350Y0192704D02*
X0198920Y0192704D01*
X0197921Y0193702D02*
X0247351Y0193702D01*
X0246353Y0194701D02*
X0196923Y0194701D01*
X0195924Y0195699D02*
X0245354Y0195699D01*
X0244356Y0196698D02*
X0194926Y0196698D01*
X0193927Y0197696D02*
X0243357Y0197696D01*
X0242359Y0198695D02*
X0192929Y0198695D01*
X0191930Y0199693D02*
X0241360Y0199693D01*
X0240362Y0200692D02*
X0190932Y0200692D01*
X0188403Y0198695D02*
X0182929Y0198695D01*
X0182190Y0199433D02*
X0187665Y0199433D01*
X0201583Y0185515D01*
X0201021Y0185333D01*
X0200446Y0185040D01*
X0199924Y0184660D01*
X0199468Y0184204D01*
X0199089Y0183682D01*
X0198796Y0183107D01*
X0198596Y0182493D01*
X0198495Y0181856D01*
X0198495Y0179233D01*
X0202295Y0179233D01*
X0202295Y0178633D01*
X0198495Y0178633D01*
X0198495Y0177463D01*
X0197895Y0178063D01*
X0197895Y0183728D01*
X0182190Y0199433D01*
X0183927Y0197696D02*
X0189402Y0197696D01*
X0190400Y0196698D02*
X0184926Y0196698D01*
X0185924Y0195699D02*
X0191399Y0195699D01*
X0192397Y0194701D02*
X0186923Y0194701D01*
X0187921Y0193702D02*
X0193396Y0193702D01*
X0194394Y0192704D02*
X0188920Y0192704D01*
X0189918Y0191705D02*
X0195393Y0191705D01*
X0196391Y0190707D02*
X0190917Y0190707D01*
X0191915Y0189708D02*
X0197390Y0189708D01*
X0198388Y0188710D02*
X0192914Y0188710D01*
X0193912Y0187711D02*
X0199387Y0187711D01*
X0200385Y0186713D02*
X0194911Y0186713D01*
X0195909Y0185714D02*
X0201384Y0185714D01*
X0200000Y0184716D02*
X0196908Y0184716D01*
X0197895Y0183717D02*
X0199114Y0183717D01*
X0198669Y0182719D02*
X0197895Y0182719D01*
X0197895Y0181720D02*
X0198495Y0181720D01*
X0198495Y0180722D02*
X0197895Y0180722D01*
X0197895Y0179723D02*
X0198495Y0179723D01*
X0197895Y0178725D02*
X0202295Y0178725D01*
X0208232Y0177726D02*
X0208495Y0177726D01*
X0212295Y0180722D02*
X0212895Y0180722D01*
X0212895Y0181720D02*
X0212295Y0181720D01*
X0212295Y0182719D02*
X0212895Y0182719D01*
X0212895Y0183717D02*
X0212295Y0183717D01*
X0212295Y0184716D02*
X0212895Y0184716D01*
X0215190Y0184716D02*
X0256338Y0184716D01*
X0257336Y0183717D02*
X0216076Y0183717D01*
X0216521Y0182719D02*
X0258335Y0182719D01*
X0259334Y0181720D02*
X0216695Y0181720D01*
X0216695Y0180722D02*
X0260332Y0180722D01*
X0261331Y0179723D02*
X0216695Y0179723D01*
X0218217Y0167741D02*
X0269615Y0167741D01*
X0268616Y0166743D02*
X0219216Y0166743D01*
X0220214Y0165744D02*
X0268150Y0165744D01*
X0267795Y0164745D02*
X0221213Y0164745D01*
X0222211Y0163747D02*
X0267795Y0163747D01*
X0267890Y0162748D02*
X0223210Y0162748D01*
X0224208Y0161750D02*
X0268304Y0161750D01*
X0268989Y0160751D02*
X0225207Y0160751D01*
X0207656Y0143777D02*
X0136114Y0143777D01*
X0135116Y0144775D02*
X0206658Y0144775D01*
X0205659Y0145774D02*
X0067028Y0145774D01*
X0066544Y0146772D02*
X0204661Y0146772D01*
X0203662Y0147771D02*
X0065546Y0147771D01*
X0065082Y0149768D02*
X0151072Y0149768D01*
X0150726Y0150114D02*
X0152076Y0148764D01*
X0153840Y0148033D01*
X0155750Y0148033D01*
X0157514Y0148764D01*
X0158864Y0150114D01*
X0159595Y0151878D01*
X0159595Y0153788D01*
X0158864Y0155552D01*
X0157514Y0156902D01*
X0155750Y0157633D01*
X0153840Y0157633D01*
X0152721Y0157170D01*
X0144358Y0165533D01*
X0067128Y0165533D01*
X0066664Y0166652D01*
X0065314Y0168002D01*
X0063550Y0168733D01*
X0061640Y0168733D01*
X0059876Y0168002D01*
X0058526Y0166652D01*
X0057795Y0164888D01*
X0057795Y0162978D01*
X0058526Y0161214D01*
X0059876Y0159864D01*
X0061640Y0159133D01*
X0063550Y0159133D01*
X0065314Y0159864D01*
X0066664Y0161214D01*
X0067128Y0162333D01*
X0143032Y0162333D01*
X0150459Y0154907D01*
X0149995Y0153788D01*
X0149995Y0151878D01*
X0150726Y0150114D01*
X0150456Y0150766D02*
X0066217Y0150766D01*
X0066664Y0151214D02*
X0067395Y0152978D01*
X0067395Y0154888D01*
X0066664Y0156652D01*
X0065314Y0158002D01*
X0063550Y0158733D01*
X0061640Y0158733D01*
X0059876Y0158002D01*
X0058526Y0156652D01*
X0057795Y0154888D01*
X0057795Y0152978D01*
X0058526Y0151214D01*
X0059876Y0149864D01*
X0061640Y0149133D01*
X0063550Y0149133D01*
X0065314Y0149864D01*
X0066664Y0151214D01*
X0066892Y0151765D02*
X0150042Y0151765D01*
X0149995Y0152763D02*
X0067306Y0152763D01*
X0067395Y0153762D02*
X0149995Y0153762D01*
X0150398Y0154760D02*
X0067395Y0154760D01*
X0067034Y0155759D02*
X0149607Y0155759D01*
X0148608Y0156757D02*
X0066559Y0156757D01*
X0065560Y0157756D02*
X0147610Y0157756D01*
X0146611Y0158754D02*
X0038895Y0158754D01*
X0038895Y0157756D02*
X0049630Y0157756D01*
X0049876Y0158002D02*
X0048526Y0156652D01*
X0047795Y0154888D01*
X0047795Y0152978D01*
X0048526Y0151214D01*
X0049876Y0149864D01*
X0051640Y0149133D01*
X0053550Y0149133D01*
X0055314Y0149864D01*
X0056664Y0151214D01*
X0057395Y0152978D01*
X0057395Y0154888D01*
X0056664Y0156652D01*
X0055314Y0158002D01*
X0053550Y0158733D01*
X0051640Y0158733D01*
X0049876Y0158002D01*
X0048631Y0156757D02*
X0038895Y0156757D01*
X0038895Y0155759D02*
X0048156Y0155759D01*
X0047795Y0154760D02*
X0038895Y0154760D01*
X0038895Y0153762D02*
X0047795Y0153762D01*
X0047884Y0152763D02*
X0038895Y0152763D01*
X0038895Y0151765D02*
X0048298Y0151765D01*
X0048974Y0150766D02*
X0038895Y0150766D01*
X0038895Y0149768D02*
X0050108Y0149768D01*
X0050599Y0148752D02*
X0049870Y0148380D01*
X0049208Y0147899D01*
X0048629Y0147321D01*
X0048148Y0146658D01*
X0047776Y0145929D01*
X0047523Y0145151D01*
X0047410Y0144433D01*
X0052095Y0144433D01*
X0052095Y0143433D01*
X0047410Y0143433D01*
X0047523Y0142715D01*
X0047776Y0141937D01*
X0048148Y0141208D01*
X0048629Y0140545D01*
X0049208Y0139967D01*
X0049870Y0139486D01*
X0050599Y0139114D01*
X0051156Y0138933D01*
X0050599Y0138752D01*
X0049870Y0138380D01*
X0049208Y0137899D01*
X0048629Y0137321D01*
X0048148Y0136658D01*
X0047776Y0135929D01*
X0047523Y0135151D01*
X0047410Y0134433D01*
X0052095Y0134433D01*
X0052095Y0133433D01*
X0047410Y0133433D01*
X0047523Y0132715D01*
X0047776Y0131937D01*
X0048148Y0131208D01*
X0048629Y0130545D01*
X0049208Y0129967D01*
X0049870Y0129486D01*
X0050599Y0129114D01*
X0051156Y0128933D01*
X0050599Y0128752D01*
X0049870Y0128380D01*
X0049208Y0127899D01*
X0048629Y0127321D01*
X0048148Y0126658D01*
X0047776Y0125929D01*
X0047523Y0125151D01*
X0047410Y0124433D01*
X0052095Y0124433D01*
X0052095Y0123433D01*
X0047410Y0123433D01*
X0047523Y0122715D01*
X0047776Y0121937D01*
X0048148Y0121208D01*
X0048629Y0120545D01*
X0049208Y0119967D01*
X0049870Y0119486D01*
X0050599Y0119114D01*
X0051377Y0118861D01*
X0052095Y0118747D01*
X0052095Y0123433D01*
X0053095Y0123433D01*
X0053095Y0118747D01*
X0053813Y0118861D01*
X0054591Y0119114D01*
X0055321Y0119486D01*
X0055983Y0119967D01*
X0056561Y0120545D01*
X0057043Y0121208D01*
X0057414Y0121937D01*
X0057667Y0122715D01*
X0057781Y0123433D01*
X0053095Y0123433D01*
X0053095Y0124433D01*
X0052095Y0124433D01*
X0052095Y0129119D01*
X0052095Y0133433D01*
X0053095Y0133433D01*
X0053095Y0124433D01*
X0057781Y0124433D01*
X0057667Y0125151D01*
X0057414Y0125929D01*
X0057043Y0126658D01*
X0056561Y0127321D01*
X0055983Y0127899D01*
X0055321Y0128380D01*
X0054591Y0128752D01*
X0054034Y0128933D01*
X0054591Y0129114D01*
X0055321Y0129486D01*
X0055983Y0129967D01*
X0056561Y0130545D01*
X0057043Y0131208D01*
X0057414Y0131937D01*
X0057667Y0132715D01*
X0057781Y0133433D01*
X0053095Y0133433D01*
X0053095Y0134433D01*
X0052095Y0134433D01*
X0052095Y0139119D01*
X0052095Y0143433D01*
X0053095Y0143433D01*
X0053095Y0134433D01*
X0057781Y0134433D01*
X0057667Y0135151D01*
X0057414Y0135929D01*
X0057043Y0136658D01*
X0056561Y0137321D01*
X0055983Y0137899D01*
X0055321Y0138380D01*
X0054591Y0138752D01*
X0054034Y0138933D01*
X0054591Y0139114D01*
X0055321Y0139486D01*
X0055983Y0139967D01*
X0056561Y0140545D01*
X0057043Y0141208D01*
X0057414Y0141937D01*
X0057667Y0142715D01*
X0057781Y0143433D01*
X0053095Y0143433D01*
X0053095Y0144433D01*
X0052095Y0144433D01*
X0052095Y0149119D01*
X0051377Y0149005D01*
X0050599Y0148752D01*
X0050652Y0148769D02*
X0038895Y0148769D01*
X0038895Y0147771D02*
X0049079Y0147771D01*
X0048230Y0146772D02*
X0038895Y0146772D01*
X0038895Y0145774D02*
X0047726Y0145774D01*
X0047464Y0144775D02*
X0038895Y0144775D01*
X0038895Y0143777D02*
X0052095Y0143777D01*
X0052095Y0144775D02*
X0053095Y0144775D01*
X0053095Y0144433D02*
X0053095Y0149119D01*
X0053813Y0149005D01*
X0054591Y0148752D01*
X0055321Y0148380D01*
X0055983Y0147899D01*
X0056561Y0147321D01*
X0057043Y0146658D01*
X0057414Y0145929D01*
X0057667Y0145151D01*
X0057781Y0144433D01*
X0053095Y0144433D01*
X0053095Y0143777D02*
X0057795Y0143777D01*
X0057795Y0144775D02*
X0057727Y0144775D01*
X0057465Y0145774D02*
X0058162Y0145774D01*
X0058646Y0146772D02*
X0056960Y0146772D01*
X0056111Y0147771D02*
X0059645Y0147771D01*
X0060108Y0149768D02*
X0055082Y0149768D01*
X0054538Y0148769D02*
X0152071Y0148769D01*
X0157520Y0148769D02*
X0177671Y0148769D01*
X0177676Y0148764D02*
X0179440Y0148033D01*
X0181350Y0148033D01*
X0183114Y0148764D01*
X0184464Y0150114D01*
X0185195Y0151878D01*
X0185195Y0153788D01*
X0184464Y0155552D01*
X0183114Y0156902D01*
X0181350Y0157633D01*
X0179440Y0157633D01*
X0177676Y0156902D01*
X0176326Y0155552D01*
X0175595Y0153788D01*
X0175595Y0151878D01*
X0176326Y0150114D01*
X0177676Y0148764D01*
X0176672Y0149768D02*
X0158518Y0149768D01*
X0159135Y0150766D02*
X0176056Y0150766D01*
X0175642Y0151765D02*
X0159548Y0151765D01*
X0159595Y0152763D02*
X0175595Y0152763D01*
X0175595Y0153762D02*
X0159595Y0153762D01*
X0159192Y0154760D02*
X0175998Y0154760D01*
X0176533Y0155759D02*
X0158658Y0155759D01*
X0157659Y0156757D02*
X0177531Y0156757D01*
X0183259Y0156757D02*
X0194675Y0156757D01*
X0193677Y0157756D02*
X0152135Y0157756D01*
X0151137Y0158754D02*
X0192678Y0158754D01*
X0191680Y0159753D02*
X0150138Y0159753D01*
X0149139Y0160751D02*
X0190681Y0160751D01*
X0189683Y0161750D02*
X0148141Y0161750D01*
X0147142Y0162748D02*
X0188684Y0162748D01*
X0187686Y0163747D02*
X0146144Y0163747D01*
X0145145Y0164745D02*
X0186687Y0164745D01*
X0185689Y0165744D02*
X0067040Y0165744D01*
X0066574Y0166743D02*
X0184690Y0166743D01*
X0183692Y0167741D02*
X0065575Y0167741D01*
X0062595Y0163933D02*
X0143695Y0163933D01*
X0154795Y0152833D01*
X0145613Y0159753D02*
X0065046Y0159753D01*
X0066202Y0160751D02*
X0144614Y0160751D01*
X0143616Y0161750D02*
X0066886Y0161750D01*
X0060144Y0159753D02*
X0055046Y0159753D01*
X0055314Y0159864D02*
X0056664Y0161214D01*
X0057395Y0162978D01*
X0057395Y0164888D01*
X0056664Y0166652D01*
X0055314Y0168002D01*
X0053550Y0168733D01*
X0051640Y0168733D01*
X0049876Y0168002D01*
X0048526Y0166652D01*
X0047795Y0164888D01*
X0047795Y0162978D01*
X0048526Y0161214D01*
X0049876Y0159864D01*
X0051640Y0159133D01*
X0053550Y0159133D01*
X0055314Y0159864D01*
X0056202Y0160751D02*
X0058989Y0160751D01*
X0058304Y0161750D02*
X0056886Y0161750D01*
X0057300Y0162748D02*
X0057890Y0162748D01*
X0057795Y0163747D02*
X0057395Y0163747D01*
X0057395Y0164745D02*
X0057795Y0164745D01*
X0058150Y0165744D02*
X0057041Y0165744D01*
X0056574Y0166743D02*
X0058616Y0166743D01*
X0059615Y0167741D02*
X0055575Y0167741D01*
X0049615Y0167741D02*
X0038895Y0167741D01*
X0038895Y0166743D02*
X0048616Y0166743D01*
X0048150Y0165744D02*
X0038895Y0165744D01*
X0038895Y0164745D02*
X0047795Y0164745D01*
X0047795Y0163747D02*
X0038895Y0163747D01*
X0038895Y0162748D02*
X0047890Y0162748D01*
X0048304Y0161750D02*
X0038895Y0161750D01*
X0038895Y0160751D02*
X0048989Y0160751D01*
X0050144Y0159753D02*
X0038895Y0159753D01*
X0038895Y0168740D02*
X0182693Y0168740D01*
X0181695Y0169738D02*
X0038895Y0169738D01*
X0038895Y0170737D02*
X0180696Y0170737D01*
X0179698Y0171735D02*
X0038895Y0171735D01*
X0038895Y0172734D02*
X0120628Y0172734D01*
X0120446Y0172826D02*
X0121021Y0172533D01*
X0121635Y0172334D01*
X0122272Y0172233D01*
X0122295Y0172233D01*
X0122295Y0178633D01*
X0118495Y0178633D01*
X0118495Y0176010D01*
X0118596Y0175373D01*
X0118796Y0174759D01*
X0119089Y0174184D01*
X0119468Y0173662D01*
X0119924Y0173206D01*
X0120446Y0172826D01*
X0119417Y0173732D02*
X0038895Y0173732D01*
X0038895Y0174731D02*
X0118810Y0174731D01*
X0118540Y0175729D02*
X0038895Y0175729D01*
X0038895Y0176728D02*
X0118495Y0176728D01*
X0118495Y0177726D02*
X0038895Y0177726D01*
X0038895Y0178725D02*
X0122295Y0178725D01*
X0122295Y0178633D02*
X0122295Y0179233D01*
X0118495Y0179233D01*
X0118495Y0181856D01*
X0118596Y0182493D01*
X0118796Y0183107D01*
X0119089Y0183682D01*
X0119468Y0184204D01*
X0119924Y0184660D01*
X0120446Y0185040D01*
X0121021Y0185333D01*
X0121635Y0185532D01*
X0122272Y0185633D01*
X0122295Y0185633D01*
X0122295Y0179233D01*
X0122895Y0179233D01*
X0122895Y0185633D01*
X0122918Y0185633D01*
X0123555Y0185532D01*
X0124169Y0185333D01*
X0124744Y0185040D01*
X0125266Y0184660D01*
X0125722Y0184204D01*
X0126102Y0183682D01*
X0126395Y0183107D01*
X0126594Y0182493D01*
X0126695Y0181856D01*
X0126695Y0179233D01*
X0122895Y0179233D01*
X0122895Y0178633D01*
X0122895Y0172233D01*
X0122918Y0172233D01*
X0123555Y0172334D01*
X0124169Y0172533D01*
X0124744Y0172826D01*
X0125266Y0173206D01*
X0125722Y0173662D01*
X0126102Y0174184D01*
X0126395Y0174759D01*
X0126594Y0175373D01*
X0126695Y0176010D01*
X0126695Y0178633D01*
X0122895Y0178633D01*
X0122295Y0178633D01*
X0122895Y0178725D02*
X0132295Y0178725D01*
X0132295Y0178633D02*
X0128495Y0178633D01*
X0128495Y0176010D01*
X0128596Y0175373D01*
X0128796Y0174759D01*
X0129089Y0174184D01*
X0129468Y0173662D01*
X0129924Y0173206D01*
X0130446Y0172826D01*
X0131021Y0172533D01*
X0131635Y0172334D01*
X0132272Y0172233D01*
X0132295Y0172233D01*
X0132295Y0178633D01*
X0132295Y0179233D01*
X0128495Y0179233D01*
X0128495Y0181856D01*
X0128596Y0182493D01*
X0128796Y0183107D01*
X0129089Y0183682D01*
X0129468Y0184204D01*
X0129924Y0184660D01*
X0130446Y0185040D01*
X0131021Y0185333D01*
X0131635Y0185532D01*
X0132272Y0185633D01*
X0132295Y0185633D01*
X0132295Y0179233D01*
X0132895Y0179233D01*
X0132895Y0185633D01*
X0132918Y0185633D01*
X0133555Y0185532D01*
X0134169Y0185333D01*
X0134744Y0185040D01*
X0135266Y0184660D01*
X0135722Y0184204D01*
X0136102Y0183682D01*
X0136395Y0183107D01*
X0136594Y0182493D01*
X0136695Y0181856D01*
X0136695Y0179233D01*
X0132895Y0179233D01*
X0132895Y0178633D01*
X0132895Y0172233D01*
X0132918Y0172233D01*
X0133555Y0172334D01*
X0134169Y0172533D01*
X0134744Y0172826D01*
X0135266Y0173206D01*
X0135722Y0173662D01*
X0136102Y0174184D01*
X0136395Y0174759D01*
X0136594Y0175373D01*
X0136695Y0176010D01*
X0136695Y0178633D01*
X0132895Y0178633D01*
X0132295Y0178633D01*
X0132895Y0178725D02*
X0142295Y0178725D01*
X0142295Y0178633D02*
X0138495Y0178633D01*
X0138495Y0176010D01*
X0138596Y0175373D01*
X0138796Y0174759D01*
X0139089Y0174184D01*
X0139468Y0173662D01*
X0139924Y0173206D01*
X0140446Y0172826D01*
X0141021Y0172533D01*
X0141635Y0172334D01*
X0142272Y0172233D01*
X0142295Y0172233D01*
X0142295Y0178633D01*
X0142295Y0179233D01*
X0138495Y0179233D01*
X0138495Y0181856D01*
X0138596Y0182493D01*
X0138796Y0183107D01*
X0139089Y0183682D01*
X0139468Y0184204D01*
X0139924Y0184660D01*
X0140446Y0185040D01*
X0141021Y0185333D01*
X0141635Y0185532D01*
X0142272Y0185633D01*
X0142295Y0185633D01*
X0142295Y0179233D01*
X0142895Y0179233D01*
X0142895Y0185633D01*
X0142918Y0185633D01*
X0143555Y0185532D01*
X0144169Y0185333D01*
X0144744Y0185040D01*
X0145266Y0184660D01*
X0145722Y0184204D01*
X0146102Y0183682D01*
X0146395Y0183107D01*
X0146594Y0182493D01*
X0146695Y0181856D01*
X0146695Y0179233D01*
X0142895Y0179233D01*
X0142895Y0178633D01*
X0142895Y0172233D01*
X0142918Y0172233D01*
X0143555Y0172334D01*
X0144169Y0172533D01*
X0144744Y0172826D01*
X0145266Y0173206D01*
X0145722Y0173662D01*
X0146102Y0174184D01*
X0146395Y0174759D01*
X0146594Y0175373D01*
X0146695Y0176010D01*
X0146695Y0178633D01*
X0142895Y0178633D01*
X0142295Y0178633D01*
X0142895Y0178725D02*
X0152295Y0178725D01*
X0152295Y0178633D02*
X0148495Y0178633D01*
X0148495Y0176010D01*
X0148596Y0175373D01*
X0148796Y0174759D01*
X0149089Y0174184D01*
X0149468Y0173662D01*
X0149924Y0173206D01*
X0150446Y0172826D01*
X0151021Y0172533D01*
X0151635Y0172334D01*
X0152272Y0172233D01*
X0152295Y0172233D01*
X0152295Y0178633D01*
X0152295Y0179233D01*
X0148495Y0179233D01*
X0148495Y0181856D01*
X0148596Y0182493D01*
X0148796Y0183107D01*
X0149089Y0183682D01*
X0149468Y0184204D01*
X0149924Y0184660D01*
X0150446Y0185040D01*
X0151021Y0185333D01*
X0151635Y0185532D01*
X0152272Y0185633D01*
X0152295Y0185633D01*
X0152295Y0179233D01*
X0152895Y0179233D01*
X0152895Y0185633D01*
X0152918Y0185633D01*
X0153555Y0185532D01*
X0154169Y0185333D01*
X0154744Y0185040D01*
X0155266Y0184660D01*
X0155722Y0184204D01*
X0156102Y0183682D01*
X0156395Y0183107D01*
X0156594Y0182493D01*
X0156695Y0181856D01*
X0156695Y0179233D01*
X0152895Y0179233D01*
X0152895Y0178633D01*
X0152895Y0172233D01*
X0152918Y0172233D01*
X0153555Y0172334D01*
X0154169Y0172533D01*
X0154744Y0172826D01*
X0155266Y0173206D01*
X0155722Y0173662D01*
X0156102Y0174184D01*
X0156395Y0174759D01*
X0156594Y0175373D01*
X0156695Y0176010D01*
X0156695Y0178633D01*
X0152895Y0178633D01*
X0152295Y0178633D01*
X0152895Y0178725D02*
X0162295Y0178725D01*
X0162295Y0178633D02*
X0158495Y0178633D01*
X0158495Y0176010D01*
X0158596Y0175373D01*
X0158796Y0174759D01*
X0159089Y0174184D01*
X0159468Y0173662D01*
X0159924Y0173206D01*
X0160446Y0172826D01*
X0161021Y0172533D01*
X0161635Y0172334D01*
X0162272Y0172233D01*
X0162295Y0172233D01*
X0162295Y0178633D01*
X0162295Y0179233D01*
X0158495Y0179233D01*
X0158495Y0181856D01*
X0158596Y0182493D01*
X0158796Y0183107D01*
X0159089Y0183682D01*
X0159468Y0184204D01*
X0159924Y0184660D01*
X0160446Y0185040D01*
X0161021Y0185333D01*
X0161635Y0185532D01*
X0162272Y0185633D01*
X0162295Y0185633D01*
X0162295Y0179233D01*
X0162895Y0179233D01*
X0162895Y0185633D01*
X0162918Y0185633D01*
X0163555Y0185532D01*
X0164169Y0185333D01*
X0164744Y0185040D01*
X0165266Y0184660D01*
X0165722Y0184204D01*
X0166102Y0183682D01*
X0166395Y0183107D01*
X0166594Y0182493D01*
X0166695Y0181856D01*
X0166695Y0179233D01*
X0162895Y0179233D01*
X0162895Y0178633D01*
X0162895Y0172233D01*
X0162918Y0172233D01*
X0163555Y0172334D01*
X0164169Y0172533D01*
X0164744Y0172826D01*
X0165266Y0173206D01*
X0165722Y0173662D01*
X0166102Y0174184D01*
X0166395Y0174759D01*
X0166594Y0175373D01*
X0166695Y0176010D01*
X0166695Y0178633D01*
X0162895Y0178633D01*
X0162295Y0178633D01*
X0162895Y0178725D02*
X0172295Y0178725D01*
X0172295Y0177726D02*
X0172895Y0177726D01*
X0172895Y0176728D02*
X0172295Y0176728D01*
X0172295Y0175729D02*
X0172895Y0175729D01*
X0172895Y0174731D02*
X0172295Y0174731D01*
X0172295Y0173732D02*
X0172895Y0173732D01*
X0172895Y0172734D02*
X0172295Y0172734D01*
X0170628Y0172734D02*
X0164562Y0172734D01*
X0165773Y0173732D02*
X0169417Y0173732D01*
X0168810Y0174731D02*
X0166380Y0174731D01*
X0166651Y0175729D02*
X0168540Y0175729D01*
X0168495Y0176728D02*
X0166695Y0176728D01*
X0166695Y0177726D02*
X0168495Y0177726D01*
X0168495Y0179723D02*
X0166695Y0179723D01*
X0166695Y0180722D02*
X0168495Y0180722D01*
X0168495Y0181720D02*
X0166695Y0181720D01*
X0166521Y0182719D02*
X0168669Y0182719D01*
X0169114Y0183717D02*
X0166076Y0183717D01*
X0165190Y0184716D02*
X0170000Y0184716D01*
X0171384Y0185714D02*
X0038895Y0185714D01*
X0038895Y0184716D02*
X0120000Y0184716D01*
X0119114Y0183717D02*
X0038895Y0183717D01*
X0038895Y0182719D02*
X0118669Y0182719D01*
X0118495Y0181720D02*
X0038895Y0181720D01*
X0038895Y0180722D02*
X0118495Y0180722D01*
X0118495Y0179723D02*
X0038895Y0179723D01*
X0038895Y0186713D02*
X0170385Y0186713D01*
X0169387Y0187711D02*
X0038895Y0187711D01*
X0038895Y0188710D02*
X0168388Y0188710D01*
X0167390Y0189708D02*
X0038895Y0189708D01*
X0038895Y0190707D02*
X0166391Y0190707D01*
X0165393Y0191705D02*
X0038895Y0191705D01*
X0038895Y0192704D02*
X0164394Y0192704D01*
X0163396Y0193702D02*
X0038895Y0193702D01*
X0038895Y0194701D02*
X0146732Y0194701D01*
X0145734Y0195699D02*
X0038895Y0195699D01*
X0038895Y0196698D02*
X0144735Y0196698D01*
X0143736Y0197696D02*
X0038895Y0197696D01*
X0038895Y0198695D02*
X0142738Y0198695D01*
X0141739Y0199693D02*
X0038895Y0199693D01*
X0038895Y0200692D02*
X0140741Y0200692D01*
X0139742Y0201690D02*
X0038895Y0201690D01*
X0038895Y0202689D02*
X0121724Y0202689D01*
X0120008Y0203687D02*
X0038895Y0203687D01*
X0038895Y0204686D02*
X0119273Y0204686D01*
X0118895Y0205684D02*
X0038895Y0205684D01*
X0038895Y0206683D02*
X0118895Y0206683D01*
X0118895Y0207681D02*
X0038895Y0207681D01*
X0038895Y0208680D02*
X0118895Y0208680D01*
X0118895Y0209679D02*
X0038895Y0209679D01*
X0038895Y0210677D02*
X0118895Y0210677D01*
X0122595Y0208933D02*
X0122595Y0223421D01*
X0127238Y0235640D02*
X0127952Y0235640D01*
X0127952Y0236638D02*
X0127238Y0236638D01*
X0127238Y0237637D02*
X0127952Y0237637D01*
X0128537Y0238635D02*
X0126653Y0238635D01*
X0139369Y0227671D02*
X0146594Y0227671D01*
X0147238Y0227027D01*
X0147238Y0206457D01*
X0155863Y0197833D01*
X0171528Y0197833D01*
X0186295Y0183066D01*
X0186295Y0177400D01*
X0224963Y0138733D01*
X0274583Y0138733D01*
X0279383Y0133933D01*
X0282595Y0133933D01*
X0274583Y0128733D02*
X0279383Y0123933D01*
X0282595Y0123933D01*
X0272595Y0133933D02*
X0262595Y0133933D01*
X0257595Y0143933D02*
X0272595Y0143933D01*
X0280607Y0149133D02*
X0284583Y0149133D01*
X0288995Y0153545D01*
X0288995Y0166584D01*
X0226308Y0229271D01*
X0187769Y0229271D01*
X0182595Y0234445D01*
X0187238Y0234641D02*
X0187952Y0234641D01*
X0187952Y0233643D02*
X0187238Y0233643D01*
X0187238Y0232644D02*
X0187952Y0232644D01*
X0187952Y0231646D02*
X0187657Y0231646D01*
X0187952Y0235640D02*
X0187238Y0235640D01*
X0187238Y0236638D02*
X0187952Y0236638D01*
X0187952Y0237637D02*
X0187238Y0237637D01*
X0186653Y0238635D02*
X0188537Y0238635D01*
X0192595Y0234445D02*
X0192595Y0233933D01*
X0197595Y0233933D01*
X0197595Y0238933D01*
X0202595Y0243933D01*
X0200626Y0245625D02*
X0049428Y0245625D01*
X0058828Y0212479D02*
X0058828Y0212479D01*
X0059630Y0157756D02*
X0055560Y0157756D01*
X0056559Y0156757D02*
X0058631Y0156757D01*
X0058156Y0155759D02*
X0057034Y0155759D01*
X0057395Y0154760D02*
X0057795Y0154760D01*
X0057795Y0153762D02*
X0057395Y0153762D01*
X0057306Y0152763D02*
X0057884Y0152763D01*
X0058298Y0151765D02*
X0056892Y0151765D01*
X0056217Y0150766D02*
X0058974Y0150766D01*
X0053095Y0148769D02*
X0052095Y0148769D01*
X0052095Y0147771D02*
X0053095Y0147771D01*
X0053095Y0146772D02*
X0052095Y0146772D01*
X0052095Y0145774D02*
X0053095Y0145774D01*
X0053095Y0142778D02*
X0052095Y0142778D01*
X0052095Y0141780D02*
X0053095Y0141780D01*
X0053095Y0140781D02*
X0052095Y0140781D01*
X0052095Y0139783D02*
X0053095Y0139783D01*
X0053095Y0138784D02*
X0052095Y0138784D01*
X0052095Y0137786D02*
X0053095Y0137786D01*
X0053095Y0136787D02*
X0052095Y0136787D01*
X0052095Y0135789D02*
X0053095Y0135789D01*
X0053095Y0134790D02*
X0052095Y0134790D01*
X0052095Y0133792D02*
X0038895Y0133792D01*
X0038895Y0134790D02*
X0047466Y0134790D01*
X0047730Y0135789D02*
X0038895Y0135789D01*
X0038895Y0136787D02*
X0048241Y0136787D01*
X0049094Y0137786D02*
X0038895Y0137786D01*
X0038895Y0138784D02*
X0050698Y0138784D01*
X0049461Y0139783D02*
X0038895Y0139783D01*
X0038895Y0140781D02*
X0048458Y0140781D01*
X0047856Y0141780D02*
X0038895Y0141780D01*
X0038895Y0142778D02*
X0047513Y0142778D01*
X0054492Y0138784D02*
X0136581Y0138784D01*
X0139110Y0140781D02*
X0210652Y0140781D01*
X0211650Y0139783D02*
X0181471Y0139783D01*
X0181350Y0139833D02*
X0179440Y0139833D01*
X0177676Y0139102D01*
X0176326Y0137752D01*
X0175595Y0135988D01*
X0175595Y0134078D01*
X0176326Y0132314D01*
X0177676Y0130964D01*
X0179440Y0130233D01*
X0181350Y0130233D01*
X0183114Y0130964D01*
X0184464Y0132314D01*
X0185195Y0134078D01*
X0185195Y0135988D01*
X0184464Y0137752D01*
X0183114Y0139102D01*
X0181350Y0139833D01*
X0179319Y0139783D02*
X0156927Y0139783D01*
X0156791Y0139852D02*
X0156013Y0140105D01*
X0155295Y0140219D01*
X0155295Y0135533D01*
X0154295Y0135533D01*
X0154295Y0134533D01*
X0149610Y0134533D01*
X0149723Y0133815D01*
X0149976Y0133037D01*
X0150348Y0132308D01*
X0150829Y0131645D01*
X0151408Y0131067D01*
X0152070Y0130586D01*
X0152799Y0130214D01*
X0153577Y0129961D01*
X0154295Y0129847D01*
X0154295Y0134533D01*
X0155295Y0134533D01*
X0155295Y0129847D01*
X0156013Y0129961D01*
X0156791Y0130214D01*
X0157521Y0130586D01*
X0158183Y0131067D01*
X0158761Y0131645D01*
X0159243Y0132308D01*
X0159614Y0133037D01*
X0159867Y0133815D01*
X0159981Y0134533D01*
X0155295Y0134533D01*
X0155295Y0135533D01*
X0159981Y0135533D01*
X0159867Y0136251D01*
X0159614Y0137029D01*
X0159243Y0137758D01*
X0158761Y0138421D01*
X0158183Y0138999D01*
X0157521Y0139480D01*
X0156791Y0139852D01*
X0155295Y0139783D02*
X0154295Y0139783D01*
X0154295Y0140219D02*
X0153577Y0140105D01*
X0152799Y0139852D01*
X0152070Y0139480D01*
X0151408Y0138999D01*
X0150829Y0138421D01*
X0150348Y0137758D01*
X0149976Y0137029D01*
X0149723Y0136251D01*
X0149610Y0135533D01*
X0154295Y0135533D01*
X0154295Y0140219D01*
X0154295Y0138784D02*
X0155295Y0138784D01*
X0155295Y0137786D02*
X0154295Y0137786D01*
X0154295Y0136787D02*
X0155295Y0136787D01*
X0155295Y0135789D02*
X0154295Y0135789D01*
X0154295Y0134790D02*
X0145101Y0134790D01*
X0146099Y0133792D02*
X0149731Y0133792D01*
X0150100Y0132793D02*
X0147098Y0132793D01*
X0148096Y0131795D02*
X0150720Y0131795D01*
X0151780Y0130796D02*
X0149095Y0130796D01*
X0150093Y0129798D02*
X0221635Y0129798D01*
X0220637Y0130796D02*
X0182709Y0130796D01*
X0183945Y0131795D02*
X0219638Y0131795D01*
X0218640Y0132793D02*
X0184663Y0132793D01*
X0185076Y0133792D02*
X0217641Y0133792D01*
X0216643Y0134790D02*
X0185195Y0134790D01*
X0185195Y0135789D02*
X0215644Y0135789D01*
X0214646Y0136787D02*
X0184864Y0136787D01*
X0184431Y0137786D02*
X0213647Y0137786D01*
X0212649Y0138784D02*
X0183432Y0138784D01*
X0177358Y0138784D02*
X0158398Y0138784D01*
X0159223Y0137786D02*
X0176360Y0137786D01*
X0175926Y0136787D02*
X0159693Y0136787D01*
X0159940Y0135789D02*
X0175595Y0135789D01*
X0175595Y0134790D02*
X0155295Y0134790D01*
X0155295Y0133792D02*
X0154295Y0133792D01*
X0154295Y0132793D02*
X0155295Y0132793D01*
X0155295Y0131795D02*
X0154295Y0131795D01*
X0154295Y0130796D02*
X0155295Y0130796D01*
X0157810Y0130796D02*
X0178081Y0130796D01*
X0176845Y0131795D02*
X0158870Y0131795D01*
X0159490Y0132793D02*
X0176127Y0132793D01*
X0175714Y0133792D02*
X0159859Y0133792D01*
X0157614Y0126802D02*
X0177576Y0126802D01*
X0176577Y0125804D02*
X0158613Y0125804D01*
X0159174Y0124805D02*
X0176016Y0124805D01*
X0175603Y0123807D02*
X0159587Y0123807D01*
X0159595Y0122808D02*
X0175595Y0122808D01*
X0175624Y0121810D02*
X0159567Y0121810D01*
X0159153Y0120811D02*
X0176037Y0120811D01*
X0176627Y0119812D02*
X0158563Y0119812D01*
X0157564Y0118814D02*
X0177626Y0118814D01*
X0184774Y0124805D02*
X0190416Y0124805D01*
X0190003Y0123807D02*
X0185187Y0123807D01*
X0184213Y0125804D02*
X0190977Y0125804D01*
X0191976Y0126802D02*
X0183214Y0126802D01*
X0190043Y0115818D02*
X0296295Y0115818D01*
X0296295Y0114820D02*
X0189045Y0114820D01*
X0188046Y0113821D02*
X0296295Y0113821D01*
X0283623Y0074292D02*
X0283623Y0074292D01*
X0265500Y0070156D02*
X0265500Y0070156D01*
X0278828Y0042479D02*
X0278828Y0042479D01*
X0283623Y0043574D02*
X0283623Y0043574D01*
X0215945Y0106832D02*
X0199678Y0106832D01*
X0199190Y0107830D02*
X0216404Y0107830D01*
X0217403Y0108829D02*
X0198353Y0108829D01*
X0196840Y0109827D02*
X0219427Y0109827D01*
X0217626Y0118814D02*
X0197564Y0118814D01*
X0198563Y0119812D02*
X0216627Y0119812D01*
X0216037Y0120811D02*
X0199153Y0120811D01*
X0199567Y0121810D02*
X0215624Y0121810D01*
X0215595Y0122808D02*
X0199595Y0122808D01*
X0199587Y0123807D02*
X0215603Y0123807D01*
X0216016Y0124805D02*
X0199174Y0124805D01*
X0198613Y0125804D02*
X0216577Y0125804D01*
X0217576Y0126802D02*
X0197614Y0126802D01*
X0185895Y0113933D02*
X0112595Y0113933D01*
X0102595Y0123933D01*
X0062595Y0123933D01*
X0058174Y0125804D02*
X0057455Y0125804D01*
X0057722Y0124805D02*
X0057795Y0124805D01*
X0057795Y0123807D02*
X0053095Y0123807D01*
X0053095Y0124805D02*
X0052095Y0124805D01*
X0052095Y0123807D02*
X0038895Y0123807D01*
X0038895Y0124805D02*
X0047468Y0124805D01*
X0047735Y0125804D02*
X0038895Y0125804D01*
X0038895Y0126802D02*
X0048252Y0126802D01*
X0049109Y0127801D02*
X0038895Y0127801D01*
X0038895Y0128799D02*
X0050744Y0128799D01*
X0052095Y0128799D02*
X0053095Y0128799D01*
X0053095Y0127801D02*
X0052095Y0127801D01*
X0052095Y0126802D02*
X0053095Y0126802D01*
X0053095Y0125804D02*
X0052095Y0125804D01*
X0052095Y0122808D02*
X0053095Y0122808D01*
X0053095Y0121810D02*
X0052095Y0121810D01*
X0052095Y0120811D02*
X0053095Y0120811D01*
X0053095Y0119812D02*
X0052095Y0119812D01*
X0052095Y0118814D02*
X0053095Y0118814D01*
X0053515Y0118814D02*
X0105451Y0118814D01*
X0104453Y0119812D02*
X0065190Y0119812D01*
X0066261Y0120811D02*
X0103454Y0120811D01*
X0102456Y0121810D02*
X0066911Y0121810D01*
X0060000Y0119812D02*
X0055770Y0119812D01*
X0056754Y0120811D02*
X0058929Y0120811D01*
X0058279Y0121810D02*
X0057349Y0121810D01*
X0057682Y0122808D02*
X0057866Y0122808D01*
X0058676Y0126802D02*
X0056938Y0126802D01*
X0056082Y0127801D02*
X0059674Y0127801D01*
X0060036Y0129798D02*
X0055750Y0129798D01*
X0056744Y0130796D02*
X0058944Y0130796D01*
X0058285Y0131795D02*
X0057342Y0131795D01*
X0057679Y0132793D02*
X0057872Y0132793D01*
X0057795Y0133792D02*
X0053095Y0133792D01*
X0053095Y0132793D02*
X0052095Y0132793D01*
X0052095Y0131795D02*
X0053095Y0131795D01*
X0053095Y0130796D02*
X0052095Y0130796D01*
X0052095Y0129798D02*
X0053095Y0129798D01*
X0054447Y0128799D02*
X0106566Y0128799D01*
X0103695Y0133933D02*
X0062595Y0133933D01*
X0058168Y0135789D02*
X0057460Y0135789D01*
X0057724Y0134790D02*
X0057795Y0134790D01*
X0056949Y0136787D02*
X0058661Y0136787D01*
X0059660Y0137786D02*
X0056096Y0137786D01*
X0055729Y0139783D02*
X0060072Y0139783D01*
X0058959Y0140781D02*
X0056733Y0140781D01*
X0057334Y0141780D02*
X0058292Y0141780D01*
X0057878Y0142778D02*
X0057677Y0142778D01*
X0062595Y0143933D02*
X0133695Y0143933D01*
X0137113Y0142778D02*
X0208655Y0142778D01*
X0209653Y0141780D02*
X0138111Y0141780D01*
X0140108Y0139783D02*
X0152663Y0139783D01*
X0151192Y0138784D02*
X0141107Y0138784D01*
X0142105Y0137786D02*
X0150367Y0137786D01*
X0149897Y0136787D02*
X0143104Y0136787D01*
X0144102Y0135789D02*
X0149650Y0135789D01*
X0151092Y0128799D02*
X0222634Y0128799D01*
X0202664Y0148769D02*
X0183120Y0148769D01*
X0184118Y0149768D02*
X0201665Y0149768D01*
X0200667Y0150766D02*
X0184735Y0150766D01*
X0185148Y0151765D02*
X0199668Y0151765D01*
X0198670Y0152763D02*
X0185195Y0152763D01*
X0185195Y0153762D02*
X0197671Y0153762D01*
X0196672Y0154760D02*
X0184792Y0154760D01*
X0184258Y0155759D02*
X0195674Y0155759D01*
X0178699Y0172734D02*
X0174562Y0172734D01*
X0175773Y0173732D02*
X0177701Y0173732D01*
X0176702Y0174731D02*
X0176380Y0174731D01*
X0178495Y0177463D02*
X0177895Y0178063D01*
X0177895Y0183728D01*
X0165390Y0196233D01*
X0170865Y0196233D01*
X0181583Y0185515D01*
X0181021Y0185333D01*
X0180446Y0185040D01*
X0179924Y0184660D01*
X0179468Y0184204D01*
X0179089Y0183682D01*
X0178796Y0183107D01*
X0178596Y0182493D01*
X0178495Y0181856D01*
X0178495Y0179233D01*
X0182295Y0179233D01*
X0182295Y0178633D01*
X0178495Y0178633D01*
X0178495Y0177463D01*
X0178495Y0177726D02*
X0178232Y0177726D01*
X0177895Y0178725D02*
X0182295Y0178725D01*
X0178495Y0179723D02*
X0177895Y0179723D01*
X0177895Y0180722D02*
X0178495Y0180722D01*
X0178495Y0181720D02*
X0177895Y0181720D01*
X0177895Y0182719D02*
X0178669Y0182719D01*
X0179114Y0183717D02*
X0177895Y0183717D01*
X0176908Y0184716D02*
X0180000Y0184716D01*
X0181384Y0185714D02*
X0175909Y0185714D01*
X0174911Y0186713D02*
X0180385Y0186713D01*
X0179387Y0187711D02*
X0173912Y0187711D01*
X0172914Y0188710D02*
X0178388Y0188710D01*
X0177390Y0189708D02*
X0171915Y0189708D01*
X0170917Y0190707D02*
X0176391Y0190707D01*
X0175393Y0191705D02*
X0169918Y0191705D01*
X0168920Y0192704D02*
X0174394Y0192704D01*
X0173396Y0193702D02*
X0167921Y0193702D01*
X0166923Y0194701D02*
X0172397Y0194701D01*
X0171399Y0195699D02*
X0165924Y0195699D01*
X0173790Y0197833D02*
X0179265Y0197833D01*
X0191583Y0185515D01*
X0191021Y0185333D01*
X0190446Y0185040D01*
X0189924Y0184660D01*
X0189468Y0184204D01*
X0189089Y0183682D01*
X0188796Y0183107D01*
X0188596Y0182493D01*
X0188495Y0181856D01*
X0188495Y0179233D01*
X0192295Y0179233D01*
X0192295Y0178633D01*
X0188495Y0178633D01*
X0188495Y0177463D01*
X0187895Y0178063D01*
X0187895Y0183728D01*
X0173790Y0197833D01*
X0173927Y0197696D02*
X0179402Y0197696D01*
X0180400Y0196698D02*
X0174926Y0196698D01*
X0175924Y0195699D02*
X0181399Y0195699D01*
X0182397Y0194701D02*
X0176923Y0194701D01*
X0177921Y0193702D02*
X0183396Y0193702D01*
X0184394Y0192704D02*
X0178920Y0192704D01*
X0179918Y0191705D02*
X0185393Y0191705D01*
X0186391Y0190707D02*
X0180917Y0190707D01*
X0181915Y0189708D02*
X0187390Y0189708D01*
X0188388Y0188710D02*
X0182914Y0188710D01*
X0183912Y0187711D02*
X0189387Y0187711D01*
X0190385Y0186713D02*
X0184911Y0186713D01*
X0185909Y0185714D02*
X0191384Y0185714D01*
X0190000Y0184716D02*
X0186908Y0184716D01*
X0187895Y0183717D02*
X0189114Y0183717D01*
X0188669Y0182719D02*
X0187895Y0182719D01*
X0187895Y0181720D02*
X0188495Y0181720D01*
X0188495Y0180722D02*
X0187895Y0180722D01*
X0187895Y0179723D02*
X0188495Y0179723D01*
X0187895Y0178725D02*
X0192295Y0178725D01*
X0188495Y0177726D02*
X0188232Y0177726D01*
X0198232Y0177726D02*
X0198495Y0177726D01*
X0162895Y0177726D02*
X0162295Y0177726D01*
X0162295Y0176728D02*
X0162895Y0176728D01*
X0162895Y0175729D02*
X0162295Y0175729D01*
X0162295Y0174731D02*
X0162895Y0174731D01*
X0162895Y0173732D02*
X0162295Y0173732D01*
X0162295Y0172734D02*
X0162895Y0172734D01*
X0160628Y0172734D02*
X0154562Y0172734D01*
X0155773Y0173732D02*
X0159417Y0173732D01*
X0158810Y0174731D02*
X0156380Y0174731D01*
X0156651Y0175729D02*
X0158540Y0175729D01*
X0158495Y0176728D02*
X0156695Y0176728D01*
X0156695Y0177726D02*
X0158495Y0177726D01*
X0158495Y0179723D02*
X0156695Y0179723D01*
X0156695Y0180722D02*
X0158495Y0180722D01*
X0158495Y0181720D02*
X0156695Y0181720D01*
X0156521Y0182719D02*
X0158669Y0182719D01*
X0159114Y0183717D02*
X0156076Y0183717D01*
X0155190Y0184716D02*
X0160000Y0184716D01*
X0162295Y0184716D02*
X0162895Y0184716D01*
X0162895Y0183717D02*
X0162295Y0183717D01*
X0162295Y0182719D02*
X0162895Y0182719D01*
X0162895Y0181720D02*
X0162295Y0181720D01*
X0162295Y0180722D02*
X0162895Y0180722D01*
X0162895Y0179723D02*
X0162295Y0179723D01*
X0152895Y0179723D02*
X0152295Y0179723D01*
X0152295Y0180722D02*
X0152895Y0180722D01*
X0152895Y0181720D02*
X0152295Y0181720D01*
X0152295Y0182719D02*
X0152895Y0182719D01*
X0152895Y0183717D02*
X0152295Y0183717D01*
X0152295Y0184716D02*
X0152895Y0184716D01*
X0150000Y0184716D02*
X0145190Y0184716D01*
X0146076Y0183717D02*
X0149114Y0183717D01*
X0148669Y0182719D02*
X0146521Y0182719D01*
X0146695Y0181720D02*
X0148495Y0181720D01*
X0148495Y0180722D02*
X0146695Y0180722D01*
X0146695Y0179723D02*
X0148495Y0179723D01*
X0148495Y0177726D02*
X0146695Y0177726D01*
X0146695Y0176728D02*
X0148495Y0176728D01*
X0148540Y0175729D02*
X0146651Y0175729D01*
X0146380Y0174731D02*
X0148810Y0174731D01*
X0149417Y0173732D02*
X0145773Y0173732D01*
X0144562Y0172734D02*
X0150628Y0172734D01*
X0152295Y0172734D02*
X0152895Y0172734D01*
X0152895Y0173732D02*
X0152295Y0173732D01*
X0152295Y0174731D02*
X0152895Y0174731D01*
X0152895Y0175729D02*
X0152295Y0175729D01*
X0152295Y0176728D02*
X0152895Y0176728D01*
X0152895Y0177726D02*
X0152295Y0177726D01*
X0142895Y0177726D02*
X0142295Y0177726D01*
X0142295Y0176728D02*
X0142895Y0176728D01*
X0142895Y0175729D02*
X0142295Y0175729D01*
X0142295Y0174731D02*
X0142895Y0174731D01*
X0142895Y0173732D02*
X0142295Y0173732D01*
X0142295Y0172734D02*
X0142895Y0172734D01*
X0140628Y0172734D02*
X0134562Y0172734D01*
X0135773Y0173732D02*
X0139417Y0173732D01*
X0138810Y0174731D02*
X0136380Y0174731D01*
X0136651Y0175729D02*
X0138540Y0175729D01*
X0138495Y0176728D02*
X0136695Y0176728D01*
X0136695Y0177726D02*
X0138495Y0177726D01*
X0138495Y0179723D02*
X0136695Y0179723D01*
X0136695Y0180722D02*
X0138495Y0180722D01*
X0138495Y0181720D02*
X0136695Y0181720D01*
X0136521Y0182719D02*
X0138669Y0182719D01*
X0139114Y0183717D02*
X0136076Y0183717D01*
X0135190Y0184716D02*
X0140000Y0184716D01*
X0142295Y0184716D02*
X0142895Y0184716D01*
X0142895Y0183717D02*
X0142295Y0183717D01*
X0142295Y0182719D02*
X0142895Y0182719D01*
X0142895Y0181720D02*
X0142295Y0181720D01*
X0142295Y0180722D02*
X0142895Y0180722D01*
X0142895Y0179723D02*
X0142295Y0179723D01*
X0132895Y0179723D02*
X0132295Y0179723D01*
X0132295Y0180722D02*
X0132895Y0180722D01*
X0132895Y0181720D02*
X0132295Y0181720D01*
X0132295Y0182719D02*
X0132895Y0182719D01*
X0132895Y0183717D02*
X0132295Y0183717D01*
X0132295Y0184716D02*
X0132895Y0184716D01*
X0130000Y0184716D02*
X0125190Y0184716D01*
X0126076Y0183717D02*
X0129114Y0183717D01*
X0128669Y0182719D02*
X0126521Y0182719D01*
X0126695Y0181720D02*
X0128495Y0181720D01*
X0128495Y0180722D02*
X0126695Y0180722D01*
X0126695Y0179723D02*
X0128495Y0179723D01*
X0128495Y0177726D02*
X0126695Y0177726D01*
X0126695Y0176728D02*
X0128495Y0176728D01*
X0128540Y0175729D02*
X0126651Y0175729D01*
X0126380Y0174731D02*
X0128810Y0174731D01*
X0129417Y0173732D02*
X0125773Y0173732D01*
X0124562Y0172734D02*
X0130628Y0172734D01*
X0132295Y0172734D02*
X0132895Y0172734D01*
X0132895Y0173732D02*
X0132295Y0173732D01*
X0132295Y0174731D02*
X0132895Y0174731D01*
X0132895Y0175729D02*
X0132295Y0175729D01*
X0132295Y0176728D02*
X0132895Y0176728D01*
X0132895Y0177726D02*
X0132295Y0177726D01*
X0122895Y0177726D02*
X0122295Y0177726D01*
X0122295Y0176728D02*
X0122895Y0176728D01*
X0122895Y0175729D02*
X0122295Y0175729D01*
X0122295Y0174731D02*
X0122895Y0174731D01*
X0122895Y0173732D02*
X0122295Y0173732D01*
X0122295Y0172734D02*
X0122895Y0172734D01*
X0122895Y0179723D02*
X0122295Y0179723D01*
X0122295Y0180722D02*
X0122895Y0180722D01*
X0122895Y0181720D02*
X0122295Y0181720D01*
X0122295Y0182719D02*
X0122895Y0182719D01*
X0122895Y0183717D02*
X0122295Y0183717D01*
X0122295Y0184716D02*
X0122895Y0184716D01*
X0142595Y0208933D02*
X0142595Y0223421D01*
X0147657Y0231646D02*
X0147952Y0231646D01*
X0147952Y0232644D02*
X0147238Y0232644D01*
X0147238Y0233643D02*
X0147952Y0233643D01*
X0147952Y0234641D02*
X0147238Y0234641D01*
X0147238Y0235640D02*
X0147952Y0235640D01*
X0147952Y0236638D02*
X0147238Y0236638D01*
X0147238Y0237637D02*
X0147952Y0237637D01*
X0148537Y0238635D02*
X0146653Y0238635D01*
X0152595Y0223421D02*
X0152595Y0208933D01*
X0162595Y0208933D02*
X0162595Y0223421D01*
X0167657Y0231646D02*
X0167952Y0231646D01*
X0167952Y0232644D02*
X0167238Y0232644D01*
X0167238Y0233643D02*
X0167952Y0233643D01*
X0167952Y0234641D02*
X0167238Y0234641D01*
X0167238Y0235640D02*
X0167952Y0235640D01*
X0167952Y0236638D02*
X0167238Y0236638D01*
X0167238Y0237637D02*
X0167952Y0237637D01*
X0168537Y0238635D02*
X0166653Y0238635D01*
X0172595Y0234445D02*
X0179369Y0227671D01*
X0225646Y0227671D01*
X0287395Y0165921D01*
X0287395Y0161945D01*
X0284583Y0159133D01*
X0280607Y0159133D01*
X0279383Y0153933D02*
X0274583Y0158733D01*
X0279383Y0153933D02*
X0282595Y0153933D01*
X0212595Y0208933D02*
X0212595Y0223421D01*
X0202595Y0223421D02*
X0202595Y0208933D01*
X0192595Y0208933D02*
X0192595Y0223421D01*
X0182595Y0223421D02*
X0182595Y0208933D01*
X0172595Y0208933D02*
X0172595Y0223421D01*
X0177657Y0231646D02*
X0177952Y0231646D01*
X0177952Y0232644D02*
X0177238Y0232644D01*
X0177238Y0233643D02*
X0177952Y0233643D01*
X0177952Y0234641D02*
X0177238Y0234641D01*
X0177238Y0235640D02*
X0177952Y0235640D01*
X0177952Y0236638D02*
X0177238Y0236638D01*
X0177238Y0237637D02*
X0177952Y0237637D01*
X0178537Y0238635D02*
X0176653Y0238635D01*
X0204565Y0245625D02*
X0205626Y0245625D01*
X0278828Y0212479D02*
X0278828Y0212479D01*
X0279682Y0212674D02*
X0296295Y0212674D01*
X0296295Y0213673D02*
X0283795Y0213673D01*
X0283623Y0213574D02*
X0283623Y0213574D01*
X0285524Y0214671D02*
X0296295Y0214671D01*
X0296295Y0215670D02*
X0287253Y0215670D01*
X0287883Y0216033D02*
X0287883Y0216033D01*
X0287883Y0216033D01*
X0288472Y0216668D02*
X0296295Y0216668D01*
X0296295Y0217667D02*
X0289399Y0217667D01*
X0290325Y0218665D02*
X0296295Y0218665D01*
X0296295Y0219664D02*
X0291240Y0219664D01*
X0291721Y0220662D02*
X0296295Y0220662D01*
X0296295Y0221661D02*
X0292202Y0221661D01*
X0292683Y0222659D02*
X0296295Y0222659D01*
X0296295Y0223658D02*
X0293164Y0223658D01*
X0293362Y0224070D02*
X0293362Y0224070D01*
X0293450Y0224656D02*
X0296295Y0224656D01*
X0296295Y0225655D02*
X0293601Y0225655D01*
X0293751Y0226653D02*
X0296295Y0226653D01*
X0296295Y0227652D02*
X0293902Y0227652D01*
X0294052Y0228650D02*
X0296295Y0228650D01*
X0296255Y0229649D02*
X0293987Y0229649D01*
X0293837Y0230647D02*
X0296199Y0230647D01*
X0296036Y0231646D02*
X0293686Y0231646D01*
X0293536Y0232644D02*
X0295808Y0232644D01*
X0295580Y0233643D02*
X0293385Y0233643D01*
X0293362Y0233797D02*
X0293362Y0233797D01*
X0292955Y0234641D02*
X0295353Y0234641D01*
X0294990Y0235640D02*
X0292474Y0235640D01*
X0291994Y0236638D02*
X0294509Y0236638D01*
X0294029Y0237637D02*
X0291513Y0237637D01*
X0291228Y0238228D02*
X0291228Y0238228D01*
X0290850Y0238635D02*
X0293548Y0238635D01*
X0292829Y0239634D02*
X0289923Y0239634D01*
X0288997Y0240632D02*
X0292033Y0240632D01*
X0291237Y0241631D02*
X0288071Y0241631D01*
X0286504Y0242629D02*
X0290224Y0242629D01*
X0150024Y0121810D02*
X0145167Y0121810D01*
X0144753Y0120811D02*
X0150437Y0120811D01*
X0151027Y0119812D02*
X0144163Y0119812D01*
X0143164Y0118814D02*
X0152026Y0118814D01*
X0158353Y0108829D02*
X0177403Y0108829D01*
X0176404Y0107830D02*
X0159190Y0107830D01*
X0159678Y0106832D02*
X0175945Y0106832D01*
X0175595Y0105833D02*
X0159933Y0105833D01*
X0159870Y0103836D02*
X0175695Y0103836D01*
X0175595Y0104835D02*
X0155295Y0104835D01*
X0159513Y0102838D02*
X0176109Y0102838D01*
X0176801Y0101839D02*
X0158902Y0101839D01*
X0157872Y0100841D02*
X0177973Y0100841D01*
X0177621Y0096847D02*
X0157570Y0096847D01*
X0158568Y0095848D02*
X0176622Y0095848D01*
X0176035Y0094850D02*
X0159155Y0094850D01*
X0159569Y0093851D02*
X0175621Y0093851D01*
X0175595Y0092853D02*
X0159595Y0092853D01*
X0159585Y0091854D02*
X0175605Y0091854D01*
X0176019Y0090856D02*
X0159172Y0090856D01*
X0158607Y0089857D02*
X0176583Y0089857D01*
X0177581Y0088859D02*
X0157609Y0088859D01*
X0151981Y0088859D02*
X0038895Y0088859D01*
X0038895Y0089857D02*
X0150983Y0089857D01*
X0150419Y0090856D02*
X0038895Y0090856D01*
X0038895Y0091854D02*
X0150005Y0091854D01*
X0149995Y0092853D02*
X0038895Y0092853D01*
X0038895Y0093851D02*
X0150021Y0093851D01*
X0150435Y0094850D02*
X0038895Y0094850D01*
X0038895Y0095848D02*
X0151022Y0095848D01*
X0135595Y0105833D02*
X0119933Y0105833D01*
X0119678Y0106832D02*
X0135945Y0106832D01*
X0136404Y0107830D02*
X0119190Y0107830D01*
X0118353Y0108829D02*
X0137403Y0108829D01*
X0112751Y0109827D02*
X0038895Y0109827D01*
X0038895Y0108829D02*
X0111237Y0108829D01*
X0110400Y0107830D02*
X0038895Y0107830D01*
X0038895Y0106832D02*
X0109912Y0106832D01*
X0111443Y0112823D02*
X0038895Y0112823D01*
X0038895Y0113821D02*
X0110444Y0113821D01*
X0109446Y0114820D02*
X0038895Y0114820D01*
X0038895Y0115818D02*
X0108447Y0115818D01*
X0107449Y0116817D02*
X0038895Y0116817D01*
X0038895Y0117815D02*
X0106450Y0117815D01*
X0051675Y0118814D02*
X0038895Y0118814D01*
X0038895Y0119812D02*
X0049420Y0119812D01*
X0048436Y0120811D02*
X0038895Y0120811D01*
X0038895Y0121810D02*
X0047841Y0121810D01*
X0047509Y0122808D02*
X0038895Y0122808D01*
X0038895Y0129798D02*
X0049440Y0129798D01*
X0048447Y0130796D02*
X0038895Y0130796D01*
X0038895Y0131795D02*
X0047849Y0131795D01*
X0047511Y0132793D02*
X0038895Y0132793D01*
X0183388Y0108829D02*
X0191237Y0108829D01*
X0190400Y0107830D02*
X0184386Y0107830D01*
X0184846Y0106832D02*
X0189912Y0106832D01*
X0189657Y0105833D02*
X0185195Y0105833D01*
D14*
X0257595Y0143933D03*
X0262595Y0133933D03*
X0207595Y0243933D03*
X0202595Y0243933D03*
M02*
