G75*
%MOIN*%
%OFA0B0*%
%FSLAX25Y25*%
%IPPOS*%
%LPD*%
%AMOC8*
5,1,8,0,0,1.08239X$1,22.5*
%
%ADD10C,0.00000*%
%ADD11C,0.07400*%
%ADD12C,0.05200*%
%ADD13R,0.05512X0.04724*%
%ADD14R,0.07087X0.06299*%
%ADD15C,0.01000*%
%ADD16C,0.02978*%
D10*
X0057595Y0038933D02*
X0277595Y0038933D01*
X0271099Y0058933D02*
X0271101Y0059094D01*
X0271107Y0059254D01*
X0271117Y0059415D01*
X0271131Y0059575D01*
X0271149Y0059734D01*
X0271170Y0059894D01*
X0271196Y0060052D01*
X0271226Y0060210D01*
X0271259Y0060367D01*
X0271297Y0060524D01*
X0271338Y0060679D01*
X0271383Y0060833D01*
X0271432Y0060986D01*
X0271485Y0061138D01*
X0271541Y0061288D01*
X0271601Y0061437D01*
X0271665Y0061585D01*
X0271732Y0061731D01*
X0271803Y0061875D01*
X0271878Y0062017D01*
X0271956Y0062158D01*
X0272037Y0062296D01*
X0272122Y0062433D01*
X0272211Y0062567D01*
X0272302Y0062699D01*
X0272397Y0062829D01*
X0272495Y0062956D01*
X0272596Y0063081D01*
X0272700Y0063204D01*
X0272807Y0063323D01*
X0272917Y0063440D01*
X0273030Y0063555D01*
X0273146Y0063666D01*
X0273264Y0063775D01*
X0273385Y0063880D01*
X0273509Y0063983D01*
X0273635Y0064083D01*
X0273764Y0064179D01*
X0273895Y0064272D01*
X0274028Y0064362D01*
X0274163Y0064449D01*
X0274301Y0064532D01*
X0274440Y0064611D01*
X0274582Y0064688D01*
X0274725Y0064761D01*
X0274870Y0064830D01*
X0275017Y0064895D01*
X0275165Y0064957D01*
X0275315Y0065016D01*
X0275466Y0065070D01*
X0275618Y0065121D01*
X0275772Y0065168D01*
X0275927Y0065211D01*
X0276082Y0065250D01*
X0276239Y0065286D01*
X0276397Y0065318D01*
X0276555Y0065345D01*
X0276714Y0065369D01*
X0276873Y0065389D01*
X0277033Y0065405D01*
X0277194Y0065417D01*
X0277354Y0065425D01*
X0277515Y0065429D01*
X0277675Y0065429D01*
X0277836Y0065425D01*
X0277996Y0065417D01*
X0278157Y0065405D01*
X0278317Y0065389D01*
X0278476Y0065369D01*
X0278635Y0065345D01*
X0278793Y0065318D01*
X0278951Y0065286D01*
X0279108Y0065250D01*
X0279263Y0065211D01*
X0279418Y0065168D01*
X0279572Y0065121D01*
X0279724Y0065070D01*
X0279875Y0065016D01*
X0280025Y0064957D01*
X0280173Y0064895D01*
X0280320Y0064830D01*
X0280465Y0064761D01*
X0280608Y0064688D01*
X0280750Y0064611D01*
X0280889Y0064532D01*
X0281027Y0064449D01*
X0281162Y0064362D01*
X0281295Y0064272D01*
X0281426Y0064179D01*
X0281555Y0064083D01*
X0281681Y0063983D01*
X0281805Y0063880D01*
X0281926Y0063775D01*
X0282044Y0063666D01*
X0282160Y0063555D01*
X0282273Y0063440D01*
X0282383Y0063323D01*
X0282490Y0063204D01*
X0282594Y0063081D01*
X0282695Y0062956D01*
X0282793Y0062829D01*
X0282888Y0062699D01*
X0282979Y0062567D01*
X0283068Y0062433D01*
X0283153Y0062296D01*
X0283234Y0062158D01*
X0283312Y0062017D01*
X0283387Y0061875D01*
X0283458Y0061731D01*
X0283525Y0061585D01*
X0283589Y0061437D01*
X0283649Y0061288D01*
X0283705Y0061138D01*
X0283758Y0060986D01*
X0283807Y0060833D01*
X0283852Y0060679D01*
X0283893Y0060524D01*
X0283931Y0060367D01*
X0283964Y0060210D01*
X0283994Y0060052D01*
X0284020Y0059894D01*
X0284041Y0059734D01*
X0284059Y0059575D01*
X0284073Y0059415D01*
X0284083Y0059254D01*
X0284089Y0059094D01*
X0284091Y0058933D01*
X0284089Y0058772D01*
X0284083Y0058612D01*
X0284073Y0058451D01*
X0284059Y0058291D01*
X0284041Y0058132D01*
X0284020Y0057972D01*
X0283994Y0057814D01*
X0283964Y0057656D01*
X0283931Y0057499D01*
X0283893Y0057342D01*
X0283852Y0057187D01*
X0283807Y0057033D01*
X0283758Y0056880D01*
X0283705Y0056728D01*
X0283649Y0056578D01*
X0283589Y0056429D01*
X0283525Y0056281D01*
X0283458Y0056135D01*
X0283387Y0055991D01*
X0283312Y0055849D01*
X0283234Y0055708D01*
X0283153Y0055570D01*
X0283068Y0055433D01*
X0282979Y0055299D01*
X0282888Y0055167D01*
X0282793Y0055037D01*
X0282695Y0054910D01*
X0282594Y0054785D01*
X0282490Y0054662D01*
X0282383Y0054543D01*
X0282273Y0054426D01*
X0282160Y0054311D01*
X0282044Y0054200D01*
X0281926Y0054091D01*
X0281805Y0053986D01*
X0281681Y0053883D01*
X0281555Y0053783D01*
X0281426Y0053687D01*
X0281295Y0053594D01*
X0281162Y0053504D01*
X0281027Y0053417D01*
X0280889Y0053334D01*
X0280750Y0053255D01*
X0280608Y0053178D01*
X0280465Y0053105D01*
X0280320Y0053036D01*
X0280173Y0052971D01*
X0280025Y0052909D01*
X0279875Y0052850D01*
X0279724Y0052796D01*
X0279572Y0052745D01*
X0279418Y0052698D01*
X0279263Y0052655D01*
X0279108Y0052616D01*
X0278951Y0052580D01*
X0278793Y0052548D01*
X0278635Y0052521D01*
X0278476Y0052497D01*
X0278317Y0052477D01*
X0278157Y0052461D01*
X0277996Y0052449D01*
X0277836Y0052441D01*
X0277675Y0052437D01*
X0277515Y0052437D01*
X0277354Y0052441D01*
X0277194Y0052449D01*
X0277033Y0052461D01*
X0276873Y0052477D01*
X0276714Y0052497D01*
X0276555Y0052521D01*
X0276397Y0052548D01*
X0276239Y0052580D01*
X0276082Y0052616D01*
X0275927Y0052655D01*
X0275772Y0052698D01*
X0275618Y0052745D01*
X0275466Y0052796D01*
X0275315Y0052850D01*
X0275165Y0052909D01*
X0275017Y0052971D01*
X0274870Y0053036D01*
X0274725Y0053105D01*
X0274582Y0053178D01*
X0274440Y0053255D01*
X0274301Y0053334D01*
X0274163Y0053417D01*
X0274028Y0053504D01*
X0273895Y0053594D01*
X0273764Y0053687D01*
X0273635Y0053783D01*
X0273509Y0053883D01*
X0273385Y0053986D01*
X0273264Y0054091D01*
X0273146Y0054200D01*
X0273030Y0054311D01*
X0272917Y0054426D01*
X0272807Y0054543D01*
X0272700Y0054662D01*
X0272596Y0054785D01*
X0272495Y0054910D01*
X0272397Y0055037D01*
X0272302Y0055167D01*
X0272211Y0055299D01*
X0272122Y0055433D01*
X0272037Y0055570D01*
X0271956Y0055708D01*
X0271878Y0055849D01*
X0271803Y0055991D01*
X0271732Y0056135D01*
X0271665Y0056281D01*
X0271601Y0056429D01*
X0271541Y0056578D01*
X0271485Y0056728D01*
X0271432Y0056880D01*
X0271383Y0057033D01*
X0271338Y0057187D01*
X0271297Y0057342D01*
X0271259Y0057499D01*
X0271226Y0057656D01*
X0271196Y0057814D01*
X0271170Y0057972D01*
X0271149Y0058132D01*
X0271131Y0058291D01*
X0271117Y0058451D01*
X0271107Y0058612D01*
X0271101Y0058772D01*
X0271099Y0058933D01*
X0277595Y0038933D02*
X0278138Y0039000D01*
X0278679Y0039081D01*
X0279218Y0039174D01*
X0279755Y0039280D01*
X0280289Y0039399D01*
X0280820Y0039531D01*
X0281347Y0039676D01*
X0281871Y0039833D01*
X0282391Y0040003D01*
X0282907Y0040186D01*
X0283418Y0040380D01*
X0283924Y0040588D01*
X0284425Y0040807D01*
X0284921Y0041039D01*
X0285411Y0041282D01*
X0285895Y0041537D01*
X0286372Y0041804D01*
X0286843Y0042082D01*
X0287308Y0042372D01*
X0287765Y0042672D01*
X0288214Y0042984D01*
X0288656Y0043306D01*
X0289090Y0043639D01*
X0289516Y0043983D01*
X0289934Y0044336D01*
X0290342Y0044700D01*
X0290742Y0045073D01*
X0291133Y0045456D01*
X0291514Y0045848D01*
X0291886Y0046250D01*
X0292248Y0046660D01*
X0292600Y0047079D01*
X0292942Y0047506D01*
X0293273Y0047941D01*
X0293594Y0048384D01*
X0293904Y0048835D01*
X0294203Y0049293D01*
X0294491Y0049759D01*
X0294767Y0050231D01*
X0295032Y0050709D01*
X0295285Y0051194D01*
X0295527Y0051685D01*
X0295756Y0052182D01*
X0295974Y0052683D01*
X0296179Y0053191D01*
X0296372Y0053702D01*
X0296553Y0054219D01*
X0296721Y0054739D01*
X0296876Y0055264D01*
X0297019Y0055792D01*
X0297149Y0056323D01*
X0297266Y0056858D01*
X0297370Y0057395D01*
X0297461Y0057934D01*
X0297539Y0058476D01*
X0297604Y0059019D01*
X0297656Y0059564D01*
X0297694Y0060109D01*
X0297720Y0060656D01*
X0297732Y0061203D01*
X0297731Y0061750D01*
X0297717Y0062297D01*
X0297689Y0062843D01*
X0297648Y0063389D01*
X0297595Y0063933D01*
X0297595Y0228933D01*
X0271099Y0228933D02*
X0271101Y0229094D01*
X0271107Y0229254D01*
X0271117Y0229415D01*
X0271131Y0229575D01*
X0271149Y0229734D01*
X0271170Y0229894D01*
X0271196Y0230052D01*
X0271226Y0230210D01*
X0271259Y0230367D01*
X0271297Y0230524D01*
X0271338Y0230679D01*
X0271383Y0230833D01*
X0271432Y0230986D01*
X0271485Y0231138D01*
X0271541Y0231288D01*
X0271601Y0231437D01*
X0271665Y0231585D01*
X0271732Y0231731D01*
X0271803Y0231875D01*
X0271878Y0232017D01*
X0271956Y0232158D01*
X0272037Y0232296D01*
X0272122Y0232433D01*
X0272211Y0232567D01*
X0272302Y0232699D01*
X0272397Y0232829D01*
X0272495Y0232956D01*
X0272596Y0233081D01*
X0272700Y0233204D01*
X0272807Y0233323D01*
X0272917Y0233440D01*
X0273030Y0233555D01*
X0273146Y0233666D01*
X0273264Y0233775D01*
X0273385Y0233880D01*
X0273509Y0233983D01*
X0273635Y0234083D01*
X0273764Y0234179D01*
X0273895Y0234272D01*
X0274028Y0234362D01*
X0274163Y0234449D01*
X0274301Y0234532D01*
X0274440Y0234611D01*
X0274582Y0234688D01*
X0274725Y0234761D01*
X0274870Y0234830D01*
X0275017Y0234895D01*
X0275165Y0234957D01*
X0275315Y0235016D01*
X0275466Y0235070D01*
X0275618Y0235121D01*
X0275772Y0235168D01*
X0275927Y0235211D01*
X0276082Y0235250D01*
X0276239Y0235286D01*
X0276397Y0235318D01*
X0276555Y0235345D01*
X0276714Y0235369D01*
X0276873Y0235389D01*
X0277033Y0235405D01*
X0277194Y0235417D01*
X0277354Y0235425D01*
X0277515Y0235429D01*
X0277675Y0235429D01*
X0277836Y0235425D01*
X0277996Y0235417D01*
X0278157Y0235405D01*
X0278317Y0235389D01*
X0278476Y0235369D01*
X0278635Y0235345D01*
X0278793Y0235318D01*
X0278951Y0235286D01*
X0279108Y0235250D01*
X0279263Y0235211D01*
X0279418Y0235168D01*
X0279572Y0235121D01*
X0279724Y0235070D01*
X0279875Y0235016D01*
X0280025Y0234957D01*
X0280173Y0234895D01*
X0280320Y0234830D01*
X0280465Y0234761D01*
X0280608Y0234688D01*
X0280750Y0234611D01*
X0280889Y0234532D01*
X0281027Y0234449D01*
X0281162Y0234362D01*
X0281295Y0234272D01*
X0281426Y0234179D01*
X0281555Y0234083D01*
X0281681Y0233983D01*
X0281805Y0233880D01*
X0281926Y0233775D01*
X0282044Y0233666D01*
X0282160Y0233555D01*
X0282273Y0233440D01*
X0282383Y0233323D01*
X0282490Y0233204D01*
X0282594Y0233081D01*
X0282695Y0232956D01*
X0282793Y0232829D01*
X0282888Y0232699D01*
X0282979Y0232567D01*
X0283068Y0232433D01*
X0283153Y0232296D01*
X0283234Y0232158D01*
X0283312Y0232017D01*
X0283387Y0231875D01*
X0283458Y0231731D01*
X0283525Y0231585D01*
X0283589Y0231437D01*
X0283649Y0231288D01*
X0283705Y0231138D01*
X0283758Y0230986D01*
X0283807Y0230833D01*
X0283852Y0230679D01*
X0283893Y0230524D01*
X0283931Y0230367D01*
X0283964Y0230210D01*
X0283994Y0230052D01*
X0284020Y0229894D01*
X0284041Y0229734D01*
X0284059Y0229575D01*
X0284073Y0229415D01*
X0284083Y0229254D01*
X0284089Y0229094D01*
X0284091Y0228933D01*
X0284089Y0228772D01*
X0284083Y0228612D01*
X0284073Y0228451D01*
X0284059Y0228291D01*
X0284041Y0228132D01*
X0284020Y0227972D01*
X0283994Y0227814D01*
X0283964Y0227656D01*
X0283931Y0227499D01*
X0283893Y0227342D01*
X0283852Y0227187D01*
X0283807Y0227033D01*
X0283758Y0226880D01*
X0283705Y0226728D01*
X0283649Y0226578D01*
X0283589Y0226429D01*
X0283525Y0226281D01*
X0283458Y0226135D01*
X0283387Y0225991D01*
X0283312Y0225849D01*
X0283234Y0225708D01*
X0283153Y0225570D01*
X0283068Y0225433D01*
X0282979Y0225299D01*
X0282888Y0225167D01*
X0282793Y0225037D01*
X0282695Y0224910D01*
X0282594Y0224785D01*
X0282490Y0224662D01*
X0282383Y0224543D01*
X0282273Y0224426D01*
X0282160Y0224311D01*
X0282044Y0224200D01*
X0281926Y0224091D01*
X0281805Y0223986D01*
X0281681Y0223883D01*
X0281555Y0223783D01*
X0281426Y0223687D01*
X0281295Y0223594D01*
X0281162Y0223504D01*
X0281027Y0223417D01*
X0280889Y0223334D01*
X0280750Y0223255D01*
X0280608Y0223178D01*
X0280465Y0223105D01*
X0280320Y0223036D01*
X0280173Y0222971D01*
X0280025Y0222909D01*
X0279875Y0222850D01*
X0279724Y0222796D01*
X0279572Y0222745D01*
X0279418Y0222698D01*
X0279263Y0222655D01*
X0279108Y0222616D01*
X0278951Y0222580D01*
X0278793Y0222548D01*
X0278635Y0222521D01*
X0278476Y0222497D01*
X0278317Y0222477D01*
X0278157Y0222461D01*
X0277996Y0222449D01*
X0277836Y0222441D01*
X0277675Y0222437D01*
X0277515Y0222437D01*
X0277354Y0222441D01*
X0277194Y0222449D01*
X0277033Y0222461D01*
X0276873Y0222477D01*
X0276714Y0222497D01*
X0276555Y0222521D01*
X0276397Y0222548D01*
X0276239Y0222580D01*
X0276082Y0222616D01*
X0275927Y0222655D01*
X0275772Y0222698D01*
X0275618Y0222745D01*
X0275466Y0222796D01*
X0275315Y0222850D01*
X0275165Y0222909D01*
X0275017Y0222971D01*
X0274870Y0223036D01*
X0274725Y0223105D01*
X0274582Y0223178D01*
X0274440Y0223255D01*
X0274301Y0223334D01*
X0274163Y0223417D01*
X0274028Y0223504D01*
X0273895Y0223594D01*
X0273764Y0223687D01*
X0273635Y0223783D01*
X0273509Y0223883D01*
X0273385Y0223986D01*
X0273264Y0224091D01*
X0273146Y0224200D01*
X0273030Y0224311D01*
X0272917Y0224426D01*
X0272807Y0224543D01*
X0272700Y0224662D01*
X0272596Y0224785D01*
X0272495Y0224910D01*
X0272397Y0225037D01*
X0272302Y0225167D01*
X0272211Y0225299D01*
X0272122Y0225433D01*
X0272037Y0225570D01*
X0271956Y0225708D01*
X0271878Y0225849D01*
X0271803Y0225991D01*
X0271732Y0226135D01*
X0271665Y0226281D01*
X0271601Y0226429D01*
X0271541Y0226578D01*
X0271485Y0226728D01*
X0271432Y0226880D01*
X0271383Y0227033D01*
X0271338Y0227187D01*
X0271297Y0227342D01*
X0271259Y0227499D01*
X0271226Y0227656D01*
X0271196Y0227814D01*
X0271170Y0227972D01*
X0271149Y0228132D01*
X0271131Y0228291D01*
X0271117Y0228451D01*
X0271107Y0228612D01*
X0271101Y0228772D01*
X0271099Y0228933D01*
X0277595Y0248933D02*
X0278078Y0248927D01*
X0278561Y0248910D01*
X0279044Y0248880D01*
X0279525Y0248840D01*
X0280006Y0248787D01*
X0280485Y0248723D01*
X0280962Y0248648D01*
X0281438Y0248560D01*
X0281911Y0248462D01*
X0282381Y0248352D01*
X0282849Y0248231D01*
X0283314Y0248098D01*
X0283775Y0247954D01*
X0284233Y0247799D01*
X0284687Y0247633D01*
X0285137Y0247456D01*
X0285582Y0247269D01*
X0286023Y0247070D01*
X0286459Y0246862D01*
X0286889Y0246642D01*
X0287315Y0246412D01*
X0287734Y0246172D01*
X0288148Y0245922D01*
X0288555Y0245662D01*
X0288956Y0245393D01*
X0289351Y0245113D01*
X0289738Y0244825D01*
X0290119Y0244526D01*
X0290492Y0244219D01*
X0290857Y0243903D01*
X0291215Y0243578D01*
X0291565Y0243245D01*
X0291907Y0242903D01*
X0292240Y0242553D01*
X0292565Y0242195D01*
X0292881Y0241830D01*
X0293188Y0241457D01*
X0293487Y0241076D01*
X0293775Y0240689D01*
X0294055Y0240294D01*
X0294324Y0239893D01*
X0294584Y0239486D01*
X0294834Y0239072D01*
X0295074Y0238653D01*
X0295304Y0238227D01*
X0295524Y0237797D01*
X0295732Y0237361D01*
X0295931Y0236920D01*
X0296118Y0236475D01*
X0296295Y0236025D01*
X0296461Y0235571D01*
X0296616Y0235113D01*
X0296760Y0234652D01*
X0296893Y0234187D01*
X0297014Y0233719D01*
X0297124Y0233249D01*
X0297222Y0232776D01*
X0297310Y0232300D01*
X0297385Y0231823D01*
X0297449Y0231344D01*
X0297502Y0230863D01*
X0297542Y0230382D01*
X0297572Y0229899D01*
X0297589Y0229416D01*
X0297595Y0228933D01*
X0277595Y0248933D02*
X0057595Y0248933D01*
X0051099Y0228933D02*
X0051101Y0229094D01*
X0051107Y0229254D01*
X0051117Y0229415D01*
X0051131Y0229575D01*
X0051149Y0229734D01*
X0051170Y0229894D01*
X0051196Y0230052D01*
X0051226Y0230210D01*
X0051259Y0230367D01*
X0051297Y0230524D01*
X0051338Y0230679D01*
X0051383Y0230833D01*
X0051432Y0230986D01*
X0051485Y0231138D01*
X0051541Y0231288D01*
X0051601Y0231437D01*
X0051665Y0231585D01*
X0051732Y0231731D01*
X0051803Y0231875D01*
X0051878Y0232017D01*
X0051956Y0232158D01*
X0052037Y0232296D01*
X0052122Y0232433D01*
X0052211Y0232567D01*
X0052302Y0232699D01*
X0052397Y0232829D01*
X0052495Y0232956D01*
X0052596Y0233081D01*
X0052700Y0233204D01*
X0052807Y0233323D01*
X0052917Y0233440D01*
X0053030Y0233555D01*
X0053146Y0233666D01*
X0053264Y0233775D01*
X0053385Y0233880D01*
X0053509Y0233983D01*
X0053635Y0234083D01*
X0053764Y0234179D01*
X0053895Y0234272D01*
X0054028Y0234362D01*
X0054163Y0234449D01*
X0054301Y0234532D01*
X0054440Y0234611D01*
X0054582Y0234688D01*
X0054725Y0234761D01*
X0054870Y0234830D01*
X0055017Y0234895D01*
X0055165Y0234957D01*
X0055315Y0235016D01*
X0055466Y0235070D01*
X0055618Y0235121D01*
X0055772Y0235168D01*
X0055927Y0235211D01*
X0056082Y0235250D01*
X0056239Y0235286D01*
X0056397Y0235318D01*
X0056555Y0235345D01*
X0056714Y0235369D01*
X0056873Y0235389D01*
X0057033Y0235405D01*
X0057194Y0235417D01*
X0057354Y0235425D01*
X0057515Y0235429D01*
X0057675Y0235429D01*
X0057836Y0235425D01*
X0057996Y0235417D01*
X0058157Y0235405D01*
X0058317Y0235389D01*
X0058476Y0235369D01*
X0058635Y0235345D01*
X0058793Y0235318D01*
X0058951Y0235286D01*
X0059108Y0235250D01*
X0059263Y0235211D01*
X0059418Y0235168D01*
X0059572Y0235121D01*
X0059724Y0235070D01*
X0059875Y0235016D01*
X0060025Y0234957D01*
X0060173Y0234895D01*
X0060320Y0234830D01*
X0060465Y0234761D01*
X0060608Y0234688D01*
X0060750Y0234611D01*
X0060889Y0234532D01*
X0061027Y0234449D01*
X0061162Y0234362D01*
X0061295Y0234272D01*
X0061426Y0234179D01*
X0061555Y0234083D01*
X0061681Y0233983D01*
X0061805Y0233880D01*
X0061926Y0233775D01*
X0062044Y0233666D01*
X0062160Y0233555D01*
X0062273Y0233440D01*
X0062383Y0233323D01*
X0062490Y0233204D01*
X0062594Y0233081D01*
X0062695Y0232956D01*
X0062793Y0232829D01*
X0062888Y0232699D01*
X0062979Y0232567D01*
X0063068Y0232433D01*
X0063153Y0232296D01*
X0063234Y0232158D01*
X0063312Y0232017D01*
X0063387Y0231875D01*
X0063458Y0231731D01*
X0063525Y0231585D01*
X0063589Y0231437D01*
X0063649Y0231288D01*
X0063705Y0231138D01*
X0063758Y0230986D01*
X0063807Y0230833D01*
X0063852Y0230679D01*
X0063893Y0230524D01*
X0063931Y0230367D01*
X0063964Y0230210D01*
X0063994Y0230052D01*
X0064020Y0229894D01*
X0064041Y0229734D01*
X0064059Y0229575D01*
X0064073Y0229415D01*
X0064083Y0229254D01*
X0064089Y0229094D01*
X0064091Y0228933D01*
X0064089Y0228772D01*
X0064083Y0228612D01*
X0064073Y0228451D01*
X0064059Y0228291D01*
X0064041Y0228132D01*
X0064020Y0227972D01*
X0063994Y0227814D01*
X0063964Y0227656D01*
X0063931Y0227499D01*
X0063893Y0227342D01*
X0063852Y0227187D01*
X0063807Y0227033D01*
X0063758Y0226880D01*
X0063705Y0226728D01*
X0063649Y0226578D01*
X0063589Y0226429D01*
X0063525Y0226281D01*
X0063458Y0226135D01*
X0063387Y0225991D01*
X0063312Y0225849D01*
X0063234Y0225708D01*
X0063153Y0225570D01*
X0063068Y0225433D01*
X0062979Y0225299D01*
X0062888Y0225167D01*
X0062793Y0225037D01*
X0062695Y0224910D01*
X0062594Y0224785D01*
X0062490Y0224662D01*
X0062383Y0224543D01*
X0062273Y0224426D01*
X0062160Y0224311D01*
X0062044Y0224200D01*
X0061926Y0224091D01*
X0061805Y0223986D01*
X0061681Y0223883D01*
X0061555Y0223783D01*
X0061426Y0223687D01*
X0061295Y0223594D01*
X0061162Y0223504D01*
X0061027Y0223417D01*
X0060889Y0223334D01*
X0060750Y0223255D01*
X0060608Y0223178D01*
X0060465Y0223105D01*
X0060320Y0223036D01*
X0060173Y0222971D01*
X0060025Y0222909D01*
X0059875Y0222850D01*
X0059724Y0222796D01*
X0059572Y0222745D01*
X0059418Y0222698D01*
X0059263Y0222655D01*
X0059108Y0222616D01*
X0058951Y0222580D01*
X0058793Y0222548D01*
X0058635Y0222521D01*
X0058476Y0222497D01*
X0058317Y0222477D01*
X0058157Y0222461D01*
X0057996Y0222449D01*
X0057836Y0222441D01*
X0057675Y0222437D01*
X0057515Y0222437D01*
X0057354Y0222441D01*
X0057194Y0222449D01*
X0057033Y0222461D01*
X0056873Y0222477D01*
X0056714Y0222497D01*
X0056555Y0222521D01*
X0056397Y0222548D01*
X0056239Y0222580D01*
X0056082Y0222616D01*
X0055927Y0222655D01*
X0055772Y0222698D01*
X0055618Y0222745D01*
X0055466Y0222796D01*
X0055315Y0222850D01*
X0055165Y0222909D01*
X0055017Y0222971D01*
X0054870Y0223036D01*
X0054725Y0223105D01*
X0054582Y0223178D01*
X0054440Y0223255D01*
X0054301Y0223334D01*
X0054163Y0223417D01*
X0054028Y0223504D01*
X0053895Y0223594D01*
X0053764Y0223687D01*
X0053635Y0223783D01*
X0053509Y0223883D01*
X0053385Y0223986D01*
X0053264Y0224091D01*
X0053146Y0224200D01*
X0053030Y0224311D01*
X0052917Y0224426D01*
X0052807Y0224543D01*
X0052700Y0224662D01*
X0052596Y0224785D01*
X0052495Y0224910D01*
X0052397Y0225037D01*
X0052302Y0225167D01*
X0052211Y0225299D01*
X0052122Y0225433D01*
X0052037Y0225570D01*
X0051956Y0225708D01*
X0051878Y0225849D01*
X0051803Y0225991D01*
X0051732Y0226135D01*
X0051665Y0226281D01*
X0051601Y0226429D01*
X0051541Y0226578D01*
X0051485Y0226728D01*
X0051432Y0226880D01*
X0051383Y0227033D01*
X0051338Y0227187D01*
X0051297Y0227342D01*
X0051259Y0227499D01*
X0051226Y0227656D01*
X0051196Y0227814D01*
X0051170Y0227972D01*
X0051149Y0228132D01*
X0051131Y0228291D01*
X0051117Y0228451D01*
X0051107Y0228612D01*
X0051101Y0228772D01*
X0051099Y0228933D01*
X0037595Y0228933D02*
X0037601Y0229416D01*
X0037618Y0229899D01*
X0037648Y0230382D01*
X0037688Y0230863D01*
X0037741Y0231344D01*
X0037805Y0231823D01*
X0037880Y0232300D01*
X0037968Y0232776D01*
X0038066Y0233249D01*
X0038176Y0233719D01*
X0038297Y0234187D01*
X0038430Y0234652D01*
X0038574Y0235113D01*
X0038729Y0235571D01*
X0038895Y0236025D01*
X0039072Y0236475D01*
X0039259Y0236920D01*
X0039458Y0237361D01*
X0039666Y0237797D01*
X0039886Y0238227D01*
X0040116Y0238653D01*
X0040356Y0239072D01*
X0040606Y0239486D01*
X0040866Y0239893D01*
X0041135Y0240294D01*
X0041415Y0240689D01*
X0041703Y0241076D01*
X0042002Y0241457D01*
X0042309Y0241830D01*
X0042625Y0242195D01*
X0042950Y0242553D01*
X0043283Y0242903D01*
X0043625Y0243245D01*
X0043975Y0243578D01*
X0044333Y0243903D01*
X0044698Y0244219D01*
X0045071Y0244526D01*
X0045452Y0244825D01*
X0045839Y0245113D01*
X0046234Y0245393D01*
X0046635Y0245662D01*
X0047042Y0245922D01*
X0047456Y0246172D01*
X0047875Y0246412D01*
X0048301Y0246642D01*
X0048731Y0246862D01*
X0049167Y0247070D01*
X0049608Y0247269D01*
X0050053Y0247456D01*
X0050503Y0247633D01*
X0050957Y0247799D01*
X0051415Y0247954D01*
X0051876Y0248098D01*
X0052341Y0248231D01*
X0052809Y0248352D01*
X0053279Y0248462D01*
X0053752Y0248560D01*
X0054228Y0248648D01*
X0054705Y0248723D01*
X0055184Y0248787D01*
X0055665Y0248840D01*
X0056146Y0248880D01*
X0056629Y0248910D01*
X0057112Y0248927D01*
X0057595Y0248933D01*
X0037595Y0228933D02*
X0037595Y0058933D01*
X0051099Y0058933D02*
X0051101Y0059094D01*
X0051107Y0059254D01*
X0051117Y0059415D01*
X0051131Y0059575D01*
X0051149Y0059734D01*
X0051170Y0059894D01*
X0051196Y0060052D01*
X0051226Y0060210D01*
X0051259Y0060367D01*
X0051297Y0060524D01*
X0051338Y0060679D01*
X0051383Y0060833D01*
X0051432Y0060986D01*
X0051485Y0061138D01*
X0051541Y0061288D01*
X0051601Y0061437D01*
X0051665Y0061585D01*
X0051732Y0061731D01*
X0051803Y0061875D01*
X0051878Y0062017D01*
X0051956Y0062158D01*
X0052037Y0062296D01*
X0052122Y0062433D01*
X0052211Y0062567D01*
X0052302Y0062699D01*
X0052397Y0062829D01*
X0052495Y0062956D01*
X0052596Y0063081D01*
X0052700Y0063204D01*
X0052807Y0063323D01*
X0052917Y0063440D01*
X0053030Y0063555D01*
X0053146Y0063666D01*
X0053264Y0063775D01*
X0053385Y0063880D01*
X0053509Y0063983D01*
X0053635Y0064083D01*
X0053764Y0064179D01*
X0053895Y0064272D01*
X0054028Y0064362D01*
X0054163Y0064449D01*
X0054301Y0064532D01*
X0054440Y0064611D01*
X0054582Y0064688D01*
X0054725Y0064761D01*
X0054870Y0064830D01*
X0055017Y0064895D01*
X0055165Y0064957D01*
X0055315Y0065016D01*
X0055466Y0065070D01*
X0055618Y0065121D01*
X0055772Y0065168D01*
X0055927Y0065211D01*
X0056082Y0065250D01*
X0056239Y0065286D01*
X0056397Y0065318D01*
X0056555Y0065345D01*
X0056714Y0065369D01*
X0056873Y0065389D01*
X0057033Y0065405D01*
X0057194Y0065417D01*
X0057354Y0065425D01*
X0057515Y0065429D01*
X0057675Y0065429D01*
X0057836Y0065425D01*
X0057996Y0065417D01*
X0058157Y0065405D01*
X0058317Y0065389D01*
X0058476Y0065369D01*
X0058635Y0065345D01*
X0058793Y0065318D01*
X0058951Y0065286D01*
X0059108Y0065250D01*
X0059263Y0065211D01*
X0059418Y0065168D01*
X0059572Y0065121D01*
X0059724Y0065070D01*
X0059875Y0065016D01*
X0060025Y0064957D01*
X0060173Y0064895D01*
X0060320Y0064830D01*
X0060465Y0064761D01*
X0060608Y0064688D01*
X0060750Y0064611D01*
X0060889Y0064532D01*
X0061027Y0064449D01*
X0061162Y0064362D01*
X0061295Y0064272D01*
X0061426Y0064179D01*
X0061555Y0064083D01*
X0061681Y0063983D01*
X0061805Y0063880D01*
X0061926Y0063775D01*
X0062044Y0063666D01*
X0062160Y0063555D01*
X0062273Y0063440D01*
X0062383Y0063323D01*
X0062490Y0063204D01*
X0062594Y0063081D01*
X0062695Y0062956D01*
X0062793Y0062829D01*
X0062888Y0062699D01*
X0062979Y0062567D01*
X0063068Y0062433D01*
X0063153Y0062296D01*
X0063234Y0062158D01*
X0063312Y0062017D01*
X0063387Y0061875D01*
X0063458Y0061731D01*
X0063525Y0061585D01*
X0063589Y0061437D01*
X0063649Y0061288D01*
X0063705Y0061138D01*
X0063758Y0060986D01*
X0063807Y0060833D01*
X0063852Y0060679D01*
X0063893Y0060524D01*
X0063931Y0060367D01*
X0063964Y0060210D01*
X0063994Y0060052D01*
X0064020Y0059894D01*
X0064041Y0059734D01*
X0064059Y0059575D01*
X0064073Y0059415D01*
X0064083Y0059254D01*
X0064089Y0059094D01*
X0064091Y0058933D01*
X0064089Y0058772D01*
X0064083Y0058612D01*
X0064073Y0058451D01*
X0064059Y0058291D01*
X0064041Y0058132D01*
X0064020Y0057972D01*
X0063994Y0057814D01*
X0063964Y0057656D01*
X0063931Y0057499D01*
X0063893Y0057342D01*
X0063852Y0057187D01*
X0063807Y0057033D01*
X0063758Y0056880D01*
X0063705Y0056728D01*
X0063649Y0056578D01*
X0063589Y0056429D01*
X0063525Y0056281D01*
X0063458Y0056135D01*
X0063387Y0055991D01*
X0063312Y0055849D01*
X0063234Y0055708D01*
X0063153Y0055570D01*
X0063068Y0055433D01*
X0062979Y0055299D01*
X0062888Y0055167D01*
X0062793Y0055037D01*
X0062695Y0054910D01*
X0062594Y0054785D01*
X0062490Y0054662D01*
X0062383Y0054543D01*
X0062273Y0054426D01*
X0062160Y0054311D01*
X0062044Y0054200D01*
X0061926Y0054091D01*
X0061805Y0053986D01*
X0061681Y0053883D01*
X0061555Y0053783D01*
X0061426Y0053687D01*
X0061295Y0053594D01*
X0061162Y0053504D01*
X0061027Y0053417D01*
X0060889Y0053334D01*
X0060750Y0053255D01*
X0060608Y0053178D01*
X0060465Y0053105D01*
X0060320Y0053036D01*
X0060173Y0052971D01*
X0060025Y0052909D01*
X0059875Y0052850D01*
X0059724Y0052796D01*
X0059572Y0052745D01*
X0059418Y0052698D01*
X0059263Y0052655D01*
X0059108Y0052616D01*
X0058951Y0052580D01*
X0058793Y0052548D01*
X0058635Y0052521D01*
X0058476Y0052497D01*
X0058317Y0052477D01*
X0058157Y0052461D01*
X0057996Y0052449D01*
X0057836Y0052441D01*
X0057675Y0052437D01*
X0057515Y0052437D01*
X0057354Y0052441D01*
X0057194Y0052449D01*
X0057033Y0052461D01*
X0056873Y0052477D01*
X0056714Y0052497D01*
X0056555Y0052521D01*
X0056397Y0052548D01*
X0056239Y0052580D01*
X0056082Y0052616D01*
X0055927Y0052655D01*
X0055772Y0052698D01*
X0055618Y0052745D01*
X0055466Y0052796D01*
X0055315Y0052850D01*
X0055165Y0052909D01*
X0055017Y0052971D01*
X0054870Y0053036D01*
X0054725Y0053105D01*
X0054582Y0053178D01*
X0054440Y0053255D01*
X0054301Y0053334D01*
X0054163Y0053417D01*
X0054028Y0053504D01*
X0053895Y0053594D01*
X0053764Y0053687D01*
X0053635Y0053783D01*
X0053509Y0053883D01*
X0053385Y0053986D01*
X0053264Y0054091D01*
X0053146Y0054200D01*
X0053030Y0054311D01*
X0052917Y0054426D01*
X0052807Y0054543D01*
X0052700Y0054662D01*
X0052596Y0054785D01*
X0052495Y0054910D01*
X0052397Y0055037D01*
X0052302Y0055167D01*
X0052211Y0055299D01*
X0052122Y0055433D01*
X0052037Y0055570D01*
X0051956Y0055708D01*
X0051878Y0055849D01*
X0051803Y0055991D01*
X0051732Y0056135D01*
X0051665Y0056281D01*
X0051601Y0056429D01*
X0051541Y0056578D01*
X0051485Y0056728D01*
X0051432Y0056880D01*
X0051383Y0057033D01*
X0051338Y0057187D01*
X0051297Y0057342D01*
X0051259Y0057499D01*
X0051226Y0057656D01*
X0051196Y0057814D01*
X0051170Y0057972D01*
X0051149Y0058132D01*
X0051131Y0058291D01*
X0051117Y0058451D01*
X0051107Y0058612D01*
X0051101Y0058772D01*
X0051099Y0058933D01*
X0037595Y0058933D02*
X0037601Y0058450D01*
X0037618Y0057967D01*
X0037648Y0057484D01*
X0037688Y0057003D01*
X0037741Y0056522D01*
X0037805Y0056043D01*
X0037880Y0055566D01*
X0037968Y0055090D01*
X0038066Y0054617D01*
X0038176Y0054147D01*
X0038297Y0053679D01*
X0038430Y0053214D01*
X0038574Y0052753D01*
X0038729Y0052295D01*
X0038895Y0051841D01*
X0039072Y0051391D01*
X0039259Y0050946D01*
X0039458Y0050505D01*
X0039666Y0050069D01*
X0039886Y0049639D01*
X0040116Y0049213D01*
X0040356Y0048794D01*
X0040606Y0048380D01*
X0040866Y0047973D01*
X0041135Y0047572D01*
X0041415Y0047177D01*
X0041703Y0046790D01*
X0042002Y0046409D01*
X0042309Y0046036D01*
X0042625Y0045671D01*
X0042950Y0045313D01*
X0043283Y0044963D01*
X0043625Y0044621D01*
X0043975Y0044288D01*
X0044333Y0043963D01*
X0044698Y0043647D01*
X0045071Y0043340D01*
X0045452Y0043041D01*
X0045839Y0042753D01*
X0046234Y0042473D01*
X0046635Y0042204D01*
X0047042Y0041944D01*
X0047456Y0041694D01*
X0047875Y0041454D01*
X0048301Y0041224D01*
X0048731Y0041004D01*
X0049167Y0040796D01*
X0049608Y0040597D01*
X0050053Y0040410D01*
X0050503Y0040233D01*
X0050957Y0040067D01*
X0051415Y0039912D01*
X0051876Y0039768D01*
X0052341Y0039635D01*
X0052809Y0039514D01*
X0053279Y0039404D01*
X0053752Y0039306D01*
X0054228Y0039218D01*
X0054705Y0039143D01*
X0055184Y0039079D01*
X0055665Y0039026D01*
X0056146Y0038986D01*
X0056629Y0038956D01*
X0057112Y0038939D01*
X0057595Y0038933D01*
D11*
X0114795Y0105033D03*
X0114795Y0122833D03*
X0140395Y0122833D03*
X0154795Y0122833D03*
X0154795Y0135033D03*
X0154795Y0152833D03*
X0180395Y0152833D03*
X0180395Y0135033D03*
X0180395Y0122833D03*
X0194795Y0122833D03*
X0194795Y0105033D03*
X0180395Y0105033D03*
X0180395Y0092833D03*
X0180395Y0075033D03*
X0154795Y0075033D03*
X0154795Y0092833D03*
X0154795Y0105033D03*
X0140395Y0105033D03*
X0062595Y0123933D03*
X0052595Y0123933D03*
X0052595Y0133933D03*
X0062595Y0133933D03*
X0062595Y0143933D03*
X0052595Y0143933D03*
X0052595Y0153933D03*
X0062595Y0153933D03*
X0062595Y0163933D03*
X0052595Y0163933D03*
X0220395Y0122833D03*
X0220395Y0105033D03*
X0272595Y0123933D03*
X0282595Y0123933D03*
X0282595Y0133933D03*
X0272595Y0133933D03*
X0272595Y0143933D03*
X0282595Y0143933D03*
X0282595Y0153933D03*
X0272595Y0153933D03*
X0272595Y0163933D03*
X0282595Y0163933D03*
D12*
X0212595Y0176333D02*
X0212595Y0181533D01*
X0202595Y0181533D02*
X0202595Y0176333D01*
X0192595Y0176333D02*
X0192595Y0181533D01*
X0182595Y0181533D02*
X0182595Y0176333D01*
X0172595Y0176333D02*
X0172595Y0181533D01*
X0162595Y0181533D02*
X0162595Y0176333D01*
X0152595Y0176333D02*
X0152595Y0181533D01*
X0142595Y0181533D02*
X0142595Y0176333D01*
X0132595Y0176333D02*
X0132595Y0181533D01*
X0122595Y0181533D02*
X0122595Y0176333D01*
X0122595Y0206333D02*
X0122595Y0211533D01*
X0132595Y0211533D02*
X0132595Y0206333D01*
X0142595Y0206333D02*
X0142595Y0211533D01*
X0152595Y0211533D02*
X0152595Y0206333D01*
X0162595Y0206333D02*
X0162595Y0211533D01*
X0172595Y0211533D02*
X0172595Y0206333D01*
X0182595Y0206333D02*
X0182595Y0211533D01*
X0192595Y0211533D02*
X0192595Y0206333D01*
X0202595Y0206333D02*
X0202595Y0211533D01*
X0212595Y0211533D02*
X0212595Y0206333D01*
D13*
X0102595Y0199839D03*
X0102595Y0188028D03*
D14*
X0087595Y0188421D03*
X0087595Y0199445D03*
D15*
X0050077Y0041929D02*
X0283563Y0041929D01*
X0284324Y0042194D02*
X0279811Y0040622D01*
X0277499Y0040233D01*
X0057595Y0040233D01*
X0055501Y0040351D01*
X0051419Y0041282D01*
X0047646Y0043099D01*
X0044372Y0045710D01*
X0041761Y0048984D01*
X0039945Y0052757D01*
X0039013Y0056839D01*
X0038895Y0058933D01*
X0038895Y0228933D01*
X0039013Y0231027D01*
X0039945Y0235109D01*
X0041761Y0238882D01*
X0044372Y0242156D01*
X0047646Y0244767D01*
X0051419Y0246584D01*
X0055501Y0247515D01*
X0057595Y0247633D01*
X0277595Y0247633D01*
X0279689Y0247515D01*
X0283771Y0246584D01*
X0287544Y0244767D01*
X0290818Y0242156D01*
X0293429Y0238882D01*
X0295246Y0235109D01*
X0296178Y0231027D01*
X0296295Y0228933D01*
X0296295Y0064389D01*
X0296244Y0064325D01*
X0296295Y0063861D01*
X0296295Y0063395D01*
X0296326Y0063363D01*
X0296434Y0061400D01*
X0295891Y0056653D01*
X0294306Y0052145D01*
X0291758Y0048103D01*
X0288374Y0044729D01*
X0284324Y0042194D01*
X0285495Y0042927D02*
X0280791Y0042927D01*
X0280695Y0040930D02*
X0052963Y0040930D01*
X0053719Y0042927D02*
X0048004Y0042927D01*
X0046610Y0043926D02*
X0051175Y0043926D01*
X0049345Y0044644D02*
X0053924Y0042847D01*
X0058828Y0042479D01*
X0063623Y0043574D01*
X0067883Y0046033D01*
X0071228Y0049638D01*
X0071228Y0049638D01*
X0073362Y0054070D01*
X0074095Y0058933D01*
X0073362Y0063797D01*
X0071228Y0068228D01*
X0067883Y0071833D01*
X0067883Y0071833D01*
X0063623Y0074292D01*
X0058828Y0075387D01*
X0053924Y0075019D01*
X0053924Y0075019D01*
X0049345Y0073222D01*
X0045500Y0070156D01*
X0045500Y0070156D01*
X0042729Y0066092D01*
X0041279Y0061392D01*
X0041279Y0056474D01*
X0042729Y0051774D01*
X0045500Y0047710D01*
X0049345Y0044644D01*
X0049345Y0044644D01*
X0048993Y0044924D02*
X0045358Y0044924D01*
X0044203Y0045923D02*
X0047741Y0045923D01*
X0046489Y0046921D02*
X0043407Y0046921D01*
X0042610Y0047920D02*
X0045357Y0047920D01*
X0045500Y0047710D02*
X0045500Y0047710D01*
X0045500Y0047710D01*
X0044676Y0048918D02*
X0041814Y0048918D01*
X0041312Y0049917D02*
X0043995Y0049917D01*
X0043315Y0050915D02*
X0040831Y0050915D01*
X0040351Y0051914D02*
X0042686Y0051914D01*
X0042729Y0051774D02*
X0042729Y0051774D01*
X0042378Y0052912D02*
X0039909Y0052912D01*
X0039681Y0053911D02*
X0042070Y0053911D01*
X0041762Y0054909D02*
X0039453Y0054909D01*
X0039225Y0055908D02*
X0041454Y0055908D01*
X0041279Y0056906D02*
X0039009Y0056906D01*
X0038953Y0057905D02*
X0041279Y0057905D01*
X0041279Y0058903D02*
X0038897Y0058903D01*
X0038895Y0059902D02*
X0041279Y0059902D01*
X0041279Y0060900D02*
X0038895Y0060900D01*
X0038895Y0061899D02*
X0041436Y0061899D01*
X0041744Y0062897D02*
X0038895Y0062897D01*
X0038895Y0063896D02*
X0042052Y0063896D01*
X0042360Y0064894D02*
X0038895Y0064894D01*
X0038895Y0065893D02*
X0042668Y0065893D01*
X0042729Y0066092D02*
X0042729Y0066092D01*
X0043274Y0066891D02*
X0038895Y0066891D01*
X0038895Y0067890D02*
X0043955Y0067890D01*
X0044636Y0068888D02*
X0038895Y0068888D01*
X0038895Y0069887D02*
X0045316Y0069887D01*
X0045500Y0070156D02*
X0045500Y0070156D01*
X0046415Y0070885D02*
X0038895Y0070885D01*
X0038895Y0071884D02*
X0047667Y0071884D01*
X0048919Y0072882D02*
X0038895Y0072882D01*
X0038895Y0073881D02*
X0051023Y0073881D01*
X0049345Y0073222D02*
X0049345Y0073222D01*
X0053567Y0074879D02*
X0038895Y0074879D01*
X0038895Y0075878D02*
X0149664Y0075878D01*
X0149610Y0075533D02*
X0154295Y0075533D01*
X0154295Y0074533D01*
X0149610Y0074533D01*
X0149723Y0073815D01*
X0149976Y0073037D01*
X0150348Y0072308D01*
X0150829Y0071645D01*
X0151408Y0071067D01*
X0152070Y0070586D01*
X0152799Y0070214D01*
X0153577Y0069961D01*
X0154295Y0069847D01*
X0154295Y0074533D01*
X0155295Y0074533D01*
X0155295Y0069847D01*
X0156013Y0069961D01*
X0156791Y0070214D01*
X0157521Y0070586D01*
X0158183Y0071067D01*
X0158761Y0071645D01*
X0159243Y0072308D01*
X0159614Y0073037D01*
X0159867Y0073815D01*
X0159981Y0074533D01*
X0155295Y0074533D01*
X0155295Y0075533D01*
X0154295Y0075533D01*
X0154295Y0080219D01*
X0153577Y0080105D01*
X0152799Y0079852D01*
X0152070Y0079480D01*
X0151408Y0078999D01*
X0150829Y0078421D01*
X0150348Y0077758D01*
X0149976Y0077029D01*
X0149723Y0076251D01*
X0149610Y0075533D01*
X0149927Y0076877D02*
X0038895Y0076877D01*
X0038895Y0077875D02*
X0150432Y0077875D01*
X0151282Y0078874D02*
X0038895Y0078874D01*
X0038895Y0079872D02*
X0152860Y0079872D01*
X0154295Y0079872D02*
X0155295Y0079872D01*
X0155295Y0080219D02*
X0156013Y0080105D01*
X0156791Y0079852D01*
X0157521Y0079480D01*
X0158183Y0078999D01*
X0158761Y0078421D01*
X0159243Y0077758D01*
X0159614Y0077029D01*
X0159867Y0076251D01*
X0159981Y0075533D01*
X0155295Y0075533D01*
X0155295Y0080219D01*
X0155295Y0078874D02*
X0154295Y0078874D01*
X0154295Y0077875D02*
X0155295Y0077875D01*
X0155295Y0076877D02*
X0154295Y0076877D01*
X0154295Y0075878D02*
X0155295Y0075878D01*
X0155295Y0074879D02*
X0175595Y0074879D01*
X0175595Y0074078D02*
X0176326Y0072314D01*
X0177676Y0070964D01*
X0179440Y0070233D01*
X0181350Y0070233D01*
X0183114Y0070964D01*
X0184464Y0072314D01*
X0185195Y0074078D01*
X0185195Y0075988D01*
X0184464Y0077752D01*
X0183114Y0079102D01*
X0181350Y0079833D01*
X0179440Y0079833D01*
X0177676Y0079102D01*
X0176326Y0077752D01*
X0175595Y0075988D01*
X0175595Y0074078D01*
X0175677Y0073881D02*
X0159877Y0073881D01*
X0159535Y0072882D02*
X0176090Y0072882D01*
X0176756Y0071884D02*
X0158935Y0071884D01*
X0157933Y0070885D02*
X0177865Y0070885D01*
X0175595Y0075878D02*
X0159926Y0075878D01*
X0159664Y0076877D02*
X0175963Y0076877D01*
X0176449Y0077875D02*
X0159158Y0077875D01*
X0158309Y0078874D02*
X0177447Y0078874D01*
X0183343Y0078874D02*
X0296295Y0078874D01*
X0296295Y0079872D02*
X0156730Y0079872D01*
X0154295Y0074879D02*
X0061051Y0074879D01*
X0058828Y0075387D02*
X0058828Y0075387D01*
X0063623Y0074292D02*
X0063623Y0074292D01*
X0064336Y0073881D02*
X0149713Y0073881D01*
X0150055Y0072882D02*
X0066065Y0072882D01*
X0067795Y0071884D02*
X0150656Y0071884D01*
X0151657Y0070885D02*
X0068762Y0070885D01*
X0069689Y0069887D02*
X0154046Y0069887D01*
X0154295Y0069887D02*
X0155295Y0069887D01*
X0155544Y0069887D02*
X0265316Y0069887D01*
X0265500Y0070156D02*
X0262729Y0066092D01*
X0261279Y0061392D01*
X0261279Y0056474D01*
X0262729Y0051774D01*
X0265500Y0047710D01*
X0269345Y0044644D01*
X0269345Y0044644D01*
X0273924Y0042847D01*
X0278828Y0042479D01*
X0283623Y0043574D01*
X0287883Y0046033D01*
X0291228Y0049638D01*
X0291228Y0049638D01*
X0293362Y0054070D01*
X0294095Y0058933D01*
X0293362Y0063797D01*
X0291228Y0068228D01*
X0287883Y0071833D01*
X0287883Y0071833D01*
X0283623Y0074292D01*
X0278828Y0075387D01*
X0273924Y0075019D01*
X0273924Y0075019D01*
X0269345Y0073222D01*
X0265500Y0070156D01*
X0265500Y0070156D01*
X0266415Y0070885D02*
X0182925Y0070885D01*
X0184034Y0071884D02*
X0267667Y0071884D01*
X0268919Y0072882D02*
X0184700Y0072882D01*
X0185113Y0073881D02*
X0271023Y0073881D01*
X0273567Y0074879D02*
X0185195Y0074879D01*
X0185195Y0075878D02*
X0296295Y0075878D01*
X0296295Y0076877D02*
X0184827Y0076877D01*
X0184341Y0077875D02*
X0296295Y0077875D01*
X0296295Y0074879D02*
X0281051Y0074879D01*
X0278828Y0075387D02*
X0278828Y0075387D01*
X0283623Y0074292D02*
X0283623Y0074292D01*
X0284336Y0073881D02*
X0296295Y0073881D01*
X0296295Y0072882D02*
X0286065Y0072882D01*
X0287795Y0071884D02*
X0296295Y0071884D01*
X0296295Y0070885D02*
X0288762Y0070885D01*
X0289689Y0069887D02*
X0296295Y0069887D01*
X0296295Y0068888D02*
X0290615Y0068888D01*
X0291228Y0068228D02*
X0291228Y0068228D01*
X0291391Y0067890D02*
X0296295Y0067890D01*
X0296295Y0066891D02*
X0291872Y0066891D01*
X0292353Y0065893D02*
X0296295Y0065893D01*
X0296295Y0064894D02*
X0292833Y0064894D01*
X0293314Y0063896D02*
X0296291Y0063896D01*
X0296352Y0062897D02*
X0293498Y0062897D01*
X0293362Y0063797D02*
X0293362Y0063797D01*
X0293648Y0061899D02*
X0296406Y0061899D01*
X0296376Y0060900D02*
X0293799Y0060900D01*
X0293949Y0059902D02*
X0296262Y0059902D01*
X0296148Y0058903D02*
X0294091Y0058903D01*
X0293940Y0057905D02*
X0296034Y0057905D01*
X0295920Y0056906D02*
X0293790Y0056906D01*
X0293639Y0055908D02*
X0295629Y0055908D01*
X0295278Y0054909D02*
X0293489Y0054909D01*
X0293362Y0054070D02*
X0293362Y0054070D01*
X0293286Y0053911D02*
X0294927Y0053911D01*
X0294576Y0052912D02*
X0292805Y0052912D01*
X0292324Y0051914D02*
X0294160Y0051914D01*
X0293531Y0050915D02*
X0291843Y0050915D01*
X0291362Y0049917D02*
X0292901Y0049917D01*
X0292272Y0048918D02*
X0290560Y0048918D01*
X0289633Y0047920D02*
X0291574Y0047920D01*
X0290572Y0046921D02*
X0288707Y0046921D01*
X0287883Y0046033D02*
X0287883Y0046033D01*
X0287692Y0045923D02*
X0289571Y0045923D01*
X0288569Y0044924D02*
X0285962Y0044924D01*
X0287090Y0043926D02*
X0284233Y0043926D01*
X0283623Y0043574D02*
X0283623Y0043574D01*
X0278828Y0042479D02*
X0278828Y0042479D01*
X0273924Y0042847D02*
X0273924Y0042847D01*
X0273719Y0042927D02*
X0060791Y0042927D01*
X0058828Y0042479D02*
X0058828Y0042479D01*
X0053924Y0042847D02*
X0053924Y0042847D01*
X0063623Y0043574D02*
X0063623Y0043574D01*
X0064233Y0043926D02*
X0271175Y0043926D01*
X0268993Y0044924D02*
X0065962Y0044924D01*
X0067692Y0045923D02*
X0267741Y0045923D01*
X0266489Y0046921D02*
X0068707Y0046921D01*
X0067883Y0046033D02*
X0067883Y0046033D01*
X0067883Y0046033D01*
X0069633Y0047920D02*
X0265357Y0047920D01*
X0265500Y0047710D02*
X0265500Y0047710D01*
X0265500Y0047710D01*
X0264676Y0048918D02*
X0070560Y0048918D01*
X0071362Y0049917D02*
X0263995Y0049917D01*
X0263315Y0050915D02*
X0071843Y0050915D01*
X0072324Y0051914D02*
X0262686Y0051914D01*
X0262729Y0051774D02*
X0262729Y0051774D01*
X0262378Y0052912D02*
X0072805Y0052912D01*
X0073286Y0053911D02*
X0262070Y0053911D01*
X0261762Y0054909D02*
X0073489Y0054909D01*
X0073362Y0054070D02*
X0073362Y0054070D01*
X0073639Y0055908D02*
X0261454Y0055908D01*
X0261279Y0056906D02*
X0073790Y0056906D01*
X0073940Y0057905D02*
X0261279Y0057905D01*
X0261279Y0058903D02*
X0074091Y0058903D01*
X0073949Y0059902D02*
X0261279Y0059902D01*
X0261279Y0060900D02*
X0073799Y0060900D01*
X0073648Y0061899D02*
X0261436Y0061899D01*
X0261279Y0061392D02*
X0261279Y0061392D01*
X0261744Y0062897D02*
X0073498Y0062897D01*
X0073362Y0063797D02*
X0073362Y0063797D01*
X0073314Y0063896D02*
X0262052Y0063896D01*
X0262360Y0064894D02*
X0072833Y0064894D01*
X0072353Y0065893D02*
X0262668Y0065893D01*
X0263274Y0066891D02*
X0071872Y0066891D01*
X0071391Y0067890D02*
X0263955Y0067890D01*
X0264636Y0068888D02*
X0070615Y0068888D01*
X0071228Y0068228D02*
X0071228Y0068228D01*
X0038895Y0080871D02*
X0296295Y0080871D01*
X0296295Y0081869D02*
X0038895Y0081869D01*
X0038895Y0082868D02*
X0296295Y0082868D01*
X0296295Y0083866D02*
X0038895Y0083866D01*
X0038895Y0084865D02*
X0296295Y0084865D01*
X0296295Y0085863D02*
X0038895Y0085863D01*
X0038895Y0086862D02*
X0296295Y0086862D01*
X0296295Y0087860D02*
X0038895Y0087860D01*
X0038895Y0088859D02*
X0151981Y0088859D01*
X0152076Y0088764D02*
X0153840Y0088033D01*
X0155750Y0088033D01*
X0157514Y0088764D01*
X0158864Y0090114D01*
X0159595Y0091878D01*
X0159595Y0093788D01*
X0158864Y0095552D01*
X0157514Y0096902D01*
X0155750Y0097633D01*
X0153840Y0097633D01*
X0152076Y0096902D01*
X0150726Y0095552D01*
X0150718Y0095533D01*
X0138258Y0095533D01*
X0129195Y0104596D01*
X0129195Y0129596D01*
X0128258Y0130533D01*
X0103258Y0155533D01*
X0067128Y0155533D01*
X0066664Y0156652D01*
X0065314Y0158002D01*
X0063550Y0158733D01*
X0061640Y0158733D01*
X0059876Y0158002D01*
X0058526Y0156652D01*
X0057795Y0154888D01*
X0057795Y0152978D01*
X0058526Y0151214D01*
X0059876Y0149864D01*
X0061640Y0149133D01*
X0063550Y0149133D01*
X0065314Y0149864D01*
X0066664Y0151214D01*
X0067128Y0152333D01*
X0101932Y0152333D01*
X0125995Y0128270D01*
X0125995Y0103270D01*
X0135995Y0093270D01*
X0136932Y0092333D01*
X0149995Y0092333D01*
X0149995Y0091878D01*
X0150726Y0090114D01*
X0152076Y0088764D01*
X0150983Y0089857D02*
X0038895Y0089857D01*
X0038895Y0090856D02*
X0150419Y0090856D01*
X0150005Y0091854D02*
X0038895Y0091854D01*
X0038895Y0092853D02*
X0136413Y0092853D01*
X0135414Y0093851D02*
X0038895Y0093851D01*
X0038895Y0094850D02*
X0134416Y0094850D01*
X0133417Y0095848D02*
X0038895Y0095848D01*
X0038895Y0096847D02*
X0132419Y0096847D01*
X0131420Y0097845D02*
X0038895Y0097845D01*
X0038895Y0098844D02*
X0130422Y0098844D01*
X0129423Y0099842D02*
X0038895Y0099842D01*
X0038895Y0100841D02*
X0111719Y0100841D01*
X0111408Y0101067D02*
X0112070Y0100586D01*
X0112799Y0100214D01*
X0113577Y0099961D01*
X0114295Y0099847D01*
X0114295Y0104533D01*
X0109610Y0104533D01*
X0109723Y0103815D01*
X0109976Y0103037D01*
X0110348Y0102308D01*
X0110829Y0101645D01*
X0111408Y0101067D01*
X0110688Y0101839D02*
X0038895Y0101839D01*
X0038895Y0102838D02*
X0110078Y0102838D01*
X0109720Y0103836D02*
X0038895Y0103836D01*
X0038895Y0104835D02*
X0114295Y0104835D01*
X0114295Y0104533D02*
X0114295Y0105533D01*
X0109610Y0105533D01*
X0109723Y0106251D01*
X0109976Y0107029D01*
X0110348Y0107758D01*
X0110829Y0108421D01*
X0111408Y0108999D01*
X0112070Y0109480D01*
X0112799Y0109852D01*
X0113577Y0110105D01*
X0114295Y0110219D01*
X0114295Y0105533D01*
X0115295Y0105533D01*
X0115295Y0110219D01*
X0116013Y0110105D01*
X0116791Y0109852D01*
X0117521Y0109480D01*
X0118183Y0108999D01*
X0118761Y0108421D01*
X0119243Y0107758D01*
X0119614Y0107029D01*
X0119867Y0106251D01*
X0119981Y0105533D01*
X0115295Y0105533D01*
X0115295Y0104533D01*
X0115295Y0099847D01*
X0116013Y0099961D01*
X0116791Y0100214D01*
X0117521Y0100586D01*
X0118183Y0101067D01*
X0118761Y0101645D01*
X0119243Y0102308D01*
X0119614Y0103037D01*
X0119867Y0103815D01*
X0119981Y0104533D01*
X0115295Y0104533D01*
X0114295Y0104533D01*
X0114295Y0103836D02*
X0115295Y0103836D01*
X0115295Y0102838D02*
X0114295Y0102838D01*
X0114295Y0101839D02*
X0115295Y0101839D01*
X0115295Y0100841D02*
X0114295Y0100841D01*
X0117872Y0100841D02*
X0128425Y0100841D01*
X0127426Y0101839D02*
X0118902Y0101839D01*
X0119513Y0102838D02*
X0126428Y0102838D01*
X0125995Y0103836D02*
X0119870Y0103836D01*
X0119933Y0105833D02*
X0125995Y0105833D01*
X0125995Y0104835D02*
X0115295Y0104835D01*
X0115295Y0105833D02*
X0114295Y0105833D01*
X0114295Y0106832D02*
X0115295Y0106832D01*
X0115295Y0107830D02*
X0114295Y0107830D01*
X0114295Y0108829D02*
X0115295Y0108829D01*
X0115295Y0109827D02*
X0114295Y0109827D01*
X0112751Y0109827D02*
X0038895Y0109827D01*
X0038895Y0108829D02*
X0111237Y0108829D01*
X0110400Y0107830D02*
X0038895Y0107830D01*
X0038895Y0106832D02*
X0109912Y0106832D01*
X0109657Y0105833D02*
X0038895Y0105833D01*
X0038895Y0110826D02*
X0125995Y0110826D01*
X0125995Y0111824D02*
X0038895Y0111824D01*
X0038895Y0112823D02*
X0125995Y0112823D01*
X0125995Y0113821D02*
X0038895Y0113821D01*
X0038895Y0114820D02*
X0125995Y0114820D01*
X0125995Y0115818D02*
X0038895Y0115818D01*
X0038895Y0116817D02*
X0125995Y0116817D01*
X0125995Y0117815D02*
X0038895Y0117815D01*
X0038895Y0118814D02*
X0051675Y0118814D01*
X0051377Y0118861D02*
X0050599Y0119114D01*
X0049870Y0119486D01*
X0049208Y0119967D01*
X0048629Y0120545D01*
X0048148Y0121208D01*
X0047776Y0121937D01*
X0047523Y0122715D01*
X0047410Y0123433D01*
X0052095Y0123433D01*
X0052095Y0124433D01*
X0047410Y0124433D01*
X0047523Y0125151D01*
X0047776Y0125929D01*
X0048148Y0126658D01*
X0048629Y0127321D01*
X0049208Y0127899D01*
X0049870Y0128380D01*
X0050599Y0128752D01*
X0051156Y0128933D01*
X0050599Y0129114D01*
X0049870Y0129486D01*
X0049208Y0129967D01*
X0048629Y0130545D01*
X0048148Y0131208D01*
X0047776Y0131937D01*
X0047523Y0132715D01*
X0047410Y0133433D01*
X0052095Y0133433D01*
X0052095Y0134433D01*
X0047410Y0134433D01*
X0047523Y0135151D01*
X0047776Y0135929D01*
X0048148Y0136658D01*
X0048629Y0137321D01*
X0049208Y0137899D01*
X0049870Y0138380D01*
X0050599Y0138752D01*
X0051156Y0138933D01*
X0050599Y0139114D01*
X0049870Y0139486D01*
X0049208Y0139967D01*
X0048629Y0140545D01*
X0048148Y0141208D01*
X0047776Y0141937D01*
X0047523Y0142715D01*
X0047410Y0143433D01*
X0052095Y0143433D01*
X0052095Y0144433D01*
X0047410Y0144433D01*
X0047523Y0145151D01*
X0047776Y0145929D01*
X0048148Y0146658D01*
X0048629Y0147321D01*
X0049208Y0147899D01*
X0049870Y0148380D01*
X0050599Y0148752D01*
X0051377Y0149005D01*
X0052095Y0149119D01*
X0052095Y0144433D01*
X0053095Y0144433D01*
X0053095Y0149119D01*
X0053813Y0149005D01*
X0054591Y0148752D01*
X0055321Y0148380D01*
X0055983Y0147899D01*
X0056561Y0147321D01*
X0057043Y0146658D01*
X0057414Y0145929D01*
X0057667Y0145151D01*
X0057781Y0144433D01*
X0053095Y0144433D01*
X0053095Y0143433D01*
X0053095Y0134433D01*
X0052095Y0134433D01*
X0052095Y0139119D01*
X0052095Y0143433D01*
X0053095Y0143433D01*
X0057781Y0143433D01*
X0057667Y0142715D01*
X0057414Y0141937D01*
X0057043Y0141208D01*
X0056561Y0140545D01*
X0055983Y0139967D01*
X0055321Y0139486D01*
X0054591Y0139114D01*
X0054034Y0138933D01*
X0054591Y0138752D01*
X0055321Y0138380D01*
X0055983Y0137899D01*
X0056561Y0137321D01*
X0057043Y0136658D01*
X0057414Y0135929D01*
X0057667Y0135151D01*
X0057781Y0134433D01*
X0053095Y0134433D01*
X0053095Y0133433D01*
X0053095Y0124433D01*
X0052095Y0124433D01*
X0052095Y0129119D01*
X0052095Y0133433D01*
X0053095Y0133433D01*
X0057781Y0133433D01*
X0057667Y0132715D01*
X0057414Y0131937D01*
X0057043Y0131208D01*
X0056561Y0130545D01*
X0055983Y0129967D01*
X0055321Y0129486D01*
X0054591Y0129114D01*
X0054034Y0128933D01*
X0054591Y0128752D01*
X0055321Y0128380D01*
X0055983Y0127899D01*
X0056561Y0127321D01*
X0057043Y0126658D01*
X0057414Y0125929D01*
X0057667Y0125151D01*
X0057781Y0124433D01*
X0053095Y0124433D01*
X0053095Y0123433D01*
X0053095Y0118747D01*
X0053813Y0118861D01*
X0054591Y0119114D01*
X0055321Y0119486D01*
X0055983Y0119967D01*
X0056561Y0120545D01*
X0057043Y0121208D01*
X0057414Y0121937D01*
X0057667Y0122715D01*
X0057781Y0123433D01*
X0053095Y0123433D01*
X0052095Y0123433D01*
X0052095Y0118747D01*
X0051377Y0118861D01*
X0052095Y0118814D02*
X0053095Y0118814D01*
X0053515Y0118814D02*
X0112026Y0118814D01*
X0112076Y0118764D02*
X0113840Y0118033D01*
X0115750Y0118033D01*
X0117514Y0118764D01*
X0118864Y0120114D01*
X0119595Y0121878D01*
X0119595Y0123788D01*
X0118864Y0125552D01*
X0117514Y0126902D01*
X0115750Y0127633D01*
X0113840Y0127633D01*
X0112076Y0126902D01*
X0110726Y0125552D01*
X0109995Y0123788D01*
X0109995Y0121878D01*
X0110726Y0120114D01*
X0112076Y0118764D01*
X0111027Y0119812D02*
X0065190Y0119812D01*
X0065314Y0119864D02*
X0066664Y0121214D01*
X0067395Y0122978D01*
X0067395Y0124888D01*
X0066664Y0126652D01*
X0065314Y0128002D01*
X0063550Y0128733D01*
X0061640Y0128733D01*
X0059876Y0128002D01*
X0058526Y0126652D01*
X0057795Y0124888D01*
X0057795Y0122978D01*
X0058526Y0121214D01*
X0059876Y0119864D01*
X0061640Y0119133D01*
X0063550Y0119133D01*
X0065314Y0119864D01*
X0066261Y0120811D02*
X0110437Y0120811D01*
X0110024Y0121810D02*
X0066911Y0121810D01*
X0067325Y0122808D02*
X0109995Y0122808D01*
X0110003Y0123807D02*
X0067395Y0123807D01*
X0067395Y0124805D02*
X0110416Y0124805D01*
X0110977Y0125804D02*
X0067016Y0125804D01*
X0066514Y0126802D02*
X0111976Y0126802D01*
X0117614Y0126802D02*
X0125995Y0126802D01*
X0125995Y0125804D02*
X0118613Y0125804D01*
X0119174Y0124805D02*
X0125995Y0124805D01*
X0125995Y0123807D02*
X0119587Y0123807D01*
X0119595Y0122808D02*
X0125995Y0122808D01*
X0125995Y0121810D02*
X0119567Y0121810D01*
X0119153Y0120811D02*
X0125995Y0120811D01*
X0125995Y0119812D02*
X0118563Y0119812D01*
X0117564Y0118814D02*
X0125995Y0118814D01*
X0129195Y0118814D02*
X0137626Y0118814D01*
X0137676Y0118764D02*
X0139440Y0118033D01*
X0141350Y0118033D01*
X0143114Y0118764D01*
X0144464Y0120114D01*
X0145195Y0121878D01*
X0145195Y0123788D01*
X0144464Y0125552D01*
X0143114Y0126902D01*
X0141350Y0127633D01*
X0139440Y0127633D01*
X0137676Y0126902D01*
X0136326Y0125552D01*
X0135595Y0123788D01*
X0135595Y0121878D01*
X0136326Y0120114D01*
X0137676Y0118764D01*
X0136627Y0119812D02*
X0129195Y0119812D01*
X0129195Y0120811D02*
X0136037Y0120811D01*
X0135624Y0121810D02*
X0129195Y0121810D01*
X0129195Y0122808D02*
X0135595Y0122808D01*
X0135603Y0123807D02*
X0129195Y0123807D01*
X0129195Y0124805D02*
X0136016Y0124805D01*
X0136577Y0125804D02*
X0129195Y0125804D01*
X0129195Y0126802D02*
X0137576Y0126802D01*
X0143214Y0126802D02*
X0151976Y0126802D01*
X0152076Y0126902D02*
X0150726Y0125552D01*
X0149995Y0123788D01*
X0149995Y0121878D01*
X0150726Y0120114D01*
X0152076Y0118764D01*
X0153840Y0118033D01*
X0155750Y0118033D01*
X0157514Y0118764D01*
X0158864Y0120114D01*
X0159595Y0121878D01*
X0159595Y0123788D01*
X0158864Y0125552D01*
X0157514Y0126902D01*
X0155750Y0127633D01*
X0153840Y0127633D01*
X0152076Y0126902D01*
X0150977Y0125804D02*
X0144213Y0125804D01*
X0144774Y0124805D02*
X0150416Y0124805D01*
X0150003Y0123807D02*
X0145187Y0123807D01*
X0145195Y0122808D02*
X0149995Y0122808D01*
X0150024Y0121810D02*
X0145167Y0121810D01*
X0144753Y0120811D02*
X0150437Y0120811D01*
X0151027Y0119812D02*
X0144163Y0119812D01*
X0143164Y0118814D02*
X0152026Y0118814D01*
X0157564Y0118814D02*
X0177626Y0118814D01*
X0177676Y0118764D02*
X0179440Y0118033D01*
X0181350Y0118033D01*
X0183114Y0118764D01*
X0184464Y0120114D01*
X0185195Y0121878D01*
X0185195Y0123788D01*
X0184464Y0125552D01*
X0183114Y0126902D01*
X0181350Y0127633D01*
X0179440Y0127633D01*
X0177676Y0126902D01*
X0176326Y0125552D01*
X0175595Y0123788D01*
X0175595Y0121878D01*
X0176326Y0120114D01*
X0177676Y0118764D01*
X0176627Y0119812D02*
X0158563Y0119812D01*
X0159153Y0120811D02*
X0176037Y0120811D01*
X0175624Y0121810D02*
X0159567Y0121810D01*
X0159595Y0122808D02*
X0175595Y0122808D01*
X0175603Y0123807D02*
X0159587Y0123807D01*
X0159174Y0124805D02*
X0176016Y0124805D01*
X0176577Y0125804D02*
X0158613Y0125804D01*
X0157614Y0126802D02*
X0177576Y0126802D01*
X0179440Y0130233D02*
X0177676Y0130964D01*
X0176326Y0132314D01*
X0175595Y0134078D01*
X0175595Y0135988D01*
X0176326Y0137752D01*
X0177676Y0139102D01*
X0179440Y0139833D01*
X0181350Y0139833D01*
X0183114Y0139102D01*
X0184464Y0137752D01*
X0185195Y0135988D01*
X0185195Y0134078D01*
X0184464Y0132314D01*
X0183114Y0130964D01*
X0181350Y0130233D01*
X0179440Y0130233D01*
X0178081Y0130796D02*
X0157810Y0130796D01*
X0157521Y0130586D02*
X0158183Y0131067D01*
X0158761Y0131645D01*
X0159243Y0132308D01*
X0159614Y0133037D01*
X0159867Y0133815D01*
X0159981Y0134533D01*
X0155295Y0134533D01*
X0155295Y0129847D01*
X0156013Y0129961D01*
X0156791Y0130214D01*
X0157521Y0130586D01*
X0158870Y0131795D02*
X0176845Y0131795D01*
X0176127Y0132793D02*
X0159490Y0132793D01*
X0159859Y0133792D02*
X0175714Y0133792D01*
X0175595Y0134790D02*
X0155295Y0134790D01*
X0155295Y0134533D02*
X0155295Y0135533D01*
X0154295Y0135533D01*
X0154295Y0134533D01*
X0149610Y0134533D01*
X0149723Y0133815D01*
X0149976Y0133037D01*
X0150348Y0132308D01*
X0150829Y0131645D01*
X0151408Y0131067D01*
X0152070Y0130586D01*
X0152799Y0130214D01*
X0153577Y0129961D01*
X0154295Y0129847D01*
X0154295Y0134533D01*
X0155295Y0134533D01*
X0155295Y0133792D02*
X0154295Y0133792D01*
X0154295Y0134790D02*
X0124001Y0134790D01*
X0124999Y0133792D02*
X0149731Y0133792D01*
X0150100Y0132793D02*
X0125998Y0132793D01*
X0126996Y0131795D02*
X0150720Y0131795D01*
X0151780Y0130796D02*
X0127995Y0130796D01*
X0128993Y0129798D02*
X0270036Y0129798D01*
X0269876Y0129864D02*
X0271640Y0129133D01*
X0273550Y0129133D01*
X0275314Y0129864D01*
X0276664Y0131214D01*
X0277395Y0132978D01*
X0277395Y0134888D01*
X0276664Y0136652D01*
X0275314Y0138002D01*
X0273550Y0138733D01*
X0271640Y0138733D01*
X0269876Y0138002D01*
X0268526Y0136652D01*
X0267795Y0134888D01*
X0267795Y0132978D01*
X0268526Y0131214D01*
X0269876Y0129864D01*
X0268944Y0130796D02*
X0182709Y0130796D01*
X0183945Y0131795D02*
X0261072Y0131795D01*
X0261129Y0131738D02*
X0262080Y0131344D01*
X0263110Y0131344D01*
X0264062Y0131738D01*
X0264790Y0132467D01*
X0265184Y0133418D01*
X0265184Y0134448D01*
X0264790Y0135400D01*
X0264195Y0135994D01*
X0264195Y0188270D01*
X0264195Y0189596D01*
X0210184Y0243607D01*
X0210184Y0244448D01*
X0209790Y0245400D01*
X0209062Y0246128D01*
X0208110Y0246522D01*
X0207080Y0246522D01*
X0206129Y0246128D01*
X0205400Y0245400D01*
X0205095Y0244663D01*
X0204790Y0245400D01*
X0204062Y0246128D01*
X0203110Y0246522D01*
X0202080Y0246522D01*
X0201129Y0246128D01*
X0200400Y0245400D01*
X0200006Y0244448D01*
X0200006Y0243418D01*
X0200400Y0242467D01*
X0201129Y0241738D01*
X0202080Y0241344D01*
X0202921Y0241344D01*
X0255995Y0188270D01*
X0255995Y0145994D01*
X0255400Y0145400D01*
X0255006Y0144448D01*
X0255006Y0143418D01*
X0255400Y0142467D01*
X0256129Y0141738D01*
X0257080Y0141344D01*
X0258110Y0141344D01*
X0259062Y0141738D01*
X0259790Y0142467D01*
X0260184Y0143418D01*
X0260184Y0144448D01*
X0259790Y0145400D01*
X0259195Y0145994D01*
X0259195Y0189596D01*
X0207447Y0241344D01*
X0207921Y0241344D01*
X0260995Y0188270D01*
X0260995Y0135994D01*
X0260400Y0135400D01*
X0260006Y0134448D01*
X0260006Y0133418D01*
X0260400Y0132467D01*
X0261129Y0131738D01*
X0260265Y0132793D02*
X0184663Y0132793D01*
X0185076Y0133792D02*
X0260006Y0133792D01*
X0260148Y0134790D02*
X0185195Y0134790D01*
X0185195Y0135789D02*
X0260789Y0135789D01*
X0260995Y0136787D02*
X0184864Y0136787D01*
X0184431Y0137786D02*
X0260995Y0137786D01*
X0260995Y0138784D02*
X0183432Y0138784D01*
X0181471Y0139783D02*
X0260995Y0139783D01*
X0260995Y0140781D02*
X0118010Y0140781D01*
X0119008Y0139783D02*
X0152663Y0139783D01*
X0152799Y0139852D02*
X0152070Y0139480D01*
X0151408Y0138999D01*
X0150829Y0138421D01*
X0150348Y0137758D01*
X0149976Y0137029D01*
X0149723Y0136251D01*
X0149610Y0135533D01*
X0154295Y0135533D01*
X0154295Y0140219D01*
X0153577Y0140105D01*
X0152799Y0139852D01*
X0154295Y0139783D02*
X0155295Y0139783D01*
X0155295Y0140219D02*
X0156013Y0140105D01*
X0156791Y0139852D01*
X0157521Y0139480D01*
X0158183Y0138999D01*
X0158761Y0138421D01*
X0159243Y0137758D01*
X0159614Y0137029D01*
X0159867Y0136251D01*
X0159981Y0135533D01*
X0155295Y0135533D01*
X0155295Y0140219D01*
X0155295Y0138784D02*
X0154295Y0138784D01*
X0154295Y0137786D02*
X0155295Y0137786D01*
X0155295Y0136787D02*
X0154295Y0136787D01*
X0154295Y0135789D02*
X0155295Y0135789D01*
X0155295Y0132793D02*
X0154295Y0132793D01*
X0154295Y0131795D02*
X0155295Y0131795D01*
X0155295Y0130796D02*
X0154295Y0130796D01*
X0149650Y0135789D02*
X0123002Y0135789D01*
X0122004Y0136787D02*
X0149897Y0136787D01*
X0150367Y0137786D02*
X0121005Y0137786D01*
X0120007Y0138784D02*
X0151192Y0138784D01*
X0156927Y0139783D02*
X0179319Y0139783D01*
X0177358Y0138784D02*
X0158398Y0138784D01*
X0159223Y0137786D02*
X0176360Y0137786D01*
X0175926Y0136787D02*
X0159693Y0136787D01*
X0159940Y0135789D02*
X0175595Y0135789D01*
X0183214Y0126802D02*
X0191976Y0126802D01*
X0192076Y0126902D02*
X0190726Y0125552D01*
X0189995Y0123788D01*
X0189995Y0121878D01*
X0190726Y0120114D01*
X0192076Y0118764D01*
X0193840Y0118033D01*
X0195750Y0118033D01*
X0197514Y0118764D01*
X0198864Y0120114D01*
X0199595Y0121878D01*
X0199595Y0123788D01*
X0198864Y0125552D01*
X0197514Y0126902D01*
X0195750Y0127633D01*
X0193840Y0127633D01*
X0192076Y0126902D01*
X0190977Y0125804D02*
X0184213Y0125804D01*
X0184774Y0124805D02*
X0190416Y0124805D01*
X0190003Y0123807D02*
X0185187Y0123807D01*
X0185195Y0122808D02*
X0189995Y0122808D01*
X0190024Y0121810D02*
X0185167Y0121810D01*
X0184753Y0120811D02*
X0190437Y0120811D01*
X0191027Y0119812D02*
X0184163Y0119812D01*
X0183164Y0118814D02*
X0192026Y0118814D01*
X0197564Y0118814D02*
X0217626Y0118814D01*
X0217676Y0118764D02*
X0219440Y0118033D01*
X0221350Y0118033D01*
X0223114Y0118764D01*
X0224464Y0120114D01*
X0225195Y0121878D01*
X0225195Y0123788D01*
X0224464Y0125552D01*
X0223114Y0126902D01*
X0221350Y0127633D01*
X0219440Y0127633D01*
X0217676Y0126902D01*
X0216326Y0125552D01*
X0215595Y0123788D01*
X0215595Y0121878D01*
X0216326Y0120114D01*
X0217676Y0118764D01*
X0216627Y0119812D02*
X0198563Y0119812D01*
X0199153Y0120811D02*
X0216037Y0120811D01*
X0215624Y0121810D02*
X0199567Y0121810D01*
X0199595Y0122808D02*
X0215595Y0122808D01*
X0215603Y0123807D02*
X0199587Y0123807D01*
X0199174Y0124805D02*
X0216016Y0124805D01*
X0216577Y0125804D02*
X0198613Y0125804D01*
X0197614Y0126802D02*
X0217576Y0126802D01*
X0223214Y0126802D02*
X0268676Y0126802D01*
X0268526Y0126652D02*
X0267795Y0124888D01*
X0267795Y0122978D01*
X0268526Y0121214D01*
X0269876Y0119864D01*
X0271640Y0119133D01*
X0273550Y0119133D01*
X0275314Y0119864D01*
X0276664Y0121214D01*
X0277395Y0122978D01*
X0277395Y0124888D01*
X0276664Y0126652D01*
X0275314Y0128002D01*
X0273550Y0128733D01*
X0271640Y0128733D01*
X0269876Y0128002D01*
X0268526Y0126652D01*
X0268174Y0125804D02*
X0224213Y0125804D01*
X0224774Y0124805D02*
X0267795Y0124805D01*
X0267795Y0123807D02*
X0225187Y0123807D01*
X0225195Y0122808D02*
X0267866Y0122808D01*
X0268279Y0121810D02*
X0225167Y0121810D01*
X0224753Y0120811D02*
X0268929Y0120811D01*
X0270000Y0119812D02*
X0224163Y0119812D01*
X0223164Y0118814D02*
X0296295Y0118814D01*
X0296295Y0119812D02*
X0285190Y0119812D01*
X0285314Y0119864D02*
X0286664Y0121214D01*
X0287395Y0122978D01*
X0287395Y0124888D01*
X0286664Y0126652D01*
X0285314Y0128002D01*
X0283550Y0128733D01*
X0281640Y0128733D01*
X0279876Y0128002D01*
X0278526Y0126652D01*
X0277795Y0124888D01*
X0277795Y0122978D01*
X0278526Y0121214D01*
X0279876Y0119864D01*
X0281640Y0119133D01*
X0283550Y0119133D01*
X0285314Y0119864D01*
X0286261Y0120811D02*
X0296295Y0120811D01*
X0296295Y0121810D02*
X0286911Y0121810D01*
X0287325Y0122808D02*
X0296295Y0122808D01*
X0296295Y0123807D02*
X0287395Y0123807D01*
X0287395Y0124805D02*
X0296295Y0124805D01*
X0296295Y0125804D02*
X0287016Y0125804D01*
X0286514Y0126802D02*
X0296295Y0126802D01*
X0296295Y0127801D02*
X0285516Y0127801D01*
X0285154Y0129798D02*
X0296295Y0129798D01*
X0296295Y0130796D02*
X0286246Y0130796D01*
X0286664Y0131214D02*
X0287395Y0132978D01*
X0287395Y0134888D01*
X0286664Y0136652D01*
X0285314Y0138002D01*
X0283550Y0138733D01*
X0281640Y0138733D01*
X0279876Y0138002D01*
X0278526Y0136652D01*
X0277795Y0134888D01*
X0277795Y0132978D01*
X0278526Y0131214D01*
X0279876Y0129864D01*
X0281640Y0129133D01*
X0283550Y0129133D01*
X0285314Y0129864D01*
X0286664Y0131214D01*
X0286905Y0131795D02*
X0296295Y0131795D01*
X0296295Y0132793D02*
X0287318Y0132793D01*
X0287395Y0133792D02*
X0296295Y0133792D01*
X0296295Y0134790D02*
X0287395Y0134790D01*
X0287022Y0135789D02*
X0296295Y0135789D01*
X0296295Y0136787D02*
X0286529Y0136787D01*
X0285531Y0137786D02*
X0296295Y0137786D01*
X0296295Y0138784D02*
X0264195Y0138784D01*
X0264195Y0137786D02*
X0269660Y0137786D01*
X0268661Y0136787D02*
X0264195Y0136787D01*
X0264401Y0135789D02*
X0268168Y0135789D01*
X0267795Y0134790D02*
X0265042Y0134790D01*
X0265184Y0133792D02*
X0267795Y0133792D01*
X0267872Y0132793D02*
X0264925Y0132793D01*
X0264118Y0131795D02*
X0268285Y0131795D01*
X0269674Y0127801D02*
X0129195Y0127801D01*
X0129195Y0128799D02*
X0296295Y0128799D01*
X0296295Y0117815D02*
X0129195Y0117815D01*
X0129195Y0116817D02*
X0296295Y0116817D01*
X0296295Y0115818D02*
X0129195Y0115818D01*
X0129195Y0114820D02*
X0296295Y0114820D01*
X0296295Y0113821D02*
X0129195Y0113821D01*
X0129195Y0112823D02*
X0296295Y0112823D01*
X0296295Y0111824D02*
X0129195Y0111824D01*
X0129195Y0110826D02*
X0296295Y0110826D01*
X0296295Y0109827D02*
X0221364Y0109827D01*
X0221350Y0109833D02*
X0219440Y0109833D01*
X0217676Y0109102D01*
X0216326Y0107752D01*
X0215595Y0105988D01*
X0215595Y0104078D01*
X0216326Y0102314D01*
X0217676Y0100964D01*
X0219440Y0100233D01*
X0221350Y0100233D01*
X0223114Y0100964D01*
X0224464Y0102314D01*
X0225195Y0104078D01*
X0225195Y0105988D01*
X0224464Y0107752D01*
X0223114Y0109102D01*
X0221350Y0109833D01*
X0219427Y0109827D02*
X0196840Y0109827D01*
X0196791Y0109852D02*
X0196013Y0110105D01*
X0195295Y0110219D01*
X0195295Y0105533D01*
X0194295Y0105533D01*
X0194295Y0104533D01*
X0189610Y0104533D01*
X0189723Y0103815D01*
X0189976Y0103037D01*
X0190348Y0102308D01*
X0190829Y0101645D01*
X0191408Y0101067D01*
X0192070Y0100586D01*
X0192799Y0100214D01*
X0193577Y0099961D01*
X0194295Y0099847D01*
X0194295Y0104533D01*
X0195295Y0104533D01*
X0195295Y0099847D01*
X0196013Y0099961D01*
X0196791Y0100214D01*
X0197521Y0100586D01*
X0198183Y0101067D01*
X0198761Y0101645D01*
X0199243Y0102308D01*
X0199614Y0103037D01*
X0199867Y0103815D01*
X0199981Y0104533D01*
X0195295Y0104533D01*
X0195295Y0105533D01*
X0199981Y0105533D01*
X0199867Y0106251D01*
X0199614Y0107029D01*
X0199243Y0107758D01*
X0198761Y0108421D01*
X0198183Y0108999D01*
X0197521Y0109480D01*
X0196791Y0109852D01*
X0195295Y0109827D02*
X0194295Y0109827D01*
X0194295Y0110219D02*
X0193577Y0110105D01*
X0192799Y0109852D01*
X0192070Y0109480D01*
X0191408Y0108999D01*
X0190829Y0108421D01*
X0190348Y0107758D01*
X0189976Y0107029D01*
X0189723Y0106251D01*
X0189610Y0105533D01*
X0194295Y0105533D01*
X0194295Y0110219D01*
X0194295Y0108829D02*
X0195295Y0108829D01*
X0195295Y0107830D02*
X0194295Y0107830D01*
X0194295Y0106832D02*
X0195295Y0106832D01*
X0195295Y0105833D02*
X0194295Y0105833D01*
X0194295Y0104835D02*
X0185195Y0104835D01*
X0185195Y0104078D02*
X0185195Y0105988D01*
X0184464Y0107752D01*
X0183114Y0109102D01*
X0181350Y0109833D01*
X0179440Y0109833D01*
X0177676Y0109102D01*
X0176326Y0107752D01*
X0175595Y0105988D01*
X0175595Y0104078D01*
X0176326Y0102314D01*
X0177676Y0100964D01*
X0179440Y0100233D01*
X0181350Y0100233D01*
X0183114Y0100964D01*
X0184464Y0102314D01*
X0185195Y0104078D01*
X0185095Y0103836D02*
X0189720Y0103836D01*
X0190078Y0102838D02*
X0184681Y0102838D01*
X0183990Y0101839D02*
X0190688Y0101839D01*
X0191719Y0100841D02*
X0182817Y0100841D01*
X0181350Y0097633D02*
X0179440Y0097633D01*
X0177676Y0096902D01*
X0176326Y0095552D01*
X0175595Y0093788D01*
X0175595Y0091878D01*
X0176326Y0090114D01*
X0177676Y0088764D01*
X0179440Y0088033D01*
X0181350Y0088033D01*
X0183114Y0088764D01*
X0184464Y0090114D01*
X0185195Y0091878D01*
X0185195Y0093788D01*
X0184464Y0095552D01*
X0183114Y0096902D01*
X0181350Y0097633D01*
X0183170Y0096847D02*
X0296295Y0096847D01*
X0296295Y0097845D02*
X0135946Y0097845D01*
X0136944Y0096847D02*
X0152021Y0096847D01*
X0151022Y0095848D02*
X0137943Y0095848D01*
X0137595Y0093933D02*
X0153695Y0093933D01*
X0154795Y0092833D01*
X0157609Y0088859D02*
X0177581Y0088859D01*
X0176583Y0089857D02*
X0158607Y0089857D01*
X0159172Y0090856D02*
X0176019Y0090856D01*
X0175605Y0091854D02*
X0159585Y0091854D01*
X0159595Y0092853D02*
X0175595Y0092853D01*
X0175621Y0093851D02*
X0159569Y0093851D01*
X0159155Y0094850D02*
X0176035Y0094850D01*
X0176622Y0095848D02*
X0158568Y0095848D01*
X0157570Y0096847D02*
X0177621Y0096847D01*
X0177973Y0100841D02*
X0157872Y0100841D01*
X0158183Y0101067D02*
X0157521Y0100586D01*
X0156791Y0100214D01*
X0156013Y0099961D01*
X0155295Y0099847D01*
X0155295Y0104533D01*
X0154295Y0104533D01*
X0149610Y0104533D01*
X0149723Y0103815D01*
X0149976Y0103037D01*
X0150348Y0102308D01*
X0150829Y0101645D01*
X0151408Y0101067D01*
X0152070Y0100586D01*
X0152799Y0100214D01*
X0153577Y0099961D01*
X0154295Y0099847D01*
X0154295Y0104533D01*
X0154295Y0105533D01*
X0149610Y0105533D01*
X0149723Y0106251D01*
X0149976Y0107029D01*
X0150348Y0107758D01*
X0150829Y0108421D01*
X0151408Y0108999D01*
X0152070Y0109480D01*
X0152799Y0109852D01*
X0153577Y0110105D01*
X0154295Y0110219D01*
X0154295Y0105533D01*
X0155295Y0105533D01*
X0155295Y0110219D01*
X0156013Y0110105D01*
X0156791Y0109852D01*
X0157521Y0109480D01*
X0158183Y0108999D01*
X0158761Y0108421D01*
X0159243Y0107758D01*
X0159614Y0107029D01*
X0159867Y0106251D01*
X0159981Y0105533D01*
X0155295Y0105533D01*
X0155295Y0104533D01*
X0159981Y0104533D01*
X0159867Y0103815D01*
X0159614Y0103037D01*
X0159243Y0102308D01*
X0158761Y0101645D01*
X0158183Y0101067D01*
X0158902Y0101839D02*
X0176801Y0101839D01*
X0176109Y0102838D02*
X0159513Y0102838D01*
X0159870Y0103836D02*
X0175695Y0103836D01*
X0175595Y0104835D02*
X0155295Y0104835D01*
X0155295Y0105833D02*
X0154295Y0105833D01*
X0154295Y0104835D02*
X0145195Y0104835D01*
X0145195Y0104078D02*
X0145195Y0105988D01*
X0144464Y0107752D01*
X0143114Y0109102D01*
X0141350Y0109833D01*
X0139440Y0109833D01*
X0137676Y0109102D01*
X0136326Y0107752D01*
X0135595Y0105988D01*
X0135595Y0104078D01*
X0136326Y0102314D01*
X0137676Y0100964D01*
X0139440Y0100233D01*
X0141350Y0100233D01*
X0143114Y0100964D01*
X0144464Y0102314D01*
X0145195Y0104078D01*
X0145095Y0103836D02*
X0149720Y0103836D01*
X0150078Y0102838D02*
X0144681Y0102838D01*
X0143990Y0101839D02*
X0150688Y0101839D01*
X0151719Y0100841D02*
X0142817Y0100841D01*
X0137973Y0100841D02*
X0132950Y0100841D01*
X0131952Y0101839D02*
X0136801Y0101839D01*
X0136109Y0102838D02*
X0130953Y0102838D01*
X0129955Y0103836D02*
X0135695Y0103836D01*
X0135595Y0104835D02*
X0129195Y0104835D01*
X0129195Y0105833D02*
X0135595Y0105833D01*
X0135945Y0106832D02*
X0129195Y0106832D01*
X0129195Y0107830D02*
X0136404Y0107830D01*
X0137403Y0108829D02*
X0129195Y0108829D01*
X0129195Y0109827D02*
X0139427Y0109827D01*
X0141364Y0109827D02*
X0152751Y0109827D01*
X0154295Y0109827D02*
X0155295Y0109827D01*
X0155295Y0108829D02*
X0154295Y0108829D01*
X0154295Y0107830D02*
X0155295Y0107830D01*
X0155295Y0106832D02*
X0154295Y0106832D01*
X0154295Y0103836D02*
X0155295Y0103836D01*
X0155295Y0102838D02*
X0154295Y0102838D01*
X0154295Y0101839D02*
X0155295Y0101839D01*
X0155295Y0100841D02*
X0154295Y0100841D01*
X0149657Y0105833D02*
X0145195Y0105833D01*
X0144846Y0106832D02*
X0149912Y0106832D01*
X0150400Y0107830D02*
X0144386Y0107830D01*
X0143388Y0108829D02*
X0151237Y0108829D01*
X0156840Y0109827D02*
X0179427Y0109827D01*
X0181364Y0109827D02*
X0192751Y0109827D01*
X0191237Y0108829D02*
X0183388Y0108829D01*
X0184386Y0107830D02*
X0190400Y0107830D01*
X0189912Y0106832D02*
X0184846Y0106832D01*
X0185195Y0105833D02*
X0189657Y0105833D01*
X0194295Y0103836D02*
X0195295Y0103836D01*
X0195295Y0102838D02*
X0194295Y0102838D01*
X0194295Y0101839D02*
X0195295Y0101839D01*
X0195295Y0100841D02*
X0194295Y0100841D01*
X0197872Y0100841D02*
X0217973Y0100841D01*
X0216801Y0101839D02*
X0198902Y0101839D01*
X0199513Y0102838D02*
X0216109Y0102838D01*
X0215695Y0103836D02*
X0199870Y0103836D01*
X0199933Y0105833D02*
X0215595Y0105833D01*
X0215595Y0104835D02*
X0195295Y0104835D01*
X0199678Y0106832D02*
X0215945Y0106832D01*
X0216404Y0107830D02*
X0199190Y0107830D01*
X0198353Y0108829D02*
X0217403Y0108829D01*
X0223388Y0108829D02*
X0296295Y0108829D01*
X0296295Y0107830D02*
X0224386Y0107830D01*
X0224846Y0106832D02*
X0296295Y0106832D01*
X0296295Y0105833D02*
X0225195Y0105833D01*
X0225195Y0104835D02*
X0296295Y0104835D01*
X0296295Y0103836D02*
X0225095Y0103836D01*
X0224681Y0102838D02*
X0296295Y0102838D01*
X0296295Y0101839D02*
X0223990Y0101839D01*
X0222817Y0100841D02*
X0296295Y0100841D01*
X0296295Y0099842D02*
X0133949Y0099842D01*
X0134947Y0098844D02*
X0296295Y0098844D01*
X0296295Y0095848D02*
X0184168Y0095848D01*
X0184755Y0094850D02*
X0296295Y0094850D01*
X0296295Y0093851D02*
X0185169Y0093851D01*
X0185195Y0092853D02*
X0296295Y0092853D01*
X0296295Y0091854D02*
X0185185Y0091854D01*
X0184772Y0090856D02*
X0296295Y0090856D01*
X0296295Y0089857D02*
X0184207Y0089857D01*
X0183209Y0088859D02*
X0296295Y0088859D01*
X0280000Y0119812D02*
X0275190Y0119812D01*
X0276261Y0120811D02*
X0278929Y0120811D01*
X0278279Y0121810D02*
X0276911Y0121810D01*
X0277325Y0122808D02*
X0277866Y0122808D01*
X0277795Y0123807D02*
X0277395Y0123807D01*
X0277395Y0124805D02*
X0277795Y0124805D01*
X0278174Y0125804D02*
X0277016Y0125804D01*
X0276514Y0126802D02*
X0278676Y0126802D01*
X0279674Y0127801D02*
X0275516Y0127801D01*
X0275154Y0129798D02*
X0280036Y0129798D01*
X0278944Y0130796D02*
X0276246Y0130796D01*
X0276905Y0131795D02*
X0278285Y0131795D01*
X0277872Y0132793D02*
X0277318Y0132793D01*
X0277395Y0133792D02*
X0277795Y0133792D01*
X0277795Y0134790D02*
X0277395Y0134790D01*
X0277022Y0135789D02*
X0278168Y0135789D01*
X0278661Y0136787D02*
X0276529Y0136787D01*
X0275531Y0137786D02*
X0279660Y0137786D01*
X0280072Y0139783D02*
X0275118Y0139783D01*
X0275314Y0139864D02*
X0276664Y0141214D01*
X0277395Y0142978D01*
X0277395Y0144888D01*
X0276664Y0146652D01*
X0275314Y0148002D01*
X0273550Y0148733D01*
X0271640Y0148733D01*
X0269876Y0148002D01*
X0268526Y0146652D01*
X0267795Y0144888D01*
X0267795Y0142978D01*
X0268526Y0141214D01*
X0269876Y0139864D01*
X0271640Y0139133D01*
X0273550Y0139133D01*
X0275314Y0139864D01*
X0276232Y0140781D02*
X0278959Y0140781D01*
X0278526Y0141214D02*
X0279876Y0139864D01*
X0281640Y0139133D01*
X0283550Y0139133D01*
X0285314Y0139864D01*
X0286664Y0141214D01*
X0287395Y0142978D01*
X0287395Y0144888D01*
X0286664Y0146652D01*
X0285314Y0148002D01*
X0283550Y0148733D01*
X0281640Y0148733D01*
X0279876Y0148002D01*
X0278526Y0146652D01*
X0277795Y0144888D01*
X0277795Y0142978D01*
X0278526Y0141214D01*
X0278292Y0141780D02*
X0276899Y0141780D01*
X0277312Y0142778D02*
X0277878Y0142778D01*
X0277795Y0143777D02*
X0277395Y0143777D01*
X0277395Y0144775D02*
X0277795Y0144775D01*
X0278162Y0145774D02*
X0277028Y0145774D01*
X0276544Y0146772D02*
X0278646Y0146772D01*
X0279645Y0147771D02*
X0275546Y0147771D01*
X0275082Y0149768D02*
X0280108Y0149768D01*
X0279876Y0149864D02*
X0281640Y0149133D01*
X0283550Y0149133D01*
X0285314Y0149864D01*
X0286664Y0151214D01*
X0287395Y0152978D01*
X0287395Y0154888D01*
X0286664Y0156652D01*
X0285314Y0158002D01*
X0283550Y0158733D01*
X0281640Y0158733D01*
X0279876Y0158002D01*
X0278526Y0156652D01*
X0277795Y0154888D01*
X0277795Y0152978D01*
X0278526Y0151214D01*
X0279876Y0149864D01*
X0278974Y0150766D02*
X0276217Y0150766D01*
X0276664Y0151214D02*
X0277395Y0152978D01*
X0277395Y0154888D01*
X0276664Y0156652D01*
X0275314Y0158002D01*
X0273550Y0158733D01*
X0271640Y0158733D01*
X0269876Y0158002D01*
X0268526Y0156652D01*
X0267795Y0154888D01*
X0267795Y0152978D01*
X0268526Y0151214D01*
X0269876Y0149864D01*
X0271640Y0149133D01*
X0273550Y0149133D01*
X0275314Y0149864D01*
X0276664Y0151214D01*
X0276892Y0151765D02*
X0278298Y0151765D01*
X0277884Y0152763D02*
X0277306Y0152763D01*
X0277395Y0153762D02*
X0277795Y0153762D01*
X0277795Y0154760D02*
X0277395Y0154760D01*
X0277034Y0155759D02*
X0278156Y0155759D01*
X0278631Y0156757D02*
X0276559Y0156757D01*
X0275560Y0157756D02*
X0279630Y0157756D01*
X0280144Y0159753D02*
X0275046Y0159753D01*
X0275314Y0159864D02*
X0276664Y0161214D01*
X0277395Y0162978D01*
X0277395Y0164888D01*
X0276664Y0166652D01*
X0275314Y0168002D01*
X0273550Y0168733D01*
X0271640Y0168733D01*
X0269876Y0168002D01*
X0268526Y0166652D01*
X0267795Y0164888D01*
X0267795Y0162978D01*
X0268526Y0161214D01*
X0269876Y0159864D01*
X0271640Y0159133D01*
X0273550Y0159133D01*
X0275314Y0159864D01*
X0276202Y0160751D02*
X0278989Y0160751D01*
X0278526Y0161214D02*
X0279876Y0159864D01*
X0281640Y0159133D01*
X0283550Y0159133D01*
X0285314Y0159864D01*
X0286664Y0161214D01*
X0287395Y0162978D01*
X0287395Y0164888D01*
X0286664Y0166652D01*
X0285314Y0168002D01*
X0283550Y0168733D01*
X0281640Y0168733D01*
X0279876Y0168002D01*
X0278526Y0166652D01*
X0277795Y0164888D01*
X0277795Y0162978D01*
X0278526Y0161214D01*
X0278304Y0161750D02*
X0276886Y0161750D01*
X0277300Y0162748D02*
X0277890Y0162748D01*
X0277795Y0163747D02*
X0277395Y0163747D01*
X0277395Y0164745D02*
X0277795Y0164745D01*
X0278150Y0165744D02*
X0277041Y0165744D01*
X0276574Y0166743D02*
X0278616Y0166743D01*
X0279615Y0167741D02*
X0275575Y0167741D01*
X0269615Y0167741D02*
X0264195Y0167741D01*
X0264195Y0166743D02*
X0268616Y0166743D01*
X0268150Y0165744D02*
X0264195Y0165744D01*
X0264195Y0164745D02*
X0267795Y0164745D01*
X0267795Y0163747D02*
X0264195Y0163747D01*
X0264195Y0162748D02*
X0267890Y0162748D01*
X0268304Y0161750D02*
X0264195Y0161750D01*
X0264195Y0160751D02*
X0268989Y0160751D01*
X0270144Y0159753D02*
X0264195Y0159753D01*
X0264195Y0158754D02*
X0296295Y0158754D01*
X0296295Y0157756D02*
X0285560Y0157756D01*
X0286559Y0156757D02*
X0296295Y0156757D01*
X0296295Y0155759D02*
X0287034Y0155759D01*
X0287395Y0154760D02*
X0296295Y0154760D01*
X0296295Y0153762D02*
X0287395Y0153762D01*
X0287306Y0152763D02*
X0296295Y0152763D01*
X0296295Y0151765D02*
X0286892Y0151765D01*
X0286217Y0150766D02*
X0296295Y0150766D01*
X0296295Y0149768D02*
X0285082Y0149768D01*
X0285546Y0147771D02*
X0296295Y0147771D01*
X0296295Y0148769D02*
X0264195Y0148769D01*
X0264195Y0147771D02*
X0269645Y0147771D01*
X0268646Y0146772D02*
X0264195Y0146772D01*
X0264195Y0145774D02*
X0268162Y0145774D01*
X0267795Y0144775D02*
X0264195Y0144775D01*
X0264195Y0143777D02*
X0267795Y0143777D01*
X0267878Y0142778D02*
X0264195Y0142778D01*
X0264195Y0141780D02*
X0268292Y0141780D01*
X0268959Y0140781D02*
X0264195Y0140781D01*
X0264195Y0139783D02*
X0270072Y0139783D01*
X0262595Y0133933D02*
X0262595Y0188933D01*
X0207595Y0243933D01*
X0205626Y0245625D02*
X0204565Y0245625D01*
X0202595Y0243933D02*
X0257595Y0188933D01*
X0257595Y0143933D01*
X0255774Y0145774D02*
X0113017Y0145774D01*
X0112019Y0146772D02*
X0255995Y0146772D01*
X0255995Y0147771D02*
X0111020Y0147771D01*
X0110022Y0148769D02*
X0152071Y0148769D01*
X0152076Y0148764D02*
X0153840Y0148033D01*
X0155750Y0148033D01*
X0157514Y0148764D01*
X0158864Y0150114D01*
X0159595Y0151878D01*
X0159595Y0153788D01*
X0158864Y0155552D01*
X0157514Y0156902D01*
X0155750Y0157633D01*
X0153840Y0157633D01*
X0152076Y0156902D01*
X0150726Y0155552D01*
X0149995Y0153788D01*
X0149995Y0151878D01*
X0150726Y0150114D01*
X0152076Y0148764D01*
X0151072Y0149768D02*
X0109023Y0149768D01*
X0108025Y0150766D02*
X0150456Y0150766D01*
X0150042Y0151765D02*
X0107026Y0151765D01*
X0106028Y0152763D02*
X0149995Y0152763D01*
X0149995Y0153762D02*
X0105029Y0153762D01*
X0104031Y0154760D02*
X0150398Y0154760D01*
X0150933Y0155759D02*
X0067034Y0155759D01*
X0066559Y0156757D02*
X0151931Y0156757D01*
X0157659Y0156757D02*
X0177531Y0156757D01*
X0177676Y0156902D02*
X0176326Y0155552D01*
X0175595Y0153788D01*
X0175595Y0151878D01*
X0176326Y0150114D01*
X0177676Y0148764D01*
X0179440Y0148033D01*
X0181350Y0148033D01*
X0183114Y0148764D01*
X0184464Y0150114D01*
X0185195Y0151878D01*
X0185195Y0153788D01*
X0184464Y0155552D01*
X0183114Y0156902D01*
X0181350Y0157633D01*
X0179440Y0157633D01*
X0177676Y0156902D01*
X0176533Y0155759D02*
X0158658Y0155759D01*
X0159192Y0154760D02*
X0175998Y0154760D01*
X0175595Y0153762D02*
X0159595Y0153762D01*
X0159595Y0152763D02*
X0175595Y0152763D01*
X0175642Y0151765D02*
X0159548Y0151765D01*
X0159135Y0150766D02*
X0176056Y0150766D01*
X0176672Y0149768D02*
X0158518Y0149768D01*
X0157520Y0148769D02*
X0177671Y0148769D01*
X0183120Y0148769D02*
X0255995Y0148769D01*
X0255995Y0149768D02*
X0184118Y0149768D01*
X0184735Y0150766D02*
X0255995Y0150766D01*
X0255995Y0151765D02*
X0185148Y0151765D01*
X0185195Y0152763D02*
X0255995Y0152763D01*
X0255995Y0153762D02*
X0185195Y0153762D01*
X0184792Y0154760D02*
X0255995Y0154760D01*
X0255995Y0155759D02*
X0184258Y0155759D01*
X0183259Y0156757D02*
X0255995Y0156757D01*
X0255995Y0157756D02*
X0065560Y0157756D01*
X0065046Y0159753D02*
X0255995Y0159753D01*
X0255995Y0160751D02*
X0066202Y0160751D01*
X0066664Y0161214D02*
X0067395Y0162978D01*
X0067395Y0164888D01*
X0066664Y0166652D01*
X0065314Y0168002D01*
X0063550Y0168733D01*
X0061640Y0168733D01*
X0059876Y0168002D01*
X0058526Y0166652D01*
X0057795Y0164888D01*
X0057795Y0162978D01*
X0058526Y0161214D01*
X0059876Y0159864D01*
X0061640Y0159133D01*
X0063550Y0159133D01*
X0065314Y0159864D01*
X0066664Y0161214D01*
X0066886Y0161750D02*
X0255995Y0161750D01*
X0255995Y0162748D02*
X0067300Y0162748D01*
X0067395Y0163747D02*
X0255995Y0163747D01*
X0255995Y0164745D02*
X0067395Y0164745D01*
X0067041Y0165744D02*
X0255995Y0165744D01*
X0255995Y0166743D02*
X0066574Y0166743D01*
X0065575Y0167741D02*
X0255995Y0167741D01*
X0255995Y0168740D02*
X0054195Y0168740D01*
X0054195Y0168466D02*
X0054195Y0203270D01*
X0058258Y0207333D01*
X0092838Y0207333D01*
X0098739Y0201432D01*
X0098739Y0197021D01*
X0099384Y0196376D01*
X0105807Y0196376D01*
X0106451Y0197021D01*
X0106451Y0202656D01*
X0105807Y0203301D01*
X0101396Y0203301D01*
X0095101Y0209596D01*
X0094163Y0210533D01*
X0056932Y0210533D01*
X0055995Y0209596D01*
X0050995Y0204596D01*
X0050995Y0168466D01*
X0049876Y0168002D01*
X0048526Y0166652D01*
X0047795Y0164888D01*
X0047795Y0162978D01*
X0048526Y0161214D01*
X0049876Y0159864D01*
X0050995Y0159400D01*
X0050995Y0158466D01*
X0049876Y0158002D01*
X0048526Y0156652D01*
X0047795Y0154888D01*
X0047795Y0152978D01*
X0048526Y0151214D01*
X0049876Y0149864D01*
X0051640Y0149133D01*
X0053550Y0149133D01*
X0055314Y0149864D01*
X0056664Y0151214D01*
X0057395Y0152978D01*
X0057395Y0154888D01*
X0056664Y0156652D01*
X0055314Y0158002D01*
X0054195Y0158466D01*
X0054195Y0159400D01*
X0055314Y0159864D01*
X0056664Y0161214D01*
X0057395Y0162978D01*
X0057395Y0164888D01*
X0056664Y0166652D01*
X0055314Y0168002D01*
X0054195Y0168466D01*
X0054195Y0169738D02*
X0255995Y0169738D01*
X0255995Y0170737D02*
X0054195Y0170737D01*
X0054195Y0171735D02*
X0255995Y0171735D01*
X0255995Y0172734D02*
X0214562Y0172734D01*
X0214744Y0172826D02*
X0215266Y0173206D01*
X0215722Y0173662D01*
X0216102Y0174184D01*
X0216395Y0174759D01*
X0216594Y0175373D01*
X0216695Y0176010D01*
X0216695Y0178633D01*
X0212895Y0178633D01*
X0212895Y0172233D01*
X0212918Y0172233D01*
X0213555Y0172334D01*
X0214169Y0172533D01*
X0214744Y0172826D01*
X0215773Y0173732D02*
X0255995Y0173732D01*
X0255995Y0174731D02*
X0216380Y0174731D01*
X0216651Y0175729D02*
X0255995Y0175729D01*
X0255995Y0176728D02*
X0216695Y0176728D01*
X0216695Y0177726D02*
X0255995Y0177726D01*
X0255995Y0178725D02*
X0212895Y0178725D01*
X0212895Y0178633D02*
X0212895Y0179233D01*
X0212295Y0179233D01*
X0212295Y0178633D01*
X0208495Y0178633D01*
X0208495Y0176010D01*
X0208596Y0175373D01*
X0208796Y0174759D01*
X0209089Y0174184D01*
X0209468Y0173662D01*
X0209924Y0173206D01*
X0210446Y0172826D01*
X0211021Y0172533D01*
X0211635Y0172334D01*
X0212272Y0172233D01*
X0212295Y0172233D01*
X0212295Y0178633D01*
X0212895Y0178633D01*
X0212895Y0179233D02*
X0216695Y0179233D01*
X0216695Y0181856D01*
X0216594Y0182493D01*
X0216395Y0183107D01*
X0216102Y0183682D01*
X0215722Y0184204D01*
X0215266Y0184660D01*
X0214744Y0185040D01*
X0214169Y0185333D01*
X0213555Y0185532D01*
X0212918Y0185633D01*
X0212895Y0185633D01*
X0212895Y0179233D01*
X0212895Y0179723D02*
X0212295Y0179723D01*
X0212295Y0179233D02*
X0212295Y0185633D01*
X0212272Y0185633D01*
X0211635Y0185532D01*
X0211021Y0185333D01*
X0210446Y0185040D01*
X0209924Y0184660D01*
X0209468Y0184204D01*
X0209089Y0183682D01*
X0208796Y0183107D01*
X0208596Y0182493D01*
X0208495Y0181856D01*
X0208495Y0179233D01*
X0212295Y0179233D01*
X0212295Y0178725D02*
X0202895Y0178725D01*
X0202895Y0178633D02*
X0202895Y0179233D01*
X0202295Y0179233D01*
X0202295Y0178633D01*
X0198495Y0178633D01*
X0198495Y0176010D01*
X0198596Y0175373D01*
X0198796Y0174759D01*
X0199089Y0174184D01*
X0199468Y0173662D01*
X0199924Y0173206D01*
X0200446Y0172826D01*
X0201021Y0172533D01*
X0201635Y0172334D01*
X0202272Y0172233D01*
X0202295Y0172233D01*
X0202295Y0178633D01*
X0202895Y0178633D01*
X0202895Y0172233D01*
X0202918Y0172233D01*
X0203555Y0172334D01*
X0204169Y0172533D01*
X0204744Y0172826D01*
X0205266Y0173206D01*
X0205722Y0173662D01*
X0206102Y0174184D01*
X0206395Y0174759D01*
X0206594Y0175373D01*
X0206695Y0176010D01*
X0206695Y0178633D01*
X0202895Y0178633D01*
X0202895Y0179233D02*
X0206695Y0179233D01*
X0206695Y0181856D01*
X0206594Y0182493D01*
X0206395Y0183107D01*
X0206102Y0183682D01*
X0205722Y0184204D01*
X0205266Y0184660D01*
X0204744Y0185040D01*
X0204169Y0185333D01*
X0203555Y0185532D01*
X0202918Y0185633D01*
X0202895Y0185633D01*
X0202895Y0179233D01*
X0202895Y0179723D02*
X0202295Y0179723D01*
X0202295Y0179233D02*
X0202295Y0185633D01*
X0202272Y0185633D01*
X0201635Y0185532D01*
X0201021Y0185333D01*
X0200446Y0185040D01*
X0199924Y0184660D01*
X0199468Y0184204D01*
X0199089Y0183682D01*
X0198796Y0183107D01*
X0198596Y0182493D01*
X0198495Y0181856D01*
X0198495Y0179233D01*
X0202295Y0179233D01*
X0202295Y0178725D02*
X0192895Y0178725D01*
X0192895Y0178633D02*
X0192895Y0179233D01*
X0192295Y0179233D01*
X0192295Y0178633D01*
X0188495Y0178633D01*
X0188495Y0176010D01*
X0188596Y0175373D01*
X0188796Y0174759D01*
X0189089Y0174184D01*
X0189468Y0173662D01*
X0189924Y0173206D01*
X0190446Y0172826D01*
X0191021Y0172533D01*
X0191635Y0172334D01*
X0192272Y0172233D01*
X0192295Y0172233D01*
X0192295Y0178633D01*
X0192895Y0178633D01*
X0192895Y0172233D01*
X0192918Y0172233D01*
X0193555Y0172334D01*
X0194169Y0172533D01*
X0194744Y0172826D01*
X0195266Y0173206D01*
X0195722Y0173662D01*
X0196102Y0174184D01*
X0196395Y0174759D01*
X0196594Y0175373D01*
X0196695Y0176010D01*
X0196695Y0178633D01*
X0192895Y0178633D01*
X0192895Y0179233D02*
X0196695Y0179233D01*
X0196695Y0181856D01*
X0196594Y0182493D01*
X0196395Y0183107D01*
X0196102Y0183682D01*
X0195722Y0184204D01*
X0195266Y0184660D01*
X0194744Y0185040D01*
X0194169Y0185333D01*
X0193555Y0185532D01*
X0192918Y0185633D01*
X0192895Y0185633D01*
X0192895Y0179233D01*
X0192895Y0179723D02*
X0192295Y0179723D01*
X0192295Y0179233D02*
X0192295Y0185633D01*
X0192272Y0185633D01*
X0191635Y0185532D01*
X0191021Y0185333D01*
X0190446Y0185040D01*
X0189924Y0184660D01*
X0189468Y0184204D01*
X0189089Y0183682D01*
X0188796Y0183107D01*
X0188596Y0182493D01*
X0188495Y0181856D01*
X0188495Y0179233D01*
X0192295Y0179233D01*
X0192295Y0178725D02*
X0182895Y0178725D01*
X0182895Y0178633D02*
X0182895Y0179233D01*
X0182295Y0179233D01*
X0182295Y0178633D01*
X0178495Y0178633D01*
X0178495Y0176010D01*
X0178596Y0175373D01*
X0178796Y0174759D01*
X0179089Y0174184D01*
X0179468Y0173662D01*
X0179924Y0173206D01*
X0180446Y0172826D01*
X0181021Y0172533D01*
X0181635Y0172334D01*
X0182272Y0172233D01*
X0182295Y0172233D01*
X0182295Y0178633D01*
X0182895Y0178633D01*
X0182895Y0172233D01*
X0182918Y0172233D01*
X0183555Y0172334D01*
X0184169Y0172533D01*
X0184744Y0172826D01*
X0185266Y0173206D01*
X0185722Y0173662D01*
X0186102Y0174184D01*
X0186395Y0174759D01*
X0186594Y0175373D01*
X0186695Y0176010D01*
X0186695Y0178633D01*
X0182895Y0178633D01*
X0182895Y0179233D02*
X0186695Y0179233D01*
X0186695Y0181856D01*
X0186594Y0182493D01*
X0186395Y0183107D01*
X0186102Y0183682D01*
X0185722Y0184204D01*
X0185266Y0184660D01*
X0184744Y0185040D01*
X0184169Y0185333D01*
X0183555Y0185532D01*
X0182918Y0185633D01*
X0182895Y0185633D01*
X0182895Y0179233D01*
X0182895Y0179723D02*
X0182295Y0179723D01*
X0182295Y0179233D02*
X0182295Y0185633D01*
X0182272Y0185633D01*
X0181635Y0185532D01*
X0181021Y0185333D01*
X0180446Y0185040D01*
X0179924Y0184660D01*
X0179468Y0184204D01*
X0179089Y0183682D01*
X0178796Y0183107D01*
X0178596Y0182493D01*
X0178495Y0181856D01*
X0178495Y0179233D01*
X0182295Y0179233D01*
X0182295Y0178725D02*
X0172895Y0178725D01*
X0172895Y0178633D02*
X0172895Y0179233D01*
X0172295Y0179233D01*
X0172295Y0178633D01*
X0168495Y0178633D01*
X0168495Y0176010D01*
X0168596Y0175373D01*
X0168796Y0174759D01*
X0169089Y0174184D01*
X0169468Y0173662D01*
X0169924Y0173206D01*
X0170446Y0172826D01*
X0171021Y0172533D01*
X0171635Y0172334D01*
X0172272Y0172233D01*
X0172295Y0172233D01*
X0172295Y0178633D01*
X0172895Y0178633D01*
X0172895Y0172233D01*
X0172918Y0172233D01*
X0173555Y0172334D01*
X0174169Y0172533D01*
X0174744Y0172826D01*
X0175266Y0173206D01*
X0175722Y0173662D01*
X0176102Y0174184D01*
X0176395Y0174759D01*
X0176594Y0175373D01*
X0176695Y0176010D01*
X0176695Y0178633D01*
X0172895Y0178633D01*
X0172895Y0179233D02*
X0176695Y0179233D01*
X0176695Y0181856D01*
X0176594Y0182493D01*
X0176395Y0183107D01*
X0176102Y0183682D01*
X0175722Y0184204D01*
X0175266Y0184660D01*
X0174744Y0185040D01*
X0174169Y0185333D01*
X0173555Y0185532D01*
X0172918Y0185633D01*
X0172895Y0185633D01*
X0172895Y0179233D01*
X0172895Y0179723D02*
X0172295Y0179723D01*
X0172295Y0179233D02*
X0172295Y0185633D01*
X0172272Y0185633D01*
X0171635Y0185532D01*
X0171021Y0185333D01*
X0170446Y0185040D01*
X0169924Y0184660D01*
X0169468Y0184204D01*
X0169089Y0183682D01*
X0168796Y0183107D01*
X0168596Y0182493D01*
X0168495Y0181856D01*
X0168495Y0179233D01*
X0172295Y0179233D01*
X0172295Y0178725D02*
X0162895Y0178725D01*
X0162895Y0178633D02*
X0162895Y0179233D01*
X0162295Y0179233D01*
X0162295Y0178633D01*
X0158495Y0178633D01*
X0158495Y0176010D01*
X0158596Y0175373D01*
X0158796Y0174759D01*
X0159089Y0174184D01*
X0159468Y0173662D01*
X0159924Y0173206D01*
X0160446Y0172826D01*
X0161021Y0172533D01*
X0161635Y0172334D01*
X0162272Y0172233D01*
X0162295Y0172233D01*
X0162295Y0178633D01*
X0162895Y0178633D01*
X0162895Y0172233D01*
X0162918Y0172233D01*
X0163555Y0172334D01*
X0164169Y0172533D01*
X0164744Y0172826D01*
X0165266Y0173206D01*
X0165722Y0173662D01*
X0166102Y0174184D01*
X0166395Y0174759D01*
X0166594Y0175373D01*
X0166695Y0176010D01*
X0166695Y0178633D01*
X0162895Y0178633D01*
X0162895Y0179233D02*
X0166695Y0179233D01*
X0166695Y0181856D01*
X0166594Y0182493D01*
X0166395Y0183107D01*
X0166102Y0183682D01*
X0165722Y0184204D01*
X0165266Y0184660D01*
X0164744Y0185040D01*
X0164169Y0185333D01*
X0163555Y0185532D01*
X0162918Y0185633D01*
X0162895Y0185633D01*
X0162895Y0179233D01*
X0162895Y0179723D02*
X0162295Y0179723D01*
X0162295Y0179233D02*
X0162295Y0185633D01*
X0162272Y0185633D01*
X0161635Y0185532D01*
X0161021Y0185333D01*
X0160446Y0185040D01*
X0159924Y0184660D01*
X0159468Y0184204D01*
X0159089Y0183682D01*
X0158796Y0183107D01*
X0158596Y0182493D01*
X0158495Y0181856D01*
X0158495Y0179233D01*
X0162295Y0179233D01*
X0162295Y0178725D02*
X0152895Y0178725D01*
X0152895Y0178633D02*
X0152895Y0179233D01*
X0152295Y0179233D01*
X0152295Y0178633D01*
X0148495Y0178633D01*
X0148495Y0176010D01*
X0148596Y0175373D01*
X0148796Y0174759D01*
X0149089Y0174184D01*
X0149468Y0173662D01*
X0149924Y0173206D01*
X0150446Y0172826D01*
X0151021Y0172533D01*
X0151635Y0172334D01*
X0152272Y0172233D01*
X0152295Y0172233D01*
X0152295Y0178633D01*
X0152895Y0178633D01*
X0152895Y0172233D01*
X0152918Y0172233D01*
X0153555Y0172334D01*
X0154169Y0172533D01*
X0154744Y0172826D01*
X0155266Y0173206D01*
X0155722Y0173662D01*
X0156102Y0174184D01*
X0156395Y0174759D01*
X0156594Y0175373D01*
X0156695Y0176010D01*
X0156695Y0178633D01*
X0152895Y0178633D01*
X0152895Y0179233D02*
X0156695Y0179233D01*
X0156695Y0181856D01*
X0156594Y0182493D01*
X0156395Y0183107D01*
X0156102Y0183682D01*
X0155722Y0184204D01*
X0155266Y0184660D01*
X0154744Y0185040D01*
X0154169Y0185333D01*
X0153555Y0185532D01*
X0152918Y0185633D01*
X0152895Y0185633D01*
X0152895Y0179233D01*
X0152895Y0179723D02*
X0152295Y0179723D01*
X0152295Y0179233D02*
X0152295Y0185633D01*
X0152272Y0185633D01*
X0151635Y0185532D01*
X0151021Y0185333D01*
X0150446Y0185040D01*
X0149924Y0184660D01*
X0149468Y0184204D01*
X0149089Y0183682D01*
X0148796Y0183107D01*
X0148596Y0182493D01*
X0148495Y0181856D01*
X0148495Y0179233D01*
X0152295Y0179233D01*
X0152295Y0178725D02*
X0142895Y0178725D01*
X0142895Y0178633D02*
X0142895Y0179233D01*
X0142295Y0179233D01*
X0142295Y0178633D01*
X0138495Y0178633D01*
X0138495Y0176010D01*
X0138596Y0175373D01*
X0138796Y0174759D01*
X0139089Y0174184D01*
X0139468Y0173662D01*
X0139924Y0173206D01*
X0140446Y0172826D01*
X0141021Y0172533D01*
X0141635Y0172334D01*
X0142272Y0172233D01*
X0142295Y0172233D01*
X0142295Y0178633D01*
X0142895Y0178633D01*
X0142895Y0172233D01*
X0142918Y0172233D01*
X0143555Y0172334D01*
X0144169Y0172533D01*
X0144744Y0172826D01*
X0145266Y0173206D01*
X0145722Y0173662D01*
X0146102Y0174184D01*
X0146395Y0174759D01*
X0146594Y0175373D01*
X0146695Y0176010D01*
X0146695Y0178633D01*
X0142895Y0178633D01*
X0142895Y0179233D02*
X0146695Y0179233D01*
X0146695Y0181856D01*
X0146594Y0182493D01*
X0146395Y0183107D01*
X0146102Y0183682D01*
X0145722Y0184204D01*
X0145266Y0184660D01*
X0144744Y0185040D01*
X0144169Y0185333D01*
X0143555Y0185532D01*
X0142918Y0185633D01*
X0142895Y0185633D01*
X0142895Y0179233D01*
X0142895Y0179723D02*
X0142295Y0179723D01*
X0142295Y0179233D02*
X0142295Y0185633D01*
X0142272Y0185633D01*
X0141635Y0185532D01*
X0141021Y0185333D01*
X0140446Y0185040D01*
X0139924Y0184660D01*
X0139468Y0184204D01*
X0139089Y0183682D01*
X0138796Y0183107D01*
X0138596Y0182493D01*
X0138495Y0181856D01*
X0138495Y0179233D01*
X0142295Y0179233D01*
X0142295Y0178725D02*
X0132895Y0178725D01*
X0132895Y0178633D02*
X0132895Y0179233D01*
X0132295Y0179233D01*
X0132295Y0178633D01*
X0128495Y0178633D01*
X0128495Y0176010D01*
X0128596Y0175373D01*
X0128796Y0174759D01*
X0129089Y0174184D01*
X0129468Y0173662D01*
X0129924Y0173206D01*
X0130446Y0172826D01*
X0131021Y0172533D01*
X0131635Y0172334D01*
X0132272Y0172233D01*
X0132295Y0172233D01*
X0132295Y0178633D01*
X0132895Y0178633D01*
X0132895Y0172233D01*
X0132918Y0172233D01*
X0133555Y0172334D01*
X0134169Y0172533D01*
X0134744Y0172826D01*
X0135266Y0173206D01*
X0135722Y0173662D01*
X0136102Y0174184D01*
X0136395Y0174759D01*
X0136594Y0175373D01*
X0136695Y0176010D01*
X0136695Y0178633D01*
X0132895Y0178633D01*
X0132895Y0179233D02*
X0136695Y0179233D01*
X0136695Y0181856D01*
X0136594Y0182493D01*
X0136395Y0183107D01*
X0136102Y0183682D01*
X0135722Y0184204D01*
X0135266Y0184660D01*
X0134744Y0185040D01*
X0134169Y0185333D01*
X0133555Y0185532D01*
X0132918Y0185633D01*
X0132895Y0185633D01*
X0132895Y0179233D01*
X0132895Y0179723D02*
X0132295Y0179723D01*
X0132295Y0179233D02*
X0132295Y0185633D01*
X0132272Y0185633D01*
X0131635Y0185532D01*
X0131021Y0185333D01*
X0130446Y0185040D01*
X0129924Y0184660D01*
X0129468Y0184204D01*
X0129089Y0183682D01*
X0128796Y0183107D01*
X0128596Y0182493D01*
X0128495Y0181856D01*
X0128495Y0179233D01*
X0132295Y0179233D01*
X0132295Y0178725D02*
X0122895Y0178725D01*
X0122895Y0178633D02*
X0122895Y0179233D01*
X0122295Y0179233D01*
X0122295Y0178633D01*
X0118495Y0178633D01*
X0118495Y0176010D01*
X0118596Y0175373D01*
X0118796Y0174759D01*
X0119089Y0174184D01*
X0119468Y0173662D01*
X0119924Y0173206D01*
X0120446Y0172826D01*
X0121021Y0172533D01*
X0121635Y0172334D01*
X0122272Y0172233D01*
X0122295Y0172233D01*
X0122295Y0178633D01*
X0122895Y0178633D01*
X0122895Y0172233D01*
X0122918Y0172233D01*
X0123555Y0172334D01*
X0124169Y0172533D01*
X0124744Y0172826D01*
X0125266Y0173206D01*
X0125722Y0173662D01*
X0126102Y0174184D01*
X0126395Y0174759D01*
X0126594Y0175373D01*
X0126695Y0176010D01*
X0126695Y0178633D01*
X0122895Y0178633D01*
X0122895Y0179233D02*
X0126695Y0179233D01*
X0126695Y0181856D01*
X0126594Y0182493D01*
X0126395Y0183107D01*
X0126102Y0183682D01*
X0125722Y0184204D01*
X0125266Y0184660D01*
X0124744Y0185040D01*
X0124169Y0185333D01*
X0123555Y0185532D01*
X0122918Y0185633D01*
X0122895Y0185633D01*
X0122895Y0179233D01*
X0122895Y0179723D02*
X0122295Y0179723D01*
X0122295Y0179233D02*
X0122295Y0185633D01*
X0122272Y0185633D01*
X0121635Y0185532D01*
X0121021Y0185333D01*
X0120446Y0185040D01*
X0119924Y0184660D01*
X0119468Y0184204D01*
X0119089Y0183682D01*
X0118796Y0183107D01*
X0118596Y0182493D01*
X0118495Y0181856D01*
X0118495Y0179233D01*
X0122295Y0179233D01*
X0122295Y0178725D02*
X0054195Y0178725D01*
X0054195Y0179723D02*
X0118495Y0179723D01*
X0118495Y0180722D02*
X0054195Y0180722D01*
X0054195Y0181720D02*
X0118495Y0181720D01*
X0118669Y0182719D02*
X0054195Y0182719D01*
X0054195Y0183717D02*
X0119114Y0183717D01*
X0120000Y0184716D02*
X0105957Y0184716D01*
X0105807Y0184565D02*
X0106451Y0185210D01*
X0106451Y0190845D01*
X0105807Y0191490D01*
X0099384Y0191490D01*
X0098739Y0190845D01*
X0098739Y0189628D01*
X0092238Y0189628D01*
X0092238Y0192027D01*
X0091594Y0192671D01*
X0083596Y0192671D01*
X0082952Y0192027D01*
X0082952Y0184816D01*
X0083596Y0184172D01*
X0091594Y0184172D01*
X0092238Y0184816D01*
X0092238Y0186428D01*
X0098739Y0186428D01*
X0098739Y0185210D01*
X0099384Y0184565D01*
X0105807Y0184565D01*
X0106451Y0185714D02*
X0255995Y0185714D01*
X0255995Y0184716D02*
X0215190Y0184716D01*
X0216076Y0183717D02*
X0255995Y0183717D01*
X0255995Y0182719D02*
X0216521Y0182719D01*
X0216695Y0181720D02*
X0255995Y0181720D01*
X0255995Y0180722D02*
X0216695Y0180722D01*
X0216695Y0179723D02*
X0255995Y0179723D01*
X0259195Y0179723D02*
X0260995Y0179723D01*
X0260995Y0178725D02*
X0259195Y0178725D01*
X0259195Y0177726D02*
X0260995Y0177726D01*
X0260995Y0176728D02*
X0259195Y0176728D01*
X0259195Y0175729D02*
X0260995Y0175729D01*
X0260995Y0174731D02*
X0259195Y0174731D01*
X0259195Y0173732D02*
X0260995Y0173732D01*
X0260995Y0172734D02*
X0259195Y0172734D01*
X0259195Y0171735D02*
X0260995Y0171735D01*
X0260995Y0170737D02*
X0259195Y0170737D01*
X0259195Y0169738D02*
X0260995Y0169738D01*
X0260995Y0168740D02*
X0259195Y0168740D01*
X0259195Y0167741D02*
X0260995Y0167741D01*
X0260995Y0166743D02*
X0259195Y0166743D01*
X0259195Y0165744D02*
X0260995Y0165744D01*
X0260995Y0164745D02*
X0259195Y0164745D01*
X0259195Y0163747D02*
X0260995Y0163747D01*
X0260995Y0162748D02*
X0259195Y0162748D01*
X0259195Y0161750D02*
X0260995Y0161750D01*
X0260995Y0160751D02*
X0259195Y0160751D01*
X0259195Y0159753D02*
X0260995Y0159753D01*
X0260995Y0158754D02*
X0259195Y0158754D01*
X0259195Y0157756D02*
X0260995Y0157756D01*
X0260995Y0156757D02*
X0259195Y0156757D01*
X0259195Y0155759D02*
X0260995Y0155759D01*
X0260995Y0154760D02*
X0259195Y0154760D01*
X0259195Y0153762D02*
X0260995Y0153762D01*
X0260995Y0152763D02*
X0259195Y0152763D01*
X0259195Y0151765D02*
X0260995Y0151765D01*
X0260995Y0150766D02*
X0259195Y0150766D01*
X0259195Y0149768D02*
X0260995Y0149768D01*
X0260995Y0148769D02*
X0259195Y0148769D01*
X0259195Y0147771D02*
X0260995Y0147771D01*
X0260995Y0146772D02*
X0259195Y0146772D01*
X0259416Y0145774D02*
X0260995Y0145774D01*
X0260995Y0144775D02*
X0260049Y0144775D01*
X0260184Y0143777D02*
X0260995Y0143777D01*
X0260995Y0142778D02*
X0259919Y0142778D01*
X0259103Y0141780D02*
X0260995Y0141780D01*
X0256087Y0141780D02*
X0117011Y0141780D01*
X0116013Y0142778D02*
X0255271Y0142778D01*
X0255006Y0143777D02*
X0115014Y0143777D01*
X0114016Y0144775D02*
X0255142Y0144775D01*
X0264195Y0149768D02*
X0270108Y0149768D01*
X0268974Y0150766D02*
X0264195Y0150766D01*
X0264195Y0151765D02*
X0268298Y0151765D01*
X0267884Y0152763D02*
X0264195Y0152763D01*
X0264195Y0153762D02*
X0267795Y0153762D01*
X0267795Y0154760D02*
X0264195Y0154760D01*
X0264195Y0155759D02*
X0268156Y0155759D01*
X0268631Y0156757D02*
X0264195Y0156757D01*
X0264195Y0157756D02*
X0269630Y0157756D01*
X0264195Y0168740D02*
X0296295Y0168740D01*
X0296295Y0169738D02*
X0264195Y0169738D01*
X0264195Y0170737D02*
X0296295Y0170737D01*
X0296295Y0171735D02*
X0264195Y0171735D01*
X0264195Y0172734D02*
X0296295Y0172734D01*
X0296295Y0173732D02*
X0264195Y0173732D01*
X0264195Y0174731D02*
X0296295Y0174731D01*
X0296295Y0175729D02*
X0264195Y0175729D01*
X0264195Y0176728D02*
X0296295Y0176728D01*
X0296295Y0177726D02*
X0264195Y0177726D01*
X0264195Y0178725D02*
X0296295Y0178725D01*
X0296295Y0179723D02*
X0264195Y0179723D01*
X0264195Y0180722D02*
X0296295Y0180722D01*
X0296295Y0181720D02*
X0264195Y0181720D01*
X0264195Y0182719D02*
X0296295Y0182719D01*
X0296295Y0183717D02*
X0264195Y0183717D01*
X0264195Y0184716D02*
X0296295Y0184716D01*
X0296295Y0185714D02*
X0264195Y0185714D01*
X0264195Y0186713D02*
X0296295Y0186713D01*
X0296295Y0187711D02*
X0264195Y0187711D01*
X0264195Y0188710D02*
X0296295Y0188710D01*
X0296295Y0189708D02*
X0264083Y0189708D01*
X0263084Y0190707D02*
X0296295Y0190707D01*
X0296295Y0191705D02*
X0262086Y0191705D01*
X0261087Y0192704D02*
X0296295Y0192704D01*
X0296295Y0193702D02*
X0260089Y0193702D01*
X0259090Y0194701D02*
X0296295Y0194701D01*
X0296295Y0195699D02*
X0258092Y0195699D01*
X0257093Y0196698D02*
X0296295Y0196698D01*
X0296295Y0197696D02*
X0256095Y0197696D01*
X0255096Y0198695D02*
X0296295Y0198695D01*
X0296295Y0199693D02*
X0254098Y0199693D01*
X0253099Y0200692D02*
X0296295Y0200692D01*
X0296295Y0201690D02*
X0252101Y0201690D01*
X0251102Y0202689D02*
X0296295Y0202689D01*
X0296295Y0203687D02*
X0250103Y0203687D01*
X0249105Y0204686D02*
X0296295Y0204686D01*
X0296295Y0205684D02*
X0248106Y0205684D01*
X0247108Y0206683D02*
X0296295Y0206683D01*
X0296295Y0207681D02*
X0246109Y0207681D01*
X0245111Y0208680D02*
X0296295Y0208680D01*
X0296295Y0209679D02*
X0244112Y0209679D01*
X0243114Y0210677D02*
X0296295Y0210677D01*
X0296295Y0211676D02*
X0242115Y0211676D01*
X0241117Y0212674D02*
X0276228Y0212674D01*
X0273924Y0212847D02*
X0278828Y0212479D01*
X0283623Y0213574D01*
X0287883Y0216033D01*
X0291228Y0219638D01*
X0291228Y0219638D01*
X0293362Y0224070D01*
X0294095Y0228933D01*
X0293362Y0233797D01*
X0291228Y0238228D01*
X0287883Y0241833D01*
X0287883Y0241833D01*
X0283623Y0244292D01*
X0278828Y0245387D01*
X0273924Y0245019D01*
X0273924Y0245019D01*
X0269345Y0243222D01*
X0265500Y0240156D01*
X0262729Y0236092D01*
X0261279Y0231392D01*
X0261279Y0226474D01*
X0262729Y0221774D01*
X0265500Y0217710D01*
X0269345Y0214644D01*
X0269345Y0214644D01*
X0273924Y0212847D01*
X0271819Y0213673D02*
X0240118Y0213673D01*
X0239120Y0214671D02*
X0269311Y0214671D01*
X0268059Y0215670D02*
X0238121Y0215670D01*
X0237123Y0216668D02*
X0266807Y0216668D01*
X0265554Y0217667D02*
X0236124Y0217667D01*
X0235126Y0218665D02*
X0264849Y0218665D01*
X0265500Y0217710D02*
X0265500Y0217710D01*
X0265500Y0217710D01*
X0264168Y0219664D02*
X0234127Y0219664D01*
X0233129Y0220662D02*
X0263487Y0220662D01*
X0262806Y0221661D02*
X0232130Y0221661D01*
X0231132Y0222659D02*
X0262456Y0222659D01*
X0262729Y0221774D02*
X0262729Y0221774D01*
X0262148Y0223658D02*
X0230133Y0223658D01*
X0229135Y0224656D02*
X0261840Y0224656D01*
X0261532Y0225655D02*
X0228136Y0225655D01*
X0227138Y0226653D02*
X0261279Y0226653D01*
X0261279Y0227652D02*
X0226139Y0227652D01*
X0225141Y0228650D02*
X0261279Y0228650D01*
X0261279Y0229649D02*
X0224142Y0229649D01*
X0223144Y0230647D02*
X0261279Y0230647D01*
X0261358Y0231646D02*
X0222145Y0231646D01*
X0221147Y0232644D02*
X0261666Y0232644D01*
X0261974Y0233643D02*
X0220148Y0233643D01*
X0219150Y0234641D02*
X0262282Y0234641D01*
X0262590Y0235640D02*
X0218151Y0235640D01*
X0217153Y0236638D02*
X0263102Y0236638D01*
X0262729Y0236092D02*
X0262729Y0236092D01*
X0263782Y0237637D02*
X0216154Y0237637D01*
X0215156Y0238635D02*
X0264463Y0238635D01*
X0265144Y0239634D02*
X0214157Y0239634D01*
X0213159Y0240632D02*
X0266097Y0240632D01*
X0265500Y0240156D02*
X0265500Y0240156D01*
X0267349Y0241631D02*
X0212160Y0241631D01*
X0211162Y0242629D02*
X0268601Y0242629D01*
X0269345Y0243222D02*
X0269345Y0243222D01*
X0270378Y0243628D02*
X0210184Y0243628D01*
X0210110Y0244626D02*
X0272922Y0244626D01*
X0277793Y0247622D02*
X0057397Y0247622D01*
X0058828Y0245387D02*
X0053924Y0245019D01*
X0053924Y0245019D01*
X0049345Y0243222D01*
X0045500Y0240156D01*
X0045500Y0240156D01*
X0042729Y0236092D01*
X0041279Y0231392D01*
X0041279Y0226474D01*
X0042729Y0221774D01*
X0045500Y0217710D01*
X0049345Y0214644D01*
X0049345Y0214644D01*
X0053924Y0212847D01*
X0058828Y0212479D01*
X0063623Y0213574D01*
X0067883Y0216033D01*
X0071228Y0219638D01*
X0071228Y0219638D01*
X0073362Y0224070D01*
X0074095Y0228933D01*
X0073362Y0233797D01*
X0071228Y0238228D01*
X0067883Y0241833D01*
X0067883Y0241833D01*
X0063623Y0244292D01*
X0058828Y0245387D01*
X0058828Y0245387D01*
X0062160Y0244626D02*
X0200080Y0244626D01*
X0200006Y0243628D02*
X0064774Y0243628D01*
X0063623Y0244292D02*
X0063623Y0244292D01*
X0066504Y0242629D02*
X0200333Y0242629D01*
X0201388Y0241631D02*
X0068071Y0241631D01*
X0068997Y0240632D02*
X0203633Y0240632D01*
X0204632Y0239634D02*
X0069923Y0239634D01*
X0070850Y0238635D02*
X0205630Y0238635D01*
X0206629Y0237637D02*
X0071513Y0237637D01*
X0071228Y0238228D02*
X0071228Y0238228D01*
X0071994Y0236638D02*
X0207627Y0236638D01*
X0208626Y0235640D02*
X0072474Y0235640D01*
X0072955Y0234641D02*
X0209624Y0234641D01*
X0210623Y0233643D02*
X0073385Y0233643D01*
X0073362Y0233797D02*
X0073362Y0233797D01*
X0073536Y0232644D02*
X0211621Y0232644D01*
X0212620Y0231646D02*
X0073686Y0231646D01*
X0073837Y0230647D02*
X0213618Y0230647D01*
X0214617Y0229649D02*
X0073987Y0229649D01*
X0074052Y0228650D02*
X0215615Y0228650D01*
X0216614Y0227652D02*
X0073902Y0227652D01*
X0073751Y0226653D02*
X0217612Y0226653D01*
X0218611Y0225655D02*
X0073601Y0225655D01*
X0073450Y0224656D02*
X0219609Y0224656D01*
X0220608Y0223658D02*
X0073164Y0223658D01*
X0073362Y0224070D02*
X0073362Y0224070D01*
X0072683Y0222659D02*
X0221606Y0222659D01*
X0222605Y0221661D02*
X0072202Y0221661D01*
X0071721Y0220662D02*
X0223603Y0220662D01*
X0224602Y0219664D02*
X0071240Y0219664D01*
X0070325Y0218665D02*
X0225600Y0218665D01*
X0226599Y0217667D02*
X0069399Y0217667D01*
X0068472Y0216668D02*
X0227597Y0216668D01*
X0228596Y0215670D02*
X0067253Y0215670D01*
X0067883Y0216033D02*
X0067883Y0216033D01*
X0067883Y0216033D01*
X0065524Y0214671D02*
X0120502Y0214671D01*
X0120499Y0214670D02*
X0119458Y0213629D01*
X0118895Y0212269D01*
X0118895Y0205597D01*
X0119458Y0204237D01*
X0120499Y0203196D01*
X0121859Y0202633D01*
X0123331Y0202633D01*
X0124691Y0203196D01*
X0125732Y0204237D01*
X0126295Y0205597D01*
X0126295Y0212269D01*
X0125732Y0213629D01*
X0124691Y0214670D01*
X0123331Y0215233D01*
X0121859Y0215233D01*
X0120499Y0214670D01*
X0119502Y0213673D02*
X0063795Y0213673D01*
X0063623Y0213574D02*
X0063623Y0213574D01*
X0059682Y0212674D02*
X0119063Y0212674D01*
X0118895Y0211676D02*
X0038895Y0211676D01*
X0038895Y0212674D02*
X0056228Y0212674D01*
X0053924Y0212847D02*
X0053924Y0212847D01*
X0051819Y0213673D02*
X0038895Y0213673D01*
X0038895Y0214671D02*
X0049311Y0214671D01*
X0048059Y0215670D02*
X0038895Y0215670D01*
X0038895Y0216668D02*
X0046807Y0216668D01*
X0045554Y0217667D02*
X0038895Y0217667D01*
X0038895Y0218665D02*
X0044849Y0218665D01*
X0045500Y0217710D02*
X0045500Y0217710D01*
X0045500Y0217710D01*
X0044168Y0219664D02*
X0038895Y0219664D01*
X0038895Y0220662D02*
X0043487Y0220662D01*
X0042806Y0221661D02*
X0038895Y0221661D01*
X0038895Y0222659D02*
X0042456Y0222659D01*
X0042729Y0221774D02*
X0042729Y0221774D01*
X0042148Y0223658D02*
X0038895Y0223658D01*
X0038895Y0224656D02*
X0041840Y0224656D01*
X0041532Y0225655D02*
X0038895Y0225655D01*
X0038895Y0226653D02*
X0041279Y0226653D01*
X0041279Y0227652D02*
X0038895Y0227652D01*
X0038895Y0228650D02*
X0041279Y0228650D01*
X0041279Y0229649D02*
X0038935Y0229649D01*
X0038991Y0230647D02*
X0041279Y0230647D01*
X0041358Y0231646D02*
X0039154Y0231646D01*
X0039382Y0232644D02*
X0041666Y0232644D01*
X0041974Y0233643D02*
X0039610Y0233643D01*
X0039838Y0234641D02*
X0042282Y0234641D01*
X0042590Y0235640D02*
X0040200Y0235640D01*
X0040681Y0236638D02*
X0043102Y0236638D01*
X0042729Y0236092D02*
X0042729Y0236092D01*
X0043782Y0237637D02*
X0041162Y0237637D01*
X0041643Y0238635D02*
X0044463Y0238635D01*
X0045144Y0239634D02*
X0042361Y0239634D01*
X0043157Y0240632D02*
X0046097Y0240632D01*
X0045500Y0240156D02*
X0045500Y0240156D01*
X0043953Y0241631D02*
X0047349Y0241631D01*
X0048601Y0242629D02*
X0044966Y0242629D01*
X0046218Y0243628D02*
X0050378Y0243628D01*
X0049345Y0243222D02*
X0049345Y0243222D01*
X0047470Y0244626D02*
X0052922Y0244626D01*
X0051593Y0246623D02*
X0283597Y0246623D01*
X0283623Y0244292D02*
X0283623Y0244292D01*
X0284774Y0243628D02*
X0288972Y0243628D01*
X0287720Y0244626D02*
X0282160Y0244626D01*
X0278828Y0245387D02*
X0278828Y0245387D01*
X0285762Y0245625D02*
X0209565Y0245625D01*
X0208633Y0240632D02*
X0208159Y0240632D01*
X0209157Y0239634D02*
X0209632Y0239634D01*
X0210156Y0238635D02*
X0210630Y0238635D01*
X0211154Y0237637D02*
X0211629Y0237637D01*
X0212153Y0236638D02*
X0212627Y0236638D01*
X0213151Y0235640D02*
X0213626Y0235640D01*
X0214150Y0234641D02*
X0214624Y0234641D01*
X0215148Y0233643D02*
X0215623Y0233643D01*
X0216147Y0232644D02*
X0216621Y0232644D01*
X0217145Y0231646D02*
X0217620Y0231646D01*
X0218144Y0230647D02*
X0218618Y0230647D01*
X0219142Y0229649D02*
X0219617Y0229649D01*
X0220141Y0228650D02*
X0220615Y0228650D01*
X0221139Y0227652D02*
X0221614Y0227652D01*
X0222138Y0226653D02*
X0222612Y0226653D01*
X0223136Y0225655D02*
X0223611Y0225655D01*
X0224135Y0224656D02*
X0224609Y0224656D01*
X0225133Y0223658D02*
X0225608Y0223658D01*
X0226132Y0222659D02*
X0226606Y0222659D01*
X0227130Y0221661D02*
X0227605Y0221661D01*
X0228129Y0220662D02*
X0228603Y0220662D01*
X0229127Y0219664D02*
X0229602Y0219664D01*
X0230126Y0218665D02*
X0230600Y0218665D01*
X0231124Y0217667D02*
X0231599Y0217667D01*
X0232123Y0216668D02*
X0232597Y0216668D01*
X0233121Y0215670D02*
X0233596Y0215670D01*
X0234120Y0214671D02*
X0234594Y0214671D01*
X0235118Y0213673D02*
X0235593Y0213673D01*
X0236117Y0212674D02*
X0236591Y0212674D01*
X0237115Y0211676D02*
X0237590Y0211676D01*
X0238114Y0210677D02*
X0238588Y0210677D01*
X0239112Y0209679D02*
X0239587Y0209679D01*
X0240111Y0208680D02*
X0240585Y0208680D01*
X0241109Y0207681D02*
X0241584Y0207681D01*
X0242108Y0206683D02*
X0242582Y0206683D01*
X0243106Y0205684D02*
X0243581Y0205684D01*
X0244105Y0204686D02*
X0244580Y0204686D01*
X0245103Y0203687D02*
X0245578Y0203687D01*
X0246102Y0202689D02*
X0246577Y0202689D01*
X0247101Y0201690D02*
X0247575Y0201690D01*
X0248099Y0200692D02*
X0248574Y0200692D01*
X0249098Y0199693D02*
X0249572Y0199693D01*
X0250096Y0198695D02*
X0250571Y0198695D01*
X0251095Y0197696D02*
X0251569Y0197696D01*
X0252093Y0196698D02*
X0252568Y0196698D01*
X0253092Y0195699D02*
X0253566Y0195699D01*
X0254090Y0194701D02*
X0254565Y0194701D01*
X0255089Y0193702D02*
X0255563Y0193702D01*
X0256087Y0192704D02*
X0256562Y0192704D01*
X0257086Y0191705D02*
X0257560Y0191705D01*
X0258084Y0190707D02*
X0258559Y0190707D01*
X0259083Y0189708D02*
X0259557Y0189708D01*
X0259195Y0188710D02*
X0260556Y0188710D01*
X0260995Y0187711D02*
X0259195Y0187711D01*
X0259195Y0186713D02*
X0260995Y0186713D01*
X0260995Y0185714D02*
X0259195Y0185714D01*
X0259195Y0184716D02*
X0260995Y0184716D01*
X0260995Y0183717D02*
X0259195Y0183717D01*
X0259195Y0182719D02*
X0260995Y0182719D01*
X0260995Y0181720D02*
X0259195Y0181720D01*
X0259195Y0180722D02*
X0260995Y0180722D01*
X0255995Y0186713D02*
X0106451Y0186713D01*
X0106451Y0187711D02*
X0255995Y0187711D01*
X0255556Y0188710D02*
X0106451Y0188710D01*
X0106451Y0189708D02*
X0254557Y0189708D01*
X0253559Y0190707D02*
X0106451Y0190707D01*
X0102595Y0188028D02*
X0087989Y0188028D01*
X0087595Y0188421D01*
X0092238Y0189708D02*
X0098739Y0189708D01*
X0098739Y0190707D02*
X0092238Y0190707D01*
X0092238Y0191705D02*
X0252560Y0191705D01*
X0251562Y0192704D02*
X0054195Y0192704D01*
X0054195Y0193702D02*
X0250563Y0193702D01*
X0249565Y0194701D02*
X0054195Y0194701D01*
X0054195Y0195699D02*
X0082664Y0195699D01*
X0082654Y0195716D02*
X0082852Y0195374D01*
X0083131Y0195095D01*
X0083473Y0194898D01*
X0083854Y0194795D01*
X0087095Y0194795D01*
X0087095Y0198945D01*
X0082552Y0198945D01*
X0082552Y0196098D01*
X0082654Y0195716D01*
X0082552Y0196698D02*
X0054195Y0196698D01*
X0054195Y0197696D02*
X0082552Y0197696D01*
X0082552Y0198695D02*
X0054195Y0198695D01*
X0054195Y0199693D02*
X0087095Y0199693D01*
X0087095Y0199945D02*
X0087095Y0198945D01*
X0088095Y0198945D01*
X0088095Y0194795D01*
X0091336Y0194795D01*
X0091717Y0194898D01*
X0092059Y0195095D01*
X0092339Y0195374D01*
X0092536Y0195716D01*
X0092638Y0196098D01*
X0092638Y0198945D01*
X0088095Y0198945D01*
X0088095Y0199945D01*
X0087095Y0199945D01*
X0087095Y0204094D01*
X0083854Y0204094D01*
X0083473Y0203992D01*
X0083131Y0203795D01*
X0082852Y0203516D01*
X0082654Y0203173D01*
X0082552Y0202792D01*
X0082552Y0199945D01*
X0087095Y0199945D01*
X0087095Y0200692D02*
X0088095Y0200692D01*
X0088095Y0199945D02*
X0088095Y0204094D01*
X0091336Y0204094D01*
X0091717Y0203992D01*
X0092059Y0203795D01*
X0092339Y0203516D01*
X0092536Y0203173D01*
X0092638Y0202792D01*
X0092638Y0199945D01*
X0088095Y0199945D01*
X0088095Y0199693D02*
X0098739Y0199693D01*
X0098739Y0198695D02*
X0092638Y0198695D01*
X0092638Y0197696D02*
X0098739Y0197696D01*
X0099062Y0196698D02*
X0092638Y0196698D01*
X0092526Y0195699D02*
X0248566Y0195699D01*
X0247568Y0196698D02*
X0106128Y0196698D01*
X0106451Y0197696D02*
X0246569Y0197696D01*
X0245571Y0198695D02*
X0106451Y0198695D01*
X0106451Y0199693D02*
X0244572Y0199693D01*
X0243574Y0200692D02*
X0106451Y0200692D01*
X0106451Y0201690D02*
X0242575Y0201690D01*
X0241577Y0202689D02*
X0213466Y0202689D01*
X0213331Y0202633D02*
X0214691Y0203196D01*
X0215732Y0204237D01*
X0216295Y0205597D01*
X0216295Y0212269D01*
X0215732Y0213629D01*
X0214691Y0214670D01*
X0213331Y0215233D01*
X0211859Y0215233D01*
X0210499Y0214670D01*
X0209458Y0213629D01*
X0208895Y0212269D01*
X0208895Y0205597D01*
X0209458Y0204237D01*
X0210499Y0203196D01*
X0211859Y0202633D01*
X0213331Y0202633D01*
X0211724Y0202689D02*
X0203466Y0202689D01*
X0203331Y0202633D02*
X0204691Y0203196D01*
X0205732Y0204237D01*
X0206295Y0205597D01*
X0206295Y0212269D01*
X0205732Y0213629D01*
X0204691Y0214670D01*
X0203331Y0215233D01*
X0201859Y0215233D01*
X0200499Y0214670D01*
X0199458Y0213629D01*
X0198895Y0212269D01*
X0198895Y0205597D01*
X0199458Y0204237D01*
X0200499Y0203196D01*
X0201859Y0202633D01*
X0203331Y0202633D01*
X0201724Y0202689D02*
X0193466Y0202689D01*
X0193331Y0202633D02*
X0194691Y0203196D01*
X0195732Y0204237D01*
X0196295Y0205597D01*
X0196295Y0212269D01*
X0195732Y0213629D01*
X0194691Y0214670D01*
X0193331Y0215233D01*
X0191859Y0215233D01*
X0190499Y0214670D01*
X0189458Y0213629D01*
X0188895Y0212269D01*
X0188895Y0205597D01*
X0189458Y0204237D01*
X0190499Y0203196D01*
X0191859Y0202633D01*
X0193331Y0202633D01*
X0191724Y0202689D02*
X0183466Y0202689D01*
X0183331Y0202633D02*
X0184691Y0203196D01*
X0185732Y0204237D01*
X0186295Y0205597D01*
X0186295Y0212269D01*
X0185732Y0213629D01*
X0184691Y0214670D01*
X0183331Y0215233D01*
X0181859Y0215233D01*
X0180499Y0214670D01*
X0179458Y0213629D01*
X0178895Y0212269D01*
X0178895Y0205597D01*
X0179458Y0204237D01*
X0180499Y0203196D01*
X0181859Y0202633D01*
X0183331Y0202633D01*
X0181724Y0202689D02*
X0173466Y0202689D01*
X0173331Y0202633D02*
X0174691Y0203196D01*
X0175732Y0204237D01*
X0176295Y0205597D01*
X0176295Y0212269D01*
X0175732Y0213629D01*
X0174691Y0214670D01*
X0173331Y0215233D01*
X0171859Y0215233D01*
X0170499Y0214670D01*
X0169458Y0213629D01*
X0168895Y0212269D01*
X0168895Y0205597D01*
X0169458Y0204237D01*
X0170499Y0203196D01*
X0171859Y0202633D01*
X0173331Y0202633D01*
X0171724Y0202689D02*
X0163466Y0202689D01*
X0163331Y0202633D02*
X0164691Y0203196D01*
X0165732Y0204237D01*
X0166295Y0205597D01*
X0166295Y0212269D01*
X0165732Y0213629D01*
X0164691Y0214670D01*
X0163331Y0215233D01*
X0161859Y0215233D01*
X0160499Y0214670D01*
X0159458Y0213629D01*
X0158895Y0212269D01*
X0158895Y0205597D01*
X0159458Y0204237D01*
X0160499Y0203196D01*
X0161859Y0202633D01*
X0163331Y0202633D01*
X0161724Y0202689D02*
X0153466Y0202689D01*
X0153331Y0202633D02*
X0154691Y0203196D01*
X0155732Y0204237D01*
X0156295Y0205597D01*
X0156295Y0212269D01*
X0155732Y0213629D01*
X0154691Y0214670D01*
X0153331Y0215233D01*
X0151859Y0215233D01*
X0150499Y0214670D01*
X0149458Y0213629D01*
X0148895Y0212269D01*
X0148895Y0205597D01*
X0149458Y0204237D01*
X0150499Y0203196D01*
X0151859Y0202633D01*
X0153331Y0202633D01*
X0151724Y0202689D02*
X0143466Y0202689D01*
X0143331Y0202633D02*
X0144691Y0203196D01*
X0145732Y0204237D01*
X0146295Y0205597D01*
X0146295Y0212269D01*
X0145732Y0213629D01*
X0144691Y0214670D01*
X0143331Y0215233D01*
X0141859Y0215233D01*
X0140499Y0214670D01*
X0139458Y0213629D01*
X0138895Y0212269D01*
X0138895Y0205597D01*
X0139458Y0204237D01*
X0140499Y0203196D01*
X0141859Y0202633D01*
X0143331Y0202633D01*
X0141724Y0202689D02*
X0133466Y0202689D01*
X0133331Y0202633D02*
X0134691Y0203196D01*
X0135732Y0204237D01*
X0136295Y0205597D01*
X0136295Y0212269D01*
X0135732Y0213629D01*
X0134691Y0214670D01*
X0133331Y0215233D01*
X0131859Y0215233D01*
X0130499Y0214670D01*
X0129458Y0213629D01*
X0128895Y0212269D01*
X0128895Y0205597D01*
X0129458Y0204237D01*
X0130499Y0203196D01*
X0131859Y0202633D01*
X0133331Y0202633D01*
X0131724Y0202689D02*
X0123466Y0202689D01*
X0121724Y0202689D02*
X0106419Y0202689D01*
X0102595Y0199839D02*
X0093501Y0208933D01*
X0057595Y0208933D01*
X0052595Y0203933D01*
X0052595Y0163933D01*
X0052595Y0153933D01*
X0048156Y0155759D02*
X0038895Y0155759D01*
X0038895Y0156757D02*
X0048631Y0156757D01*
X0049630Y0157756D02*
X0038895Y0157756D01*
X0038895Y0158754D02*
X0050995Y0158754D01*
X0050144Y0159753D02*
X0038895Y0159753D01*
X0038895Y0160751D02*
X0048989Y0160751D01*
X0048304Y0161750D02*
X0038895Y0161750D01*
X0038895Y0162748D02*
X0047890Y0162748D01*
X0047795Y0163747D02*
X0038895Y0163747D01*
X0038895Y0164745D02*
X0047795Y0164745D01*
X0048150Y0165744D02*
X0038895Y0165744D01*
X0038895Y0166743D02*
X0048616Y0166743D01*
X0049615Y0167741D02*
X0038895Y0167741D01*
X0038895Y0168740D02*
X0050995Y0168740D01*
X0050995Y0169738D02*
X0038895Y0169738D01*
X0038895Y0170737D02*
X0050995Y0170737D01*
X0050995Y0171735D02*
X0038895Y0171735D01*
X0038895Y0172734D02*
X0050995Y0172734D01*
X0050995Y0173732D02*
X0038895Y0173732D01*
X0038895Y0174731D02*
X0050995Y0174731D01*
X0050995Y0175729D02*
X0038895Y0175729D01*
X0038895Y0176728D02*
X0050995Y0176728D01*
X0050995Y0177726D02*
X0038895Y0177726D01*
X0038895Y0178725D02*
X0050995Y0178725D01*
X0050995Y0179723D02*
X0038895Y0179723D01*
X0038895Y0180722D02*
X0050995Y0180722D01*
X0050995Y0181720D02*
X0038895Y0181720D01*
X0038895Y0182719D02*
X0050995Y0182719D01*
X0050995Y0183717D02*
X0038895Y0183717D01*
X0038895Y0184716D02*
X0050995Y0184716D01*
X0050995Y0185714D02*
X0038895Y0185714D01*
X0038895Y0186713D02*
X0050995Y0186713D01*
X0050995Y0187711D02*
X0038895Y0187711D01*
X0038895Y0188710D02*
X0050995Y0188710D01*
X0050995Y0189708D02*
X0038895Y0189708D01*
X0038895Y0190707D02*
X0050995Y0190707D01*
X0050995Y0191705D02*
X0038895Y0191705D01*
X0038895Y0192704D02*
X0050995Y0192704D01*
X0050995Y0193702D02*
X0038895Y0193702D01*
X0038895Y0194701D02*
X0050995Y0194701D01*
X0050995Y0195699D02*
X0038895Y0195699D01*
X0038895Y0196698D02*
X0050995Y0196698D01*
X0050995Y0197696D02*
X0038895Y0197696D01*
X0038895Y0198695D02*
X0050995Y0198695D01*
X0050995Y0199693D02*
X0038895Y0199693D01*
X0038895Y0200692D02*
X0050995Y0200692D01*
X0050995Y0201690D02*
X0038895Y0201690D01*
X0038895Y0202689D02*
X0050995Y0202689D01*
X0050995Y0203687D02*
X0038895Y0203687D01*
X0038895Y0204686D02*
X0051085Y0204686D01*
X0052084Y0205684D02*
X0038895Y0205684D01*
X0038895Y0206683D02*
X0053082Y0206683D01*
X0054081Y0207681D02*
X0038895Y0207681D01*
X0038895Y0208680D02*
X0055079Y0208680D01*
X0056078Y0209679D02*
X0038895Y0209679D01*
X0038895Y0210677D02*
X0118895Y0210677D01*
X0118895Y0209679D02*
X0095018Y0209679D01*
X0095101Y0209596D02*
X0095101Y0209596D01*
X0096016Y0208680D02*
X0118895Y0208680D01*
X0118895Y0207681D02*
X0097015Y0207681D01*
X0098013Y0206683D02*
X0118895Y0206683D01*
X0118895Y0205684D02*
X0099012Y0205684D01*
X0100010Y0204686D02*
X0119273Y0204686D01*
X0120008Y0203687D02*
X0101009Y0203687D01*
X0098481Y0201690D02*
X0092638Y0201690D01*
X0092638Y0200692D02*
X0098739Y0200692D01*
X0097482Y0202689D02*
X0092638Y0202689D01*
X0092167Y0203687D02*
X0096484Y0203687D01*
X0095485Y0204686D02*
X0055611Y0204686D01*
X0056609Y0205684D02*
X0094487Y0205684D01*
X0093488Y0206683D02*
X0057608Y0206683D01*
X0054612Y0203687D02*
X0083023Y0203687D01*
X0082552Y0202689D02*
X0054195Y0202689D01*
X0054195Y0201690D02*
X0082552Y0201690D01*
X0082552Y0200692D02*
X0054195Y0200692D01*
X0054195Y0191705D02*
X0082952Y0191705D01*
X0082952Y0190707D02*
X0054195Y0190707D01*
X0054195Y0189708D02*
X0082952Y0189708D01*
X0082952Y0188710D02*
X0054195Y0188710D01*
X0054195Y0187711D02*
X0082952Y0187711D01*
X0082952Y0186713D02*
X0054195Y0186713D01*
X0054195Y0185714D02*
X0082952Y0185714D01*
X0083052Y0184716D02*
X0054195Y0184716D01*
X0054195Y0177726D02*
X0118495Y0177726D01*
X0118495Y0176728D02*
X0054195Y0176728D01*
X0054195Y0175729D02*
X0118540Y0175729D01*
X0118810Y0174731D02*
X0054195Y0174731D01*
X0054195Y0173732D02*
X0119417Y0173732D01*
X0120628Y0172734D02*
X0054195Y0172734D01*
X0055575Y0167741D02*
X0059615Y0167741D01*
X0058616Y0166743D02*
X0056574Y0166743D01*
X0057041Y0165744D02*
X0058150Y0165744D01*
X0057795Y0164745D02*
X0057395Y0164745D01*
X0057395Y0163747D02*
X0057795Y0163747D01*
X0057890Y0162748D02*
X0057300Y0162748D01*
X0056886Y0161750D02*
X0058304Y0161750D01*
X0058989Y0160751D02*
X0056202Y0160751D01*
X0055046Y0159753D02*
X0060144Y0159753D01*
X0059630Y0157756D02*
X0055560Y0157756D01*
X0056559Y0156757D02*
X0058631Y0156757D01*
X0058156Y0155759D02*
X0057034Y0155759D01*
X0057395Y0154760D02*
X0057795Y0154760D01*
X0057795Y0153762D02*
X0057395Y0153762D01*
X0057306Y0152763D02*
X0057884Y0152763D01*
X0058298Y0151765D02*
X0056892Y0151765D01*
X0056217Y0150766D02*
X0058974Y0150766D01*
X0060108Y0149768D02*
X0055082Y0149768D01*
X0054538Y0148769D02*
X0105496Y0148769D01*
X0106495Y0147771D02*
X0065546Y0147771D01*
X0065314Y0148002D02*
X0063550Y0148733D01*
X0061640Y0148733D01*
X0059876Y0148002D01*
X0058526Y0146652D01*
X0057795Y0144888D01*
X0057795Y0142978D01*
X0058526Y0141214D01*
X0059876Y0139864D01*
X0061640Y0139133D01*
X0063550Y0139133D01*
X0065314Y0139864D01*
X0066664Y0141214D01*
X0067395Y0142978D01*
X0067395Y0144888D01*
X0066664Y0146652D01*
X0065314Y0148002D01*
X0066544Y0146772D02*
X0107493Y0146772D01*
X0108492Y0145774D02*
X0067028Y0145774D01*
X0067395Y0144775D02*
X0109490Y0144775D01*
X0110489Y0143777D02*
X0067395Y0143777D01*
X0067312Y0142778D02*
X0111487Y0142778D01*
X0112486Y0141780D02*
X0066899Y0141780D01*
X0066232Y0140781D02*
X0113484Y0140781D01*
X0114483Y0139783D02*
X0065118Y0139783D01*
X0065314Y0138002D02*
X0063550Y0138733D01*
X0061640Y0138733D01*
X0059876Y0138002D01*
X0058526Y0136652D01*
X0057795Y0134888D01*
X0057795Y0132978D01*
X0058526Y0131214D01*
X0059876Y0129864D01*
X0061640Y0129133D01*
X0063550Y0129133D01*
X0065314Y0129864D01*
X0066664Y0131214D01*
X0067395Y0132978D01*
X0067395Y0134888D01*
X0066664Y0136652D01*
X0065314Y0138002D01*
X0065531Y0137786D02*
X0116480Y0137786D01*
X0115481Y0138784D02*
X0054492Y0138784D01*
X0053095Y0138784D02*
X0052095Y0138784D01*
X0052095Y0137786D02*
X0053095Y0137786D01*
X0053095Y0136787D02*
X0052095Y0136787D01*
X0052095Y0135789D02*
X0053095Y0135789D01*
X0053095Y0134790D02*
X0052095Y0134790D01*
X0052095Y0133792D02*
X0038895Y0133792D01*
X0038895Y0134790D02*
X0047466Y0134790D01*
X0047730Y0135789D02*
X0038895Y0135789D01*
X0038895Y0136787D02*
X0048241Y0136787D01*
X0049094Y0137786D02*
X0038895Y0137786D01*
X0038895Y0138784D02*
X0050698Y0138784D01*
X0049461Y0139783D02*
X0038895Y0139783D01*
X0038895Y0140781D02*
X0048458Y0140781D01*
X0047856Y0141780D02*
X0038895Y0141780D01*
X0038895Y0142778D02*
X0047513Y0142778D01*
X0047464Y0144775D02*
X0038895Y0144775D01*
X0038895Y0143777D02*
X0052095Y0143777D01*
X0052095Y0144775D02*
X0053095Y0144775D01*
X0053095Y0143777D02*
X0057795Y0143777D01*
X0057795Y0144775D02*
X0057727Y0144775D01*
X0057465Y0145774D02*
X0058162Y0145774D01*
X0058646Y0146772D02*
X0056960Y0146772D01*
X0056111Y0147771D02*
X0059645Y0147771D01*
X0057878Y0142778D02*
X0057677Y0142778D01*
X0057334Y0141780D02*
X0058292Y0141780D01*
X0058959Y0140781D02*
X0056733Y0140781D01*
X0055729Y0139783D02*
X0060072Y0139783D01*
X0059660Y0137786D02*
X0056096Y0137786D01*
X0056949Y0136787D02*
X0058661Y0136787D01*
X0058168Y0135789D02*
X0057460Y0135789D01*
X0057724Y0134790D02*
X0057795Y0134790D01*
X0057795Y0133792D02*
X0053095Y0133792D01*
X0053095Y0132793D02*
X0052095Y0132793D01*
X0052095Y0131795D02*
X0053095Y0131795D01*
X0053095Y0130796D02*
X0052095Y0130796D01*
X0052095Y0129798D02*
X0053095Y0129798D01*
X0053095Y0128799D02*
X0052095Y0128799D01*
X0052095Y0127801D02*
X0053095Y0127801D01*
X0053095Y0126802D02*
X0052095Y0126802D01*
X0052095Y0125804D02*
X0053095Y0125804D01*
X0053095Y0124805D02*
X0052095Y0124805D01*
X0052095Y0123807D02*
X0038895Y0123807D01*
X0038895Y0124805D02*
X0047468Y0124805D01*
X0047735Y0125804D02*
X0038895Y0125804D01*
X0038895Y0126802D02*
X0048252Y0126802D01*
X0049109Y0127801D02*
X0038895Y0127801D01*
X0038895Y0128799D02*
X0050744Y0128799D01*
X0049440Y0129798D02*
X0038895Y0129798D01*
X0038895Y0130796D02*
X0048447Y0130796D01*
X0047849Y0131795D02*
X0038895Y0131795D01*
X0038895Y0132793D02*
X0047511Y0132793D01*
X0054447Y0128799D02*
X0125466Y0128799D01*
X0125995Y0127801D02*
X0065516Y0127801D01*
X0065154Y0129798D02*
X0124468Y0129798D01*
X0123469Y0130796D02*
X0066246Y0130796D01*
X0066905Y0131795D02*
X0122471Y0131795D01*
X0121472Y0132793D02*
X0067318Y0132793D01*
X0067395Y0133792D02*
X0120474Y0133792D01*
X0119475Y0134790D02*
X0067395Y0134790D01*
X0067022Y0135789D02*
X0118477Y0135789D01*
X0117478Y0136787D02*
X0066529Y0136787D01*
X0057872Y0132793D02*
X0057679Y0132793D01*
X0057342Y0131795D02*
X0058285Y0131795D01*
X0058944Y0130796D02*
X0056744Y0130796D01*
X0055750Y0129798D02*
X0060036Y0129798D01*
X0059674Y0127801D02*
X0056082Y0127801D01*
X0056938Y0126802D02*
X0058676Y0126802D01*
X0058174Y0125804D02*
X0057455Y0125804D01*
X0057722Y0124805D02*
X0057795Y0124805D01*
X0057795Y0123807D02*
X0053095Y0123807D01*
X0053095Y0122808D02*
X0052095Y0122808D01*
X0052095Y0121810D02*
X0053095Y0121810D01*
X0053095Y0120811D02*
X0052095Y0120811D01*
X0052095Y0119812D02*
X0053095Y0119812D01*
X0055770Y0119812D02*
X0060000Y0119812D01*
X0058929Y0120811D02*
X0056754Y0120811D01*
X0057349Y0121810D02*
X0058279Y0121810D01*
X0057866Y0122808D02*
X0057682Y0122808D01*
X0049420Y0119812D02*
X0038895Y0119812D01*
X0038895Y0120811D02*
X0048436Y0120811D01*
X0047841Y0121810D02*
X0038895Y0121810D01*
X0038895Y0122808D02*
X0047509Y0122808D01*
X0052095Y0139783D02*
X0053095Y0139783D01*
X0053095Y0140781D02*
X0052095Y0140781D01*
X0052095Y0141780D02*
X0053095Y0141780D01*
X0053095Y0142778D02*
X0052095Y0142778D01*
X0052095Y0145774D02*
X0053095Y0145774D01*
X0053095Y0146772D02*
X0052095Y0146772D01*
X0052095Y0147771D02*
X0053095Y0147771D01*
X0053095Y0148769D02*
X0052095Y0148769D01*
X0050652Y0148769D02*
X0038895Y0148769D01*
X0038895Y0147771D02*
X0049079Y0147771D01*
X0048230Y0146772D02*
X0038895Y0146772D01*
X0038895Y0145774D02*
X0047726Y0145774D01*
X0050108Y0149768D02*
X0038895Y0149768D01*
X0038895Y0150766D02*
X0048974Y0150766D01*
X0048298Y0151765D02*
X0038895Y0151765D01*
X0038895Y0152763D02*
X0047884Y0152763D01*
X0047795Y0153762D02*
X0038895Y0153762D01*
X0038895Y0154760D02*
X0047795Y0154760D01*
X0054195Y0158754D02*
X0255995Y0158754D01*
X0285046Y0159753D02*
X0296295Y0159753D01*
X0296295Y0160751D02*
X0286202Y0160751D01*
X0286886Y0161750D02*
X0296295Y0161750D01*
X0296295Y0162748D02*
X0287300Y0162748D01*
X0287395Y0163747D02*
X0296295Y0163747D01*
X0296295Y0164745D02*
X0287395Y0164745D01*
X0287041Y0165744D02*
X0296295Y0165744D01*
X0296295Y0166743D02*
X0286574Y0166743D01*
X0285575Y0167741D02*
X0296295Y0167741D01*
X0296295Y0146772D02*
X0286544Y0146772D01*
X0287028Y0145774D02*
X0296295Y0145774D01*
X0296295Y0144775D02*
X0287395Y0144775D01*
X0287395Y0143777D02*
X0296295Y0143777D01*
X0296295Y0142778D02*
X0287312Y0142778D01*
X0286899Y0141780D02*
X0296295Y0141780D01*
X0296295Y0140781D02*
X0286232Y0140781D01*
X0285118Y0139783D02*
X0296295Y0139783D01*
X0240578Y0203687D02*
X0215182Y0203687D01*
X0215918Y0204686D02*
X0239580Y0204686D01*
X0238581Y0205684D02*
X0216295Y0205684D01*
X0216295Y0206683D02*
X0237582Y0206683D01*
X0236584Y0207681D02*
X0216295Y0207681D01*
X0216295Y0208680D02*
X0235585Y0208680D01*
X0234587Y0209679D02*
X0216295Y0209679D01*
X0216295Y0210677D02*
X0233588Y0210677D01*
X0232590Y0211676D02*
X0216295Y0211676D01*
X0216127Y0212674D02*
X0231591Y0212674D01*
X0230593Y0213673D02*
X0215688Y0213673D01*
X0214688Y0214671D02*
X0229594Y0214671D01*
X0210502Y0214671D02*
X0204688Y0214671D01*
X0205688Y0213673D02*
X0209502Y0213673D01*
X0209063Y0212674D02*
X0206127Y0212674D01*
X0206295Y0211676D02*
X0208895Y0211676D01*
X0208895Y0210677D02*
X0206295Y0210677D01*
X0206295Y0209679D02*
X0208895Y0209679D01*
X0208895Y0208680D02*
X0206295Y0208680D01*
X0206295Y0207681D02*
X0208895Y0207681D01*
X0208895Y0206683D02*
X0206295Y0206683D01*
X0206295Y0205684D02*
X0208895Y0205684D01*
X0209273Y0204686D02*
X0205918Y0204686D01*
X0205182Y0203687D02*
X0210008Y0203687D01*
X0200008Y0203687D02*
X0195182Y0203687D01*
X0195918Y0204686D02*
X0199273Y0204686D01*
X0198895Y0205684D02*
X0196295Y0205684D01*
X0196295Y0206683D02*
X0198895Y0206683D01*
X0198895Y0207681D02*
X0196295Y0207681D01*
X0196295Y0208680D02*
X0198895Y0208680D01*
X0198895Y0209679D02*
X0196295Y0209679D01*
X0196295Y0210677D02*
X0198895Y0210677D01*
X0198895Y0211676D02*
X0196295Y0211676D01*
X0196127Y0212674D02*
X0199063Y0212674D01*
X0199502Y0213673D02*
X0195688Y0213673D01*
X0194688Y0214671D02*
X0200502Y0214671D01*
X0190502Y0214671D02*
X0184688Y0214671D01*
X0185688Y0213673D02*
X0189502Y0213673D01*
X0189063Y0212674D02*
X0186127Y0212674D01*
X0186295Y0211676D02*
X0188895Y0211676D01*
X0188895Y0210677D02*
X0186295Y0210677D01*
X0186295Y0209679D02*
X0188895Y0209679D01*
X0188895Y0208680D02*
X0186295Y0208680D01*
X0186295Y0207681D02*
X0188895Y0207681D01*
X0188895Y0206683D02*
X0186295Y0206683D01*
X0186295Y0205684D02*
X0188895Y0205684D01*
X0189273Y0204686D02*
X0185918Y0204686D01*
X0185182Y0203687D02*
X0190008Y0203687D01*
X0180008Y0203687D02*
X0175182Y0203687D01*
X0175918Y0204686D02*
X0179273Y0204686D01*
X0178895Y0205684D02*
X0176295Y0205684D01*
X0176295Y0206683D02*
X0178895Y0206683D01*
X0178895Y0207681D02*
X0176295Y0207681D01*
X0176295Y0208680D02*
X0178895Y0208680D01*
X0178895Y0209679D02*
X0176295Y0209679D01*
X0176295Y0210677D02*
X0178895Y0210677D01*
X0178895Y0211676D02*
X0176295Y0211676D01*
X0176127Y0212674D02*
X0179063Y0212674D01*
X0179502Y0213673D02*
X0175688Y0213673D01*
X0174688Y0214671D02*
X0180502Y0214671D01*
X0170502Y0214671D02*
X0164688Y0214671D01*
X0165688Y0213673D02*
X0169502Y0213673D01*
X0169063Y0212674D02*
X0166127Y0212674D01*
X0166295Y0211676D02*
X0168895Y0211676D01*
X0168895Y0210677D02*
X0166295Y0210677D01*
X0166295Y0209679D02*
X0168895Y0209679D01*
X0168895Y0208680D02*
X0166295Y0208680D01*
X0166295Y0207681D02*
X0168895Y0207681D01*
X0168895Y0206683D02*
X0166295Y0206683D01*
X0166295Y0205684D02*
X0168895Y0205684D01*
X0169273Y0204686D02*
X0165918Y0204686D01*
X0165182Y0203687D02*
X0170008Y0203687D01*
X0160008Y0203687D02*
X0155182Y0203687D01*
X0155918Y0204686D02*
X0159273Y0204686D01*
X0158895Y0205684D02*
X0156295Y0205684D01*
X0156295Y0206683D02*
X0158895Y0206683D01*
X0158895Y0207681D02*
X0156295Y0207681D01*
X0156295Y0208680D02*
X0158895Y0208680D01*
X0158895Y0209679D02*
X0156295Y0209679D01*
X0156295Y0210677D02*
X0158895Y0210677D01*
X0158895Y0211676D02*
X0156295Y0211676D01*
X0156127Y0212674D02*
X0159063Y0212674D01*
X0159502Y0213673D02*
X0155688Y0213673D01*
X0154688Y0214671D02*
X0160502Y0214671D01*
X0150502Y0214671D02*
X0144688Y0214671D01*
X0145688Y0213673D02*
X0149502Y0213673D01*
X0149063Y0212674D02*
X0146127Y0212674D01*
X0146295Y0211676D02*
X0148895Y0211676D01*
X0148895Y0210677D02*
X0146295Y0210677D01*
X0146295Y0209679D02*
X0148895Y0209679D01*
X0148895Y0208680D02*
X0146295Y0208680D01*
X0146295Y0207681D02*
X0148895Y0207681D01*
X0148895Y0206683D02*
X0146295Y0206683D01*
X0146295Y0205684D02*
X0148895Y0205684D01*
X0149273Y0204686D02*
X0145918Y0204686D01*
X0145182Y0203687D02*
X0150008Y0203687D01*
X0140008Y0203687D02*
X0135182Y0203687D01*
X0135918Y0204686D02*
X0139273Y0204686D01*
X0138895Y0205684D02*
X0136295Y0205684D01*
X0136295Y0206683D02*
X0138895Y0206683D01*
X0138895Y0207681D02*
X0136295Y0207681D01*
X0136295Y0208680D02*
X0138895Y0208680D01*
X0138895Y0209679D02*
X0136295Y0209679D01*
X0136295Y0210677D02*
X0138895Y0210677D01*
X0138895Y0211676D02*
X0136295Y0211676D01*
X0136127Y0212674D02*
X0139063Y0212674D01*
X0139502Y0213673D02*
X0135688Y0213673D01*
X0134688Y0214671D02*
X0140502Y0214671D01*
X0130502Y0214671D02*
X0124688Y0214671D01*
X0125688Y0213673D02*
X0129502Y0213673D01*
X0129063Y0212674D02*
X0126127Y0212674D01*
X0126295Y0211676D02*
X0128895Y0211676D01*
X0128895Y0210677D02*
X0126295Y0210677D01*
X0126295Y0209679D02*
X0128895Y0209679D01*
X0128895Y0208680D02*
X0126295Y0208680D01*
X0126295Y0207681D02*
X0128895Y0207681D01*
X0128895Y0206683D02*
X0126295Y0206683D01*
X0126295Y0205684D02*
X0128895Y0205684D01*
X0129273Y0204686D02*
X0125918Y0204686D01*
X0125182Y0203687D02*
X0130008Y0203687D01*
X0130000Y0184716D02*
X0125190Y0184716D01*
X0126076Y0183717D02*
X0129114Y0183717D01*
X0128669Y0182719D02*
X0126521Y0182719D01*
X0126695Y0181720D02*
X0128495Y0181720D01*
X0128495Y0180722D02*
X0126695Y0180722D01*
X0126695Y0179723D02*
X0128495Y0179723D01*
X0128495Y0177726D02*
X0126695Y0177726D01*
X0126695Y0176728D02*
X0128495Y0176728D01*
X0128540Y0175729D02*
X0126651Y0175729D01*
X0126380Y0174731D02*
X0128810Y0174731D01*
X0129417Y0173732D02*
X0125773Y0173732D01*
X0124562Y0172734D02*
X0130628Y0172734D01*
X0132295Y0172734D02*
X0132895Y0172734D01*
X0132895Y0173732D02*
X0132295Y0173732D01*
X0132295Y0174731D02*
X0132895Y0174731D01*
X0132895Y0175729D02*
X0132295Y0175729D01*
X0132295Y0176728D02*
X0132895Y0176728D01*
X0132895Y0177726D02*
X0132295Y0177726D01*
X0132295Y0180722D02*
X0132895Y0180722D01*
X0132895Y0181720D02*
X0132295Y0181720D01*
X0132295Y0182719D02*
X0132895Y0182719D01*
X0132895Y0183717D02*
X0132295Y0183717D01*
X0132295Y0184716D02*
X0132895Y0184716D01*
X0135190Y0184716D02*
X0140000Y0184716D01*
X0139114Y0183717D02*
X0136076Y0183717D01*
X0136521Y0182719D02*
X0138669Y0182719D01*
X0138495Y0181720D02*
X0136695Y0181720D01*
X0136695Y0180722D02*
X0138495Y0180722D01*
X0138495Y0179723D02*
X0136695Y0179723D01*
X0136695Y0177726D02*
X0138495Y0177726D01*
X0138495Y0176728D02*
X0136695Y0176728D01*
X0136651Y0175729D02*
X0138540Y0175729D01*
X0138810Y0174731D02*
X0136380Y0174731D01*
X0135773Y0173732D02*
X0139417Y0173732D01*
X0140628Y0172734D02*
X0134562Y0172734D01*
X0142295Y0172734D02*
X0142895Y0172734D01*
X0142895Y0173732D02*
X0142295Y0173732D01*
X0142295Y0174731D02*
X0142895Y0174731D01*
X0142895Y0175729D02*
X0142295Y0175729D01*
X0142295Y0176728D02*
X0142895Y0176728D01*
X0142895Y0177726D02*
X0142295Y0177726D01*
X0142295Y0180722D02*
X0142895Y0180722D01*
X0142895Y0181720D02*
X0142295Y0181720D01*
X0142295Y0182719D02*
X0142895Y0182719D01*
X0142895Y0183717D02*
X0142295Y0183717D01*
X0142295Y0184716D02*
X0142895Y0184716D01*
X0145190Y0184716D02*
X0150000Y0184716D01*
X0149114Y0183717D02*
X0146076Y0183717D01*
X0146521Y0182719D02*
X0148669Y0182719D01*
X0148495Y0181720D02*
X0146695Y0181720D01*
X0146695Y0180722D02*
X0148495Y0180722D01*
X0148495Y0179723D02*
X0146695Y0179723D01*
X0146695Y0177726D02*
X0148495Y0177726D01*
X0148495Y0176728D02*
X0146695Y0176728D01*
X0146651Y0175729D02*
X0148540Y0175729D01*
X0148810Y0174731D02*
X0146380Y0174731D01*
X0145773Y0173732D02*
X0149417Y0173732D01*
X0150628Y0172734D02*
X0144562Y0172734D01*
X0152295Y0172734D02*
X0152895Y0172734D01*
X0152895Y0173732D02*
X0152295Y0173732D01*
X0152295Y0174731D02*
X0152895Y0174731D01*
X0152895Y0175729D02*
X0152295Y0175729D01*
X0152295Y0176728D02*
X0152895Y0176728D01*
X0152895Y0177726D02*
X0152295Y0177726D01*
X0152295Y0180722D02*
X0152895Y0180722D01*
X0152895Y0181720D02*
X0152295Y0181720D01*
X0152295Y0182719D02*
X0152895Y0182719D01*
X0152895Y0183717D02*
X0152295Y0183717D01*
X0152295Y0184716D02*
X0152895Y0184716D01*
X0155190Y0184716D02*
X0160000Y0184716D01*
X0159114Y0183717D02*
X0156076Y0183717D01*
X0156521Y0182719D02*
X0158669Y0182719D01*
X0158495Y0181720D02*
X0156695Y0181720D01*
X0156695Y0180722D02*
X0158495Y0180722D01*
X0158495Y0179723D02*
X0156695Y0179723D01*
X0156695Y0177726D02*
X0158495Y0177726D01*
X0158495Y0176728D02*
X0156695Y0176728D01*
X0156651Y0175729D02*
X0158540Y0175729D01*
X0158810Y0174731D02*
X0156380Y0174731D01*
X0155773Y0173732D02*
X0159417Y0173732D01*
X0160628Y0172734D02*
X0154562Y0172734D01*
X0162295Y0172734D02*
X0162895Y0172734D01*
X0162895Y0173732D02*
X0162295Y0173732D01*
X0162295Y0174731D02*
X0162895Y0174731D01*
X0162895Y0175729D02*
X0162295Y0175729D01*
X0162295Y0176728D02*
X0162895Y0176728D01*
X0162895Y0177726D02*
X0162295Y0177726D01*
X0162295Y0180722D02*
X0162895Y0180722D01*
X0162895Y0181720D02*
X0162295Y0181720D01*
X0162295Y0182719D02*
X0162895Y0182719D01*
X0162895Y0183717D02*
X0162295Y0183717D01*
X0162295Y0184716D02*
X0162895Y0184716D01*
X0165190Y0184716D02*
X0170000Y0184716D01*
X0169114Y0183717D02*
X0166076Y0183717D01*
X0166521Y0182719D02*
X0168669Y0182719D01*
X0168495Y0181720D02*
X0166695Y0181720D01*
X0166695Y0180722D02*
X0168495Y0180722D01*
X0168495Y0179723D02*
X0166695Y0179723D01*
X0166695Y0177726D02*
X0168495Y0177726D01*
X0168495Y0176728D02*
X0166695Y0176728D01*
X0166651Y0175729D02*
X0168540Y0175729D01*
X0168810Y0174731D02*
X0166380Y0174731D01*
X0165773Y0173732D02*
X0169417Y0173732D01*
X0170628Y0172734D02*
X0164562Y0172734D01*
X0172295Y0172734D02*
X0172895Y0172734D01*
X0172895Y0173732D02*
X0172295Y0173732D01*
X0172295Y0174731D02*
X0172895Y0174731D01*
X0172895Y0175729D02*
X0172295Y0175729D01*
X0172295Y0176728D02*
X0172895Y0176728D01*
X0172895Y0177726D02*
X0172295Y0177726D01*
X0172295Y0180722D02*
X0172895Y0180722D01*
X0172895Y0181720D02*
X0172295Y0181720D01*
X0172295Y0182719D02*
X0172895Y0182719D01*
X0172895Y0183717D02*
X0172295Y0183717D01*
X0172295Y0184716D02*
X0172895Y0184716D01*
X0175190Y0184716D02*
X0180000Y0184716D01*
X0179114Y0183717D02*
X0176076Y0183717D01*
X0176521Y0182719D02*
X0178669Y0182719D01*
X0178495Y0181720D02*
X0176695Y0181720D01*
X0176695Y0180722D02*
X0178495Y0180722D01*
X0178495Y0179723D02*
X0176695Y0179723D01*
X0176695Y0177726D02*
X0178495Y0177726D01*
X0178495Y0176728D02*
X0176695Y0176728D01*
X0176651Y0175729D02*
X0178540Y0175729D01*
X0178810Y0174731D02*
X0176380Y0174731D01*
X0175773Y0173732D02*
X0179417Y0173732D01*
X0180628Y0172734D02*
X0174562Y0172734D01*
X0182295Y0172734D02*
X0182895Y0172734D01*
X0182895Y0173732D02*
X0182295Y0173732D01*
X0182295Y0174731D02*
X0182895Y0174731D01*
X0182895Y0175729D02*
X0182295Y0175729D01*
X0182295Y0176728D02*
X0182895Y0176728D01*
X0182895Y0177726D02*
X0182295Y0177726D01*
X0182295Y0180722D02*
X0182895Y0180722D01*
X0182895Y0181720D02*
X0182295Y0181720D01*
X0182295Y0182719D02*
X0182895Y0182719D01*
X0182895Y0183717D02*
X0182295Y0183717D01*
X0182295Y0184716D02*
X0182895Y0184716D01*
X0185190Y0184716D02*
X0190000Y0184716D01*
X0189114Y0183717D02*
X0186076Y0183717D01*
X0186521Y0182719D02*
X0188669Y0182719D01*
X0188495Y0181720D02*
X0186695Y0181720D01*
X0186695Y0180722D02*
X0188495Y0180722D01*
X0188495Y0179723D02*
X0186695Y0179723D01*
X0186695Y0177726D02*
X0188495Y0177726D01*
X0188495Y0176728D02*
X0186695Y0176728D01*
X0186651Y0175729D02*
X0188540Y0175729D01*
X0188810Y0174731D02*
X0186380Y0174731D01*
X0185773Y0173732D02*
X0189417Y0173732D01*
X0190628Y0172734D02*
X0184562Y0172734D01*
X0192295Y0172734D02*
X0192895Y0172734D01*
X0192895Y0173732D02*
X0192295Y0173732D01*
X0192295Y0174731D02*
X0192895Y0174731D01*
X0192895Y0175729D02*
X0192295Y0175729D01*
X0192295Y0176728D02*
X0192895Y0176728D01*
X0192895Y0177726D02*
X0192295Y0177726D01*
X0192295Y0180722D02*
X0192895Y0180722D01*
X0192895Y0181720D02*
X0192295Y0181720D01*
X0192295Y0182719D02*
X0192895Y0182719D01*
X0192895Y0183717D02*
X0192295Y0183717D01*
X0192295Y0184716D02*
X0192895Y0184716D01*
X0195190Y0184716D02*
X0200000Y0184716D01*
X0199114Y0183717D02*
X0196076Y0183717D01*
X0196521Y0182719D02*
X0198669Y0182719D01*
X0198495Y0181720D02*
X0196695Y0181720D01*
X0196695Y0180722D02*
X0198495Y0180722D01*
X0198495Y0179723D02*
X0196695Y0179723D01*
X0196695Y0177726D02*
X0198495Y0177726D01*
X0198495Y0176728D02*
X0196695Y0176728D01*
X0196651Y0175729D02*
X0198540Y0175729D01*
X0198810Y0174731D02*
X0196380Y0174731D01*
X0195773Y0173732D02*
X0199417Y0173732D01*
X0200628Y0172734D02*
X0194562Y0172734D01*
X0202295Y0172734D02*
X0202895Y0172734D01*
X0202895Y0173732D02*
X0202295Y0173732D01*
X0202295Y0174731D02*
X0202895Y0174731D01*
X0202895Y0175729D02*
X0202295Y0175729D01*
X0202295Y0176728D02*
X0202895Y0176728D01*
X0202895Y0177726D02*
X0202295Y0177726D01*
X0202295Y0180722D02*
X0202895Y0180722D01*
X0202895Y0181720D02*
X0202295Y0181720D01*
X0202295Y0182719D02*
X0202895Y0182719D01*
X0202895Y0183717D02*
X0202295Y0183717D01*
X0202295Y0184716D02*
X0202895Y0184716D01*
X0205190Y0184716D02*
X0210000Y0184716D01*
X0209114Y0183717D02*
X0206076Y0183717D01*
X0206521Y0182719D02*
X0208669Y0182719D01*
X0208495Y0181720D02*
X0206695Y0181720D01*
X0206695Y0180722D02*
X0208495Y0180722D01*
X0208495Y0179723D02*
X0206695Y0179723D01*
X0206695Y0177726D02*
X0208495Y0177726D01*
X0208495Y0176728D02*
X0206695Y0176728D01*
X0206651Y0175729D02*
X0208540Y0175729D01*
X0208810Y0174731D02*
X0206380Y0174731D01*
X0205773Y0173732D02*
X0209417Y0173732D01*
X0210628Y0172734D02*
X0204562Y0172734D01*
X0212295Y0172734D02*
X0212895Y0172734D01*
X0212895Y0173732D02*
X0212295Y0173732D01*
X0212295Y0174731D02*
X0212895Y0174731D01*
X0212895Y0175729D02*
X0212295Y0175729D01*
X0212295Y0176728D02*
X0212895Y0176728D01*
X0212895Y0177726D02*
X0212295Y0177726D01*
X0212295Y0180722D02*
X0212895Y0180722D01*
X0212895Y0181720D02*
X0212295Y0181720D01*
X0212295Y0182719D02*
X0212895Y0182719D01*
X0212895Y0183717D02*
X0212295Y0183717D01*
X0212295Y0184716D02*
X0212895Y0184716D01*
X0279682Y0212674D02*
X0296295Y0212674D01*
X0296295Y0213673D02*
X0283795Y0213673D01*
X0283623Y0213574D02*
X0283623Y0213574D01*
X0285524Y0214671D02*
X0296295Y0214671D01*
X0296295Y0215670D02*
X0287253Y0215670D01*
X0288472Y0216668D02*
X0296295Y0216668D01*
X0296295Y0217667D02*
X0289399Y0217667D01*
X0290325Y0218665D02*
X0296295Y0218665D01*
X0296295Y0219664D02*
X0291240Y0219664D01*
X0291721Y0220662D02*
X0296295Y0220662D01*
X0296295Y0221661D02*
X0292202Y0221661D01*
X0292683Y0222659D02*
X0296295Y0222659D01*
X0296295Y0223658D02*
X0293164Y0223658D01*
X0293362Y0224070D02*
X0293362Y0224070D01*
X0293450Y0224656D02*
X0296295Y0224656D01*
X0296295Y0225655D02*
X0293601Y0225655D01*
X0293751Y0226653D02*
X0296295Y0226653D01*
X0296295Y0227652D02*
X0293902Y0227652D01*
X0294052Y0228650D02*
X0296295Y0228650D01*
X0296255Y0229649D02*
X0293987Y0229649D01*
X0293837Y0230647D02*
X0296199Y0230647D01*
X0296036Y0231646D02*
X0293686Y0231646D01*
X0293536Y0232644D02*
X0295808Y0232644D01*
X0295580Y0233643D02*
X0293385Y0233643D01*
X0293362Y0233797D02*
X0293362Y0233797D01*
X0292955Y0234641D02*
X0295353Y0234641D01*
X0294990Y0235640D02*
X0292474Y0235640D01*
X0291994Y0236638D02*
X0294509Y0236638D01*
X0294029Y0237637D02*
X0291513Y0237637D01*
X0291228Y0238228D02*
X0291228Y0238228D01*
X0290850Y0238635D02*
X0293548Y0238635D01*
X0292829Y0239634D02*
X0289923Y0239634D01*
X0288997Y0240632D02*
X0292033Y0240632D01*
X0291237Y0241631D02*
X0288071Y0241631D01*
X0286504Y0242629D02*
X0290224Y0242629D01*
X0200626Y0245625D02*
X0049428Y0245625D01*
X0058828Y0212479D02*
X0058828Y0212479D01*
X0087095Y0203687D02*
X0088095Y0203687D01*
X0088095Y0202689D02*
X0087095Y0202689D01*
X0087095Y0201690D02*
X0088095Y0201690D01*
X0088095Y0198695D02*
X0087095Y0198695D01*
X0087095Y0197696D02*
X0088095Y0197696D01*
X0088095Y0196698D02*
X0087095Y0196698D01*
X0087095Y0195699D02*
X0088095Y0195699D01*
X0092238Y0185714D02*
X0098739Y0185714D01*
X0099233Y0184716D02*
X0092138Y0184716D01*
X0122295Y0184716D02*
X0122895Y0184716D01*
X0122895Y0183717D02*
X0122295Y0183717D01*
X0122295Y0182719D02*
X0122895Y0182719D01*
X0122895Y0181720D02*
X0122295Y0181720D01*
X0122295Y0180722D02*
X0122895Y0180722D01*
X0122895Y0177726D02*
X0122295Y0177726D01*
X0122295Y0176728D02*
X0122895Y0176728D01*
X0122895Y0175729D02*
X0122295Y0175729D01*
X0122295Y0174731D02*
X0122895Y0174731D01*
X0122895Y0173732D02*
X0122295Y0173732D01*
X0122295Y0172734D02*
X0122895Y0172734D01*
X0102595Y0153933D02*
X0127595Y0128933D01*
X0127595Y0103933D01*
X0137595Y0093933D01*
X0125995Y0106832D02*
X0119678Y0106832D01*
X0119190Y0107830D02*
X0125995Y0107830D01*
X0125995Y0108829D02*
X0118353Y0108829D01*
X0116840Y0109827D02*
X0125995Y0109827D01*
X0158353Y0108829D02*
X0177403Y0108829D01*
X0176404Y0107830D02*
X0159190Y0107830D01*
X0159678Y0106832D02*
X0175945Y0106832D01*
X0175595Y0105833D02*
X0159933Y0105833D01*
X0155295Y0073881D02*
X0154295Y0073881D01*
X0154295Y0072882D02*
X0155295Y0072882D01*
X0155295Y0071884D02*
X0154295Y0071884D01*
X0154295Y0070885D02*
X0155295Y0070885D01*
X0104498Y0149768D02*
X0065082Y0149768D01*
X0066217Y0150766D02*
X0103499Y0150766D01*
X0102501Y0151765D02*
X0066892Y0151765D01*
X0062595Y0153933D02*
X0102595Y0153933D01*
D16*
X0202595Y0243933D03*
X0207595Y0243933D03*
X0257595Y0143933D03*
X0262595Y0133933D03*
M02*
